<svg data-v-f35fd5a0="" xmlns="http://www.w3.org/2000/svg" xmlns:xlink="http://www.w3.org/1999/xlink" xmlns:ev="http://www.w3.org/2001/xml-events" style="overflow: hidden; width: 100%; min-height: 100vh;"><g id="viewport-20201011234936991" class="svg-pan-zoom_viewport" transform="matrix(0.5717660818010942,0,0,0.5717660818010942,128.26012438812955,175.55454716209093)" style="transform: matrix(0.571766, 0, 0, 0.571766, 128.26, 175.555);"><!--?xml version="1.0" encoding="UTF-8"?--> 
<!--?xml-stylesheet href="../../styles/svg.css" type="text/css"?--> 
<svg xmlns="http://www.w3.org/2000/svg" id="svgid" xml:space="preserve" viewBox="37 607 1731 2795" preserveAspectRatio="xMinYMin meet" zoomAndPan="magnify" version="1.0" width="100%" height="100%" contentscripttype="text/ecmascript" contentstyletype="text/css" xmlns:xlink="http://www.w3.org/1999/xlink">
<title>Schaltplan Viewer - Copyright BMW AG 2006</title>
<style xml:space="preserve" type="text/css">path {fill-rule:evenodd; stroke-linecap:round; stroke-linejoin:round}
rect {stroke-linejoin:miter}
text.t1 {font-family:'Courier SWA',monospace;font-size:31;fill:#000000}
path.white {fill:#FFFFFF;stroke:none}
path.black {fill:#000000;stroke:none}
path.stroke3 {fill:none;stroke:#000000;stroke-width:3}
path.stroke4 {fill:none;stroke:#000000;stroke-width:4}
path.stroke5 {fill:none;stroke:#000000;stroke-width:5}
path.stroke6 {fill:none;stroke:#000000;stroke-width:6}
path.stroke7 {fill:none;stroke:#000000;stroke-width:7 }
path.stroke8 {fill:none;stroke:#000000;stroke-width:8 }
path.stroke9 {fill:none;stroke:#000000;stroke-width:9 }
path.stroke10 {fill:none;stroke:#000000;stroke-width:10 }
path.stroke11 {fill:none;stroke:#000000;stroke-width:11}
path.stroke14 {fill:none;stroke:#000000;stroke-width:14}</style>
<desc>customer: BMW
date: 13.07.2006
time: 11:09:58
language: British engl
project: E65
version: 1.0</desc>
<g id="gid">
<text class="t1"></text>
<path style="fill:#DFDFDF;stroke:none" d="M 313,1916 l 1200,0 0,218 -1200,0 0,-218 z"></path>
<path class="stroke8" d="M 313,1916 l 1200,0 0,218 -1200,0 0,-218"></path>
<path style="fill:#DFDFDF;stroke:none" d="M 313,3006 l 1200,0 0,327 -1200,0 0,-327 z"></path>
<path class="stroke8" d="M 313,3006 l 15,0 m 18,0 l 30,0 m 18,0 l 30,0 m 18,0 l 30,0 m 18,0 l 30,0 m 18,0 l 30,0 m 18,0 l 30,0 m 18,0 l 30,0 m 18,0 l 30,0 m 18,0 l 30,0 m 18,0 l 30,0 m 18,0 l 30,0 m 18,0 l 30,0 m 18,0 l 30,0 m 18,0 l 30,0 m 18,0 l 30,0 m 18,0 l 30,0 m 18,0 l 30,0 m 18,0 l 30,0 m 18,0 l 30,0 m 18,0 l 30,0 m 18,0 l 30,0 m 18,0 l 30,0 m 18,0 l 30,0 m 18,0 l 30,0 m 18,0 l 15,0 0,14 m 0,18 l 0,29 m 0,17 l 0,29 m 0,18 l 0,29 m 0,17 l 0,30 m 0,17 l 0,29 m 0,18 l 0,29 m 0,17 l 0,16 -15,0"></path>
<path class="stroke8" d="M 1480,3333 l -30,0 m -18,0 l -30,0 m -18,0 l -30,0 m -18,0 l -30,0 m -18,0 l -30,0 m -18,0 l -30,0 m -18,0 l -30,0 m -18,0 l -30,0 m -18,0 l -30,0 m -18,0 l -30,0 m -18,0 l -30,0 m -18,0 l -30,0 m -18,0 l -30,0 m -18,0 l -30,0 m -18,0 l -30,0 m -18,0 l -30,0 m -18,0 l -30,0 m -18,0 l -30,0 m -18,0 l -30,0 m -18,0 l -30,0 m -18,0 l -30,0 m -18,0 l -30,0 m -18,0 l -30,0 m -18,0 l -30,0 m -18,0 l -15,0 0,-14 m 0,-18 l 0,-29 m 0,-17 l 0,-29 m 0,-18 l 0,-29 m 0,-17 l 0,-30 m 0,-17 l 0,-29 m 0,-18 l 0,-29 m 0,-17 l 0,-16"></path>
<path style="fill:#DFDFDF;stroke:none" d="M 204,825 l 654,0 0,436 -654,0 0,-436 z"></path>
<path class="stroke8" d="M 204,825 l 14,0 m 18,0 l 29,0 m 17,0 l 29,0 m 18,0 l 29,0 m 17,0 l 30,0 m 17,0 l 29,0 m 18,0 l 29,0 m 17,0 l 29,0 m 18,0 l 29,0 m 17,0 l 30,0 m 17,0 l 29,0 m 18,0 l 29,0 m 17,0 l 29,0 m 18,0 l 29,0 m 17,0 l 17,0 0,15 m 0,18 l 0,30 m 0,18 l 0,30 m 0,18 l 0,31 m 0,18 l 0,30 m 0,18 l 0,30 m 0,18 l 0,30 m 0,19 l 0,30 m 0,18 l 0,30 m 0,18 l 0,17 -14,0 m -18,0 l -29,0 m -17,0 l -29,0 m -18,0 l -29,0 m -17,0 l -30,0 m -17,0 l -29,0 m -18,0 l -29,0 m -17,0 l -29,0 m -18,0 l -29,0 m -17,0 l -30,0"></path>
<path class="stroke8" d="M 407,1261 l -29,0 m -18,0 l -29,0 m -17,0 l -29,0 m -18,0 l -29,0 m -17,0 l -17,0 0,-15 m 0,-18 l 0,-30 m 0,-18 l 0,-30 m 0,-18 l 0,-31 m 0,-18 l 0,-30 m 0,-18 l 0,-30 m 0,-18 l 0,-30 m 0,-19 l 0,-30 m 0,-18 l 0,-30 m 0,-18 l 0,-17"></path>
<path style="fill:#DFDFDF;stroke:none" d="M 313,934 l 327,0 0,218 -327,0 0,-218 z"></path>
<path class="stroke8" d="M 313,934 l 14,0 m 18,0 l 29,0 m 17,0 l 29,0 m 18,0 l 29,0 m 17,0 l 30,0 m 17,0 l 29,0 m 18,0 l 29,0 m 17,0 l 16,0 0,13 m 0,16 l 0,28 m 0,16 l 0,27 m 0,16 l 0,28 m 0,16 l 0,27 m 0,16 l 0,15 -14,0 m -18,0 l -29,0 m -17,0 l -29,0 m -18,0 l -29,0 m -17,0 l -30,0 m -17,0 l -29,0 m -18,0 l -29,0 m -17,0 l -16,0 0,-13 m 0,-16 l 0,-28 m 0,-16 l 0,-27 m 0,-16 l 0,-28 m 0,-16 l 0,-27 m 0,-16 l 0,-15"></path>
<path style="fill:none;stroke:#000000;stroke-width:15" d="M 1295,2169 l 0,810 m -437,-810 l 0,810 m -436,-831 l 0,831 m 0,-1690 l 0,599"></path>
<path class="stroke4" d="M 424,1997 l 2,-81 m -4,218 l 2,-106 m 2,-78 l 2,0 2,-2 0,-1 1,-1 0,-3 -1,-1 0,-1 -1,-1 -1,0 -1,-1 -2,0 -1,1 -1,0 -1,1 0,1 -1,1 0,3 1,1 0,1 1,1 1,0 1,1 m 6,-6 l -10,0 0,-2 9,0 m -9,5 l 9,0 m 78,97 l -33,-61 m 0,61 l 33,-61 m -32,-1 l 32,0 m -32,63 l 32,0 m -51,-33 l 34,0 m -35,-15 l -61,0 0,31 61,0 0,-31 m -24,0 l -19,30 m 652,1113 l -5,0 -1,1 -3,0 -1,1 -1,0 -1,1 -2,0 -2,2 -1,0 -8,8 0,1 -2,2 0,2 -1,1 0,1 -1,1 0,3 -1,1 0,10 1,1 0,3 1,1 0,1 1,1 0,2 2,2 0,1 8,8 1,0 2,2 2,0 1,1 1,0 1,1 3,0 1,1 10,0 1,-1 3,0 1,-1 1,0 1,-1 2,0 2,-2 1,0 8,-8 0,-1 2,-2 0,-2  1,-1 0,-1 1,-1 0,-3 1,-1 0,-10 -1,-1 0,-3 -1,-1 0,-1 -1,-1 0,-2 -2,-2 0,-1 -8,-8 -1,0 -2,-2 -2,0 -1,-1 -1,0 -1,-1 -3,0 -1,-1 -4,0 m -41,68 l 79,0 0,-76 -79,0 0,76 m 40,-32 l 0,24 m -21,-25 l 41,0 m -45,-21 l 12,21 m 38,-21 l -13,21 m -26,-2 l -8,-7 6,-4 2,11"></path>
<text class="t3"><tspan x="1550" y="3029">.</tspan>
</text>
<text class="t2"><tspan x="460" y="1607">U_HR&lt;6</tspan>

<tspan x="460" y="1673">0.75</tspan>

<tspan x="460" y="1716">RT/WS</tspan>

<tspan x="1550" y="3065"><a xmlns:xlink="http://www.w3.org/1999/xlink" xlink:type="simple" xlink:show="replace" xlink:actuate="onRequest" xlink:href="javascript:locateTree('A6000');">A6000</a>
</tspan>
</text>
<text class="t2"><tspan x="1550" y="3134">DME control unit</tspan>
</text>
<path class="white" d="M 436,1914 l -27,0 0,-28 27,0 0,28 z"></path>
<path class="black" d="M 423,1914 l -2,0 0,-12 2,0 0,12 z"></path>
<path class="stroke4" d="M 423,1914 l -2,0 0,-12 2,0 0,12"></path>
<path class="stroke6" d="M 409,1900 l 0,-3 1,-1 0,-2 6,-6 2,0 1,-1 6,0 1,1 2,0 6,6 0,2 1,1 0,3"></path>
<text class="t2"><tspan x="460" y="1878"><a xmlns:xlink="http://www.w3.org/1999/xlink" xlink:type="simple" xlink:show="replace" xlink:actuate="onRequest" xlink:href="javascript:locateTree('X1714');">X1714</a>
</tspan>

<tspan x="361" y="1878">4</tspan>
</text>
<path class="white" d="M 845,2134 l 27,0 0,27 -27,0 0,-27 z"></path>
<path class="black" d="M 857,2134 l 2,0 0,11 -2,0 0,-11 z"></path>
<path class="stroke4" d="M 857,2134 l 2,0 0,11 -2,0 0,-11"></path>
<path class="stroke6" d="M 872,2147 l 0,3 -1,1 0,1 -1,1 0,1 -4,4 -1,0 -1,1 -1,0 -1,1 -7,0 -1,-1 -1,0 -1,-1 -1,0 -4,-4 0,-1 -1,-1 0,-1 -1,-1 0,-3"></path>
<text class="t2"><tspan x="797" y="2193">1</tspan>

<tspan x="897" y="2302">S_DMTLP</tspan>

<tspan x="897" y="2367">0.75</tspan>

<tspan x="897" y="2411">BR/BL</tspan>
</text>
<path class="white" d="M 872,3006 l -27,0 0,-27 27,0 0,27 z"></path>
<path class="black" d="M 859,3006 l -1,0 0,-11 1,0 0,11 z"></path>
<path class="stroke4" d="M 859,3006 l -1,0 0,-11 1,0 0,11"></path>
<path class="stroke6" d="M 845,2993 l 0,-3 1,-1 0,-2 1,-1 0,-1 4,-4 1,0 1,-1 1,0 1,-1 7,0 1,1 1,0 1,1 1,0 4,4 0,1 1,1 0,2 1,1 0,3"></path>
<text class="t2"><tspan x="774" y="2970">16</tspan>
</text>
<path class="white" d="M 1281,2134 l 27,0 0,27 -27,0 0,-27 z"></path>
<path class="black" d="M 1294,2134 l 1,0 0,11 -1,0 0,-11 z"></path>
<path class="stroke4" d="M 1294,2134 l 1,0 0,11 -1,0 0,-11"></path>
<path class="stroke6" d="M 1308,2147 l 0,3 -1,1 0,1 -1,1 0,1 -4,4 -1,0 -1,1 -1,0 -1,1 -7,0 -1,-1 -1,0 -1,-1 -1,0 -4,-4 0,-1 -1,-1 0,-1 -1,-1 0,-3"></path>
<text class="t2"><tspan x="1333" y="2193"><a xmlns:xlink="http://www.w3.org/1999/xlink" xlink:type="simple" xlink:show="replace" xlink:actuate="onRequest" xlink:href="javascript:locateTree('X1714');">X1714</a>
</tspan>

<tspan x="1233" y="2193">2</tspan>
</text>
<path class="white" d="M 1308,3006 l -27,0 0,-27 27,0 0,27 z"></path>
<path class="black" d="M 1296,3006 l -2,0 0,-11 2,0 0,11 z"></path>
<path class="stroke4" d="M 1296,3006 l -2,0 0,-11 2,0 0,11"></path>
<path class="stroke6" d="M 1281,2993 l 0,-3 1,-1 0,-2 1,-1 0,-1 4,-4 1,0 1,-1 1,0 1,-1 7,0 1,1 1,0 1,1 1,0 4,4 0,1 1,1 0,2 1,1 0,3"></path>
<text class="t2"><tspan x="1333" y="2970"><a xmlns:xlink="http://www.w3.org/1999/xlink" xlink:type="simple" xlink:show="replace" xlink:actuate="onRequest" xlink:href="javascript:locateTree('X60002');">X60002</a>
</tspan>

<tspan x="1210" y="2970">17</tspan>
</text>
<path class="stroke4" d="M 872,2148 l 28,0 m 14,0 l 29,0 m 13,0 l 29,0 m 13,0 l 29,0 m 13,0 l 29,0 m 14,0 l 28,0 m 14,0 l 29,0 m 13,0 l 29,0 m 13,0 l 29,0 m 13,0 l 29,0"></path>
<text class="t2"><tspan x="1333" y="2302">S_DMTLH</tspan>

<tspan x="1333" y="2367">0.75</tspan>

<tspan x="1333" y="2411">SW/RT</tspan>
</text>
<path class="stroke4" d="M 436,2148 l 28,0 m 14,0 l 29,0 m 13,0 l 29,0 m 13,0 l 29,0 m 13,0 l 29,0 m 14,0 l 28,0 m 14,0 l 29,0 m 13,0 l 29,0 m 13,0 l 29,0 m 13,0 l 29,0"></path>
<text class="t3"><tspan x="1550" y="1923">.</tspan>
</text>
<text class="t2"><tspan x="1550" y="1959"><a xmlns:xlink="http://www.w3.org/1999/xlink" xlink:type="simple" xlink:show="replace" xlink:actuate="onRequest" xlink:href="javascript:locateTree('M119a');">M119a</a>
</tspan>
</text>
<text class="t2"><tspan x="1550" y="2028">Diagnostic module</tspan>

<tspan x="1550" y="2072">for fuel tank leak-</tspan>

<tspan x="1550" y="2116">age</tspan>
</text>
<path class="stroke4" d="M 1258,1943 l -836,0 m 436,6 l 2,0 1,-1 1,0 1,-1 0,-1 1,-1 0,-3 -1,-1 0,-1 -1,-1 -1,0 -1,-1 -3,0 -1,1 -1,0 -1,1 0,1 -1,1 0,3 1,1 0,1 1,1 1,0 1,1 m 7,-5 l -11,0 m 1,-3 l 9,0 m -9,5 l 9,0"></path>
<path class="white" d="M 408,2134 l 28,0 0,27 -28,0 0,-27 z"></path>
<path class="black" d="M 421,2134 l 2,0 0,11 -2,0 0,-11 z"></path>
<path class="stroke4" d="M 421,2134 l 2,0 0,11 -2,0 0,-11"></path>
<path class="stroke6" d="M 435,2147 l 0,3 -1,1 0,2 -6,6 -2,0 -1,1 -6,0 -1,-1 -2,0 -6,-6 0,-2 -1,-1 0,-3"></path>
<text class="t2"><tspan x="361" y="2193">3</tspan>

<tspan x="460" y="2302">S_DMTLV</tspan>

<tspan x="460" y="2367">0.5</tspan>

<tspan x="460" y="2411">SW/GN</tspan>
</text>
<path class="white" d="M 436,3006 l -27,0 0,-27 27,0 0,27 z"></path>
<path class="black" d="M 423,3006 l -2,0 0,-11 2,0 0,11 z"></path>
<path class="stroke4" d="M 423,3006 l -2,0 0,-11 2,0 0,11"></path>
<path class="stroke6" d="M 409,2993 l 0,-3 1,-1 0,-2 1,-1 0,-1 4,-4 1,0 1,-1 1,0 1,-1 6,0 1,1 1,0 1,1 1,0 4,4 0,1 1,1 0,2 1,1 0,3"></path>
<text class="t2"><tspan x="338" y="2970">22</tspan>
</text>
<path class="stroke4" d="M 436,2993 l 28,0 m 14,0 l 29,0 m 13,0 l 29,0 m 13,0 l 29,0 m 13,0 l 29,0 m 14,0 l 28,0 m 14,0 l 29,0 m 13,0 l 29,0 m 13,0 l 29,0 m 13,0 l 29,0 m 414,-1050 l 0,29 73,0 0,27 -73,0 0,26 73,0 0,26 -73,0 0,27 73,0 0,26 -37,0 1,0 0,30"></path>
<path class="stroke8" d="M 313,1916 l 1200,0 0,218 -1200,0 0,-218"></path>
<path class="stroke4" d="M 989,3269 l 2,0 1,-1 1,0 1,-1 0,-1 1,-1 0,-3 -1,-1 0,-1 -1,-1 -1,0 -1,-1 -4,0 -1,1 -1,0 -1,1 0,1 -1,1 0,3 1,1 0,1 1,1 1,0 1,1 1,0 m 7,-5 l -12,0 m 1,-3 l 10,0 m -10,5 l 9,0"></path>
<text class="t2"><tspan x="911" y="3279">31</tspan>
</text>
<path class="stroke4" d="M 978,3272 l 22,0 m -142,-265 l 0,59 m -10,0 l 21,0 0,85 -21,0 0,-85 m 6,140 l 0,5 1,1 0,3 1,1 0,2 1,1 0,1 1,1 0,1 2,2 0,1 6,6 1,0 2,2 1,0 1,1 1,0 1,1 2,0 1,1 3,0 1,1 10,0 1,-1 2,0 1,-1 2,0 1,-1 1,0 1,-1 1,0 2,-2 1,0 6,-6 0,-1 2,-2 0,-1 1,-1 0,-1 1,-1 0,-2 1,-1 0,-2 1,-1 0,-11 -1,-1 0,-2 -1,-1 0,-2 -1,-1 0,-1 -1,-1 0,-1 -2,-2 0,-1 -6,-6 -1,0 -2,-2 -1,0 -1,-1 -1,0 -1,-1 -2,0 -1,-1 -2,0 -1,-1 -10,0 -1,1 -3,0 -1,1 -2,0 -1,1 -1,0 -1,1 -1,0 -2,2 -1,0 -6,6 0,1 -2,2 0,1 -1,1 0,1 -1,1 0,2 -1,1 0,3 -1,1 0,3 m 4,-54 l  0,40 m 6,22 l 41,0 m -45,-22 l 12,22 m 37,-21 l -2,11 -7,-4 9,-7 m -23,21 l 0,60 m 12,-60 l 12,-22 79,0 0,67 m -131,-213 l 2,0 1,-1 1,0 1,-1 0,-1 1,-1 0,-3 -1,-1 0,-1 -1,-1 -1,0 -1,-1 -3,0 -1,1 -1,0 -1,1 0,1 -1,1 0,3 1,1 0,1 1,1 1,0 1,1 m 50,-5 l 23,0 -23,10 0,-21 23,11 m -23,-4 l 15,0 m -15,-4 l 8,0 m -8,11 l 14,0 m -14,4 l 6,0 m -60,-7 l 64,0 m -63,-3 l 9,0 m -9,5 l 9,0 m -311,228 l 2,0 1,-1 1,0 1,-1 0,-1 1,-1 0,-3 -1,-1 0,-1 -1,-1 -1,0 -1,-1 -3,0 -1,1 -1,0 -1,1 0,1 -1,1 0,3 1,1 0,1 1,1 1,0 1,1 m 7,-6 l -11,0 0,-2 10,0 m -10,5 l 9,0"></path>
<text class="t2"><tspan x="474" y="3280">31</tspan>
</text>
<path class="stroke4" d="M 541,3273 l 22,0 m -142,-265 l 0,59 m -10,0 l 21,0 0,85 -21,0 0,-85 m 6,140 l 0,5 1,1 0,3 1,1 0,2 1,1 0,1 1,1 0,1 2,2 0,1 6,6 1,0 2,2 1,0 1,1 1,0 1,1 2,0 1,1 3,0 1,1 10,0 1,-1 2,0 1,-1 2,0 1,-1 1,0 1,-1 1,0 2,-2 1,0 6,-6 0,-1 2,-2 0,-1 1,-1 0,-1 1,-1 0,-2 1,-1 0,-2 1,-1 0,-11 -1,-1 0,-2 -1,-1 0,-2 -1,-1 0,-1 -1,-1 0,-1 -2,-2 0,-1 -6,-6 -1,0 -2,-2 -1,0 -1,-1 -1,0 -1,-1 -2,0 -1,-1 -2,0 -1,-1 -10,0 -1,1 -3,0 -1,1 -2,0 -1,1 -1,0 -1,1 -1,0 -2,2 -1,0 -6,6 0,1 -2,2 0,1 -1,1 0,1 -1,1 0,2 -1,1 0,3 -1,1 0,3 m 4,-54 l  0,40 m 6,21 l 41,0 m -45,-21 l 12,21 m 37,-20 l -2,11 -7,-4 9,-7 m -23,20 l 0,61 m 12,-61 l 12,-21 79,0 0,67 m -131,-213 l 2,0 1,-1 1,0 1,-1 0,-1 1,-1 0,-3 -1,-1 0,-1 -1,-1 -1,0 -1,-1 -3,0 -1,1 -1,0 -1,1 0,1 -1,1 0,3 1,1 0,1 1,1 1,0 1,1 m 7,-5 l 54,0 m -11,0 l 23,0 -23,10 0,-22 23,12 m -23,-4 l 15,0 m -15,-4 l 8,0 m -8,11 l 14,0 m -14,4 l 6,0 m -49,-8 l -11,0 1,-2 9,0 m -9,5 l 9,0 m 999,226 l 2,0 1,-1 1,0 1,-1 0,-1 1,-1 0,-3 -1,-1 0,-1 -1,-1 -1,0 -1,-1 -3,0 -1,1 -1,0 -1,1 0,1 -1,1 0,3 1,1 0,1 1,1 1,0 1,1 m 7,-5 l -11,0 m 1,-3 l 9,0 m -9,5 l 9,0"></path>
<text class="t2"><tspan x="1347" y="3279">31</tspan>
</text>
<path class="stroke4" d="M 1414,3272 l 22,0 m -141,-265 l 0,59 m -11,0 l 21,0 0,85 -21,0 0,-85 m 6,140 l 0,5 1,1 0,3 1,1 0,2 1,1 0,1 1,1 0,1 2,2 0,1 6,6 1,0 2,2 1,0 1,1 1,0 1,1 2,0 1,1 3,0 1,1 10,0 1,-1 2,0 1,-1 2,0 1,-1 1,0 1,-1 1,0 2,-2 1,0 6,-6 0,-1 2,-2 0,-1 1,-1 0,-1 1,-1 0,-2 1,-1 0,-2 1,-1 0,-11 -1,-1 0,-2 -1,-1 0,-2 -1,-1 0,-1 -1,-1 0,-1 -2,-2 0,-1 -6,-6 -1,0 -2,-2 -1,0 -1,-1 -1,0 -1,-1 -2,0 -1,-1 -2,0 -1,-1 -10,0 -1,1 -3,0 -1,1 -2,0 -1,1 -1,0 -1,1 -1,0 -2,2 -1,0 -6,6 0,1 -2,2 0,1 -1,1 0,1 -1,1 0,2 -1,1 0,3 -1,1 0,3 m 5,-54 l  0,40 m 5,22 l 41,0 m -45,-22 l 12,22 m 37,-21 l -2,11 -6,-4 8,-7 m -23,21 l 0,60 m 12,-60 l 12,-22 79,0 0,67 m -131,-213 l 2,0 1,-1 1,0 1,-1 0,-1 1,-1 0,-3 -1,-1 0,-1 -1,-1 -1,0 -1,-1 -3,0 -1,1 -1,0 -1,1 0,1 -1,1 0,3 1,1 0,1 1,1 1,0 1,1 m 50,-5 l 23,0 -23,10 0,-21 23,11 m -23,-4 l 15,0 m -15,-4 l 8,0 m -8,11 l 14,0 m -14,4 l 6,0 m -60,-7 l 65,0 m -64,-3 l 9,0 m -9,5 l 9,0"></path>
<path class="stroke8" d="M 313,3006 l 15,0 m 18,0 l 30,0 m 18,0 l 30,0 m 18,0 l 30,0 m 18,0 l 30,0 m 18,0 l 30,0 m 18,0 l 30,0 m 18,0 l 30,0 m 18,0 l 30,0 m 18,0 l 30,0 m 18,0 l 30,0 m 18,0 l 30,0 m 18,0 l 30,0 m 18,0 l 30,0 m 18,0 l 30,0 m 18,0 l 30,0 m 18,0 l 30,0 m 18,0 l 30,0 m 18,0 l 30,0 m 18,0 l 30,0 m 18,0 l 30,0 m 18,0 l 30,0 m 18,0 l 30,0 m 18,0 l 30,0 m 18,0 l 30,0 m 18,0 l 15,0 0,14 m 0,18 l 0,29 m 0,17 l 0,29 m 0,18 l 0,29 m 0,17 l 0,30 m 0,17 l 0,29 m 0,18 l 0,29 m 0,17 l 0,16 -15,0"></path>
<path class="stroke8" d="M 1480,3333 l -30,0 m -18,0 l -30,0 m -18,0 l -30,0 m -18,0 l -30,0 m -18,0 l -30,0 m -18,0 l -30,0 m -18,0 l -30,0 m -18,0 l -30,0 m -18,0 l -30,0 m -18,0 l -30,0 m -18,0 l -30,0 m -18,0 l -30,0 m -18,0 l -30,0 m -18,0 l -30,0 m -18,0 l -30,0 m -18,0 l -30,0 m -18,0 l -30,0 m -18,0 l -30,0 m -18,0 l -30,0 m -18,0 l -30,0 m -18,0 l -30,0 m -18,0 l -30,0 m -18,0 l -30,0 m -18,0 l -30,0 m -18,0 l -15,0 0,-14 m 0,-18 l 0,-29 m 0,-17 l 0,-29 m 0,-18 l 0,-29 m 0,-17 l 0,-30 m 0,-17 l 0,-29 m 0,-18 l 0,-29 m 0,-17 l 0,-16"></path>
<path class="white" d="M 408,1261 l 28,0 0,28 -28,0 0,-28 z"></path>
<path class="black" d="M 421,1262 l 2,0 0,11 -2,0 0,-11 z"></path>
<path class="stroke4" d="M 421,1262 l 2,0 0,11 -2,0 0,-11"></path>
<path class="stroke6" d="M 435,1275 l 0,3 -1,1 0,2 -6,6 -2,0 -1,1 -6,0 -1,-1 -2,0 -6,-6 0,-2 -1,-1 0,-3"></path>
<text class="t2"><tspan x="460" y="1321"><a xmlns:xlink="http://www.w3.org/1999/xlink" xlink:type="simple" xlink:show="replace" xlink:actuate="onRequest" xlink:href="javascript:locateTree('X8681');">X8681</a>
</tspan>

<tspan x="361" y="1321">2</tspan>
</text>
<path class="stroke4" d="M 954,2007 l 0,36 -20,0 0,-36 20,0 m -20,36 l -21,0 0,-36 21,0 m -17,0 l 0,36 m 4,-36 l 0,36 m 5,-36 l 0,36 m 4,-36 l 0,36 m -57,16 l 0,17 -29,0 0,-17 m 50,-35 l 0,-5 -1,-1 0,-3 -1,-1 0,-2 -1,-1 0,-1 -1,-1 0,-1 -1,-1 0,-1 -2,-2 0,-1 -7,-7 -1,0 -2,-2 -1,0 -1,-1 -1,0 -1,-1 -1,0 -1,-1 -2,0 -1,-1 -3,0 -1,-1 -11,0 -1,1 -3,0 -1,1 -2,0 -1,1 -1,0 -1,1 -1,0 -1,1 -1,0 -2,2 -1,0 -7,7 0,1 -2,2 0,1 -1,1 0,1 -1,1 0,1 -1,1 0,2 -1,1 0,3 -1,1 0,11 1,1 0,3 1,1 0,2 1,1 0,1 1,1 0,1 1,1 0,1 2,2 0,1 7,7 1,0 2,2 1,0 1,1 1,0 1,1 1,0 1,1 2,0 1,1 3,0 1,1  11,0 1,-1 3,0 1,-1 2,0 1,-1 1,0 1,-1 1,0 1,-1 1,0 2,-2 1,0 7,-7 0,-1 2,-2 0,-1 1,-1 0,-1 1,-1 0,-1 1,-1 0,-2 1,-1 0,-3 1,-1 0,-5 m -25,8 l 0,-19 -10,19 -9,-19 0,19 m -1,8 l 19,0 m -24,32 l 29,0 m -29,-3 l 29,0 m -29,-3 l 29,0 m -29,-4 l 29,0 m -29,-73 l 0,-17 29,0 0,17 m 0,-14 l -29,0 m 29,3 l -29,0 m 29,4 l -29,0 m 29,3 l -29,0 m 14,-13 l 0,-30 m 0,191 l 0,-58 m 14,917 l 28,0 m 14,0 l 29,0 m 13,0 l 29,0 m 13,0 l 29,0 m 13,0 l 29,0 m 14,0 l 28,0 m 14,0 l 29,0 m 13,0 l 29,0 m 13,0 l 29,0 m 13,0 l 29,0"></path>
<path style="fill:none;stroke:#000000;stroke-width:15" d="M 586,1479 l -164,0"></path>
<path class="stroke4" d="M 586,1497 l 40,-18 -40,-19 0,37 m 0,-25 l 23,0 m -23,4 l 31,0 m -31,3 l 40,0 m -40,4 l 31,0 m -31,4 l 23,0 m -23,3 l 15,0 m -15,4 l 7,0 m -7,-26 l 16,0 m -16,-3 l 9,0 m -9,-4 l 1,0"></path>
<path class="white" d="M 418,1463 l -1,1 -2,0 -2,2 -1,0 -5,5 0,1 -1,1 0,2 -1,1 0,7 1,1 0,2 1,1 0,1 5,5 1,0 2,2 2,0 1,1 8,0 1,-1 2,0 2,-2 1,0 5,-5 0,-1 1,-1 0,-2 1,-1 0,-7 -1,-1 0,-2 -1,-1 0,-1 -5,-5 -1,0 -2,-2 -2,0 -1,-1 -8,0 z"></path>
<path class="stroke4" d="M 422,1472 l -2,0 -1,1 -1,0 -2,2 0,1 -1,1 0,5 1,1 0,1 2,2 1,0 1,1 4,0 1,-1 1,0 2,-2 0,-1 1,-1 0,-5 -1,-1 0,-1 -2,-2 -1,0 -1,-1 -1,0 m -6,3 l 10,0 m -11,2 l 12,0 m -13,1 l 14,0 m -14,2 l 14,0 m -13,2 l 12,0 m -11,2 l 11,0 m -9,2 l 6,0 m -6,-13 l 6,0"></path>
<text class="t3"><tspan x="897" y="834">.</tspan>
</text>
<text class="t2"><tspan x="897" y="870"><a xmlns:xlink="http://www.w3.org/1999/xlink" xlink:type="simple" xlink:show="replace" xlink:actuate="onRequest" xlink:href="javascript:locateTree('A8681');">A8681</a>
</tspan>
</text>
<text class="t2"><tspan x="897" y="939">Fuse carrier, en-</tspan>

<tspan x="897" y="983">gine electronics</tspan>
</text>
<path class="stroke4" d="M 439,1012 l -34,0 0,96 34,0 0,-96 m -17,140 l 0,-140 m -7,-15 l 15,0 m -17,3 l 18,0 m -18,2 l 19,0 m -20,3 l 20,0 m -19,2 l 18,0 m -16,3 l 15,0 m -12,-15 l 9,0 m 1,17 l 4,-4 0,-2 1,-1 0,-3 -1,-1 0,-2 -4,-4 -1,0 -1,-1 -6,0 -1,1 -1,0 -1,1 -1,0 -2,2 0,1 -1,1 0,1 -1,1 0,5 1,1 0,1 1,1 3,2"></path>
<text class="t2"><tspan x="679" y="966"><a xmlns:xlink="http://www.w3.org/1999/xlink" xlink:type="simple" xlink:show="replace" xlink:actuate="onRequest" xlink:href="javascript:locateTree('F06');">F06</a>
</tspan>

<tspan x="403" y="980">87</tspan>

<tspan x="488" y="1089">10A</tspan>
</text>
<path class="stroke4" d="M 422,1152 l 0,109"></path>
<path class="stroke8" d="M 204,825 l 14,0 m 18,0 l 29,0 m 17,0 l 29,0 m 18,0 l 29,0 m 17,0 l 30,0 m 17,0 l 29,0 m 18,0 l 29,0 m 17,0 l 29,0 m 18,0 l 29,0 m 17,0 l 30,0 m 17,0 l 29,0 m 18,0 l 29,0 m 17,0 l 29,0 m 18,0 l 29,0 m 17,0 l 17,0 0,15 m 0,18 l 0,30 m 0,18 l 0,30 m 0,18 l 0,31 m 0,18 l 0,30 m 0,18 l 0,30 m 0,18 l 0,30 m 0,19 l 0,30 m 0,18 l 0,30 m 0,18 l 0,17 -14,0 m -18,0 l -29,0 m -17,0 l -29,0 m -18,0 l -29,0 m -17,0 l -30,0 m -17,0 l -29,0 m -18,0 l -29,0 m -17,0 l -29,0 m -18,0 l -29,0 m -17,0 l -30,0"></path>
<path class="stroke8" d="M 407,1261 l -29,0 m -18,0 l -29,0 m -17,0 l -29,0 m -18,0 l -29,0 m -17,0 l -17,0 0,-15 m 0,-18 l 0,-30 m 0,-18 l 0,-30 m 0,-18 l 0,-31 m 0,-18 l 0,-30 m 0,-18 l 0,-30 m 0,-18 l 0,-30 m 0,-19 l 0,-30 m 0,-18 l 0,-30 m 0,-18 l 0,-17 m 109,109 l 14,0 m 18,0 l 29,0 m 17,0 l 29,0 m 18,0 l 29,0 m 17,0 l 30,0 m 17,0 l 29,0 m 18,0 l 29,0 m 17,0 l 16,0 0,13 m 0,16 l 0,28 m 0,16 l 0,27 m 0,16 l 0,28 m 0,16 l 0,27 m 0,16 l 0,15 -14,0 m -18,0 l -29,0 m -17,0 l -29,0 m -18,0 l -29,0 m -17,0 l -30,0 m -17,0 l -29,0 m -18,0 l -29,0"></path>
<path class="stroke8" d="M 329,1152 l -16,0 0,-13 m 0,-16 l 0,-28 m 0,-16 l 0,-27 m 0,-16 l 0,-28 m 0,-16 l 0,-27 m 0,-16 l 0,-15"></path>
<path class="white" d="M 872,2570 l -27,0 0,-27 27,0 0,27 z"></path>
<path class="black" d="M 859,2570 l -1,0 0,-11 1,0 0,11 z"></path>
<path class="stroke4" d="M 859,2570 l -1,0 0,-11 1,0 0,11"></path>
<path class="stroke6" d="M 845,2556 l 0,-3 1,-1 0,-1 1,-1 0,-1 4,-4 1,0 1,-1 1,0 1,-1 7,0 1,1 1,0 1,1 1,0 4,4 0,1 1,1 0,1 1,1 0,3"></path>
<text class="t2"><tspan x="797" y="2534">3</tspan>
</text>
<path class="white" d="M 1308,2570 l -27,0 0,-27 27,0 0,27 z"></path>
<path class="black" d="M 1296,2570 l -2,0 0,-11 2,0 0,11 z"></path>
<path class="stroke4" d="M 1296,2570 l -2,0 0,-11 2,0 0,11"></path>
<path class="stroke6" d="M 1281,2556 l 0,-3 1,-1 0,-1 1,-1 0,-1 4,-4 1,0 1,-1 1,0 1,-1 7,0 1,1 1,0 1,1 1,0 4,4 0,1 1,1 0,1 1,1 0,3"></path>
<text class="t2"><tspan x="1333" y="2534"><a xmlns:xlink="http://www.w3.org/1999/xlink" xlink:type="simple" xlink:show="replace" xlink:actuate="onRequest" xlink:href="javascript:locateTree('X6041');">X6041</a>
</tspan>

<tspan x="1233" y="2534">2</tspan>
</text>
<path class="white" d="M 436,2570 l -27,0 0,-27 27,0 0,27 z"></path>
<path class="black" d="M 423,2570 l -2,0 0,-11 2,0 0,11 z"></path>
<path class="stroke4" d="M 423,2570 l -2,0 0,-11 2,0 0,11"></path>
<path class="stroke6" d="M 409,2556 l 0,-3 1,-1 0,-2 6,-6 2,0 1,-1 6,0 1,1 2,0 6,6 0,2 1,1 0,3"></path>
<text class="t2"><tspan x="361" y="2534">4</tspan>
</text>
<path class="stroke4" d="M 436,2556 l 28,0 m 14,0 l 29,0 m 13,0 l 29,0 m 13,0 l 29,0 m 13,0 l 29,0 m 14,0 l 28,0 m 14,0 l 29,0 m 13,0 l 29,0 m 13,0 l 29,0 m 13,0 l 29,0 m 28,0 l 28,0 m 14,0 l 29,0 m 13,0 l 29,0 m 13,0 l 29,0 m 13,0 l 29,0 m 14,0 l 28,0 m 14,0 l 29,0 m 13,0 l 29,0 m 13,0 l 29,0 m 13,0 l 29,0"></path>
<text class="t2"><tspan x="897" y="2711">S_DMTLP</tspan>

<tspan x="1333" y="2711">S_DMTLH</tspan>

<tspan x="460" y="2711">S_DMTLV</tspan>

<tspan x="1333" y="2776">0.75</tspan>

<tspan x="897" y="2776">0.75</tspan>

<tspan x="460" y="2776">0.75</tspan>

<tspan x="460" y="2820">WS/BR</tspan>

<tspan x="1333" y="2820">WS/SW</tspan>

<tspan x="897" y="2820">WS/VI</tspan>
</text>
</g>
</svg>
</g></svg>