<svg data-v-f35fd5a0="" xmlns="http://www.w3.org/2000/svg" xmlns:xlink="http://www.w3.org/1999/xlink" xmlns:ev="http://www.w3.org/2001/xml-events" style="overflow: hidden; width: 100%; min-height: 100vh;"><g id="viewport-20201011231309851" class="svg-pan-zoom_viewport" transform="matrix(1,0,0,1,0,0)" style="transform: matrix(1, 0, 0, 1, 0, 0);"><!--?xml version="1.0" encoding="UTF-8"?--> 
<!--?xml-stylesheet href="../../styles/svg.css" type="text/css"?--> 
<svg xmlns="http://www.w3.org/2000/svg" id="svgid" xml:space="preserve" viewBox="37 607 4673 2577" preserveAspectRatio="xMinYMin meet" zoomAndPan="magnify" version="1.0" width="100%" height="100%" contentscripttype="text/ecmascript" contentstyletype="text/css" xmlns:xlink="http://www.w3.org/1999/xlink">
<title>Schaltplan Viewer - Copyright BMW AG 2006</title>
<style xml:space="preserve" type="text/css">path {fill-rule:evenodd; stroke-linecap:round; stroke-linejoin:round}
rect {stroke-linejoin:miter}
text.t1 {font-family:'Courier SWA',monospace;font-size:31;fill:#000000}
path.white {fill:#FFFFFF;stroke:none}
path.black {fill:#000000;stroke:none}
path.stroke3 {fill:none;stroke:#000000;stroke-width:3}
path.stroke4 {fill:none;stroke:#000000;stroke-width:4}
path.stroke5 {fill:none;stroke:#000000;stroke-width:5}
path.stroke6 {fill:none;stroke:#000000;stroke-width:6}
path.stroke7 {fill:none;stroke:#000000;stroke-width:7 }
path.stroke8 {fill:none;stroke:#000000;stroke-width:8 }
path.stroke9 {fill:none;stroke:#000000;stroke-width:9 }
path.stroke10 {fill:none;stroke:#000000;stroke-width:10 }
path.stroke11 {fill:none;stroke:#000000;stroke-width:11}
path.stroke14 {fill:none;stroke:#000000;stroke-width:14}</style>
<desc>customer: BMW
date: 10.08.2006
time: 13:13:48
language: British engl
project: E65
version: 1.0</desc>
<g id="gid">
<text class="t1"></text>
<path style="fill:#DFDFDF;stroke:none" d="M 1404,1807 l 654,0 0,218 -654,0 0,-218 z"></path>
<path class="stroke8" d="M 1404,1807 l 654,0 0,218 -654,0 0,-218"></path>
<path style="fill:#DFDFDF;stroke:none" d="M 1731,934 l 327,0 0,218 -327,0 0,-218 z"></path>
<path class="stroke8" d="M 1731,934 l 14,0 m 18,0 l 29,0 m 17,0 l 29,0 m 18,0 l 29,0 m 17,0 l 30,0 m 17,0 l 29,0 m 18,0 l 29,0 m 17,0 l 16,0 0,13 m 0,16 l 0,28 m 0,16 l 0,27 m 0,16 l 0,28 m 0,16 l 0,27 m 0,16 l 0,15 -14,0 m -18,0 l -29,0 m -17,0 l -29,0 m -18,0 l -29,0 m -17,0 l -30,0 m -17,0 l -29,0 m -18,0 l -29,0 m -17,0 l -16,0 0,-13 m 0,-16 l 0,-28 m 0,-16 l 0,-27 m 0,-16 l 0,-28 m 0,-16 l 0,-27 m 0,-16 l 0,-15"></path>
<path style="fill:#DFDFDF;stroke:none" d="M 2930,934 l 328,0 0,218 -328,0 0,-218 z"></path>
<path class="stroke8" d="M 2930,934 l 14,0 m 18,0 l 29,0 m 17,0 l 30,0 m 17,0 l 29,0 m 18,0 l 29,0 m 17,0 l 30,0 m 17,0 l 29,0 m 18,0 l 16,0 0,13 m 0,16 l 0,28 m 0,16 l 0,27 m 0,16 l 0,28 m 0,16 l 0,27 m 0,16 l 0,15 -14,0 m -18,0 l -29,0 m -17,0 l -30,0 m -17,0 l -29,0 m -18,0 l -29,0 m -17,0 l -30,0 m -17,0 l -29,0 m -18,0 l -16,0 0,-13 m 0,-16 l 0,-28 m 0,-16 l 0,-27 m 0,-16 l 0,-28 m 0,-16 l 0,-27 m 0,-16 l 0,-15"></path>
<path style="fill:#DFDFDF;stroke:none" d="M 1622,825 l 1854,0 0,436 -1854,0 0,-436 z"></path>
<path class="stroke8" d="M 1622,825 l 14,0 m 18,0 l 30,0 m 18,0 l 29,0 m 18,0 l 30,0 m 18,0 l 29,0 m 18,0 l 30,0 m 18,0 l 29,0 m 18,0 l 30,0 m 18,0 l 29,0 m 18,0 l 30,0 m 18,0 l 29,0 m 18,0 l 30,0 m 18,0 l 29,0 m 18,0 l 30,0 m 18,0 l 29,0 m 18,0 l 30,0 m 18,0 l 29,0 m 18,0 l 30,0 m 18,0 l 29,0 m 18,0 l 30,0 m 18,0 l 29,0 m 18,0 l 30,0 m 18,0 l 29,0 m 18,0 l 30,0 m 18,0 l 29,0 m 18,0 l 30,0 m 18,0 l 29,0 m 18,0 l 30,0 m 18,0 l 29,0 m 18,0 l 30,0 m 18,0 l 29,0 m 18,0 l 30,0 m 18,0 l 29,0"></path>
<path class="stroke8" d="M 3174,825 l 30,0 m 18,0 l 29,0 m 18,0 l 30,0 m 18,0 l 29,0 m 18,0 l 30,0 m 18,0 l 29,0 m 18,0 l 17,0 0,15 m 0,18 l 0,30 m 0,18 l 0,30 m 0,18 l 0,31 m 0,18 l 0,30 m 0,18 l 0,30 m 0,18 l 0,30 m 0,19 l 0,30 m 0,18 l 0,30 m 0,18 l 0,17 -14,0 m -18,0 l -30,0 m -18,0 l -29,0 m -18,0 l -30,0 m -18,0 l -29,0 m -18,0 l -30,0 m -18,0 l -29,0 m -18,0 l -30,0 m -18,0 l -29,0 m -18,0 l -30,0 m -18,0 l -29,0 m -18,0 l -30,0 m -18,0 l -29,0 m -18,0 l -30,0 m -18,0 l -29,0 m -18,0 l -30,0 m -18,0 l -29,0 m -18,0 l -30,0"></path>
<path class="stroke8" d="M 2636,1261 l -29,0 m -18,0 l -30,0 m -18,0 l -29,0 m -18,0 l -30,0 m -18,0 l -29,0 m -18,0 l -30,0 m -18,0 l -29,0 m -18,0 l -30,0 m -18,0 l -29,0 m -18,0 l -30,0 m -18,0 l -29,0 m -18,0 l -30,0 m -18,0 l -29,0 m -18,0 l -30,0 m -18,0 l -29,0 m -18,0 l -30,0 m -18,0 l -29,0 m -18,0 l -30,0 m -18,0 l -29,0 m -18,0 l -30,0 m -18,0 l -29,0 m -18,0 l -17,0 0,-15 m 0,-18 l 0,-30 m 0,-18 l 0,-30 m 0,-18 l 0,-31 m 0,-18 l 0,-30 m 0,-18 l 0,-30 m 0,-18 l 0,-30 m 0,-19 l 0,-30 m 0,-18 l 0,-30 m 0,-18 l 0,-17"></path>
<path style="fill:#DFDFDF;stroke:none" d="M 2930,1807 l 328,0 0,327 -328,0 0,-327 z"></path>
<path class="stroke8" d="M 2930,1807 l 328,0 0,327 -328,0 0,-327"></path>
<path style="fill:#DFDFDF;stroke:none" d="M 422,2788 l 1309,0 0,327 -1309,0 0,-327 z"></path>
<path class="stroke8" d="M 422,2788 l 15,0 m 18,0 l 30,0 m 18,0 l 31,0 m 18,0 l 30,0 m 18,0 l 30,0 m 18,0 l 31,0 m 18,0 l 30,0 m 18,0 l 31,0 m 18,0 l 30,0 m 18,0 l 30,0 m 18,0 l 31,0 m 18,0 l 30,0 m 18,0 l 31,0 m 18,0 l 30,0 m 18,0 l 30,0 m 18,0 l 31,0 m 18,0 l 30,0 m 18,0 l 31,0 m 18,0 l 30,0 m 18,0 l 30,0 m 18,0 l 31,0 m 18,0 l 30,0 m 18,0 l 31,0 m 18,0 l 30,0 m 18,0 l 30,0 m 18,0 l 31,0 m 18,0 l 30,0 m 18,0 l 18,0 0,14 m 0,18 l 0,29 m 0,17 l 0,29 m 0,18 l 0,29 m 0,17 l 0,30 m 0,17 l 0,29"></path>
<path class="stroke8" d="M 1731,3053 l 0,29 m 0,17 l 0,16 -15,0 m -18,0 l -30,0 m -18,0 l -31,0 m -18,0 l -30,0 m -18,0 l -30,0 m -18,0 l -31,0 m -18,0 l -30,0 m -18,0 l -31,0 m -18,0 l -30,0 m -18,0 l -30,0 m -18,0 l -31,0 m -18,0 l -30,0 m -18,0 l -31,0 m -18,0 l -30,0 m -18,0 l -30,0 m -18,0 l -31,0 m -18,0 l -30,0 m -18,0 l -31,0 m -18,0 l -30,0 m -18,0 l -30,0 m -18,0 l -31,0 m -18,0 l -30,0 m -18,0 l -31,0 m -18,0 l -30,0 m -18,0 l -30,0 m -18,0 l -31,0 m -18,0 l -30,0 m -18,0 l -18,0 0,-14 m 0,-18 l 0,-29 m 0,-17 l 0,-29 m 0,-18 l 0,-29 m 0,-17 l 0,-30"></path>
<path class="stroke8" d="M 422,2897 l 0,-29 m 0,-18 l 0,-29 m 0,-17 l 0,-16"></path>
<path style="fill:#DFDFDF;stroke:none" d="M 204,825 l 545,0 0,327 -545,0 0,-327 z"></path>
<path class="stroke8" d="M 204,825 l 545,0 0,327 -545,0 0,-327"></path>
<path style="fill:#DFDFDF;stroke:none" d="M 4130,1807 l 327,0 0,327 -327,0 0,-327 z"></path>
<path class="stroke8" d="M 4130,1807 l 327,0 0,327 -327,0 0,-327"></path>
<path class="stroke4" d="M 3040,1479 l 1199,0"></path>
<path style="fill:none;stroke:#000000;stroke-width:15" d="M 531,1179 l 0,1582"></path>
<path class="stroke4" d="M 1840,2570 l 2399,0"></path>
<path style="fill:none;stroke:#000000;stroke-width:15" d="M 4239,1479 l 0,300 m 0,382 l 0,409 m -1199,-409 l 0,409 m -1200,-1281 l 0,490"></path>
<text class="t3"><tspan x="1769" y="2797">.</tspan>
</text>
<text class="t2"><tspan x="1769" y="2833"><a xmlns:xlink="http://www.w3.org/1999/xlink" xlink:type="simple" xlink:show="replace" xlink:actuate="onRequest" xlink:href="javascript:locateTree('A6000');">A6000</a>
</tspan>
</text>
<text class="t2"><tspan x="1769" y="2902">DME control unit</tspan>
</text>
<path class="stroke4" d="M 661,3050 l 2,0 1,-1 1,0 1,-1 0,-1 1,-1 0,-3 -1,-1 0,-1 -1,-1 -1,0 -1,-1 -3,0 -1,1 -1,0 -1,1 0,1 -1,1 0,3 1,1 0,1 1,1 1,0 1,1 m 7,-5 l -11,0 m 1,-3 l 9,0 m -9,5 l 9,0"></path>
<text class="t2"><tspan x="584" y="3060">31</tspan>
</text>
<path class="stroke4" d="M 651,3053 l 22,0 m -142,-265 l 0,59 m -10,0 l 21,0 0,85 -21,0 0,-85 m 6,140 l 0,5 1,1 0,3 1,1 0,2 1,1 0,1 1,1 0,1 2,2 0,1 6,6 1,0 2,2 1,0 1,1 1,0 1,1 2,0 1,1 3,0 1,1 10,0 1,-1 2,0 1,-1 2,0 1,-1 1,0 1,-1 1,0 2,-2 1,0 6,-6 0,-1 2,-2 0,-1 1,-1 0,-1 1,-1 0,-2 1,-1 0,-2 1,-1 0,-11 -1,-1 0,-2 -1,-1 0,-2 -1,-1 0,-1 -1,-1 0,-1 -2,-2 0,-1 -6,-6 -1,0 -2,-2 -1,0 -1,-1 -1,0 -1,-1 -2,0 -1,-1 -2,0 -1,-1 -10,0 -1,1 -3,0 -1,1 -2,0 -1,1 -1,0 -1,1 -1,0 -2,2 -1,0 -6,6 0,1 -2,2 0,1 -1,1 0,1 -1,1 0,2 -1,1 0,3 -1,1 0,3 m 4,-54 l  0,40 m 6,22 l 41,0 m -45,-22 l 12,22 m 37,-21 l -2,11 -7,-4 9,-7 m -24,21 l 0,61 m 12,-61 l 13,-22 79,0 0,67 m -131,-213 l 2,0 1,-1 1,0 1,-1 0,-1 1,-1 0,-3 -1,-1 0,-1 -1,-1 -1,0 -1,-1 -3,0 -1,1 -1,0 -1,1 0,1 -1,1 0,3 1,1 0,1 1,1 1,0 1,1 m 49,-5 l 24,0 -24,10 0,-21 24,11 m -24,-4 l 16,0 m -16,-4 l 9,0 m -9,11 l 14,0 m -14,4 l 7,0 m -60,-7 l 64,0 m -63,-3 l 9,0 m -9,5 l 9,0"></path>
<path style="fill:none;stroke:#000000;stroke-width:15" d="M 1840,2052 l 0,600 m -327,-600 l 0,709"></path>
<path class="stroke4" d="M 1526,2038 l 30,0 m 15,0 l 30,0 m 15,0 l 30,0 m 15,0 l 30,0 m 15,0 l 30,0 m 15,0 l 30,0 m 15,0 l 30,0"></path>
<text class="t3"><tspan x="2096" y="1816">.</tspan>
</text>
<text class="t2"><tspan x="2096" y="1852"><a xmlns:xlink="http://www.w3.org/1999/xlink" xlink:type="simple" xlink:show="replace" xlink:actuate="onRequest" xlink:href="javascript:locateTree('B62540a');">B62540a</a>
</tspan>

<tspan x="1551" y="2302">D_BSD</tspan>

<tspan x="1878" y="2302">31L</tspan>

<tspan x="1878" y="2357">0.5</tspan>

<tspan x="1551" y="2357">0.5</tspan>

<tspan x="1551" y="2400">VI</tspan>

<tspan x="1878" y="2400">BR</tspan>
</text>
<text class="t2"><tspan x="2096" y="1921">Oil condition sensor</tspan>
</text>
<path class="white" d="M 1499,2025 l 27,0 0,27 -27,0 0,-27 z"></path>
<path class="black" d="M 1512,2025 l 2,0 0,11 -2,0 0,-11 z"></path>
<path class="stroke4" d="M 1512,2025 l 2,0 0,11 -2,0 0,-11"></path>
<path class="stroke6" d="M 1526,2038 l 0,3 -1,1 0,2 -6,6 -2,0 -1,1 -6,0 -1,-1 -2,0 -6,-6 0,-2 -1,-1 0,-3"></path>
<text class="t2"><tspan x="1451" y="2084">1</tspan>
</text>
<path class="white" d="M 1826,2025 l 27,0 0,27 -27,0 0,-27 z"></path>
<path class="black" d="M 1839,2025 l 2,0 0,11 -2,0 0,-11 z"></path>
<path class="stroke4" d="M 1839,2025 l 2,0 0,11 -2,0 0,-11"></path>
<path class="stroke6" d="M 1853,2038 l 0,3 -1,1 0,2 -6,6 -2,0 -1,1 -6,0 -1,-1 -2,0 -6,-6 0,-2 -1,-1 0,-3"></path>
<text class="t2"><tspan x="1878" y="2084"><a xmlns:xlink="http://www.w3.org/1999/xlink" xlink:type="simple" xlink:show="replace" xlink:actuate="onRequest" xlink:href="javascript:locateTree('X62540');">X62540</a>
</tspan>

<tspan x="1779" y="2084">2</tspan>
</text>
<path class="white" d="M 1527,2788 l -28,0 0,-27 28,0 0,27 z"></path>
<path class="black" d="M 1514,2788 l -2,0 0,-11 2,0 0,11 z"></path>
<path class="stroke4" d="M 1514,2788 l -2,0 0,-11 2,0 0,11"></path>
<path class="stroke6" d="M 1500,2774 l 0,-3 1,-1 0,-2 6,-6 2,0 1,-1 6,0 1,1 2,0 6,6 0,2 1,1 0,3"></path>
<text class="t2"><tspan x="1551" y="2752"><a xmlns:xlink="http://www.w3.org/1999/xlink" xlink:type="simple" xlink:show="replace" xlink:actuate="onRequest" xlink:href="javascript:locateTree('X60005');">X60005</a>
</tspan>

<tspan x="1429" y="2752">35</tspan>
</text>
<path class="white" d="M 517,1152 l 28,0 0,27 -28,0 0,-27 z"></path>
<path class="black" d="M 530,1152 l 2,0 0,12 -2,0 0,-12 z"></path>
<path class="stroke4" d="M 530,1152 l 2,0 0,12 -2,0 0,-12"></path>
<path class="stroke6" d="M 544,1166 l 0,3 -1,1 0,2 -6,6 -2,0 -1,1 -6,0 -1,-1 -2,0 -6,-6 0,-2 -1,-1 0,-3"></path>
<text class="t2"><tspan x="569" y="1211"><a xmlns:xlink="http://www.w3.org/1999/xlink" xlink:type="simple" xlink:show="replace" xlink:actuate="onRequest" xlink:href="javascript:locateTree('X6231');">X6231</a>
</tspan>

<tspan x="470" y="1211">1</tspan>
</text>
<path class="white" d="M 545,2788 l -27,0 0,-27 27,0 0,27 z"></path>
<path class="black" d="M 532,2788 l -2,0 0,-11 2,0 0,11 z"></path>
<path class="stroke4" d="M 532,2788 l -2,0 0,-11 2,0 0,11"></path>
<path class="stroke6" d="M 518,2774 l 0,-3 1,-1 0,-2 6,-6 2,0 1,-1 6,0 1,1 2,0 6,6 0,2 1,1 0,3"></path>
<text class="t2"><tspan x="570" y="2752"><a xmlns:xlink="http://www.w3.org/1999/xlink" xlink:type="simple" xlink:show="replace" xlink:actuate="onRequest" xlink:href="javascript:locateTree('X60007');">X60007</a>
</tspan>

<tspan x="447" y="2752">13</tspan>
</text>
<path class="white" d="M 1854,1807 l -28,0 0,-28 28,0 0,28 z"></path>
<path class="black" d="M 1841,1806 l -2,0 0,-11 2,0 0,11 z"></path>
<path class="stroke4" d="M 1841,1806 l -2,0 0,-11 2,0 0,11"></path>
<path class="stroke6" d="M 1827,1793 l 0,-3 1,-1 0,-2 6,-6 2,0 1,-1 6,0 1,1 2,0 6,6 0,2 1,1 0,3"></path>
<text class="t2"><tspan x="1878" y="1771"><a xmlns:xlink="http://www.w3.org/1999/xlink" xlink:type="simple" xlink:show="replace" xlink:actuate="onRequest" xlink:href="javascript:locateTree('X62540');">X62540</a>
</tspan>

<tspan x="1779" y="1771">3</tspan>
</text>
<path class="stroke8" d="M 1404,1807 l 654,0 0,218 -654,0 0,-218"></path>
<path class="stroke4" d="M 1643,3050 l 2,0 1,-1 1,0 1,-1 0,-1 1,-1 0,-3 -1,-1 0,-1 -1,-1 -1,0 -1,-1 -3,0 -1,1 -1,0 -1,1 0,1 -1,1 0,3 1,1 0,1 1,1 1,0 1,1 m 7,-5 l -11,0 m 1,-3 l 9,0 m -9,5 l 9,0"></path>
<text class="t2"><tspan x="1565" y="3060">31</tspan>
</text>
<path class="stroke4" d="M 1632,3053 l 22,0 m -141,-265 l 0,59 m -11,0 l 21,0 0,85 -21,0 0,-85 m 7,140 l 0,5 1,1 0,3 1,1 0,2 1,1 0,1 1,1 0,1 1,1 0,1 8,8 1,0 1,1 1,0 1,1 1,0 1,1 1,0 1,1 3,0 1,1 10,0 1,-1 3,0 1,-1 1,0 1,-1 1,0 1,-1 1,0 1,-1 1,0 8,-8 0,-1 1,-1 0,-1 1,-1 0,-1 1,-1 0,-1 1,-1 0,-3 1,-1 0,-11 -1,-1 0,-3 -1,-1 0,-1 -1,-1 0,-1 -1,-1 0,-1 -1,-1 0,-1 -8,-8 -1,0 -1,-1 -1,0 -1,-1 -1,0 -1,-1 -1,0 -1,-1 -3,0 -1,-1 -10,0 -1,1 -3,0 -1,1 -1,0 -1,1 -1,0 -1,1 -1,0 -1,1 -1,0 -8,8 0,1 -1,1 0,1 -1,1 0,1 -1,1 0,2 -1,1 0,3 -1,1 0,3 m 4,-54 l  0,40 m 5,22 l 41,0 m -45,-22 l 13,22 m 36,-21 l -2,11 -6,-4 8,-7 m -23,21 l 0,61 m 12,-61 l 12,-22 79,0 0,67 m -131,-213 l 2,0 1,-1 1,0 1,-1 0,-1 1,-1 0,-3 -1,-1 0,-1 -1,-1 -1,0 -1,-1 -3,0 -1,1 -1,0 -1,1 0,1 -1,1 0,3 1,1 0,1 1,1 1,0 1,1 m 50,-5 l 23,0 -23,10 0,-21 23,11 m -23,-4 l 15,0 m -15,-4 l 8,0 m -8,11 l 14,0 m -14,4 l 6,0 m -60,-7 l 65,0 m -64,-3 l 9,0 m -9,5 l 9,0 m -441,98 l -4,0 -1,1 -3,0 -1,1 -2,0 -1,1 -1,0 -1,1 -1,0 -2,2 -1,0 -6,6 0,1 -2,2 0,1 -1,1 0,1 -1,1 0,2 -1,1 0,3 -1,1 0,10 1,1 0,2 1,1 0,2 1,1 0,1 1,1 0,1 2,2 0,1 6,6 1,0 2,2 1,0 1,1 1,0 1,1  2,0 1,1 2,0 1,1 11,0 1,-1 2,0 1,-1 2,0 1,-1 1,0 1,-1 1,0 2,-2 1,0 6,-6 0,-1 2,-2 0,-1 1,-1 0,-1 1,-1 0,-2 1,-1 0,-2 1,-1 0,-10 -1,-1 0,-3 -1,-1 0,-2 -1,-1 0,-1 -1,-1 0,-1 -2,-2 0,-1 -6,-6 -1,0 -2,-2 -1,0 -1,-1 -1,0 -1,-1 -2,0 -1,-1 -3,0 -1,-1 -4,0 m -40,69 l 79,0 0,-76 -79,0 0,76 m 40,-33 l 0,25 m -21,-25 l 41,0 m -45,-21 l 12,21 m 38,-21 l -13,21 m -26,-2 l -8,-7 6,-4 2,11 m 668,-1070 l -4,0 -1,1 -3,0 -1,1 -2,0 -1,1 -1,0 -1,1 -1,0 -2,2 -1,0 -6,6 0,1 -2,2 0,1 -1,1 0,1 -1,1 0,2 -1,1 0,3 -1,1 0,10 1,1 0,2 1,1 0,2 1,1 0,1 1,1 0,1 2,2 0,1  6,6 1,0 2,2 1,0 1,1 1,0 1,1 2,0 1,1 2,0 1,1 11,0 1,-1 2,0 1,-1 2,0 1,-1 1,0 1,-1 1,0 2,-2 1,0 6,-6 0,-1 2,-2 0,-1 1,-1 0,-1 1,-1 0,-2 1,-1 0,-2 1,-1 0,-10 -1,-1 0,-3 -1,-1 0,-2 -1,-1 0,-1 -1,-1 0,-1 -2,-2 0,-1 -6,-6 -1,0 -2,-2 -1,0 -1,-1 -1,0 -1,-1 -2,0 -1,-1 -3,0 -1,-1 -4,0 m -40,69 l 78,0 0,-76 -78,0 0,76 m 39,-33 l 0,25 m -21,-25 l 41,0 m -45,-21 l 13,21 m 37,-21 l -12,21 m -26,-2 l -9,-7 7,-4 2,11"></path>
<path class="stroke8" d="M 1854,2679 l -28,0"></path>
<path class="white" d="M 1847,2669 l 6,0 0,-8 -1,-1 0,-1 -2,-2 0,-1 -1,-1 -1,0 -2,-2 -2,0 -1,-1 -6,0 -1,1 -2,0 -2,2 -1,0 -1,1 0,1 -2,2 0,1 -1,1 0,8 6,0 0,-2 3,-3 1,0 1,-1 4,0 1,1 1,0 3,3 0,2 z"></path>
<path class="stroke4" d="M 1835,2665 l 10,0 m -11,2 l 12,0 m -13,2 l 14,0 m -14,1 l 14,0 m -13,2 l 12,0 m -11,2 l 10,0 m -5,-11 l -2,0 -1,1 -1,0 -2,2 0,1 -1,1 0,3 1,1 0,1 2,2 1,0 1,1 4,0 1,-1 1,0 2,-2 0,-1 1,-1 0,-3 -1,-1 0,-1 -2,-2 -1,0 -1,-1 -1,0 m -3,0 l 4,0"></path>
<text class="t3"><tspan x="788" y="834">.</tspan>
</text>
<text class="t2"><tspan x="788" y="870"><a xmlns:xlink="http://www.w3.org/1999/xlink" xlink:type="simple" xlink:show="replace" xlink:actuate="onRequest" xlink:href="javascript:locateTree('B6231');">B6231</a>
</tspan>

<tspan x="569" y="1566">S_OLD</tspan>

<tspan x="569" y="1620">0.5</tspan>

<tspan x="569" y="1664">GE/BL</tspan>
</text>
<text class="t2"><tspan x="788" y="939">Oil pressure switch</tspan>
</text>
<path class="stroke4" d="M 402,1038 l 68,-45 m -68,-59 l 0,-2 -1,-1 0,-1 -2,-2 -1,0 -1,-1 -4,0 -1,1 -1,0 -2,2 0,1 -1,1 0,4 1,1 0,1 2,2 1,0 1,1 4,0 1,-1 1,0 2,-2 0,-1 1,-1 0,-1 m 0,108 l 0,-2 -1,-1 0,-1 -2,-2 -1,0 -1,-1 -4,0 -1,1 -1,0 -2,2 0,1 -1,1 0,4 1,1 0,1 2,2 1,0 1,1 4,0 1,-1 1,0 2,-2 0,-1 1,-1 0,-1 m 82,-56 l 0,-2 -1,-1 0,-1 -2,-2 -1,0 -1,-1 -4,0 -1,1 -1,0 -2,2 0,1 -1,1 0,5 1,1 0,1 2,2 1,0 1,1 4,0 1,-1 1,0 2,-2 0,-1 1,-1 0,-2 47,0 0,163 m -143,-109 l -75,0 0,109 m 136,-147 l 0,-98 m -27,-55 l 55,0 0,55 -55,0 0,-55"></path>
<path class="stroke3" d="M 451,866 l 2,0 1,1 1,0 2,2 0,1 1,1 0,4 -1,1 0,1 -2,2 -1,0 -1,1 -2,0 m -1,-14 l -9,0 0,27 m 0,-13 l 9,0"></path>
<path class="stroke8" d="M 327,1179 l -28,0"></path>
<path class="white" d="M 320,1170 l 6,-1 0,-8 -1,-1 0,-1 -2,-2 0,-1 -1,-1 -1,0 -2,-2 -2,0 -1,-1 -6,0 -1,1 -2,0 -2,2 -1,0 -1,1 0,1 -2,2 0,1 -1,1 0,8 6,1 0,-2 1,-1 0,-1 2,-2 1,0 1,-1 4,0 1,1 1,0 2,2 0,1 1,1 0,2 z"></path>
<path class="stroke4" d="M 313,1163 l -2,0 -1,1 -1,0 -2,2 0,1 -1,1 0,4 1,1 0,1 2,2 1,0 1,1 4,0 1,-1 1,0 2,-2 0,-1 1,-1 0,-4 -1,-1 0,-1 -2,-2 -1,0 -1,-1 -1,0 m -6,2 l 10,0 m -11,2 l 12,0 m -12,2 l 13,0 m -13,2 l 13,0 m -13,2 l 12,0 m -11,2 l 10,0 m -7,1 l 4,0 m -4,-12 l 4,0"></path>
<path style="fill:none;stroke:#000000;stroke-width:15" d="M 4403,2570 l -164,0"></path>
<path class="stroke4" d="M 4403,2588 l 40,-18 -40,-19 0,37 m 0,-25 l 23,0 m -23,3 l 31,0 m -31,4 l 40,0 m -40,3 l 31,0 m -31,4 l 23,0 m -23,4 l 15,0 m -15,3 l 7,0 m -7,-25 l 16,0 m -16,-4 l 9,0 m -9,-3 l 1,0"></path>
<path class="white" d="M 4235,2553 l -1,1 -1,0 -1,1 -1,0 -1,1 -1,0 -4,4 0,1 -1,1 0,1 -1,1 0,1 -1,1 0,8 1,1 0,1 1,1 0,1 1,1 0,1 4,4 1,0 1,1 1,0 1,1 1,0 1,1 8,0 1,-1 1,0 1,-1 1,0 1,-1 1,0 4,-4 0,-1 1,-1 0,-1 1,-1 0,-1 1,-1 0,-8 -1,-1 0,-1 -1,-1 0,-1 -1,-1 0,-1 -4,-4 -1,0 -1,-1 -1,0 -1,-1 -1,0 -1,-1 -8,0 z"></path>
<path class="stroke4" d="M 4239,2563 l -2,0 -1,1 -1,0 -2,2 0,1 -1,1 0,4 1,1 0,1 2,2 1,0 1,1 4,0 1,-1 1,0 2,-2 0,-1 1,-1 0,-4 -1,-1 0,-1 -2,-2 -1,0 -1,-1 -1,0 m -6,2 l 10,0 m -11,2 l 12,0 m -13,2 l 14,0 m -14,2 l 14,0 m -13,2 l 12,0 m -11,1 l 11,0 m -9,2 l 6,0 m -6,-12 l 6,0"></path>
<text class="t2"><tspan x="4277" y="2534"><a xmlns:xlink="http://www.w3.org/1999/xlink" xlink:type="simple" xlink:show="replace" xlink:actuate="onRequest" xlink:href="javascript:locateTree('X6460');">X6460</a>
</tspan>
</text>
<path style="fill:none;stroke:#000000;stroke-width:15" d="M 2003,1479 l -163,0"></path>
<path class="stroke4" d="M 2003,1497 l 40,-18 -40,-19 0,37 m 0,-25 l 24,0 m -24,4 l 32,0 m -32,3 l 40,0 m -40,4 l 32,0 m -32,4 l 24,0 m -24,3 l 16,0 m -16,4 l 7,0 m -7,-26 l 17,0 m -17,-3 l 9,0 m -9,-4 l 2,0"></path>
<path class="white" d="M 1836,1463 l -1,1 -2,0 -2,2 -1,0 -5,5 0,1 -1,1 0,2 -1,1 0,7 1,1 0,2 1,1 0,1 5,5 1,0 2,2 2,0 1,1 8,0 1,-1 2,0 2,-2 1,0 5,-5 0,-1 1,-1 0,-2 1,-1 0,-7 -1,-1 0,-2 -1,-1 0,-1 -5,-5 -1,0 -2,-2 -2,0 -1,-1 -8,0 z"></path>
<path class="stroke4" d="M 1840,1472 l -2,0 -1,1 -1,0 -2,2 0,1 -1,1 0,5 1,1 0,1 2,2 1,0 1,1 4,0 1,-1 1,0 2,-2 0,-1 1,-1 0,-5 -1,-1 0,-1 -2,-2 -1,0 -1,-1 -1,0 m -6,3 l 10,0 m -11,2 l 12,0 m -13,1 l 14,0 m -14,2 l 14,0 m -13,2 l 12,0 m -11,2 l 10,0 m -8,2 l 6,0 m -6,-13 l 6,0"></path>
<text class="t2"><tspan x="2096" y="966"><a xmlns:xlink="http://www.w3.org/1999/xlink" xlink:type="simple" xlink:show="replace" xlink:actuate="onRequest" xlink:href="javascript:locateTree('F03');">F03</a>
</tspan>

<tspan x="1905" y="1089">20A</tspan>

<tspan x="1878" y="1566">U_HR&lt;3</tspan>

<tspan x="1878" y="1620">0.5</tspan>

<tspan x="1878" y="1664">OR</tspan>
</text>
<path class="stroke8" d="M 1731,934 l 14,0 m 18,0 l 29,0 m 17,0 l 29,0 m 18,0 l 29,0 m 17,0 l 30,0 m 17,0 l 29,0 m 18,0 l 29,0 m 17,0 l 16,0 0,13 m 0,16 l 0,28 m 0,16 l 0,27 m 0,16 l 0,28 m 0,16 l 0,27 m 0,16 l 0,15 -14,0 m -18,0 l -29,0 m -17,0 l -29,0 m -18,0 l -29,0 m -17,0 l -30,0 m -17,0 l -29,0 m -18,0 l -29,0 m -17,0 l -16,0 0,-13 m 0,-16 l 0,-28 m 0,-16 l 0,-27 m 0,-16 l 0,-28 m 0,-16 l 0,-27 m 0,-16 l 0,-15"></path>
<path class="stroke4" d="M 1857,1012 l -34,0 0,96 34,0 0,-96 m -17,140 l 0,-140 m -7,-15 l 14,0 m -16,3 l 18,0 m -18,2 l 18,0 m -19,3 l 20,0 m -19,2 l 18,0 m -16,3 l 14,0 m -11,-15 l 9,0 m 1,17 l 3,-3 0,-1 1,-1 0,-6 -1,-1 0,-1 -4,-4 -1,0 -1,-1 -6,0 -1,1 -1,0 -1,1 -1,0 -1,1 0,1 -2,2 0,7 1,1 0,1 1,1 3,2"></path>
<text class="t2"><tspan x="1821" y="980">87</tspan>
</text>
<path class="stroke4" d="M 1840,1152 l 0,109"></path>
<text class="t3"><tspan x="3514" y="834">.</tspan>
</text>
<text class="t2"><tspan x="3514" y="870"><a xmlns:xlink="http://www.w3.org/1999/xlink" xlink:type="simple" xlink:show="replace" xlink:actuate="onRequest" xlink:href="javascript:locateTree('A8680');">A8680</a>
</tspan>
</text>
<text class="t2"><tspan x="3514" y="939">Fuse carrier, engine</tspan>

<tspan x="3514" y="983">electronics</tspan>
</text>
<path class="white" d="M 1826,1261 l 27,0 0,28 -27,0 0,-28 z"></path>
<path class="black" d="M 1839,1262 l 2,0 0,11 -2,0 0,-11 z"></path>
<path class="stroke4" d="M 1839,1262 l 2,0 0,11 -2,0 0,-11"></path>
<path class="stroke6" d="M 1853,1275 l 0,3 -1,1 0,2 -6,6 -2,0 -1,1 -6,0 -1,-1 -2,0 -6,-6 0,-2 -1,-1 0,-3"></path>
<text class="t2"><tspan x="1779" y="1321">6</tspan>
</text>
<path style="fill:none;stroke:#000000;stroke-width:15" d="M 1676,2570 l -163,0"></path>
<path class="stroke4" d="M 1676,2588 l 40,-18 -40,-19 0,37 m 0,-25 l 24,0 m -24,3 l 31,0 m -31,4 l 40,0 m -40,3 l 32,0 m -32,4 l 24,0 m -24,4 l 15,0 m -15,3 l 7,0 m -7,-25 l 16,0 m -16,-4 l 9,0 m -9,-3 l 2,0"></path>
<path class="white" d="M 1509,2553 l -1,1 -1,0 -1,1 -1,0 -1,1 -1,0 -4,4 0,1 -1,1 0,1 -1,1 0,1 -1,1 0,8 1,1 0,1 1,1 0,1 1,1 0,1 4,4 1,0 1,1 1,0 1,1 1,0 1,1 8,0 1,-1 1,0 1,-1 1,0 1,-1 1,0 4,-4 0,-1 1,-1 0,-1 1,-1 0,-1 1,-1 0,-8 -1,-1 0,-1 -1,-1 0,-1 -1,-1 0,-1 -4,-4 -1,0 -1,-1 -1,0 -1,-1 -1,0 -1,-1 -8,0 z"></path>
<path class="stroke4" d="M 1513,2563 l -2,0 -1,1 -1,0 -2,2 0,1 -1,1 0,4 1,1 0,1 2,2 1,0 1,1 4,0 1,-1 1,0 2,-2 0,-1 1,-1 0,-4 -1,-1 0,-1 -2,-2 -1,0 -1,-1 -1,0 m -6,2 l 10,0 m -11,2 l 12,0 m -13,2 l 13,0 m -13,2 l 14,0 m -13,2 l 12,0 m -11,1 l 10,0 m -8,2 l 6,0 m -6,-12 l 6,0"></path>
<text class="t2"><tspan x="1551" y="2534"><a xmlns:xlink="http://www.w3.org/1999/xlink" xlink:type="simple" xlink:show="replace" xlink:actuate="onRequest" xlink:href="javascript:locateTree('X6038');">X6038</a>
</tspan>
</text>
<path class="stroke4" d="M 3040,1956 l 0,56 -20,0 0,27 30,0 0,26 -30,0 0,27 20,0 0,42 m -47,-251 l 25,22 0,-6 6,-3 -32,-14 m 26,21 l -11,-8 m 14,2 l -11,-7 m 57,42 l -49,-33 -24,-16 m 46,-12 l 0,-64 m 11,64 l -23,0 0,85 23,0 0,-85 m 54,30 l -1,-1 0,1 0,-1 -2,-2 -1,0 -1,-1 -1,0 -1,-1 0,1 0,-1 -4,0 -1,1 -1,0 0,1 0,-1 -1,1 0,1 0,-1 -1,1 0,1 -1,0 0,7 1,1 0,1 0,-1 1,1 0,1 1,1 0,1 1,0 2,2 2,0 15,4 m -4,1 l 0,-9 -1,-2 0,-3 -1,-2 m -20,18 l 1,-1 0,1 0,-1 2,0 0,1 0,-1 2,2 0,1 0,-1 1,1 0,1 1,1 0,2 m 15,-9 l 0,3 -1,2 0,2 -1,1 -1,2 -2,2 0,1 -1,0 0,1 0,-1 -1,0 0,1 0,-1 -1,1 0,1 0,-1 -1,0  -1,-1 0,1 0,-1 -1,0 0,1 m -4,-6 l 2,4 1,0 0,1 1,0 -2,-1 0,-1 -1,0 0,-1 m 10,1 l 0,1 -1,0 m 2,-2 l 0,1 m 1,-26 l -1,-2"></path>
<text class="t3"><tspan x="3296" y="1816">.</tspan>
</text>
<text class="t2"><tspan x="3296" y="1852"><a xmlns:xlink="http://www.w3.org/1999/xlink" xlink:type="simple" xlink:show="replace" xlink:actuate="onRequest" xlink:href="javascript:locateTree('E65390');">E65390</a>
</tspan>
</text>
<text class="t2"><tspan x="3296" y="1921">Crankshaft breather</tspan>

<tspan x="3296" y="1965">heating 1</tspan>
</text>
<path style="fill:none;stroke:#000000;stroke-width:15" d="M 3040,1289 l 0,490"></path>
<path class="white" d="M 3053,1807 l -27,0 0,-28 27,0 0,28 z"></path>
<path class="black" d="M 3040,1806 l -1,0 0,-11 1,0 0,11 z"></path>
<path class="stroke4" d="M 3040,1806 l -1,0 0,-11 1,0 0,11"></path>
<path class="stroke6" d="M 3026,1793 l 0,-3 1,-1 0,-1 1,-1 0,-1 4,-4 1,0 1,-1 1,0 1,-1 7,0 1,1 1,0 1,1 1,0 4,4 0,1 1,1 0,1 1,1 0,3"></path>
<text class="t2"><tspan x="3078" y="1771"><a xmlns:xlink="http://www.w3.org/1999/xlink" xlink:type="simple" xlink:show="replace" xlink:actuate="onRequest" xlink:href="javascript:locateTree('X65391');">X65391</a>
</tspan>

<tspan x="2978" y="1771">1</tspan>
</text>
<path style="fill:none;stroke:#000000;stroke-width:15" d="M 4403,1479 l -164,0"></path>
<path class="stroke4" d="M 4403,1497 l 40,-18 -40,-19 0,37 m 0,-25 l 23,0 m -23,4 l 31,0 m -31,3 l 40,0 m -40,4 l 31,0 m -31,4 l 23,0 m -23,3 l 15,0 m -15,4 l 7,0 m -7,-26 l 16,0 m -16,-3 l 9,0 m -9,-4 l 1,0"></path>
<path class="white" d="M 4235,1463 l -1,1 -2,0 -2,2 -1,0 -5,5 0,1 -1,1 0,2 -1,1 0,7 1,1 0,2 1,1 0,1 5,5 1,0 2,2 2,0 1,1 8,0 1,-1 2,0 2,-2 1,0 5,-5 0,-1 1,-1 0,-2 1,-1 0,-7 -1,-1 0,-2 -1,-1 0,-1 -5,-5 -1,0 -2,-2 -2,0 -1,-1 -8,0 z"></path>
<path class="stroke4" d="M 4239,1472 l -2,0 -1,1 -1,0 -2,2 0,1 -1,1 0,5 1,1 0,1 2,2 1,0 1,1 4,0 1,-1 1,0 2,-2 0,-1 1,-1 0,-5 -1,-1 0,-1 -2,-2 -1,0 -1,-1 -1,0 m -6,3 l 10,0 m -11,2 l 12,0 m -13,1 l 14,0 m -14,2 l 14,0 m -13,2 l 12,0 m -11,2 l 11,0 m -9,2 l 6,0 m -6,-13 l 6,0"></path>
<text class="t2"><tspan x="3296" y="966"><a xmlns:xlink="http://www.w3.org/1999/xlink" xlink:type="simple" xlink:show="replace" xlink:actuate="onRequest" xlink:href="javascript:locateTree('F04');">F04</a>
</tspan>

<tspan x="3105" y="1089">30A</tspan>
</text>
<path class="stroke8" d="M 2930,934 l 14,0 m 18,0 l 29,0 m 17,0 l 30,0 m 17,0 l 29,0 m 18,0 l 29,0 m 17,0 l 30,0 m 17,0 l 29,0 m 18,0 l 16,0 0,13 m 0,16 l 0,28 m 0,16 l 0,27 m 0,16 l 0,28 m 0,16 l 0,27 m 0,16 l 0,15 -14,0 m -18,0 l -29,0 m -17,0 l -30,0 m -17,0 l -29,0 m -18,0 l -29,0 m -17,0 l -30,0 m -17,0 l -29,0 m -18,0 l -16,0 0,-13 m 0,-16 l 0,-28 m 0,-16 l 0,-27 m 0,-16 l 0,-28 m 0,-16 l 0,-27 m 0,-16 l 0,-15"></path>
<path class="stroke4" d="M 3056,1012 l -33,0 0,96 33,0 0,-96 m -16,140 l 0,-140 m -8,-15 l 15,0 m -16,3 l 17,0 m -18,2 l 19,0 m -19,3 l 20,0 m -19,2 l 17,0 m -16,3 l 15,0 m -12,-15 l 9,0 m 1,17 l 4,-4 0,-2 1,-1 0,-3 -1,-1 0,-2 -4,-4 -1,0 -1,-1 -6,0 -1,1 -1,0 -1,1 -1,0 -2,2 0,1 -1,1 0,1 -1,1 0,4 1,1 0,2 1,1 3,2"></path>
<text class="t2"><tspan x="3020" y="980">87</tspan>
</text>
<path class="stroke4" d="M 3040,1152 l 0,109"></path>
<path class="white" d="M 3026,1261 l 27,0 0,28 -27,0 0,-28 z"></path>
<path class="black" d="M 3039,1262 l 1,0 0,11 -1,0 0,-11 z"></path>
<path class="stroke4" d="M 3039,1262 l 1,0 0,11 -1,0 0,-11"></path>
<path class="stroke6" d="M 3053,1275 l 0,3 -1,1 0,1 -1,1 0,1 -4,4 -1,0 -1,1 -1,0 -1,1 -7,0 -1,-1 -1,0 -1,-1 -1,0 -4,-4 0,-1 -1,-1 0,-1 -1,-1 0,-3"></path>
<text class="t2"><tspan x="3078" y="1321"><a xmlns:xlink="http://www.w3.org/1999/xlink" xlink:type="simple" xlink:show="replace" xlink:actuate="onRequest" xlink:href="javascript:locateTree('X8680');">X8680</a>
</tspan>

<tspan x="2978" y="1321">8</tspan>
</text>
<path class="stroke8" d="M 1622,825 l 14,0 m 18,0 l 30,0 m 18,0 l 29,0 m 18,0 l 30,0 m 18,0 l 29,0 m 18,0 l 30,0 m 18,0 l 29,0 m 18,0 l 30,0 m 18,0 l 29,0 m 18,0 l 30,0 m 18,0 l 29,0 m 18,0 l 30,0 m 18,0 l 29,0 m 18,0 l 30,0 m 18,0 l 29,0 m 18,0 l 30,0 m 18,0 l 29,0 m 18,0 l 30,0 m 18,0 l 29,0 m 18,0 l 30,0 m 18,0 l 29,0 m 18,0 l 30,0 m 18,0 l 29,0 m 18,0 l 30,0 m 18,0 l 29,0 m 18,0 l 30,0 m 18,0 l 29,0 m 18,0 l 30,0 m 18,0 l 29,0 m 18,0 l 30,0 m 18,0 l 29,0 m 18,0 l 30,0 m 18,0 l 29,0"></path>
<path class="stroke8" d="M 3174,825 l 30,0 m 18,0 l 29,0 m 18,0 l 30,0 m 18,0 l 29,0 m 18,0 l 30,0 m 18,0 l 29,0 m 18,0 l 17,0 0,15 m 0,18 l 0,30 m 0,18 l 0,30 m 0,18 l 0,31 m 0,18 l 0,30 m 0,18 l 0,30 m 0,18 l 0,30 m 0,19 l 0,30 m 0,18 l 0,30 m 0,18 l 0,17 -14,0 m -18,0 l -30,0 m -18,0 l -29,0 m -18,0 l -30,0 m -18,0 l -29,0 m -18,0 l -30,0 m -18,0 l -29,0 m -18,0 l -30,0 m -18,0 l -29,0 m -18,0 l -30,0 m -18,0 l -29,0 m -18,0 l -30,0 m -18,0 l -29,0 m -18,0 l -30,0 m -18,0 l -29,0 m -18,0 l -30,0 m -18,0 l -29,0 m -18,0 l -30,0"></path>
<path class="stroke8" d="M 2636,1261 l -29,0 m -18,0 l -30,0 m -18,0 l -29,0 m -18,0 l -30,0 m -18,0 l -29,0 m -18,0 l -30,0 m -18,0 l -29,0 m -18,0 l -30,0 m -18,0 l -29,0 m -18,0 l -30,0 m -18,0 l -29,0 m -18,0 l -30,0 m -18,0 l -29,0 m -18,0 l -30,0 m -18,0 l -29,0 m -18,0 l -30,0 m -18,0 l -29,0 m -18,0 l -30,0 m -18,0 l -29,0 m -18,0 l -30,0 m -18,0 l -29,0 m -18,0 l -17,0 0,-15 m 0,-18 l 0,-30 m 0,-18 l 0,-30 m 0,-18 l 0,-31 m 0,-18 l 0,-30 m 0,-18 l 0,-30 m 0,-18 l 0,-30 m 0,-19 l 0,-30 m 0,-18 l 0,-30 m 0,-18 l 0,-17"></path>
<text class="t2"><tspan x="3078" y="2302">31</tspan>

<tspan x="3078" y="2357">0.75</tspan>

<tspan x="3078" y="2400">BR</tspan>
</text>
<path class="white" d="M 3026,2134 l 27,0 0,27 -27,0 0,-27 z"></path>
<path class="black" d="M 3039,2134 l 1,0 0,11 -1,0 0,-11 z"></path>
<path class="stroke4" d="M 3039,2134 l 1,0 0,11 -1,0 0,-11"></path>
<path class="stroke6" d="M 3053,2147 l 0,3 -1,1 0,2 -1,1 0,1 -4,4 -1,0 -1,1 -1,0 -1,1 -7,0 -1,-1 -1,0 -1,-1 -1,0 -4,-4 0,-1 -1,-1 0,-2 -1,-1 0,-3"></path>
<text class="t2"><tspan x="3078" y="2193"><a xmlns:xlink="http://www.w3.org/1999/xlink" xlink:type="simple" xlink:show="replace" xlink:actuate="onRequest" xlink:href="javascript:locateTree('X65391');">X65391</a>
</tspan>

<tspan x="2978" y="2193">2</tspan>
</text>
<path class="white" d="M 3036,2553 l -1,1 -2,0 -1,1 -1,0 -5,5 0,1 -2,2 0,2 -1,1 0,8 1,1 0,2 1,1 0,1 6,6 1,0 1,1 2,0 1,1 7,0 1,-1 2,0 1,-1 1,0 6,-6 0,-1 1,-1 0,-2 1,-1 0,-8 -1,-1 0,-2 -2,-2 0,-1 -5,-5 -1,0 -1,-1 -2,0 -1,-1 -7,0 z"></path>
<path class="stroke4" d="M 3039,2563 l -2,0 -1,1 -1,0 -2,2 0,1 -1,1 0,4 1,1 0,1 2,2 1,0 1,1 5,0 1,-1 1,0 2,-2 0,-1 1,-1 0,-4 -1,-1 0,-1 -2,-2 -1,0 -1,-1 -2,0 m -5,2 l 9,0 m -10,2 l 12,0 m -13,2 l 13,0 m -14,2 l 15,0 m -14,2 l 13,0 m -11,1 l 10,0 m -8,2 l 6,0 m -7,-12 l 7,0"></path>
<text class="t2"><tspan x="3078" y="2534"><a xmlns:xlink="http://www.w3.org/1999/xlink" xlink:type="simple" xlink:show="replace" xlink:actuate="onRequest" xlink:href="javascript:locateTree('X6460');">X6460</a>
</tspan>
</text>
<path class="stroke8" d="M 2930,1807 l 328,0 0,327 -328,0 0,-327"></path>
<path class="white" d="M 1836,2553 l -1,1 -1,0 -1,1 -1,0 -1,1 -1,0 -4,4 0,1 -1,1 0,1 -1,1 0,1 -1,1 0,8 1,1 0,1 1,1 0,1 1,1 0,1 4,4 1,0 1,1 1,0 1,1 1,0 1,1 8,0 1,-1 1,0 1,-1 1,0 1,-1 1,0 4,-4 0,-1 1,-1 0,-1 1,-1 0,-1 1,-1 0,-8 -1,-1 0,-1 -1,-1 0,-1 -1,-1 0,-1 -4,-4 -1,0 -1,-1 -1,0 -1,-1 -1,0 -1,-1 -8,0 z"></path>
<path class="stroke4" d="M 1840,2563 l -2,0 -1,1 -1,0 -2,2 0,1 -1,1 0,4 1,1 0,1 2,2 1,0 1,1 4,0 1,-1 1,0 2,-2 0,-1 1,-1 0,-4 -1,-1 0,-1 -2,-2 -1,0 -1,-1 -1,0 m -6,2 l 10,0 m -11,2 l 12,0 m -13,2 l 14,0 m -14,2 l 14,0 m -13,2 l 12,0 m -11,1 l 10,0 m -8,2 l 6,0 m -6,-12 l 6,0"></path>
<text class="t2"><tspan x="1878" y="2534"><a xmlns:xlink="http://www.w3.org/1999/xlink" xlink:type="simple" xlink:show="replace" xlink:actuate="onRequest" xlink:href="javascript:locateTree('X6460');">X6460</a>
</tspan>
</text>
<text class="t3"><tspan x="4496" y="1816">.</tspan>
</text>
<text class="t2"><tspan x="4496" y="1852"><a xmlns:xlink="http://www.w3.org/1999/xlink" xlink:type="simple" xlink:show="replace" xlink:actuate="onRequest" xlink:href="javascript:locateTree('E6539');">E6539</a>
</tspan>

<tspan x="4277" y="2302">31</tspan>

<tspan x="4277" y="2357">0.75</tspan>

<tspan x="4277" y="2400">BR</tspan>
</text>
<text class="t2"><tspan x="4496" y="1921">Crankshaft breather</tspan>

<tspan x="4496" y="1965">heating 2</tspan>
</text>
<path class="white" d="M 4225,2134 l 28,0 0,27 -28,0 0,-27 z"></path>
<path class="black" d="M 4238,2134 l 2,0 0,11 -2,0 0,-11 z"></path>
<path class="stroke4" d="M 4238,2134 l 2,0 0,11 -2,0 0,-11"></path>
<path class="stroke6" d="M 4252,2147 l 0,3 -1,1 0,2 -1,1 0,1 -4,4 -1,0 -1,1 -1,0 -1,1 -6,0 -1,-1 -1,0 -1,-1 -1,0 -4,-4 0,-1 -1,-1 0,-2 -1,-1 0,-3"></path>
<text class="t2"><tspan x="4277" y="2193"><a xmlns:xlink="http://www.w3.org/1999/xlink" xlink:type="simple" xlink:show="replace" xlink:actuate="onRequest" xlink:href="javascript:locateTree('X65392');">X65392</a>
</tspan>

<tspan x="4178" y="2193">2</tspan>
</text>
<path class="white" d="M 4253,1807 l -27,0 0,-28 27,0 0,28 z"></path>
<path class="black" d="M 4240,1806 l -2,0 0,-11 2,0 0,11 z"></path>
<path class="stroke4" d="M 4240,1806 l -2,0 0,-11 2,0 0,11"></path>
<path class="stroke6" d="M 4226,1793 l 0,-3 1,-1 0,-2 6,-6 2,0 1,-1 6,0 1,1 2,0 6,6 0,2 1,1 0,3"></path>
<text class="t2"><tspan x="4278" y="1771"><a xmlns:xlink="http://www.w3.org/1999/xlink" xlink:type="simple" xlink:show="replace" xlink:actuate="onRequest" xlink:href="javascript:locateTree('X65392');">X65392</a>
</tspan>

<tspan x="4178" y="1771">1</tspan>
</text>
<path class="stroke8" d="M 422,2788 l 15,0 m 18,0 l 30,0 m 18,0 l 31,0 m 18,0 l 30,0 m 18,0 l 30,0 m 18,0 l 31,0 m 18,0 l 30,0 m 18,0 l 31,0 m 18,0 l 30,0 m 18,0 l 30,0 m 18,0 l 31,0 m 18,0 l 30,0 m 18,0 l 31,0 m 18,0 l 30,0 m 18,0 l 30,0 m 18,0 l 31,0 m 18,0 l 30,0 m 18,0 l 31,0 m 18,0 l 30,0 m 18,0 l 30,0 m 18,0 l 31,0 m 18,0 l 30,0 m 18,0 l 31,0 m 18,0 l 30,0 m 18,0 l 30,0 m 18,0 l 31,0 m 18,0 l 30,0 m 18,0 l 18,0 0,14 m 0,18 l 0,29 m 0,17 l 0,29 m 0,18 l 0,29 m 0,17 l 0,30 m 0,17 l 0,29"></path>
<path class="stroke8" d="M 1731,3053 l 0,29 m 0,17 l 0,16 -15,0 m -18,0 l -30,0 m -18,0 l -31,0 m -18,0 l -30,0 m -18,0 l -30,0 m -18,0 l -31,0 m -18,0 l -30,0 m -18,0 l -31,0 m -18,0 l -30,0 m -18,0 l -30,0 m -18,0 l -31,0 m -18,0 l -30,0 m -18,0 l -31,0 m -18,0 l -30,0 m -18,0 l -30,0 m -18,0 l -31,0 m -18,0 l -30,0 m -18,0 l -31,0 m -18,0 l -30,0 m -18,0 l -30,0 m -18,0 l -31,0 m -18,0 l -30,0 m -18,0 l -31,0 m -18,0 l -30,0 m -18,0 l -30,0 m -18,0 l -31,0 m -18,0 l -30,0 m -18,0 l -18,0 0,-14 m 0,-18 l 0,-29 m 0,-17 l 0,-29 m 0,-18 l 0,-29 m 0,-17 l 0,-30"></path>
<path class="stroke8" d="M 422,2897 l 0,-29 m 0,-18 l 0,-29 m 0,-17 l 0,-16 m -218,-1963 l 545,0 0,327 -545,0 0,-327"></path>
<path class="stroke4" d="M 1853,1275 l 29,0 m 14,0 l 30,0 m 14,0 l 30,0 m 14,0 l 30,0 m 14,0 l 30,0 m 14,0 l 29,0 m 14,0 l 30,0 m 14,0 l 30,0 m 14,0 l 30,0 m 14,0 l 30,0 m 14,0 l 29,0 m 14,0 l 30,0 m 14,0 l 30,0 m 14,0 l 30,0 m 14,0 l 30,0 m 14,0 l 29,0 m 14,0 l 30,0 m 14,0 l 30,0 m 14,0 l 30,0 m 14,0 l 30,0 m 14,0 l 29,0 m 14,0 l 30,0 m 14,0 l 30,0 m 14,0 l 30,0 m 14,0 l 30,0 m 14,0 l 29,0 m 14,0 l 30,0"></path>
<text class="t2"><tspan x="3078" y="1566">U_HR&lt;4</tspan>

<tspan x="4277" y="1566">U_HR&lt;4</tspan>

<tspan x="4277" y="1620">0.75</tspan>

<tspan x="3078" y="1620">0.75</tspan>

<tspan x="3078" y="1664">OR</tspan>

<tspan x="4277" y="1664">OR</tspan>
</text>
<path class="stroke4" d="M 4239,1956 l 0,56 -20,0 0,27 31,0 0,26 -31,0 0,27 20,0 0,42 m -46,-251 l 24,22 1,-6 6,-3 -33,-14 m 26,17 l -23,-16 m 24,20 l -12,-8 m 14,2 l -11,-7 m 58,42 l -49,-33 m 21,-28 l 0,-64 m 12,64 l -23,0 0,85 23,0 0,-85 m 54,30 l -1,-1 -1,0 -1,-1 0,-1 -1,0 -1,-1 -1,0 -1,-1 -3,0 0,1 0,-1 -1,0 -1,1 -2,0 0,1 -1,0 0,1 -1,1 0,1 -1,1 0,3 1,1 0,2 1,0 0,1 1,1 0,1 1,1 1,0 2,2 0,1 0,-1 1,0 16,4 m -4,1 l 0,-6 -1,-3 0,-5 -1,-2 m -20,18 l 0,-1 2,0 0,1 0,-1 1,0 1,1 0,1 1,0 0,1 1,1 0,1 1,2 m 15,-9 l -1,3 0,2 -1,2 0,1 -1,2 -2,2 0,1 -1,0 0,1 0,-1 -2,0 0,1 -1,0 0,1 0,-1 -1,-1  -1,0 0,1 0,-1 -1,0 0,1 0,-1 -1,-1 0,1 m -2,-5 l 1,2 0,2 0,-1 1,1 -1,-1 0,-1 -1,0 m 11,1 l 0,1 -1,0 m 2,-2 l 0,1 m 1,-26 l -1,-2"></path>
<path class="stroke8" d="M 4130,1807 l 327,0 0,327 -327,0 0,-327"></path>
<path class="white" d="M 3036,1463 l -1,1 -2,0 -1,1 -1,0 -6,6 0,1 -1,1 0,2 -1,1 0,7 1,1 0,2 1,1 0,1 6,6 1,0 1,1 2,0 1,1 7,0 1,-1 2,0 1,-1 1,0 6,-6 0,-1 1,-1 0,-2 1,-1 0,-7 -1,-1 0,-2 -1,-1 0,-1 -6,-6 -1,0 -1,-1 -2,0 -1,-1 -7,0 z"></path>
<path class="stroke4" d="M 3039,1472 l -2,0 -2,2 -1,0 0,1 -2,2 0,5 1,1 0,1 2,2 1,0 1,1 5,0 1,-1 1,0 2,-2 0,-1 1,-1 0,-5 -2,-2 0,-1 -1,0 -2,-2 -2,0 m -6,3 l 10,0 m -10,2 l 12,0 m -13,1 l 13,0 m -14,2 l 15,0 m -14,2 l 13,0 m -12,2 l 11,0 m -8,2 l 6,0 m -7,-13 l 7,0"></path>
</g>
</svg>
</g></svg>