<svg data-v-f35fd5a0="" xmlns="http://www.w3.org/2000/svg" xmlns:xlink="http://www.w3.org/1999/xlink" xmlns:ev="http://www.w3.org/2001/xml-events" style="overflow: hidden; width: 100%; min-height: 100vh;"><g id="viewport-20201011231724803" class="svg-pan-zoom_viewport" transform="matrix(0.7577792480820468,0,0,0.7577792480820468,83.29369502116117,339.1318477314351)" style="transform: matrix(0.757779, 0, 0, 0.757779, 83.2937, 339.132);"><!--?xml version="1.0" encoding="UTF-8"?--> 
<!--?xml-stylesheet href="../../styles/svg.css" type="text/css"?--> 
<svg xmlns="http://www.w3.org/2000/svg" id="svgid" xml:space="preserve" viewBox="37 607 5264 2250" preserveAspectRatio="xMinYMin meet" zoomAndPan="magnify" version="1.0" width="100%" height="100%" contentscripttype="text/ecmascript" contentstyletype="text/css" xmlns:xlink="http://www.w3.org/1999/xlink">
<title>Schaltplan Viewer - Copyright BMW AG 2006</title>
<style xml:space="preserve" type="text/css">path {fill-rule:evenodd; stroke-linecap:round; stroke-linejoin:round}
rect {stroke-linejoin:miter}
text.t1 {font-family:'Courier SWA',monospace;font-size:31;fill:#000000}
path.white {fill:#FFFFFF;stroke:none}
path.black {fill:#000000;stroke:none}
path.stroke3 {fill:none;stroke:#000000;stroke-width:3}
path.stroke4 {fill:none;stroke:#000000;stroke-width:4}
path.stroke5 {fill:none;stroke:#000000;stroke-width:5}
path.stroke6 {fill:none;stroke:#000000;stroke-width:6}
path.stroke7 {fill:none;stroke:#000000;stroke-width:7 }
path.stroke8 {fill:none;stroke:#000000;stroke-width:8 }
path.stroke9 {fill:none;stroke:#000000;stroke-width:9 }
path.stroke10 {fill:none;stroke:#000000;stroke-width:10 }
path.stroke11 {fill:none;stroke:#000000;stroke-width:11}
path.stroke14 {fill:none;stroke:#000000;stroke-width:14}</style>
<desc>customer: BMW
date: 13.07.2006
time: 11:10:19
language: British engl
project: E65
version: 1.0</desc>
<g id="gid">
<text class="t1"></text>
<path style="fill:#DFDFDF;stroke:none" d="M 1186,825 l 654,0 0,327 -654,0 0,-327 z"></path>
<path class="stroke8" d="M 1186,825 l 14,0 m 18,0 l 29,0 m 17,0 l 29,0 m 18,0 l 29,0 m 17,0 l 30,0 m 17,0 l 29,0 m 18,0 l 29,0 m 17,0 l 29,0 m 18,0 l 29,0 m 17,0 l 30,0 m 17,0 l 29,0 m 18,0 l 29,0 m 17,0 l 29,0 m 18,0 l 29,0 m 17,0 l 17,0 0,14 m 0,18 l 0,29 m 0,17 l 0,29 m 0,18 l 0,29 m 0,17 l 0,30 m 0,17 l 0,29 m 0,18 l 0,29 m 0,17 l 0,16 -14,0 m -18,0 l -29,0 m -17,0 l -29,0 m -18,0 l -29,0 m -17,0 l -30,0 m -17,0 l -29,0 m -18,0 l -29,0 m -17,0 l -29,0 m -18,0 l -29,0 m -17,0 l -30,0 m -17,0 l -29,0 m -18,0 l -29,0"></path>
<path class="stroke8" d="M 1296,1152 l -29,0 m -18,0 l -29,0 m -17,0 l -17,0 0,-14 m 0,-18 l 0,-29 m 0,-17 l 0,-29 m 0,-18 l 0,-29 m 0,-17 l 0,-30 m 0,-17 l 0,-29 m 0,-18 l 0,-29 m 0,-17 l 0,-16"></path>
<path style="fill:#DFDFDF;stroke:none" d="M 4239,825 l 327,0 0,218 -327,0 0,-218 z"></path>
<path class="stroke8" d="M 4239,825 l 14,0 m 18,0 l 29,0 m 17,0 l 29,0 m 18,0 l 29,0 m 17,0 l 30,0 m 17,0 l 29,0 m 18,0 l 29,0 m 17,0 l 16,0 0,13 m 0,16 l 0,28 m 0,16 l 0,27 m 0,16 l 0,28 m 0,16 l 0,27 m 0,16 l 0,15 -14,0 m -18,0 l -29,0 m -17,0 l -29,0 m -18,0 l -29,0 m -17,0 l -30,0 m -17,0 l -29,0 m -18,0 l -29,0 m -17,0 l -16,0 0,-13 m 0,-16 l 0,-28 m 0,-16 l 0,-27 m 0,-16 l 0,-28 m 0,-16 l 0,-27 m 0,-16 l 0,-15"></path>
<path style="fill:#DFDFDF;stroke:none" d="M 1949,1261 l 327,0 0,218 -327,0 0,-218 z"></path>
<path class="stroke8" d="M 1949,1261 l 14,0 m 18,0 l 29,0 m 17,0 l 29,0 m 18,0 l 29,0 m 17,0 l 30,0 m 17,0 l 29,0 m 18,0 l 29,0 m 17,0 l 16,0 0,13 m 0,16 l 0,28 m 0,16 l 0,27 m 0,16 l 0,28 m 0,16 l 0,27 m 0,16 l 0,15 -14,0 m -18,0 l -29,0 m -17,0 l -29,0 m -18,0 l -29,0 m -17,0 l -30,0 m -17,0 l -29,0 m -18,0 l -29,0 m -17,0 l -16,0 0,-13 m 0,-16 l 0,-28 m 0,-16 l 0,-27 m 0,-16 l 0,-28 m 0,-16 l 0,-27 m 0,-16 l 0,-15"></path>
<path style="fill:#DFDFDF;stroke:none" d="M 3040,825 l 327,0 0,218 -327,0 0,-218 z"></path>
<path class="stroke8" d="M 3040,825 l 14,0 m 18,0 l 29,0 m 17,0 l 29,0 m 18,0 l 29,0 m 17,0 l 30,0 m 17,0 l 29,0 m 18,0 l 29,0 m 17,0 l 16,0 0,13 m 0,16 l 0,28 m 0,16 l 0,27 m 0,16 l 0,28 m 0,16 l 0,27 m 0,16 l 0,15 -14,0 m -18,0 l -29,0 m -17,0 l -29,0 m -18,0 l -29,0 m -17,0 l -30,0 m -17,0 l -29,0 m -18,0 l -29,0 m -17,0 l -16,0 0,-13 m 0,-16 l 0,-28 m 0,-16 l 0,-27 m 0,-16 l 0,-28 m 0,-16 l 0,-27 m 0,-16 l 0,-15"></path>
<path style="fill:#DFDFDF;stroke:none" d="M 4675,1261 l 328,0 0,218 -328,0 0,-218 z"></path>
<path class="stroke8" d="M 4675,1261 l 14,0 m 18,0 l 29,0 m 17,0 l 30,0 m 17,0 l 29,0 m 18,0 l 29,0 m 17,0 l 30,0 m 17,0 l 29,0 m 18,0 l 16,0 0,13 m 0,16 l 0,28 m 0,16 l 0,27 m 0,16 l 0,28 m 0,16 l 0,27 m 0,16 l 0,15 -14,0 m -18,0 l -29,0 m -17,0 l -30,0 m -17,0 l -29,0 m -18,0 l -29,0 m -17,0 l -30,0 m -17,0 l -29,0 m -18,0 l -16,0 0,-13 m 0,-16 l 0,-28 m 0,-16 l 0,-27 m 0,-16 l 0,-28 m 0,-16 l 0,-27 m 0,-16 l 0,-15"></path>
<path style="fill:#DFDFDF;stroke:none" d="M 204,2461 l 4362,0 0,327 -4362,0 0,-327 z"></path>
<path class="stroke8" d="M 204,2461 l 15,0 m 17,0 l 30,0 m 18,0 l 30,0 m 18,0 l 30,0 m 18,0 l 30,0 m 18,0 l 30,0 m 17,0 l 30,0 m 18,0 l 30,0 m 18,0 l 30,0 m 18,0 l 30,0 m 18,0 l 30,0 m 17,0 l 30,0 m 18,0 l 30,0 m 18,0 l 30,0 m 18,0 l 30,0 m 18,0 l 30,0 m 17,0 l 30,0 m 18,0 l 30,0 m 18,0 l 30,0 m 18,0 l 30,0 m 18,0 l 30,0 m 17,0 l 30,0 m 18,0 l 30,0 m 18,0 l 30,0 m 18,0 l 30,0 m 18,0 l 30,0 m 17,0 l 30,0 m 18,0 l 30,0 m 18,0 l 30,0 m 18,0 l 30,0 m 18,0 l 30,0 m 17,0 l 30,0 m 18,0 l 30,0"></path>
<path class="stroke8" d="M 1766,2461 l 30,0 m 18,0 l 30,0 m 18,0 l 30,0 m 17,0 l 30,0 m 18,0 l 30,0 m 18,0 l 30,0 m 18,0 l 30,0 m 18,0 l 30,0 m 17,0 l 30,0 m 18,0 l 30,0 m 18,0 l 30,0 m 18,0 l 30,0 m 18,0 l 30,0 m 17,0 l 30,0 m 18,0 l 30,0 m 18,0 l 30,0 m 18,0 l 30,0 m 18,0 l 30,0 m 17,0 l 30,0 m 18,0 l 30,0 m 18,0 l 30,0 m 18,0 l 30,0 m 18,0 l 30,0 m 17,0 l 30,0 m 18,0 l 30,0 m 18,0 l 30,0 m 18,0 l 30,0 m 18,0 l 30,0 m 17,0 l 30,0 m 18,0 l 30,0 m 18,0 l 30,0 m 18,0 l 30,0 m 18,0 l 30,0"></path>
<path class="stroke8" d="M 3343,2461 l 30,0 m 18,0 l 30,0 m 18,0 l 30,0 m 18,0 l 30,0 m 18,0 l 30,0 m 17,0 l 30,0 m 18,0 l 30,0 m 18,0 l 30,0 m 18,0 l 30,0 m 18,0 l 30,0 m 17,0 l 30,0 m 18,0 l 30,0 m 18,0 l 30,0 m 18,0 l 30,0 m 18,0 l 30,0 m 17,0 l 30,0 m 18,0 l 30,0 m 18,0 l 30,0 m 18,0 l 30,0 m 18,0 l 30,0 m 17,0 l 30,0 m 18,0 l 30,0 m 18,0 l 30,0 m 18,0 l 30,0 m 18,0 l 30,0 m 17,0 l 28,0 0,14 m 0,18 l 0,29 m 0,17 l 0,29 m 0,18 l 0,29 m 0,17 l 0,30 m 0,17 l 0,29 m 0,18 l 0,29 m 0,17 l 0,16 -15,0"></path>
<path class="stroke8" d="M 4534,2788 l -30,0 m -18,0 l -30,0 m -18,0 l -30,0 m -18,0 l -30,0 m -18,0 l -30,0 m -17,0 l -30,0 m -18,0 l -30,0 m -18,0 l -30,0 m -18,0 l -30,0 m -18,0 l -30,0 m -17,0 l -30,0 m -18,0 l -30,0 m -18,0 l -30,0 m -18,0 l -30,0 m -18,0 l -30,0 m -17,0 l -30,0 m -18,0 l -30,0 m -18,0 l -30,0 m -18,0 l -30,0 m -18,0 l -30,0 m -17,0 l -30,0 m -18,0 l -30,0 m -18,0 l -30,0 m -18,0 l -30,0 m -18,0 l -30,0 m -17,0 l -30,0 m -18,0 l -30,0 m -18,0 l -30,0 m -18,0 l -30,0 m -18,0 l -30,0 m -17,0 l -30,0 m -18,0 l -30,0 m -18,0 l -30,0"></path>
<path class="stroke8" d="M 2956,2788 l -30,0 m -18,0 l -30,0 m -17,0 l -30,0 m -18,0 l -30,0 m -18,0 l -30,0 m -18,0 l -30,0 m -18,0 l -30,0 m -17,0 l -30,0 m -18,0 l -30,0 m -18,0 l -30,0 m -18,0 l -30,0 m -18,0 l -30,0 m -17,0 l -30,0 m -18,0 l -30,0 m -18,0 l -30,0 m -18,0 l -30,0 m -18,0 l -30,0 m -17,0 l -30,0 m -18,0 l -30,0 m -18,0 l -30,0 m -18,0 l -30,0 m -18,0 l -30,0 m -17,0 l -30,0 m -18,0 l -30,0 m -18,0 l -30,0 m -18,0 l -30,0 m -18,0 l -30,0 m -17,0 l -30,0 m -18,0 l -30,0 m -18,0 l -30,0 m -18,0 l -30,0 m -18,0 l -30,0 m -17,0 l -30,0"></path>
<path class="stroke8" d="M 1379,2788 l -30,0 m -18,0 l -30,0 m -18,0 l -30,0 m -18,0 l -30,0 m -17,0 l -30,0 m -18,0 l -30,0 m -18,0 l -30,0 m -18,0 l -30,0 m -18,0 l -30,0 m -17,0 l -30,0 m -18,0 l -30,0 m -18,0 l -30,0 m -18,0 l -30,0 m -18,0 l -30,0 m -17,0 l -30,0 m -18,0 l -30,0 m -18,0 l -30,0 m -18,0 l -30,0 m -18,0 l -30,0 m -17,0 l -30,0 m -18,0 l -30,0 m -18,0 l -30,0 m -18,0 l -30,0 m -18,0 l -30,0 m -17,0 l -28,0 0,-14 m 0,-18 l 0,-29 m 0,-17 l 0,-29 m 0,-18 l 0,-29 m 0,-17 l 0,-30 m 0,-17 l 0,-29 m 0,-18 l 0,-29 m 0,-17 l 0,-16"></path>
<path class="stroke4" d="M 4348,1916 l 436,0"></path>
<path style="fill:none;stroke:#000000;stroke-width:15" d="M 1622,1179 l 0,1255 m -327,-1255 l 0,1255 m -982,-518 l 0,518"></path>
<text class="t2"><tspan x="351" y="2220">F_DFAHR</tspan>

<tspan x="351" y="2275">0.35</tspan>

<tspan x="351" y="2318">WS/GN</tspan>
</text>
<path style="fill:none;stroke:#000000;stroke-width:15" d="M 640,1916 l 0,518"></path>
<text class="t2"><tspan x="679" y="2220">PT_CAN_H</tspan>

<tspan x="679" y="2275">0.35</tspan>

<tspan x="679" y="2318">BL/RT</tspan>
</text>
<path class="white" d="M 327,2461 l -27,0 0,-27 27,0 0,27 z"></path>
<path class="black" d="M 314,2461 l -2,0 0,-11 2,0 0,11 z"></path>
<path class="stroke4" d="M 314,2461 l -2,0 0,-11 2,0 0,11"></path>
<path class="stroke6" d="M 300,2447 l 0,-3 1,-1 0,-2 6,-6 2,0 1,-1 6,0 1,1 2,0 6,6 0,2 1,1 0,3"></path>
<text class="t2"><tspan x="229" y="2425">17</tspan>
</text>
<path class="stroke4" d="M 326,2447 l 30,0 m 15,0 l 30,0 m 15,0 l 30,0 m 15,0 l 30,0 m 15,0 l 30,0 m 15,0 l 30,0 m 15,0 l 30,0 m 1759,147 l -4,0 -1,1 -3,0 -1,1 -2,0 -1,1 -1,0 -1,1 -1,0 -2,2 -1,0 -6,6 0,1 -2,2 0,1 -1,1 0,1 -1,1 0,2 -1,1 0,3 -1,1 0,10 1,1 0,2 1,1 0,2 1,1 0,1 1,1 0,1 2,2 0,1 6,6 1,0 2,2 1,0 1,1 1,0 1,1 2,0 1,1 2,0 1,1 11,0 1,-1 2,0 1,-1 2,0 1,-1 1,0 1,-1 1,0 2,-2 1,0 6,-6 0,-1 2,-2 0,-1 1,-1 0,-1 1,-1 0,-2 1,-1 0,-2 1,-1 0,-10 -1,-1 0,-3 -1,-1 0,-2 -1,-1 0,-1 -1,-1 0,-1 -2,-2 0,-1 -6,-6 -1,0 -2,-2 -1,0 -1,-1 -1,0 -1,-1 -2,0  -1,-1 -3,0 -1,-1 -4,0 m -40,68 l 78,0 0,-75 -78,0 0,75 m 39,-32 l 0,24 m -20,-24 l 41,0 m -45,-21 l 12,21 m 37,-21 l -12,21 m -26,-2 l -8,-7 6,-4 2,11"></path>
<path style="fill:none;stroke:#000000;stroke-width:15" d="M 477,1916 l -164,0"></path>
<path class="stroke4" d="M 477,1934 l 40,-18 -40,-19 0,37 m 0,-26 l 23,0 m -23,4 l 31,0 m -31,4 l 40,0 m -40,3 l 31,0 m -31,4 l 23,0 m -23,3 l 15,0 m -15,4 l 7,0 m -7,-25 l 16,0 m -16,-4 l 9,0 m -9,-4 l 1,0"></path>
<path class="white" d="M 309,1899 l -1,1 -2,0 -2,2 -1,0 -5,5 0,1 -1,1 0,2 -1,1 0,7 1,1 0,2 1,1 0,1 5,5 1,0 2,2 2,0 1,1 8,0 1,-1 2,0 2,-2 1,0 5,-5 0,-1 1,-1 0,-2 1,-1 0,-7 -1,-1 0,-2 -1,-1 0,-1 -5,-5 -1,0 -2,-2 -2,0 -1,-1 -8,0 z"></path>
<path class="stroke4" d="M 313,1908 l -2,0 -1,1 -1,0 -2,2 0,1 -1,1 0,5 1,1 0,1 2,2 1,0 1,1 4,0 1,-1 1,0 2,-2 0,-1 1,-1 0,-5 -1,-1 0,-1 -2,-2 -1,0 -1,-1 -1,0 m -6,3 l 10,0 m -11,2 l 12,0 m -13,2 l 14,0 m -14,1 l 14,0 m -13,2 l 12,0 m -11,2 l 10,0 m -8,2 l 6,0 m -6,-13 l 6,0"></path>
<text class="t2"><tspan x="351" y="1880"><a xmlns:xlink="http://www.w3.org/1999/xlink" xlink:type="simple" xlink:show="replace" xlink:actuate="onRequest" xlink:href="javascript:locateTree('X10186');">X10186</a>
</tspan>
</text>
<path style="fill:none;stroke:#000000;stroke-width:15" d="M 804,1916 l -164,0"></path>
<path class="stroke4" d="M 804,1934 l 40,-18 -40,-19 0,37 m 0,-26 l 24,0 m -24,4 l 31,0 m -31,4 l 40,0 m -40,3 l 31,0 m -31,4 l 23,0 m -23,3 l 15,0 m -15,4 l 7,0 m -7,-25 l 16,0 m -16,-4 l 9,0 m -9,-4 l 1,0"></path>
<path class="white" d="M 637,1899 l -1,1 -2,0 -1,1 -1,0 -6,6 0,1 -1,1 0,2 -1,1 0,7 1,1 0,2 1,1 0,1 6,6 1,0 1,1 2,0 1,1 7,0 1,-1 2,0 1,-1 1,0 6,-6 0,-1 1,-1 0,-2 1,-1 0,-7 -1,-1 0,-2 -1,-1 0,-1 -6,-6 -1,0 -1,-1 -2,0 -1,-1 -7,0 z"></path>
<path class="stroke4" d="M 640,1908 l -2,0 -1,1 -1,0 -2,2 0,1 -1,1 0,5 1,1 0,1 2,2 1,0 1,1 4,0 1,-1 1,0 2,-2 0,-1 1,-1 0,-5 -1,-1 0,-1 -2,-2 -1,0 -1,-1 -1,0 m -6,3 l 10,0 m -11,2 l 13,0 m -14,2 l 14,0 m -14,1 l 14,0 m -13,2 l 13,0 m -12,2 l 11,0 m -9,2 l 7,0 m -7,-13 l 7,0"></path>
<text class="t2"><tspan x="679" y="1880"><a xmlns:xlink="http://www.w3.org/1999/xlink" xlink:type="simple" xlink:show="replace" xlink:actuate="onRequest" xlink:href="javascript:locateTree('X10545');">X10545</a>
</tspan>
</text>
<text class="t3"><tspan x="1878" y="834">.</tspan>
</text>
<text class="t2"><tspan x="1878" y="870"><a xmlns:xlink="http://www.w3.org/1999/xlink" xlink:type="simple" xlink:show="replace" xlink:actuate="onRequest" xlink:href="javascript:locateTree('A149a');">A149a</a>
</tspan>
</text>
<text class="t2"><tspan x="1878" y="939">Car access system</tspan>
</text>
<text class="t3"><tspan x="4605" y="2470">.</tspan>
</text>
<text class="t2"><tspan x="4605" y="2506"><a xmlns:xlink="http://www.w3.org/1999/xlink" xlink:type="simple" xlink:show="replace" xlink:actuate="onRequest" xlink:href="javascript:locateTree('A6000');">A6000</a>
</tspan>
</text>
<text class="t2"><tspan x="4605" y="2575">DME control unit</tspan>
</text>
<path class="white" d="M 654,2461 l -27,0 0,-27 27,0 0,27 z"></path>
<path class="black" d="M 641,2461 l -1,0 0,-11 1,0 0,11 z"></path>
<path class="stroke4" d="M 641,2461 l -1,0 0,-11 1,0 0,11"></path>
<path class="stroke6" d="M 627,2447 l 0,-3 1,-1 0,-2 6,-6 2,0 1,-1 6,0 1,1 2,0 6,6 0,2 1,1 0,3"></path>
<text class="t2"><tspan x="556" y="2425">14</tspan>
</text>
<path class="stroke4" d="M 653,2447 l 30,0 m 15,0 l 30,0 m 15,0 l 30,0 m 15,0 l 30,0 m 15,0 l 30,0 m 15,0 l 30,0 m 15,0 l 30,0"></path>
<path style="fill:none;stroke:#000000;stroke-width:15" d="M 967,1916 l 0,518"></path>
<text class="t2"><tspan x="1006" y="2220">PT_CAN_L</tspan>

<tspan x="1006" y="2275">0.35</tspan>

<tspan x="1006" y="2318">RT</tspan>
</text>
<path class="white" d="M 981,2461 l -27,0 0,-27 27,0 0,27 z"></path>
<path class="black" d="M 968,2461 l -1,0 0,-11 1,0 0,11 z"></path>
<path class="stroke4" d="M 968,2461 l -1,0 0,-11 1,0 0,11"></path>
<path class="stroke6" d="M 954,2447 l 0,-3 1,-1 0,-1 1,-1 0,-1 4,-4 1,0 1,-1 1,0 1,-1 7,0 1,1 1,0 1,1 1,0 4,4 0,1 1,1 0,1 1,1 0,3"></path>
<text class="t2"><tspan x="906" y="2425">1</tspan>
</text>
<path class="stroke4" d="M 981,2447 l 30,0 m 14,0 l 31,0 m 14,0 l 31,0 m 14,0 l 31,0 m 14,0 l 30,0 m 15,0 l 30,0 m 14,0 l 31,0"></path>
<path style="fill:none;stroke:#000000;stroke-width:15" d="M 1131,1916 l -164,0"></path>
<path class="stroke4" d="M 1131,1934 l 40,-18 -40,-19 0,37 m 0,-26 l 24,0 m -24,4 l 31,0 m -31,4 l 40,0 m -40,3 l 31,0 m -31,4 l 23,0 m -23,3 l 15,0 m -15,4 l 7,0 m -7,-25 l 16,0 m -16,-4 l 9,0 m -9,-4 l 2,0"></path>
<path class="white" d="M 964,1899 l -1,1 -2,0 -1,1 -1,0 -6,6 0,1 -1,1 0,2 -1,1 0,7 1,1 0,2 1,1 0,1 6,6 1,0 1,1 2,0 1,1 7,0 1,-1 2,0 1,-1 1,0 6,-6 0,-1 1,-1 0,-2 1,-1 0,-7 -1,-1 0,-2 -1,-1 0,-1 -6,-6 -1,0 -1,-1 -2,0 -1,-1 -7,0 z"></path>
<path class="stroke4" d="M 967,1908 l -2,0 -2,2 -1,0 0,1 -2,2 0,5 1,1 0,1 2,2 1,0 1,1 5,0 1,-1 1,0 2,-2 0,-1 1,-1 0,-5 -2,-2 0,-1 -1,0 -2,-2 -2,0 m -6,3 l 10,0 m -11,2 l 13,0 m -13,2 l 13,0 m -14,1 l 15,0 m -14,2 l 13,0 m -12,2 l 11,0 m -9,2 l 7,0 m -7,-13 l 7,0"></path>
<text class="t2"><tspan x="1006" y="1880"><a xmlns:xlink="http://www.w3.org/1999/xlink" xlink:type="simple" xlink:show="replace" xlink:actuate="onRequest" xlink:href="javascript:locateTree('X10546');">X10546</a>
</tspan>

<tspan x="1333" y="2220">D_EWS</tspan>

<tspan x="1660" y="2220">S_START</tspan>

<tspan x="1660" y="2275">0.35</tspan>

<tspan x="1333" y="2275">0.35</tspan>

<tspan x="1333" y="2318">SW/VI</tspan>

<tspan x="1660" y="2318">SW/GN</tspan>
</text>
<path class="white" d="M 1281,1152 l 27,0 0,28 -27,0 0,-28 z"></path>
<path class="black" d="M 1294,1152 l 1,0 0,12 -1,0 0,-12 z"></path>
<path class="stroke4" d="M 1294,1152 l 1,0 0,12 -1,0 0,-12"></path>
<path class="stroke6" d="M 1308,1166 l 0,3 -1,1 0,1 -1,1 0,1 -4,4 -1,0 -1,1 -1,0 -1,1 -7,0 -1,-1 -1,0 -1,-1 -1,0 -4,-4 0,-1 -1,-1 0,-1 -1,-1 0,-3"></path>
<text class="t2"><tspan x="1210" y="1212">20</tspan>
</text>
<path class="white" d="M 1308,2461 l -27,0 0,-27 27,0 0,27 z"></path>
<path class="black" d="M 1296,2461 l -2,0 0,-11 2,0 0,11 z"></path>
<path class="stroke4" d="M 1296,2461 l -2,0 0,-11 2,0 0,11"></path>
<path class="stroke6" d="M 1281,2447 l 0,-3 1,-1 0,-1 1,-1 0,-1 4,-4 1,0 1,-1 1,0 1,-1 7,0 1,1 1,0 1,1 1,0 4,4 0,1 1,1 0,1 1,1 0,3"></path>
<text class="t2"><tspan x="1210" y="2425">15</tspan>
</text>
<path class="stroke4" d="M 1308,1166 l 30,0 m 15,0 l 30,0 m 15,0 l 30,0 m 15,0 l 30,0 m 15,0 l 30,0 m 15,0 l 30,0 m 15,0 l 30,0"></path>
<path class="white" d="M 1608,1152 l 27,0 0,28 -27,0 0,-28 z"></path>
<path class="black" d="M 1621,1152 l 2,0 0,12 -2,0 0,-12 z"></path>
<path class="stroke4" d="M 1621,1152 l 2,0 0,12 -2,0 0,-12"></path>
<path class="stroke6" d="M 1635,1166 l 0,3 -1,1 0,2 -6,6 -2,0 -1,1 -6,0 -1,-1 -2,0 -6,-6 0,-2 -1,-1 0,-3"></path>
<text class="t2"><tspan x="1660" y="1212"><a xmlns:xlink="http://www.w3.org/1999/xlink" xlink:type="simple" xlink:show="replace" xlink:actuate="onRequest" xlink:href="javascript:locateTree('X13376');">X13376</a>
</tspan>

<tspan x="1537" y="1212">28</tspan>
</text>
<path class="stroke4" d="M 1308,2447 l 30,0 m 15,0 l 30,0 m 15,0 l 30,0 m 15,0 l 30,0 m 15,0 l 30,0 m 15,0 l 30,0 m 15,0 l 30,0"></path>
<path class="white" d="M 1636,2461 l -28,0 0,-27 28,0 0,27 z"></path>
<path class="black" d="M 1623,2461 l -2,0 0,-11 2,0 0,11 z"></path>
<path class="stroke4" d="M 1623,2461 l -2,0 0,-11 2,0 0,11"></path>
<path class="stroke6" d="M 1609,2447 l 0,-3 1,-1 0,-2 6,-6 2,0 1,-1 6,0 1,1 2,0 6,6 0,2 1,1 0,3"></path>
<text class="t2"><tspan x="1561" y="2425">2</tspan>
</text>
<path class="stroke4" d="M 1635,2447 l 28,0 m 14,0 l 29,0 m 13,0 l 29,0 m 13,0 l 29,0 m 13,0 l 29,0 m 14,0 l 28,0 m 14,0 l 29,0 m 13,0 l 29,0 m 13,0 l 29,0 m 13,0 l 29,0"></path>
<path style="fill:none;stroke:#000000;stroke-width:15" d="M 2494,1943 l 0,491"></path>
<text class="t2"><tspan x="2533" y="2220">F_TD</tspan>

<tspan x="2533" y="2275">0.35</tspan>

<tspan x="2533" y="2318">SW</tspan>
</text>
<path style="fill:none;stroke:#000000;stroke-width:15" d="M 4348,1070 l 0,1364"></path>
<text class="t2"><tspan x="4386" y="2220">D_BSD</tspan>

<tspan x="4386" y="2275">0.5</tspan>

<tspan x="4386" y="2318">VI</tspan>
</text>
<path class="white" d="M 2480,1916 l 28,0 0,27 -28,0 0,-27 z"></path>
<path class="black" d="M 2493,1916 l 2,0 0,11 -2,0 0,-11 z"></path>
<path class="stroke4" d="M 2493,1916 l 2,0 0,11 -2,0 0,-11"></path>
<path class="stroke6" d="M 2507,1929 l 0,3 -1,1 0,2 -6,6 -2,0 -1,1 -6,0 -1,-1 -2,0 -6,-6 0,-2 -1,-1 0,-3"></path>
<text class="t2"><tspan x="2533" y="1975"><a xmlns:xlink="http://www.w3.org/1999/xlink" xlink:type="simple" xlink:show="replace" xlink:actuate="onRequest" xlink:href="javascript:locateTree('X19527');">X19527</a>
</tspan>

<tspan x="2433" y="1975">9</tspan>
</text>
<path class="white" d="M 2508,2461 l -27,0 0,-27 27,0 0,27 z"></path>
<path class="black" d="M 2495,2461 l -2,0 0,-11 2,0 0,11 z"></path>
<path class="stroke4" d="M 2495,2461 l -2,0 0,-11 2,0 0,11"></path>
<path class="stroke6" d="M 2481,2447 l 0,-3 1,-1 0,-2 6,-6 2,0 1,-1 6,0 1,1 2,0 6,6 0,2 1,1 0,3"></path>
<text class="t2"><tspan x="2533" y="2425"><a xmlns:xlink="http://www.w3.org/1999/xlink" xlink:type="simple" xlink:show="replace" xlink:actuate="onRequest" xlink:href="javascript:locateTree('X60001');">X60001</a>
</tspan>

<tspan x="2410" y="2425">21</tspan>
</text>
<path class="white" d="M 4334,1043 l 28,0 0,27 -28,0 0,-27 z"></path>
<path class="black" d="M 4347,1043 l 2,0 0,12 -2,0 0,-12 z"></path>
<path class="stroke4" d="M 4347,1043 l 2,0 0,12 -2,0 0,-12"></path>
<path class="stroke6" d="M 4361,1057 l 0,3 -1,1 0,2 -6,6 -2,0 -1,1 -6,0 -1,-1 -2,0 -6,-6 0,-2 -1,-1 0,-3"></path>
<text class="t2"><tspan x="4386" y="1102"><a xmlns:xlink="http://www.w3.org/1999/xlink" xlink:type="simple" xlink:show="replace" xlink:actuate="onRequest" xlink:href="javascript:locateTree('X6524');">X6524</a>
</tspan>

<tspan x="4287" y="1102">1</tspan>
</text>
<path class="white" d="M 4362,2461 l -27,0 0,-27 27,0 0,27 z"></path>
<path class="black" d="M 4349,2461 l -2,0 0,-11 2,0 0,11 z"></path>
<path class="stroke4" d="M 4349,2461 l -2,0 0,-11 2,0 0,11"></path>
<path class="stroke6" d="M 4335,2447 l 0,-3 1,-1 0,-2 6,-6 2,0 1,-1 6,0 1,1 2,0 6,6 0,2 1,1 0,3"></path>
<text class="t2"><tspan x="4387" y="2425"><a xmlns:xlink="http://www.w3.org/1999/xlink" xlink:type="simple" xlink:show="replace" xlink:actuate="onRequest" xlink:href="javascript:locateTree('X60005');">X60005</a>
</tspan>

<tspan x="4264" y="2425">35</tspan>
</text>
<path class="stroke8" d="M 1186,825 l 14,0 m 18,0 l 29,0 m 17,0 l 29,0 m 18,0 l 29,0 m 17,0 l 30,0 m 17,0 l 29,0 m 18,0 l 29,0 m 17,0 l 29,0 m 18,0 l 29,0 m 17,0 l 30,0 m 17,0 l 29,0 m 18,0 l 29,0 m 17,0 l 29,0 m 18,0 l 29,0 m 17,0 l 17,0 0,14 m 0,18 l 0,29 m 0,17 l 0,29 m 0,18 l 0,29 m 0,17 l 0,30 m 0,17 l 0,29 m 0,18 l 0,29 m 0,17 l 0,16 -14,0 m -18,0 l -29,0 m -17,0 l -29,0 m -18,0 l -29,0 m -17,0 l -30,0 m -17,0 l -29,0 m -18,0 l -29,0 m -17,0 l -29,0 m -18,0 l -29,0 m -17,0 l -30,0 m -17,0 l -29,0 m -18,0 l -29,0"></path>
<path class="stroke8" d="M 1296,1152 l -29,0 m -18,0 l -29,0 m -17,0 l -17,0 0,-14 m 0,-18 l 0,-29 m 0,-17 l 0,-29 m 0,-18 l 0,-29 m 0,-17 l 0,-30 m 0,-17 l 0,-29 m 0,-18 l 0,-29 m 0,-17 l 0,-16"></path>
<path class="stroke4" d="M 4403,904 l -4,0 -1,1 -3,0 -1,1 -2,0 -1,1 -1,0 -1,1 -1,0 -2,2 -1,0 -6,6 0,1 -2,2 0,1 -1,1 0,1 -1,1 0,2 -1,1 0,3 -1,1 0,10 1,1 0,2 1,1 0,2 1,1 0,1 1,1 0,1 2,2 0,1 6,6 1,0 2,2 1,0 1,1 1,0 1,1 2,0 1,1 2,0 1,1 11,0 1,-1 2,0 1,-1 2,0 1,-1 1,0 1,-1 1,0 2,-2 1,0 6,-6 0,-1 2,-2 0,-1 1,-1 0,-1 1,-1 0,-2 1,-1 0,-2 1,-1 0,-10 -1,-1 0,-3 -1,-1 0,-2 -1,-1 0,-1 -1,-1 0,-1 -2,-2 0,-1 -6,-6 -1,0 -2,-2 -1,0 -1,-1 -1,0 -1,-1 -2,0 -1,-1 -3,0 -1,-1 -4,0 m -41,68 l 79,0 0,-76 -79,0 0,76 m 40,-32 l 0,24 m -21,-25 l 41,0 m -45,-21 l  12,21 m 38,-21 l -12,21 m -27,-1 l -8,-8 7,-3 2,10"></path>
<path class="stroke8" d="M 4239,825 l 14,0 m 18,0 l 29,0 m 17,0 l 29,0 m 18,0 l 29,0 m 17,0 l 30,0 m 17,0 l 29,0 m 18,0 l 29,0 m 17,0 l 16,0 0,13 m 0,16 l 0,28 m 0,16 l 0,27 m 0,16 l 0,28 m 0,16 l 0,27 m 0,16 l 0,15 -14,0 m -18,0 l -29,0 m -17,0 l -29,0 m -18,0 l -29,0 m -17,0 l -30,0 m -17,0 l -29,0 m -18,0 l -29,0 m -17,0 l -16,0 0,-13 m 0,-16 l 0,-28 m 0,-16 l 0,-27 m 0,-16 l 0,-28 m 0,-16 l 0,-27 m 0,-16 l 0,-15"></path>
<text class="t3"><tspan x="4605" y="834">.</tspan>
</text>
<text class="t2"><tspan x="4605" y="870"><a xmlns:xlink="http://www.w3.org/1999/xlink" xlink:type="simple" xlink:show="replace" xlink:actuate="onRequest" xlink:href="javascript:locateTree('G6524');">G6524</a>
</tspan>
</text>
<text class="t2"><tspan x="4605" y="939">Alternator</tspan>
</text>
<path class="stroke4" d="M 1395,893 l 2,0 1,-1 1,0 1,-1 0,-1 1,-1 0,-3 -1,-1 0,-1 -1,-1 -1,0 -1,-1 -3,0 -1,1 -1,0 -1,1 0,1 -1,1 0,3 1,1 0,1 1,1 1,0 1,1 m 7,-5 l -11,0 m 1,-3 l 9,0 m -9,5 l 9,0 m -4,3 l 0,21 m -11,0 l 22,0 0,84 -22,0 0,-84 m -26,-26 l 74,0"></path>
<text class="t2"><tspan x="1374" y="870">15</tspan>
</text>
<path class="stroke4" d="M 1295,1051 l 0,101 m 107,-87 l 0,-4 -1,-1 0,-3 -1,-1 0,-2 -1,-1 0,-1 -1,-1 0,-1 -2,-2 0,-1 -6,-6 -1,0 -2,-2 -1,0 -1,-1 -1,0 -1,-1 -2,0 -1,-1 -3,0 -1,-1 -10,0 -1,1 -2,0 -1,1 -2,0 -1,1 -1,0 -1,1 -1,0 -2,2 -1,0 -6,6 0,1 -2,2 0,1 -1,1 0,1 -1,1 0,2 -1,1 0,2 -1,1 0,11 1,1 0,2 1,1 0,2 1,1 0,1 1,1 0,1 2,2 0,1 6,6 1,0 2,2 1,0 1,1 1,0 1,1 2,0 1,1 2,0 1,1 10,0 1,-1 3,0 1,-1 2,0 1,-1 1,0 1,-1 1,0 2,-2 1,0 6,-6 0,-1 2,-2 0,-1 1,-1 0,-1 1,-1 0,-2 1,-1 0,-3 1,-1 0,-4 m -10,6 l -41,0 m 45,-74 l 0,52 -12,22 m -38,-22 l 12,22 m -11,-21 l  2,11 6,-4 -8,-7 m 48,-27 l 2,0 1,-1 1,0 1,-1 0,-1 1,-1 0,-3 -1,-1 0,-1 -1,-1 -1,0 -1,-1 -3,0 -1,1 -1,0 -1,1 0,1 -1,1 0,3 1,1 0,1 1,1 1,0 1,1 m 2,-5 l 57,0 m -9,0 l 24,0 -24,10 0,-21 24,11 m -24,-4 l 16,0 m -16,-3 l 9,0 m -9,10 l 14,0 m -14,4 l 7,0 m -50,-7 l -11,0 m 1,-3 l 9,0 m -9,5 l 9,0 m -30,51 l 0,60 m -23,-81 l -52,0 m 434,-163 l -12,0 m 1,-3 l 10,0 m -10,5 l 9,0 m -4,24 l 0,-21 2,0 1,-1 1,0 1,-1 0,-1 1,-1 0,-3 -1,-1 0,-1 -1,-1 -1,0 -1,-1 -4,0 -1,1 -1,0 -1,1 0,1 -1,1 0,3 1,1 0,1 1,1 1,0 1,1 1,0 m -10,21 l 22,0 0,84 -22,0 0,-84 m -26,-26 l 74,0"></path>
<text class="t2"><tspan x="1701" y="870">15</tspan>
</text>
<path class="stroke4" d="M 1622,1051 l 0,101 m 107,-87 l 0,-4 -1,-1 0,-3 -1,-1 0,-2 -1,-1 0,-1 -1,-1 0,-1 -2,-2 0,-1 -6,-6 -1,0 -2,-2 -1,0 -1,-1 -1,0 -1,-1 -2,0 -1,-1 -3,0 -1,-1 -10,0 -1,1 -2,0 -1,1 -2,0 -1,1 -1,0 -1,1 -1,0 -2,2 -1,0 -6,6 0,1 -2,2 0,1 -1,1 0,1 -1,1 0,2 -1,1 0,2 -1,1 0,11 1,1 0,2 1,1 0,2 1,1 0,1 1,1 0,1 2,2 0,1 6,6 1,0 2,2 1,0 1,1 1,0 1,1 2,0 1,1 2,0 1,1 10,0 1,-1 3,0 1,-1 2,0 1,-1 1,0 1,-1 1,0 2,-2 1,0 6,-6 0,-1 2,-2 0,-1 1,-1 0,-1 1,-1 0,-2 1,-1 0,-3 1,-1 0,-4 m -10,6 l -41,0 m 45,-74 l 0,52 -12,22 m -38,-22 l 12,22 m -11,-21 l  2,11 7,-4 -9,-7 m 48,-27 l 2,0 1,-1 1,0 1,-1 0,-1 1,-1 0,-3 -1,-1 0,-1 -1,-1 -1,0 -1,-1 -3,0 -1,1 -1,0 -1,1 0,1 -1,1 0,3 1,1 0,1 1,1 1,0 1,1 m 2,-5 l 57,0 m -9,0 l 24,0 -24,10 0,-21 24,11 m -24,-4 l 16,0 m -16,-3 l 9,0 m -9,10 l 15,0 m -15,4 l 7,0 m -50,-7 l -11,0 m 1,-3 l 10,0 m -10,5 l 9,0 m -30,51 l 0,60 m -23,-81 l -52,0 m -1179,1672 l 2,0 1,-1 1,0 1,-1 0,-1 1,-1 0,-3 -1,-1 0,-1 -1,-1 -1,0 -1,-1 -3,0 -1,1 -1,0 -1,1 0,1 -1,1 0,3 1,1 0,1 1,1 1,0 1,1 m 7,-5 l -11,0 m 1,-3 l 9,0 m -9,5 l 9,0"></path>
<text class="t2"><tspan x="366" y="2733">31</tspan>
</text>
<path class="stroke4" d="M 433,2726 l 22,0 m -142,-265 l 0,59 m -11,0 l 22,0 0,85 -22,0 0,-85 m 7,140 l 0,5 1,1 0,3 1,1 0,2 1,1 0,1 1,1 0,1 2,2 0,1 6,6 1,0 2,2 1,0 1,1 1,0 1,1 2,0 1,1 3,0 1,1 10,0 1,-1 2,0 1,-1 2,0 1,-1 1,0 1,-1 1,0 2,-2 1,0 6,-6 0,-1 2,-2 0,-1 1,-1 0,-1 1,-1 0,-2 1,-1 0,-2 1,-1 0,-11 -1,-1 0,-2 -1,-1 0,-2 -1,-1 0,-1 -1,-1 0,-1 -2,-2 0,-1 -6,-6 -1,0 -2,-2 -1,0 -1,-1 -1,0 -1,-1 -2,0 -1,-1 -2,0 -1,-1 -10,0 -1,1 -3,0 -1,1 -2,0 -1,1 -1,0 -1,1 -1,0 -2,2 -1,0 -6,6 0,1 -2,2 0,1 -1,1 0,1 -1,1 0,2 -1,1 0,3 -1,1 0,3 m 4,-54 l  0,40 m 6,22 l 41,0 m -45,-22 l 12,22 m 37,-21 l -2,11 -7,-4 8,-7 m -23,21 l 0,60 m 12,-60 l 13,-22 79,0 0,67 m -131,-213 l 2,0 1,-1 1,0 1,-1 0,-1 1,-1 0,-3 -1,-1 0,-1 -1,-1 -1,0 -1,-1 -3,0 -1,1 -1,0 -1,1 0,1 -1,1 0,3 1,1 0,1 1,1 1,0 1,1 m 49,-5 l 24,0 -24,10 0,-21 24,11 m -24,-4 l 16,0 m -16,-4 l 9,0 m -9,11 l 14,0 m -14,4 l 7,0 m -60,-7 l 64,0 m -63,-3 l 9,0 m -9,5 l 9,0 m 1107,227 l 2,0 1,-1 1,0 1,-1 0,-1 1,-1 0,-3 -1,-1 0,-1 -1,-1 -1,0 -1,-1 -3,0 -1,1 -1,0 -1,1 0,1 -1,1 0,3 1,1 0,1 1,1 1,0 1,1 m 7,-5 l -11,0 m 1,-3 l 9,0 m -9,5 l 9,0"></path>
<text class="t2"><tspan x="1347" y="2733">31</tspan>
</text>
<path class="stroke4" d="M 1414,2726 l 22,0 m -141,-265 l 0,59 m -11,0 l 21,0 0,85 -21,0 0,-85 m 6,140 l 0,5 1,1 0,3 1,1 0,2 1,1 0,1 1,1 0,1 2,2 0,1 6,6 1,0 2,2 1,0 1,1 1,0 1,1 2,0 1,1 3,0 1,1 10,0 1,-1 2,0 1,-1 2,0 1,-1 1,0 1,-1 1,0 2,-2 1,0 6,-6 0,-1 2,-2 0,-1 1,-1 0,-1 1,-1 0,-2 1,-1 0,-2 1,-1 0,-11 -1,-1 0,-2 -1,-1 0,-2 -1,-1 0,-1 -1,-1 0,-1 -2,-2 0,-1 -6,-6 -1,0 -2,-2 -1,0 -1,-1 -1,0 -1,-1 -2,0 -1,-1 -2,0 -1,-1 -10,0 -1,1 -3,0 -1,1 -2,0 -1,1 -1,0 -1,1 -1,0 -2,2 -1,0 -6,6 0,1 -2,2 0,1 -1,1 0,1 -1,1 0,2 -1,1 0,3 -1,1 0,3 m 5,-54 l  0,40 m 5,22 l 41,0 m -45,-22 l 12,22 m 37,-21 l -2,11 -6,-4 8,-7 m -23,21 l 0,60 m 12,-60 l 12,-22 79,0 0,67 m -131,-213 l 2,0 1,-1 1,0 1,-1 0,-1 1,-1 0,-3 -1,-1 0,-1 -1,-1 -1,0 -1,-1 -3,0 -1,1 -1,0 -1,1 0,1 -1,1 0,3 1,1 0,1 1,1 1,0 1,1 m 50,-5 l 23,0 -23,10 0,-21 23,11 m -23,-4 l 15,0 m -15,-4 l 8,0 m -8,11 l 14,0 m -14,4 l 6,0 m -60,-7 l 65,0 m -64,-3 l 9,0 m -9,5 l 9,0 m 453,227 l 2,0 1,-1 1,0 1,-1 0,-1 1,-1 0,-3 -1,-1 0,-1 -1,-1 -1,0 -1,-1 -3,0 -1,1 -1,0 -1,1 0,1 -1,1 0,3 1,1 0,1 1,1 1,0 1,1 m 7,-5 l -11,0 m 1,-3 l 9,0 m -9,5 l 9,0"></path>
<text class="t2"><tspan x="1674" y="2733">31</tspan>
</text>
<path class="stroke4" d="M 1741,2726 l 23,0 m -142,-265 l 0,59 m -11,0 l 21,0 0,85 -21,0 0,-85 m 7,140 l 0,5 1,1 0,3 1,1 0,2 1,1 0,1 1,1 0,1 1,1 0,1 8,8 1,0 1,1 1,0 1,1 1,0 1,1 1,0 1,1 3,0 1,1 10,0 1,-1 3,0 1,-1 1,0 1,-1 1,0 1,-1 1,0 1,-1 1,0 8,-8 0,-1 1,-1 0,-1 1,-1 0,-1 1,-1 0,-1 1,-1 0,-3 1,-1 0,-11 -1,-1 0,-3 -1,-1 0,-1 -1,-1 0,-1 -1,-1 0,-1 -1,-1 0,-1 -8,-8 -1,0 -1,-1 -1,0 -1,-1 -1,0 -1,-1 -1,0 -1,-1 -3,0 -1,-1 -10,0 -1,1 -3,0 -1,1 -1,0 -1,1 -1,0 -1,1 -1,0 -1,1 -1,0 -8,8 0,1 -1,1 0,1 -1,1 0,1 -1,1 0,2 -1,1 0,3 -1,1 0,3 m 4,-54 l  0,40 m 5,22 l 41,0 m -45,-22 l 13,22 m 36,-21 l -2,11 -6,-4 8,-7 m -23,21 l 0,60 m 12,-60 l 12,-22 79,0 0,67 m -131,-213 l 2,0 1,-1 1,0 1,-1 0,-1 1,-1 0,-3 -1,-1 0,-1 -1,-1 -1,0 -1,-1 -3,0 -1,1 -1,0 -1,1 0,1 -1,1 0,3 1,1 0,1 1,1 1,0 1,1 m 50,-5 l 23,0 -23,10 0,-21 23,11 m -23,-4 l 15,0 m -15,-4 l 8,0 m -8,11 l 14,0 m -14,4 l 6,0 m -60,-7 l 65,0 m -64,-3 l 9,0 m -9,5 l 9,0"></path>
<path style="fill:none;stroke:#000000;stroke-width:15" d="M 2058,1479 l 0,955"></path>
<text class="t2"><tspan x="2096" y="2220">D_BSD</tspan>

<tspan x="2096" y="2275">0.5</tspan>

<tspan x="2096" y="2318">GR</tspan>
</text>
<path class="white" d="M 2044,1588 l 28,0 0,28 -28,0 0,-28 z"></path>
<path class="black" d="M 2057,1589 l 2,0 0,11 -2,0 0,-11 z"></path>
<path class="stroke4" d="M 2057,1589 l 2,0 0,11 -2,0 0,-11"></path>
<path class="stroke6" d="M 2071,1602 l 0,3 -1,1 0,2 -6,6 -2,0 -1,1 -6,0 -1,-1 -2,0 -6,-6 0,-2 -1,-1 0,-3"></path>
<text class="t2"><tspan x="2096" y="1648"><a xmlns:xlink="http://www.w3.org/1999/xlink" xlink:type="simple" xlink:show="replace" xlink:actuate="onRequest" xlink:href="javascript:locateTree('X13895');">X13895</a>
</tspan>

<tspan x="1997" y="1648">1</tspan>
</text>
<path class="white" d="M 2072,2461 l -27,0 0,-27 27,0 0,27 z"></path>
<path class="black" d="M 2059,2461 l -2,0 0,-11 2,0 0,11 z"></path>
<path class="stroke4" d="M 2059,2461 l -2,0 0,-11 2,0 0,11"></path>
<path class="stroke6" d="M 2045,2447 l 0,-3 1,-1 0,-2 6,-6 2,0 1,-1 6,0 1,1 2,0 6,6 0,2 1,1 0,3"></path>
<text class="t2"><tspan x="1997" y="2425">3</tspan>
</text>
<path class="stroke4" d="M 2113,1340 l -5,0 -1,1 -3,0 -1,1 -1,0 -1,1 -1,0 -1,1 -1,0 -1,1 -1,0 -8,8 0,1 -1,1 0,1 -1,1 0,1 -1,1 0,1 -1,1 0,3 -1,1 0,11 1,1 0,3 1,1 0,1 1,1 0,1 1,1 0,1 1,1 0,1 8,8 1,0 1,1 1,0 1,1 1,0 1,1 1,0 1,1 3,0 1,1 10,0 1,-1 3,0 1,-1 1,0 1,-1 1,0 1,-1 1,0 1,-1 1,0 8,-8 0,-1 1,-1 0,-1 1,-1 0,-1 1,-1 0,-1 1,-1 0,-3 1,-1 0,-11 -1,-1 0,-3 -1,-1 0,-1 -1,-1 0,-1 -1,-1 0,-1 -1,-1 0,-1 -8,-8 -1,0 -1,-1 -1,0 -1,-1 -1,0 -1,-1 -1,0 -1,-1 -3,0 -1,-1 -4,0 m -41,68 l 79,0 0,-76 -79,0 0,76 m 40,-32 l 0,24 m -21,-24 l 41,0 m -45,-22 l  12,22 m 38,-22 l -12,22 m -27,-2 l -8,-7 6,-4 2,11"></path>
<path class="stroke8" d="M 1949,1261 l 14,0 m 18,0 l 29,0 m 17,0 l 29,0 m 18,0 l 29,0 m 17,0 l 30,0 m 17,0 l 29,0 m 18,0 l 29,0 m 17,0 l 16,0 0,13 m 0,16 l 0,28 m 0,16 l 0,27 m 0,16 l 0,28 m 0,16 l 0,27 m 0,16 l 0,15 -14,0 m -18,0 l -29,0 m -17,0 l -29,0 m -18,0 l -29,0 m -17,0 l -30,0 m -17,0 l -29,0 m -18,0 l -29,0 m -17,0 l -16,0 0,-13 m 0,-16 l 0,-28 m 0,-16 l 0,-27 m 0,-16 l 0,-28 m 0,-16 l 0,-27 m 0,-16 l 0,-15"></path>
<text class="t3"><tspan x="2314" y="1270">.</tspan>
</text>
<text class="t2"><tspan x="2314" y="1306"><a xmlns:xlink="http://www.w3.org/1999/xlink" xlink:type="simple" xlink:show="replace" xlink:actuate="onRequest" xlink:href="javascript:locateTree('B895');">B895</a>
</tspan>
</text>
<text class="t2"><tspan x="2314" y="1375">Battery sensor</tspan>
</text>
<path class="stroke4" d="M 2071,2447 l 28,0 m 14,0 l 29,0 m 13,0 l 29,0 m 13,0 l 29,0 m 13,0 l 29,0 m 14,0 l 28,0 m 14,0 l 29,0 m 13,0 l 29,0 m 13,0 l 29,0 m 13,0 l 29,0"></path>
<path class="white" d="M 2054,1899 l -1,1 -2,0 -2,2 -1,0 -5,5 0,1 -1,1 0,2 -1,1 0,7 1,1 0,2 1,1 0,1 5,5 1,0 2,2 2,0 1,1 8,0 1,-1 2,0 2,-2 1,0 5,-5 0,-1 1,-1 0,-2 1,-1 0,-7 -1,-1 0,-2 -1,-1 0,-1 -5,-5 -1,0 -2,-2 -2,0 -1,-1 -8,0 z"></path>
<path class="stroke4" d="M 2058,1908 l -2,0 -1,1 -1,0 -2,2 0,1 -1,1 0,5 1,1 0,1 2,2 1,0 1,1 4,0 1,-1 1,0 2,-2 0,-1 1,-1 0,-5 -1,-1 0,-1 -2,-2 -1,0 -1,-1 -1,0 m -6,3 l 10,0 m -11,2 l 12,0 m -13,2 l 14,0 m -14,1 l 14,0 m -13,2 l 12,0 m -11,2 l 10,0 m -8,2 l 6,0 m -6,-13 l 6,0"></path>
<text class="t2"><tspan x="2096" y="1880"><a xmlns:xlink="http://www.w3.org/1999/xlink" xlink:type="simple" xlink:show="replace" xlink:actuate="onRequest" xlink:href="javascript:locateTree('X11241');">X11241</a>
</tspan>
</text>
<text class="t3"><tspan x="2396" y="1761">J6</tspan>
</text>
<text class="t2"><tspan x="2396" y="1797">OBDII socket</tspan>
</text>
<path style="fill:none;stroke:#000000;stroke-width:15" d="M 3149,1070 l 0,1364"></path>
<path class="white" d="M 3135,1043 l 27,0 0,27 -27,0 0,-27 z"></path>
<path class="black" d="M 3148,1043 l 1,0 0,12 -1,0 0,-12 z"></path>
<path class="stroke4" d="M 3148,1043 l 1,0 0,12 -1,0 0,-12"></path>
<path class="stroke6" d="M 3162,1057 l 0,3 -1,1 0,1 -1,1 0,1 -4,4 -1,0 -1,1 -1,0 -1,1 -7,0 -1,-1 -1,0 -1,-1 -1,0 -4,-4 0,-1 -1,-1 0,-1 -1,-1 0,-3"></path>
<text class="t2"><tspan x="3187" y="1102"><a xmlns:xlink="http://www.w3.org/1999/xlink" xlink:type="simple" xlink:show="replace" xlink:actuate="onRequest" xlink:href="javascript:locateTree('X6035');">X6035</a>
</tspan>

<tspan x="3087" y="1102">2</tspan>
</text>
<path class="stroke4" d="M 3203,904 l -4,0 -1,1 -3,0 -1,1 -2,0 -1,1 -1,0 -1,1 -1,0 -2,2 -1,0 -6,6 0,1 -2,2 0,1 -1,1 0,1 -1,1 0,2 -1,1 0,3 -1,1 0,10 1,1 0,2 1,1 0,2 1,1 0,1 1,1 0,1 2,2 0,1 6,6 1,0 2,2 1,0 1,1 1,0 1,1 2,0 1,1 2,0 1,1 11,0 1,-1 2,0 1,-1 2,0 1,-1 1,0 1,-1 1,0 2,-2 1,0 6,-6 0,-1 2,-2 0,-1 1,-1 0,-1 1,-1 0,-2 1,-1 0,-2 1,-1 0,-10 -1,-1 0,-3 -1,-1 0,-2 -1,-1 0,-1 -1,-1 0,-1 -2,-2 0,-1 -6,-6 -1,0 -2,-2 -1,0 -1,-1 -1,0 -1,-1 -2,0 -1,-1 -3,0 -1,-1 -4,0 m -40,68 l 78,0 0,-76 -78,0 0,76 m 39,-32 l 0,24 m -20,-25 l 41,0 m -45,-21 l  12,21 m 37,-21 l -12,21 m -26,-1 l -9,-8 7,-3 2,10"></path>
<path class="stroke8" d="M 3040,825 l 14,0 m 18,0 l 29,0 m 17,0 l 29,0 m 18,0 l 29,0 m 17,0 l 30,0 m 17,0 l 29,0 m 18,0 l 29,0 m 17,0 l 16,0 0,13 m 0,16 l 0,28 m 0,16 l 0,27 m 0,16 l 0,28 m 0,16 l 0,27 m 0,16 l 0,15 -14,0 m -18,0 l -29,0 m -17,0 l -29,0 m -18,0 l -29,0 m -17,0 l -30,0 m -17,0 l -29,0 m -18,0 l -29,0 m -17,0 l -16,0 0,-13 m 0,-16 l 0,-28 m 0,-16 l 0,-27 m 0,-16 l 0,-28 m 0,-16 l 0,-27 m 0,-16 l 0,-15"></path>
<text class="t3"><tspan x="3405" y="834">.</tspan>
</text>
<text class="t2"><tspan x="3405" y="870"><a xmlns:xlink="http://www.w3.org/1999/xlink" xlink:type="simple" xlink:show="replace" xlink:actuate="onRequest" xlink:href="javascript:locateTree('M6035');">M6035</a>
</tspan>
</text>
<text class="t2"><tspan x="3405" y="939">Electric coolant</tspan>

<tspan x="3405" y="983">pump</tspan>
</text>
<path class="white" d="M 4771,1479 l 27,0 0,28 -27,0 0,-28 z"></path>
<path class="black" d="M 4784,1480 l 1,0 0,11 -1,0 0,-11 z"></path>
<path class="stroke4" d="M 4784,1480 l 1,0 0,11 -1,0 0,-11"></path>
<path class="stroke6" d="M 4798,1493 l 0,3 -1,1 0,1 -1,1 0,1 -4,4 -1,0 -1,1 -1,0 -1,1 -7,0 -1,-1 -1,0 -1,-1 -1,0 -4,-4 0,-1 -1,-1 0,-1 -1,-1 0,-3"></path>
<text class="t2"><tspan x="4823" y="1539"><a xmlns:xlink="http://www.w3.org/1999/xlink" xlink:type="simple" xlink:show="replace" xlink:actuate="onRequest" xlink:href="javascript:locateTree('X62540');">X62540</a>
</tspan>

<tspan x="4723" y="1539">1</tspan>
</text>
<path class="stroke4" d="M 4839,1340 l -4,0 -1,1 -3,0 -1,1 -2,0 -1,1 -1,0 -1,1 -1,0 -2,2 -1,0 -6,6 0,1 -2,2 0,1 -1,1 0,1 -1,1 0,2 -1,1 0,3 -1,1 0,10 1,1 0,2 1,1 0,2 1,1 0,1 1,1 0,1 2,2 0,1 6,6 1,0 2,2 1,0 1,1 1,0 1,1 2,0 1,1 2,0 1,1 11,0 1,-1 2,0 1,-1 2,0 1,-1 1,0 1,-1 1,0 2,-2 1,0 6,-6 0,-1 2,-2 0,-1 1,-1 0,-1 1,-1 0,-2 1,-1 0,-2 1,-1 0,-10 -1,-1 0,-3 -1,-1 0,-2 -1,-1 0,-1 -1,-1 0,-1 -2,-2 0,-1 -6,-6 -1,0 -2,-2 -1,0 -1,-1 -1,0 -1,-1 -2,0 -1,-1 -3,0 -1,-1 -4,0 m -40,68 l 78,0 0,-76 -78,0 0,76 m 39,-32 l 0,24 m -21,-24 l 41,0 m -45,-22 l  13,22 m 37,-22 l -12,22 m -26,-2 l -9,-7 7,-4 2,11"></path>
<path class="stroke8" d="M 4675,1261 l 14,0 m 18,0 l 29,0 m 17,0 l 30,0 m 17,0 l 29,0 m 18,0 l 29,0 m 17,0 l 30,0 m 17,0 l 29,0 m 18,0 l 16,0 0,13 m 0,16 l 0,28 m 0,16 l 0,27 m 0,16 l 0,28 m 0,16 l 0,27 m 0,16 l 0,15 -14,0 m -18,0 l -29,0 m -17,0 l -30,0 m -17,0 l -29,0 m -18,0 l -29,0 m -17,0 l -30,0 m -17,0 l -29,0 m -18,0 l -16,0 0,-13 m 0,-16 l 0,-28 m 0,-16 l 0,-27 m 0,-16 l 0,-28 m 0,-16 l 0,-27 m 0,-16 l 0,-15"></path>
<text class="t3"><tspan x="5041" y="1273">.</tspan>
</text>
<text class="t2"><tspan x="5041" y="1309"><a xmlns:xlink="http://www.w3.org/1999/xlink" xlink:type="simple" xlink:show="replace" xlink:actuate="onRequest" xlink:href="javascript:locateTree('B62540a');">B62540a</a>
</tspan>
</text>
<text class="t2"><tspan x="5041" y="1378">Oil condition sen-</tspan>

<tspan x="5041" y="1422">sor</tspan>
</text>
<path style="fill:none;stroke:#000000;stroke-width:15" d="M 4784,1507 l 0,409"></path>
<path class="white" d="M 4344,1899 l -1,1 -2,0 -2,2 -1,0 -5,5 0,1 -1,1 0,2 -1,1 0,7 1,1 0,2 1,1 0,1 5,5 1,0 2,2 2,0 1,1 8,0 1,-1 2,0 2,-2 1,0 5,-5 0,-1 1,-1 0,-2 1,-1 0,-7 -1,-1 0,-2 -1,-1 0,-1 -5,-5 -1,0 -2,-2 -2,0 -1,-1 -8,0 z"></path>
<path class="stroke4" d="M 4348,1908 l -2,0 -1,1 -1,0 -2,2 0,1 -1,1 0,5 1,1 0,1 2,2 1,0 1,1 4,0 1,-1 1,0 2,-2 0,-1 1,-1 0,-5 -1,-1 0,-1 -2,-2 -1,0 -1,-1 -1,0 m -6,3 l 10,0 m -11,2 l 12,0 m -13,2 l 14,0 m -14,1 l 14,0 m -13,2 l 12,0 m -11,2 l 11,0 m -9,2 l 6,0 m -6,-13 l 6,0"></path>
<text class="t2"><tspan x="4386" y="1880"><a xmlns:xlink="http://www.w3.org/1999/xlink" xlink:type="simple" xlink:show="replace" xlink:actuate="onRequest" xlink:href="javascript:locateTree('X6038');">X6038</a>
</tspan>
</text>
<path class="white" d="M 4781,1899 l -1,1 -2,0 -1,1 -1,0 -6,6 0,1 -1,1 0,2 -1,1 0,7 1,1 0,2 1,1 0,1 6,6 1,0 1,1 2,0 1,1 7,0 1,-1 2,0 1,-1 1,0 6,-6 0,-1 1,-1 0,-2 1,-1 0,-7 -1,-1 0,-2 -1,-1 0,-1 -6,-6 -1,0 -1,-1 -2,0 -1,-1 -7,0 z"></path>
<path class="stroke4" d="M 4784,1908 l -2,0 -2,2 -1,0 0,1 -2,2 0,5 1,1 0,1 2,2 1,0 1,1 5,0 1,-1 1,0 2,-2 0,-1 1,-1 0,-5 -2,-2 0,-1 -1,0 -2,-2 -2,0 m -6,3 l 10,0 m -11,2 l 13,0 m -13,2 l 13,0 m -14,1 l 15,0 m -14,2 l 13,0 m -12,2 l 11,0 m -9,2 l 7,0 m -7,-13 l 7,0"></path>
<text class="t2"><tspan x="4823" y="1880"><a xmlns:xlink="http://www.w3.org/1999/xlink" xlink:type="simple" xlink:show="replace" xlink:actuate="onRequest" xlink:href="javascript:locateTree('X6038');">X6038</a>
</tspan>
</text>
<path class="white" d="M 3162,2461 l -27,0 0,-27 27,0 0,27 z"></path>
<path class="black" d="M 3149,2461 l -1,0 0,-11 1,0 0,11 z"></path>
<path class="stroke4" d="M 3149,2461 l -1,0 0,-11 1,0 0,11"></path>
<path class="stroke6" d="M 3135,2447 l 0,-3 1,-1 0,-1 1,-1 0,-1 4,-4 1,0 1,-1 1,0 1,-1 7,0 1,1 1,0 1,1 1,0 4,4 0,1 1,1 0,1 1,1 0,3"></path>
<text class="t2"><tspan x="3187" y="2220">D_BSD</tspan>

<tspan x="3187" y="2275">0.5</tspan>

<tspan x="3187" y="2318">VI</tspan>

<tspan x="3064" y="2425">26</tspan>

<tspan x="3187" y="2425"><a xmlns:xlink="http://www.w3.org/1999/xlink" xlink:type="simple" xlink:show="replace" xlink:actuate="onRequest" xlink:href="javascript:locateTree('X60007');">X60007</a>
</tspan>
</text>
<path class="stroke8" d="M 204,2461 l 15,0 m 17,0 l 30,0 m 18,0 l 30,0 m 18,0 l 30,0 m 18,0 l 30,0 m 18,0 l 30,0 m 17,0 l 30,0 m 18,0 l 30,0 m 18,0 l 30,0 m 18,0 l 30,0 m 18,0 l 30,0 m 17,0 l 30,0 m 18,0 l 30,0 m 18,0 l 30,0 m 18,0 l 30,0 m 18,0 l 30,0 m 17,0 l 30,0 m 18,0 l 30,0 m 18,0 l 30,0 m 18,0 l 30,0 m 18,0 l 30,0 m 17,0 l 30,0 m 18,0 l 30,0 m 18,0 l 30,0 m 18,0 l 30,0 m 18,0 l 30,0 m 17,0 l 30,0 m 18,0 l 30,0 m 18,0 l 30,0 m 18,0 l 30,0 m 18,0 l 30,0 m 17,0 l 30,0 m 18,0 l 30,0"></path>
<path class="stroke8" d="M 1766,2461 l 30,0 m 18,0 l 30,0 m 18,0 l 30,0 m 17,0 l 30,0 m 18,0 l 30,0 m 18,0 l 30,0 m 18,0 l 30,0 m 18,0 l 30,0 m 17,0 l 30,0 m 18,0 l 30,0 m 18,0 l 30,0 m 18,0 l 30,0 m 18,0 l 30,0 m 17,0 l 30,0 m 18,0 l 30,0 m 18,0 l 30,0 m 18,0 l 30,0 m 18,0 l 30,0 m 17,0 l 30,0 m 18,0 l 30,0 m 18,0 l 30,0 m 18,0 l 30,0 m 18,0 l 30,0 m 17,0 l 30,0 m 18,0 l 30,0 m 18,0 l 30,0 m 18,0 l 30,0 m 18,0 l 30,0 m 17,0 l 30,0 m 18,0 l 30,0 m 18,0 l 30,0 m 18,0 l 30,0 m 18,0 l 30,0"></path>
<path class="stroke8" d="M 3343,2461 l 30,0 m 18,0 l 30,0 m 18,0 l 30,0 m 18,0 l 30,0 m 18,0 l 30,0 m 17,0 l 30,0 m 18,0 l 30,0 m 18,0 l 30,0 m 18,0 l 30,0 m 18,0 l 30,0 m 17,0 l 30,0 m 18,0 l 30,0 m 18,0 l 30,0 m 18,0 l 30,0 m 18,0 l 30,0 m 17,0 l 30,0 m 18,0 l 30,0 m 18,0 l 30,0 m 18,0 l 30,0 m 18,0 l 30,0 m 17,0 l 30,0 m 18,0 l 30,0 m 18,0 l 30,0 m 18,0 l 30,0 m 18,0 l 30,0 m 17,0 l 28,0 0,14 m 0,18 l 0,29 m 0,17 l 0,29 m 0,18 l 0,29 m 0,17 l 0,30 m 0,17 l 0,29 m 0,18 l 0,29 m 0,17 l 0,16 -15,0"></path>
<path class="stroke8" d="M 4534,2788 l -30,0 m -18,0 l -30,0 m -18,0 l -30,0 m -18,0 l -30,0 m -18,0 l -30,0 m -17,0 l -30,0 m -18,0 l -30,0 m -18,0 l -30,0 m -18,0 l -30,0 m -18,0 l -30,0 m -17,0 l -30,0 m -18,0 l -30,0 m -18,0 l -30,0 m -18,0 l -30,0 m -18,0 l -30,0 m -17,0 l -30,0 m -18,0 l -30,0 m -18,0 l -30,0 m -18,0 l -30,0 m -18,0 l -30,0 m -17,0 l -30,0 m -18,0 l -30,0 m -18,0 l -30,0 m -18,0 l -30,0 m -18,0 l -30,0 m -17,0 l -30,0 m -18,0 l -30,0 m -18,0 l -30,0 m -18,0 l -30,0 m -18,0 l -30,0 m -17,0 l -30,0 m -18,0 l -30,0 m -18,0 l -30,0"></path>
<path class="stroke8" d="M 2956,2788 l -30,0 m -18,0 l -30,0 m -17,0 l -30,0 m -18,0 l -30,0 m -18,0 l -30,0 m -18,0 l -30,0 m -18,0 l -30,0 m -17,0 l -30,0 m -18,0 l -30,0 m -18,0 l -30,0 m -18,0 l -30,0 m -18,0 l -30,0 m -17,0 l -30,0 m -18,0 l -30,0 m -18,0 l -30,0 m -18,0 l -30,0 m -18,0 l -30,0 m -17,0 l -30,0 m -18,0 l -30,0 m -18,0 l -30,0 m -18,0 l -30,0 m -18,0 l -30,0 m -17,0 l -30,0 m -18,0 l -30,0 m -18,0 l -30,0 m -18,0 l -30,0 m -18,0 l -30,0 m -17,0 l -30,0 m -18,0 l -30,0 m -18,0 l -30,0 m -18,0 l -30,0 m -18,0 l -30,0 m -17,0 l -30,0"></path>
<path class="stroke8" d="M 1379,2788 l -30,0 m -18,0 l -30,0 m -18,0 l -30,0 m -18,0 l -30,0 m -17,0 l -30,0 m -18,0 l -30,0 m -18,0 l -30,0 m -18,0 l -30,0 m -18,0 l -30,0 m -17,0 l -30,0 m -18,0 l -30,0 m -18,0 l -30,0 m -18,0 l -30,0 m -18,0 l -30,0 m -17,0 l -30,0 m -18,0 l -30,0 m -18,0 l -30,0 m -18,0 l -30,0 m -18,0 l -30,0 m -17,0 l -30,0 m -18,0 l -30,0 m -18,0 l -30,0 m -18,0 l -30,0 m -18,0 l -30,0 m -17,0 l -28,0 0,-14 m 0,-18 l 0,-29 m 0,-17 l 0,-29 m 0,-18 l 0,-29 m 0,-17 l 0,-30 m 0,-17 l 0,-29 m 0,-18 l 0,-29 m 0,-17 l 0,-16"></path>
<text class="t2"><tspan x="4386" y="1673">D_BSD</tspan>

<tspan x="4823" y="1673">D_BSD</tspan>

<tspan x="4823" y="1727">0.5</tspan>

<tspan x="4386" y="1727">0.5</tspan>

<tspan x="4386" y="1771">VI</tspan>

<tspan x="4823" y="1771">VI</tspan>
</text>
</g>
</svg>
</g></svg>