<svg data-v-f35fd5a0="" xmlns="http://www.w3.org/2000/svg" xmlns:xlink="http://www.w3.org/1999/xlink" xmlns:ev="http://www.w3.org/2001/xml-events" style="overflow: hidden; width: 100%; min-height: 100vh;"><g id="viewport-20201011233306135" class="svg-pan-zoom_viewport" transform="matrix(1,0,0,1,0,0)" style="transform: matrix(1, 0, 0, 1, 0, 0);"><!--?xml version="1.0" encoding="UTF-8"?--> 
<!--?xml-stylesheet href="../../styles/svg.css" type="text/css"?--> 
<svg xmlns="http://www.w3.org/2000/svg" id="svgid" xml:space="preserve" viewBox="37 607 2491 2250" preserveAspectRatio="xMinYMin meet" zoomAndPan="magnify" version="1.0" width="100%" height="100%" contentscripttype="text/ecmascript" contentstyletype="text/css" xmlns:xlink="http://www.w3.org/1999/xlink">
<title>Schaltplan Viewer - Copyright BMW AG 2005</title>
<style xml:space="preserve" type="text/css">path {fill-rule:evenodd; stroke-linecap:round; stroke-linejoin:round}
rect {stroke-linejoin:miter}
text.t1 {font-family:'Courier SWA',monospace;font-size:31;fill:#000000}
path.white {fill:#FFFFFF;stroke:none}
path.black {fill:#000000;stroke:none}
path.stroke3 {fill:none;stroke:#000000;stroke-width:3}
path.stroke4 {fill:none;stroke:#000000;stroke-width:4}
path.stroke5 {fill:none;stroke:#000000;stroke-width:5}
path.stroke6 {fill:none;stroke:#000000;stroke-width:6}
path.stroke7 {fill:none;stroke:#000000;stroke-width:7 }
path.stroke8 {fill:none;stroke:#000000;stroke-width:8 }
path.stroke9 {fill:none;stroke:#000000;stroke-width:9 }
path.stroke10 {fill:none;stroke:#000000;stroke-width:10 }
path.stroke11 {fill:none;stroke:#000000;stroke-width:11}
path.stroke14 {fill:none;stroke:#000000;stroke-width:14}</style>
<desc>customer: BMW
date: 16.08.2005
time: 12:04:45
language: British engl
project: E65
version: 1.0</desc>
<g id="gid">
<text class="t1"></text>
<path style="fill:#DFDFDF;stroke:none" d="M 967,1807 l 0,-219 -654,0 0,219 654,0 z"></path>
<path class="stroke8" d="M 967,1807 l 0,-13 m 0,-17 l 0,-27 m 0,-16 l 0,-28 m 0,-16 l 0,-27 m 0,-17 l 0,-27 m 0,-16 l 0,-15 m -654,0 l 0,13 m 0,17 l 0,27 m 0,16 l 0,28 m 0,16 l 0,27 m 0,17 l 0,27 m 0,16 l 0,15"></path>
<path style="fill:#DFDFDF;stroke:none" d="M 204,1588 l 982,0 0,219 -982,0 0,-219 z"></path>
<path class="stroke8" d="M 204,1588 l 15,0 m 18,0 l 31,0 m 18,0 l 31,0 m 18,0 l 31,0 m 18,0 l 31,0 m 18,0 l 31,0 m 18,0 l 31,0 m 18,0 l 31,0 m 18,0 l 31,0 m 18,0 l 31,0 m 18,0 l 31,0 m 18,0 l 31,0 m 18,0 l 31,0 m 18,0 l 31,0 m 18,0 l 31,0 m 18,0 l 31,0 m 18,0 l 31,0 m 18,0 l 31,0 m 18,0 l 31,0 m 18,0 l 31,0 m 18,0 l 18,0 0,13 m 0,17 l 0,27 m 0,16 l 0,28 m 0,16 l 0,27 m 0,17 l 0,27 m 0,16 l 0,15 -15,0 m -18,0 l -31,0 m -18,0 l -31,0 m -18,0 l -31,0 m -18,0 l -31,0 m -18,0 l -31,0 m -18,0 l -31,0 m -18,0 l -31,0"></path>
<path class="stroke8" d="M 810,1807 l -31,0 m -18,0 l -31,0 m -18,0 l -31,0 m -18,0 l -31,0 m -18,0 l -31,0 m -18,0 l -31,0 m -18,0 l -31,0 m -18,0 l -31,0 m -18,0 l -31,0 m -18,0 l -31,0 m -18,0 l -31,0 m -18,0 l -31,0 m -18,0 l -18,0 0,-13 m 0,-17 l 0,-27 m 0,-16 l 0,-28 m 0,-16 l 0,-27 m 0,-17 l 0,-27 m 0,-16 l 0,-15"></path>
<path style="fill:#DFDFDF;stroke:none" d="M 313,825 l 654,0 0,218 -654,0 0,-218 z"></path>
<path class="stroke8" d="M 313,825 l 14,0 m 18,0 l 29,0 m 17,0 l 29,0 m 18,0 l 29,0 m 17,0 l 30,0 m 17,0 l 29,0 m 18,0 l 29,0 m 17,0 l 29,0 m 18,0 l 29,0 m 17,0 l 30,0 m 17,0 l 29,0 m 18,0 l 29,0 m 17,0 l 29,0 m 18,0 l 29,0 m 17,0 l 17,0 0,13 m 0,16 l 0,28 m 0,16 l 0,27 m 0,16 l 0,28 m 0,16 l 0,27 m 0,16 l 0,15 -14,0 m -18,0 l -29,0 m -17,0 l -29,0 m -18,0 l -29,0 m -17,0 l -30,0 m -17,0 l -29,0 m -18,0 l -29,0 m -17,0 l -29,0 m -18,0 l -29,0 m -17,0 l -30,0 m -17,0 l -29,0 m -18,0 l -29,0 m -17,0 l -29,0 m -18,0 l -29,0"></path>
<path class="stroke8" d="M 330,1043 l -17,0 0,-13 m 0,-16 l 0,-28 m 0,-16 l 0,-27 m 0,-16 l 0,-28 m 0,-16 l 0,-27 m 0,-16 l 0,-15"></path>
<path style="fill:#DFDFDF;stroke:none" d="M 1949,825 l 327,0 0,218 -327,0 0,-218 z"></path>
<path class="stroke8" d="M 1949,825 l 14,0 m 18,0 l 29,0 m 17,0 l 29,0 m 18,0 l 29,0 m 17,0 l 30,0 m 17,0 l 29,0 m 18,0 l 29,0 m 17,0 l 16,0 0,13 m 0,16 l 0,28 m 0,16 l 0,27 m 0,16 l 0,28 m 0,16 l 0,27 m 0,16 l 0,15 -14,0 m -18,0 l -29,0 m -17,0 l -29,0 m -18,0 l -29,0 m -17,0 l -30,0 m -17,0 l -29,0 m -18,0 l -29,0 m -17,0 l -16,0 0,-13 m 0,-16 l 0,-28 m 0,-16 l 0,-27 m 0,-16 l 0,-28 m 0,-16 l 0,-27 m 0,-16 l 0,-15"></path>
<path style="fill:#DFDFDF;stroke:none" d="M 313,2570 l 1963,0 0,218 -1963,0 0,-218 z"></path>
<path class="stroke8" d="M 313,2570 l 15,0 m 17,0 l 30,0 m 18,0 l 30,0 m 18,0 l 30,0 m 18,0 l 30,0 m 18,0 l 30,0 m 17,0 l 30,0 m 18,0 l 30,0 m 18,0 l 30,0 m 18,0 l 30,0 m 18,0 l 30,0 m 17,0 l 30,0 m 18,0 l 30,0 m 18,0 l 30,0 m 18,0 l 30,0 m 18,0 l 30,0 m 17,0 l 30,0 m 18,0 l 30,0 m 18,0 l 30,0 m 18,0 l 30,0 m 18,0 l 30,0 m 17,0 l 30,0 m 18,0 l 30,0 m 18,0 l 30,0 m 18,0 l 30,0 m 18,0 l 30,0 m 17,0 l 30,0 m 18,0 l 30,0 m 18,0 l 30,0 m 18,0 l 30,0 m 18,0 l 30,0 m 17,0 l 30,0 m 18,0 l 30,0"></path>
<path class="stroke8" d="M 1875,2570 l 30,0 m 18,0 l 30,0 m 18,0 l 30,0 m 17,0 l 30,0 m 18,0 l 30,0 m 18,0 l 30,0 m 18,0 l 30,0 m 18,0 l 30,0 m 17,0 l 19,0 0,13 m 0,16 l 0,28 m 0,16 l 0,27 m 0,16 l 0,28 m 0,16 l 0,27 m 0,16 l 0,15 -15,0 m -17,0 l -30,0 m -18,0 l -30,0 m -18,0 l -30,0 m -18,0 l -30,0 m -18,0 l -30,0 m -17,0 l -30,0 m -18,0 l -30,0 m -18,0 l -30,0 m -18,0 l -30,0 m -18,0 l -30,0 m -17,0 l -30,0 m -18,0 l -30,0 m -18,0 l -30,0 m -18,0 l -30,0 m -18,0 l -30,0 m -17,0 l -30,0 m -18,0 l -30,0 m -18,0 l -30,0 m -18,0 l -30,0"></path>
<path class="stroke8" d="M 1335,2788 l -30,0 m -17,0 l -30,0 m -18,0 l -30,0 m -18,0 l -30,0 m -18,0 l -30,0 m -18,0 l -30,0 m -17,0 l -30,0 m -18,0 l -30,0 m -18,0 l -30,0 m -18,0 l -30,0 m -18,0 l -30,0 m -17,0 l -30,0 m -18,0 l -30,0 m -18,0 l -30,0 m -18,0 l -30,0 m -18,0 l -30,0 m -17,0 l -30,0 m -18,0 l -30,0 m -18,0 l -30,0 m -18,0 l -30,0 m -18,0 l -30,0 m -17,0 l -19,0 0,-13 m 0,-16 l 0,-28 m 0,-16 l 0,-27 m 0,-16 l 0,-28 m 0,-16 l 0,-27 m 0,-16 l 0,-15"></path>
<path style="fill:none;stroke:#000000;stroke-width:15" d="M 2058,1070 l 0,1473"></path>
<path class="white" d="M 763,1588 l -27,0 0,-27 27,0 0,27 z"></path>
<path class="black" d="M 750,1588 l -1,0 0,-11 1,0 0,11 z"></path>
<path class="stroke4" d="M 750,1588 l -1,0 0,-11 1,0 0,11"></path>
<path class="stroke6" d="M 736,1575 l 0,-3 1,-1 0,-2 6,-6 2,0 1,-1 6,0 1,1 2,0 6,6 0,2 1,1 0,3"></path>
<text class="t2"><tspan x="788" y="1552"><a xmlns:xlink="http://www.w3.org/1999/xlink" xlink:type="simple" xlink:show="replace" xlink:actuate="onRequest" xlink:href="javascript:locateTree('X14272');">X14272</a>
</tspan>

<tspan x="665" y="1552">17</tspan>
</text>
<path class="stroke8" d="M 967,1807 l 0,-13 m 0,-17 l 0,-27 m 0,-16 l 0,-28 m 0,-16 l 0,-27 m 0,-17 l 0,-27 m 0,-16 l 0,-15 m -654,0 l 0,13 m 0,17 l 0,27 m 0,16 l 0,28 m 0,16 l 0,27 m 0,17 l 0,27 m 0,16 l 0,15"></path>
<text class="t2"><tspan x="1006" y="1648"><a xmlns:xlink="http://www.w3.org/1999/xlink" xlink:type="simple" xlink:show="replace" xlink:actuate="onRequest" xlink:href="javascript:locateTree('A4010a');">A4010a</a>
</tspan>
</text>
<text class="t3"><tspan x="1224" y="1597">.</tspan>
</text>
<text class="t2"><tspan x="1224" y="1633"><a xmlns:xlink="http://www.w3.org/1999/xlink" xlink:type="simple" xlink:show="replace" xlink:actuate="onRequest" xlink:href="javascript:locateTree('A4010');">A4010</a>
</tspan>
</text>
<text class="t2"><tspan x="1224" y="1702">Junction box</tspan>
</text>
<path class="stroke4" d="M 640,1667 l -4,0 -1,1 -3,0 -1,1 -2,0 -1,1 -1,0 -1,1 -1,0 -2,2 -1,0 -6,6 0,1 -2,2 0,1 -1,1 0,1 -1,1 0,2 -1,1 0,3 -1,1 0,10 1,1 0,2 1,1 0,2 1,1 0,1 1,1 0,1 2,2 0,1 6,6 1,0 2,2 1,0 1,1 1,0 1,1 2,0 1,1 2,0 1,1 11,0 1,-1 2,0 1,-1 2,0 1,-1 1,0 1,-1 1,0 2,-2 1,0 6,-6 0,-1 2,-2 0,-1 1,-1 0,-1 1,-1 0,-2 1,-1 0,-2 1,-1 0,-10 -1,-1 0,-3 -1,-1 0,-2 -1,-1 0,-1 -1,-1 0,-1 -2,-2 0,-1 -6,-6 -1,0 -2,-2 -1,0 -1,-1 -1,0 -1,-1 -2,0 -1,-1 -3,0 -1,-1 -4,0 m -40,68 l 79,0 0,-75 -79,0 0,75 m 39,-32 l 0,24 m -20,-24 l 41,0 m -45,-21 l  12,21 m 38,-21 l -13,21 m -26,-2 l -8,-7 6,-4 2,11"></path>
<path style="fill:none;stroke:#000000;stroke-width:15" d="M 422,1070 l 0,491"></path>
<text class="t2"><tspan x="460" y="1293">F_CAN_H</tspan>

<tspan x="460" y="1348">0.35</tspan>

<tspan x="460" y="1391">WS/GE</tspan>
</text>
<path style="fill:none;stroke:#000000;stroke-width:15" d="M 749,1070 l 0,491"></path>
<text class="t2"><tspan x="788" y="1293">F_CAN_L</tspan>

<tspan x="788" y="1348">0.35</tspan>

<tspan x="788" y="1391">WS/BL</tspan>
</text>
<path class="white" d="M 408,1043 l 28,0 0,27 -28,0 0,-27 z"></path>
<path class="black" d="M 421,1043 l 2,0 0,12 -2,0 0,-12 z"></path>
<path class="stroke4" d="M 421,1043 l 2,0 0,12 -2,0 0,-12"></path>
<path class="stroke6" d="M 435,1057 l 0,3 -1,1 0,2 -6,6 -2,0 -1,1 -6,0 -1,-1 -2,0 -6,-6 0,-2 -1,-1 0,-3"></path>
<text class="t2"><tspan x="338" y="1102">12</tspan>
</text>
<path class="white" d="M 436,1588 l -27,0 0,-27 27,0 0,27 z"></path>
<path class="black" d="M 423,1588 l -2,0 0,-11 2,0 0,11 z"></path>
<path class="stroke4" d="M 423,1588 l -2,0 0,-11 2,0 0,11"></path>
<path class="stroke6" d="M 409,1575 l 0,-3 1,-1 0,-2 6,-6 2,0 1,-1 6,0 1,1 2,0 6,6 0,2 1,1 0,3"></path>
<text class="t2"><tspan x="338" y="1552">34</tspan>
</text>
<path class="stroke4" d="M 435,1057 l 30,0 m 15,0 l 30,0 m 15,0 l 30,0 m 15,0 l 30,0 m 15,0 l 30,0 m 15,0 l 30,0 m 15,0 l 30,0"></path>
<path class="white" d="M 736,1043 l 27,0 0,27 -27,0 0,-27 z"></path>
<path class="black" d="M 748,1043 l 2,0 0,12 -2,0 0,-12 z"></path>
<path class="stroke4" d="M 748,1043 l 2,0 0,12 -2,0 0,-12"></path>
<path class="stroke6" d="M 762,1057 l 0,3 -1,1 0,2 -6,6 -2,0 -1,1 -6,0 -1,-1 -2,0 -6,-6 0,-2 -1,-1 0,-3"></path>
<text class="t2"><tspan x="788" y="1102"><a xmlns:xlink="http://www.w3.org/1999/xlink" xlink:type="simple" xlink:show="replace" xlink:actuate="onRequest" xlink:href="javascript:locateTree('X1880');">X1880</a>
</tspan>

<tspan x="688" y="1102">6</tspan>
</text>
<path class="stroke4" d="M 435,1575 l 30,0 m 15,0 l 30,0 m 15,0 l 30,0 m 15,0 l 30,0 m 15,0 l 30,0 m 15,0 l 30,0 m 15,0 l 30,0 m -95,-671 l -4,0 -1,1 -3,0 -1,1 -2,0 -1,1 -1,0 -1,1 -1,0 -2,2 -1,0 -6,6 0,1 -2,2 0,1 -1,1 0,1 -1,1 0,2 -1,1 0,3 -1,1 0,10 1,1 0,2 1,1 0,2 1,1 0,1 1,1 0,1 2,2 0,1 6,6 1,0 2,2 1,0 1,1 1,0 1,1 2,0 1,1 2,0 1,1 11,0 1,-1 2,0 1,-1 2,0 1,-1 1,0 1,-1 1,0 2,-2 1,0 6,-6 0,-1 2,-2 0,-1 1,-1 0,-1 1,-1 0,-2 1,-1 0,-2 1,-1 0,-10 -1,-1 0,-3 -1,-1 0,-2 -1,-1 0,-1 -1,-1 0,-1 -2,-2 0,-1 -6,-6 -1,0 -2,-2 -1,0 -1,-1 -1,0 -1,-1 -2,0  -1,-1 -3,0 -1,-1 -4,0 m -40,68 l 79,0 0,-76 -79,0 0,76 m 39,-32 l 0,24 m -20,-24 l 41,0 m -45,-22 l 12,22 m 38,-22 l -13,22 m -26,-2 l -8,-8 6,-3 2,10"></path>
<path class="white" d="M 763,2570 l -27,0 0,-27 27,0 0,27 z"></path>
<path class="black" d="M 750,2570 l -1,0 0,-11 1,0 0,11 z"></path>
<path class="stroke4" d="M 750,2570 l -1,0 0,-11 1,0 0,11"></path>
<path class="stroke6" d="M 736,2556 l 0,-3 1,-1 0,-2 6,-6 2,0 1,-1 6,0 1,1 2,0 6,6 0,2 1,1 0,3"></path>
<text class="t2"><tspan x="688" y="2534">1</tspan>
</text>
<path style="fill:none;stroke:#000000;stroke-width:15" d="M 422,1834 l 0,709"></path>
<text class="t2"><tspan x="460" y="2302">PT_CAN_H</tspan>

<tspan x="460" y="2357">0.35</tspan>

<tspan x="460" y="2400">BL/RT</tspan>
</text>
<path style="fill:none;stroke:#000000;stroke-width:15" d="M 749,1834 l 0,709"></path>
<text class="t2"><tspan x="788" y="2302">PT_CAN_L</tspan>

<tspan x="788" y="2357">0.35</tspan>

<tspan x="788" y="2400">RT</tspan>
</text>
<path class="white" d="M 408,1807 l 28,0 0,27 -28,0 0,-27 z"></path>
<path class="black" d="M 421,1807 l 2,0 0,11 -2,0 0,-11 z"></path>
<path class="stroke4" d="M 421,1807 l 2,0 0,11 -2,0 0,-11"></path>
<path class="stroke6" d="M 435,1820 l 0,3 -1,1 0,2 -6,6 -2,0 -1,1 -6,0 -1,-1 -2,0 -6,-6 0,-2 -1,-1 0,-3"></path>
<text class="t2"><tspan x="361" y="1866">1</tspan>
</text>
<path class="white" d="M 436,2570 l -27,0 0,-27 27,0 0,27 z"></path>
<path class="black" d="M 423,2570 l -2,0 0,-11 2,0 0,11 z"></path>
<path class="stroke4" d="M 423,2570 l -2,0 0,-11 2,0 0,11"></path>
<path class="stroke6" d="M 409,2556 l 0,-3 1,-1 0,-2 6,-6 2,0 1,-1 6,0 1,1 2,0 6,6 0,2 1,1 0,3"></path>
<text class="t2"><tspan x="338" y="2534">14</tspan>
</text>
<path class="stroke4" d="M 435,1820 l 30,0 m 15,0 l 30,0 m 15,0 l 30,0 m 15,0 l 30,0 m 15,0 l 30,0 m 15,0 l 30,0 m 15,0 l 30,0"></path>
<path class="white" d="M 736,1807 l 27,0 0,27 -27,0 0,-27 z"></path>
<path class="black" d="M 748,1807 l 2,0 0,11 -2,0 0,-11 z"></path>
<path class="stroke4" d="M 748,1807 l 2,0 0,11 -2,0 0,-11"></path>
<path class="stroke6" d="M 762,1820 l 0,3 -1,1 0,2 -6,6 -2,0 -1,1 -6,0 -1,-1 -2,0 -6,-6 0,-2 -1,-1 0,-3"></path>
<text class="t2"><tspan x="788" y="1866"><a xmlns:xlink="http://www.w3.org/1999/xlink" xlink:type="simple" xlink:show="replace" xlink:actuate="onRequest" xlink:href="javascript:locateTree('X14271');">X14271</a>
</tspan>

<tspan x="688" y="1866">2</tspan>
</text>
<path class="stroke4" d="M 435,2556 l 30,0 m 15,0 l 30,0 m 15,0 l 30,0 m 15,0 l 30,0 m 15,0 l 30,0 m 15,0 l 30,0 m 15,0 l 30,0 m 560,93 l -4,0 -1,1 -3,0 -1,1 -2,0 -1,1 -1,0 -1,1 -1,0 -2,2 -1,0 -6,6 0,1 -2,2 0,1 -1,1 0,1 -1,1 0,2 -1,1 0,3 -1,1 0,10 1,1 0,2 1,1 0,2 1,1 0,1 1,1 0,1 2,2 0,1 6,6 1,0 2,2 1,0 1,1 1,0 1,1 2,0 1,1 2,0 1,1 11,0 1,-1 2,0 1,-1 2,0 1,-1 1,0 1,-1 1,0 2,-2 1,0 6,-6 0,-1 2,-2 0,-1 1,-1 0,-1 1,-1 0,-2 1,-1 0,-2 1,-1 0,-10 -1,-1 0,-3 -1,-1 0,-2 -1,-1 0,-1 -1,-1 0,-1 -2,-2 0,-1 -6,-6 -1,0 -2,-2 -1,0 -1,-1 -1,0 -1,-1 -2,0  -1,-1 -3,0 -1,-1 -4,0 m -41,68 l 79,0 0,-76 -79,0 0,76 m 40,-32 l 0,24 m -21,-25 l 41,0 m -45,-21 l 12,21 m 38,-21 l -12,21 m -27,-2 l -8,-7 6,-3 2,10"></path>
<path style="fill:none;stroke:#000000;stroke-width:15" d="M 586,2134 l -164,0"></path>
<path class="stroke4" d="M 586,2152 l 40,-18 -40,-19 0,37 m 0,-26 l 23,0 m -23,4 l 31,0 m -31,4 l 40,0 m -40,3 l 31,0 m -31,4 l 23,0 m -23,4 l 15,0 m -15,3 l 7,0 m -7,-25 l 16,0 m -16,-4 l 9,0 m -9,-4 l 1,0"></path>
<path class="white" d="M 418,2117 l -1,1 -1,0 -1,1 -1,0 -1,1 -1,0 -4,4 0,1 -1,1 0,1 -1,1 0,1 -1,1 0,8 1,1 0,1 1,1 0,1 1,1 0,1 4,4 1,0 1,1 1,0 1,1 1,0 1,1 8,0 1,-1 1,0 1,-1 1,0 1,-1 1,0 4,-4 0,-1 1,-1 0,-1 1,-1 0,-1 1,-1 0,-8 -1,-1 0,-1 -1,-1 0,-1 -1,-1 0,-1 -4,-4 -1,0 -1,-1 -1,0 -1,-1 -1,0 -1,-1 -8,0 z"></path>
<path class="stroke4" d="M 422,2127 l -2,0 -1,1 -1,0 -2,2 0,1 -1,1 0,4 1,1 0,1 2,2 1,0 1,1 4,0 1,-1 1,0 2,-2 0,-1 1,-1 0,-4 -1,-1 0,-1 -2,-2 -1,0 -1,-1 -1,0 m -6,2 l 10,0 m -11,2 l 12,0 m -13,2 l 14,0 m -14,2 l 14,0 m -13,1 l 12,0 m -11,2 l 11,0 m -9,2 l 6,0 m -6,-13 l 6,0"></path>
<text class="t2"><tspan x="460" y="2098"><a xmlns:xlink="http://www.w3.org/1999/xlink" xlink:type="simple" xlink:show="replace" xlink:actuate="onRequest" xlink:href="javascript:locateTree('X10545');">X10545</a>
</tspan>
</text>
<path style="fill:none;stroke:#000000;stroke-width:15" d="M 913,2134 l -164,0"></path>
<path class="stroke4" d="M 913,2152 l 40,-18 -40,-19 0,37 m 0,-26 l 24,0 m -24,4 l 31,0 m -31,4 l 40,0 m -40,3 l 31,0 m -31,4 l 23,0 m -23,4 l 15,0 m -15,3 l 7,0 m -7,-25 l 16,0 m -16,-4 l 9,0 m -9,-4 l 2,0"></path>
<path class="white" d="M 746,2117 l -1,1 -2,0 -1,1 -1,0 -5,5 0,1 -2,2 0,2 -1,1 0,8 1,1 0,2 1,1 0,1 6,6 1,0 1,1 2,0 1,1 7,0 1,-1 2,0 1,-1 1,0 6,-6 0,-1 1,-1 0,-2 1,-1 0,-8 -1,-1 0,-2 -2,-2 0,-1 -5,-5 -1,0 -1,-1 -2,0 -1,-1 -7,0 z"></path>
<path class="stroke4" d="M 749,2127 l -2,0 -1,1 -1,0 -2,2 0,1 -1,1 0,4 1,1 0,1 2,2 1,0 1,1 5,0 1,-1 1,0 2,-2 0,-1 1,-1 0,-4 -1,-1 0,-1 -2,-2 -1,0 -1,-1 -2,0 m -6,2 l 10,0 m -11,2 l 13,0 m -14,2 l 14,0 m -14,2 l 15,0 m -14,1 l 13,0 m -12,2 l 11,0 m -9,2 l 7,0 m -7,-13 l 7,0"></path>
<text class="t2"><tspan x="788" y="2098"><a xmlns:xlink="http://www.w3.org/1999/xlink" xlink:type="simple" xlink:show="replace" xlink:actuate="onRequest" xlink:href="javascript:locateTree('X10546');">X10546</a>
</tspan>
</text>
<path class="stroke8" d="M 204,1588 l 15,0 m 18,0 l 31,0 m 18,0 l 31,0 m 18,0 l 31,0 m 18,0 l 31,0 m 18,0 l 31,0 m 18,0 l 31,0 m 18,0 l 31,0 m 18,0 l 31,0 m 18,0 l 31,0 m 18,0 l 31,0 m 18,0 l 31,0 m 18,0 l 31,0 m 18,0 l 31,0 m 18,0 l 31,0 m 18,0 l 31,0 m 18,0 l 31,0 m 18,0 l 31,0 m 18,0 l 31,0 m 18,0 l 31,0 m 18,0 l 18,0 0,13 m 0,17 l 0,27 m 0,16 l 0,28 m 0,16 l 0,27 m 0,17 l 0,27 m 0,16 l 0,15 -15,0 m -18,0 l -31,0 m -18,0 l -31,0 m -18,0 l -31,0 m -18,0 l -31,0 m -18,0 l -31,0 m -18,0 l -31,0 m -18,0 l -31,0"></path>
<path class="stroke8" d="M 810,1807 l -31,0 m -18,0 l -31,0 m -18,0 l -31,0 m -18,0 l -31,0 m -18,0 l -31,0 m -18,0 l -31,0 m -18,0 l -31,0 m -18,0 l -31,0 m -18,0 l -31,0 m -18,0 l -31,0 m -18,0 l -31,0 m -18,0 l -31,0 m -18,0 l -18,0 0,-13 m 0,-17 l 0,-27 m 0,-16 l 0,-28 m 0,-16 l 0,-27 m 0,-17 l 0,-27 m 0,-16 l 0,-15 m 109,-763 l 14,0 m 18,0 l 29,0 m 17,0 l 29,0 m 18,0 l 29,0 m 17,0 l 30,0 m 17,0 l 29,0 m 18,0 l 29,0 m 17,0 l 29,0 m 18,0 l 29,0 m 17,0 l 30,0 m 17,0 l 29,0 m 18,0 l 29,0 m 17,0 l 29,0 m 18,0 l 29,0 m 17,0 l 17,0 0,13"></path>
<path class="stroke8" d="M 967,854 l 0,28 m 0,16 l 0,27 m 0,16 l 0,28 m 0,16 l 0,27 m 0,16 l 0,15 -14,0 m -18,0 l -29,0 m -17,0 l -29,0 m -18,0 l -29,0 m -17,0 l -30,0 m -17,0 l -29,0 m -18,0 l -29,0 m -17,0 l -29,0 m -18,0 l -29,0 m -17,0 l -30,0 m -17,0 l -29,0 m -18,0 l -29,0 m -17,0 l -29,0 m -18,0 l -29,0 m -17,0 l -17,0 0,-13 m 0,-16 l 0,-28 m 0,-16 l 0,-27 m 0,-16 l 0,-28 m 0,-16 l 0,-27 m 0,-16 l 0,-15"></path>
<text class="t3"><tspan x="1006" y="834">.</tspan>
</text>
<text class="t2"><tspan x="1006" y="870"><a xmlns:xlink="http://www.w3.org/1999/xlink" xlink:type="simple" xlink:show="replace" xlink:actuate="onRequest" xlink:href="javascript:locateTree('A72');">A72</a>
</tspan>
</text>
<text class="t2"><tspan x="1006" y="939">Steering column</tspan>

<tspan x="1006" y="983">switch cluster</tspan>
</text>
<text class="t3"><tspan x="2314" y="2579">.</tspan>
</text>
<text class="t2"><tspan x="2314" y="2615"><a xmlns:xlink="http://www.w3.org/1999/xlink" xlink:type="simple" xlink:show="replace" xlink:actuate="onRequest" xlink:href="javascript:locateTree('A6000');">A6000</a>
</tspan>
</text>
<text class="t2"><tspan x="2314" y="2684">DME control unit</tspan>
</text>
<path class="white" d="M 2072,2570 l -27,0 0,-27 27,0 0,27 z"></path>
<path class="black" d="M 2059,2570 l -2,0 0,-11 2,0 0,11 z"></path>
<path class="stroke4" d="M 2059,2570 l -2,0 0,-11 2,0 0,11"></path>
<path class="stroke6" d="M 2045,2556 l 0,-3 1,-1 0,-2 6,-6 2,0 1,-1 6,0 1,1 2,0 6,6 0,2 1,1 0,3"></path>
<text class="t2"><tspan x="2096" y="1293">DFAHR</tspan>

<tspan x="2096" y="1348">0.35</tspan>

<tspan x="2096" y="1391">WS/GN</tspan>

<tspan x="1974" y="2534">17</tspan>

<tspan x="2096" y="2534"><a xmlns:xlink="http://www.w3.org/1999/xlink" xlink:type="simple" xlink:show="replace" xlink:actuate="onRequest" xlink:href="javascript:locateTree('X60001');">X60001</a>
</tspan>
</text>
<path class="white" d="M 2044,1043 l 28,0 0,27 -28,0 0,-27 z"></path>
<path class="black" d="M 2057,1043 l 2,0 0,12 -2,0 0,-12 z"></path>
<path class="stroke4" d="M 2057,1043 l 2,0 0,12 -2,0 0,-12"></path>
<path class="stroke6" d="M 2071,1057 l 0,3 -1,1 0,2 -6,6 -2,0 -1,1 -6,0 -1,-1 -2,0 -6,-6 0,-2 -1,-1 0,-3"></path>
<text class="t2"><tspan x="2096" y="1102"><a xmlns:xlink="http://www.w3.org/1999/xlink" xlink:type="simple" xlink:show="replace" xlink:actuate="onRequest" xlink:href="javascript:locateTree('X18303');">X18303</a>
</tspan>

<tspan x="1997" y="1102">8</tspan>
</text>
<path class="stroke8" d="M 1949,825 l 14,0 m 18,0 l 29,0 m 17,0 l 29,0 m 18,0 l 29,0 m 17,0 l 30,0 m 17,0 l 29,0 m 18,0 l 29,0 m 17,0 l 16,0 0,13 m 0,16 l 0,28 m 0,16 l 0,27 m 0,16 l 0,28 m 0,16 l 0,27 m 0,16 l 0,15 -14,0 m -18,0 l -29,0 m -17,0 l -29,0 m -18,0 l -29,0 m -17,0 l -30,0 m -17,0 l -29,0 m -18,0 l -29,0 m -17,0 l -16,0 0,-13 m 0,-16 l 0,-28 m 0,-16 l 0,-27 m 0,-16 l 0,-28 m 0,-16 l 0,-27 m 0,-16 l 0,-15"></path>
<text class="t3"><tspan x="2314" y="834">.</tspan>
</text>
<text class="t2"><tspan x="2314" y="870"><a xmlns:xlink="http://www.w3.org/1999/xlink" xlink:type="simple" xlink:show="replace" xlink:actuate="onRequest" xlink:href="javascript:locateTree('A65a');">A65a</a>
</tspan>
</text>
<text class="t2"><tspan x="2314" y="939">Dynamic stability</tspan>

<tspan x="2314" y="983">control (DSC)</tspan>
</text>
<path class="stroke4" d="M 2113,904 l -5,0 -1,1 -3,0 -1,1 -1,0 -1,1 -1,0 -1,1 -1,0 -1,1 -1,0 -8,8 0,1 -1,1 0,1 -1,1 0,1 -1,1 0,1 -1,1 0,3 -1,1 0,11 1,1 0,3 1,1 0,1 1,1 0,1 1,1 0,1 1,1 0,1 8,8 1,0 1,1 1,0 1,1 1,0 1,1 1,0 1,1 3,0 1,1 10,0 1,-1 3,0 1,-1 1,0 1,-1 1,0 1,-1 1,0 1,-1 1,0 8,-8 0,-1 1,-1 0,-1 1,-1 0,-1 1,-1 0,-1 1,-1 0,-3 1,-1 0,-11 -1,-1 0,-3 -1,-1 0,-1 -1,-1 0,-1 -1,-1 0,-1 -1,-1 0,-1 -8,-8 -1,0 -1,-1 -1,0 -1,-1 -1,0 -1,-1 -1,0 -1,-1 -3,0 -1,-1 -4,0 m -41,68 l 79,0 0,-76 -79,0 0,76 m 40,-32 l 0,24 m -21,-24 l 41,0 m -45,-22 l  12,22 m 38,-22 l -12,22 m -27,-2 l -8,-8 6,-3 2,10"></path>
<path class="white" d="M 2054,1790 l -1,1 -2,0 -2,2 -1,0 -5,5 0,1 -1,1 0,2 -1,1 0,7 1,1 0,2 1,1 0,1 5,5 1,0 2,2 2,0 1,1 8,0 1,-1 2,0 2,-2 1,0 5,-5 0,-1 1,-1 0,-2 1,-1 0,-7 -1,-1 0,-2 -1,-1 0,-1 -5,-5 -1,0 -2,-2 -2,0 -1,-1 -8,0 z"></path>
<path class="stroke4" d="M 2058,1799 l -2,0 -1,1 -1,0 -2,2 0,1 -1,1 0,5 1,1 0,1 2,2 1,0 1,1 4,0 1,-1 1,0 2,-2 0,-1 1,-1 0,-5 -1,-1 0,-1 -2,-2 -1,0 -1,-1 -1,0 m -6,3 l 10,0 m -11,2 l 12,0 m -13,2 l 14,0 m -14,1 l 14,0 m -13,2 l 12,0 m -11,2 l 10,0 m -8,2 l 6,0 m -6,-13 l 6,0"></path>
<text class="t2"><tspan x="2096" y="1771"><a xmlns:xlink="http://www.w3.org/1999/xlink" xlink:type="simple" xlink:show="replace" xlink:actuate="onRequest" xlink:href="javascript:locateTree('X10186');">X10186</a>
</tspan>
</text>
<path class="stroke8" d="M 313,2570 l 15,0 m 17,0 l 30,0 m 18,0 l 30,0 m 18,0 l 30,0 m 18,0 l 30,0 m 18,0 l 30,0 m 17,0 l 30,0 m 18,0 l 30,0 m 18,0 l 30,0 m 18,0 l 30,0 m 18,0 l 30,0 m 17,0 l 30,0 m 18,0 l 30,0 m 18,0 l 30,0 m 18,0 l 30,0 m 18,0 l 30,0 m 17,0 l 30,0 m 18,0 l 30,0 m 18,0 l 30,0 m 18,0 l 30,0 m 18,0 l 30,0 m 17,0 l 30,0 m 18,0 l 30,0 m 18,0 l 30,0 m 18,0 l 30,0 m 18,0 l 30,0 m 17,0 l 30,0 m 18,0 l 30,0 m 18,0 l 30,0 m 18,0 l 30,0 m 18,0 l 30,0 m 17,0 l 30,0 m 18,0 l 30,0"></path>
<path class="stroke8" d="M 1875,2570 l 30,0 m 18,0 l 30,0 m 18,0 l 30,0 m 17,0 l 30,0 m 18,0 l 30,0 m 18,0 l 30,0 m 18,0 l 30,0 m 18,0 l 30,0 m 17,0 l 19,0 0,13 m 0,16 l 0,28 m 0,16 l 0,27 m 0,16 l 0,28 m 0,16 l 0,27 m 0,16 l 0,15 -15,0 m -17,0 l -30,0 m -18,0 l -30,0 m -18,0 l -30,0 m -18,0 l -30,0 m -18,0 l -30,0 m -17,0 l -30,0 m -18,0 l -30,0 m -18,0 l -30,0 m -18,0 l -30,0 m -18,0 l -30,0 m -17,0 l -30,0 m -18,0 l -30,0 m -18,0 l -30,0 m -18,0 l -30,0 m -18,0 l -30,0 m -17,0 l -30,0 m -18,0 l -30,0 m -18,0 l -30,0 m -18,0 l -30,0"></path>
<path class="stroke8" d="M 1335,2788 l -30,0 m -17,0 l -30,0 m -18,0 l -30,0 m -18,0 l -30,0 m -18,0 l -30,0 m -18,0 l -30,0 m -17,0 l -30,0 m -18,0 l -30,0 m -18,0 l -30,0 m -18,0 l -30,0 m -18,0 l -30,0 m -17,0 l -30,0 m -18,0 l -30,0 m -18,0 l -30,0 m -18,0 l -30,0 m -18,0 l -30,0 m -17,0 l -30,0 m -18,0 l -30,0 m -18,0 l -30,0 m -18,0 l -30,0 m -18,0 l -30,0 m -17,0 l -19,0 0,-13 m 0,-16 l 0,-28 m 0,-16 l 0,-27 m 0,-16 l 0,-28 m 0,-16 l 0,-27 m 0,-16 l 0,-15"></path>
<path class="stroke4" d="M 762,2556 l 30,0 m 14,0 l 31,0 m 14,0 l 30,0 m 14,0 l 31,0 m 14,0 l 30,0 m 15,0 l 30,0 m 14,0 l 31,0 m 14,0 l 30,0 m 14,0 l 31,0 m 14,0 l 30,0 m 15,0 l 30,0 m 14,0 l 31,0 m 14,0 l 30,0 m 14,0 l 31,0 m 14,0 l 30,0 m 15,0 l 30,0 m 14,0 l 31,0 m 14,0 l 30,0 m 14,0 l 31,0 m 14,0 l 30,0 m 15,0 l 30,0 m 14,0 l 31,0 m 14,0 l 30,0 m 14,0 l 31,0 m 14,0 l 30,0 m 15,0 l 30,0 m 14,0 l 31,0 m 14,0 l 30,0 m 14,0 l 31,0"></path>
</g>
</svg>
</g></svg>