<svg data-v-f35fd5a0="" xmlns="http://www.w3.org/2000/svg" xmlns:xlink="http://www.w3.org/1999/xlink" xmlns:ev="http://www.w3.org/2001/xml-events" style="overflow: hidden; width: 100%; min-height: 100vh;"><g id="viewport-20201011234840215" class="svg-pan-zoom_viewport" transform="matrix(0.5851200435991281,0,0,0.5851200435991281,182.44328822348785,392.2696228097252)" style="transform: matrix(0.58512, 0, 0, 0.58512, 182.443, 392.27);"><!--?xml version="1.0" encoding="UTF-8"?--> 
<!--?xml-stylesheet href="../../styles/svg.css" type="text/css"?--> 
<svg xmlns="http://www.w3.org/2000/svg" id="svgid" xml:space="preserve" viewBox="37 607 2221 2634" preserveAspectRatio="xMinYMin meet" zoomAndPan="magnify" version="1.0" width="100%" height="100%" contentscripttype="text/ecmascript" contentstyletype="text/css" xmlns:xlink="http://www.w3.org/1999/xlink">
<title>Schaltplan Viewer - Copyright BMW AG 2007</title>
<style xml:space="preserve" type="text/css">path {fill-rule:evenodd; stroke-linecap:round; stroke-linejoin:round}
rect {stroke-linejoin:miter}
text.t1 {font-family:'Courier SWA',monospace;font-size:31;fill:#000000}
path.white {fill:#FFFFFF;stroke:none}
path.black {fill:#000000;stroke:none}
path.stroke3 {fill:none;stroke:#000000;stroke-width:3}
path.stroke4 {fill:none;stroke:#000000;stroke-width:4}
path.stroke5 {fill:none;stroke:#000000;stroke-width:5}
path.stroke6 {fill:none;stroke:#000000;stroke-width:6}
path.stroke7 {fill:none;stroke:#000000;stroke-width:7 }
path.stroke8 {fill:none;stroke:#000000;stroke-width:8 }
path.stroke9 {fill:none;stroke:#000000;stroke-width:9 }
path.stroke10 {fill:none;stroke:#000000;stroke-width:10 }
path.stroke11 {fill:none;stroke:#000000;stroke-width:11}
path.stroke14 {fill:none;stroke:#000000;stroke-width:14}</style>
<desc>customer: BMW
date: 24.07.2007
time: 12:07:03
language: British engl
project: E65
version: 1.0</desc>
<g id="gid">
<text class="t1"></text>
<path style="fill:#DFDFDF;stroke:none" d="M 640,934 l 327,0 0,218 -327,0 0,-218 z"></path>
<path class="stroke8" d="M 640,934 l 14,0 m 18,0 l 29,0 m 17,0 l 29,0 m 18,0 l 29,0 m 17,0 l 30,0 m 17,0 l 29,0 m 18,0 l 29,0 m 17,0 l 16,0 0,13 m 0,16 l 0,28 m 0,16 l 0,27 m 0,16 l 0,28 m 0,16 l 0,27 m 0,16 l 0,15 -14,0 m -18,0 l -29,0 m -17,0 l -29,0 m -18,0 l -29,0 m -17,0 l -30,0 m -17,0 l -29,0 m -18,0 l -29,0 m -17,0 l -16,0 0,-13 m 0,-16 l 0,-28 m 0,-16 l 0,-27 m 0,-16 l 0,-28 m 0,-16 l 0,-27 m 0,-16 l 0,-15"></path>
<path style="fill:#DFDFDF;stroke:none" d="M 531,825 l 655,0 0,436 -655,0 0,-436 z"></path>
<path class="stroke8" d="M 531,825 l 14,0 m 18,0 l 29,0 m 17,0 l 30,0 m 17,0 l 29,0 m 18,0 l 29,0 m 17,0 l 30,0 m 17,0 l 29,0 m 18,0 l 29,0 m 18,0 l 29,0 m 17,0 l 29,0 m 18,0 l 29,0 m 18,0 l 29,0 m 17,0 l 30,0 m 17,0 l 29,0 m 18,0 l 16,0 0,15 m 0,18 l 0,30 m 0,18 l 0,30 m 0,18 l 0,31 m 0,18 l 0,30 m 0,18 l 0,30 m 0,18 l 0,30 m 0,19 l 0,30 m 0,18 l 0,30 m 0,18 l 0,17 -14,0 m -18,0 l -29,0 m -17,0 l -30,0 m -17,0 l -29,0 m -18,0 l -29,0 m -17,0 l -30,0 m -17,0 l -29,0 m -18,0 l -29,0 m -18,0 l -29,0 m -17,0 l -29,0"></path>
<path class="stroke8" d="M 734,1261 l -29,0 m -18,0 l -29,0 m -17,0 l -30,0 m -17,0 l -29,0 m -18,0 l -16,0 0,-15 m 0,-18 l 0,-30 m 0,-18 l 0,-30 m 0,-18 l 0,-31 m 0,-18 l 0,-30 m 0,-18 l 0,-30 m 0,-18 l 0,-30 m 0,-19 l 0,-30 m 0,-18 l 0,-30 m 0,-18 l 0,-17"></path>
<path style="fill:#DFDFDF;stroke:none" d="M 640,1916 l 327,0 0,218 -327,0 0,-218 z"></path>
<path class="stroke8" d="M 640,1916 l 327,0 0,218 -327,0 0,-218"></path>
<path style="fill:#DFDFDF;stroke:none" d="M 640,2570 l 327,0 0,327 -327,0 0,-327 z"></path>
<path class="stroke8" d="M 640,2570 l 14,0 m 18,0 l 29,0 m 17,0 l 29,0 m 18,0 l 29,0 m 17,0 l 30,0 m 17,0 l 29,0 m 18,0 l 29,0 m 17,0 l 16,0 0,14 m 0,18 l 0,29 m 0,17 l 0,29 m 0,18 l 0,29 m 0,17 l 0,30 m 0,17 l 0,29 m 0,18 l 0,29 m 0,17 l 0,16 -14,0 m -18,0 l -29,0 m -17,0 l -29,0 m -18,0 l -29,0 m -17,0 l -30,0 m -17,0 l -29,0 m -18,0 l -29,0 m -17,0 l -16,0 0,-14 m 0,-18 l 0,-29 m 0,-17 l 0,-29 m 0,-18 l 0,-29 m 0,-17 l 0,-30 m 0,-17 l 0,-29 m 0,-18 l 0,-29 m 0,-17 l 0,-16"></path>
<path style="fill:none;stroke:#000000;stroke-width:15" d="M 749,2161 l 0,382 m 0,-1254 l 0,599 m 164,-409 l -164,0"></path>
<path class="stroke4" d="M 913,1497 l 40,-18 -40,-19 0,37 m 0,-25 l 24,0 m -24,4 l 31,0 m -31,3 l 40,0 m -40,4 l 31,0 m -31,4 l 23,0 m -23,3 l 15,0 m -15,4 l 7,0 m -7,-26 l 16,0 m -16,-3 l 9,0 m -9,-4 l 2,0"></path>
<path class="white" d="M 746,1463 l -1,1 -2,0 -1,1 -1,0 -6,6 0,1 -1,1 0,2 -1,1 0,7 1,1 0,2 1,1 0,1 6,6 1,0 1,1 2,0 1,1 7,0 1,-1 2,0 1,-1 1,0 6,-6 0,-1 1,-1 0,-2 1,-1 0,-7 -1,-1 0,-2 -1,-1 0,-1 -6,-6 -1,0 -1,-1 -2,0 -1,-1 -7,0 z"></path>
<path class="stroke4" d="M 749,1472 l -2,0 -2,2 -1,0 0,1 -2,2 0,5 1,1 0,1 2,2 1,0 1,1 5,0 1,-1 1,0 2,-2 0,-1 1,-1 0,-5 -2,-2 0,-1 -1,0 -2,-2 -2,0 m -6,3 l 10,0 m -11,2 l 13,0 m -14,1 l 14,0 m -14,2 l 15,0 m -14,2 l 13,0 m -12,2 l 11,0 m -9,2 l 7,0 m -7,-13 l 7,0"></path>
<text class="t2"><tspan x="1006" y="966"><a xmlns:xlink="http://www.w3.org/1999/xlink" xlink:type="simple" xlink:show="replace" xlink:actuate="onRequest" xlink:href="javascript:locateTree('F11');">F11</a>
</tspan>

<tspan x="815" y="1089">20A</tspan>

<tspan x="788" y="1645">U_HR&lt;11</tspan>

<tspan x="788" y="1700">0.5</tspan>

<tspan x="788" y="1743">OR</tspan>
</text>
<path class="stroke4" d="M 766,1012 l -33,0 0,96 33,0 0,-96 m -17,140 l 0,-140 m -7,-15 l 15,0 m -16,3 l 17,0 m -18,2 l 19,0 m -19,3 l 19,0 m -19,2 l 18,0 m -16,3 l 15,0 m -12,-15 l 9,0 m 1,17 l 4,-4 0,-2 1,-1 0,-3 -1,-1 0,-2 -4,-4 -1,0 -1,-1 -6,0 -1,1 -1,0 -1,1 -1,0 -2,2 0,1 -1,1 0,1 -1,1 0,4 1,1 0,2 1,1 3,2"></path>
<text class="t2"><tspan x="730" y="980">87</tspan>
</text>
<path class="stroke4" d="M 749,1152 l 0,109"></path>
<text class="t3"><tspan x="1224" y="834">.</tspan>
</text>
<text class="t2"><tspan x="1224" y="870"><a xmlns:xlink="http://www.w3.org/1999/xlink" xlink:type="simple" xlink:show="replace" xlink:actuate="onRequest" xlink:href="javascript:locateTree('A4010');">A4010</a>
</tspan>
</text>
<text class="t2"><tspan x="1224" y="939">Junction box</tspan>
</text>
<path class="white" d="M 736,1261 l 27,0 0,28 -27,0 0,-28 z"></path>
<path class="black" d="M 748,1262 l 2,0 0,11 -2,0 0,-11 z"></path>
<path class="stroke4" d="M 748,1262 l 2,0 0,11 -2,0 0,-11"></path>
<path class="stroke6" d="M 762,1275 l 0,3 -1,1 0,2 -6,6 -2,0 -1,1 -6,0 -1,-1 -2,0 -6,-6 0,-2 -1,-1 0,-3"></path>
<text class="t2"><tspan x="788" y="1321"><a xmlns:xlink="http://www.w3.org/1999/xlink" xlink:type="simple" xlink:show="replace" xlink:actuate="onRequest" xlink:href="javascript:locateTree('X11002');">X11002</a>
</tspan>

<tspan x="688" y="1321">1</tspan>
</text>
<path class="stroke8" d="M 640,934 l 14,0 m 18,0 l 29,0 m 17,0 l 29,0 m 18,0 l 29,0 m 17,0 l 30,0 m 17,0 l 29,0 m 18,0 l 29,0 m 17,0 l 16,0 0,13 m 0,16 l 0,28 m 0,16 l 0,27 m 0,16 l 0,28 m 0,16 l 0,27 m 0,16 l 0,15 -14,0 m -18,0 l -29,0 m -17,0 l -29,0 m -18,0 l -29,0 m -17,0 l -30,0 m -17,0 l -29,0 m -18,0 l -29,0 m -17,0 l -16,0 0,-13 m 0,-16 l 0,-28 m 0,-16 l 0,-27 m 0,-16 l 0,-28 m 0,-16 l 0,-27 m 0,-16 l 0,-15 m -109,-109 l 14,0 m 18,0 l 29,0 m 17,0 l 30,0 m 17,0 l 29,0 m 18,0 l 29,0 m 17,0 l 30,0 m 17,0 l 29,0 m 18,0 l 29,0"></path>
<path class="stroke8" d="M 890,825 l 29,0 m 17,0 l 29,0 m 18,0 l 29,0 m 18,0 l 29,0 m 17,0 l 30,0 m 17,0 l 29,0 m 18,0 l 16,0 0,15 m 0,18 l 0,30 m 0,18 l 0,30 m 0,18 l 0,31 m 0,18 l 0,30 m 0,18 l 0,30 m 0,18 l 0,30 m 0,19 l 0,30 m 0,18 l 0,30 m 0,18 l 0,17 -14,0 m -18,0 l -29,0 m -17,0 l -30,0 m -17,0 l -29,0 m -18,0 l -29,0 m -17,0 l -30,0 m -17,0 l -29,0 m -18,0 l -29,0 m -18,0 l -29,0 m -17,0 l -29,0 m -18,0 l -29,0 m -18,0 l -29,0 m -17,0 l -30,0 m -17,0 l -29,0 m -18,0 l -16,0 0,-15 m 0,-18 l 0,-30 m 0,-18 l 0,-30 m 0,-18 l 0,-31"></path>
<path class="stroke8" d="M 531,1083 l 0,-30 m 0,-18 l 0,-30 m 0,-18 l 0,-30 m 0,-19 l 0,-30 m 0,-18 l 0,-30 m 0,-18 l 0,-17"></path>
<path class="white" d="M 763,1916 l -27,0 0,-28 27,0 0,28 z"></path>
<path class="black" d="M 750,1915 l -2,0 0,-11 2,0 0,11 z"></path>
<path class="stroke4" d="M 750,1915 l -2,0 0,-11 2,0 0,11"></path>
<path class="stroke6" d="M 736,1902 l 0,-3 1,-1 0,-2 6,-6 2,0 1,-1 6,0 1,1 2,0 6,6 0,2 1,1 0,3"></path>
<text class="t2"><tspan x="788" y="1880"><a xmlns:xlink="http://www.w3.org/1999/xlink" xlink:type="simple" xlink:show="replace" xlink:actuate="onRequest" xlink:href="javascript:locateTree('X6120');">X6120</a>
</tspan>

<tspan x="688" y="1880">1</tspan>
</text>
<text class="t3"><tspan x="1006" y="2579">.</tspan>
</text>
<text class="t2"><tspan x="1006" y="2615"><a xmlns:xlink="http://www.w3.org/1999/xlink" xlink:type="simple" xlink:show="replace" xlink:actuate="onRequest" xlink:href="javascript:locateTree('A6000');">A6000</a>
</tspan>
</text>
<text class="t2"><tspan x="1006" y="2684">DME control unit</tspan>
</text>
<text class="t3"><tspan x="1006" y="1925">.</tspan>
</text>
<text class="t2"><tspan x="1006" y="1961"><a xmlns:xlink="http://www.w3.org/1999/xlink" xlink:type="simple" xlink:show="replace" xlink:actuate="onRequest" xlink:href="javascript:locateTree('Y6120');">Y6120</a>
</tspan>
</text>
<text class="t2"><tspan x="1006" y="2030">Fuel tank vent</tspan>

<tspan x="1006" y="2074">valve</tspan>
</text>
<path class="white" d="M 736,2134 l 27,0 0,27 -27,0 0,-27 z"></path>
<path class="black" d="M 748,2134 l 2,0 0,11 -2,0 0,-11 z"></path>
<path class="stroke4" d="M 748,2134 l 2,0 0,11 -2,0 0,-11"></path>
<path class="stroke6" d="M 762,2147 l 0,3 -1,1 0,2 -1,1 0,1 -4,4 -1,0 -1,1 -1,0 -1,1 -6,0 -1,-1 -1,0 -1,-1 -1,0 -4,-4 0,-1 -1,-1 0,-2 -1,-1 0,-3"></path>
<text class="t2"><tspan x="788" y="2193"><a xmlns:xlink="http://www.w3.org/1999/xlink" xlink:type="simple" xlink:show="replace" xlink:actuate="onRequest" xlink:href="javascript:locateTree('X6120');">X6120</a>
</tspan>

<tspan x="688" y="2193">2</tspan>
</text>
<path class="stroke8" d="M 640,1916 l 327,0 0,218 -327,0 0,-218"></path>
<path class="stroke4" d="M 870,2632 l -4,0 -1,1 -3,0 -1,1 -2,0 -1,1 -1,0 -1,1 -1,0 -2,2 -1,0 -6,6 0,1 -2,2 0,1 -1,1 0,1 -1,1 0,2 -1,1 0,3 -1,1 0,10 1,1 0,2 1,1 0,2 1,1 0,1 1,1 0,1 2,2 0,1 6,6 1,0 2,2 1,0 1,1 1,0 1,1 2,0 1,1 2,0 1,1 11,0 1,-1 2,0 1,-1 2,0 1,-1 1,0 1,-1 1,0 2,-2 1,0 6,-6 0,-1 2,-2 0,-1 1,-1 0,-1 1,-1 0,-2 1,-1 0,-2 1,-1 0,-10 -1,-1 0,-3 -1,-1 0,-2 -1,-1 0,-1 -1,-1 0,-1 -2,-2 0,-1 -6,-6 -1,0 -2,-2 -1,0 -1,-1 -1,0 -1,-1 -2,0 -1,-1 -3,0 -1,-1 -4,0 m -40,68 l 79,0 0,-76 -79,0 0,76 m 39,-32 l 0,24 m -20,-24 l 41,0 m -45,-21 l  12,21 m 38,-21 l -13,21 m -26,-2 l -8,-7 6,-4 2,11"></path>
<path class="white" d="M 763,2570 l -27,0 0,-27 27,0 0,27 z"></path>
<path class="black" d="M 750,2570 l -1,0 0,-11 1,0 0,11 z"></path>
<path class="stroke4" d="M 750,2570 l -1,0 0,-11 1,0 0,11"></path>
<path class="stroke6" d="M 736,2556 l 0,-3 1,-1 0,-2 6,-6 2,0 1,-1 6,0 1,1 2,0 6,6 0,2 1,1 0,3"></path>
<text class="t2"><tspan x="788" y="2327">T_TEV</tspan>

<tspan x="788" y="2381">0.5</tspan>

<tspan x="788" y="2425">WS/BL</tspan>

<tspan x="665" y="2534">23</tspan>

<tspan x="788" y="2534"><a xmlns:xlink="http://www.w3.org/1999/xlink" xlink:type="simple" xlink:show="replace" xlink:actuate="onRequest" xlink:href="javascript:locateTree('X60005');">X60005</a>
</tspan>
</text>
<path class="stroke4" d="M 806,2055 l 35,-61 -34,0 m 0,62 l 34,0 -35,-62 m -19,29 l 36,0 m -37,-14 l -64,0 0,30 64,0 0,-30 m -25,0 l -20,29 m 8,-122 l 0,93 m 0,30 l 0,95 m 131,698 l 2,0 1,-1 1,0 1,-1 0,-1 1,-1 0,-3 -1,-1 0,-1 -1,-1 -1,0 -1,-1 -4,0 -1,1 -1,0 -1,1 0,1 -1,1 0,3 1,1 0,1 1,1 1,0 1,1 1,0 m 7,-5 l -12,0 m 1,-3 l 10,0 m -10,5 l 9,0"></path>
<text class="t2"><tspan x="802" y="2842">31</tspan>
</text>
<path class="stroke4" d="M 869,2835 l 22,0 m -142,-265 l 0,59 m -10,0 l 21,0 0,85 -21,0 0,-85 m 6,140 l 0,5 1,1 0,3 1,1 0,2 1,1 0,1 1,1 0,1 2,2 0,1 6,6 1,0 2,2 1,0 1,1 1,0 1,1 2,0 1,1 3,0 1,1 10,0 1,-1 2,0 1,-1 2,0 1,-1 1,0 1,-1 1,0 2,-2 1,0 6,-6 0,-1 2,-2 0,-1 1,-1 0,-1 1,-1 0,-2 1,-1 0,-2 1,-1 0,-11 -1,-1 0,-2 -1,-1 0,-2 -1,-1 0,-1 -1,-1 0,-1 -2,-2 0,-1 -6,-6 -1,0 -2,-2 -1,0 -1,-1 -1,0 -1,-1 -2,0 -1,-1 -2,0 -1,-1 -10,0 -1,1 -3,0 -1,1 -2,0 -1,1 -1,0 -1,1 -1,0 -2,2 -1,0 -6,6 0,1 -2,2 0,1 -1,1 0,1 -1,1 0,2 -1,1 0,3 -1,1 0,3 m 4,-54 l  0,40 m 6,22 l 41,0 m -45,-22 l 12,22 m 37,-21 l -2,11 -7,-4 9,-7 m -23,21 l 0,60 m 11,-60 l 13,-22 79,0 0,67 m -131,-213 l 2,0 1,-1 1,0 1,-1 0,-1 1,-1 0,-3 -1,-1 0,-1 -1,-1 -1,0 -1,-1 -3,0 -1,1 -1,0 -1,1 0,1 -1,1 0,3 1,1 0,1 1,1 1,0 1,1 m 49,-5 l 24,0 -24,10 0,-21 24,11 m -24,-4 l 16,0 m -16,-4 l 9,0 m -9,11 l 15,0 m -15,4 l 7,0 m -60,-7 l 64,0 m -63,-3 l 9,0 m -9,5 l 9,0"></path>
<path class="stroke8" d="M 640,2570 l 14,0 m 18,0 l 29,0 m 17,0 l 29,0 m 18,0 l 29,0 m 17,0 l 30,0 m 17,0 l 29,0 m 18,0 l 29,0 m 17,0 l 16,0 0,14 m 0,18 l 0,29 m 0,17 l 0,29 m 0,18 l 0,29 m 0,17 l 0,30 m 0,17 l 0,29 m 0,18 l 0,29 m 0,17 l 0,16 -14,0 m -18,0 l -29,0 m -17,0 l -29,0 m -18,0 l -29,0 m -17,0 l -30,0 m -17,0 l -29,0 m -18,0 l -29,0 m -17,0 l -16,0 0,-14 m 0,-18 l 0,-29 m 0,-17 l 0,-29 m 0,-18 l 0,-29 m 0,-17 l 0,-30 m 0,-17 l 0,-29 m 0,-18 l 0,-29 m 0,-17 l 0,-16"></path>
</g>
</svg>
</g></svg>