<svg data-v-f35fd5a0="" xmlns="http://www.w3.org/2000/svg" xmlns:xlink="http://www.w3.org/1999/xlink" xmlns:ev="http://www.w3.org/2001/xml-events" style="overflow: hidden; width: 100%; min-height: 100vh;"><g id="viewport-20201011234233428" class="svg-pan-zoom_viewport" transform="matrix(0.5838494728854384,0,0,0.5838494728854384,194.2249669895205,328.3453120444231)" style="transform: matrix(0.583849, 0, 0, 0.583849, 194.225, 328.345);"><!--?xml version="1.0" encoding="UTF-8"?--> 
<!--?xml-stylesheet href="../../styles/svg.css" type="text/css"?--> 
<svg xmlns="http://www.w3.org/2000/svg" id="svgid" xml:space="preserve" viewBox="37 607 4184 3070" preserveAspectRatio="xMinYMin meet" zoomAndPan="magnify" version="1.0" width="100%" height="100%" contentscripttype="text/ecmascript" contentstyletype="text/css" xmlns:xlink="http://www.w3.org/1999/xlink">
<title>Schaltplan Viewer - Copyright BMW AG 2007</title>
<style xml:space="preserve" type="text/css">path {fill-rule:evenodd; stroke-linecap:round; stroke-linejoin:round}
rect {stroke-linejoin:miter}
text.t1 {font-family:'Courier SWA',monospace;font-size:31;fill:#000000}
path.white {fill:#FFFFFF;stroke:none}
path.black {fill:#000000;stroke:none}
path.stroke3 {fill:none;stroke:#000000;stroke-width:3}
path.stroke4 {fill:none;stroke:#000000;stroke-width:4}
path.stroke5 {fill:none;stroke:#000000;stroke-width:5}
path.stroke6 {fill:none;stroke:#000000;stroke-width:6}
path.stroke7 {fill:none;stroke:#000000;stroke-width:7 }
path.stroke8 {fill:none;stroke:#000000;stroke-width:8 }
path.stroke9 {fill:none;stroke:#000000;stroke-width:9 }
path.stroke10 {fill:none;stroke:#000000;stroke-width:10 }
path.stroke11 {fill:none;stroke:#000000;stroke-width:11}
path.stroke14 {fill:none;stroke:#000000;stroke-width:14}</style>
<desc>customer: BMW
date: 24.07.2007
time: 12:07:03
language: British engl
project: E65
version: 1.0</desc>
<g id="gid">
<text class="t1"></text>
<path style="fill:#DFDFDF;stroke:none" d="M 313,1370 l 327,0 0,218 -327,0 0,-218 z"></path>
<path class="stroke8" d="M 313,1370 l 14,0 m 18,0 l 29,0 m 17,0 l 29,0 m 18,0 l 29,0 m 17,0 l 30,0 m 17,0 l 29,0 m 18,0 l 29,0 m 17,0 l 16,0 0,13 m 0,16 l 0,28 m 0,16 l 0,27 m 0,16 l 0,28 m 0,16 l 0,27 m 0,16 l 0,15 -14,0 m -18,0 l -29,0 m -17,0 l -29,0 m -18,0 l -29,0 m -17,0 l -30,0 m -17,0 l -29,0 m -18,0 l -29,0 m -17,0 l -16,0 0,-13 m 0,-16 l 0,-28 m 0,-16 l 0,-27 m 0,-16 l 0,-28 m 0,-16 l 0,-27 m 0,-16 l 0,-15"></path>
<path style="fill:#DFDFDF;stroke:none" d="M 1186,1370 l 327,0 0,218 -327,0 0,-218 z"></path>
<path class="stroke8" d="M 1186,1370 l 14,0 m 18,0 l 29,0 m 17,0 l 29,0 m 18,0 l 29,0 m 17,0 l 30,0 m 17,0 l 29,0 m 18,0 l 29,0 m 17,0 l 16,0 0,13 m 0,16 l 0,28 m 0,16 l 0,27 m 0,16 l 0,28 m 0,16 l 0,27 m 0,16 l 0,15 -14,0 m -18,0 l -29,0 m -17,0 l -29,0 m -18,0 l -29,0 m -17,0 l -30,0 m -17,0 l -29,0 m -18,0 l -29,0 m -17,0 l -16,0 0,-13 m 0,-16 l 0,-28 m 0,-16 l 0,-27 m 0,-16 l 0,-28 m 0,-16 l 0,-27 m 0,-16 l 0,-15"></path>
<path style="fill:#DFDFDF;stroke:none" d="M 749,1043 l 764,0 0,218 -764,0 0,-218 z"></path>
<path class="stroke8" d="M 749,1043 l 14,0 m 18,0 l 30,0 m 18,0 l 30,0 m 18,0 l 30,0 m 17,0 l 30,0 m 18,0 l 30,0 m 18,0 l 30,0 m 18,0 l 29,0 m 18,0 l 30,0 m 18,0 l 30,0 m 18,0 l 29,0 m 18,0 l 30,0 m 18,0 l 30,0 m 18,0 l 30,0 m 17,0 l 30,0 m 18,0 l 30,0 m 18,0 l 16,0 0,13 m 0,16 l 0,28 m 0,16 l 0,27 m 0,16 l 0,28 m 0,16 l 0,27 m 0,16 l 0,15 -14,0 m -18,0 l -30,0 m -18,0 l -30,0 m -18,0 l -30,0 m -17,0 l -30,0 m -18,0 l -30,0 m -18,0 l -30,0 m -18,0 l -29,0 m -18,0 l -30,0 m -18,0 l -30,0 m -18,0 l -29,0 m -18,0 l -30,0"></path>
<path class="stroke8" d="M 956,1261 l -30,0 m -18,0 l -30,0 m -17,0 l -30,0 m -18,0 l -30,0 m -18,0 l -16,0 0,-13 m 0,-16 l 0,-28 m 0,-16 l 0,-27 m 0,-16 l 0,-28 m 0,-16 l 0,-27 m 0,-16 l 0,-15"></path>
<path style="fill:#DFDFDF;stroke:none" d="M 204,825 l 1527,0 0,873 -1527,0 0,-873 z"></path>
<path class="stroke8" d="M 204,825 l 14,0 m 18,0 l 30,0 m 18,0 l 30,0 m 17,0 l 30,0 m 18,0 l 30,0 m 18,0 l 29,0 m 18,0 l 30,0 m 18,0 l 30,0 m 17,0 l 30,0 m 18,0 l 30,0 m 18,0 l 29,0 m 18,0 l 30,0 m 18,0 l 30,0 m 17,0 l 30,0 m 18,0 l 30,0 m 18,0 l 29,0 m 18,0 l 30,0 m 18,0 l 30,0 m 17,0 l 30,0 m 18,0 l 30,0 m 18,0 l 29,0 m 18,0 l 30,0 m 18,0 l 30,0 m 17,0 l 30,0 m 18,0 l 30,0 m 18,0 l 29,0 m 18,0 l 30,0 m 18,0 l 30,0 m 17,0 l 30,0 m 18,0 l 30,0 m 18,0 l 29,0 m 18,0 l 30,0 m 18,0 l 19,0 0,15"></path>
<path class="stroke8" d="M 1731,858 l 0,30 m 0,18 l 0,31 m 0,18 l 0,30 m 0,18 l 0,30 m 0,18 l 0,31 m 0,18 l 0,30 m 0,18 l 0,31 m 0,18 l 0,30 m 0,18 l 0,30 m 0,18 l 0,31 m 0,18 l 0,30 m 0,18 l 0,31 m 0,18 l 0,30 m 0,18 l 0,30 m 0,18 l 0,31 m 0,18 l 0,30 m 0,18 l 0,31 m 0,18 l 0,17 -14,0 m -18,0 l -30,0 m -18,0 l -30,0 m -17,0 l -30,0 m -18,0 l -30,0 m -18,0 l -29,0 m -18,0 l -30,0 m -18,0 l -30,0 m -17,0 l -30,0 m -18,0 l -30,0 m -18,0 l -29,0 m -18,0 l -30,0 m -18,0 l -30,0 m -17,0 l -30,0 m -18,0 l -30,0 m -18,0 l -29,0"></path>
<path class="stroke8" d="M 985,1698 l -30,0 m -18,0 l -30,0 m -17,0 l -30,0 m -18,0 l -30,0 m -18,0 l -29,0 m -18,0 l -30,0 m -18,0 l -30,0 m -17,0 l -30,0 m -18,0 l -30,0 m -18,0 l -29,0 m -18,0 l -30,0 m -18,0 l -30,0 m -17,0 l -30,0 m -18,0 l -30,0 m -18,0 l -29,0 m -18,0 l -30,0 m -18,0 l -19,0 0,-15 m 0,-18 l 0,-30 m 0,-18 l 0,-31 m 0,-18 l 0,-30 m 0,-18 l 0,-30 m 0,-18 l 0,-31 m 0,-18 l 0,-30 m 0,-18 l 0,-31 m 0,-18 l 0,-30 m 0,-18 l 0,-30 m 0,-18 l 0,-31 m 0,-18 l 0,-30 m 0,-18 l 0,-31 m 0,-18 l 0,-30 m 0,-18 l 0,-30 m 0,-18 l 0,-31 m 0,-18 l 0,-30"></path>
<path class="stroke8" d="M 204,891 l 0,-31 m 0,-18 l 0,-17"></path>
<path style="fill:#DFDFDF;stroke:none" d="M 313,2570 l 2836,0 0,327 -2836,0 0,-327 z"></path>
<path class="stroke8" d="M 313,2570 l 15,0 m 18,0 l 30,0 m 18,0 l 30,0 m 18,0 l 30,0 m 18,0 l 30,0 m 18,0 l 30,0 m 18,0 l 30,0 m 18,0 l 30,0 m 18,0 l 30,0 m 18,0 l 30,0 m 18,0 l 30,0 m 18,0 l 30,0 m 18,0 l 30,0 m 18,0 l 30,0 m 18,0 l 30,0 m 18,0 l 30,0 m 18,0 l 30,0 m 18,0 l 30,0 m 18,0 l 30,0 m 18,0 l 30,0 m 18,0 l 30,0 m 18,0 l 30,0 m 18,0 l 30,0 m 18,0 l 30,0 m 18,0 l 30,0 m 18,0 l 30,0 m 18,0 l 30,0 m 18,0 l 30,0 m 18,0 l 30,0 m 18,0 l 30,0 m 18,0 l 30,0 m 18,0 l 30,0 m 18,0 l 30,0"></path>
<path class="stroke8" d="M 1882,2570 l 30,0 m 18,0 l 30,0 m 18,0 l 30,0 m 18,0 l 30,0 m 18,0 l 30,0 m 18,0 l 30,0 m 18,0 l 30,0 m 18,0 l 30,0 m 18,0 l 30,0 m 18,0 l 30,0 m 18,0 l 30,0 m 18,0 l 30,0 m 18,0 l 30,0 m 18,0 l 30,0 m 18,0 l 30,0 m 18,0 l 30,0 m 18,0 l 30,0 m 18,0 l 30,0 m 18,0 l 30,0 m 18,0 l 30,0 m 18,0 l 30,0 m 18,0 l 30,0 m 18,0 l 30,0 m 18,0 l 30,0 m 18,0 l 30,0 m 18,0 l 30,0 m 18,0 l 19,0 0,14 m 0,18 l 0,29 m 0,17 l 0,29 m 0,18 l 0,29 m 0,17 l 0,30 m 0,17 l 0,29 m 0,18 l 0,29"></path>
<path class="stroke8" d="M 3149,2881 l 0,16 -15,0 m -18,0 l -30,0 m -18,0 l -30,0 m -18,0 l -30,0 m -18,0 l -30,0 m -18,0 l -30,0 m -18,0 l -30,0 m -18,0 l -30,0 m -18,0 l -30,0 m -18,0 l -30,0 m -18,0 l -30,0 m -18,0 l -30,0 m -18,0 l -30,0 m -18,0 l -30,0 m -18,0 l -30,0 m -18,0 l -30,0 m -18,0 l -30,0 m -18,0 l -30,0 m -18,0 l -30,0 m -18,0 l -30,0 m -18,0 l -30,0 m -18,0 l -30,0 m -18,0 l -30,0 m -18,0 l -30,0 m -18,0 l -30,0 m -18,0 l -30,0 m -18,0 l -30,0 m -18,0 l -30,0 m -18,0 l -30,0 m -18,0 l -30,0 m -18,0 l -30,0 m -18,0 l -30,0 m -18,0 l -30,0"></path>
<path class="stroke8" d="M 1580,2897 l -30,0 m -18,0 l -30,0 m -18,0 l -30,0 m -18,0 l -30,0 m -18,0 l -30,0 m -18,0 l -30,0 m -18,0 l -30,0 m -18,0 l -30,0 m -18,0 l -30,0 m -18,0 l -30,0 m -18,0 l -30,0 m -18,0 l -30,0 m -18,0 l -30,0 m -18,0 l -30,0 m -18,0 l -30,0 m -18,0 l -30,0 m -18,0 l -30,0 m -18,0 l -30,0 m -18,0 l -30,0 m -18,0 l -30,0 m -18,0 l -30,0 m -18,0 l -30,0 m -18,0 l -30,0 m -18,0 l -30,0 m -18,0 l -30,0 m -18,0 l -30,0 m -18,0 l -19,0 0,-14 m 0,-18 l 0,-29 m 0,-17 l 0,-29 m 0,-18 l 0,-29 m 0,-17 l 0,-30 m 0,-17 l 0,-29 m 0,-18 l 0,-29"></path>
<path class="stroke8" d="M 313,2586 l 0,-16"></path>
<path style="fill:none;stroke:#000000;stroke-width:15" d="M 422,1725 l 0,818 m 436,-818 l 0,818 m 437,-818 l 0,818"></path>
<path class="stroke4" d="M 1308,2556 l 30,0 m 15,0 l 30,0 m 15,0 l 30,0 m 15,0 l 30,0 m 15,0 l 30,0 m 15,0 l 30,0 m 15,0 l 30,0 m 695,777 l 273,0"></path>
<path style="fill:none;stroke:#000000;stroke-width:15" d="M 2276,2924 l 0,382 m 327,-382 l 0,382 m 327,-382 l 0,382 m -981,-1172 l 0,29 m 0,25 l 0,29 m 0,25 l 0,29 m 0,25 l 0,29 m 0,25 l 0,29 m 0,25 l 0,30 m 0,24 l 0,30 m 0,24 l 0,30 m -327,-408 l 0,409"></path>
<text class="t2"><tspan x="1987" y="2300">15WUP</tspan>

<tspan x="1987" y="2354">0.5</tspan>

<tspan x="1987" y="2398">GE/GN</tspan>
</text>
<path class="white" d="M 2262,2897 l 28,0 0,27 -28,0 0,-27 z"></path>
<path class="black" d="M 2275,2897 l 2,0 0,11 -2,0 0,-11 z"></path>
<path class="stroke4" d="M 2275,2897 l 2,0 0,11 -2,0 0,-11"></path>
<path class="stroke6" d="M 2289,2911 l 0,3 -1,1 0,2 -6,6 -2,0 -1,1 -6,0 -1,-1 -2,0 -6,-6 0,-2 -1,-1 0,-3"></path>
<text class="t2"><tspan x="2215" y="2956">4</tspan>
</text>
<path class="white" d="M 2590,2897 l 27,0 0,27 -27,0 0,-27 z"></path>
<path class="black" d="M 2602,2897 l 2,0 0,11 -2,0 0,-11 z"></path>
<path class="stroke4" d="M 2602,2897 l 2,0 0,11 -2,0 0,-11"></path>
<path class="stroke6" d="M 2616,2911 l 0,3 -1,1 0,2 -6,6 -2,0 -1,1 -6,0 -1,-1 -2,0 -6,-6 0,-2 -1,-1 0,-3"></path>
<text class="t2"><tspan x="2542" y="2956">5</tspan>
</text>
<path class="stroke4" d="M 2289,2911 l 30,0 m 15,0 l 30,0 m 15,0 l 30,0 m 15,0 l 30,0 m 15,0 l 30,0 m 15,0 l 30,0 m 15,0 l 30,0"></path>
<path class="white" d="M 1636,2570 l -28,0 0,-27 28,0 0,27 z"></path>
<path class="black" d="M 1623,2570 l -2,0 0,-11 2,0 0,11 z"></path>
<path class="stroke4" d="M 1623,2570 l -2,0 0,-11 2,0 0,11"></path>
<path class="stroke6" d="M 1609,2556 l 0,-3 1,-1 0,-2 6,-6 2,0 1,-1 6,0 1,1 2,0 6,6 0,2 1,1 0,3"></path>
<text class="t2"><tspan x="1660" y="2534"><a xmlns:xlink="http://www.w3.org/1999/xlink" xlink:type="simple" xlink:show="replace" xlink:actuate="onRequest" xlink:href="javascript:locateTree('X60003');">X60003</a>
</tspan>

<tspan x="1561" y="2534">3</tspan>
</text>
<path class="stroke4" d="M 1825,2703 l -4,0 -1,1 -3,0 -1,1 -2,0 -1,1 -1,0 -1,1 -1,0 -2,2 -1,0 -6,6 0,1 -2,2 0,1 -1,1 0,1 -1,1 0,2 -1,1 0,3 -1,1 0,10 1,1 0,2 1,1 0,2 1,1 0,1 1,1 0,1 2,2 0,1 6,6 1,0 2,2 1,0 1,1 1,0 1,1 2,0 1,1 2,0 1,1 11,0 1,-1 2,0 1,-1 2,0 1,-1 1,0 1,-1 1,0 2,-2 1,0 6,-6 0,-1 2,-2 0,-1 1,-1 0,-1 1,-1 0,-2 1,-1 0,-2 1,-1 0,-10 -1,-1 0,-3 -1,-1 0,-2 -1,-1 0,-1 -1,-1 0,-1 -2,-2 0,-1 -6,-6 -1,0 -2,-2 -1,0 -1,-1 -1,0 -1,-1 -2,0 -1,-1 -3,0 -1,-1 -4,0 m -41,68 l 79,0 0,-75 -79,0 0,75 m 40,-32 l 0,25 m -21,-25 l 41,0 m -45,-21 l  12,21 m 38,-21 l -12,21 m -27,-2 l -8,-7 6,-4 3,11"></path>
<path style="fill:none;stroke:#000000;stroke-width:15" d="M 2113,2134 l -164,0"></path>
<path class="stroke4" d="M 2113,2152 l 40,-18 -40,-19 0,37 m 0,-26 l 23,0 m -23,4 l 31,0 m -31,4 l 40,0 m -40,3 l 31,0 m -31,4 l 23,0 m -23,4 l 15,0 m -15,3 l 6,0 m -6,-25 l 16,0 m -16,-4 l 8,0 m -8,-4 l 1,0"></path>
<path class="white" d="M 1945,2117 l -1,1 -1,0 -1,1 -1,0 -1,1 -1,0 -4,4 0,1 -1,1 0,1 -1,1 0,1 -1,1 0,8 1,1 0,1 1,1 0,1 1,1 0,1 4,4 1,0 1,1 1,0 1,1 1,0 1,1 8,0 1,-1 1,0 1,-1 1,0 1,-1 1,0 4,-4 0,-1 1,-1 0,-1 1,-1 0,-1 1,-1 0,-8 -1,-1 0,-1 -1,-1 0,-1 -1,-1 0,-1 -4,-4 -1,0 -1,-1 -1,0 -1,-1 -1,0 -1,-1 -8,0 z"></path>
<path class="stroke4" d="M 1949,2127 l -2,0 -1,1 -1,0 -2,2 0,1 -1,1 0,4 1,1 0,1 2,2 1,0 1,1 4,0 1,-1 1,0 2,-2 0,-1 1,-1 0,-4 -1,-1 0,-1 -2,-2 -1,0 -1,-1 -1,0 m -6,2 l 10,0 m -11,2 l 12,0 m -13,2 l 14,0 m -14,2 l 14,0 m -13,1 l 12,0 m -11,2 l 10,0 m -8,2 l 6,0 m -6,-13 l 6,0"></path>
<text class="t2"><tspan x="1987" y="2098"><a xmlns:xlink="http://www.w3.org/1999/xlink" xlink:type="simple" xlink:show="replace" xlink:actuate="onRequest" xlink:href="javascript:locateTree('X10547');">X10547</a>
</tspan>

<tspan x="2314" y="2300">PT_CAN_L</tspan>

<tspan x="2314" y="2354">0.35</tspan>

<tspan x="2314" y="2398">RT</tspan>
</text>
<path class="white" d="M 1963,2570 l -28,0 0,-27 28,0 0,27 z"></path>
<path class="black" d="M 1950,2570 l -2,0 0,-11 2,0 0,11 z"></path>
<path class="stroke4" d="M 1950,2570 l -2,0 0,-11 2,0 0,11"></path>
<path class="stroke6" d="M 1936,2556 l 0,-3 1,-1 0,-2 6,-6 2,0 1,-1 6,0 1,1 2,0 6,6 0,2 1,1 0,3"></path>
<text class="t2"><tspan x="1987" y="2534"><a xmlns:xlink="http://www.w3.org/1999/xlink" xlink:type="simple" xlink:show="replace" xlink:actuate="onRequest" xlink:href="javascript:locateTree('X60002');">X60002</a>
</tspan>

<tspan x="1888" y="2534">1</tspan>
</text>
<path style="fill:none;stroke:#000000;stroke-width:15" d="M 2440,2134 l -164,0 0,409"></path>
<path class="stroke4" d="M 2440,2152 l 40,-18 -40,-19 0,37 m 0,-26 l 23,0 m -23,4 l 31,0 m -31,4 l 40,0 m -40,3 l 31,0 m -31,4 l 23,0 m -23,4 l 15,0 m -15,3 l 7,0 m -7,-25 l 16,0 m -16,-4 l 9,0 m -9,-4 l 1,0"></path>
<path class="white" d="M 2272,2117 l -1,1 -1,0 -1,1 -1,0 -1,1 -1,0 -4,4 0,1 -1,1 0,1 -1,1 0,1 -1,1 0,8 1,1 0,1 1,1 0,1 1,1 0,1 4,4 1,0 1,1 1,0 1,1 1,0 1,1 8,0 1,-1 1,0 1,-1 1,0 1,-1 1,0 4,-4 0,-1 1,-1 0,-1 1,-1 0,-1 1,-1 0,-8 -1,-1 0,-1 -1,-1 0,-1 -1,-1 0,-1 -4,-4 -1,0 -1,-1 -1,0 -1,-1 -1,0 -1,-1 -8,0 z"></path>
<path class="stroke4" d="M 2276,2127 l -2,0 -1,1 -1,0 -2,2 0,1 -1,1 0,4 1,1 0,1 2,2 1,0 1,1 4,0 1,-1 1,0 2,-2 0,-1 1,-1 0,-4 -1,-1 0,-1 -2,-2 -1,0 -1,-1 -1,0 m -6,2 l 10,0 m -11,2 l 12,0 m -13,2 l 14,0 m -14,2 l 14,0 m -13,1 l 12,0 m -11,2 l 10,0 m -8,2 l 6,0 m -6,-13 l 6,0"></path>
<text class="t2"><tspan x="2314" y="2098"><a xmlns:xlink="http://www.w3.org/1999/xlink" xlink:type="simple" xlink:show="replace" xlink:actuate="onRequest" xlink:href="javascript:locateTree('X10546');">X10546</a>
</tspan>

<tspan x="2642" y="2300">PT_CAN_H</tspan>

<tspan x="2642" y="2354">0.35</tspan>

<tspan x="2642" y="2398">BL/RT</tspan>
</text>
<path class="white" d="M 2290,2570 l -27,0 0,-27 27,0 0,27 z"></path>
<path class="black" d="M 2277,2570 l -2,0 0,-11 2,0 0,11 z"></path>
<path class="stroke4" d="M 2277,2570 l -2,0 0,-11 2,0 0,11"></path>
<path class="stroke6" d="M 2263,2556 l 0,-3 1,-1 0,-2 6,-6 2,0 1,-1 6,0 1,1 2,0 6,6 0,2 1,1 0,3"></path>
<text class="t2"><tspan x="2215" y="2534">1</tspan>
</text>
<path style="fill:none;stroke:#000000;stroke-width:15" d="M 2767,2134 l -164,0 0,409"></path>
<path class="stroke4" d="M 2767,2152 l 40,-18 -40,-19 0,37 m 0,-26 l 24,0 m -24,4 l 31,0 m -31,4 l 40,0 m -40,3 l 31,0 m -31,4 l 23,0 m -23,4 l 15,0 m -15,3 l 7,0 m -7,-25 l 16,0 m -16,-4 l 9,0 m -9,-4 l 2,0"></path>
<path class="white" d="M 2600,2117 l -1,1 -2,0 -1,1 -1,0 -5,5 0,1 -2,2 0,2 -1,1 0,8 1,1 0,2 1,1 0,1 6,6 1,0 1,1 2,0 1,1 7,0 1,-1 2,0 1,-1 1,0 6,-6 0,-1 1,-1 0,-2 1,-1 0,-8 -1,-1 0,-2 -2,-2 0,-1 -5,-5 -1,0 -1,-1 -2,0 -1,-1 -7,0 z"></path>
<path class="stroke4" d="M 2603,2127 l -2,0 -1,1 -1,0 -2,2 0,1 -1,1 0,4 1,1 0,1 2,2 1,0 1,1 5,0 1,-1 1,0 2,-2 0,-1 1,-1 0,-4 -1,-1 0,-1 -2,-2 -1,0 -1,-1 -2,0 m -6,2 l 10,0 m -11,2 l 13,0 m -14,2 l 14,0 m -14,2 l 15,0 m -14,1 l 13,0 m -12,2 l 11,0 m -9,2 l 7,0 m -7,-13 l 7,0"></path>
<text class="t2"><tspan x="2642" y="2098"><a xmlns:xlink="http://www.w3.org/1999/xlink" xlink:type="simple" xlink:show="replace" xlink:actuate="onRequest" xlink:href="javascript:locateTree('X10545');">X10545</a>
</tspan>

<tspan x="2969" y="2300">TD</tspan>

<tspan x="2969" y="2354">0.35</tspan>

<tspan x="2969" y="2398">SW</tspan>
</text>
<path class="white" d="M 2617,2570 l -27,0 0,-27 27,0 0,27 z"></path>
<path class="black" d="M 2604,2570 l -1,0 0,-11 1,0 0,11 z"></path>
<path class="stroke4" d="M 2604,2570 l -1,0 0,-11 1,0 0,11"></path>
<path class="stroke6" d="M 2590,2556 l 0,-3 1,-1 0,-2 6,-6 2,0 1,-1 6,0 1,1 2,0 6,6 0,2 1,1 0,3"></path>
<text class="t2"><tspan x="2519" y="2534">14</tspan>
</text>
<path style="fill:none;stroke:#000000;stroke-width:15" d="M 3094,2134 l -164,0 0,409"></path>
<path class="stroke4" d="M 3094,2152 l 40,-18 -40,-19 0,37 m 0,-26 l 24,0 m -24,4 l 31,0 m -31,4 l 40,0 m -40,3 l 31,0 m -31,4 l 23,0 m -23,4 l 15,0 m -15,3 l 7,0 m -7,-25 l 16,0 m -16,-4 l 9,0 m -9,-4 l 2,0"></path>
<path class="white" d="M 2927,2117 l -1,1 -2,0 -1,1 -1,0 -5,5 0,1 -2,2 0,2 -1,1 0,8 1,1 0,2 1,1 0,1 6,6 1,0 1,1 2,0 1,1 7,0 1,-1 2,0 1,-1 1,0 6,-6 0,-1 1,-1 0,-2 1,-1 0,-8 -1,-1 0,-2 -2,-2 0,-1 -5,-5 -1,0 -1,-1 -2,0 -1,-1 -7,0 z"></path>
<path class="stroke4" d="M 2930,2127 l -2,0 -1,1 -1,0 -2,2 0,1 -1,1 0,4 1,1 0,1 2,2 1,0 1,1 5,0 1,-1 1,0 2,-2 0,-1 1,-1 0,-4 -1,-1 0,-1 -2,-2 -1,0 -1,-1 -2,0 m -6,2 l 10,0 m -10,2 l 12,0 m -13,2 l 13,0 m -14,2 l 15,0 m -14,1 l 13,0 m -12,2 l 11,0 m -8,2 l 6,0 m -7,-13 l 7,0"></path>
<text class="t2"><tspan x="2969" y="2098"><a xmlns:xlink="http://www.w3.org/1999/xlink" xlink:type="simple" xlink:show="replace" xlink:actuate="onRequest" xlink:href="javascript:locateTree('X243');">X243</a>
</tspan>

<tspan x="1660" y="2300">U_HR&lt;39</tspan>

<tspan x="1660" y="2354">1.0</tspan>

<tspan x="1660" y="2398">OR</tspan>
</text>
<path class="white" d="M 2944,2570 l -27,0 0,-27 27,0 0,27 z"></path>
<path class="black" d="M 2931,2570 l -1,0 0,-11 1,0 0,11 z"></path>
<path class="stroke4" d="M 2931,2570 l -1,0 0,-11 1,0 0,11"></path>
<path class="stroke6" d="M 2917,2556 l 0,-3 1,-1 0,-1 1,-1 0,-1 4,-4 1,0 1,-1 1,0 1,-1 7,0 1,1 1,0 1,1 1,0 4,4 0,1 1,1 0,1 1,1 0,3"></path>
<text class="t2"><tspan x="2969" y="2534"><a xmlns:xlink="http://www.w3.org/1999/xlink" xlink:type="simple" xlink:show="replace" xlink:actuate="onRequest" xlink:href="javascript:locateTree('X60001');">X60001</a>
</tspan>

<tspan x="2846" y="2534">21</tspan>
</text>
<path class="stroke4" d="M 2289,2556 l 30,0 m 15,0 l 30,0 m 15,0 l 30,0 m 15,0 l 30,0 m 15,0 l 30,0 m 15,0 l 30,0 m 15,0 l 30,0 m 27,0 l 30,0 m 15,0 l 30,0 m 15,0 l 30,0 m 15,0 l 30,0 m 15,0 l 30,0 m 15,0 l 30,0 m 15,0 l 30,0"></path>
<path class="white" d="M 872,2570 l -27,0 0,-27 27,0 0,27 z"></path>
<path class="black" d="M 859,2570 l -1,0 0,-11 1,0 0,11 z"></path>
<path class="stroke4" d="M 859,2570 l -1,0 0,-11 1,0 0,11"></path>
<path class="stroke6" d="M 845,2556 l 0,-3 1,-1 0,-1 1,-1 0,-1 4,-4 1,0 1,-1 1,0 1,-1 7,0 1,1 1,0 1,1 1,0 4,4 0,1 1,1 0,1 1,1 0,3"></path>
<text class="t2"><tspan x="897" y="2534"><a xmlns:xlink="http://www.w3.org/1999/xlink" xlink:type="simple" xlink:show="replace" xlink:actuate="onRequest" xlink:href="javascript:locateTree('X60005');">X60005</a>
</tspan>

<tspan x="774" y="2534">13</tspan>
</text>
<path class="white" d="M 436,2570 l -27,0 0,-27 27,0 0,27 z"></path>
<path class="black" d="M 423,2570 l -2,0 0,-11 2,0 0,11 z"></path>
<path class="stroke4" d="M 423,2570 l -2,0 0,-11 2,0 0,11"></path>
<path class="stroke6" d="M 409,2556 l 0,-3 1,-1 0,-2 6,-6 2,0 1,-1 6,0 1,1 2,0 6,6 0,2 1,1 0,3"></path>
<text class="t2"><tspan x="461" y="2534"><a xmlns:xlink="http://www.w3.org/1999/xlink" xlink:type="simple" xlink:show="replace" xlink:actuate="onRequest" xlink:href="javascript:locateTree('X60003');">X60003</a>
</tspan>

<tspan x="361" y="2534">1</tspan>
</text>
<path class="white" d="M 2917,2897 l 27,0 0,27 -27,0 0,-27 z"></path>
<path class="black" d="M 2930,2897 l 1,0 0,11 -1,0 0,-11 z"></path>
<path class="stroke4" d="M 2930,2897 l 1,0 0,11 -1,0 0,-11"></path>
<path class="stroke6" d="M 2944,2911 l 0,3 -1,1 0,1 -1,1 0,1 -4,4 -1,0 -1,1 -1,0 -1,1 -7,0 -1,-1 -1,0 -1,-1 -1,0 -4,-4 0,-1 -1,-1 0,-1 -1,-1 0,-3"></path>
<text class="t2"><tspan x="2969" y="2956"><a xmlns:xlink="http://www.w3.org/1999/xlink" xlink:type="simple" xlink:show="replace" xlink:actuate="onRequest" xlink:href="javascript:locateTree('X60003');">X60003</a>
</tspan>

<tspan x="2869" y="2956">6</tspan>
</text>
<text class="t3"><tspan x="3187" y="2579">.</tspan>
</text>
<text class="t2"><tspan x="3187" y="2615"><a xmlns:xlink="http://www.w3.org/1999/xlink" xlink:type="simple" xlink:show="replace" xlink:actuate="onRequest" xlink:href="javascript:locateTree('A6000');">A6000</a>
</tspan>

<tspan x="2314" y="3065">31</tspan>

<tspan x="2642" y="3065">31</tspan>

<tspan x="2969" y="3065">31</tspan>

<tspan x="2642" y="3120">2.5</tspan>

<tspan x="2314" y="3120">2.5</tspan>

<tspan x="2969" y="3120">2.5</tspan>

<tspan x="2969" y="3164">BR</tspan>

<tspan x="2642" y="3164">BR</tspan>

<tspan x="2314" y="3164">BR</tspan>
</text>
<text class="t2"><tspan x="3187" y="2684">DME control unit</tspan>
</text>
<path class="stroke4" d="M 1752,2832 l 2,0 1,-1 1,0 1,-1 0,-1 1,-1 0,-3 -1,-1 0,-1 -1,-1 -1,0 -1,-1 -3,0 -1,1 -1,0 -1,1 0,1 -1,1 0,3 1,1 0,1 1,1 1,0 1,1 m 7,-5 l -11,0 m 1,-3 l 9,0 m -9,5 l 9,0"></path>
<text class="t2"><tspan x="1674" y="2842">31</tspan>
</text>
<path class="stroke4" d="M 1741,2835 l 23,0 m -142,-265 l 0,59 m -11,0 l 21,0 0,85 -21,0 0,-85 m 7,140 l 0,5 1,1 0,3 1,1 0,2 1,1 0,1 1,1 0,1 1,1 0,1 8,8 1,0 1,1 1,0 1,1 1,0 1,1 1,0 1,1 3,0 1,1 10,0 1,-1 3,0 1,-1 1,0 1,-1 1,0 1,-1 1,0 1,-1 1,0 8,-8 0,-1 1,-1 0,-1 1,-1 0,-1 1,-1 0,-1 1,-1 0,-3 1,-1 0,-11 -1,-1 0,-3 -1,-1 0,-1 -1,-1 0,-1 -1,-1 0,-1 -1,-1 0,-1 -8,-8 -1,0 -1,-1 -1,0 -1,-1 -1,0 -1,-1 -1,0 -1,-1 -3,0 -1,-1 -10,0 -1,1 -3,0 -1,1 -1,0 -1,1 -1,0 -1,1 -1,0 -1,1 -1,0 -8,8 0,1 -1,1 0,1 -1,1 0,1 -1,1 0,2 -1,1 0,3 -1,1 0,3 m 4,-54 l  0,40 m 5,22 l 41,0 m -45,-22 l 13,22 m 36,-21 l -2,11 -6,-4 8,-7 m -23,21 l 0,60 m 12,-60 l 12,-22 79,0 0,67 m -131,-213 l 2,0 1,-1 1,0 1,-1 0,-1 1,-1 0,-3 -1,-1 0,-1 -1,-1 -1,0 -1,-1 -3,0 -1,1 -1,0 -1,1 0,1 -1,1 0,3 1,1 0,1 1,1 1,0 1,1 m 50,-5 l 23,0 -23,10 0,-21 23,11 m -23,-4 l 15,0 m -15,-4 l 8,0 m -8,11 l 14,0 m -14,4 l 6,0 m -60,-7 l 65,0 m -64,-3 l 9,0 m -9,5 l 9,0 m 453,227 l 2,0 1,-1 1,0 1,-1 0,-1 1,-1 0,-3 -1,-1 0,-1 -1,-1 -1,0 -1,-1 -3,0 -1,1 -1,0 -1,1 0,1 -1,1 0,3 1,1 0,1 1,1 1,0 1,1 m 7,-5 l -11,0 m 1,-3 l 9,0 m -9,5 l 9,0"></path>
<text class="t2"><tspan x="2002" y="2842">31</tspan>
</text>
<path class="stroke4" d="M 2069,2835 l 22,0 m -142,-265 l 0,59 m -11,0 l 22,0 0,85 -22,0 0,-85 m 7,140 l 0,5 1,1 0,3 1,1 0,2 1,1 0,1 1,1 0,1 2,2 0,1 6,6 1,0 2,2 1,0 1,1 1,0 1,1 2,0 1,1 3,0 1,1 10,0 1,-1 2,0 1,-1 2,0 1,-1 1,0 1,-1 1,0 2,-2 1,0 6,-6 0,-1 2,-2 0,-1 1,-1 0,-1 1,-1 0,-2 1,-1 0,-2 1,-1 0,-11 -1,-1 0,-2 -1,-1 0,-2 -1,-1 0,-1 -1,-1 0,-1 -2,-2 0,-1 -6,-6 -1,0 -2,-2 -1,0 -1,-1 -1,0 -1,-1 -2,0 -1,-1 -2,0 -1,-1 -10,0 -1,1 -3,0 -1,1 -2,0 -1,1 -1,0 -1,1 -1,0 -2,2 -1,0 -6,6 0,1 -2,2 0,1 -1,1 0,1 -1,1 0,2 -1,1 0,3 -1,1 0,3 m 4,-54 l  0,40 m 6,22 l 41,0 m -45,-22 l 12,22 m 36,-21 l -2,11 -6,-4 8,-7 m -23,21 l 0,60 m 12,-60 l 12,-22 80,0 0,67 m -131,-213 l 2,0 1,-1 1,0 1,-1 0,-1 1,-1 0,-3 -1,-1 0,-1 -1,-1 -1,0 -1,-1 -4,0 -1,1 -1,0 -1,1 0,1 -1,1 0,3 1,1 0,1 1,1 1,0 1,1 1,0 m 49,-5 l 23,0 -23,10 0,-21 23,11 m -23,-4 l 16,0 m -16,-4 l 8,0 m -8,11 l 14,0 m -14,4 l 6,0 m -60,-7 l 65,0 m -64,-3 l 10,0 m -10,5 l 9,0 m 1076,266 l 2,0 1,-1 1,0 1,-1 0,-1 1,-1 0,-3 -1,-1 0,-1 -1,-1 -1,0 -1,-1 -3,0 -1,1 -1,0 -1,1 0,1 -1,1 0,3 1,1 0,1 1,1 1,0 1,1 m 7,-6 l -11,0 1,-2 9,0 m -9,5 l 9,0"></path>
<text class="t2"><tspan x="2952" y="2881">31</tspan>
</text>
<path class="stroke4" d="M 3030,2708 l 0,33 m -11,85 l 21,0 0,-85 -21,0 0,85 m 10,-118 l 2,0 1,-1 1,0 1,-1 0,-1 1,-1 0,-3 -1,-1 0,-1 -1,-1 -1,0 -1,-1 -3,0 -1,1 -1,0 -1,1 0,1 -1,1 0,3 1,1 0,1 1,1 1,0 1,1 m -10,166 l 23,0 m 51,-171 l -23,0 23,-11 0,22 -23,-11 m 23,3 l -15,0 m 15,4 l -8,0 m 8,-11 l -14,0 m 14,-4 l -6,0 m -56,131 l 0,34 m -5,-160 l 9,0 m -9,5 l 9,0 m -104,192 l 0,-194 159,0 m -387,168 l 2,0 1,-1 1,0 1,-1 0,-1 1,-1 0,-3 -1,-1 0,-1 -1,-1 -1,0 -1,-1 -3,0 -1,1 -1,0 -1,1 0,1 -1,1 0,3 1,1 0,1 1,1 1,0 1,1 m 7,-6 l -11,0 1,-2 9,0 m -9,5 l 9,0"></path>
<text class="t2"><tspan x="2624" y="2881">31</tspan>
</text>
<path class="stroke4" d="M 2692,2826 l 21,0 0,-85 -21,0 0,85 m 9,-118 l -1,-1 -1,0 -1,-1 0,-1 -1,-1 0,-3 1,-1 0,-1 1,-1 1,0 1,-1 3,0 1,1 1,0 1,1 0,1 1,1 0,3 -1,1 0,1 -1,1 -1,0 -1,1 -2,0 0,33 m -11,133 l 22,0 m 52,-171 l -23,0 23,-11 0,22 -23,-11 m 23,3 l -15,0 m 15,4 l -8,0 m 8,-11 l -14,0 m 14,-4 l -6,0 m -57,131 l 0,34 m -4,-160 l 9,0 m -9,5 l 9,0 m -104,192 l 0,-194 158,0 m -386,168 l 2,0 1,-1 1,0 1,-1 0,-1 1,-1 0,-3 -1,-1 0,-1 -1,-1 -1,0 -1,-1 -3,0 -1,1 -1,0 -1,1 0,1 -1,1 0,3 1,1 0,1 1,1 1,0 1,1 m 7,-6 l -11,0 1,-2 9,0 m -9,5 l 9,0"></path>
<text class="t2"><tspan x="2297" y="2881">31</tspan>
</text>
<path class="stroke4" d="M 2364,2826 l 22,0 0,-85 -22,0 0,85 m 10,-118 l -1,-1 -1,0 -1,-1 0,-1 -1,-1 0,-3 1,-1 0,-1 1,-1 1,0 1,-1 3,0 1,1 1,0 1,1 0,1 1,1 0,3 -1,1 0,1 -1,1 -1,0 -1,1 -2,0 0,33 m -11,133 l 22,0 m 52,-171 l -23,0 23,-11 0,22 -23,-11 m 23,3 l -16,0 m 16,4 l -8,0 m 8,-11 l -14,0 m 14,-4 l -6,0 m -57,131 l 0,34 m -4,-160 l 9,0 m -9,5 l 9,0 m -104,192 l 0,-194 158,0 m -1882,129 l 2,0 1,-1 1,0 1,-1 0,-1 1,-1 0,-3 -1,-1 0,-1 -1,-1 -1,0 -1,-1 -3,0 -1,1 -1,0 -1,1 0,1 -1,1 0,3 1,1 0,1 1,1 1,0 1,1 m 7,-5 l -11,0 m 1,-3 l 9,0 m -9,5 l 9,0"></path>
<text class="t2"><tspan x="475" y="2842">31</tspan>
</text>
<path class="stroke4" d="M 542,2835 l 22,0 m -142,-265 l 0,59 m -11,0 l 22,0 0,85 -22,0 0,-85 m 7,140 l 0,5 1,1 0,3 1,1 0,2 1,1 0,1 1,1 0,1 2,2 0,1 6,6 1,0 2,2 1,0 1,1 1,0 1,1 2,0 1,1 3,0 1,1 10,0 1,-1 2,0 1,-1 2,0 1,-1 1,0 1,-1 1,0 2,-2 1,0 6,-6 0,-1 2,-2 0,-1 1,-1 0,-1 1,-1 0,-2 1,-1 0,-2 1,-1 0,-11 -1,-1 0,-2 -1,-1 0,-2 -1,-1 0,-1 -1,-1 0,-1 -2,-2 0,-1 -6,-6 -1,0 -2,-2 -1,0 -1,-1 -1,0 -1,-1 -2,0 -1,-1 -2,0 -1,-1 -10,0 -1,1 -3,0 -1,1 -2,0 -1,1 -1,0 -1,1 -1,0 -2,2 -1,0 -6,6 0,1 -2,2 0,1 -1,1 0,1 -1,1 0,2 -1,1 0,3 -1,1 0,3 m 4,-54 l  0,40 m 6,22 l 41,0 m -45,-22 l 12,22 m 37,-21 l -2,11 -7,-4 8,-7 m -23,21 l 0,60 m 12,-60 l 13,-22 79,0 0,67 m -131,-213 l 2,0 1,-1 1,0 1,-1 0,-1 1,-1 0,-3 -1,-1 0,-1 -1,-1 -1,0 -1,-1 -3,0 -1,1 -1,0 -1,1 0,1 -1,1 0,3 1,1 0,1 1,1 1,0 1,1 m 49,-5 l 24,0 -24,10 0,-21 24,11 m -24,-4 l 16,0 m -16,-4 l 9,0 m -9,11 l 14,0 m -14,4 l 7,0 m -60,-7 l 64,0 m -63,-3 l 9,0 m -9,5 l 9,0 m 562,227 l 2,0 1,-1 1,0 1,-1 0,-1 1,-1 0,-3 -1,-1 0,-1 -1,-1 -1,0 -1,-1 -4,0 -1,1 -1,0 -1,1 0,1 -1,1 0,3 1,1 0,1 1,1 1,0 1,1 1,0 m 7,-5 l -12,0 m 1,-3 l 10,0 m -10,5 l 9,0"></path>
<text class="t2"><tspan x="911" y="2842">31</tspan>
</text>
<path class="stroke4" d="M 978,2835 l 22,0 m -142,-265 l 0,59 m -10,0 l 21,0 0,85 -21,0 0,-85 m 6,140 l 0,5 1,1 0,3 1,1 0,2 1,1 0,1 1,1 0,1 2,2 0,1 6,6 1,0 2,2 1,0 1,1 1,0 1,1 2,0 1,1 3,0 1,1 10,0 1,-1 2,0 1,-1 2,0 1,-1 1,0 1,-1 1,0 2,-2 1,0 6,-6 0,-1 2,-2 0,-1 1,-1 0,-1 1,-1 0,-2 1,-1 0,-2 1,-1 0,-11 -1,-1 0,-2 -1,-1 0,-2 -1,-1 0,-1 -1,-1 0,-1 -2,-2 0,-1 -6,-6 -1,0 -2,-2 -1,0 -1,-1 -1,0 -1,-1 -2,0 -1,-1 -2,0 -1,-1 -10,0 -1,1 -3,0 -1,1 -2,0 -1,1 -1,0 -1,1 -1,0 -2,2 -1,0 -6,6 0,1 -2,2 0,1 -1,1 0,1 -1,1 0,2 -1,1 0,3 -1,1 0,3 m 4,-54 l  0,40 m 6,22 l 41,0 m -45,-22 l 12,22 m 37,-21 l -2,11 -7,-4 9,-7 m -23,21 l 0,60 m 12,-60 l 12,-22 79,0 0,67 m -131,-213 l 2,0 1,-1 1,0 1,-1 0,-1 1,-1 0,-3 -1,-1 0,-1 -1,-1 -1,0 -1,-1 -3,0 -1,1 -1,0 -1,1 0,1 -1,1 0,3 1,1 0,1 1,1 1,0 1,1 m 50,-5 l 23,0 -23,10 0,-21 23,11 m -23,-4 l 15,0 m -15,-4 l 8,0 m -8,11 l 14,0 m -14,4 l 6,0 m -60,-7 l 64,0 m -63,-3 l 9,0 m -9,5 l 9,0"></path>
<path class="white" d="M 1308,2570 l -27,0 0,-27 27,0 0,27 z"></path>
<path class="black" d="M 1296,2570 l -2,0 0,-11 2,0 0,11 z"></path>
<path class="stroke4" d="M 1296,2570 l -2,0 0,-11 2,0 0,11"></path>
<path class="stroke6" d="M 1281,2556 l 0,-3 1,-1 0,-1 1,-1 0,-1 4,-4 1,0 1,-1 1,0 1,-1 7,0 1,1 1,0 1,1 1,0 4,4 0,1 1,1 0,1 1,1 0,3"></path>
<text class="t2"><tspan x="1333" y="2300">U_HR&lt;39</tspan>

<tspan x="1333" y="2354">1.0</tspan>

<tspan x="1333" y="2398">OR</tspan>

<tspan x="1233" y="2534">2</tspan>
</text>
<path class="stroke4" d="M 1425,2832 l 2,0 1,-1 1,0 1,-1 0,-1 1,-1 0,-3 -1,-1 0,-1 -1,-1 -1,0 -1,-1 -3,0 -1,1 -1,0 -1,1 0,1 -1,1 0,3 1,1 0,1 1,1 1,0 1,1 m 7,-5 l -11,0 m 1,-3 l 9,0 m -9,5 l 9,0"></path>
<text class="t2"><tspan x="1347" y="2842">31</tspan>
</text>
<path class="stroke4" d="M 1414,2835 l 22,0 m -141,-265 l 0,59 m -11,0 l 21,0 0,85 -21,0 0,-85 m 7,140 l 0,5 1,1 0,3 1,1 0,2 1,1 0,1 1,1 0,1 1,1 0,1 8,8 1,0 1,1 1,0 1,1 1,0 1,1 1,0 1,1 3,0 1,1 10,0 1,-1 3,0 1,-1 1,0 1,-1 1,0 1,-1 1,0 1,-1 1,0 8,-8 0,-1 1,-1 0,-1 1,-1 0,-1 1,-1 0,-1 1,-1 0,-3 1,-1 0,-11 -1,-1 0,-3 -1,-1 0,-1 -1,-1 0,-1 -1,-1 0,-1 -1,-1 0,-1 -8,-8 -1,0 -1,-1 -1,0 -1,-1 -1,0 -1,-1 -1,0 -1,-1 -3,0 -1,-1 -10,0 -1,1 -3,0 -1,1 -1,0 -1,1 -1,0 -1,1 -1,0 -1,1 -1,0 -8,8 0,1 -1,1 0,1 -1,1 0,1 -1,1 0,2 -1,1 0,3 -1,1 0,3 m 4,-54 l  0,40 m 5,22 l 41,0 m -45,-22 l 13,22 m 36,-21 l -2,11 -6,-4 8,-7 m -23,21 l 0,60 m 12,-60 l 12,-22 79,0 0,67 m -131,-213 l 2,0 1,-1 1,0 1,-1 0,-1 1,-1 0,-3 -1,-1 0,-1 -1,-1 -1,0 -1,-1 -3,0 -1,1 -1,0 -1,1 0,1 -1,1 0,3 1,1 0,1 1,1 1,0 1,1 m 50,-5 l 23,0 -23,10 0,-21 23,11 m -23,-4 l 15,0 m -15,-4 l 8,0 m -8,11 l 14,0 m -14,4 l 6,0 m -60,-7 l 65,0 m -64,-3 l 9,0 m -9,5 l 9,0 m 1317,306 l 30,0 m 15,0 l 30,0 m 15,0 l 30,0 m 15,0 l 30,0 m 15,0 l 30,0 m 15,0 l 30,0 m 15,0 l 30,0"></path>
<path class="stroke8" d="M 2290,3333 l -27,0"></path>
<path class="white" d="M 2283,3324 l 6,-1 0,-8 -1,-1 0,-1 -2,-2 0,-1 -1,-1 -1,0 -2,-2 -2,0 -1,-1 -6,0 -1,1 -2,0 -2,2 -1,0 -1,1 0,1 -2,2 0,1 -1,1 0,8 6,1 0,-2 1,-1 0,-1 2,-2 1,0 1,-1 4,0 1,1 1,0 2,2 0,1 1,1 0,2 z"></path>
<path class="stroke4" d="M 2276,3317 l -2,0 -1,1 -1,0 -2,2 0,1 -1,1 0,4 1,1 0,1 2,2 1,0 1,1 4,0 1,-1 1,0 2,-2 0,-1 1,-1 0,-4 -1,-1 0,-1 -2,-2 -1,0 -1,-1 -1,0 m -6,2 l 10,0 m -11,2 l 12,0 m -12,2 l 13,0 m -13,2 l 13,0 m -13,2 l 12,0 m -11,1 l 10,0 m -7,2 l 4,0 m -4,-13 l 4,0"></path>
<text class="t2"><tspan x="2314" y="3297"><a xmlns:xlink="http://www.w3.org/1999/xlink" xlink:type="simple" xlink:show="replace" xlink:actuate="onRequest" xlink:href="javascript:locateTree('X6454');">X6454</a>
</tspan>
</text>
<path class="stroke8" d="M 2617,3333 l -27,0"></path>
<path class="white" d="M 2610,3324 l 6,-1 0,-8 -1,-1 0,-1 -2,-2 0,-1 -1,-1 -1,0 -2,-2 -2,0 -1,-1 -6,0 -1,1 -2,0 -2,2 -1,0 -1,1 0,1 -2,2 0,1 -1,1 0,8 6,1 0,-2 1,-1 0,-1 2,-2 1,0 1,-1 4,0 1,1 1,0 2,2 0,1 1,1 0,2 z"></path>
<path class="stroke4" d="M 2603,3317 l -2,0 -1,1 -1,0 -2,2 0,1 -1,1 0,4 1,1 0,1 2,2 1,0 1,1 4,0 1,-1 1,0 2,-2 0,-1 1,-1 0,-4 -1,-1 0,-1 -2,-2 -1,0 -1,-1 -1,0 m -6,2 l 10,0 m -11,2 l 13,0 m -13,2 l 13,0 m -13,2 l 13,0 m -13,2 l 12,0 m -11,1 l 10,0 m -7,2 l 4,0 m -4,-13 l 5,0"></path>
<text class="t2"><tspan x="2642" y="3297"><a xmlns:xlink="http://www.w3.org/1999/xlink" xlink:type="simple" xlink:show="replace" xlink:actuate="onRequest" xlink:href="javascript:locateTree('X6454');">X6454</a>
</tspan>
</text>
<path class="stroke8" d="M 2944,3333 l -27,0"></path>
<path class="white" d="M 2937,3324 l 6,-1 0,-8 -1,-1 0,-1 -2,-2 0,-1 -1,-1 -1,0 -2,-2 -2,0 -1,-1 -6,0 -1,1 -2,0 -2,2 -1,0 -1,1 0,1 -2,2 0,1 -1,1 0,8 6,1 0,-2 1,-1 0,-1 2,-2 1,0 1,-1 4,0 1,1 1,0 2,2 0,1 1,1 0,2 z"></path>
<path class="stroke4" d="M 2930,3317 l -1,0 -1,1 -1,0 -2,2 0,1 -1,1 0,4 1,1 0,1 2,2 1,0 1,1 3,0 1,-1 1,0 2,-2 0,-1 1,-1 0,-4 -1,-1 0,-1 -2,-2 -1,0 -1,-1 -1,0 m -6,2 l 11,0 m -12,2 l 13,0 m -13,2 l 13,0 m -13,2 l 13,0 m -13,2 l 13,0 m -11,1 l 9,0 m -7,2 l 5,0 m -5,-13 l 5,0"></path>
<text class="t2"><tspan x="2969" y="3297"><a xmlns:xlink="http://www.w3.org/1999/xlink" xlink:type="simple" xlink:show="replace" xlink:actuate="onRequest" xlink:href="javascript:locateTree('X6454');">X6454</a>
</tspan>
</text>
<path class="stroke4" d="M 2631,3333 l 272,0 m -1281,-1199 l -327,0"></path>
<path class="white" d="M 408,1698 l 28,0 0,27 -28,0 0,-27 z"></path>
<path class="black" d="M 421,1698 l 2,0 0,11 -2,0 0,-11 z"></path>
<path class="stroke4" d="M 421,1698 l 2,0 0,11 -2,0 0,-11"></path>
<path class="stroke6" d="M 435,1711 l 0,3 -1,1 0,2 -6,6 -2,0 -1,1 -6,0 -1,-1 -2,0 -6,-6 0,-2 -1,-1 0,-3"></path>
<text class="t2"><tspan x="460" y="1757"><a xmlns:xlink="http://www.w3.org/1999/xlink" xlink:type="simple" xlink:show="replace" xlink:actuate="onRequest" xlink:href="javascript:locateTree('X11001');">X11001</a>
</tspan>

<tspan x="361" y="1757">4</tspan>
</text>
<path class="stroke4" d="M 422,1587 l 0,110"></path>
<path class="stroke8" d="M 313,1370 l 14,0 m 18,0 l 29,0 m 17,0 l 29,0 m 18,0 l 29,0 m 17,0 l 30,0 m 17,0 l 29,0 m 18,0 l 29,0 m 17,0 l 16,0 0,13 m 0,16 l 0,28 m 0,16 l 0,27 m 0,16 l 0,28 m 0,16 l 0,27 m 0,16 l 0,15 -14,0 m -18,0 l -29,0 m -17,0 l -29,0 m -18,0 l -29,0 m -17,0 l -30,0 m -17,0 l -29,0 m -18,0 l -29,0 m -17,0 l -16,0 0,-13 m 0,-16 l 0,-28 m 0,-16 l 0,-27 m 0,-16 l 0,-28 m 0,-16 l 0,-27 m 0,-16 l 0,-15"></path>
<path class="stroke4" d="M 439,1448 l -34,0 0,96 34,0 0,-96 m -17,140 l 0,-140 m -7,-15 l 15,0 m -17,3 l 18,0 m -18,2 l 19,0 m -20,3 l 20,0 m -19,2 l 18,0 m -16,3 l 15,0 m -12,-15 l 9,0 m 1,17 l 3,-3 0,-1 1,-1 0,-6 -1,-1 0,-1 -4,-4 -1,0 -1,-1 -5,0 -1,1 -1,0 -1,1 -1,0 -1,1 0,1 -2,2 0,7 1,1 0,1 3,3"></path>
<text class="t2"><tspan x="679" y="1402"><a xmlns:xlink="http://www.w3.org/1999/xlink" xlink:type="simple" xlink:show="replace" xlink:actuate="onRequest" xlink:href="javascript:locateTree('F4');">F4</a>
</tspan>

<tspan x="403" y="1416">30</tspan>

<tspan x="488" y="1525">10A</tspan>
</text>
<path style="fill:none;stroke:#000000;stroke-width:15" d="M 1785,2134 l -163,0"></path>
<path class="stroke4" d="M 1785,2152 l 40,-18 -40,-19 0,37 m 0,-26 l 24,0 m -24,4 l 32,0 m -32,4 l 40,0 m -40,3 l 32,0 m -32,4 l 24,0 m -24,4 l 16,0 m -16,3 l 7,0 m -7,-25 l 16,0 m -16,-4 l 9,0 m -9,-4 l 2,0"></path>
<path class="white" d="M 1618,2117 l -1,1 -1,0 -1,1 -1,0 -1,1 -1,0 -4,4 0,1 -1,1 0,1 -1,1 0,1 -1,1 0,8 1,1 0,1 1,1 0,1 1,1 0,1 4,4 1,0 1,1 1,0 1,1 1,0 1,1 8,0 1,-1 1,0 1,-1 1,0 1,-1 1,0 4,-4 0,-1 1,-1 0,-1 1,-1 0,-1 1,-1 0,-8 -1,-1 0,-1 -1,-1 0,-1 -1,-1 0,-1 -4,-4 -1,0 -1,-1 -1,0 -1,-1 -1,0 -1,-1 -8,0 z"></path>
<path class="stroke4" d="M 1622,2127 l -2,0 -1,1 -1,0 -2,2 0,1 -1,1 0,4 1,1 0,1 2,2 1,0 1,1 4,0 1,-1 1,0 2,-2 0,-1 1,-1 0,-4 -1,-1 0,-1 -2,-2 -1,0 -1,-1 -1,0 m -6,2 l 10,0 m -11,2 l 12,0 m -13,2 l 14,0 m -14,2 l 14,0 m -13,1 l 12,0 m -11,2 l 10,0 m -8,2 l 6,0 m -6,-13 l 6,0"></path>
<path class="white" d="M 845,1698 l 27,0 0,27 -27,0 0,-27 z"></path>
<path class="black" d="M 857,1698 l 2,0 0,11 -2,0 0,-11 z"></path>
<path class="stroke4" d="M 857,1698 l 2,0 0,11 -2,0 0,-11"></path>
<path class="stroke6" d="M 872,1711 l 0,3 -1,1 0,1 -1,1 0,1 -4,4 -1,0 -1,1 -1,0 -1,1 -7,0 -1,-1 -1,0 -1,-1 -1,0 -4,-4 0,-1 -1,-1 0,-1 -1,-1 0,-3"></path>
<text class="t2"><tspan x="897" y="1757"><a xmlns:xlink="http://www.w3.org/1999/xlink" xlink:type="simple" xlink:show="replace" xlink:actuate="onRequest" xlink:href="javascript:locateTree('X11010');">X11010</a>
</tspan>

<tspan x="797" y="1757">1</tspan>
</text>
<path class="white" d="M 1281,1698 l 27,0 0,27 -27,0 0,-27 z"></path>
<path class="black" d="M 1294,1698 l 1,0 0,11 -1,0 0,-11 z"></path>
<path class="stroke4" d="M 1294,1698 l 1,0 0,11 -1,0 0,-11"></path>
<path class="stroke6" d="M 1308,1711 l 0,3 -1,1 0,1 -1,1 0,1 -4,4 -1,0 -1,1 -1,0 -1,1 -7,0 -1,-1 -1,0 -1,-1 -1,0 -4,-4 0,-1 -1,-1 0,-1 -1,-1 0,-3"></path>
<text class="t2"><tspan x="1333" y="1757"><a xmlns:xlink="http://www.w3.org/1999/xlink" xlink:type="simple" xlink:show="replace" xlink:actuate="onRequest" xlink:href="javascript:locateTree('X11005');">X11005</a>
</tspan>

<tspan x="1233" y="1757">6</tspan>
</text>
<path class="white" d="M 1291,2117 l -1,1 -1,0 -1,1 -1,0 -1,1 -1,0 -4,4 0,1 -1,1 0,1 -1,1 0,1 -1,1 0,8 1,1 0,1 1,1 0,1 1,1 0,1 4,4 1,0 1,1 1,0 1,1 1,0 1,1 8,0 1,-1 1,0 1,-1 1,0 1,-1 1,0 4,-4 0,-1 1,-1 0,-1 1,-1 0,-1 1,-1 0,-8 -1,-1 0,-1 -1,-1 0,-1 -1,-1 0,-1 -4,-4 -1,0 -1,-1 -1,0 -1,-1 -1,0 -1,-1 -8,0 z"></path>
<path class="stroke4" d="M 1295,2127 l -2,0 -1,1 -1,0 -2,2 0,1 -1,1 0,4 1,1 0,1 2,2 1,0 1,1 4,0 1,-1 1,0 2,-2 0,-1 1,-1 0,-4 -1,-1 0,-1 -2,-2 -1,0 -1,-1 -1,0 m -6,2 l 10,0 m -11,2 l 12,0 m -13,2 l 14,0 m -14,2 l 14,0 m -13,1 l 12,0 m -11,2 l 10,0 m -8,2 l 6,0 m -6,-13 l 6,0 m -58,-1008 l 2,0 1,-1 1,0 2,-2 0,-1 1,-1 0,-4 -1,-1 0,-1 -2,-2 -1,0 -1,-1 -4,0 -1,1 -1,0 -2,2 0,1 -1,1 0,4 1,1 0,1 2,2 1,0 1,1 1,0 m 110,0 l 2,0 1,-1 1,0 2,-2 0,-1 1,-1 0,-4 -1,-1 0,-1 -2,-2 -1,0 -1,-1 -4,0 -1,1 -1,0 -2,2 0,1 -1,1 0,4 1,1 0,1 2,2 1,0 1,1 1,0 m -54,82 l 3,0 2,-2 1,0 0,-1 2,-2  0,-5 -2,-2 0,-1 -1,0 -2,-2 -5,0 -2,2 -1,0 0,1 -2,2 0,5 2,2 0,1 1,0 2,2 3,0 0,60 m -55,-218 l 0,62 m -414,32 l 64,0 0,31 -64,0 0,-31 m 44,0 l -20,30 m 8,-30 l 0,-94 m 0,218 l 0,-93 m 32,-16 l 30,0 m 14,0 l 31,0 m 14,0 l 30,0 m 14,0 l 31,0 m 14,0 l 30,0 m 15,0 l 30,0 m 14,0 l 31,0 m 14,0 l 30,0 m 14,0 l 31,0 m 14,0 l 30,0 m 25,-34 l -23,34 -23,36"></path>
<path class="stroke8" d="M 1186,1370 l 14,0 m 18,0 l 29,0 m 17,0 l 29,0 m 18,0 l 29,0 m 17,0 l 30,0 m 17,0 l 29,0 m 18,0 l 29,0 m 17,0 l 16,0 0,13 m 0,16 l 0,28 m 0,16 l 0,27 m 0,16 l 0,28 m 0,16 l 0,27 m 0,16 l 0,15 -14,0 m -18,0 l -29,0 m -17,0 l -29,0 m -18,0 l -29,0 m -17,0 l -30,0 m -17,0 l -29,0 m -18,0 l -29,0 m -17,0 l -16,0 0,-13 m 0,-16 l 0,-28 m 0,-16 l 0,-27 m 0,-16 l 0,-28 m 0,-16 l 0,-27 m 0,-16 l 0,-15"></path>
<path class="stroke4" d="M 1311,1448 l -33,0 0,96 33,0 0,-96 m -16,140 l 0,-140 m -8,-15 l 15,0 m -16,3 l 17,0 m -18,2 l 19,0 m -19,3 l 20,0 m -19,2 l 17,0 m -16,3 l 15,0 m -12,-15 l 9,0 m 1,17 l 3,-3 0,-1 1,-1 0,-6 -1,-1 0,-1 -1,-1 0,-1 -1,-1 -1,0 -1,-1 -1,0 -1,-1 -5,0 -1,1 -1,0 -1,1 -1,0 -1,1 0,1 -2,2 0,7 1,1 0,1 1,1 3,2 m 5,-78 l 0,55"></path>
<text class="t2"><tspan x="1551" y="1402"><a xmlns:xlink="http://www.w3.org/1999/xlink" xlink:type="simple" xlink:show="replace" xlink:actuate="onRequest" xlink:href="javascript:locateTree('F39');">F39</a>
</tspan>

<tspan x="1360" y="1525">30A</tspan>
</text>
<path class="stroke8" d="M 749,1043 l 14,0 m 18,0 l 30,0 m 18,0 l 30,0 m 18,0 l 30,0 m 17,0 l 30,0 m 18,0 l 30,0 m 18,0 l 30,0 m 18,0 l 29,0 m 18,0 l 30,0 m 18,0 l 30,0 m 18,0 l 29,0 m 18,0 l 30,0 m 18,0 l 30,0 m 18,0 l 30,0 m 17,0 l 30,0 m 18,0 l 30,0 m 18,0 l 16,0 0,13 m 0,16 l 0,28 m 0,16 l 0,27 m 0,16 l 0,28 m 0,16 l 0,27 m 0,16 l 0,15 -14,0 m -18,0 l -30,0 m -18,0 l -30,0 m -18,0 l -30,0 m -17,0 l -30,0 m -18,0 l -30,0 m -18,0 l -30,0 m -18,0 l -29,0 m -18,0 l -30,0 m -18,0 l -30,0 m -18,0 l -29,0 m -18,0 l -30,0"></path>
<path class="stroke8" d="M 956,1261 l -30,0 m -18,0 l -30,0 m -17,0 l -30,0 m -18,0 l -30,0 m -18,0 l -16,0 0,-13 m 0,-16 l 0,-28 m 0,-16 l 0,-27 m 0,-16 l 0,-28 m 0,-16 l 0,-27 m 0,-16 l 0,-15"></path>
<text class="t2"><tspan x="1551" y="1075"><a xmlns:xlink="http://www.w3.org/1999/xlink" xlink:type="simple" xlink:show="replace" xlink:actuate="onRequest" xlink:href="javascript:locateTree('K6300');">K6300</a>
</tspan>
</text>
<path class="stroke4" d="M 1299,989 l 23,0 -23,10 0,-21 23,11 m -23,-4 l 15,0 m -15,-4 l 8,0 m -8,11 l 14,0 m -14,4 l 6,0 m -65,-2 l 2,0 1,-1 1,0 1,-1 0,-1 1,-1 0,-3 -1,-1 0,-1 -1,-1 -1,0 -1,-1 -3,0 -1,1 -1,0 -1,1 0,1 -1,1 0,3 1,1 0,1 1,1 1,0 1,1 m 7,-5 l -11,0 m 1,-3 l 9,0 m -9,6 l 9,0 m -387,-58 l 0,109 m 382,-56 l 0,56 m -382,-54 l 464,0 m -27,271 l 0,110 m 0,217 l 0,111 m -437,-704 l 2,0 1,-1 1,0 1,-1 0,-1 1,-1 0,-3 -1,-1 0,-1 -1,-1 -1,0 -1,-1 -3,0 -1,1 -1,0 -1,1 0,1 -1,1 0,3 1,1 0,1 1,1 1,0 1,1 m 7,-5 l -11,0 m 1,-3 l 9,0 m -9,6 l 9,0 m -5,268 l 0,438"></path>
<path class="white" d="M 872,2134 l -27,0 0,-28 27,0 0,28 z"></path>
<path class="black" d="M 859,2133 l -1,0 0,-11 1,0 0,11 z"></path>
<path class="stroke4" d="M 859,2133 l -1,0 0,-11 1,0 0,11"></path>
<path class="stroke6" d="M 845,2120 l 0,-3 1,-1 0,-1 1,-1 0,-1 4,-4 1,0 1,-1 1,0 1,-1 7,0 1,1 1,0 1,1 1,0 4,4 0,1 1,1 0,1 1,1 0,3"></path>
<text class="t2"><tspan x="897" y="2098"><a xmlns:xlink="http://www.w3.org/1999/xlink" xlink:type="simple" xlink:show="replace" xlink:actuate="onRequest" xlink:href="javascript:locateTree('X60551');">X60551</a>
</tspan>

<tspan x="797" y="2098">5</tspan>
</text>
<path class="white" d="M 436,2134 l -27,0 0,-28 27,0 0,28 z"></path>
<path class="black" d="M 423,2133 l -2,0 0,-11 2,0 0,11 z"></path>
<path class="stroke4" d="M 423,2133 l -2,0 0,-11 2,0 0,11"></path>
<path class="stroke6" d="M 409,2120 l 0,-3 1,-1 0,-2 6,-6 2,0 1,-1 6,0 1,1 2,0 6,6 0,2 1,1 0,3"></path>
<text class="t2"><tspan x="897" y="1866">S_HR</tspan>

<tspan x="460" y="1866">30&lt;4</tspan>

<tspan x="1333" y="1866">U_HR&lt;39</tspan>

<tspan x="897" y="1920">0.75</tspan>

<tspan x="460" y="1920">0.75</tspan>

<tspan x="1333" y="1920">2.5</tspan>

<tspan x="1333" y="1964">RT/WS</tspan>

<tspan x="460" y="1964">RT/SW</tspan>

<tspan x="897" y="1964">RT/GR</tspan>

<tspan x="338" y="2098">10</tspan>

<tspan x="461" y="2098"><a xmlns:xlink="http://www.w3.org/1999/xlink" xlink:type="simple" xlink:show="replace" xlink:actuate="onRequest" xlink:href="javascript:locateTree('X6011');">X6011</a>
</tspan>

<tspan x="897" y="2300">S_HR</tspan>

<tspan x="460" y="2300">30&lt;4</tspan>

<tspan x="460" y="2354">0.75</tspan>

<tspan x="897" y="2354">0.75</tspan>

<tspan x="897" y="2398">RT/GR</tspan>

<tspan x="460" y="2398">RT/SW</tspan>
</text>
<path class="stroke8" d="M 204,825 l 14,0 m 18,0 l 30,0 m 18,0 l 30,0 m 17,0 l 30,0 m 18,0 l 30,0 m 18,0 l 29,0 m 18,0 l 30,0 m 18,0 l 30,0 m 17,0 l 30,0 m 18,0 l 30,0 m 18,0 l 29,0 m 18,0 l 30,0 m 18,0 l 30,0 m 17,0 l 30,0 m 18,0 l 30,0 m 18,0 l 29,0 m 18,0 l 30,0 m 18,0 l 30,0 m 17,0 l 30,0 m 18,0 l 30,0 m 18,0 l 29,0 m 18,0 l 30,0 m 18,0 l 30,0 m 17,0 l 30,0 m 18,0 l 30,0 m 18,0 l 29,0 m 18,0 l 30,0 m 18,0 l 30,0 m 17,0 l 30,0 m 18,0 l 30,0 m 18,0 l 29,0 m 18,0 l 30,0 m 18,0 l 19,0 0,15"></path>
<path class="stroke8" d="M 1731,858 l 0,30 m 0,18 l 0,31 m 0,18 l 0,30 m 0,18 l 0,30 m 0,18 l 0,31 m 0,18 l 0,30 m 0,18 l 0,31 m 0,18 l 0,30 m 0,18 l 0,30 m 0,18 l 0,31 m 0,18 l 0,30 m 0,18 l 0,31 m 0,18 l 0,30 m 0,18 l 0,30 m 0,18 l 0,31 m 0,18 l 0,30 m 0,18 l 0,31 m 0,18 l 0,17 -14,0 m -18,0 l -30,0 m -18,0 l -30,0 m -17,0 l -30,0 m -18,0 l -30,0 m -18,0 l -29,0 m -18,0 l -30,0 m -18,0 l -30,0 m -17,0 l -30,0 m -18,0 l -30,0 m -18,0 l -29,0 m -18,0 l -30,0 m -18,0 l -30,0 m -17,0 l -30,0 m -18,0 l -30,0 m -18,0 l -29,0"></path>
<path class="stroke8" d="M 985,1698 l -30,0 m -18,0 l -30,0 m -17,0 l -30,0 m -18,0 l -30,0 m -18,0 l -29,0 m -18,0 l -30,0 m -18,0 l -30,0 m -17,0 l -30,0 m -18,0 l -30,0 m -18,0 l -29,0 m -18,0 l -30,0 m -18,0 l -30,0 m -17,0 l -30,0 m -18,0 l -30,0 m -18,0 l -29,0 m -18,0 l -30,0 m -18,0 l -19,0 0,-15 m 0,-18 l 0,-30 m 0,-18 l 0,-31 m 0,-18 l 0,-30 m 0,-18 l 0,-30 m 0,-18 l 0,-31 m 0,-18 l 0,-30 m 0,-18 l 0,-31 m 0,-18 l 0,-30 m 0,-18 l 0,-30 m 0,-18 l 0,-31 m 0,-18 l 0,-30 m 0,-18 l 0,-31 m 0,-18 l 0,-30 m 0,-18 l 0,-30 m 0,-18 l 0,-31 m 0,-18 l 0,-30"></path>
<path class="stroke8" d="M 204,891 l 0,-31 m 0,-18 l 0,-17 m 109,1745 l 15,0 m 18,0 l 30,0 m 18,0 l 30,0 m 18,0 l 30,0 m 18,0 l 30,0 m 18,0 l 30,0 m 18,0 l 30,0 m 18,0 l 30,0 m 18,0 l 30,0 m 18,0 l 30,0 m 18,0 l 30,0 m 18,0 l 30,0 m 18,0 l 30,0 m 18,0 l 30,0 m 18,0 l 30,0 m 18,0 l 30,0 m 18,0 l 30,0 m 18,0 l 30,0 m 18,0 l 30,0 m 18,0 l 30,0 m 18,0 l 30,0 m 18,0 l 30,0 m 18,0 l 30,0 m 18,0 l 30,0 m 18,0 l 30,0 m 18,0 l 30,0 m 18,0 l 30,0 m 18,0 l 30,0 m 18,0 l 30,0 m 18,0 l 30,0 m 18,0 l 30,0"></path>
<path class="stroke8" d="M 1786,2570 l 30,0 m 18,0 l 30,0 m 18,0 l 30,0 m 18,0 l 30,0 m 18,0 l 30,0 m 18,0 l 30,0 m 18,0 l 30,0 m 18,0 l 30,0 m 18,0 l 30,0 m 18,0 l 30,0 m 18,0 l 30,0 m 18,0 l 30,0 m 18,0 l 30,0 m 18,0 l 30,0 m 18,0 l 30,0 m 18,0 l 30,0 m 18,0 l 30,0 m 18,0 l 30,0 m 18,0 l 30,0 m 18,0 l 30,0 m 18,0 l 30,0 m 18,0 l 30,0 m 18,0 l 30,0 m 18,0 l 30,0 m 18,0 l 30,0 m 18,0 l 30,0 m 18,0 l 30,0 m 18,0 l 30,0 m 18,0 l 19,0 0,14 m 0,18 l 0,29 m 0,17 l 0,29 m 0,18 l 0,29 m 0,17 l 0,30"></path>
<path class="stroke8" d="M 3149,2788 l 0,29 m 0,18 l 0,29 m 0,17 l 0,16 -15,0 m -18,0 l -30,0 m -18,0 l -30,0 m -18,0 l -30,0 m -18,0 l -30,0 m -18,0 l -30,0 m -18,0 l -30,0 m -18,0 l -30,0 m -18,0 l -30,0 m -18,0 l -30,0 m -18,0 l -30,0 m -18,0 l -30,0 m -18,0 l -30,0 m -18,0 l -30,0 m -18,0 l -30,0 m -18,0 l -30,0 m -18,0 l -30,0 m -18,0 l -30,0 m -18,0 l -30,0 m -18,0 l -30,0 m -18,0 l -30,0 m -18,0 l -30,0 m -18,0 l -30,0 m -18,0 l -30,0 m -18,0 l -30,0 m -18,0 l -30,0 m -18,0 l -30,0 m -18,0 l -30,0 m -18,0 l -30,0 m -18,0 l -30,0 m -18,0 l -30,0"></path>
<path class="stroke8" d="M 1676,2897 l -30,0 m -18,0 l -30,0 m -18,0 l -30,0 m -18,0 l -30,0 m -18,0 l -30,0 m -18,0 l -30,0 m -18,0 l -30,0 m -18,0 l -30,0 m -18,0 l -30,0 m -18,0 l -30,0 m -18,0 l -30,0 m -18,0 l -30,0 m -18,0 l -30,0 m -18,0 l -30,0 m -18,0 l -30,0 m -18,0 l -30,0 m -18,0 l -30,0 m -18,0 l -30,0 m -18,0 l -30,0 m -18,0 l -30,0 m -18,0 l -30,0 m -18,0 l -30,0 m -18,0 l -30,0 m -18,0 l -30,0 m -18,0 l -30,0 m -18,0 l -30,0 m -18,0 l -30,0 m -18,0 l -30,0 m -18,0 l -19,0 0,-14 m 0,-18 l 0,-29 m 0,-17 l 0,-29 m 0,-18 l 0,-29 m 0,-17 l 0,-30"></path>
<path class="stroke8" d="M 313,2679 l 0,-29 m 0,-18 l 0,-29 m 0,-17 l 0,-16"></path>
<text class="t3"><tspan x="1769" y="834">.</tspan>
</text>
<text class="t2"><tspan x="1769" y="870"><a xmlns:xlink="http://www.w3.org/1999/xlink" xlink:type="simple" xlink:show="replace" xlink:actuate="onRequest" xlink:href="javascript:locateTree('A4010');">A4010</a>
</tspan>
</text>
<text class="t2"><tspan x="1769" y="939">Junction box</tspan>
</text>
</g>
</svg>
</g></svg>