<svg data-v-f35fd5a0="" xmlns="http://www.w3.org/2000/svg" xmlns:xlink="http://www.w3.org/1999/xlink" xmlns:ev="http://www.w3.org/2001/xml-events" style="overflow: hidden; width: 100%; min-height: 100vh;"><g id="viewport-20201011225341707" class="svg-pan-zoom_viewport" transform="matrix(1,0,0,1,0,0)" style="transform: matrix(1, 0, 0, 1, 0, 0);"><!--?xml version="1.0" encoding="UTF-8"?--> 
<!--?xml-stylesheet href="../../styles/svg.css" type="text/css"?--> 
<svg xmlns="http://www.w3.org/2000/svg" id="svgid" xml:space="preserve" viewBox="37 607 2491 2250" preserveAspectRatio="xMinYMin meet" zoomAndPan="magnify" version="1.0" width="100%" height="100%" contentscripttype="text/ecmascript" contentstyletype="text/css" xmlns:xlink="http://www.w3.org/1999/xlink">
<title>Schaltplan Viewer - Copyright BMW AG 2006</title>
<style xml:space="preserve" type="text/css">path {fill-rule:evenodd; stroke-linecap:round; stroke-linejoin:round}
rect {stroke-linejoin:miter}
text.t1 {font-family:'Courier SWA',monospace;font-size:31;fill:#000000}
path.white {fill:#FFFFFF;stroke:none}
path.black {fill:#000000;stroke:none}
path.stroke3 {fill:none;stroke:#000000;stroke-width:3}
path.stroke4 {fill:none;stroke:#000000;stroke-width:4}
path.stroke5 {fill:none;stroke:#000000;stroke-width:5}
path.stroke6 {fill:none;stroke:#000000;stroke-width:6}
path.stroke7 {fill:none;stroke:#000000;stroke-width:7 }
path.stroke8 {fill:none;stroke:#000000;stroke-width:8 }
path.stroke9 {fill:none;stroke:#000000;stroke-width:9 }
path.stroke10 {fill:none;stroke:#000000;stroke-width:10 }
path.stroke11 {fill:none;stroke:#000000;stroke-width:11}
path.stroke14 {fill:none;stroke:#000000;stroke-width:14}</style>
<desc>customer: BMW
date: 13.07.2006
time: 11:10:10
language: British engl
project: E65
version: 1.0</desc>
<g id="gid">
<text class="t1"></text>
<path style="fill:#DFDFDF;stroke:none" d="M 313,1807 l 327,0 0,218 -327,0 0,-218 z"></path>
<path class="stroke8" d="M 313,1807 l 327,0 0,218 -327,0 0,-218"></path>
<path style="fill:#DFDFDF;stroke:none" d="M 1731,825 l 327,0 0,327 -327,0 0,-327 z"></path>
<path class="stroke8" d="M 1731,825 l 14,0 m 18,0 l 29,0 m 17,0 l 29,0 m 18,0 l 29,0 m 17,0 l 30,0 m 17,0 l 29,0 m 18,0 l 29,0 m 17,0 l 16,0 0,14 m 0,18 l 0,29 m 0,17 l 0,29 m 0,18 l 0,29 m 0,17 l 0,30 m 0,17 l 0,29 m 0,18 l 0,29 m 0,17 l 0,16 -14,0 m -18,0 l -29,0 m -17,0 l -29,0 m -18,0 l -29,0 m -17,0 l -30,0 m -17,0 l -29,0 m -18,0 l -29,0 m -17,0 l -16,0 0,-14 m 0,-18 l 0,-29 m 0,-17 l 0,-29 m 0,-18 l 0,-29 m 0,-17 l 0,-30 m 0,-17 l 0,-29 m 0,-18 l 0,-29 m 0,-17 l 0,-16"></path>
<path style="fill:#DFDFDF;stroke:none" d="M 313,2461 l 1963,0 0,327 -1963,0 0,-327 z"></path>
<path class="stroke8" d="M 313,2461 l 15,0 m 17,0 l 30,0 m 18,0 l 30,0 m 18,0 l 30,0 m 18,0 l 30,0 m 18,0 l 30,0 m 17,0 l 30,0 m 18,0 l 30,0 m 18,0 l 30,0 m 18,0 l 30,0 m 18,0 l 30,0 m 17,0 l 30,0 m 18,0 l 30,0 m 18,0 l 30,0 m 18,0 l 30,0 m 18,0 l 30,0 m 17,0 l 30,0 m 18,0 l 30,0 m 18,0 l 30,0 m 18,0 l 30,0 m 18,0 l 30,0 m 17,0 l 30,0 m 18,0 l 30,0 m 18,0 l 30,0 m 18,0 l 30,0 m 18,0 l 30,0 m 17,0 l 30,0 m 18,0 l 30,0 m 18,0 l 30,0 m 18,0 l 30,0 m 18,0 l 30,0 m 17,0 l 30,0 m 18,0 l 30,0"></path>
<path class="stroke8" d="M 1875,2461 l 30,0 m 18,0 l 30,0 m 18,0 l 30,0 m 17,0 l 30,0 m 18,0 l 30,0 m 18,0 l 30,0 m 18,0 l 30,0 m 18,0 l 30,0 m 17,0 l 19,0 0,14 m 0,18 l 0,29 m 0,17 l 0,29 m 0,18 l 0,29 m 0,17 l 0,30 m 0,17 l 0,29 m 0,18 l 0,29 m 0,17 l 0,16 -15,0 m -17,0 l -30,0 m -18,0 l -30,0 m -18,0 l -30,0 m -18,0 l -30,0 m -18,0 l -30,0 m -17,0 l -30,0 m -18,0 l -30,0 m -18,0 l -30,0 m -18,0 l -30,0 m -18,0 l -30,0 m -17,0 l -30,0 m -18,0 l -30,0 m -18,0 l -30,0 m -18,0 l -30,0 m -18,0 l -30,0 m -17,0 l -30,0 m -18,0 l -30,0"></path>
<path class="stroke8" d="M 1431,2788 l -30,0 m -18,0 l -30,0 m -18,0 l -30,0 m -17,0 l -30,0 m -18,0 l -30,0 m -18,0 l -30,0 m -18,0 l -30,0 m -18,0 l -30,0 m -17,0 l -30,0 m -18,0 l -30,0 m -18,0 l -30,0 m -18,0 l -30,0 m -18,0 l -30,0 m -17,0 l -30,0 m -18,0 l -30,0 m -18,0 l -30,0 m -18,0 l -30,0 m -18,0 l -30,0 m -17,0 l -30,0 m -18,0 l -30,0 m -18,0 l -30,0 m -18,0 l -30,0 m -18,0 l -30,0 m -17,0 l -19,0 0,-14 m 0,-18 l 0,-29 m 0,-17 l 0,-29 m 0,-18 l 0,-29 m 0,-17 l 0,-30 m 0,-17 l 0,-29 m 0,-18 l 0,-29 m 0,-17 l 0,-16"></path>
<path style="fill:#DFDFDF;stroke:none" d="M 1513,1807 l 763,0 0,218 -763,0 0,-218 z"></path>
<path class="stroke8" d="M 1513,1807 l 763,0 0,218 -763,0 0,-218"></path>
<path style="fill:#DFDFDF;stroke:none" d="M 313,934 l 327,0 0,218 -327,0 0,-218 z"></path>
<path class="stroke8" d="M 313,934 l 14,0 m 18,0 l 29,0 m 17,0 l 29,0 m 18,0 l 29,0 m 17,0 l 30,0 m 17,0 l 29,0 m 18,0 l 29,0 m 17,0 l 16,0 0,13 m 0,16 l 0,28 m 0,16 l 0,27 m 0,16 l 0,28 m 0,16 l 0,27 m 0,16 l 0,15 -14,0 m -18,0 l -29,0 m -17,0 l -29,0 m -18,0 l -29,0 m -17,0 l -30,0 m -17,0 l -29,0 m -18,0 l -29,0 m -17,0 l -16,0 0,-13 m 0,-16 l 0,-28 m 0,-16 l 0,-27 m 0,-16 l 0,-28 m 0,-16 l 0,-27 m 0,-16 l 0,-15"></path>
<path style="fill:#DFDFDF;stroke:none" d="M 204,825 l 654,0 0,436 -654,0 0,-436 z"></path>
<path class="stroke8" d="M 204,825 l 14,0 m 18,0 l 29,0 m 17,0 l 29,0 m 18,0 l 29,0 m 17,0 l 30,0 m 17,0 l 29,0 m 18,0 l 29,0 m 17,0 l 29,0 m 18,0 l 29,0 m 17,0 l 30,0 m 17,0 l 29,0 m 18,0 l 29,0 m 17,0 l 29,0 m 18,0 l 29,0 m 17,0 l 17,0 0,15 m 0,18 l 0,30 m 0,18 l 0,30 m 0,18 l 0,31 m 0,18 l 0,30 m 0,18 l 0,30 m 0,18 l 0,30 m 0,19 l 0,30 m 0,18 l 0,30 m 0,18 l 0,17 -14,0 m -18,0 l -29,0 m -17,0 l -29,0 m -18,0 l -29,0 m -17,0 l -30,0 m -17,0 l -29,0 m -18,0 l -29,0 m -17,0 l -29,0 m -18,0 l -29,0 m -17,0 l -30,0"></path>
<path class="stroke8" d="M 407,1261 l -29,0 m -18,0 l -29,0 m -17,0 l -29,0 m -18,0 l -29,0 m -17,0 l -17,0 0,-15 m 0,-18 l 0,-30 m 0,-18 l 0,-30 m 0,-18 l 0,-31 m 0,-18 l 0,-30 m 0,-18 l 0,-30 m 0,-18 l 0,-30 m 0,-19 l 0,-30 m 0,-18 l 0,-30 m 0,-18 l 0,-17"></path>
<path style="fill:none;stroke:#000000;stroke-width:15" d="M 1622,2052 l 0,382 m 436,-382 l 0,382 m -218,-1255 l 0,600 m -1418,-490 l 0,490 m 0,273 l 0,382"></path>
<path class="white" d="M 436,2461 l -27,0 0,-27 27,0 0,27 z"></path>
<path class="black" d="M 423,2461 l -2,0 0,-11 2,0 0,11 z"></path>
<path class="stroke4" d="M 423,2461 l -2,0 0,-11 2,0 0,11"></path>
<path class="stroke6" d="M 409,2447 l 0,-3 1,-1 0,-2 6,-6 2,0 1,-1 6,0 1,1 2,0 6,6 0,2 1,1 0,3"></path>
<text class="t2"><tspan x="461" y="2425"><a xmlns:xlink="http://www.w3.org/1999/xlink" xlink:type="simple" xlink:show="replace" xlink:actuate="onRequest" xlink:href="javascript:locateTree('X60005');">X60005</a>
</tspan>

<tspan x="361" y="2425">3</tspan>
</text>
<path class="stroke4" d="M 1295,2594 l -4,0 -1,1 -3,0 -1,1 -2,0 -1,1 -1,0 -1,1 -1,0 -2,2 -1,0 -6,6 0,1 -2,2 0,1 -1,1 0,1 -1,1 0,2 -1,1 0,3 -1,1 0,10 1,1 0,2 1,1 0,2 1,1 0,1 1,1 0,1 2,2 0,1 6,6 1,0 2,2 1,0 1,1 1,0 1,1 2,0 1,1 2,0 1,1 11,0 1,-1 2,0 1,-1 2,0 1,-1 1,0 1,-1 1,0 2,-2 1,0 6,-6 0,-1 2,-2 0,-1 1,-1 0,-1 1,-1 0,-2 1,-1 0,-2 1,-1 0,-10 -1,-1 0,-3 -1,-1 0,-2 -1,-1 0,-1 -1,-1 0,-1 -2,-2 0,-1 -6,-6 -1,0 -2,-2 -1,0 -1,-1 -1,0 -1,-1 -2,0 -1,-1 -3,0 -1,-1 -4,0 m -41,68 l 79,0 0,-75 -79,0 0,75 m 40,-32 l 0,24 m -21,-24 l 41,0 m -45,-21 l  12,21 m 38,-21 l -12,21 m -27,-2 l -8,-7 6,-4 2,11"></path>
<text class="t3"><tspan x="2314" y="2457">.</tspan>
</text>
<text class="t2"><tspan x="2314" y="2493"><a xmlns:xlink="http://www.w3.org/1999/xlink" xlink:type="simple" xlink:show="replace" xlink:actuate="onRequest" xlink:href="javascript:locateTree('A6000');">A6000</a>
</tspan>
</text>
<text class="t2"><tspan x="2314" y="2562">DME control unit</tspan>
</text>
<path class="stroke4" d="M 552,2723 l 2,0 1,-1 1,0 1,-1 0,-1 1,-1 0,-3 -1,-1 0,-1 -1,-1 -1,0 -1,-1 -3,0 -1,1 -1,0 -1,1 0,1 -1,1 0,3 1,1 0,1 1,1 1,0 1,1 m 7,-5 l -11,0 m 1,-3 l 9,0 m -9,5 l 9,0"></path>
<text class="t2"><tspan x="475" y="2733">31</tspan>
</text>
<path class="stroke4" d="M 542,2726 l 22,0 m -142,-265 l 0,59 m -11,0 l 22,0 0,85 -22,0 0,-85 m 7,140 l 0,5 1,1 0,3 1,1 0,2 1,1 0,1 1,1 0,1 2,2 0,1 6,6 1,0 2,2 1,0 1,1 1,0 1,1 2,0 1,1 3,0 1,1 10,0 1,-1 2,0 1,-1 2,0 1,-1 1,0 1,-1 1,0 2,-2 1,0 6,-6 0,-1 2,-2 0,-1 1,-1 0,-1 1,-1 0,-2 1,-1 0,-2 1,-1 0,-11 -1,-1 0,-2 -1,-1 0,-2 -1,-1 0,-1 -1,-1 0,-1 -2,-2 0,-1 -6,-6 -1,0 -2,-2 -1,0 -1,-1 -1,0 -1,-1 -2,0 -1,-1 -2,0 -1,-1 -10,0 -1,1 -3,0 -1,1 -2,0 -1,1 -1,0 -1,1 -1,0 -2,2 -1,0 -6,6 0,1 -2,2 0,1 -1,1 0,1 -1,1 0,2 -1,1 0,3 -1,1 0,3 m 4,-54 l  0,40 m 6,22 l 41,0 m -45,-22 l 12,22 m 37,-21 l -2,11 -7,-4 9,-7 m -24,21 l 0,60 m 12,-60 l 13,-22 79,0 0,67 m -131,-213 l 2,0 1,-1 1,0 1,-1 0,-1 1,-1 0,-3 -1,-1 0,-1 -1,-1 -1,0 -1,-1 -3,0 -1,1 -1,0 -1,1 0,1 -1,1 0,3 1,1 0,1 1,1 1,0 1,1 m 49,-5 l 24,0 -24,10 0,-22 24,12 m -24,-4 l 16,0 m -16,-4 l 9,0 m -9,11 l 14,0 m -14,4 l 7,0 m -60,-7 l 64,0 m -63,-3 l 9,0 m -9,5 l 9,0 m 1325,227 l 2,0 1,-1 1,0 1,-1 0,-1 1,-1 0,-3 -1,-1 0,-1 -1,-1 -1,0 -1,-1 -3,0 -1,1 -1,0 -1,1 0,1 -1,1 0,3 1,1 0,1 1,1 1,0 1,1 m 7,-5 l -11,0 m 1,-3 l 9,0 m -9,5 l 9,0"></path>
<text class="t2"><tspan x="1674" y="2733">31</tspan>
</text>
<path class="stroke4" d="M 1741,2726 l 23,0 m -142,-265 l 0,59 m -11,0 l 21,0 0,85 -21,0 0,-85 m 7,140 l 0,5 1,1 0,3 1,1 0,2 1,1 0,1 1,1 0,1 1,1 0,1 8,8 1,0 1,1 1,0 1,1 1,0 1,1 1,0 1,1 3,0 1,1 10,0 1,-1 3,0 1,-1 1,0 1,-1 1,0 1,-1 1,0 1,-1 1,0 8,-8 0,-1 1,-1 0,-1 1,-1 0,-1 1,-1 0,-1 1,-1 0,-3 1,-1 0,-11 -1,-1 0,-3 -1,-1 0,-1 -1,-1 0,-1 -1,-1 0,-1 -1,-1 0,-1 -8,-8 -1,0 -1,-1 -1,0 -1,-1 -1,0 -1,-1 -1,0 -1,-1 -3,0 -1,-1 -10,0 -1,1 -3,0 -1,1 -1,0 -1,1 -1,0 -1,1 -1,0 -1,1 -1,0 -8,8 0,1 -1,1 0,1 -1,1 0,1 -1,1 0,2 -1,1 0,3 -1,1 0,3 m 4,-54 l  0,40 m 5,22 l 41,0 m -45,-22 l 13,22 m 36,-21 l -2,11 -6,-4 8,-7 m -23,21 l 0,60 m 12,-60 l 12,-22 79,0 0,67 m -131,-213 l 2,0 1,-1 1,0 1,-1 0,-1 1,-1 0,-3 -1,-1 0,-1 -1,-1 -1,0 -1,-1 -3,0 -1,1 -1,0 -1,1 0,1 -1,1 0,3 1,1 0,1 1,1 1,0 1,1 m 50,-5 l 23,0 -23,10 0,-22 23,12 m -23,-4 l 15,0 m -15,-4 l 8,0 m -8,11 l 14,0 m -14,4 l 6,0 m -60,-7 l 65,0 m -64,-3 l 9,0 m -9,5 l 9,0 m 562,227 l 2,0 1,-1 1,0 1,-1 0,-1 1,-1 0,-3 -1,-1 0,-1 -1,-1 -1,0 -1,-1 -3,0 -1,1 -1,0 -1,1 0,1 -1,1 0,3 1,1 0,1 1,1 1,0 1,1 m 7,-5 l -11,0 m 1,-3 l 9,0 m -9,5 l 9,0"></path>
<text class="t2"><tspan x="2111" y="2733">31</tspan>
</text>
<path class="stroke4" d="M 2178,2726 l 22,0 m -142,-265 l 0,59 m -11,0 l 22,0 0,85 -22,0 0,-85 m 7,140 l 0,5 1,1 0,3 1,1 0,2 1,1 0,1 1,1 0,1 2,2 0,1 6,6 1,0 2,2 1,0 1,1 1,0 1,1 2,0 1,1 3,0 1,1 10,0 1,-1 2,0 1,-1 2,0 1,-1 1,0 1,-1 1,0 2,-2 1,0 6,-6 0,-1 2,-2 0,-1 1,-1 0,-1 1,-1 0,-2 1,-1 0,-2 1,-1 0,-11 -1,-1 0,-2 -1,-1 0,-2 -1,-1 0,-1 -1,-1 0,-1 -2,-2 0,-1 -6,-6 -1,0 -2,-2 -1,0 -1,-1 -1,0 -1,-1 -2,0 -1,-1 -2,0 -1,-1 -10,0 -1,1 -3,0 -1,1 -2,0 -1,1 -1,0 -1,1 -1,0 -2,2 -1,0 -6,6 0,1 -2,2 0,1 -1,1 0,1 -1,1 0,2 -1,1 0,3 -1,1 0,3 m 4,-54 l  0,40 m 6,22 l 41,0 m -45,-22 l 12,22 m 37,-21 l -2,11 -7,-4 8,-7 m -23,21 l 0,60 m 12,-60 l 13,-22 79,0 0,67 m -131,-213 l 2,0 1,-1 1,0 1,-1 0,-1 1,-1 0,-3 -1,-1 0,-1 -1,-1 -1,0 -1,-1 -3,0 -1,1 -1,0 -1,1 0,1 -1,1 0,3 1,1 0,1 1,1 1,0 1,1 m 49,-5 l 24,0 -24,10 0,-22 24,12 m -24,-4 l 16,0 m -16,-4 l 9,0 m -9,11 l 14,0 m -14,4 l 7,0 m -60,-7 l 64,0 m -63,-3 l 9,0 m -9,5 l 9,0 m -99,-1609 l -4,0 -1,1 -3,0 -1,1 -2,0 -1,1 -1,0 -1,1 -1,0 -2,2 -1,0 -6,6 0,1 -2,2 0,1 -1,1 0,1 -1,1 0,2 -1,1 0,3 -1,1 0,10 1,1 0,2 1,1 0,2 1,1 0,1 1,1 0,1 2,2 0,1 6,6 1,0 2,2 1,0 1,1 1,0 1,1  2,0 1,1 2,0 1,1 11,0 1,-1 2,0 1,-1 2,0 1,-1 1,0 1,-1 1,0 2,-2 1,0 6,-6 0,-1 2,-2 0,-1 1,-1 0,-1 1,-1 0,-2 1,-1 0,-2 1,-1 0,-10 -1,-1 0,-3 -1,-1 0,-2 -1,-1 0,-1 -1,-1 0,-1 -2,-2 0,-1 -6,-6 -1,0 -2,-2 -1,0 -1,-1 -1,0 -1,-1 -2,0 -1,-1 -3,0 -1,-1 -4,0 m -40,68 l 78,0 0,-75 -78,0 0,75 m 39,-32 l 0,25 m -20,-25 l 41,0 m -45,-21 l 12,21 m 37,-21 l -12,21 m -26,-2 l -8,-7 6,-4 2,11 m -1472,1025 l 35,-61 m -34,-1 l 34,0 m -34,63 l 34,0 -35,-62 m -19,29 l 36,0 m -37,-15 l -64,0 0,31 64,0 0,-31 m -25,0 l -20,30 m 8,-122 l 0,92"></path>
<path class="stroke4" d="M 422,1930 l 0,95"></path>
<path class="white" d="M 408,2025 l 28,0 0,27 -28,0 0,-27 z"></path>
<path class="black" d="M 421,2025 l 2,0 0,11 -2,0 0,-11 z"></path>
<path class="stroke4" d="M 421,2025 l 2,0 0,11 -2,0 0,-11"></path>
<path class="stroke6" d="M 435,2038 l 0,3 -1,1 0,2 -6,6 -2,0 -1,1 -6,0 -1,-1 -2,0 -6,-6 0,-2 -1,-1 0,-3"></path>
<text class="t2"><tspan x="460" y="2084"><a xmlns:xlink="http://www.w3.org/1999/xlink" xlink:type="simple" xlink:show="replace" xlink:actuate="onRequest" xlink:href="javascript:locateTree('X6538');">X6538</a>
</tspan>

<tspan x="361" y="2084">2</tspan>
</text>
<path class="white" d="M 436,1807 l -27,0 0,-28 27,0 0,28 z"></path>
<path class="black" d="M 423,1806 l -2,0 0,-11 2,0 0,11 z"></path>
<path class="stroke4" d="M 423,1806 l -2,0 0,-11 2,0 0,11"></path>
<path class="stroke6" d="M 409,1793 l 0,-3 1,-1 0,-2 6,-6 2,0 1,-1 6,0 1,1 2,0 6,6 0,2 1,1 0,3"></path>
<text class="t2"><tspan x="461" y="1771"><a xmlns:xlink="http://www.w3.org/1999/xlink" xlink:type="simple" xlink:show="replace" xlink:actuate="onRequest" xlink:href="javascript:locateTree('X6538');">X6538</a>
</tspan>

<tspan x="361" y="1771">1</tspan>
</text>
<path class="stroke8" d="M 313,1807 l 327,0 0,218 -327,0 0,-218"></path>
<text class="t3"><tspan x="679" y="1816">.</tspan>
</text>
<text class="t2"><tspan x="460" y="1566">U_HR&lt;3</tspan>

<tspan x="460" y="1620">0.5</tspan>

<tspan x="460" y="1664">OR</tspan>

<tspan x="679" y="1852"><a xmlns:xlink="http://www.w3.org/1999/xlink" xlink:type="simple" xlink:show="replace" xlink:actuate="onRequest" xlink:href="javascript:locateTree('Y2381');">Y2381</a>
</tspan>
</text>
<text class="t2"><tspan x="679" y="1921">Volume control</tspan>

<tspan x="679" y="1965">valve</tspan>
</text>
<text class="t3"><tspan x="2314" y="1816">.</tspan>
</text>
<text class="t2"><tspan x="2314" y="1852"><a xmlns:xlink="http://www.w3.org/1999/xlink" xlink:type="simple" xlink:show="replace" xlink:actuate="onRequest" xlink:href="javascript:locateTree('B2261');">B2261</a>
</tspan>
</text>
<text class="t2"><tspan x="2314" y="1921">Rail pressure sen-</tspan>

<tspan x="2314" y="1965">sor</tspan>
</text>
<path class="stroke4" d="M 1867,1888 l 55,0 0,55 -55,0 0,-55"></path>
<path class="stroke3" d="M 1896,1902 l 2,0 1,1 1,0 2,2 0,1 1,1 0,4 -1,1 0,1 -2,2 -1,0 -1,1 -2,0 m -1,-14 l -9,0 0,27 m 0,-13 l 9,0"></path>
<path class="stroke4" d="M 1635,2038 l 28,0 m 14,0 l 29,0 m 13,0 l 29,0 m 13,0 l 29,0 m 13,0 l 29,0 m 14,0 l 28,0 m 14,0 l 29,0 m 13,0 l 29,0 m 13,0 l 29,0 m 13,0 l 29,0"></path>
<path class="white" d="M 1608,2025 l 27,0 0,27 -27,0 0,-27 z"></path>
<path class="black" d="M 1621,2025 l 2,0 0,11 -2,0 0,-11 z"></path>
<path class="stroke4" d="M 1621,2025 l 2,0 0,11 -2,0 0,-11"></path>
<path class="stroke6" d="M 1635,2038 l 0,3 -1,1 0,2 -6,6 -2,0 -1,1 -6,0 -1,-1 -2,0 -6,-6 0,-2 -1,-1 0,-3"></path>
<text class="t2"><tspan x="1560" y="2084">1</tspan>
</text>
<path class="white" d="M 2044,2025 l 28,0 0,27 -28,0 0,-27 z"></path>
<path class="black" d="M 2057,2025 l 2,0 0,11 -2,0 0,-11 z"></path>
<path class="stroke4" d="M 2057,2025 l 2,0 0,11 -2,0 0,-11"></path>
<path class="stroke6" d="M 2071,2038 l 0,3 -1,1 0,2 -6,6 -2,0 -1,1 -6,0 -1,-1 -2,0 -6,-6 0,-2 -1,-1 0,-3"></path>
<text class="t2"><tspan x="2096" y="2084"><a xmlns:xlink="http://www.w3.org/1999/xlink" xlink:type="simple" xlink:show="replace" xlink:actuate="onRequest" xlink:href="javascript:locateTree('X6328');">X6328</a>
</tspan>

<tspan x="1997" y="2084">2</tspan>
</text>
<path class="white" d="M 1854,1807 l -28,0 0,-28 28,0 0,28 z"></path>
<path class="black" d="M 1841,1806 l -2,0 0,-11 2,0 0,11 z"></path>
<path class="stroke4" d="M 1841,1806 l -2,0 0,-11 2,0 0,11"></path>
<path class="stroke6" d="M 1827,1793 l 0,-3 1,-1 0,-2 6,-6 2,0 1,-1 6,0 1,1 2,0 6,6 0,2 1,1 0,3"></path>
<text class="t2"><tspan x="1878" y="1771"><a xmlns:xlink="http://www.w3.org/1999/xlink" xlink:type="simple" xlink:show="replace" xlink:actuate="onRequest" xlink:href="javascript:locateTree('X6328');">X6328</a>
</tspan>

<tspan x="1779" y="1771">3</tspan>
</text>
<path class="white" d="M 1826,1152 l 27,0 0,27 -27,0 0,-27 z"></path>
<path class="black" d="M 1839,1152 l 2,0 0,12 -2,0 0,-12 z"></path>
<path class="stroke4" d="M 1839,1152 l 2,0 0,12 -2,0 0,-12"></path>
<path class="stroke6" d="M 1853,1166 l 0,3 -1,1 0,2 -6,6 -2,0 -1,1 -6,0 -1,-1 -2,0 -6,-6 0,-2 -1,-1 0,-3"></path>
<text class="t2"><tspan x="1878" y="1211"><a xmlns:xlink="http://www.w3.org/1999/xlink" xlink:type="simple" xlink:show="replace" xlink:actuate="onRequest" xlink:href="javascript:locateTree('X60007');">X60007</a>
</tspan>

<tspan x="1756" y="1211">10</tspan>
</text>
<path class="stroke8" d="M 1731,825 l 14,0 m 18,0 l 29,0 m 17,0 l 29,0 m 18,0 l 29,0 m 17,0 l 30,0 m 17,0 l 29,0 m 18,0 l 29,0 m 17,0 l 16,0 0,14 m 0,18 l 0,29 m 0,17 l 0,29 m 0,18 l 0,29 m 0,17 l 0,30 m 0,17 l 0,29 m 0,18 l 0,29 m 0,17 l 0,16 -14,0 m -18,0 l -29,0 m -17,0 l -29,0 m -18,0 l -29,0 m -17,0 l -30,0 m -17,0 l -29,0 m -18,0 l -29,0 m -17,0 l -16,0 0,-14 m 0,-18 l 0,-29 m 0,-17 l 0,-29 m 0,-18 l 0,-29 m 0,-17 l 0,-30 m 0,-17 l 0,-29 m 0,-18 l 0,-29 m 0,-17 l 0,-16"></path>
<text class="t3"><tspan x="2096" y="834">.</tspan>
</text>
<text class="t2"><tspan x="2096" y="870"><a xmlns:xlink="http://www.w3.org/1999/xlink" xlink:type="simple" xlink:show="replace" xlink:actuate="onRequest" xlink:href="javascript:locateTree('A6000');">A6000</a>
</tspan>
</text>
<text class="t2"><tspan x="2096" y="939">DME control unit</tspan>
</text>
<path class="white" d="M 1636,2461 l -28,0 0,-27 28,0 0,27 z"></path>
<path class="black" d="M 1623,2461 l -2,0 0,-11 2,0 0,11 z"></path>
<path class="stroke4" d="M 1623,2461 l -2,0 0,-11 2,0 0,11"></path>
<path class="stroke6" d="M 1609,2447 l 0,-3 1,-1 0,-2 6,-6 2,0 1,-1 6,0 1,1 2,0 6,6 0,2 1,1 0,3"></path>
<text class="t2"><tspan x="1561" y="2425">9</tspan>
</text>
<path class="stroke4" d="M 1635,2447 l 28,0 m 14,0 l 29,0 m 13,0 l 29,0 m 13,0 l 29,0 m 13,0 l 29,0 m 14,0 l 28,0 m 14,0 l 29,0 m 13,0 l 29,0 m 13,0 l 29,0 m 13,0 l 29,0"></path>
<path class="white" d="M 2072,2461 l -27,0 0,-27 27,0 0,27 z"></path>
<path class="black" d="M 2059,2461 l -2,0 0,-11 2,0 0,11 z"></path>
<path class="stroke4" d="M 2059,2461 l -2,0 0,-11 2,0 0,11"></path>
<path class="stroke6" d="M 2045,2447 l 0,-3 1,-1 0,-2 6,-6 2,0 1,-1 6,0 1,1 2,0 6,6 0,2 1,1 0,3"></path>
<text class="t2"><tspan x="2096" y="2425"><a xmlns:xlink="http://www.w3.org/1999/xlink" xlink:type="simple" xlink:show="replace" xlink:actuate="onRequest" xlink:href="javascript:locateTree('X60007');">X60007</a>
</tspan>

<tspan x="1997" y="2425">8</tspan>
</text>
<path class="stroke8" d="M 313,2461 l 15,0 m 17,0 l 30,0 m 18,0 l 30,0 m 18,0 l 30,0 m 18,0 l 30,0 m 18,0 l 30,0 m 17,0 l 30,0 m 18,0 l 30,0 m 18,0 l 30,0 m 18,0 l 30,0 m 18,0 l 30,0 m 17,0 l 30,0 m 18,0 l 30,0 m 18,0 l 30,0 m 18,0 l 30,0 m 18,0 l 30,0 m 17,0 l 30,0 m 18,0 l 30,0 m 18,0 l 30,0 m 18,0 l 30,0 m 18,0 l 30,0 m 17,0 l 30,0 m 18,0 l 30,0 m 18,0 l 30,0 m 18,0 l 30,0 m 18,0 l 30,0 m 17,0 l 30,0 m 18,0 l 30,0 m 18,0 l 30,0 m 18,0 l 30,0 m 18,0 l 30,0 m 17,0 l 30,0 m 18,0 l 30,0"></path>
<path class="stroke8" d="M 1875,2461 l 30,0 m 18,0 l 30,0 m 18,0 l 30,0 m 17,0 l 30,0 m 18,0 l 30,0 m 18,0 l 30,0 m 18,0 l 30,0 m 18,0 l 30,0 m 17,0 l 19,0 0,14 m 0,18 l 0,29 m 0,17 l 0,29 m 0,18 l 0,29 m 0,17 l 0,30 m 0,17 l 0,29 m 0,18 l 0,29 m 0,17 l 0,16 -15,0 m -17,0 l -30,0 m -18,0 l -30,0 m -18,0 l -30,0 m -18,0 l -30,0 m -18,0 l -30,0 m -17,0 l -30,0 m -18,0 l -30,0 m -18,0 l -30,0 m -18,0 l -30,0 m -18,0 l -30,0 m -17,0 l -30,0 m -18,0 l -30,0 m -18,0 l -30,0 m -18,0 l -30,0 m -18,0 l -30,0 m -17,0 l -30,0 m -18,0 l -30,0"></path>
<path class="stroke8" d="M 1431,2788 l -30,0 m -18,0 l -30,0 m -18,0 l -30,0 m -17,0 l -30,0 m -18,0 l -30,0 m -18,0 l -30,0 m -18,0 l -30,0 m -18,0 l -30,0 m -17,0 l -30,0 m -18,0 l -30,0 m -18,0 l -30,0 m -18,0 l -30,0 m -18,0 l -30,0 m -17,0 l -30,0 m -18,0 l -30,0 m -18,0 l -30,0 m -18,0 l -30,0 m -18,0 l -30,0 m -17,0 l -30,0 m -18,0 l -30,0 m -18,0 l -30,0 m -18,0 l -30,0 m -18,0 l -30,0 m -17,0 l -19,0 0,-14 m 0,-18 l 0,-29 m 0,-17 l 0,-29 m 0,-18 l 0,-29 m 0,-17 l 0,-30 m 0,-17 l 0,-29 m 0,-18 l 0,-29 m 0,-17 l 0,-16"></path>
<text class="t2"><tspan x="1878" y="1566">U_RDF</tspan>

<tspan x="1878" y="1620">0.5</tspan>

<tspan x="1878" y="1664">BL</tspan>

<tspan x="460" y="2193">T_MSV</tspan>

<tspan x="460" y="2248">0.5</tspan>

<tspan x="460" y="2291">WS</tspan>
</text>
<path class="stroke8" d="M 1513,1807 l 763,0 0,218 -763,0 0,-218"></path>
<text class="t2"><tspan x="1660" y="2193">A_RDF</tspan>

<tspan x="2096" y="2193">M_RDF</tspan>

<tspan x="2096" y="2248">0.5</tspan>

<tspan x="1660" y="2248">0.5</tspan>

<tspan x="1660" y="2291">GE/RT</tspan>

<tspan x="2096" y="2291">SW/GN</tspan>
</text>
<path style="fill:none;stroke:#000000;stroke-width:15" d="M 586,1479 l -164,0"></path>
<path class="stroke4" d="M 586,1497 l 40,-18 -40,-19 0,37 m 0,-25 l 23,0 m -23,4 l 31,0 m -31,3 l 40,0 m -40,4 l 31,0 m -31,4 l 23,0 m -23,3 l 15,0 m -15,4 l 7,0 m -7,-26 l 16,0 m -16,-3 l 9,0 m -9,-4 l 1,0"></path>
<path class="white" d="M 418,1463 l -1,1 -2,0 -2,2 -1,0 -5,5 0,1 -1,1 0,2 -1,1 0,7 1,1 0,2 1,1 0,1 5,5 1,0 2,2 2,0 1,1 8,0 1,-1 2,0 2,-2 1,0 5,-5 0,-1 1,-1 0,-2 1,-1 0,-7 -1,-1 0,-2 -1,-1 0,-1 -5,-5 -1,0 -2,-2 -2,0 -1,-1 -8,0 z"></path>
<path class="stroke4" d="M 422,1472 l -2,0 -1,1 -1,0 -2,2 0,1 -1,1 0,5 1,1 0,1 2,2 1,0 1,1 4,0 1,-1 1,0 2,-2 0,-1 1,-1 0,-5 -1,-1 0,-1 -2,-2 -1,0 -1,-1 -1,0 m -6,3 l 10,0 m -11,2 l 12,0 m -13,1 l 14,0 m -14,2 l 14,0 m -13,2 l 12,0 m -11,2 l 11,0 m -9,2 l 6,0 m -6,-13 l 6,0 m 1414,-482 l 2,0 1,-1 1,0 1,-1 0,-1 1,-1 0,-3 -1,-1 0,-1 -1,-1 -1,0 -1,-1 -3,0 -1,1 -1,0 -1,1 0,1 -1,1 0,3 1,1 0,1 1,1 1,0 1,1 m 7,-5 l -11,0 m 1,-3 l 10,0 m -10,5 l 9,0 m -4,3 l 0,20 m -11,0 l 22,0 0,85 -22,0 0,-85 m -26,-25 l 74,0 m -37,110 l 0,56"></path>
<text class="t2"><tspan x="1823" y="968">15</tspan>
</text>
<path class="stroke4" d="M 1840,1129 l 2,0 1,-1 1,0 1,-1 0,-1 1,-1 0,-3 -1,-1 0,-1 -1,-1 -1,0 -1,-1 -3,0 -1,1 -1,0 -1,1 0,1 -1,1 0,3 1,1 0,1 1,1 1,0 1,1 m 49,-6 l 24,0 -24,11 0,-22 24,11 m -24,-3 l 16,0 m -16,-4 l 9,0 m -9,11 l 14,0 m -14,4 l 7,0 m -60,-8 l 64,0 m -63,-2 l 9,0 m -9,5 l 9,0"></path>
<text class="t2"><tspan x="679" y="966"><a xmlns:xlink="http://www.w3.org/1999/xlink" xlink:type="simple" xlink:show="replace" xlink:actuate="onRequest" xlink:href="javascript:locateTree('F03');">F03</a>
</tspan>

<tspan x="488" y="1089">20A</tspan>
</text>
<path class="stroke8" d="M 313,934 l 14,0 m 18,0 l 29,0 m 17,0 l 29,0 m 18,0 l 29,0 m 17,0 l 30,0 m 17,0 l 29,0 m 18,0 l 29,0 m 17,0 l 16,0 0,13 m 0,16 l 0,28 m 0,16 l 0,27 m 0,16 l 0,28 m 0,16 l 0,27 m 0,16 l 0,15 -14,0 m -18,0 l -29,0 m -17,0 l -29,0 m -18,0 l -29,0 m -17,0 l -30,0 m -17,0 l -29,0 m -18,0 l -29,0 m -17,0 l -16,0 0,-13 m 0,-16 l 0,-28 m 0,-16 l 0,-27 m 0,-16 l 0,-28 m 0,-16 l 0,-27 m 0,-16 l 0,-15"></path>
<path class="stroke4" d="M 439,1012 l -34,0 0,96 34,0 0,-96 m -17,140 l 0,-140 m -7,-15 l 15,0 m -17,3 l 18,0 m -18,2 l 19,0 m -20,3 l 20,0 m -19,2 l 18,0 m -16,3 l 15,0 m -12,-15 l 9,0 m 1,17 l 4,-4 0,-2 1,-1 0,-3 -1,-1 0,-2 -4,-4 -1,0 -1,-1 -6,0 -1,1 -1,0 -1,1 -1,0 -2,2 0,1 -1,1 0,1 -1,1 0,5 1,1 0,1 1,1 3,2"></path>
<text class="t2"><tspan x="403" y="980">87</tspan>
</text>
<path class="stroke4" d="M 422,1152 l 0,109"></path>
<text class="t3"><tspan x="897" y="834">.</tspan>
</text>
<text class="t2"><tspan x="897" y="870"><a xmlns:xlink="http://www.w3.org/1999/xlink" xlink:type="simple" xlink:show="replace" xlink:actuate="onRequest" xlink:href="javascript:locateTree('A8680');">A8680</a>
</tspan>
</text>
<text class="t2"><tspan x="897" y="939">Fuse carrier, en-</tspan>

<tspan x="897" y="983">gine electronics</tspan>
</text>
<path class="white" d="M 408,1261 l 28,0 0,28 -28,0 0,-28 z"></path>
<path class="black" d="M 421,1262 l 2,0 0,11 -2,0 0,-11 z"></path>
<path class="stroke4" d="M 421,1262 l 2,0 0,11 -2,0 0,-11"></path>
<path class="stroke6" d="M 435,1275 l 0,3 -1,1 0,2 -6,6 -2,0 -1,1 -6,0 -1,-1 -2,0 -6,-6 0,-2 -1,-1 0,-3"></path>
<text class="t2"><tspan x="460" y="1321"><a xmlns:xlink="http://www.w3.org/1999/xlink" xlink:type="simple" xlink:show="replace" xlink:actuate="onRequest" xlink:href="javascript:locateTree('X8680');">X8680</a>
</tspan>

<tspan x="361" y="1321">6</tspan>
</text>
<path class="stroke8" d="M 204,825 l 14,0 m 18,0 l 29,0 m 17,0 l 29,0 m 18,0 l 29,0 m 17,0 l 30,0 m 17,0 l 29,0 m 18,0 l 29,0 m 17,0 l 29,0 m 18,0 l 29,0 m 17,0 l 30,0 m 17,0 l 29,0 m 18,0 l 29,0 m 17,0 l 29,0 m 18,0 l 29,0 m 17,0 l 17,0 0,15 m 0,18 l 0,30 m 0,18 l 0,30 m 0,18 l 0,31 m 0,18 l 0,30 m 0,18 l 0,30 m 0,18 l 0,30 m 0,19 l 0,30 m 0,18 l 0,30 m 0,18 l 0,17 -14,0 m -18,0 l -29,0 m -17,0 l -29,0 m -18,0 l -29,0 m -17,0 l -30,0 m -17,0 l -29,0 m -18,0 l -29,0 m -17,0 l -29,0 m -18,0 l -29,0 m -17,0 l -30,0"></path>
<path class="stroke8" d="M 407,1261 l -29,0 m -18,0 l -29,0 m -17,0 l -29,0 m -18,0 l -29,0 m -17,0 l -17,0 0,-15 m 0,-18 l 0,-30 m 0,-18 l 0,-30 m 0,-18 l 0,-31 m 0,-18 l 0,-30 m 0,-18 l 0,-30 m 0,-18 l 0,-30 m 0,-19 l 0,-30 m 0,-18 l 0,-30 m 0,-18 l 0,-17"></path>
</g>
</svg>
</g></svg>