<svg data-v-f35fd5a0="" xmlns="http://www.w3.org/2000/svg" xmlns:xlink="http://www.w3.org/1999/xlink" xmlns:ev="http://www.w3.org/2001/xml-events" style="overflow: hidden; width: 100%; min-height: 100vh;"><g id="viewport-20201011235608982" class="svg-pan-zoom_viewport" transform="matrix(0.5279062640269516,0,0,0.5279062640269516,170.7458271811262,342.10940529294567)" style="transform: matrix(0.527906, 0, 0, 0.527906, 170.746, 342.109);"><!--?xml version="1.0" encoding="UTF-8"?--> 
<!--?xml-stylesheet href="../../styles/svg.css" type="text/css"?--> 
<svg xmlns="http://www.w3.org/2000/svg" id="svgid" xml:space="preserve" viewBox="37 607 10734 2961" preserveAspectRatio="xMinYMin meet" zoomAndPan="magnify" version="1.0" width="100%" height="100%" contentscripttype="text/ecmascript" contentstyletype="text/css" xmlns:xlink="http://www.w3.org/1999/xlink">
<title>Schaltplan Viewer - Copyright BMW AG 2007</title>
<style xml:space="preserve" type="text/css">path {fill-rule:evenodd; stroke-linecap:round; stroke-linejoin:round}
rect {stroke-linejoin:miter}
text.t1 {font-family:'Courier SWA',monospace;font-size:31;fill:#000000}
path.white {fill:#FFFFFF;stroke:none}
path.black {fill:#000000;stroke:none}
path.stroke3 {fill:none;stroke:#000000;stroke-width:3}
path.stroke4 {fill:none;stroke:#000000;stroke-width:4}
path.stroke5 {fill:none;stroke:#000000;stroke-width:5}
path.stroke6 {fill:none;stroke:#000000;stroke-width:6}
path.stroke7 {fill:none;stroke:#000000;stroke-width:7 }
path.stroke8 {fill:none;stroke:#000000;stroke-width:8 }
path.stroke9 {fill:none;stroke:#000000;stroke-width:9 }
path.stroke10 {fill:none;stroke:#000000;stroke-width:10 }
path.stroke11 {fill:none;stroke:#000000;stroke-width:11}
path.stroke14 {fill:none;stroke:#000000;stroke-width:14}</style>
<desc>customer: BMW
date: 24.07.2007
time: 12:07:24
language: British engl
project: E65
version: 1.0</desc>
<g id="gid">
<text class="t1"></text>
<path style="fill:#DFDFDF;stroke:none" d="M 3258,2025 l 654,0 0,218 -654,0 0,-218 z"></path>
<path class="stroke8" d="M 3258,2025 l 654,0 0,218 -654,0 0,-218"></path>
<path style="fill:#DFDFDF;stroke:none" d="M 4784,2025 l 655,0 0,218 -655,0 0,-218 z"></path>
<path class="stroke8" d="M 4784,2025 l 655,0 0,218 -655,0 0,-218"></path>
<path style="fill:#DFDFDF;stroke:none" d="M 204,2025 l 654,0 0,218 -654,0 0,-218 z"></path>
<path class="stroke8" d="M 204,2025 l 654,0 0,218 -654,0 0,-218"></path>
<path style="fill:#DFDFDF;stroke:none" d="M 1731,2025 l 654,0 0,218 -654,0 0,-218 z"></path>
<path class="stroke8" d="M 1731,2025 l 654,0 0,218 -654,0 0,-218"></path>
<path style="fill:#DFDFDF;stroke:none" d="M 6311,2025 l 654,0 0,218 -654,0 0,-218 z"></path>
<path class="stroke8" d="M 6311,2025 l 654,0 0,218 -654,0 0,-218"></path>
<path style="fill:#DFDFDF;stroke:none" d="M 7838,2025 l 654,0 0,218 -654,0 0,-218 z"></path>
<path class="stroke8" d="M 7838,2025 l 654,0 0,218 -654,0 0,-218"></path>
<path style="fill:#DFDFDF;stroke:none" d="M 204,2897 l 7961,0 0,327 -7961,0 0,-327 z"></path>
<path class="stroke8" d="M 204,2897 l 15,0 m 17,0 l 30,0 m 18,0 l 30,0 m 18,0 l 30,0 m 18,0 l 30,0 m 18,0 l 30,0 m 17,0 l 30,0 m 18,0 l 30,0 m 18,0 l 30,0 m 18,0 l 30,0 m 18,0 l 30,0 m 17,0 l 30,0 m 18,0 l 30,0 m 18,0 l 30,0 m 18,0 l 30,0 m 18,0 l 30,0 m 17,0 l 30,0 m 18,0 l 30,0 m 18,0 l 30,0 m 18,0 l 30,0 m 18,0 l 30,0 m 17,0 l 30,0 m 18,0 l 30,0 m 18,0 l 30,0 m 18,0 l 30,0 m 18,0 l 30,0 m 17,0 l 30,0 m 18,0 l 30,0 m 18,0 l 30,0 m 18,0 l 30,0 m 18,0 l 30,0 m 17,0 l 30,0 m 18,0 l 30,0"></path>
<path class="stroke8" d="M 1766,2897 l 30,0 m 18,0 l 30,0 m 18,0 l 30,0 m 17,0 l 30,0 m 18,0 l 30,0 m 18,0 l 30,0 m 18,0 l 30,0 m 18,0 l 30,0 m 17,0 l 30,0 m 18,0 l 30,0 m 18,0 l 30,0 m 18,0 l 30,0 m 18,0 l 30,0 m 17,0 l 30,0 m 18,0 l 30,0 m 18,0 l 30,0 m 18,0 l 30,0 m 18,0 l 30,0 m 17,0 l 30,0 m 18,0 l 30,0 m 18,0 l 30,0 m 18,0 l 30,0 m 18,0 l 30,0 m 17,0 l 30,0 m 18,0 l 30,0 m 18,0 l 30,0 m 18,0 l 30,0 m 18,0 l 30,0 m 17,0 l 30,0 m 18,0 l 30,0 m 18,0 l 30,0 m 18,0 l 30,0 m 18,0 l 30,0"></path>
<path class="stroke8" d="M 3343,2897 l 30,0 m 18,0 l 30,0 m 18,0 l 30,0 m 18,0 l 30,0 m 18,0 l 30,0 m 17,0 l 30,0 m 18,0 l 30,0 m 18,0 l 30,0 m 18,0 l 30,0 m 18,0 l 30,0 m 17,0 l 30,0 m 18,0 l 30,0 m 18,0 l 30,0 m 18,0 l 30,0 m 18,0 l 30,0 m 17,0 l 30,0 m 18,0 l 30,0 m 18,0 l 30,0 m 18,0 l 30,0 m 18,0 l 30,0 m 17,0 l 30,0 m 18,0 l 30,0 m 18,0 l 30,0 m 18,0 l 30,0 m 18,0 l 30,0 m 17,0 l 30,0 m 18,0 l 30,0 m 18,0 l 30,0 m 18,0 l 30,0 m 18,0 l 30,0 m 17,0 l 30,0 m 18,0 l 30,0 m 18,0 l 30,0"></path>
<path class="stroke8" d="M 4921,2897 l 30,0 m 18,0 l 30,0 m 17,0 l 30,0 m 18,0 l 30,0 m 18,0 l 30,0 m 18,0 l 30,0 m 18,0 l 30,0 m 17,0 l 30,0 m 18,0 l 30,0 m 18,0 l 30,0 m 18,0 l 30,0 m 18,0 l 30,0 m 17,0 l 30,0 m 18,0 l 30,0 m 18,0 l 30,0 m 18,0 l 30,0 m 18,0 l 30,0 m 17,0 l 30,0 m 18,0 l 30,0 m 18,0 l 30,0 m 18,0 l 30,0 m 18,0 l 30,0 m 17,0 l 30,0 m 18,0 l 30,0 m 18,0 l 30,0 m 18,0 l 30,0 m 18,0 l 30,0 m 17,0 l 30,0 m 18,0 l 30,0 m 18,0 l 30,0 m 18,0 l 30,0 m 18,0 l 30,0 m 17,0 l 30,0"></path>
<path class="stroke8" d="M 6498,2897 l 30,0 m 18,0 l 30,0 m 18,0 l 30,0 m 18,0 l 30,0 m 17,0 l 30,0 m 18,0 l 30,0 m 18,0 l 30,0 m 18,0 l 30,0 m 18,0 l 30,0 m 17,0 l 30,0 m 18,0 l 30,0 m 18,0 l 30,0 m 18,0 l 30,0 m 18,0 l 30,0 m 17,0 l 30,0 m 18,0 l 30,0 m 18,0 l 30,0 m 18,0 l 30,0 m 18,0 l 30,0 m 17,0 l 30,0 m 18,0 l 30,0 m 18,0 l 30,0 m 18,0 l 30,0 m 18,0 l 30,0 m 17,0 l 30,0 m 18,0 l 30,0 m 18,0 l 30,0 m 18,0 l 30,0 m 18,0 l 30,0 m 17,0 l 30,0 m 18,0 l 30,0 m 18,0 l 30,0 m 18,0 l 30,0"></path>
<path class="stroke8" d="M 8076,2897 l 30,0 m 17,0 l 30,0 m 12,0 l 0,14 m 0,18 l 0,29 m 0,17 l 0,29 m 0,18 l 0,29 m 0,17 l 0,30 m 0,17 l 0,29 m 0,18 l 0,29 m 0,17 l 0,16 -15,0 m -17,0 l -30,0 m -18,0 l -30,0 m -18,0 l -30,0 m -18,0 l -30,0 m -18,0 l -30,0 m -17,0 l -30,0 m -18,0 l -30,0 m -18,0 l -30,0 m -18,0 l -30,0 m -18,0 l -30,0 m -17,0 l -30,0 m -18,0 l -30,0 m -18,0 l -30,0 m -18,0 l -30,0 m -18,0 l -30,0 m -17,0 l -30,0 m -18,0 l -30,0 m -18,0 l -30,0 m -18,0 l -30,0 m -18,0 l -30,0 m -17,0 l -30,0 m -18,0 l -30,0 m -18,0 l -30,0"></path>
<path class="stroke8" d="M 7033,3224 l -30,0 m -18,0 l -30,0 m -17,0 l -30,0 m -18,0 l -30,0 m -18,0 l -30,0 m -18,0 l -30,0 m -18,0 l -30,0 m -17,0 l -30,0 m -18,0 l -30,0 m -18,0 l -30,0 m -18,0 l -30,0 m -18,0 l -30,0 m -17,0 l -30,0 m -18,0 l -30,0 m -18,0 l -30,0 m -18,0 l -30,0 m -18,0 l -30,0 m -17,0 l -30,0 m -18,0 l -30,0 m -18,0 l -30,0 m -18,0 l -30,0 m -18,0 l -30,0 m -17,0 l -30,0 m -18,0 l -30,0 m -18,0 l -30,0 m -18,0 l -30,0 m -18,0 l -30,0 m -17,0 l -30,0 m -18,0 l -30,0 m -18,0 l -30,0 m -18,0 l -30,0 m -18,0 l -30,0 m -17,0 l -30,0"></path>
<path class="stroke8" d="M 5456,3224 l -30,0 m -18,0 l -30,0 m -18,0 l -30,0 m -18,0 l -30,0 m -17,0 l -30,0 m -18,0 l -30,0 m -18,0 l -30,0 m -18,0 l -30,0 m -18,0 l -30,0 m -17,0 l -30,0 m -18,0 l -30,0 m -18,0 l -30,0 m -18,0 l -30,0 m -18,0 l -30,0 m -17,0 l -30,0 m -18,0 l -30,0 m -18,0 l -30,0 m -18,0 l -30,0 m -18,0 l -30,0 m -17,0 l -30,0 m -18,0 l -30,0 m -18,0 l -30,0 m -18,0 l -30,0 m -18,0 l -30,0 m -17,0 l -30,0 m -18,0 l -30,0 m -18,0 l -30,0 m -18,0 l -30,0 m -18,0 l -30,0 m -17,0 l -30,0 m -18,0 l -30,0 m -18,0 l -30,0 m -18,0 l -30,0"></path>
<path class="stroke8" d="M 3878,3224 l -30,0 m -17,0 l -30,0 m -18,0 l -30,0 m -18,0 l -30,0 m -18,0 l -30,0 m -18,0 l -30,0 m -17,0 l -30,0 m -18,0 l -30,0 m -18,0 l -30,0 m -18,0 l -30,0 m -18,0 l -30,0 m -17,0 l -30,0 m -18,0 l -30,0 m -18,0 l -30,0 m -18,0 l -30,0 m -18,0 l -30,0 m -17,0 l -30,0 m -18,0 l -30,0 m -18,0 l -30,0 m -18,0 l -30,0 m -18,0 l -30,0 m -17,0 l -30,0 m -18,0 l -30,0 m -18,0 l -30,0 m -18,0 l -30,0 m -18,0 l -30,0 m -17,0 l -30,0 m -18,0 l -30,0 m -18,0 l -30,0 m -18,0 l -30,0 m -18,0 l -30,0 m -17,0 l -30,0 m -18,0 l -30,0"></path>
<path class="stroke8" d="M 2301,3224 l -30,0 m -18,0 l -30,0 m -18,0 l -30,0 m -17,0 l -30,0 m -18,0 l -30,0 m -18,0 l -30,0 m -18,0 l -30,0 m -18,0 l -30,0 m -17,0 l -30,0 m -18,0 l -30,0 m -18,0 l -30,0 m -18,0 l -30,0 m -18,0 l -30,0 m -17,0 l -30,0 m -18,0 l -30,0 m -18,0 l -30,0 m -18,0 l -30,0 m -18,0 l -30,0 m -17,0 l -30,0 m -18,0 l -30,0 m -18,0 l -30,0 m -18,0 l -30,0 m -18,0 l -30,0 m -17,0 l -30,0 m -18,0 l -30,0 m -18,0 l -30,0 m -18,0 l -30,0 m -18,0 l -30,0 m -17,0 l -30,0 m -18,0 l -30,0 m -18,0 l -30,0 m -18,0 l -30,0 m -18,0 l -30,0"></path>
<path class="stroke8" d="M 724,3224 l -30,0 m -18,0 l -30,0 m -18,0 l -30,0 m -18,0 l -30,0 m -18,0 l -30,0 m -17,0 l -30,0 m -18,0 l -30,0 m -18,0 l -30,0 m -18,0 l -30,0 m -18,0 l -30,0 m -17,0 l -30,0 m -12,0 l 0,-14 m 0,-18 l 0,-29 m 0,-17 l 0,-29 m 0,-18 l 0,-29 m 0,-17 l 0,-30 m 0,-17 l 0,-29 m 0,-18 l 0,-29 m 0,-17 l 0,-16"></path>
<path style="fill:#DFDFDF;stroke:none" d="M 749,825 l 655,0 0,436 -655,0 0,-436 z"></path>
<path class="stroke8" d="M 749,825 l 14,0 m 18,0 l 29,0 m 17,0 l 30,0 m 17,0 l 29,0 m 18,0 l 29,0 m 17,0 l 30,0 m 17,0 l 29,0 m 18,0 l 29,0 m 18,0 l 29,0 m 17,0 l 29,0 m 18,0 l 29,0 m 18,0 l 29,0 m 17,0 l 30,0 m 17,0 l 29,0 m 18,0 l 16,0 0,15 m 0,18 l 0,30 m 0,18 l 0,30 m 0,18 l 0,31 m 0,18 l 0,30 m 0,18 l 0,30 m 0,18 l 0,30 m 0,19 l 0,30 m 0,18 l 0,30 m 0,18 l 0,17 -14,0 m -18,0 l -29,0 m -17,0 l -30,0 m -17,0 l -29,0 m -18,0 l -29,0 m -17,0 l -30,0 m -17,0 l -29,0 m -18,0 l -29,0 m -18,0 l -29,0 m -17,0 l -29,0"></path>
<path class="stroke8" d="M 952,1261 l -29,0 m -18,0 l -29,0 m -17,0 l -30,0 m -17,0 l -29,0 m -18,0 l -16,0 0,-15 m 0,-18 l 0,-30 m 0,-18 l 0,-30 m 0,-18 l 0,-31 m 0,-18 l 0,-30 m 0,-18 l 0,-30 m 0,-18 l 0,-30 m 0,-19 l 0,-30 m 0,-18 l 0,-30 m 0,-18 l 0,-17"></path>
<path style="fill:#DFDFDF;stroke:none" d="M 858,934 l 328,0 0,218 -328,0 0,-218 z"></path>
<path class="stroke8" d="M 858,934 l 14,0 m 18,0 l 29,0 m 17,0 l 30,0 m 17,0 l 29,0 m 18,0 l 29,0 m 17,0 l 30,0 m 17,0 l 29,0 m 18,0 l 16,0 0,13 m 0,16 l 0,28 m 0,16 l 0,27 m 0,16 l 0,28 m 0,16 l 0,27 m 0,16 l 0,15 -14,0 m -18,0 l -29,0 m -17,0 l -30,0 m -17,0 l -29,0 m -18,0 l -29,0 m -17,0 l -30,0 m -17,0 l -29,0 m -18,0 l -16,0 0,-13 m 0,-16 l 0,-28 m 0,-16 l 0,-27 m 0,-16 l 0,-28 m 0,-16 l 0,-27 m 0,-16 l 0,-15"></path>
<path style="fill:#DFDFDF;stroke:none" d="M 9365,2025 l 327,0 0,218 -327,0 0,-218 z"></path>
<path class="stroke8" d="M 9365,2025 l 327,0 0,218 -327,0 0,-218"></path>
<path class="stroke4" d="M 313,1698 l 9161,0"></path>
<path style="fill:none;stroke:#000000;stroke-width:15" d="M 4894,1698 l 0,299 m 0,273 l 0,600 m -1527,-600 l 0,600 m -1527,-600 l 0,600 m -1527,-600 l 0,600 m 7634,-600 l 0,600 m -1527,-600 l 0,600 m 0,-1172 l 0,299 m 1527,-299 l 0,299 m -4580,-299 l 0,299 m -3054,-299 l 0,299 m 1527,-299 l 0,299 m 1854,273 l 0,382 m 1527,-382 l 0,382"></path>
<path class="stroke4" d="M 3476,2216 l 0,-164 m 11,44 l -22,0 0,81 22,0 0,-81 m -66,0 l 0,84 m 44,-6 l 22,0 m -22,-4 l 22,0 m -22,-4 l 22,0 m 0,-3 l -22,0 m 0,-4 l 22,0 m -22,-3 l 22,0 m -22,-4 l 22,0 m -22,-4 l 22,0 m 0,-3 l -22,0 m 0,-4 l 22,0 m -22,-4 l 22,0 m -22,-3 l 22,0 m -22,-4 l 22,0 m 0,-4 l -22,0 m 0,-3 l 22,0 m -22,-4 l 22,0 m -22,-3 l 22,0 m -22,-4 l 22,0 m 0,-4 l -22,0 m 0,-3 l 22,0 m -22,-4 l 22,0 m -22,-4 l 22,0 m 298,64 l 18,40 19,-40 -37,0 m 25,0 l 0,24 m -3,-24 l 0,31 m -4,-31 l 0,40 m -4,-40 l 0,31 m -3,-31 l 0,23 m -4,-23 l 0,15 m -4,-15 l 0,7"></path>
<path class="stroke4" d="M 3814,2161 l 0,16 m 4,-16 l 0,9 m 3,-9 l 0,2 m -454,80 l 0,-219 m 11,72 l -22,0 0,81 22,0 0,-81 m -22,78 l 22,0 m -22,-4 l 22,0 m -22,-4 l 22,0 m 0,-3 l -22,0 m 0,-4 l 22,0 m -22,-3 l 22,0 m -22,-4 l 22,0 m -22,-4 l 22,0 m 0,-3 l -22,0 m 0,-4 l 22,0 m -22,-4 l 22,0 m -22,-3 l 22,0 m -22,-4 l 22,0 m 0,-4 l -22,0 m 0,-3 l 22,0 m -22,-4 l 22,0 m -22,-3 l 22,0 m -22,-4 l 22,0 m 0,-4 l -22,0 m 0,-3 l 22,0 m -22,-4 l 22,0 m -22,-4 l 22,0 m 98,-45 l 327,0 0,136 m -327,28 l 218,0 0,27 m 1309,-27 l 0,-164 m 10,44 l -21,0 0,81 21,0 0,-81 m -65,0 l 0,84 m 44,-6 l 21,0"></path>
<path class="stroke4" d="M 4992,2170 l 21,0 m -21,-4 l 21,0 m 0,-3 l -21,0 m 0,-4 l 21,0 m -21,-3 l 21,0 m -21,-4 l 21,0 m -21,-4 l 21,0 m 0,-3 l -21,0 m 0,-4 l 21,0 m -21,-4 l 21,0 m -21,-3 l 21,0 m -21,-4 l 21,0 m 0,-4 l -21,0 m 0,-3 l 21,0 m -21,-4 l 21,0 m -21,-3 l 21,0 m -21,-4 l 21,0 m 0,-4 l -21,0 m 0,-3 l 21,0 m -21,-4 l 21,0 m -21,-4 l 21,0 m 299,64 l 18,40 19,-40 -37,0 m 25,0 l 0,24 m -4,-24 l 0,31 m -3,-31 l 0,40 m -4,-40 l 0,31 m -3,-31 l 0,23 m -4,-23 l 0,15 m -4,-15 l 0,7 m 26,-7 l 0,16 m 3,-16 l 0,9 m 4,-9 l 0,2 m -454,80 l 0,-219"></path>
<path class="stroke4" d="M 4904,2096 l -21,0 0,81 21,0 0,-81 m -21,78 l 21,0 m -21,-4 l 21,0 m -21,-4 l 21,0 m 0,-3 l -21,0 m 0,-4 l 21,0 m -21,-3 l 21,0 m -21,-4 l 21,0 m -21,-4 l 21,0 m 0,-3 l -21,0 m 0,-4 l 21,0 m -21,-4 l 21,0 m -21,-3 l 21,0 m -21,-4 l 21,0 m 0,-4 l -21,0 m 0,-3 l 21,0 m -21,-4 l 21,0 m -21,-3 l 21,0 m -21,-4 l 21,0 m 0,-4 l -21,0 m 0,-3 l 21,0 m -21,-4 l 21,0 m -21,-4 l 21,0 m 99,-45 l 327,0 0,136 m -327,28 l 218,0 0,27"></path>
<text class="t2"><tspan x="3850" y="2207">4</tspan>

<tspan x="5376" y="2207">4</tspan>
</text>
<path class="stroke4" d="M 3380,2256 l 30,0 m 15,0 l 30,0 m 15,0 l 30,0 m 15,0 l 30,0 m 15,0 l 30,0 m 15,0 l 30,0 m 15,0 l 30,0 m 1233,0 l 30,0 m 15,0 l 30,0 m 15,0 l 30,0 m 15,0 l 30,0 m 15,0 l 30,0 m 15,0 l 30,0 m 15,0 l 30,0"></path>
<path class="stroke8" d="M 3708,2679 l -28,0"></path>
<path class="white" d="M 3701,2669 l 6,0 0,-8 -1,-1 0,-1 -2,-2 0,-1 -1,-1 -1,0 -2,-2 -2,0 -1,-1 -6,0 -1,1 -2,0 -6,6 0,1 -1,1 0,8 6,0 0,-2 3,-3 1,0 1,-1 4,0 1,1 1,0 3,3 0,2 z"></path>
<path class="stroke4" d="M 3689,2665 l 10,0 m -11,2 l 12,0 m -13,2 l 14,0 m -14,1 l 13,0 m -12,2 l 12,0 m -11,2 l 10,0 m -5,-11 l -2,0 -1,1 -1,0 -2,2 0,1 -1,1 0,3 1,1 0,1 2,2 1,0 1,1 4,0 1,-1 1,0 2,-2 0,-1 1,-1 0,-3 -1,-1 0,-1 -2,-2 -1,0 -1,-1 -1,0 m -3,0 l 4,0"></path>
<text class="t2"><tspan x="3732" y="2643"><a xmlns:xlink="http://www.w3.org/1999/xlink" xlink:type="simple" xlink:show="replace" xlink:actuate="onRequest" xlink:href="javascript:locateTree('X6171');">X6171</a>
</tspan>
</text>
<path class="stroke8" d="M 5234,2679 l -27,0"></path>
<path class="white" d="M 5227,2669 l 7,0 0,-8 -1,-1 0,-1 -5,-5 -1,0 -1,-1 -1,0 -1,-1 -7,0 -1,1 -1,0 -1,1 -1,0 -5,5 0,1 -1,1 0,8 7,0 0,-2 4,-4 5,0 4,4 0,2 z"></path>
<path class="stroke4" d="M 5216,2665 l 10,0 m -11,2 l 12,0 m -13,2 l 13,0 m -13,1 l 13,0 m -12,2 l 12,0 m -11,2 l 10,0 m -5,-11 l -2,0 -1,1 -1,0 -2,2 0,1 -1,1 0,3 1,1 0,1 2,2 1,0 1,1 4,0 1,-1 1,0 2,-2 0,-1 1,-1 0,-3 -1,-1 0,-1 -2,-2 -1,0 -1,-1 -1,0 m -4,0 l 5,0"></path>
<text class="t2"><tspan x="5259" y="2643"><a xmlns:xlink="http://www.w3.org/1999/xlink" xlink:type="simple" xlink:show="replace" xlink:actuate="onRequest" xlink:href="javascript:locateTree('X6171');">X6171</a>
</tspan>
</text>
<path class="white" d="M 3380,2025 l -27,0 0,-28 27,0 0,28 z"></path>
<path class="black" d="M 3368,2024 l -2,0 0,-11 2,0 0,11 z"></path>
<path class="stroke4" d="M 3368,2024 l -2,0 0,-11 2,0 0,11"></path>
<path class="stroke6" d="M 3354,2011 l 0,-3 1,-1 0,-2 6,-6 2,0 1,-1 6,0 1,1 2,0 6,6 0,2 1,1 0,3"></path>
<text class="t2"><tspan x="3405" y="1989"><a xmlns:xlink="http://www.w3.org/1999/xlink" xlink:type="simple" xlink:show="replace" xlink:actuate="onRequest" xlink:href="javascript:locateTree('X6153');">X6153</a>
</tspan>

<tspan x="3306" y="1989">3</tspan>
</text>
<path class="white" d="M 3353,2243 l 27,0 0,27 -27,0 0,-27 z"></path>
<path class="black" d="M 3366,2243 l 1,0 0,11 -1,0 0,-11 z"></path>
<path class="stroke4" d="M 3366,2243 l 1,0 0,11 -1,0 0,-11"></path>
<path class="stroke6" d="M 3380,2256 l 0,3 -1,1 0,2 -1,1 0,1 -4,4 -1,0 -1,1 -1,0 -1,1 -6,0 -1,-1 -1,0 -1,-1 -1,0 -4,-4 0,-1 -1,-1 0,-2 -1,-1 0,-3"></path>
<text class="t2"><tspan x="3305" y="2302">1</tspan>
</text>
<path class="white" d="M 3680,2243 l 27,0 0,27 -27,0 0,-27 z"></path>
<path class="black" d="M 3693,2243 l 2,0 0,11 -2,0 0,-11 z"></path>
<path class="stroke4" d="M 3693,2243 l 2,0 0,11 -2,0 0,-11"></path>
<path class="stroke6" d="M 3707,2256 l 0,3 -1,1 0,2 -1,1 0,1 -4,4 -1,0 -1,1 -1,0 -1,1 -6,0 -1,-1 -1,0 -1,-1 -1,0 -4,-4 0,-1 -1,-1 0,-2 -1,-1 0,-3"></path>
<text class="t2"><tspan x="3732" y="2302"><a xmlns:xlink="http://www.w3.org/1999/xlink" xlink:type="simple" xlink:show="replace" xlink:actuate="onRequest" xlink:href="javascript:locateTree('X6153');">X6153</a>
</tspan>

<tspan x="3633" y="2302">2</tspan>
</text>
<path class="white" d="M 4880,2243 l 27,0 0,27 -27,0 0,-27 z"></path>
<path class="black" d="M 4893,2243 l 1,0 0,11 -1,0 0,-11 z"></path>
<path class="stroke4" d="M 4893,2243 l 1,0 0,11 -1,0 0,-11"></path>
<path class="stroke6" d="M 4907,2256 l 0,3 -1,1 0,2 -1,1 0,1 -4,4 -1,0 -1,1 -1,0 -1,1 -7,0 -1,-1 -1,0 -1,-1 -1,0 -4,-4 0,-1 -1,-1 0,-2 -1,-1 0,-3"></path>
<text class="t2"><tspan x="4832" y="2302">1</tspan>
</text>
<path class="white" d="M 5207,2243 l 27,0 0,27 -27,0 0,-27 z"></path>
<path class="black" d="M 5220,2243 l 1,0 0,11 -1,0 0,-11 z"></path>
<path class="stroke4" d="M 5220,2243 l 1,0 0,11 -1,0 0,-11"></path>
<path class="stroke6" d="M 5234,2256 l 0,3 -1,1 0,2 -1,1 0,1 -4,4 -1,0 -1,1 -1,0 -1,1 -6,0 -1,-1 -1,0 -1,-1 -1,0 -4,-4 0,-1 -1,-1 0,-2 -1,-1 0,-3"></path>
<text class="t2"><tspan x="5259" y="2302"><a xmlns:xlink="http://www.w3.org/1999/xlink" xlink:type="simple" xlink:show="replace" xlink:actuate="onRequest" xlink:href="javascript:locateTree('X6154');">X6154</a>
</tspan>

<tspan x="5159" y="2302">2</tspan>
</text>
<path class="white" d="M 4907,2025 l -27,0 0,-28 27,0 0,28 z"></path>
<path class="black" d="M 4894,2024 l -1,0 0,-11 1,0 0,11 z"></path>
<path class="stroke4" d="M 4894,2024 l -1,0 0,-11 1,0 0,11"></path>
<path class="stroke6" d="M 4880,2011 l 0,-3 1,-1 0,-1 1,-1 0,-1 4,-4 1,0 1,-1 1,0 1,-1 7,0 1,1 1,0 1,1 1,0 4,4 0,1 1,1 0,1 1,1 0,3"></path>
<text class="t2"><tspan x="4932" y="1989"><a xmlns:xlink="http://www.w3.org/1999/xlink" xlink:type="simple" xlink:show="replace" xlink:actuate="onRequest" xlink:href="javascript:locateTree('X6154');">X6154</a>
</tspan>

<tspan x="4832" y="1989">3</tspan>
</text>
<path class="white" d="M 3380,2897 l -27,0 0,-27 27,0 0,27 z"></path>
<path class="black" d="M 3368,2897 l -2,0 0,-11 2,0 0,11 z"></path>
<path class="stroke4" d="M 3368,2897 l -2,0 0,-11 2,0 0,11"></path>
<path class="stroke6" d="M 3354,2884 l 0,-3 1,-1 0,-2 1,-1 0,-1 4,-4 1,0 1,-1 1,0 1,-1 6,0 1,1 1,0 1,1 1,0 4,4 0,1 1,1 0,2 1,1 0,3"></path>
<text class="t2"><tspan x="3306" y="2861">3</tspan>
</text>
<path class="white" d="M 4907,2897 l -27,0 0,-27 27,0 0,27 z"></path>
<path class="black" d="M 4894,2897 l -1,0 0,-11 1,0 0,11 z"></path>
<path class="stroke4" d="M 4894,2897 l -1,0 0,-11 1,0 0,11"></path>
<path class="stroke6" d="M 4880,2884 l 0,-3 1,-1 0,-2 1,-1 0,-1 4,-4 1,0 1,-1 1,0 1,-1 7,0 1,1 1,0 1,1 1,0 4,4 0,1 1,1 0,2 1,1 0,3"></path>
<text class="t2"><tspan x="4832" y="2861">4</tspan>
</text>
<path class="stroke4" d="M 3380,2884 l 30,0 m 14,0 l 30,0 m 14,0 l 31,0 m 14,0 l 30,0 m 14,0 l 30,0 m 15,0 l 30,0 m 14,0 l 30,0 m 14,0 l 31,0 m 14,0 l 30,0 m 14,0 l 30,0 m 15,0 l 30,0 m 14,0 l 30,0 m 14,0 l 31,0 m 14,0 l 30,0 m 14,0 l 30,0 m 15,0 l 30,0 m 14,0 l 30,0 m 14,0 l 31,0 m 14,0 l 30,0 m 14,0 l 30,0 m 15,0 l 30,0 m 14,0 l 30,0 m 14,0 l 31,0 m 14,0 l 30,0 m 14,0 l 30,0 m 15,0 l 30,0 m 14,0 l 30,0 m 14,0 l 31,0 m 14,0 l 30,0 m 14,0 l 30,0 m 15,0 l 30,0 m 14,0 l 30,0 m 14,0 l 31,0"></path>
<path class="stroke4" d="M 4845,2884 l 30,0"></path>
<text class="t2"><tspan x="3405" y="1784">U_HR&lt;39</tspan>

<tspan x="4932" y="1784">U_HR&lt;39</tspan>

<tspan x="4932" y="1839">1.0</tspan>

<tspan x="3405" y="1839">1.0</tspan>

<tspan x="4932" y="1882">OR</tspan>

<tspan x="3405" y="1882">OR</tspan>

<tspan x="3732" y="2438">M_ZS</tspan>

<tspan x="3405" y="2438">P_ZSZ3</tspan>

<tspan x="4932" y="2438">P_ZSZ4</tspan>

<tspan x="5259" y="2438">M_ZS</tspan>

<tspan x="3732" y="2493">1.0</tspan>

<tspan x="4932" y="2493">1.0</tspan>

<tspan x="5259" y="2493">1.0</tspan>

<tspan x="3405" y="2493">1.0</tspan>

<tspan x="3732" y="2537">BR</tspan>

<tspan x="5259" y="2537">BR</tspan>

<tspan x="4932" y="2537">WS</tspan>

<tspan x="3405" y="2537">WS/GR</tspan>
</text>
<path class="stroke4" d="M 3497,3159 l 2,0 1,-1 1,0 1,-1 0,-1 1,-1 0,-3 -1,-1 0,-1 -1,-1 -1,0 -1,-1 -3,0 -1,1 -1,0 -1,1 0,1 -1,1 0,3 1,1 0,1 1,1 1,0 1,1 m 7,-5 l -11,0 m 1,-3 l 9,0 m -9,5 l 9,0"></path>
<text class="t2"><tspan x="3419" y="3169">31</tspan>
</text>
<path class="stroke4" d="M 3486,3162 l 22,0 m -141,-265 l 0,60 m -11,0 l 21,0 0,85 -21,0 0,-85 m 6,139 l 0,5 1,1 0,3 1,1 0,2 1,1 0,1 1,1 0,1 2,2 0,1 6,6 1,0 2,2 1,0 1,1 1,0 1,1 2,0 1,1 3,0 1,1 10,0 1,-1 2,0 1,-1 2,0 1,-1 1,0 1,-1 1,0 2,-2 1,0 6,-6 0,-1 2,-2 0,-1 1,-1 0,-1 1,-1 0,-2 1,-1 0,-2 1,-1 0,-11 -1,-1 0,-2 -1,-1 0,-2 -1,-1 0,-1 -1,-1 0,-1 -2,-2 0,-1 -6,-6 -1,0 -2,-2 -1,0 -1,-1 -1,0 -1,-1 -2,0 -1,-1 -2,0 -1,-1 -10,0 -1,1 -3,0 -1,1 -2,0 -1,1 -1,0 -1,1 -1,0 -2,2 -1,0 -6,6 0,1 -2,2 0,1 -1,1 0,1 -1,1 0,2 -1,1 0,3 -1,1 0,3 m 5,-53 l  0,39 m 5,22 l 41,0 m -45,-22 l 13,22 m 36,-21 l -2,11 -6,-3 8,-8 m -23,21 l 0,61 m 12,-61 l 12,-22 79,0 0,67 m -131,-213 l 2,0 1,-1 1,0 1,-1 0,-1 1,-1 0,-3 -1,-1 0,-1 -1,-1 -1,0 -1,-1 -3,0 -1,1 -1,0 -1,1 0,1 -1,1 0,3 1,1 0,1 1,1 1,0 1,1 m 50,-5 l 23,0 -23,10 0,-21 23,11 m -23,-4 l 15,0 m -15,-3 l 8,0 m -8,10 l 14,0 m -14,4 l 6,0 m -60,-7 l 65,0 m -64,-3 l 9,0 m -9,5 l 9,0 m 1653,227 l 2,0 1,-1 1,0 1,-1 0,-1 1,-1 0,-3 -1,-1 0,-1 -1,-1 -1,0 -1,-1 -3,0 -1,1 -1,0 -1,1 0,1 -1,1 0,3 1,1 0,1 1,1 1,0 1,1 m 7,-5 l -11,0 m 1,-3 l 9,0 m -9,5 l 9,0"></path>
<text class="t2"><tspan x="4946" y="3169">31</tspan>
</text>
<path class="stroke4" d="M 5013,3162 l 22,0 m -141,-265 l 0,60 m -11,0 l 21,0 0,85 -21,0 0,-85 m 6,139 l 0,5 1,1 0,3 1,1 0,2 1,1 0,1 1,1 0,1 2,2 0,1 6,6 1,0 2,2 1,0 1,1 1,0 1,1 2,0 1,1 3,0 1,1 10,0 1,-1 2,0 1,-1 2,0 1,-1 1,0 1,-1 1,0 2,-2 1,0 6,-6 0,-1 2,-2 0,-1 1,-1 0,-1 1,-1 0,-2 1,-1 0,-2 1,-1 0,-11 -1,-1 0,-2 -1,-1 0,-2 -1,-1 0,-1 -1,-1 0,-1 -2,-2 0,-1 -6,-6 -1,0 -2,-2 -1,0 -1,-1 -1,0 -1,-1 -2,0 -1,-1 -2,0 -1,-1 -10,0 -1,1 -3,0 -1,1 -2,0 -1,1 -1,0 -1,1 -1,0 -2,2 -1,0 -6,6 0,1 -2,2 0,1 -1,1 0,1 -1,1 0,2 -1,1 0,3 -1,1 0,3 m 5,-53 l  0,39 m 5,22 l 41,0 m -45,-22 l 12,22 m 37,-21 l -2,11 -6,-3 8,-8 m -23,21 l 0,61 m 12,-61 l 12,-22 79,0 0,67 m -131,-213 l 2,0 1,-1 1,0 1,-1 0,-1 1,-1 0,-3 -1,-1 0,-1 -1,-1 -1,0 -1,-1 -3,0 -1,1 -1,0 -1,1 0,1 -1,1 0,3 1,1 0,1 1,1 1,0 1,1 m 50,-5 l 23,0 -23,10 0,-21 23,11 m -23,-4 l 15,0 m -15,-3 l 8,0 m -8,10 l 14,0 m -14,4 l 6,0 m -60,-7 l 65,0 m -64,-3 l 9,0 m -9,5 l 9,0"></path>
<path class="stroke8" d="M 3258,2025 l 654,0 0,218 -654,0 0,-218 m 1526,0 l 655,0 0,218 -655,0 0,-218"></path>
<path style="fill:none;stroke:#000000;stroke-width:15" d="M 640,2270 l 0,382 m 327,-1363 l 0,409 m 1200,572 l 0,382"></path>
<path class="stroke4" d="M 422,2216 l 0,-164 m 11,44 l -22,0 0,81 22,0 0,-81 m -65,0 l 0,84 m 43,-6 l 22,0 m -22,-4 l 22,0 m -22,-4 l 22,0 m 0,-3 l -22,0 m 0,-4 l 22,0 m -22,-3 l 22,0 m -22,-4 l 22,0 m -22,-4 l 22,0 m 0,-3 l -22,0 m 0,-4 l 22,0 m -22,-4 l 22,0 m -22,-3 l 22,0 m -22,-4 l 22,0 m 0,-4 l -22,0 m 0,-3 l 22,0 m -22,-4 l 22,0 m -22,-3 l 22,0 m -22,-4 l 22,0 m 0,-4 l -22,0 m 0,-3 l 22,0 m -22,-4 l 22,0 m -22,-4 l 22,0 m 298,64 l 18,40 19,-40 -37,0 m 26,0 l 0,24 m -4,-24 l 0,31 m -4,-31 l 0,40 m -3,-40 l 0,31 m -4,-31 l 0,23 m -3,-23 l 0,15 m -4,-15 l 0,7"></path>
<path class="stroke4" d="M 760,2161 l 0,16 m 4,-16 l 0,9 m 4,-9 l 0,2 m -455,80 l 0,-219 m 11,72 l -22,0 0,81 22,0 0,-81 m -22,78 l 22,0 m -22,-4 l 22,0 m -22,-4 l 22,0 m 0,-3 l -22,0 m 0,-4 l 22,0 m -22,-3 l 22,0 m -22,-4 l 22,0 m -22,-4 l 22,0 m 0,-3 l -22,0 m 0,-4 l 22,0 m -22,-4 l 22,0 m -22,-3 l 22,0 m -22,-4 l 22,0 m 0,-4 l -22,0 m 0,-3 l 22,0 m -22,-4 l 22,0 m -22,-3 l 22,0 m -22,-4 l 22,0 m 0,-4 l -22,0 m 0,-3 l 22,0 m -22,-4 l 22,0 m -22,-4 l 22,0 m 98,-45 l 327,0 0,136 m -327,28 l 218,0 0,27 m 1309,-27 l 0,-164 m 11,44 l -22,0 0,81 22,0 0,-81 m -66,0 l 0,84 m 44,-6 l 22,0"></path>
<path class="stroke4" d="M 1938,2170 l 22,0 m -22,-4 l 22,0 m 0,-3 l -22,0 m 0,-4 l 22,0 m -22,-3 l 22,0 m -22,-4 l 22,0 m -22,-4 l 22,0 m 0,-3 l -22,0 m 0,-4 l 22,0 m -22,-4 l 22,0 m -22,-3 l 22,0 m -22,-4 l 22,0 m 0,-4 l -22,0 m 0,-3 l 22,0 m -22,-4 l 22,0 m -22,-3 l 22,0 m -22,-4 l 22,0 m 0,-4 l -22,0 m 0,-3 l 22,0 m -22,-4 l 22,0 m -22,-4 l 22,0 m 298,64 l 18,40 19,-40 -37,0 m 26,0 l 0,24 m -4,-24 l 0,31 m -4,-31 l 0,40 m -3,-40 l 0,31 m -4,-31 l 0,23 m -4,-23 l 0,15 m -3,-15 l 0,7 m 25,-7 l 0,16 m 4,-16 l 0,9 m 3,-9 l 0,2 m -454,80 l 0,-219"></path>
<path class="stroke4" d="M 1851,2096 l -22,0 0,81 22,0 0,-81 m -22,78 l 22,0 m -22,-4 l 22,0 m -22,-4 l 22,0 m 0,-3 l -22,0 m 0,-4 l 22,0 m -22,-3 l 22,0 m -22,-4 l 22,0 m -22,-4 l 22,0 m 0,-3 l -22,0 m 0,-4 l 22,0 m -22,-4 l 22,0 m -22,-3 l 22,0 m -22,-4 l 22,0 m 0,-4 l -22,0 m 0,-3 l 22,0 m -22,-4 l 22,0 m -22,-3 l 22,0 m -22,-4 l 22,0 m 0,-4 l -22,0 m 0,-3 l 22,0 m -22,-4 l 22,0 m -22,-4 l 22,0 m 98,-45 l 327,0 0,136 m -327,28 l 218,0 0,27"></path>
<text class="t2"><tspan x="796" y="2207">4</tspan>

<tspan x="2323" y="2207">4</tspan>
</text>
<path class="stroke4" d="M 326,2256 l 30,0 m 15,0 l 30,0 m 15,0 l 30,0 m 15,0 l 30,0 m 15,0 l 30,0 m 15,0 l 30,0 m 15,0 l 30,0 m 1234,0 l 30,0 m 15,0 l 30,0 m 15,0 l 30,0 m 15,0 l 30,0 m 15,0 l 30,0 m 15,0 l 30,0 m 15,0 l 30,0"></path>
<path class="stroke8" d="M 654,2679 l -27,0"></path>
<path class="white" d="M 647,2669 l 6,0 0,-8 -1,-1 0,-1 -2,-2 0,-1 -1,-1 -1,0 -2,-2 -2,0 -1,-1 -6,0 -1,1 -2,0 -2,2 -1,0 -1,1 0,1 -2,2 0,1 -1,1 0,8 6,0 0,-2 3,-3 1,0 1,-1 4,0 1,1 1,0 3,3 0,2 z"></path>
<path class="stroke4" d="M 635,2665 l 10,0 m -11,2 l 13,0 m -13,2 l 13,0 m -13,1 l 13,0 m -13,2 l 12,0 m -11,2 l 10,0 m -5,-11 l -2,0 -1,1 -1,0 -2,2 0,1 -1,1 0,3 1,1 0,1 2,2 1,0 1,1 4,0 1,-1 1,0 2,-2 0,-1 1,-1 0,-3 -1,-1 0,-1 -2,-2 -1,0 -1,-1 -1,0 m -3,0 l 5,0"></path>
<text class="t2"><tspan x="679" y="2643"><a xmlns:xlink="http://www.w3.org/1999/xlink" xlink:type="simple" xlink:show="replace" xlink:actuate="onRequest" xlink:href="javascript:locateTree('X6170');">X6170</a>
</tspan>
</text>
<path class="stroke8" d="M 2181,2679 l -28,0"></path>
<path class="white" d="M 2174,2669 l 6,0 0,-8 -1,-1 0,-1 -2,-2 0,-1 -1,-1 -1,0 -2,-2 -2,0 -1,-1 -6,0 -1,1 -2,0 -2,2 -1,0 -1,1 0,1 -2,2 0,1 -1,1 0,8 6,0 0,-2 3,-3 1,0 1,-1 4,0 1,1 1,0 3,3 0,2 z"></path>
<path class="stroke4" d="M 2162,2665 l 10,0 m -11,2 l 12,0 m -12,2 l 13,0 m -13,1 l 13,0 m -13,2 l 12,0 m -11,2 l 10,0 m -5,-11 l -2,0 -1,1 -1,0 -2,2 0,1 -1,1 0,3 1,1 0,1 2,2 1,0 1,1 4,0 1,-1 1,0 2,-2 0,-1 1,-1 0,-3 -1,-1 0,-1 -2,-2 -1,0 -1,-1 -1,0 m -3,0 l 4,0"></path>
<text class="t2"><tspan x="2205" y="2643"><a xmlns:xlink="http://www.w3.org/1999/xlink" xlink:type="simple" xlink:show="replace" xlink:actuate="onRequest" xlink:href="javascript:locateTree('X6170');">X6170</a>
</tspan>
</text>
<path class="white" d="M 327,2025 l -27,0 0,-28 27,0 0,28 z"></path>
<path class="black" d="M 314,2024 l -2,0 0,-11 2,0 0,11 z"></path>
<path class="stroke4" d="M 314,2024 l -2,0 0,-11 2,0 0,11"></path>
<path class="stroke6" d="M 300,2011 l 0,-3 1,-1 0,-2 6,-6 2,0 1,-1 6,0 1,1 2,0 6,6 0,2 1,1 0,3"></path>
<text class="t2"><tspan x="352" y="1989"><a xmlns:xlink="http://www.w3.org/1999/xlink" xlink:type="simple" xlink:show="replace" xlink:actuate="onRequest" xlink:href="javascript:locateTree('X6151');">X6151</a>
</tspan>

<tspan x="252" y="1989">3</tspan>
</text>
<path class="white" d="M 299,2243 l 28,0 0,27 -28,0 0,-27 z"></path>
<path class="black" d="M 312,2243 l 2,0 0,11 -2,0 0,-11 z"></path>
<path class="stroke4" d="M 312,2243 l 2,0 0,11 -2,0 0,-11"></path>
<path class="stroke6" d="M 326,2256 l 0,3 -1,1 0,2 -1,1 0,1 -4,4 -1,0 -1,1 -1,0 -1,1 -6,0 -1,-1 -1,0 -1,-1 -1,0 -4,-4 0,-1 -1,-1 0,-2 -1,-1 0,-3"></path>
<text class="t2"><tspan x="252" y="2302">1</tspan>
</text>
<path class="white" d="M 627,2243 l 27,0 0,27 -27,0 0,-27 z"></path>
<path class="black" d="M 639,2243 l 2,0 0,11 -2,0 0,-11 z"></path>
<path class="stroke4" d="M 639,2243 l 2,0 0,11 -2,0 0,-11"></path>
<path class="stroke6" d="M 653,2256 l 0,3 -1,1 0,2 -1,1 0,1 -4,4 -1,0 -1,1 -1,0 -1,1 -6,0 -1,-1 -1,0 -1,-1 -1,0 -4,-4 0,-1 -1,-1 0,-2 -1,-1 0,-3"></path>
<text class="t2"><tspan x="679" y="2302"><a xmlns:xlink="http://www.w3.org/1999/xlink" xlink:type="simple" xlink:show="replace" xlink:actuate="onRequest" xlink:href="javascript:locateTree('X6151');">X6151</a>
</tspan>

<tspan x="579" y="2302">2</tspan>
</text>
<path class="white" d="M 1826,2243 l 27,0 0,27 -27,0 0,-27 z"></path>
<path class="black" d="M 1839,2243 l 2,0 0,11 -2,0 0,-11 z"></path>
<path class="stroke4" d="M 1839,2243 l 2,0 0,11 -2,0 0,-11"></path>
<path class="stroke6" d="M 1853,2256 l 0,3 -1,1 0,2 -1,1 0,1 -4,4 -1,0 -1,1 -1,0 -1,1 -6,0 -1,-1 -1,0 -1,-1 -1,0 -4,-4 0,-1 -1,-1 0,-2 -1,-1 0,-3"></path>
<text class="t2"><tspan x="1779" y="2302">1</tspan>
</text>
<path class="white" d="M 2153,2243 l 28,0 0,27 -28,0 0,-27 z"></path>
<path class="black" d="M 2166,2243 l 2,0 0,11 -2,0 0,-11 z"></path>
<path class="stroke4" d="M 2166,2243 l 2,0 0,11 -2,0 0,-11"></path>
<path class="stroke6" d="M 2180,2256 l 0,3 -1,1 0,2 -1,1 0,1 -4,4 -1,0 -1,1 -1,0 -1,1 -6,0 -1,-1 -1,0 -1,-1 -1,0 -4,-4 0,-1 -1,-1 0,-2 -1,-1 0,-3"></path>
<text class="t2"><tspan x="2205" y="2302"><a xmlns:xlink="http://www.w3.org/1999/xlink" xlink:type="simple" xlink:show="replace" xlink:actuate="onRequest" xlink:href="javascript:locateTree('X6152');">X6152</a>
</tspan>

<tspan x="2106" y="2302">2</tspan>
</text>
<path class="white" d="M 1854,2025 l -28,0 0,-28 28,0 0,28 z"></path>
<path class="black" d="M 1841,2024 l -2,0 0,-11 2,0 0,11 z"></path>
<path class="stroke4" d="M 1841,2024 l -2,0 0,-11 2,0 0,11"></path>
<path class="stroke6" d="M 1827,2011 l 0,-3 1,-1 0,-2 6,-6 2,0 1,-1 6,0 1,1 2,0 6,6 0,2 1,1 0,3"></path>
<text class="t2"><tspan x="1878" y="1989"><a xmlns:xlink="http://www.w3.org/1999/xlink" xlink:type="simple" xlink:show="replace" xlink:actuate="onRequest" xlink:href="javascript:locateTree('X6152');">X6152</a>
</tspan>

<tspan x="1779" y="1989">3</tspan>
</text>
<path class="white" d="M 327,2897 l -27,0 0,-27 27,0 0,27 z"></path>
<path class="black" d="M 314,2897 l -2,0 0,-11 2,0 0,11 z"></path>
<path class="stroke4" d="M 314,2897 l -2,0 0,-11 2,0 0,11"></path>
<path class="stroke6" d="M 300,2884 l 0,-3 1,-1 0,-2 1,-1 0,-1 4,-4 1,0 1,-1 1,0 1,-1 6,0 1,1 1,0 1,1 1,0 4,4 0,1 1,1 0,2 1,1 0,3"></path>
<text class="t2"><tspan x="252" y="2861">1</tspan>
</text>
<path class="white" d="M 1854,2897 l -28,0 0,-27 28,0 0,27 z"></path>
<path class="black" d="M 1841,2897 l -2,0 0,-11 2,0 0,11 z"></path>
<path class="stroke4" d="M 1841,2897 l -2,0 0,-11 2,0 0,11"></path>
<path class="stroke6" d="M 1827,2884 l 0,-3 1,-1 0,-2 1,-1 0,-1 4,-4 1,0 1,-1 1,0 1,-1 6,0 1,1 1,0 1,1 1,0 4,4 0,1 1,1 0,2 1,1 0,3"></path>
<text class="t2"><tspan x="1779" y="2861">2</tspan>
</text>
<path class="stroke4" d="M 326,2884 l 30,0 m 14,0 l 30,0 m 14,0 l 31,0 m 14,0 l 30,0 m 14,0 l 30,0 m 15,0 l 30,0 m 14,0 l 30,0 m 14,0 l 31,0 m 14,0 l 30,0 m 14,0 l 30,0 m 15,0 l 30,0 m 14,0 l 30,0 m 14,0 l 31,0 m 14,0 l 30,0 m 14,0 l 30,0 m 15,0 l 30,0 m 14,0 l 30,0 m 14,0 l 31,0 m 14,0 l 30,0 m 14,0 l 30,0 m 15,0 l 30,0 m 14,0 l 30,0 m 14,0 l 31,0 m 14,0 l 30,0 m 14,0 l 30,0 m 15,0 l 30,0 m 14,0 l 30,0 m 14,0 l 31,0 m 14,0 l 30,0 m 14,0 l 30,0 m 15,0 l 30,0 m 14,0 l 30,0 m 14,0 l 31,0"></path>
<path class="stroke4" d="M 1791,2884 l 30,0 m 2255,146 l -4,0 -1,1 -3,0 -1,1 -2,0 -1,1 -1,0 -1,1 -1,0 -2,2 -1,0 -6,6 0,1 -2,2 0,1 -1,1 0,1 -1,1 0,2 -1,1 0,3 -1,1 0,10 1,1 0,2 1,1 0,2 1,1 0,1 1,1 0,1 2,2 0,1 6,6 1,0 2,2 1,0 1,1 1,0 1,1 2,0 1,1 2,0 1,1 11,0 1,-1 2,0 1,-1 2,0 1,-1 1,0 1,-1 1,0 2,-2 1,0 6,-6 0,-1 2,-2 0,-1 1,-1 0,-1 1,-1 0,-2 1,-1 0,-2 1,-1 0,-10 -1,-1 0,-3 -1,-1 0,-2 -1,-1 0,-1 -1,-1 0,-1 -2,-2 0,-1 -6,-6 -1,0 -2,-2 -1,0 -1,-1 -1,0 -1,-1 -2,0 -1,-1 -3,0 -1,-1 -4,0 m -41,69 l 79,0 0,-76 -79,0 0,76 m 40,-32 l 0,24 m -21,-25 l  41,0 m -45,-21 l 12,21 m 38,-21 l -12,21 m -27,-2 l -8,-7 6,-4 2,11"></path>
<text class="t2"><tspan x="351" y="1784">U_HR&lt;39</tspan>

<tspan x="1878" y="1784">U_HR&lt;39</tspan>

<tspan x="1878" y="1839">1.0</tspan>

<tspan x="351" y="1839">1.0</tspan>

<tspan x="1878" y="1882">OR</tspan>

<tspan x="351" y="1882">OR</tspan>

<tspan x="679" y="2438">M_ZS</tspan>

<tspan x="351" y="2438">P_ZSZ1</tspan>

<tspan x="1878" y="2438">P_ZSZ2</tspan>

<tspan x="2205" y="2438">M_ZS</tspan>

<tspan x="679" y="2493">1.0</tspan>

<tspan x="1878" y="2493">1.0</tspan>

<tspan x="2205" y="2493">1.0</tspan>

<tspan x="351" y="2493">1.0</tspan>

<tspan x="679" y="2537">BR</tspan>

<tspan x="2205" y="2537">BR</tspan>

<tspan x="1878" y="2537">WS/BL</tspan>

<tspan x="351" y="2537">WS</tspan>
</text>
<path class="stroke4" d="M 443,3159 l 2,0 1,-1 1,0 1,-1 0,-1 1,-1 0,-3 -1,-1 0,-1 -1,-1 -1,0 -1,-1 -3,0 -1,1 -1,0 -1,1 0,1 -1,1 0,3 1,1 0,1 1,1 1,0 1,1 m 7,-5 l -11,0 m 1,-3 l 9,0 m -9,5 l 9,0"></path>
<text class="t2"><tspan x="366" y="3169">31</tspan>
</text>
<path class="stroke4" d="M 433,3162 l 22,0 m -142,-265 l 0,60 m -11,0 l 22,0 0,85 -22,0 0,-85 m 7,139 l 0,5 1,1 0,3 1,1 0,2 1,1 0,1 1,1 0,1 2,2 0,1 6,6 1,0 2,2 1,0 1,1 1,0 1,1 2,0 1,1 3,0 1,1 10,0 1,-1 2,0 1,-1 2,0 1,-1 1,0 1,-1 1,0 2,-2 1,0 6,-6 0,-1 2,-2 0,-1 1,-1 0,-1 1,-1 0,-2 1,-1 0,-2 1,-1 0,-11 -1,-1 0,-2 -1,-1 0,-2 -1,-1 0,-1 -1,-1 0,-1 -2,-2 0,-1 -6,-6 -1,0 -2,-2 -1,0 -1,-1 -1,0 -1,-1 -2,0 -1,-1 -2,0 -1,-1 -10,0 -1,1 -3,0 -1,1 -2,0 -1,1 -1,0 -1,1 -1,0 -2,2 -1,0 -6,6 0,1 -2,2 0,1 -1,1 0,1 -1,1 0,2 -1,1 0,3 -1,1 0,3 m 4,-53 l  0,39 m 6,22 l 41,0 m -45,-22 l 12,22 m 37,-21 l -2,11 -7,-3 8,-8 m -23,21 l 0,61 m 12,-61 l 13,-22 79,0 0,67 m -131,-213 l 2,0 1,-1 1,0 1,-1 0,-1 1,-1 0,-3 -1,-1 0,-1 -1,-1 -1,0 -1,-1 -3,0 -1,1 -1,0 -1,1 0,1 -1,1 0,3 1,1 0,1 1,1 1,0 1,1 m 49,-5 l 24,0 -24,10 0,-21 24,11 m -24,-4 l 16,0 m -16,-3 l 9,0 m -9,10 l 14,0 m -14,4 l 7,0 m -60,-7 l 64,0 m -63,-3 l 9,0 m -9,5 l 9,0 m 1652,227 l 2,0 1,-1 1,0 1,-1 0,-1 1,-1 0,-3 -1,-1 0,-1 -1,-1 -1,0 -1,-1 -3,0 -1,1 -1,0 -1,1 0,1 -1,1 0,3 1,1 0,1 1,1 1,0 1,1 m 7,-5 l -11,0 m 1,-3 l 9,0 m -9,5 l 9,0"></path>
<text class="t2"><tspan x="1893" y="3169">31</tspan>
</text>
<path class="stroke4" d="M 1959,3162 l 23,0 m -142,-265 l 0,60 m -11,0 l 22,0 0,85 -22,0 0,-85 m 7,139 l 0,5 1,1 0,3 1,1 0,2 1,1 0,1 1,1 0,1 2,2 0,1 6,6 1,0 2,2 1,0 1,1 1,0 1,1 2,0 1,1 3,0 1,1 10,0 1,-1 2,0 1,-1 2,0 1,-1 1,0 1,-1 1,0 2,-2 1,0 6,-6 0,-1 2,-2 0,-1 1,-1 0,-1 1,-1 0,-2 1,-1 0,-2 1,-1 0,-11 -1,-1 0,-2 -1,-1 0,-2 -1,-1 0,-1 -1,-1 0,-1 -2,-2 0,-1 -6,-6 -1,0 -2,-2 -1,0 -1,-1 -1,0 -1,-1 -2,0 -1,-1 -2,0 -1,-1 -10,0 -1,1 -3,0 -1,1 -2,0 -1,1 -1,0 -1,1 -1,0 -2,2 -1,0 -6,6 0,1 -2,2 0,1 -1,1 0,1 -1,1 0,2 -1,1 0,3 -1,1 0,3 m 4,-53 l  0,39 m 6,22 l 41,0 m -46,-22 l 13,22 m 36,-21 l -2,11 -6,-3 8,-8 m -23,21 l 0,61 m 12,-61 l 12,-22 80,0 0,67 m -132,-213 l 2,0 1,-1 1,0 1,-1 0,-1 1,-1 0,-3 -1,-1 0,-1 -1,-1 -1,0 -1,-1 -3,0 -1,1 -1,0 -1,1 0,1 -1,1 0,3 1,1 0,1 1,1 1,0 1,1 m 50,-5 l 23,0 -23,10 0,-21 23,11 m -23,-4 l 16,0 m -16,-3 l 8,0 m -8,10 l 14,0 m -14,4 l 6,0 m -60,-7 l 65,0 m -64,-3 l 10,0 m -10,5 l 9,0"></path>
<path class="stroke8" d="M 204,2025 l 654,0 0,218 -654,0 0,-218 m 1527,0 l 654,0 0,218 -654,0 0,-218"></path>
<path style="fill:none;stroke:#000000;stroke-width:15" d="M 6747,2270 l 0,382 m 1527,-382 l 0,382"></path>
<text class="t3"><tspan x="8203" y="2909">.</tspan>
</text>
<text class="t2"><tspan x="8203" y="2945"><a xmlns:xlink="http://www.w3.org/1999/xlink" xlink:type="simple" xlink:show="replace" xlink:actuate="onRequest" xlink:href="javascript:locateTree('A6000');">A6000</a>
</tspan>
</text>
<text class="t2"><tspan x="8203" y="3014">DME control unit</tspan>
</text>
<path class="stroke4" d="M 6529,2216 l 0,-164 m 11,44 l -22,0 0,81 22,0 0,-81 m -65,0 l 0,84 m 43,-6 l 22,0 m -22,-4 l 22,0 m -22,-4 l 22,0 m 0,-3 l -22,0 m 0,-4 l 22,0 m -22,-3 l 22,0 m -22,-4 l 22,0 m -22,-4 l 22,0 m 0,-3 l -22,0 m 0,-4 l 22,0 m -22,-4 l 22,0 m -22,-3 l 22,0 m -22,-4 l 22,0 m 0,-4 l -22,0 m 0,-3 l 22,0 m -22,-4 l 22,0 m -22,-3 l 22,0 m -22,-4 l 22,0 m 0,-4 l -22,0 m 0,-3 l 22,0 m -22,-4 l 22,0 m -22,-4 l 22,0 m 298,64 l 18,40 19,-40 -37,0 m 26,0 l 0,24 m -4,-24 l 0,31 m -4,-31 l 0,40 m -3,-40 l 0,31 m -4,-31 l 0,23 m -3,-23 l 0,15 m -4,-15 l 0,7"></path>
<path class="stroke4" d="M 6867,2161 l 0,16 m 4,-16 l 0,9 m 4,-9 l 0,2 m -455,80 l 0,-219 m 11,72 l -22,0 0,81 22,0 0,-81 m -22,78 l 22,0 m -22,-4 l 22,0 m -22,-4 l 22,0 m 0,-3 l -22,0 m 0,-4 l 22,0 m -22,-3 l 22,0 m -22,-4 l 22,0 m -22,-4 l 22,0 m 0,-3 l -22,0 m 0,-4 l 22,0 m -22,-4 l 22,0 m -22,-3 l 22,0 m -22,-4 l 22,0 m 0,-4 l -22,0 m 0,-3 l 22,0 m -22,-4 l 22,0 m -22,-3 l 22,0 m -22,-4 l 22,0 m 0,-4 l -22,0 m 0,-3 l 22,0 m -22,-4 l 22,0 m -22,-4 l 22,0 m 98,-45 l 327,0 0,136 m -327,28 l 218,0 0,27 m 1309,-27 l 0,-164 m 11,44 l -22,0 0,81 22,0 0,-81 m -66,0 l 0,84 m 44,-6 l 22,0"></path>
<path class="stroke4" d="M 8045,2170 l 22,0 m -22,-4 l 22,0 m 0,-3 l -22,0 m 0,-4 l 22,0 m -22,-3 l 22,0 m -22,-4 l 22,0 m -22,-4 l 22,0 m 0,-3 l -22,0 m 0,-4 l 22,0 m -22,-4 l 22,0 m -22,-3 l 22,0 m -22,-4 l 22,0 m 0,-4 l -22,0 m 0,-3 l 22,0 m -22,-4 l 22,0 m -22,-3 l 22,0 m -22,-4 l 22,0 m 0,-4 l -22,0 m 0,-3 l 22,0 m -22,-4 l 22,0 m -22,-4 l 22,0 m 298,64 l 18,40 19,-40 -37,0 m 26,0 l 0,24 m -4,-24 l 0,31 m -4,-31 l 0,40 m -3,-40 l 0,31 m -4,-31 l 0,23 m -4,-23 l 0,15 m -3,-15 l 0,7 m 25,-7 l 0,16 m 4,-16 l 0,9 m 3,-9 l 0,2 m -454,80 l 0,-219"></path>
<path class="stroke4" d="M 7958,2096 l -22,0 0,81 22,0 0,-81 m -22,78 l 22,0 m -22,-4 l 22,0 m -22,-4 l 22,0 m 0,-3 l -22,0 m 0,-4 l 22,0 m -22,-3 l 22,0 m -22,-4 l 22,0 m -22,-4 l 22,0 m 0,-3 l -22,0 m 0,-4 l 22,0 m -22,-4 l 22,0 m -22,-3 l 22,0 m -22,-4 l 22,0 m 0,-4 l -22,0 m 0,-3 l 22,0 m -22,-4 l 22,0 m -22,-3 l 22,0 m -22,-4 l 22,0 m 0,-4 l -22,0 m 0,-3 l 22,0 m -22,-4 l 22,0 m -22,-4 l 22,0 m 98,-45 l 327,0 0,136 m -327,28 l 218,0 0,27"></path>
<text class="t2"><tspan x="6903" y="2207">4</tspan>

<tspan x="8430" y="2207">4</tspan>
</text>
<path class="stroke4" d="M 6433,2256 l 30,0 m 15,0 l 30,0 m 15,0 l 30,0 m 15,0 l 30,0 m 15,0 l 30,0 m 15,0 l 30,0 m 15,0 l 30,0 m 1234,0 l 30,0 m 15,0 l 30,0 m 15,0 l 30,0 m 15,0 l 30,0 m 15,0 l 30,0 m 15,0 l 30,0 m 15,0 l 30,0"></path>
<path class="stroke8" d="M 6761,2679 l -27,0"></path>
<path class="white" d="M 6754,2669 l 6,0 0,-8 -1,-1 0,-1 -2,-2 0,-1 -1,-1 -1,0 -2,-2 -2,0 -1,-1 -6,0 -1,1 -2,0 -2,2 -1,0 -1,1 0,1 -2,2 0,1 -1,1 0,8 6,0 0,-2 3,-3 1,0 1,-1 4,0 1,1 1,0 3,3 0,2 z"></path>
<path class="stroke4" d="M 6742,2665 l 10,0 m -11,2 l 13,0 m -13,2 l 13,0 m -13,1 l 13,0 m -13,2 l 12,0 m -11,2 l 10,0 m -5,-11 l -2,0 -1,1 -1,0 -2,2 0,1 -1,1 0,3 1,1 0,1 2,2 1,0 1,1 4,0 1,-1 1,0 2,-2 0,-1 1,-1 0,-3 -1,-1 0,-1 -2,-2 -1,0 -1,-1 -1,0 m -3,0 l 5,0"></path>
<text class="t2"><tspan x="6786" y="2643"><a xmlns:xlink="http://www.w3.org/1999/xlink" xlink:type="simple" xlink:show="replace" xlink:actuate="onRequest" xlink:href="javascript:locateTree('X6172');">X6172</a>
</tspan>
</text>
<path class="stroke8" d="M 8288,2679 l -28,0"></path>
<path class="white" d="M 8281,2669 l 6,0 0,-8 -1,-1 0,-1 -2,-2 0,-1 -1,-1 -1,0 -2,-2 -2,0 -1,-1 -6,0 -1,1 -2,0 -2,2 -1,0 -1,1 0,1 -2,2 0,1 -1,1 0,8 6,0 0,-2 3,-3 1,0 1,-1 4,0 1,1 1,0 3,3 0,2 z"></path>
<path class="stroke4" d="M 8269,2665 l 10,0 m -11,2 l 12,0 m -12,2 l 13,0 m -13,1 l 13,0 m -13,2 l 12,0 m -11,2 l 10,0 m -5,-11 l -2,0 -1,1 -1,0 -2,2 0,1 -1,1 0,3 1,1 0,1 2,2 1,0 1,1 4,0 1,-1 1,0 2,-2 0,-1 1,-1 0,-3 -1,-1 0,-1 -2,-2 -1,0 -1,-1 -1,0 m -3,0 l 4,0"></path>
<text class="t2"><tspan x="8312" y="2643"><a xmlns:xlink="http://www.w3.org/1999/xlink" xlink:type="simple" xlink:show="replace" xlink:actuate="onRequest" xlink:href="javascript:locateTree('X6172');">X6172</a>
</tspan>
</text>
<path class="white" d="M 6434,2025 l -27,0 0,-28 27,0 0,28 z"></path>
<path class="black" d="M 6421,2024 l -2,0 0,-11 2,0 0,11 z"></path>
<path class="stroke4" d="M 6421,2024 l -2,0 0,-11 2,0 0,11"></path>
<path class="stroke6" d="M 6407,2011 l 0,-3 1,-1 0,-2 6,-6 2,0 1,-1 6,0 1,1 2,0 6,6 0,2 1,1 0,3"></path>
<text class="t2"><tspan x="6459" y="1989"><a xmlns:xlink="http://www.w3.org/1999/xlink" xlink:type="simple" xlink:show="replace" xlink:actuate="onRequest" xlink:href="javascript:locateTree('X6155');">X6155</a>
</tspan>

<tspan x="6359" y="1989">3</tspan>
</text>
<path class="white" d="M 6406,2243 l 28,0 0,27 -28,0 0,-27 z"></path>
<path class="black" d="M 6419,2243 l 2,0 0,11 -2,0 0,-11 z"></path>
<path class="stroke4" d="M 6419,2243 l 2,0 0,11 -2,0 0,-11"></path>
<path class="stroke6" d="M 6433,2256 l 0,3 -1,1 0,2 -1,1 0,1 -4,4 -1,0 -1,1 -1,0 -1,1 -6,0 -1,-1 -1,0 -1,-1 -1,0 -4,-4 0,-1 -1,-1 0,-2 -1,-1 0,-3"></path>
<text class="t2"><tspan x="6359" y="2302">1</tspan>
</text>
<path class="white" d="M 6734,2243 l 27,0 0,27 -27,0 0,-27 z"></path>
<path class="black" d="M 6746,2243 l 2,0 0,11 -2,0 0,-11 z"></path>
<path class="stroke4" d="M 6746,2243 l 2,0 0,11 -2,0 0,-11"></path>
<path class="stroke6" d="M 6760,2256 l 0,3 -1,1 0,2 -1,1 0,1 -4,4 -1,0 -1,1 -1,0 -1,1 -6,0 -1,-1 -1,0 -1,-1 -1,0 -4,-4 0,-1 -1,-1 0,-2 -1,-1 0,-3"></path>
<text class="t2"><tspan x="6786" y="2302"><a xmlns:xlink="http://www.w3.org/1999/xlink" xlink:type="simple" xlink:show="replace" xlink:actuate="onRequest" xlink:href="javascript:locateTree('X6155');">X6155</a>
</tspan>

<tspan x="6686" y="2302">2</tspan>
</text>
<path class="white" d="M 7933,2243 l 27,0 0,27 -27,0 0,-27 z"></path>
<path class="black" d="M 7946,2243 l 2,0 0,11 -2,0 0,-11 z"></path>
<path class="stroke4" d="M 7946,2243 l 2,0 0,11 -2,0 0,-11"></path>
<path class="stroke6" d="M 7960,2256 l 0,3 -1,1 0,2 -1,1 0,1 -4,4 -1,0 -1,1 -1,0 -1,1 -6,0 -1,-1 -1,0 -1,-1 -1,0 -4,-4 0,-1 -1,-1 0,-2 -1,-1 0,-3"></path>
<text class="t2"><tspan x="7886" y="2302">1</tspan>
</text>
<path class="white" d="M 8260,2243 l 28,0 0,27 -28,0 0,-27 z"></path>
<path class="black" d="M 8273,2243 l 2,0 0,11 -2,0 0,-11 z"></path>
<path class="stroke4" d="M 8273,2243 l 2,0 0,11 -2,0 0,-11"></path>
<path class="stroke6" d="M 8287,2256 l 0,3 -1,1 0,2 -1,1 0,1 -4,4 -1,0 -1,1 -1,0 -1,1 -6,0 -1,-1 -1,0 -1,-1 -1,0 -4,-4 0,-1 -1,-1 0,-2 -1,-1 0,-3"></path>
<text class="t2"><tspan x="8312" y="2302"><a xmlns:xlink="http://www.w3.org/1999/xlink" xlink:type="simple" xlink:show="replace" xlink:actuate="onRequest" xlink:href="javascript:locateTree('X6156');">X6156</a>
</tspan>

<tspan x="8213" y="2302">2</tspan>
</text>
<path class="white" d="M 7961,2025 l -28,0 0,-28 28,0 0,28 z"></path>
<path class="black" d="M 7948,2024 l -2,0 0,-11 2,0 0,11 z"></path>
<path class="stroke4" d="M 7948,2024 l -2,0 0,-11 2,0 0,11"></path>
<path class="stroke6" d="M 7934,2011 l 0,-3 1,-1 0,-2 6,-6 2,0 1,-1 6,0 1,1 2,0 6,6 0,2 1,1 0,3"></path>
<text class="t2"><tspan x="7985" y="1989"><a xmlns:xlink="http://www.w3.org/1999/xlink" xlink:type="simple" xlink:show="replace" xlink:actuate="onRequest" xlink:href="javascript:locateTree('X6156');">X6156</a>
</tspan>

<tspan x="7886" y="1989">3</tspan>
</text>
<path class="white" d="M 6434,2897 l -27,0 0,-27 27,0 0,27 z"></path>
<path class="black" d="M 6421,2897 l -2,0 0,-11 2,0 0,11 z"></path>
<path class="stroke4" d="M 6421,2897 l -2,0 0,-11 2,0 0,11"></path>
<path class="stroke6" d="M 6407,2884 l 0,-3 1,-1 0,-2 1,-1 0,-1 4,-4 1,0 1,-1 1,0 1,-1 6,0 1,1 1,0 1,1 1,0 4,4 0,1 1,1 0,2 1,1 0,3"></path>
<text class="t2"><tspan x="6359" y="2861">5</tspan>
</text>
<path class="white" d="M 7961,2897 l -28,0 0,-27 28,0 0,27 z"></path>
<path class="black" d="M 7948,2897 l -2,0 0,-11 2,0 0,11 z"></path>
<path class="stroke4" d="M 7948,2897 l -2,0 0,-11 2,0 0,11"></path>
<path class="stroke6" d="M 7934,2884 l 0,-3 1,-1 0,-2 1,-1 0,-1 4,-4 1,0 1,-1 1,0 1,-1 6,0 1,1 1,0 1,1 1,0 4,4 0,1 1,1 0,2 1,1 0,3"></path>
<text class="t2"><tspan x="7985" y="2861"><a xmlns:xlink="http://www.w3.org/1999/xlink" xlink:type="simple" xlink:show="replace" xlink:actuate="onRequest" xlink:href="javascript:locateTree('X60004');">X60004</a>
</tspan>

<tspan x="7886" y="2861">6</tspan>
</text>
<path class="stroke4" d="M 6433,2884 l 30,0 m 14,0 l 30,0 m 14,0 l 31,0 m 14,0 l 30,0 m 14,0 l 30,0 m 15,0 l 30,0 m 14,0 l 30,0 m 14,0 l 31,0 m 14,0 l 30,0 m 14,0 l 30,0 m 15,0 l 30,0 m 14,0 l 30,0 m 14,0 l 31,0 m 14,0 l 30,0 m 14,0 l 30,0 m 15,0 l 30,0 m 14,0 l 30,0 m 14,0 l 31,0 m 14,0 l 30,0 m 14,0 l 30,0 m 15,0 l 30,0 m 14,0 l 30,0 m 14,0 l 31,0 m 14,0 l 30,0 m 14,0 l 30,0 m 15,0 l 30,0 m 14,0 l 30,0 m 14,0 l 31,0 m 14,0 l 30,0 m 14,0 l 30,0 m 15,0 l 30,0 m 14,0 l 30,0 m 14,0 l 31,0"></path>
<path class="stroke4" d="M 7898,2884 l 30,0"></path>
<text class="t2"><tspan x="6458" y="1784">U_HR&lt;39</tspan>

<tspan x="7985" y="1784">U_HR&lt;39</tspan>

<tspan x="7985" y="1839">1.0</tspan>

<tspan x="6458" y="1839">1.0</tspan>

<tspan x="7985" y="1882">OR</tspan>

<tspan x="6458" y="1882">OR</tspan>

<tspan x="6786" y="2438">M_ZS</tspan>

<tspan x="6458" y="2438">P_ZSZ5</tspan>

<tspan x="7985" y="2438">P_ZSZ6</tspan>

<tspan x="8312" y="2438">M_ZS</tspan>

<tspan x="6786" y="2493">1.0</tspan>

<tspan x="7985" y="2493">1.0</tspan>

<tspan x="8312" y="2493">1.0</tspan>

<tspan x="6458" y="2493">1.0</tspan>

<tspan x="6786" y="2537">BR</tspan>

<tspan x="8312" y="2537">BR</tspan>

<tspan x="7985" y="2537">WS/GR</tspan>

<tspan x="6458" y="2537">WS/BL</tspan>
</text>
<path class="stroke4" d="M 6550,3159 l 2,0 1,-1 1,0 1,-1 0,-1 1,-1 0,-3 -1,-1 0,-1 -1,-1 -1,0 -1,-1 -3,0 -1,1 -1,0 -1,1 0,1 -1,1 0,3 1,1 0,1 1,1 1,0 1,1 m 7,-5 l -11,0 m 1,-3 l 9,0 m -9,5 l 9,0"></path>
<text class="t2"><tspan x="6473" y="3169">31</tspan>
</text>
<path class="stroke4" d="M 6540,3162 l 22,0 m -142,-265 l 0,60 m -11,0 l 22,0 0,85 -22,0 0,-85 m 7,139 l 0,5 1,1 0,3 1,1 0,2 1,1 0,1 1,1 0,1 2,2 0,1 6,6 1,0 2,2 1,0 1,1 1,0 1,1 2,0 1,1 3,0 1,1 10,0 1,-1 2,0 1,-1 2,0 1,-1 1,0 1,-1 1,0 2,-2 1,0 6,-6 0,-1 2,-2 0,-1 1,-1 0,-1 1,-1 0,-2 1,-1 0,-2 1,-1 0,-11 -1,-1 0,-2 -1,-1 0,-2 -1,-1 0,-1 -1,-1 0,-1 -2,-2 0,-1 -6,-6 -1,0 -2,-2 -1,0 -1,-1 -1,0 -1,-1 -2,0 -1,-1 -2,0 -1,-1 -10,0 -1,1 -3,0 -1,1 -2,0 -1,1 -1,0 -1,1 -1,0 -2,2 -1,0 -6,6 0,1 -2,2 0,1 -1,1 0,1 -1,1 0,2 -1,1 0,3 -1,1 0,3 m 4,-53 l  0,39 m 6,22 l 41,0 m -45,-22 l 12,22 m 37,-21 l -2,11 -7,-3 8,-8 m -23,21 l 0,61 m 12,-61 l 13,-22 79,0 0,67 m -131,-213 l 2,0 1,-1 1,0 1,-1 0,-1 1,-1 0,-3 -1,-1 0,-1 -1,-1 -1,0 -1,-1 -3,0 -1,1 -1,0 -1,1 0,1 -1,1 0,3 1,1 0,1 1,1 1,0 1,1 m 49,-5 l 24,0 -24,10 0,-21 24,11 m -24,-4 l 16,0 m -16,-3 l 9,0 m -9,10 l 14,0 m -14,4 l 7,0 m -60,-7 l 64,0 m -63,-3 l 9,0 m -9,5 l 9,0 m 1652,227 l 2,0 1,-1 1,0 1,-1 0,-1 1,-1 0,-3 -1,-1 0,-1 -1,-1 -1,0 -1,-1 -3,0 -1,1 -1,0 -1,1 0,1 -1,1 0,3 1,1 0,1 1,1 1,0 1,1 m 7,-5 l -11,0 m 1,-3 l 9,0 m -9,5 l 9,0"></path>
<text class="t2"><tspan x="8000" y="3169">31</tspan>
</text>
<path class="stroke4" d="M 8067,3162 l 22,0 m -142,-265 l 0,60 m -11,0 l 22,0 0,85 -22,0 0,-85 m 7,139 l 0,5 1,1 0,3 1,1 0,2 1,1 0,1 1,1 0,1 2,2 0,1 6,6 1,0 2,2 1,0 1,1 1,0 1,1 2,0 1,1 3,0 1,1 10,0 1,-1 2,0 1,-1 2,0 1,-1 1,0 1,-1 1,0 2,-2 1,0 6,-6 0,-1 2,-2 0,-1 1,-1 0,-1 1,-1 0,-2 1,-1 0,-2 1,-1 0,-11 -1,-1 0,-2 -1,-1 0,-2 -1,-1 0,-1 -1,-1 0,-1 -2,-2 0,-1 -6,-6 -1,0 -2,-2 -1,0 -1,-1 -1,0 -1,-1 -2,0 -1,-1 -2,0 -1,-1 -10,0 -1,1 -3,0 -1,1 -2,0 -1,1 -1,0 -1,1 -1,0 -2,2 -1,0 -6,6 0,1 -2,2 0,1 -1,1 0,1 -1,1 0,2 -1,1 0,3 -1,1 0,3 m 4,-53 l  0,39 m 6,22 l 41,0 m -45,-22 l 12,22 m 36,-21 l -2,11 -6,-3 8,-8 m -23,21 l 0,61 m 12,-61 l 12,-22 80,0 0,67 m -131,-213 l 2,0 1,-1 1,0 1,-1 0,-1 1,-1 0,-3 -1,-1 0,-1 -1,-1 -1,0 -1,-1 -4,0 -1,1 -1,0 -1,1 0,1 -1,1 0,3 1,1 0,1 1,1 1,0 1,1 1,0 m 49,-5 l 23,0 -23,10 0,-21 23,11 m -23,-4 l 16,0 m -16,-3 l 8,0 m -8,10 l 14,0 m -14,4 l 6,0 m -60,-7 l 65,0 m -64,-3 l 10,0 m -10,5 l 9,0"></path>
<path class="stroke8" d="M 6311,2025 l 654,0 0,218 -654,0 0,-218 m 1527,0 l 654,0 0,218 -654,0 0,-218"></path>
<path class="stroke4" d="M 1853,2884 l 30,0 m 14,0 l 30,0 m 14,0 l 31,0 m 14,0 l 30,0 m 14,0 l 30,0 m 15,0 l 30,0 m 14,0 l 30,0 m 14,0 l 31,0 m 14,0 l 30,0 m 14,0 l 30,0 m 15,0 l 30,0 m 14,0 l 30,0 m 14,0 l 31,0 m 14,0 l 30,0 m 14,0 l 30,0 m 15,0 l 30,0 m 14,0 l 30,0 m 14,0 l 31,0 m 14,0 l 30,0 m 14,0 l 30,0 m 15,0 l 30,0 m 14,0 l 30,0 m 14,0 l 31,0 m 14,0 l 30,0 m 14,0 l 30,0 m 15,0 l 30,0 m 14,0 l 30,0 m 14,0 l 31,0 m 14,0 l 30,0 m 14,0 l 30,0 m 15,0 l 30,0 m 14,0 l 30,0 m 14,0 l 31,0"></path>
<path class="stroke4" d="M 3318,2884 l 30,0 m 1559,0 l 30,0 m 14,0 l 30,0 m 14,0 l 31,0 m 14,0 l 30,0 m 14,0 l 30,0 m 15,0 l 30,0 m 14,0 l 30,0 m 14,0 l 31,0 m 14,0 l 30,0 m 14,0 l 30,0 m 15,0 l 30,0 m 14,0 l 30,0 m 14,0 l 31,0 m 14,0 l 30,0 m 14,0 l 30,0 m 15,0 l 30,0 m 14,0 l 30,0 m 14,0 l 31,0 m 14,0 l 30,0 m 14,0 l 30,0 m 15,0 l 30,0 m 14,0 l 30,0 m 14,0 l 31,0 m 14,0 l 30,0 m 14,0 l 30,0 m 15,0 l 30,0 m 14,0 l 30,0 m 14,0 l 31,0 m 14,0 l 30,0 m 14,0 l 30,0 m 15,0 l 30,0 m 14,0 l 30,0"></path>
<path class="stroke4" d="M 6327,2884 l 31,0 m 14,0 l 30,0"></path>
<path class="stroke8" d="M 204,2897 l 15,0 m 17,0 l 30,0 m 18,0 l 30,0 m 18,0 l 30,0 m 18,0 l 30,0 m 18,0 l 30,0 m 17,0 l 30,0 m 18,0 l 30,0 m 18,0 l 30,0 m 18,0 l 30,0 m 18,0 l 30,0 m 17,0 l 30,0 m 18,0 l 30,0 m 18,0 l 30,0 m 18,0 l 30,0 m 18,0 l 30,0 m 17,0 l 30,0 m 18,0 l 30,0 m 18,0 l 30,0 m 18,0 l 30,0 m 18,0 l 30,0 m 17,0 l 30,0 m 18,0 l 30,0 m 18,0 l 30,0 m 18,0 l 30,0 m 18,0 l 30,0 m 17,0 l 30,0 m 18,0 l 30,0 m 18,0 l 30,0 m 18,0 l 30,0 m 18,0 l 30,0 m 17,0 l 30,0 m 18,0 l 30,0"></path>
<path class="stroke8" d="M 1766,2897 l 30,0 m 18,0 l 30,0 m 18,0 l 30,0 m 17,0 l 30,0 m 18,0 l 30,0 m 18,0 l 30,0 m 18,0 l 30,0 m 18,0 l 30,0 m 17,0 l 30,0 m 18,0 l 30,0 m 18,0 l 30,0 m 18,0 l 30,0 m 18,0 l 30,0 m 17,0 l 30,0 m 18,0 l 30,0 m 18,0 l 30,0 m 18,0 l 30,0 m 18,0 l 30,0 m 17,0 l 30,0 m 18,0 l 30,0 m 18,0 l 30,0 m 18,0 l 30,0 m 18,0 l 30,0 m 17,0 l 30,0 m 18,0 l 30,0 m 18,0 l 30,0 m 18,0 l 30,0 m 18,0 l 30,0 m 17,0 l 30,0 m 18,0 l 30,0 m 18,0 l 30,0 m 18,0 l 30,0 m 18,0 l 30,0"></path>
<path class="stroke8" d="M 3343,2897 l 30,0 m 18,0 l 30,0 m 18,0 l 30,0 m 18,0 l 30,0 m 18,0 l 30,0 m 17,0 l 30,0 m 18,0 l 30,0 m 18,0 l 30,0 m 18,0 l 30,0 m 18,0 l 30,0 m 17,0 l 30,0 m 18,0 l 30,0 m 18,0 l 30,0 m 18,0 l 30,0 m 18,0 l 30,0 m 17,0 l 30,0 m 18,0 l 30,0 m 18,0 l 30,0 m 18,0 l 30,0 m 18,0 l 30,0 m 17,0 l 30,0 m 18,0 l 30,0 m 18,0 l 30,0 m 18,0 l 30,0 m 18,0 l 30,0 m 17,0 l 30,0 m 18,0 l 30,0 m 18,0 l 30,0 m 18,0 l 30,0 m 18,0 l 30,0 m 17,0 l 30,0 m 18,0 l 30,0 m 18,0 l 30,0"></path>
<path class="stroke8" d="M 4921,2897 l 30,0 m 18,0 l 30,0 m 17,0 l 30,0 m 18,0 l 30,0 m 18,0 l 30,0 m 18,0 l 30,0 m 18,0 l 30,0 m 17,0 l 30,0 m 18,0 l 30,0 m 18,0 l 30,0 m 18,0 l 30,0 m 18,0 l 30,0 m 17,0 l 30,0 m 18,0 l 30,0 m 18,0 l 30,0 m 18,0 l 30,0 m 18,0 l 30,0 m 17,0 l 30,0 m 18,0 l 30,0 m 18,0 l 30,0 m 18,0 l 30,0 m 18,0 l 30,0 m 17,0 l 30,0 m 18,0 l 30,0 m 18,0 l 30,0 m 18,0 l 30,0 m 18,0 l 30,0 m 17,0 l 30,0 m 18,0 l 30,0 m 18,0 l 30,0 m 18,0 l 30,0 m 18,0 l 30,0 m 17,0 l 30,0"></path>
<path class="stroke8" d="M 6498,2897 l 30,0 m 18,0 l 30,0 m 18,0 l 30,0 m 18,0 l 30,0 m 17,0 l 30,0 m 18,0 l 30,0 m 18,0 l 30,0 m 18,0 l 30,0 m 18,0 l 30,0 m 17,0 l 30,0 m 18,0 l 30,0 m 18,0 l 30,0 m 18,0 l 30,0 m 18,0 l 30,0 m 17,0 l 30,0 m 18,0 l 30,0 m 18,0 l 30,0 m 18,0 l 30,0 m 18,0 l 30,0 m 17,0 l 30,0 m 18,0 l 30,0 m 18,0 l 30,0 m 18,0 l 30,0 m 18,0 l 30,0 m 17,0 l 30,0 m 18,0 l 30,0 m 18,0 l 30,0 m 18,0 l 30,0 m 18,0 l 30,0 m 17,0 l 30,0 m 18,0 l 30,0 m 18,0 l 30,0 m 18,0 l 30,0"></path>
<path class="stroke8" d="M 8076,2897 l 30,0 m 17,0 l 30,0 m 12,0 l 0,14 m 0,18 l 0,29 m 0,17 l 0,29 m 0,18 l 0,29 m 0,17 l 0,30 m 0,17 l 0,29 m 0,18 l 0,29 m 0,17 l 0,16 -15,0 m -17,0 l -30,0 m -18,0 l -30,0 m -18,0 l -30,0 m -18,0 l -30,0 m -18,0 l -30,0 m -17,0 l -30,0 m -18,0 l -30,0 m -18,0 l -30,0 m -18,0 l -30,0 m -18,0 l -30,0 m -17,0 l -30,0 m -18,0 l -30,0 m -18,0 l -30,0 m -18,0 l -30,0 m -18,0 l -30,0 m -17,0 l -30,0 m -18,0 l -30,0 m -18,0 l -30,0 m -18,0 l -30,0 m -18,0 l -30,0 m -17,0 l -30,0 m -18,0 l -30,0 m -18,0 l -30,0"></path>
<path class="stroke8" d="M 7033,3224 l -30,0 m -18,0 l -30,0 m -17,0 l -30,0 m -18,0 l -30,0 m -18,0 l -30,0 m -18,0 l -30,0 m -18,0 l -30,0 m -17,0 l -30,0 m -18,0 l -30,0 m -18,0 l -30,0 m -18,0 l -30,0 m -18,0 l -30,0 m -17,0 l -30,0 m -18,0 l -30,0 m -18,0 l -30,0 m -18,0 l -30,0 m -18,0 l -30,0 m -17,0 l -30,0 m -18,0 l -30,0 m -18,0 l -30,0 m -18,0 l -30,0 m -18,0 l -30,0 m -17,0 l -30,0 m -18,0 l -30,0 m -18,0 l -30,0 m -18,0 l -30,0 m -18,0 l -30,0 m -17,0 l -30,0 m -18,0 l -30,0 m -18,0 l -30,0 m -18,0 l -30,0 m -18,0 l -30,0 m -17,0 l -30,0"></path>
<path class="stroke8" d="M 5456,3224 l -30,0 m -18,0 l -30,0 m -18,0 l -30,0 m -18,0 l -30,0 m -17,0 l -30,0 m -18,0 l -30,0 m -18,0 l -30,0 m -18,0 l -30,0 m -18,0 l -30,0 m -17,0 l -30,0 m -18,0 l -30,0 m -18,0 l -30,0 m -18,0 l -30,0 m -18,0 l -30,0 m -17,0 l -30,0 m -18,0 l -30,0 m -18,0 l -30,0 m -18,0 l -30,0 m -18,0 l -30,0 m -17,0 l -30,0 m -18,0 l -30,0 m -18,0 l -30,0 m -18,0 l -30,0 m -18,0 l -30,0 m -17,0 l -30,0 m -18,0 l -30,0 m -18,0 l -30,0 m -18,0 l -30,0 m -18,0 l -30,0 m -17,0 l -30,0 m -18,0 l -30,0 m -18,0 l -30,0 m -18,0 l -30,0"></path>
<path class="stroke8" d="M 3878,3224 l -30,0 m -17,0 l -30,0 m -18,0 l -30,0 m -18,0 l -30,0 m -18,0 l -30,0 m -18,0 l -30,0 m -17,0 l -30,0 m -18,0 l -30,0 m -18,0 l -30,0 m -18,0 l -30,0 m -18,0 l -30,0 m -17,0 l -30,0 m -18,0 l -30,0 m -18,0 l -30,0 m -18,0 l -30,0 m -18,0 l -30,0 m -17,0 l -30,0 m -18,0 l -30,0 m -18,0 l -30,0 m -18,0 l -30,0 m -18,0 l -30,0 m -17,0 l -30,0 m -18,0 l -30,0 m -18,0 l -30,0 m -18,0 l -30,0 m -18,0 l -30,0 m -17,0 l -30,0 m -18,0 l -30,0 m -18,0 l -30,0 m -18,0 l -30,0 m -18,0 l -30,0 m -17,0 l -30,0 m -18,0 l -30,0"></path>
<path class="stroke8" d="M 2301,3224 l -30,0 m -18,0 l -30,0 m -18,0 l -30,0 m -17,0 l -30,0 m -18,0 l -30,0 m -18,0 l -30,0 m -18,0 l -30,0 m -18,0 l -30,0 m -17,0 l -30,0 m -18,0 l -30,0 m -18,0 l -30,0 m -18,0 l -30,0 m -18,0 l -30,0 m -17,0 l -30,0 m -18,0 l -30,0 m -18,0 l -30,0 m -18,0 l -30,0 m -18,0 l -30,0 m -17,0 l -30,0 m -18,0 l -30,0 m -18,0 l -30,0 m -18,0 l -30,0 m -18,0 l -30,0 m -17,0 l -30,0 m -18,0 l -30,0 m -18,0 l -30,0 m -18,0 l -30,0 m -18,0 l -30,0 m -17,0 l -30,0 m -18,0 l -30,0 m -18,0 l -30,0 m -18,0 l -30,0 m -18,0 l -30,0"></path>
<path class="stroke8" d="M 724,3224 l -30,0 m -18,0 l -30,0 m -18,0 l -30,0 m -18,0 l -30,0 m -18,0 l -30,0 m -17,0 l -30,0 m -18,0 l -30,0 m -18,0 l -30,0 m -18,0 l -30,0 m -18,0 l -30,0 m -17,0 l -30,0 m -12,0 l 0,-14 m 0,-18 l 0,-29 m 0,-17 l 0,-29 m 0,-18 l 0,-29 m 0,-17 l 0,-30 m 0,-17 l 0,-29 m 0,-18 l 0,-29 m 0,-17 l 0,-16"></path>
<text class="t3"><tspan x="897" y="2034">.</tspan>
</text>
<text class="t2"><tspan x="897" y="2070"><a xmlns:xlink="http://www.w3.org/1999/xlink" xlink:type="simple" xlink:show="replace" xlink:actuate="onRequest" xlink:href="javascript:locateTree('T6151');">T6151</a>
</tspan>
</text>
<text class="t2"><tspan x="897" y="2139">Ignition coil, cylin-</tspan>

<tspan x="897" y="2183">der 1</tspan>

<tspan x="897" y="2229">4) Spark plug con-</tspan>

<tspan x="934" y="2273">nection</tspan>
</text>
<text class="t3"><tspan x="2423" y="2034">.</tspan>
</text>
<text class="t2"><tspan x="2423" y="2070"><a xmlns:xlink="http://www.w3.org/1999/xlink" xlink:type="simple" xlink:show="replace" xlink:actuate="onRequest" xlink:href="javascript:locateTree('T6152');">T6152</a>
</tspan>
</text>
<text class="t2"><tspan x="2423" y="2139">Ignition coil, cylin-</tspan>

<tspan x="2423" y="2183">der 2</tspan>

<tspan x="2423" y="2229">4) Spark plug con-</tspan>

<tspan x="2460" y="2273">nection</tspan>
</text>
<text class="t3"><tspan x="3950" y="2034">.</tspan>
</text>
<text class="t2"><tspan x="3950" y="2070"><a xmlns:xlink="http://www.w3.org/1999/xlink" xlink:type="simple" xlink:show="replace" xlink:actuate="onRequest" xlink:href="javascript:locateTree('T6153');">T6153</a>
</tspan>
</text>
<text class="t2"><tspan x="3950" y="2139">Ignition coil, cylin-</tspan>

<tspan x="3950" y="2183">der 3</tspan>

<tspan x="3950" y="2229">4) Spark plug con-</tspan>

<tspan x="3987" y="2273">nection</tspan>
</text>
<text class="t3"><tspan x="5477" y="2034">.</tspan>
</text>
<text class="t2"><tspan x="5477" y="2070"><a xmlns:xlink="http://www.w3.org/1999/xlink" xlink:type="simple" xlink:show="replace" xlink:actuate="onRequest" xlink:href="javascript:locateTree('T6154');">T6154</a>
</tspan>
</text>
<text class="t2"><tspan x="5477" y="2139">Ignition coil, cylin-</tspan>

<tspan x="5477" y="2183">der 4</tspan>

<tspan x="5477" y="2229">4) Spark plug con-</tspan>

<tspan x="5514" y="2273">nection</tspan>
</text>
<text class="t3"><tspan x="7004" y="2034">.</tspan>
</text>
<text class="t2"><tspan x="7004" y="2070"><a xmlns:xlink="http://www.w3.org/1999/xlink" xlink:type="simple" xlink:show="replace" xlink:actuate="onRequest" xlink:href="javascript:locateTree('T6155');">T6155</a>
</tspan>
</text>
<text class="t2"><tspan x="7004" y="2139">Ignition coil, cylin-</tspan>

<tspan x="7004" y="2183">der 5</tspan>

<tspan x="7004" y="2229">4) Spark plug con-</tspan>

<tspan x="7041" y="2273">nection</tspan>
</text>
<text class="t3"><tspan x="8531" y="2034">.</tspan>
</text>
<text class="t2"><tspan x="8531" y="2070"><a xmlns:xlink="http://www.w3.org/1999/xlink" xlink:type="simple" xlink:show="replace" xlink:actuate="onRequest" xlink:href="javascript:locateTree('T6156');">T6156</a>
</tspan>
</text>
<text class="t2"><tspan x="8531" y="2139">Ignition coil, cylin-</tspan>

<tspan x="8531" y="2183">der 6</tspan>

<tspan x="8531" y="2229">4) Spark plug con-</tspan>

<tspan x="8568" y="2273">nection</tspan>
</text>
<path class="white" d="M 954,1261 l 27,0 0,28 -27,0 0,-28 z"></path>
<path class="black" d="M 967,1262 l 1,0 0,11 -1,0 0,-11 z"></path>
<path class="stroke4" d="M 967,1262 l 1,0 0,11 -1,0 0,-11"></path>
<path class="stroke6" d="M 981,1275 l 0,3 -1,1 0,1 -1,1 0,1 -4,4 -1,0 -1,1 -1,0 -1,1 -7,0 -1,-1 -1,0 -1,-1 -1,0 -4,-4 0,-1 -1,-1 0,-1 -1,-1 0,-3"></path>
<text class="t2"><tspan x="1006" y="1321"><a xmlns:xlink="http://www.w3.org/1999/xlink" xlink:type="simple" xlink:show="replace" xlink:actuate="onRequest" xlink:href="javascript:locateTree('X11005');">X11005</a>
</tspan>

<tspan x="906" y="1321">6</tspan>
</text>
<path class="stroke4" d="M 984,1012 l -33,0 0,96 33,0 0,-96 m -16,140 l 0,-140 m -8,-15 l 15,0 m -16,3 l 17,0 m -18,2 l 19,0 m -19,3 l 20,0 m -19,2 l 17,0 m -16,3 l 15,0 m -12,-15 l 9,0 m 1,17 l 4,-4 0,-2 1,-1 0,-3 -1,-1 0,-2 -4,-4 -1,0 -1,-1 -6,0 -1,1 -1,0 -1,1 -1,0 -2,2 0,1 -1,1 0,1 -1,1 0,4 1,1 0,2 1,1 4,2"></path>
<text class="t2"><tspan x="944" y="980">87</tspan>
</text>
<text class="t3"><tspan x="1442" y="834">.</tspan>
</text>
<text class="t2"><tspan x="1442" y="870"><a xmlns:xlink="http://www.w3.org/1999/xlink" xlink:type="simple" xlink:show="replace" xlink:actuate="onRequest" xlink:href="javascript:locateTree('A4010');">A4010</a>
</tspan>
</text>
<text class="t2"><tspan x="1442" y="939">Junction box</tspan>
</text>
<path class="stroke8" d="M 749,825 l 14,0 m 18,0 l 29,0 m 17,0 l 30,0 m 17,0 l 29,0 m 18,0 l 29,0 m 17,0 l 30,0 m 17,0 l 29,0 m 18,0 l 29,0 m 18,0 l 29,0 m 17,0 l 29,0 m 18,0 l 29,0 m 18,0 l 29,0 m 17,0 l 30,0 m 17,0 l 29,0 m 18,0 l 16,0 0,15 m 0,18 l 0,30 m 0,18 l 0,30 m 0,18 l 0,31 m 0,18 l 0,30 m 0,18 l 0,30 m 0,18 l 0,30 m 0,19 l 0,30 m 0,18 l 0,30 m 0,18 l 0,17 -14,0 m -18,0 l -29,0 m -17,0 l -30,0 m -17,0 l -29,0 m -18,0 l -29,0 m -17,0 l -30,0 m -17,0 l -29,0 m -18,0 l -29,0 m -18,0 l -29,0 m -17,0 l -29,0"></path>
<path class="stroke8" d="M 952,1261 l -29,0 m -18,0 l -29,0 m -17,0 l -30,0 m -17,0 l -29,0 m -18,0 l -16,0 0,-15 m 0,-18 l 0,-30 m 0,-18 l 0,-30 m 0,-18 l 0,-31 m 0,-18 l 0,-30 m 0,-18 l 0,-30 m 0,-18 l 0,-30 m 0,-19 l 0,-30 m 0,-18 l 0,-30 m 0,-18 l 0,-17"></path>
<text class="t2"><tspan x="1224" y="966"><a xmlns:xlink="http://www.w3.org/1999/xlink" xlink:type="simple" xlink:show="replace" xlink:actuate="onRequest" xlink:href="javascript:locateTree('F39');">F39</a>
</tspan>

<tspan x="1033" y="1089">30A</tspan>
</text>
<path class="stroke8" d="M 858,934 l 14,0 m 18,0 l 29,0 m 17,0 l 30,0 m 17,0 l 29,0 m 18,0 l 29,0 m 17,0 l 30,0 m 17,0 l 29,0 m 18,0 l 16,0 0,13 m 0,16 l 0,28 m 0,16 l 0,27 m 0,16 l 0,28 m 0,16 l 0,27 m 0,16 l 0,15 -14,0 m -18,0 l -29,0 m -17,0 l -30,0 m -17,0 l -29,0 m -18,0 l -29,0 m -17,0 l -30,0 m -17,0 l -29,0 m -18,0 l -16,0 0,-13 m 0,-16 l 0,-28 m 0,-16 l 0,-27 m 0,-16 l 0,-28 m 0,-16 l 0,-27 m 0,-16 l 0,-15"></path>
<path class="stroke4" d="M 967,1152 l 0,109"></path>
<path class="white" d="M 964,1681 l -1,1 -2,0 -1,1 -1,0 -6,6 0,1 -1,1 0,2 -1,1 0,7 1,1 0,2 1,1 0,1 6,6 1,0 1,1 2,0 1,1 7,0 1,-1 2,0 1,-1 1,0 6,-6 0,-1 1,-1 0,-2 1,-1 0,-7 -1,-1 0,-2 -1,-1 0,-1 -6,-6 -1,0 -1,-1 -2,0 -1,-1 -7,0 z"></path>
<path class="stroke4" d="M 967,1690 l -2,0 -2,2 -1,0 0,1 -2,2 0,5 1,1 0,1 2,2 1,0 1,1 5,0 1,-1 1,0 2,-2 0,-1 1,-1 0,-5 -2,-2 0,-1 -1,0 -2,-2 -2,0 m -6,3 l 10,0 m -11,2 l 13,0 m -13,2 l 13,0 m -14,1 l 15,0 m -14,2 l 13,0 m -12,2 l 11,0 m -9,2 l 7,0 m -7,-13 l 7,0"></path>
<text class="t3"><tspan x="9730" y="2034">.</tspan>
</text>
<text class="t2"><tspan x="9730" y="2070"><a xmlns:xlink="http://www.w3.org/1999/xlink" xlink:type="simple" xlink:show="replace" xlink:actuate="onRequest" xlink:href="javascript:locateTree('I01046');">I01046</a>
</tspan>
</text>
<text class="t2"><tspan x="9730" y="2139">Interference sup-</tspan>

<tspan x="9730" y="2183">pression capacitor</tspan>

<tspan x="9730" y="2227">for ignition coils</tspan>
</text>
<path style="fill:none;stroke:#000000;stroke-width:15" d="M 9474,1698 l 0,327"></path>
<text class="t2"><tspan x="9512" y="1784">U_HR&lt;39</tspan>

<tspan x="9512" y="1839">1.0</tspan>

<tspan x="9512" y="1882">RT/WS</tspan>
</text>
<path style="fill:none;stroke:#000000;stroke-width:15" d="M 9474,2243 l 0,409"></path>
<path class="stroke8" d="M 9488,2679 l -28,0"></path>
<path class="white" d="M 9481,2670 l 6,-1 0,-8 -1,-1 0,-1 -2,-2 0,-1 -1,-1 -1,0 -2,-2 -2,0 -1,-1 -6,0 -1,1 -2,0 -6,6 0,1 -1,1 0,8 6,1 0,-2 1,-1 0,-1 2,-2 1,0 1,-1 4,0 1,1 1,0 2,2 0,1 1,1 0,2 z"></path>
<path class="stroke4" d="M 9469,2665 l 10,0 m -11,2 l 12,0 m -13,2 l 14,0 m -14,1 l 13,0 m -12,2 l 12,0 m -11,2 l 10,0 m -5,-11 l -2,0 -1,1 -1,0 -2,2 0,1 -1,1 0,3 1,1 0,1 2,2 1,0 1,1 4,0 1,-1 1,0 2,-2 0,-1 1,-1 0,-3 -1,-1 0,-1 -2,-2 -1,0 -1,-1 -1,0 m -3,0 l 4,0"></path>
<text class="t2"><tspan x="9512" y="2438">M_ZS</tspan>

<tspan x="9512" y="2493">1.0</tspan>

<tspan x="9512" y="2537">BR</tspan>

<tspan x="9512" y="2643"><a xmlns:xlink="http://www.w3.org/1999/xlink" xlink:type="simple" xlink:show="replace" xlink:actuate="onRequest" xlink:href="javascript:locateTree('X6171');">X6171</a>
</tspan>
</text>
<path class="stroke8" d="M 9365,2025 l 327,0 0,218 -327,0 0,-218"></path>
<path class="stroke4" d="M 9474,2025 l 0,95 m 28,0 l -55,0 m 27,123 l 0,-96 m -27,0 l 55,0"></path>
<path class="white" d="M 4890,1681 l -1,1 -2,0 -1,1 -1,0 -6,6 0,1 -1,1 0,2 -1,1 0,7 1,1 0,2 1,1 0,1 6,6 1,0 1,1 2,0 1,1 7,0 1,-1 2,0 1,-1 1,0 6,-6 0,-1 1,-1 0,-2 1,-1 0,-7 -1,-1 0,-2 -1,-1 0,-1 -6,-6 -1,0 -1,-1 -2,0 -1,-1 -7,0 z"></path>
<path class="stroke4" d="M 4893,1690 l -2,0 -2,2 -1,0 0,1 -2,2 0,5 1,1 0,1 2,2 1,0 1,1 5,0 1,-1 1,0 2,-2 0,-1 1,-1 0,-5 -2,-2 0,-1 -1,0 -2,-2 -2,0 m -6,3 l 10,0 m -10,2 l 12,0 m -13,2 l 13,0 m -14,1 l 15,0 m -14,2 l 13,0 m -12,2 l 11,0 m -8,2 l 6,0 m -7,-13 l 7,0"></path>
<path class="white" d="M 7943,1681 l -1,1 -2,0 -2,2 -1,0 -5,5 0,1 -1,1 0,2 -1,1 0,7 1,1 0,2 1,1 0,1 5,5 1,0 2,2 2,0 1,1 8,0 1,-1 2,0 2,-2 1,0 5,-5 0,-1 1,-1 0,-2 1,-1 0,-7 -1,-1 0,-2 -1,-1 0,-1 -5,-5 -1,0 -2,-2 -2,0 -1,-1 -8,0 z"></path>
<path class="stroke4" d="M 7947,1690 l -2,0 -1,1 -1,0 -2,2 0,1 -1,1 0,5 1,1 0,1 2,2 1,0 1,1 4,0 1,-1 1,0 2,-2 0,-1 1,-1 0,-5 -1,-1 0,-1 -2,-2 -1,0 -1,-1 -1,0 m -6,3 l 10,0 m -11,2 l 12,0 m -13,2 l 14,0 m -14,1 l 14,0 m -13,2 l 12,0 m -11,2 l 10,0 m -8,2 l 6,0 m -6,-13 l 6,0"></path>
<path class="white" d="M 9470,1681 l -1,1 -2,0 -2,2 -1,0 -5,5 0,1 -1,1 0,2 -1,1 0,7 1,1 0,2 1,1 0,1 5,5 1,0 2,2 2,0 1,1 8,0 1,-1 2,0 2,-2 1,0 5,-5 0,-1 1,-1 0,-2 1,-1 0,-7 -1,-1 0,-2 -1,-1 0,-1 -5,-5 -1,0 -2,-2 -2,0 -1,-1 -8,0 z"></path>
<path class="stroke4" d="M 9474,1690 l -2,0 -1,1 -1,0 -2,2 0,1 -1,1 0,5 1,1 0,1 2,2 1,0 1,1 4,0 1,-1 1,0 2,-2 0,-1 1,-1 0,-5 -1,-1 0,-1 -2,-2 -1,0 -1,-1 -1,0 m -6,3 l 10,0 m -11,2 l 12,0 m -13,2 l 14,0 m -14,1 l 14,0 m -13,2 l 12,0 m -11,2 l 10,0 m -8,2 l 6,0 m -6,-13 l 6,0"></path>
<path class="white" d="M 6416,1681 l -1,1 -2,0 -2,2 -1,0 -5,5 0,1 -1,1 0,2 -1,1 0,7 1,1 0,2 1,1 0,1 5,5 1,0 2,2 2,0 1,1 8,0 1,-1 2,0 2,-2 1,0 5,-5 0,-1 1,-1 0,-2 1,-1 0,-7 -1,-1 0,-2 -1,-1 0,-1 -5,-5 -1,0 -2,-2 -2,0 -1,-1 -8,0 z"></path>
<path class="stroke4" d="M 6420,1690 l -2,0 -1,1 -1,0 -2,2 0,1 -1,1 0,5 1,1 0,1 2,2 1,0 1,1 4,0 1,-1 1,0 2,-2 0,-1 1,-1 0,-5 -1,-1 0,-1 -2,-2 -1,0 -1,-1 -1,0 m -6,3 l 10,0 m -11,2 l 12,0 m -13,2 l 14,0 m -14,1 l 14,0 m -13,2 l 12,0 m -11,2 l 11,0 m -9,2 l 6,0 m -6,-13 l 6,0"></path>
<path class="white" d="M 309,1681 l -1,1 -2,0 -2,2 -1,0 -5,5 0,1 -1,1 0,2 -1,1 0,7 1,1 0,2 1,1 0,1 5,5 1,0 2,2 2,0 1,1 8,0 1,-1 2,0 2,-2 1,0 5,-5 0,-1 1,-1 0,-2 1,-1 0,-7 -1,-1 0,-2 -1,-1 0,-1 -5,-5 -1,0 -2,-2 -2,0 -1,-1 -8,0 z"></path>
<path class="stroke4" d="M 313,1690 l -2,0 -1,1 -1,0 -2,2 0,1 -1,1 0,5 1,1 0,1 2,2 1,0 1,1 4,0 1,-1 1,0 2,-2 0,-1 1,-1 0,-5 -1,-1 0,-1 -2,-2 -1,0 -1,-1 -1,0 m -6,3 l 10,0 m -11,2 l 12,0 m -13,2 l 14,0 m -14,1 l 14,0 m -13,2 l 12,0 m -11,2 l 10,0 m -8,2 l 6,0 m -6,-13 l 6,0"></path>
<path class="white" d="M 1836,1681 l -1,1 -2,0 -2,2 -1,0 -5,5 0,1 -1,1 0,2 -1,1 0,7 1,1 0,2 1,1 0,1 5,5 1,0 2,2 2,0 1,1 8,0 1,-1 2,0 2,-2 1,0 5,-5 0,-1 1,-1 0,-2 1,-1 0,-7 -1,-1 0,-2 -1,-1 0,-1 -5,-5 -1,0 -2,-2 -2,0 -1,-1 -8,0 z"></path>
<path class="stroke4" d="M 1840,1690 l -2,0 -1,1 -1,0 -2,2 0,1 -1,1 0,5 1,1 0,1 2,2 1,0 1,1 4,0 1,-1 1,0 2,-2 0,-1 1,-1 0,-5 -1,-1 0,-1 -2,-2 -1,0 -1,-1 -1,0 m -6,3 l 10,0 m -11,2 l 12,0 m -13,2 l 14,0 m -14,1 l 14,0 m -13,2 l 12,0 m -11,2 l 10,0 m -8,2 l 6,0 m -6,-13 l 6,0"></path>
<path class="white" d="M 3363,1681 l -1,1 -2,0 -1,1 -1,0 -6,6 0,1 -1,1 0,2 -1,1 0,7 1,1 0,2 1,1 0,1 6,6 1,0 1,1 2,0 1,1 7,0 1,-1 2,0 1,-1 1,0 6,-6 0,-1 1,-1 0,-2 1,-1 0,-7 -1,-1 0,-2 -1,-1 0,-1 -6,-6 -1,0 -1,-1 -2,0 -1,-1 -7,0 z"></path>
<path class="stroke4" d="M 3367,1690 l -2,0 -1,1 -1,0 -2,2 0,1 -1,1 0,5 1,1 0,1 2,2 1,0 1,1 4,0 1,-1 1,0 2,-2 0,-1 1,-1 0,-5 -1,-1 0,-1 -2,-2 -1,0 -1,-1 -1,0 m -6,3 l 10,0 m -11,2 l 12,0 m -13,2 l 13,0 m -13,1 l 14,0 m -13,2 l 12,0 m -11,2 l 10,0 m -8,2 l 6,0 m -6,-13 l 6,0"></path>
</g>
</svg>
</g></svg>