<svg data-v-f35fd5a0="" xmlns="http://www.w3.org/2000/svg" xmlns:xlink="http://www.w3.org/1999/xlink" xmlns:ev="http://www.w3.org/2001/xml-events" style="overflow: hidden; width: 100%; min-height: 100vh;"><g id="viewport-20201011163515755" class="svg-pan-zoom_viewport" transform="matrix(1,0,0,1,0,0)" style="transform: matrix(1, 0, 0, 1, 0, 0);"><!--?xml version="1.0" encoding="UTF-8"?--> 
<!--?xml-stylesheet href="../../styles/svg.css" type="text/css"?--> 
<svg xmlns="http://www.w3.org/2000/svg" id="svgid" xml:space="preserve" viewBox="37 607 7835 2795" preserveAspectRatio="xMinYMin meet" zoomAndPan="magnify" version="1.0" width="100%" height="100%" contentscripttype="text/ecmascript" contentstyletype="text/css" xmlns:xlink="http://www.w3.org/1999/xlink">
<title>Schaltplan Viewer - Copyright BMW AG 2006</title>
<style xml:space="preserve" type="text/css">path {fill-rule:evenodd; stroke-linecap:round; stroke-linejoin:round}
rect {stroke-linejoin:miter}
text.t1 {font-family:'Courier SWA',monospace;font-size:31;fill:#000000}
path.white {fill:#FFFFFF;stroke:none}
path.black {fill:#000000;stroke:none}
path.stroke3 {fill:none;stroke:#000000;stroke-width:3}
path.stroke4 {fill:none;stroke:#000000;stroke-width:4}
path.stroke5 {fill:none;stroke:#000000;stroke-width:5}
path.stroke6 {fill:none;stroke:#000000;stroke-width:6}
path.stroke7 {fill:none;stroke:#000000;stroke-width:7 }
path.stroke8 {fill:none;stroke:#000000;stroke-width:8 }
path.stroke9 {fill:none;stroke:#000000;stroke-width:9 }
path.stroke10 {fill:none;stroke:#000000;stroke-width:10 }
path.stroke11 {fill:none;stroke:#000000;stroke-width:11}
path.stroke14 {fill:none;stroke:#000000;stroke-width:14}</style>
<desc>customer: BMW
date: 10.08.2006
time: 13:13:18
language: British engl
project: E65
version: 1.0</desc>
<g id="gid">
<text class="t1"></text>
<path style="fill:#DFDFDF;stroke:none" d="M 313,934 l 327,0 0,218 -327,0 0,-218 z"></path>
<path class="stroke8" d="M 313,934 l 14,0 m 18,0 l 29,0 m 17,0 l 29,0 m 18,0 l 29,0 m 17,0 l 30,0 m 17,0 l 29,0 m 18,0 l 29,0 m 17,0 l 16,0 0,13 m 0,16 l 0,28 m 0,16 l 0,27 m 0,16 l 0,28 m 0,16 l 0,27 m 0,16 l 0,15 -14,0 m -18,0 l -29,0 m -17,0 l -29,0 m -18,0 l -29,0 m -17,0 l -30,0 m -17,0 l -29,0 m -18,0 l -29,0 m -17,0 l -16,0 0,-13 m 0,-16 l 0,-28 m 0,-16 l 0,-27 m 0,-16 l 0,-28 m 0,-16 l 0,-27 m 0,-16 l 0,-15"></path>
<path style="fill:#DFDFDF;stroke:none" d="M 1186,934 l 327,0 0,218 -327,0 0,-218 z"></path>
<path class="stroke8" d="M 1186,934 l 14,0 m 18,0 l 29,0 m 17,0 l 29,0 m 18,0 l 29,0 m 17,0 l 30,0 m 17,0 l 29,0 m 18,0 l 29,0 m 17,0 l 16,0 0,13 m 0,16 l 0,28 m 0,16 l 0,27 m 0,16 l 0,28 m 0,16 l 0,27 m 0,16 l 0,15 -14,0 m -18,0 l -29,0 m -17,0 l -29,0 m -18,0 l -29,0 m -17,0 l -30,0 m -17,0 l -29,0 m -18,0 l -29,0 m -17,0 l -16,0 0,-13 m 0,-16 l 0,-28 m 0,-16 l 0,-27 m 0,-16 l 0,-28 m 0,-16 l 0,-27 m 0,-16 l 0,-15"></path>
<path style="fill:#DFDFDF;stroke:none" d="M 5330,3115 l 981,0 0,218 -981,0 0,-218 z"></path>
<path class="stroke8" d="M 5330,3115 l 15,0 m 18,0 l 31,0 m 18,0 l 31,0 m 18,0 l 31,0 m 18,0 l 30,0 m 19,0 l 30,0 m 19,0 l 30,0 m 19,0 l 30,0 m 18,0 l 31,0 m 18,0 l 31,0 m 18,0 l 31,0 m 18,0 l 31,0 m 18,0 l 31,0 m 18,0 l 31,0 m 18,0 l 30,0 m 19,0 l 30,0 m 19,0 l 30,0 m 19,0 l 30,0 m 18,0 l 31,0 m 18,0 l 31,0 m 18,0 l 19,0 0,13 m 0,16 l 0,28 m 0,16 l 0,27 m 0,16 l 0,28 m 0,16 l 0,27 m 0,16 l 0,15 -15,0 m -18,0 l -31,0 m -18,0 l -31,0 m -18,0 l -31,0 m -18,0 l -30,0 m -19,0 l -30,0 m -19,0 l -30,0 m -19,0 l -30,0"></path>
<path class="stroke8" d="M 5936,3333 l -31,0 m -18,0 l -31,0 m -18,0 l -31,0 m -18,0 l -31,0 m -18,0 l -31,0 m -18,0 l -31,0 m -18,0 l -30,0 m -19,0 l -30,0 m -19,0 l -30,0 m -19,0 l -30,0 m -18,0 l -31,0 m -18,0 l -31,0 m -18,0 l -19,0 0,-13 m 0,-16 l 0,-28 m 0,-16 l 0,-27 m 0,-16 l 0,-28 m 0,-16 l 0,-27 m 0,-16 l 0,-15"></path>
<path style="fill:#DFDFDF;stroke:none" d="M 6638,3115 l 982,0 0,218 -982,0 0,-218 z"></path>
<path class="stroke8" d="M 6638,3115 l 15,0 m 18,0 l 31,0 m 18,0 l 31,0 m 18,0 l 31,0 m 18,0 l 31,0 m 18,0 l 31,0 m 18,0 l 31,0 m 18,0 l 31,0 m 18,0 l 31,0 m 18,0 l 31,0 m 18,0 l 31,0 m 18,0 l 31,0 m 18,0 l 31,0 m 18,0 l 31,0 m 18,0 l 31,0 m 18,0 l 31,0 m 18,0 l 31,0 m 18,0 l 31,0 m 18,0 l 31,0 m 18,0 l 31,0 m 18,0 l 18,0 0,13 m 0,16 l 0,28 m 0,16 l 0,27 m 0,16 l 0,28 m 0,16 l 0,27 m 0,16 l 0,15 -15,0 m -18,0 l -31,0 m -18,0 l -31,0 m -18,0 l -31,0 m -18,0 l -31,0 m -18,0 l -31,0 m -18,0 l -31,0 m -18,0 l -31,0"></path>
<path class="stroke8" d="M 7244,3333 l -31,0 m -18,0 l -31,0 m -18,0 l -31,0 m -18,0 l -31,0 m -18,0 l -31,0 m -18,0 l -31,0 m -18,0 l -31,0 m -18,0 l -31,0 m -18,0 l -31,0 m -18,0 l -31,0 m -18,0 l -31,0 m -18,0 l -31,0 m -18,0 l -18,0 0,-13 m 0,-16 l 0,-28 m 0,-16 l 0,-27 m 0,-16 l 0,-28 m 0,-16 l 0,-27 m 0,-16 l 0,-15"></path>
<path style="fill:#DFDFDF;stroke:none" d="M 1404,3115 l 1636,0 0,218 -1636,0 0,-218 z"></path>
<path class="stroke8" d="M 1404,3115 l 15,0 m 18,0 l 30,0 m 18,0 l 30,0 m 18,0 l 30,0 m 18,0 l 30,0 m 18,0 l 30,0 m 18,0 l 30,0 m 18,0 l 30,0 m 18,0 l 30,0 m 18,0 l 30,0 m 18,0 l 30,0 m 18,0 l 30,0 m 18,0 l 30,0 m 18,0 l 30,0 m 18,0 l 30,0 m 18,0 l 30,0 m 18,0 l 30,0 m 18,0 l 30,0 m 18,0 l 30,0 m 18,0 l 30,0 m 18,0 l 30,0 m 18,0 l 30,0 m 18,0 l 30,0 m 18,0 l 30,0 m 18,0 l 30,0 m 18,0 l 30,0 m 18,0 l 30,0 m 18,0 l 30,0 m 18,0 l 30,0 m 18,0 l 30,0 m 18,0 l 30,0 m 18,0 l 30,0 m 18,0 l 30,0"></path>
<path class="stroke8" d="M 2973,3115 l 30,0 m 18,0 l 19,0 0,13 m 0,16 l 0,28 m 0,16 l 0,27 m 0,16 l 0,28 m 0,16 l 0,27 m 0,16 l 0,15 -15,0 m -18,0 l -30,0 m -18,0 l -30,0 m -18,0 l -30,0 m -18,0 l -30,0 m -18,0 l -30,0 m -18,0 l -30,0 m -18,0 l -30,0 m -18,0 l -30,0 m -18,0 l -30,0 m -18,0 l -30,0 m -18,0 l -30,0 m -18,0 l -30,0 m -18,0 l -30,0 m -18,0 l -30,0 m -18,0 l -30,0 m -18,0 l -30,0 m -18,0 l -30,0 m -18,0 l -30,0 m -18,0 l -30,0 m -18,0 l -30,0 m -18,0 l -30,0 m -18,0 l -30,0 m -18,0 l -30,0 m -18,0 l -30,0 m -18,0 l -30,0 m -18,0 l -30,0"></path>
<path class="stroke8" d="M 1759,3333 l -30,0 m -18,0 l -30,0 m -18,0 l -30,0 m -18,0 l -30,0 m -18,0 l -30,0 m -18,0 l -30,0 m -18,0 l -30,0 m -18,0 l -19,0 0,-13 m 0,-16 l 0,-28 m 0,-16 l 0,-27 m 0,-16 l 0,-28 m 0,-16 l 0,-27 m 0,-16 l 0,-15"></path>
<path style="fill:#DFDFDF;stroke:none" d="M 3367,3115 l 1636,0 0,218 -1636,0 0,-218 z"></path>
<path class="stroke8" d="M 3367,3115 l 15,0 m 18,0 l 30,0 m 18,0 l 30,0 m 18,0 l 30,0 m 18,0 l 30,0 m 18,0 l 30,0 m 18,0 l 30,0 m 18,0 l 30,0 m 18,0 l 30,0 m 18,0 l 30,0 m 18,0 l 30,0 m 18,0 l 30,0 m 18,0 l 30,0 m 18,0 l 30,0 m 18,0 l 30,0 m 18,0 l 30,0 m 18,0 l 30,0 m 18,0 l 30,0 m 18,0 l 30,0 m 18,0 l 30,0 m 18,0 l 30,0 m 18,0 l 30,0 m 18,0 l 30,0 m 18,0 l 30,0 m 18,0 l 30,0 m 18,0 l 30,0 m 18,0 l 30,0 m 18,0 l 30,0 m 18,0 l 30,0 m 18,0 l 30,0 m 18,0 l 30,0 m 18,0 l 30,0 m 18,0 l 30,0"></path>
<path class="stroke8" d="M 4936,3115 l 30,0 m 18,0 l 19,0 0,13 m 0,16 l 0,28 m 0,16 l 0,27 m 0,16 l 0,28 m 0,16 l 0,27 m 0,16 l 0,15 -15,0 m -18,0 l -30,0 m -18,0 l -30,0 m -18,0 l -30,0 m -18,0 l -30,0 m -18,0 l -30,0 m -18,0 l -30,0 m -18,0 l -30,0 m -18,0 l -30,0 m -18,0 l -30,0 m -18,0 l -30,0 m -18,0 l -30,0 m -18,0 l -30,0 m -18,0 l -30,0 m -18,0 l -30,0 m -18,0 l -30,0 m -18,0 l -30,0 m -18,0 l -30,0 m -18,0 l -30,0 m -18,0 l -30,0 m -18,0 l -30,0 m -18,0 l -30,0 m -18,0 l -30,0 m -18,0 l -30,0 m -18,0 l -30,0 m -18,0 l -30,0 m -18,0 l -30,0"></path>
<path class="stroke8" d="M 3722,3333 l -30,0 m -18,0 l -30,0 m -18,0 l -30,0 m -18,0 l -30,0 m -18,0 l -30,0 m -18,0 l -30,0 m -18,0 l -30,0 m -18,0 l -19,0 0,-13 m 0,-16 l 0,-28 m 0,-16 l 0,-27 m 0,-16 l 0,-28 m 0,-16 l 0,-27 m 0,-16 l 0,-15"></path>
<path style="fill:#DFDFDF;stroke:none" d="M 313,1698 l 327,0 0,218 -327,0 0,-218 z"></path>
<path class="stroke8" d="M 313,1698 l 14,0 m 18,0 l 29,0 m 17,0 l 29,0 m 18,0 l 29,0 m 17,0 l 30,0 m 17,0 l 29,0 m 18,0 l 29,0 m 17,0 l 16,0 0,13 m 0,16 l 0,28 m 0,16 l 0,27 m 0,16 l 0,28 m 0,16 l 0,27 m 0,16 l 0,15 -14,0 m -18,0 l -29,0 m -17,0 l -29,0 m -18,0 l -29,0 m -17,0 l -30,0 m -17,0 l -29,0 m -18,0 l -29,0 m -17,0 l -16,0 0,-13 m 0,-16 l 0,-28 m 0,-16 l 0,-27 m 0,-16 l 0,-28 m 0,-16 l 0,-27 m 0,-16 l 0,-15"></path>
<path style="fill:#DFDFDF;stroke:none" d="M 204,825 l 654,0 0,436 -654,0 0,-436 z"></path>
<path class="stroke8" d="M 204,825 l 14,0 m 18,0 l 29,0 m 17,0 l 29,0 m 18,0 l 29,0 m 17,0 l 30,0 m 17,0 l 29,0 m 18,0 l 29,0 m 17,0 l 29,0 m 18,0 l 29,0 m 17,0 l 30,0 m 17,0 l 29,0 m 18,0 l 29,0 m 17,0 l 29,0 m 18,0 l 29,0 m 17,0 l 17,0 0,15 m 0,18 l 0,30 m 0,18 l 0,30 m 0,18 l 0,31 m 0,18 l 0,30 m 0,18 l 0,30 m 0,18 l 0,30 m 0,19 l 0,30 m 0,18 l 0,30 m 0,18 l 0,17 -14,0 m -18,0 l -29,0 m -17,0 l -29,0 m -18,0 l -29,0 m -17,0 l -30,0 m -17,0 l -29,0 m -18,0 l -29,0 m -17,0 l -29,0 m -18,0 l -29,0 m -17,0 l -30,0"></path>
<path class="stroke8" d="M 407,1261 l -29,0 m -18,0 l -29,0 m -17,0 l -29,0 m -18,0 l -29,0 m -17,0 l -17,0 0,-15 m 0,-18 l 0,-30 m 0,-18 l 0,-30 m 0,-18 l 0,-31 m 0,-18 l 0,-30 m 0,-18 l 0,-30 m 0,-18 l 0,-30 m 0,-19 l 0,-30 m 0,-18 l 0,-30 m 0,-18 l 0,-17"></path>
<path style="fill:#DFDFDF;stroke:none" d="M 1077,825 l 654,0 0,436 -654,0 0,-436 z"></path>
<path class="stroke8" d="M 1077,825 l 14,0 m 18,0 l 29,0 m 17,0 l 29,0 m 18,0 l 29,0 m 17,0 l 30,0 m 17,0 l 29,0 m 18,0 l 29,0 m 17,0 l 29,0 m 18,0 l 29,0 m 17,0 l 30,0 m 17,0 l 29,0 m 18,0 l 29,0 m 17,0 l 29,0 m 18,0 l 29,0 m 17,0 l 17,0 0,15 m 0,18 l 0,30 m 0,18 l 0,30 m 0,18 l 0,31 m 0,18 l 0,30 m 0,18 l 0,30 m 0,18 l 0,30 m 0,19 l 0,30 m 0,18 l 0,30 m 0,18 l 0,17 -14,0 m -18,0 l -29,0 m -17,0 l -29,0 m -18,0 l -29,0 m -17,0 l -30,0 m -17,0 l -29,0 m -18,0 l -29,0 m -17,0 l -29,0 m -18,0 l -29,0 m -17,0 l -30,0"></path>
<path class="stroke8" d="M 1280,1261 l -29,0 m -18,0 l -29,0 m -17,0 l -29,0 m -18,0 l -29,0 m -17,0 l -17,0 0,-15 m 0,-18 l 0,-30 m 0,-18 l 0,-30 m 0,-18 l 0,-31 m 0,-18 l 0,-30 m 0,-18 l 0,-30 m 0,-18 l 0,-30 m 0,-19 l 0,-30 m 0,-18 l 0,-30 m 0,-18 l 0,-17"></path>
<path style="fill:#DFDFDF;stroke:none" d="M 3367,825 l 327,0 0,218 -327,0 0,-218 z"></path>
<path class="stroke8" d="M 3367,825 l 14,0 m 18,0 l 29,0 m 17,0 l 29,0 m 18,0 l 29,0 m 17,0 l 30,0 m 17,0 l 29,0 m 18,0 l 29,0 m 17,0 l 16,0 0,13 m 0,16 l 0,28 m 0,16 l 0,27 m 0,16 l 0,28 m 0,16 l 0,27 m 0,16 l 0,15 -14,0 m -18,0 l -29,0 m -17,0 l -29,0 m -18,0 l -29,0 m -17,0 l -30,0 m -17,0 l -29,0 m -18,0 l -29,0 m -17,0 l -16,0 0,-13 m 0,-16 l 0,-28 m 0,-16 l 0,-27 m 0,-16 l 0,-28 m 0,-16 l 0,-27 m 0,-16 l 0,-15"></path>
<path style="fill:#DFDFDF;stroke:none" d="M 3912,825 l 327,0 0,218 -327,0 0,-218 z"></path>
<path class="stroke8" d="M 3912,825 l 14,0 m 18,0 l 29,0 m 17,0 l 29,0 m 18,0 l 29,0 m 17,0 l 30,0 m 17,0 l 29,0 m 18,0 l 29,0 m 17,0 l 16,0 0,13 m 0,16 l 0,28 m 0,16 l 0,27 m 0,16 l 0,28 m 0,16 l 0,27 m 0,16 l 0,15 -14,0 m -18,0 l -29,0 m -17,0 l -29,0 m -18,0 l -29,0 m -17,0 l -30,0 m -17,0 l -29,0 m -18,0 l -29,0 m -17,0 l -16,0 0,-13 m 0,-16 l 0,-28 m 0,-16 l 0,-27 m 0,-16 l 0,-28 m 0,-16 l 0,-27 m 0,-16 l 0,-15"></path>
<path style="fill:#DFDFDF;stroke:none" d="M 4457,825 l 327,0 0,218 -327,0 0,-218 z"></path>
<path class="stroke8" d="M 4457,825 l 14,0 m 18,0 l 29,0 m 17,0 l 29,0 m 18,0 l 29,0 m 17,0 l 30,0 m 17,0 l 29,0 m 18,0 l 29,0 m 17,0 l 16,0 0,13 m 0,16 l 0,28 m 0,16 l 0,27 m 0,16 l 0,28 m 0,16 l 0,27 m 0,16 l 0,15 -14,0 m -18,0 l -29,0 m -17,0 l -29,0 m -18,0 l -29,0 m -17,0 l -30,0 m -17,0 l -29,0 m -18,0 l -29,0 m -17,0 l -16,0 0,-13 m 0,-16 l 0,-28 m 0,-16 l 0,-27 m 0,-16 l 0,-28 m 0,-16 l 0,-27 m 0,-16 l 0,-15"></path>
<path style="fill:#DFDFDF;stroke:none" d="M 5003,825 l 327,0 0,218 -327,0 0,-218 z"></path>
<path class="stroke8" d="M 5003,825 l 14,0 m 18,0 l 29,0 m 17,0 l 29,0 m 18,0 l 29,0 m 17,0 l 30,0 m 17,0 l 29,0 m 18,0 l 29,0 m 17,0 l 16,0 0,13 m 0,16 l 0,28 m 0,16 l 0,27 m 0,16 l 0,28 m 0,16 l 0,27 m 0,16 l 0,15 -14,0 m -18,0 l -29,0 m -17,0 l -29,0 m -18,0 l -29,0 m -17,0 l -30,0 m -17,0 l -29,0 m -18,0 l -29,0 m -17,0 l -16,0 0,-13 m 0,-16 l 0,-28 m 0,-16 l 0,-27 m 0,-16 l 0,-28 m 0,-16 l 0,-27 m 0,-16 l 0,-15"></path>
<path style="fill:#DFDFDF;stroke:none" d="M 5548,825 l 327,0 0,218 -327,0 0,-218 z"></path>
<path class="stroke8" d="M 5548,825 l 14,0 m 18,0 l 29,0 m 17,0 l 29,0 m 18,0 l 29,0 m 17,0 l 30,0 m 17,0 l 29,0 m 18,0 l 29,0 m 17,0 l 16,0 0,13 m 0,16 l 0,28 m 0,16 l 0,27 m 0,16 l 0,28 m 0,16 l 0,27 m 0,16 l 0,15 -14,0 m -18,0 l -29,0 m -17,0 l -29,0 m -18,0 l -29,0 m -17,0 l -30,0 m -17,0 l -29,0 m -18,0 l -29,0 m -17,0 l -16,0 0,-13 m 0,-16 l 0,-28 m 0,-16 l 0,-27 m 0,-16 l 0,-28 m 0,-16 l 0,-27 m 0,-16 l 0,-15"></path>
<path style="fill:#DFDFDF;stroke:none" d="M 6093,825 l 327,0 0,218 -327,0 0,-218 z"></path>
<path class="stroke8" d="M 6093,825 l 14,0 m 18,0 l 29,0 m 17,0 l 29,0 m 18,0 l 29,0 m 17,0 l 30,0 m 17,0 l 29,0 m 18,0 l 29,0 m 17,0 l 16,0 0,13 m 0,16 l 0,28 m 0,16 l 0,27 m 0,16 l 0,28 m 0,16 l 0,27 m 0,16 l 0,15 -14,0 m -18,0 l -29,0 m -17,0 l -29,0 m -18,0 l -29,0 m -17,0 l -30,0 m -17,0 l -29,0 m -18,0 l -29,0 m -17,0 l -16,0 0,-13 m 0,-16 l 0,-28 m 0,-16 l 0,-27 m 0,-16 l 0,-28 m 0,-16 l 0,-27 m 0,-16 l 0,-15"></path>
<path style="fill:#DFDFDF;stroke:none" d="M 313,2352 l 7307,0 0,218 -7307,0 0,-218 z"></path>
<path class="stroke8" d="M 313,2352 l 7307,0 0,218 -7307,0 0,-218"></path>
<path style="fill:none;stroke:#000000;stroke-width:15" d="M 1622,1807 l 0,518 m 5125,272 l 0,518 m 328,-518 l 0,518 m 327,-518 l 0,518"></path>
<path class="stroke4" d="M 777,3333 l 272,0"></path>
<path style="fill:none;stroke:#000000;stroke-width:15" d="M 2167,1943 l 0,382 m 327,-382 l 0,382 m 327,-382 l 0,382 m 328,-382 l 0,382"></path>
<path class="stroke4" d="M 1295,1807 l 327,0"></path>
<path style="fill:none;stroke:#000000;stroke-width:15" d="M 422,2597 l 0,709 m 327,-709 l 0,709 m 328,-709 l 0,709 m 218,-2017 l 0,1036"></path>
<text class="t2"><tspan x="679" y="966"><a xmlns:xlink="http://www.w3.org/1999/xlink" xlink:type="simple" xlink:show="replace" xlink:actuate="onRequest" xlink:href="javascript:locateTree('F54');">F54</a>
</tspan>

<tspan x="488" y="1089">60A</tspan>
</text>
<path class="stroke8" d="M 313,934 l 14,0 m 18,0 l 29,0 m 17,0 l 29,0 m 18,0 l 29,0 m 17,0 l 30,0 m 17,0 l 29,0 m 18,0 l 29,0 m 17,0 l 16,0 0,13 m 0,16 l 0,28 m 0,16 l 0,27 m 0,16 l 0,28 m 0,16 l 0,27 m 0,16 l 0,15 -14,0 m -18,0 l -29,0 m -17,0 l -29,0 m -18,0 l -29,0 m -17,0 l -30,0 m -17,0 l -29,0 m -18,0 l -29,0 m -17,0 l -16,0 0,-13 m 0,-16 l 0,-28 m 0,-16 l 0,-27 m 0,-16 l 0,-28 m 0,-16 l 0,-27 m 0,-16 l 0,-15"></path>
<path class="stroke4" d="M 439,1012 l -34,0 0,96 34,0 0,-96 m -17,140 l 0,-140 m -7,-15 l 15,0 m -17,3 l 18,0 m -18,2 l 19,0 m -20,3 l 20,0 m -19,2 l 18,0 m -16,3 l 15,0 m -12,-15 l 9,0 m 1,17 l 4,-4 0,-2 1,-1 0,-3 -1,-1 0,-2 -4,-4 -1,0 -1,-1 -6,0 -1,1 -1,0 -1,1 -1,0 -2,2 0,1 -1,1 0,1 -1,1 0,5 1,1 0,1 1,1 3,2"></path>
<text class="t2"><tspan x="403" y="980">30</tspan>
</text>
<path class="stroke4" d="M 422,1152 l 0,109"></path>
<path class="white" d="M 408,1261 l 28,0 0,28 -28,0 0,-28 z"></path>
<path class="black" d="M 421,1262 l 2,0 0,11 -2,0 0,-11 z"></path>
<path class="stroke4" d="M 421,1262 l 2,0 0,11 -2,0 0,-11"></path>
<path class="stroke6" d="M 435,1275 l 0,3 -1,1 0,2 -6,6 -2,0 -1,1 -6,0 -1,-1 -2,0 -6,-6 0,-2 -1,-1 0,-3"></path>
<text class="t2"><tspan x="897" y="857"><a xmlns:xlink="http://www.w3.org/1999/xlink" xlink:type="simple" xlink:show="replace" xlink:actuate="onRequest" xlink:href="javascript:locateTree('A4010');">A4010</a>
</tspan>

<tspan x="1551" y="966"><a xmlns:xlink="http://www.w3.org/1999/xlink" xlink:type="simple" xlink:show="replace" xlink:actuate="onRequest" xlink:href="javascript:locateTree('F02');">F02</a>
</tspan>

<tspan x="1360" y="1089">30A</tspan>

<tspan x="460" y="1321"><a xmlns:xlink="http://www.w3.org/1999/xlink" xlink:type="simple" xlink:show="replace" xlink:actuate="onRequest" xlink:href="javascript:locateTree('X11008');">X11008</a>
</tspan>

<tspan x="361" y="1321">2</tspan>
</text>
<path class="stroke8" d="M 1186,934 l 14,0 m 18,0 l 29,0 m 17,0 l 29,0 m 18,0 l 29,0 m 17,0 l 30,0 m 17,0 l 29,0 m 18,0 l 29,0 m 17,0 l 16,0 0,13 m 0,16 l 0,28 m 0,16 l 0,27 m 0,16 l 0,28 m 0,16 l 0,27 m 0,16 l 0,15 -14,0 m -18,0 l -29,0 m -17,0 l -29,0 m -18,0 l -29,0 m -17,0 l -30,0 m -17,0 l -29,0 m -18,0 l -29,0 m -17,0 l -16,0 0,-13 m 0,-16 l 0,-28 m 0,-16 l 0,-27 m 0,-16 l 0,-28 m 0,-16 l 0,-27 m 0,-16 l 0,-15"></path>
<path class="stroke4" d="M 1311,1012 l -33,0 0,96 33,0 0,-96 m -16,140 l 0,-140 m -8,-15 l 15,0 m -16,3 l 17,0 m -18,2 l 19,0 m -19,3 l 20,0 m -19,2 l 17,0 m -16,3 l 15,0 m -12,-15 l 9,0 m 1,17 l 4,-4 0,-2 1,-1 0,-3 -1,-1 0,-2 -4,-4 -1,0 -1,-1 -6,0 -1,1 -1,0 -1,1 -1,0 -2,2 0,1 -1,1 0,1 -1,1 0,4 1,1 0,2 1,1 4,2"></path>
<text class="t2"><tspan x="1275" y="980">87</tspan>
</text>
<path class="stroke4" d="M 1295,1152 l 0,109"></path>
<path class="white" d="M 1281,1261 l 27,0 0,28 -27,0 0,-28 z"></path>
<path class="black" d="M 1294,1261 l 1,0 0,12 -1,0 0,-12 z"></path>
<path class="stroke4" d="M 1294,1261 l 1,0 0,12 -1,0 0,-12"></path>
<path class="stroke6" d="M 1308,1275 l 0,3 -1,1 0,1 -1,1 0,1 -4,4 -1,0 -1,1 -1,0 -1,1 -7,0 -1,-1 -1,0 -1,-1 -1,0 -4,-4 0,-1 -1,-1 0,-1 -1,-1 0,-3"></path>
<text class="t2"><tspan x="1769" y="857"><a xmlns:xlink="http://www.w3.org/1999/xlink" xlink:type="simple" xlink:show="replace" xlink:actuate="onRequest" xlink:href="javascript:locateTree('A8680');">A8680</a>
</tspan>

<tspan x="1233" y="1321">4</tspan>

<tspan x="1333" y="1321"><a xmlns:xlink="http://www.w3.org/1999/xlink" xlink:type="simple" xlink:show="replace" xlink:actuate="onRequest" xlink:href="javascript:locateTree('X8680');">X8680</a>
</tspan>
</text>
<path class="white" d="M 408,2570 l 28,0 0,27 -28,0 0,-27 z"></path>
<path class="black" d="M 421,2570 l 2,0 0,11 -2,0 0,-11 z"></path>
<path class="stroke4" d="M 421,2570 l 2,0 0,11 -2,0 0,-11"></path>
<path class="stroke6" d="M 435,2584 l 0,3 -1,1 0,2 -6,6 -2,0 -1,1 -6,0 -1,-1 -2,0 -6,-6 0,-2 -1,-1 0,-3"></path>
<text class="t2"><tspan x="361" y="2629">4</tspan>
</text>
<path class="stroke4" d="M 435,2584 l 30,0 m 15,0 l 30,0 m 15,0 l 30,0 m 15,0 l 30,0 m 15,0 l 30,0 m 15,0 l 30,0 m 15,0 l 30,0"></path>
<path class="white" d="M 736,2570 l 27,0 0,27 -27,0 0,-27 z"></path>
<path class="black" d="M 748,2570 l 2,0 0,11 -2,0 0,-11 z"></path>
<path class="stroke4" d="M 748,2570 l 2,0 0,11 -2,0 0,-11"></path>
<path class="stroke6" d="M 762,2584 l 0,3 -1,1 0,2 -6,6 -2,0 -1,1 -6,0 -1,-1 -2,0 -6,-6 0,-2 -1,-1 0,-3"></path>
<text class="t2"><tspan x="688" y="2629">5</tspan>
</text>
<path class="stroke4" d="M 762,2584 l 30,0 m 15,0 l 30,0 m 15,0 l 30,0 m 15,0 l 30,0 m 15,0 l 30,0 m 15,0 l 30,0 m 15,0 l 30,0"></path>
<path class="white" d="M 1063,2570 l 27,0 0,27 -27,0 0,-27 z"></path>
<path class="black" d="M 1076,2570 l 1,0 0,11 -1,0 0,-11 z"></path>
<path class="stroke4" d="M 1076,2570 l 1,0 0,11 -1,0 0,-11"></path>
<path class="stroke6" d="M 1090,2584 l 0,3 -1,1 0,1 -1,1 0,1 -4,4 -1,0 -1,1 -1,0 -1,1 -7,0 -1,-1 -1,0 -1,-1 -1,0 -4,-4 0,-1 -1,-1 0,-1 -1,-1 0,-3"></path>
<text class="t2"><tspan x="1115" y="2629"><a xmlns:xlink="http://www.w3.org/1999/xlink" xlink:type="simple" xlink:show="replace" xlink:actuate="onRequest" xlink:href="javascript:locateTree('X60003');">X60003</a>
</tspan>

<tspan x="1015" y="2629">6</tspan>
</text>
<path class="stroke4" d="M 3966,2431 l -4,0 -1,1 -3,0 -1,1 -2,0 -1,1 -1,0 -1,1 -1,0 -2,2 -1,0 -6,6 0,1 -2,2 0,1 -1,1 0,1 -1,1 0,2 -1,1 0,3 -1,1 0,10 1,1 0,2 1,1 0,2 1,1 0,1 1,1 0,1 2,2 0,1 6,6 1,0 2,2 1,0 1,1 1,0 1,1 2,0 1,1 2,0 1,1 11,0 1,-1 2,0 1,-1 2,0 1,-1 1,0 1,-1 1,0 2,-2 1,0 6,-6 0,-1 2,-2 0,-1 1,-1 0,-1 1,-1 0,-2 1,-1 0,-2 1,-1 0,-10 -1,-1 0,-3 -1,-1 0,-2 -1,-1 0,-1 -1,-1 0,-1 -2,-2 0,-1 -6,-6 -1,0 -2,-2 -1,0 -1,-1 -1,0 -1,-1 -2,0 -1,-1 -3,0 -1,-1 -4,0 m -40,68 l 79,0 0,-76 -79,0 0,76 m 40,-32 l 0,24 m -21,-25 l 41,0 m -45,-21 l  12,21 m 38,-21 l -13,21 m -26,-2 l -8,-7 6,-4 2,11"></path>
<path style="fill:none;stroke:#000000;stroke-width:15" d="M 422,1289 l 0,381"></path>
<text class="t2"><tspan x="460" y="1427">30&lt;54</tspan>

<tspan x="460" y="1482">6.0</tspan>

<tspan x="460" y="1525">RT</tspan>
</text>
<path class="white" d="M 436,1698 l -27,0 0,-28 27,0 0,28 z"></path>
<path class="black" d="M 423,1697 l -2,0 0,-11 2,0 0,11 z"></path>
<path class="stroke4" d="M 423,1697 l -2,0 0,-11 2,0 0,11"></path>
<path class="stroke6" d="M 409,1684 l 0,-3 1,-1 0,-2 6,-6 2,0 1,-1 6,0 1,1 2,0 6,6 0,2 1,1 0,3"></path>
<text class="t2"><tspan x="461" y="1662"><a xmlns:xlink="http://www.w3.org/1999/xlink" xlink:type="simple" xlink:show="replace" xlink:actuate="onRequest" xlink:href="javascript:locateTree('X18326');">X18326</a>
</tspan>

<tspan x="361" y="1662">1</tspan>
</text>
<path class="white" d="M 408,1916 l 28,0 0,27 -28,0 0,-27 z"></path>
<path class="black" d="M 421,1916 l 2,0 0,11 -2,0 0,-11 z"></path>
<path class="stroke4" d="M 421,1916 l 2,0 0,11 -2,0 0,-11"></path>
<path class="stroke6" d="M 435,1929 l 0,3 -1,1 0,2 -6,6 -2,0 -1,1 -6,0 -1,-1 -2,0 -6,-6 0,-2 -1,-1 0,-3"></path>
<text class="t2"><tspan x="460" y="1975"><a xmlns:xlink="http://www.w3.org/1999/xlink" xlink:type="simple" xlink:show="replace" xlink:actuate="onRequest" xlink:href="javascript:locateTree('X64101');">X64101</a>
</tspan>

<tspan x="361" y="1975">1</tspan>
</text>
<path style="fill:none;stroke:#000000;stroke-width:15" d="M 422,1943 l 0,382"></path>
<text class="t2"><tspan x="460" y="2081">U_30</tspan>

<tspan x="460" y="2136">1.5</tspan>

<tspan x="460" y="2180">RT</tspan>
</text>
<path class="white" d="M 436,2352 l -27,0 0,-27 27,0 0,27 z"></path>
<path class="black" d="M 423,2352 l -2,0 0,-12 2,0 0,12 z"></path>
<path class="stroke4" d="M 423,2352 l -2,0 0,-12 2,0 0,12"></path>
<path class="stroke6" d="M 409,2338 l 0,-3 1,-1 0,-2 6,-6 2,0 1,-1 6,0 1,1 2,0 6,6 0,2 1,1 0,3"></path>
<text class="t2"><tspan x="1333" y="2081">U_HR&lt;2</tspan>

<tspan x="1333" y="2136">1.0</tspan>

<tspan x="1333" y="2180">OR</tspan>

<tspan x="361" y="2316">1</tspan>
</text>
<path class="white" d="M 1636,2352 l -28,0 0,-27 28,0 0,27 z"></path>
<path class="black" d="M 1623,2352 l -2,0 0,-11 2,0 0,11 z"></path>
<path class="stroke4" d="M 1623,2352 l -2,0 0,-11 2,0 0,11"></path>
<path class="stroke6" d="M 1609,2338 l 0,-3 1,-1 0,-2 6,-6 2,0 1,-1 6,0 1,1 2,0 6,6 0,2 1,1 0,3"></path>
<text class="t2"><tspan x="1660" y="2316"><a xmlns:xlink="http://www.w3.org/1999/xlink" xlink:type="simple" xlink:show="replace" xlink:actuate="onRequest" xlink:href="javascript:locateTree('X60003');">X60003</a>
</tspan>

<tspan x="1561" y="2316">3</tspan>
</text>
<path class="stroke4" d="M 481,1807 l 23,0 -23,10 0,-22 23,12 m -23,-4 l 15,0 m -15,-4 l 8,0 m -8,11 l 14,0 m -14,4 l 6,0 m -65,-2 l 2,0 1,-1 1,0 1,-1 0,-1 1,-1 0,-3 -1,-1 0,-1 -1,-1 -1,0 -1,-1 -3,0 -1,1 -1,0 -1,1 0,1 -1,1 0,3 1,1 0,1 1,1 1,0 1,1 m 7,-5 l -11,0 m 1,-3 l 9,0 m -9,5 l 9,0 m -5,-2 l 82,0 m -82,-109 l 0,218"></path>
<text class="t2"><tspan x="679" y="1730"><a xmlns:xlink="http://www.w3.org/1999/xlink" xlink:type="simple" xlink:show="replace" xlink:actuate="onRequest" xlink:href="javascript:locateTree('A2076');">A2076</a>
</tspan>
</text>
<path style="fill:none;stroke:#000000;stroke-width:15" d="M 1513,2597 l 0,518"></path>
<text class="t2"><tspan x="1551" y="2736">A_LSVP1</tspan>

<tspan x="1551" y="2790">0.5</tspan>

<tspan x="1551" y="2834">GE/WS</tspan>
</text>
<path style="fill:none;stroke:#000000;stroke-width:15" d="M 1840,2597 l 0,518"></path>
<text class="t2"><tspan x="1878" y="2736">A_LSVR1</tspan>

<tspan x="1878" y="2790">0.5</tspan>

<tspan x="1878" y="2834">GE</tspan>
</text>
<path style="fill:none;stroke:#000000;stroke-width:15" d="M 2167,2597 l 0,518"></path>
<text class="t2"><tspan x="2205" y="2736">M_LSV1</tspan>

<tspan x="2205" y="2790">0.5</tspan>

<tspan x="2205" y="2834">SW/BL</tspan>
</text>
<path style="fill:none;stroke:#000000;stroke-width:15" d="M 2494,2597 l 0,518"></path>
<text class="t2"><tspan x="2533" y="2736">T_LHV1</tspan>

<tspan x="2533" y="2790">0.5</tspan>

<tspan x="2533" y="2834">WS/BL</tspan>
</text>
<path style="fill:none;stroke:#000000;stroke-width:15" d="M 2821,2597 l 0,518"></path>
<text class="t2"><tspan x="2860" y="2736">I_LSVP1</tspan>

<tspan x="2860" y="2790">0.5</tspan>

<tspan x="2860" y="2834">WS</tspan>
</text>
<path class="white" d="M 1499,2570 l 27,0 0,27 -27,0 0,-27 z"></path>
<path class="black" d="M 1512,2570 l 2,0 0,11 -2,0 0,-11 z"></path>
<path class="stroke4" d="M 1512,2570 l 2,0 0,11 -2,0 0,-11"></path>
<path class="stroke6" d="M 1526,2584 l 0,3 -1,1 0,2 -6,6 -2,0 -1,1 -6,0 -1,-1 -2,0 -6,-6 0,-2 -1,-1 0,-3"></path>
<text class="t2"><tspan x="1451" y="2629">6</tspan>
</text>
<path class="white" d="M 1527,3006 l -28,0 0,-27 28,0 0,27 z"></path>
<path class="black" d="M 1514,3006 l -2,0 0,-11 2,0 0,11 z"></path>
<path class="stroke4" d="M 1514,3006 l -2,0 0,-11 2,0 0,11"></path>
<path class="stroke6" d="M 1500,2993 l 0,-3 1,-1 0,-2 1,-1 0,-1 4,-4 1,0 1,-1 1,0 1,-1 6,0 1,1 1,0 1,1 1,0 4,4 0,1 1,1 0,2 1,1 0,3"></path>
<text class="t2"><tspan x="1452" y="2970">1</tspan>
</text>
<path class="stroke4" d="M 1526,2584 l 30,0 m 15,0 l 30,0 m 15,0 l 30,0 m 15,0 l 30,0 m 15,0 l 30,0 m 15,0 l 30,0 m 15,0 l 30,0"></path>
<path class="white" d="M 1826,2570 l 27,0 0,27 -27,0 0,-27 z"></path>
<path class="black" d="M 1839,2570 l 2,0 0,11 -2,0 0,-11 z"></path>
<path class="stroke4" d="M 1839,2570 l 2,0 0,11 -2,0 0,-11"></path>
<path class="stroke6" d="M 1853,2584 l 0,3 -1,1 0,2 -6,6 -2,0 -1,1 -6,0 -1,-1 -2,0 -6,-6 0,-2 -1,-1 0,-3"></path>
<text class="t2"><tspan x="1779" y="2629">8</tspan>
</text>
<path class="stroke4" d="M 1526,2993 l 30,0 m 15,0 l 30,0 m 15,0 l 30,0 m 15,0 l 30,0 m 15,0 l 30,0 m 15,0 l 30,0 m 15,0 l 30,0"></path>
<path class="white" d="M 1854,3006 l -28,0 0,-27 28,0 0,27 z"></path>
<path class="black" d="M 1841,3006 l -2,0 0,-11 2,0 0,11 z"></path>
<path class="stroke4" d="M 1841,3006 l -2,0 0,-11 2,0 0,11"></path>
<path class="stroke6" d="M 1827,2993 l 0,-3 1,-1 0,-2 1,-1 0,-1 4,-4 1,0 1,-1 1,0 1,-1 6,0 1,1 1,0 1,1 1,0 4,4 0,1 1,1 0,2 1,1 0,3"></path>
<text class="t2"><tspan x="1779" y="2970">6</tspan>
</text>
<path class="stroke4" d="M 1853,2584 l 30,0 m 15,0 l 30,0 m 15,0 l 30,0 m 15,0 l 30,0 m 15,0 l 30,0 m 15,0 l 30,0 m 15,0 l 30,0"></path>
<path class="white" d="M 2153,2570 l 28,0 0,27 -28,0 0,-27 z"></path>
<path class="black" d="M 2166,2570 l 2,0 0,11 -2,0 0,-11 z"></path>
<path class="stroke4" d="M 2166,2570 l 2,0 0,11 -2,0 0,-11"></path>
<path class="stroke6" d="M 2180,2584 l 0,3 -1,1 0,2 -6,6 -2,0 -1,1 -6,0 -1,-1 -2,0 -6,-6 0,-2 -1,-1 0,-3"></path>
<text class="t2"><tspan x="2083" y="2629">10</tspan>
</text>
<path class="stroke4" d="M 1853,2993 l 30,0 m 15,0 l 30,0 m 15,0 l 30,0 m 15,0 l 30,0 m 15,0 l 30,0 m 15,0 l 30,0 m 15,0 l 30,0"></path>
<path class="white" d="M 2181,3006 l -27,0 0,-27 27,0 0,27 z"></path>
<path class="black" d="M 2168,3006 l -2,0 0,-11 2,0 0,11 z"></path>
<path class="stroke4" d="M 2168,3006 l -2,0 0,-11 2,0 0,11"></path>
<path class="stroke6" d="M 2154,2993 l 0,-3 1,-1 0,-2 1,-1 0,-1 4,-4 1,0 1,-1 1,0 1,-1 6,0 1,1 1,0 1,1 1,0 4,4 0,1 1,1 0,2 1,1 0,3"></path>
<text class="t2"><tspan x="2106" y="2970">2</tspan>
</text>
<path class="stroke4" d="M 2180,2584 l 30,0 m 15,0 l 30,0 m 15,0 l 30,0 m 15,0 l 30,0 m 15,0 l 30,0 m 15,0 l 30,0 m 15,0 l 30,0"></path>
<path class="white" d="M 2480,2570 l 28,0 0,27 -28,0 0,-27 z"></path>
<path class="black" d="M 2493,2570 l 2,0 0,11 -2,0 0,-11 z"></path>
<path class="stroke4" d="M 2493,2570 l 2,0 0,11 -2,0 0,-11"></path>
<path class="stroke6" d="M 2507,2584 l 0,3 -1,1 0,2 -6,6 -2,0 -1,1 -6,0 -1,-1 -2,0 -6,-6 0,-2 -1,-1 0,-3"></path>
<text class="t2"><tspan x="2410" y="2629">12</tspan>
</text>
<path class="stroke4" d="M 2180,2993 l 30,0 m 15,0 l 30,0 m 15,0 l 30,0 m 15,0 l 30,0 m 15,0 l 30,0 m 15,0 l 30,0 m 15,0 l 30,0"></path>
<path class="white" d="M 2508,3006 l -27,0 0,-27 27,0 0,27 z"></path>
<path class="black" d="M 2495,3006 l -2,0 0,-11 2,0 0,11 z"></path>
<path class="stroke4" d="M 2495,3006 l -2,0 0,-11 2,0 0,11"></path>
<path class="stroke6" d="M 2481,2993 l 0,-3 1,-1 0,-2 1,-1 0,-1 4,-4 1,0 1,-1 1,0 1,-1 6,0 1,1 1,0 1,1 1,0 4,4 0,1 1,1 0,2 1,1 0,3"></path>
<text class="t2"><tspan x="2433" y="2970">3</tspan>
</text>
<path class="stroke4" d="M 2507,2584 l 30,0 m 15,0 l 30,0 m 15,0 l 30,0 m 15,0 l 30,0 m 15,0 l 30,0 m 15,0 l 30,0 m 15,0 l 30,0"></path>
<path class="white" d="M 2808,2570 l 27,0 0,27 -27,0 0,-27 z"></path>
<path class="black" d="M 2820,2570 l 2,0 0,11 -2,0 0,-11 z"></path>
<path class="stroke4" d="M 2820,2570 l 2,0 0,11 -2,0 0,-11"></path>
<path class="stroke6" d="M 2835,2584 l 0,3 -1,1 0,1 -1,1 0,1 -4,4 -1,0 -1,1 -1,0 -1,1 -7,0 -1,-1 -1,0 -1,-1 -1,0 -4,-4 0,-1 -1,-1 0,-1 -1,-1 0,-3"></path>
<text class="t2"><tspan x="2737" y="2629">18</tspan>
</text>
<path class="stroke4" d="M 2507,2993 l 30,0 m 15,0 l 30,0 m 15,0 l 30,0 m 15,0 l 30,0 m 15,0 l 30,0 m 15,0 l 30,0 m 15,0 l 30,0"></path>
<path class="white" d="M 2835,3006 l -27,0 0,-27 27,0 0,27 z"></path>
<path class="black" d="M 2822,3006 l -1,0 0,-11 1,0 0,11 z"></path>
<path class="stroke4" d="M 2822,3006 l -1,0 0,-11 1,0 0,11"></path>
<path class="stroke6" d="M 2808,2993 l 0,-3 1,-1 0,-2 1,-1 0,-1 4,-4 1,0 1,-1 1,0 1,-1 7,0 1,1 1,0 1,1 1,0 4,4 0,1 1,1 0,2 1,1 0,3"></path>
<text class="t2"><tspan x="2860" y="2970"><a xmlns:xlink="http://www.w3.org/1999/xlink" xlink:type="simple" xlink:show="replace" xlink:actuate="onRequest" xlink:href="javascript:locateTree('X62101');">X62101</a>
</tspan>

<tspan x="2760" y="2970">5</tspan>
</text>
<path style="fill:none;stroke:#000000;stroke-width:15" d="M 3476,2597 l 0,518"></path>
<text class="t2"><tspan x="3514" y="2736">I_LSVP2</tspan>

<tspan x="3514" y="2790">0.5</tspan>

<tspan x="3514" y="2834">WS</tspan>
</text>
<path style="fill:none;stroke:#000000;stroke-width:15" d="M 3803,2597 l 0,518"></path>
<text class="t2"><tspan x="3841" y="2736">A_LSVP2</tspan>

<tspan x="3841" y="2790">0.5</tspan>

<tspan x="3841" y="2834">GE/WS</tspan>
</text>
<path style="fill:none;stroke:#000000;stroke-width:15" d="M 4130,2597 l 0,518"></path>
<text class="t2"><tspan x="4168" y="2736">A_LSVR2</tspan>

<tspan x="4168" y="2790">0.5</tspan>

<tspan x="4168" y="2834">GE</tspan>
</text>
<path style="fill:none;stroke:#000000;stroke-width:15" d="M 4457,2597 l 0,518"></path>
<text class="t2"><tspan x="4496" y="2736">M_LSV2</tspan>

<tspan x="4496" y="2790">0.5</tspan>

<tspan x="4496" y="2834">SW/WS</tspan>
</text>
<path style="fill:none;stroke:#000000;stroke-width:15" d="M 4784,2597 l 0,518"></path>
<text class="t2"><tspan x="4823" y="2736">T_LSV2</tspan>

<tspan x="4823" y="2790">0.5</tspan>

<tspan x="4823" y="2834">WS/BL</tspan>
</text>
<path class="white" d="M 3462,2570 l 27,0 0,27 -27,0 0,-27 z"></path>
<path class="black" d="M 3475,2570 l 2,0 0,11 -2,0 0,-11 z"></path>
<path class="stroke4" d="M 3475,2570 l 2,0 0,11 -2,0 0,-11"></path>
<path class="stroke6" d="M 3489,2584 l 0,3 -1,1 0,2 -6,6 -2,0 -1,1 -6,0 -1,-1 -2,0 -6,-6 0,-2 -1,-1 0,-3"></path>
<text class="t2"><tspan x="3414" y="2629">5</tspan>
</text>
<path class="white" d="M 3490,3006 l -28,0 0,-27 28,0 0,27 z"></path>
<path class="black" d="M 3477,3006 l -2,0 0,-11 2,0 0,11 z"></path>
<path class="stroke4" d="M 3477,3006 l -2,0 0,-11 2,0 0,11"></path>
<path class="stroke6" d="M 3463,2993 l 0,-3 1,-1 0,-2 1,-1 0,-1 4,-4 1,0 1,-1 1,0 1,-1 6,0 1,1 1,0 1,1 1,0 4,4 0,1 1,1 0,2 1,1 0,3"></path>
<text class="t2"><tspan x="3415" y="2970">5</tspan>
</text>
<path class="stroke4" d="M 3489,2584 l 30,0 m 15,0 l 30,0 m 15,0 l 30,0 m 15,0 l 30,0 m 15,0 l 30,0 m 15,0 l 30,0 m 15,0 l 30,0"></path>
<path class="white" d="M 3789,2570 l 27,0 0,27 -27,0 0,-27 z"></path>
<path class="black" d="M 3802,2570 l 2,0 0,11 -2,0 0,-11 z"></path>
<path class="stroke4" d="M 3802,2570 l 2,0 0,11 -2,0 0,-11"></path>
<path class="stroke6" d="M 3816,2584 l 0,3 -1,1 0,2 -6,6 -2,0 -1,1 -6,0 -1,-1 -2,0 -6,-6 0,-2 -1,-1 0,-3"></path>
<text class="t2"><tspan x="3742" y="2629">7</tspan>
</text>
<path class="stroke4" d="M 3489,2993 l 30,0 m 15,0 l 30,0 m 15,0 l 30,0 m 15,0 l 30,0 m 15,0 l 30,0 m 15,0 l 30,0 m 15,0 l 30,0"></path>
<path class="white" d="M 3817,3006 l -28,0 0,-27 28,0 0,27 z"></path>
<path class="black" d="M 3804,3006 l -2,0 0,-11 2,0 0,11 z"></path>
<path class="stroke4" d="M 3804,3006 l -2,0 0,-11 2,0 0,11"></path>
<path class="stroke6" d="M 3790,2993 l 0,-3 1,-1 0,-2 1,-1 0,-1 4,-4 1,0 1,-1 1,0 1,-1 6,0 1,1 1,0 1,1 1,0 4,4 0,1 1,1 0,2 1,1 0,3"></path>
<text class="t2"><tspan x="3742" y="2970">1</tspan>
</text>
<path class="stroke4" d="M 3816,2584 l 30,0 m 15,0 l 30,0 m 15,0 l 30,0 m 15,0 l 30,0 m 15,0 l 30,0 m 15,0 l 30,0 m 15,0 l 30,0"></path>
<path class="white" d="M 4116,2570 l 28,0 0,27 -28,0 0,-27 z"></path>
<path class="black" d="M 4129,2570 l 2,0 0,11 -2,0 0,-11 z"></path>
<path class="stroke4" d="M 4129,2570 l 2,0 0,11 -2,0 0,-11"></path>
<path class="stroke6" d="M 4143,2584 l 0,3 -1,1 0,2 -6,6 -2,0 -1,1 -6,0 -1,-1 -2,0 -6,-6 0,-2 -1,-1 0,-3"></path>
<text class="t2"><tspan x="4069" y="2629">9</tspan>
</text>
<path class="stroke4" d="M 3816,2993 l 30,0 m 15,0 l 30,0 m 15,0 l 30,0 m 15,0 l 30,0 m 15,0 l 30,0 m 15,0 l 30,0 m 15,0 l 30,0"></path>
<path class="white" d="M 4144,3006 l -27,0 0,-27 27,0 0,27 z"></path>
<path class="black" d="M 4131,3006 l -2,0 0,-11 2,0 0,11 z"></path>
<path class="stroke4" d="M 4131,3006 l -2,0 0,-11 2,0 0,11"></path>
<path class="stroke6" d="M 4117,2993 l 0,-3 1,-1 0,-2 1,-1 0,-1 4,-4 1,0 1,-1 1,0 1,-1 6,0 1,1 1,0 1,1 1,0 4,4 0,1 1,1 0,2 1,1 0,3"></path>
<text class="t2"><tspan x="4069" y="2970">6</tspan>
</text>
<path class="stroke4" d="M 4143,2584 l 30,0 m 15,0 l 30,0 m 15,0 l 30,0 m 15,0 l 30,0 m 15,0 l 30,0 m 15,0 l 30,0 m 15,0 l 30,0"></path>
<path class="white" d="M 4444,2570 l 27,0 0,27 -27,0 0,-27 z"></path>
<path class="black" d="M 4456,2570 l 2,0 0,11 -2,0 0,-11 z"></path>
<path class="stroke4" d="M 4456,2570 l 2,0 0,11 -2,0 0,-11"></path>
<path class="stroke6" d="M 4470,2584 l 0,3 -1,1 0,2 -6,6 -2,0 -1,1 -6,0 -1,-1 -2,0 -6,-6 0,-2 -1,-1 0,-3"></path>
<text class="t2"><tspan x="4376" y="2629">11</tspan>
</text>
<path class="stroke4" d="M 4143,2993 l 30,0 m 15,0 l 30,0 m 15,0 l 30,0 m 15,0 l 30,0 m 15,0 l 30,0 m 15,0 l 30,0 m 15,0 l 30,0"></path>
<path class="white" d="M 4471,3006 l -27,0 0,-27 27,0 0,27 z"></path>
<path class="black" d="M 4458,3006 l -2,0 0,-11 2,0 0,11 z"></path>
<path class="stroke4" d="M 4458,3006 l -2,0 0,-11 2,0 0,11"></path>
<path class="stroke6" d="M 4444,2993 l 0,-3 1,-1 0,-2 1,-1 0,-1 4,-4 1,0 1,-1 1,0 1,-1 6,0 1,1 1,0 1,1 1,0 4,4 0,1 1,1 0,2 1,1 0,3"></path>
<text class="t2"><tspan x="4396" y="2970">2</tspan>
</text>
<path class="stroke4" d="M 4470,2584 l 30,0 m 15,0 l 30,0 m 15,0 l 30,0 m 15,0 l 30,0 m 15,0 l 30,0 m 15,0 l 30,0 m 15,0 l 30,0"></path>
<path class="white" d="M 4771,2570 l 27,0 0,27 -27,0 0,-27 z"></path>
<path class="black" d="M 4784,2570 l 1,0 0,11 -1,0 0,-11 z"></path>
<path class="stroke4" d="M 4784,2570 l 1,0 0,11 -1,0 0,-11"></path>
<path class="stroke6" d="M 4798,2584 l 0,3 -1,1 0,1 -1,1 0,1 -4,4 -1,0 -1,1 -1,0 -1,1 -7,0 -1,-1 -1,0 -1,-1 -1,0 -4,-4 0,-1 -1,-1 0,-1 -1,-1 0,-3"></path>
<text class="t2"><tspan x="4700" y="2629">13</tspan>
</text>
<path class="stroke4" d="M 4470,2993 l 30,0 m 15,0 l 30,0 m 15,0 l 30,0 m 15,0 l 30,0 m 15,0 l 30,0 m 15,0 l 30,0 m 15,0 l 30,0"></path>
<path class="white" d="M 4798,3006 l -27,0 0,-27 27,0 0,27 z"></path>
<path class="black" d="M 4785,3006 l -1,0 0,-11 1,0 0,11 z"></path>
<path class="stroke4" d="M 4785,3006 l -1,0 0,-11 1,0 0,11"></path>
<path class="stroke6" d="M 4771,2993 l 0,-3 1,-1 0,-2 1,-1 0,-1 4,-4 1,0 1,-1 1,0 1,-1 7,0 1,1 1,0 1,1 1,0 4,4 0,1 1,1 0,2 1,1 0,3"></path>
<text class="t2"><tspan x="4823" y="2970"><a xmlns:xlink="http://www.w3.org/1999/xlink" xlink:type="simple" xlink:show="replace" xlink:actuate="onRequest" xlink:href="javascript:locateTree('X62201');">X62201</a>
</tspan>

<tspan x="4723" y="2970">3</tspan>
</text>
<path style="fill:none;stroke:#000000;stroke-width:15" d="M 5439,2597 l 0,518"></path>
<text class="t2"><tspan x="5477" y="2736">A_LSH1</tspan>

<tspan x="5477" y="2790">0.5</tspan>

<tspan x="5477" y="2834">GE</tspan>
</text>
<path style="fill:none;stroke:#000000;stroke-width:15" d="M 5766,2597 l 0,518"></path>
<text class="t2"><tspan x="5804" y="2736">M_LSH1</tspan>

<tspan x="5804" y="2790">0.5</tspan>

<tspan x="5804" y="2834">SW/RT</tspan>
</text>
<path style="fill:none;stroke:#000000;stroke-width:15" d="M 6093,2597 l 0,518"></path>
<text class="t2"><tspan x="6131" y="2736">T_LHH1</tspan>

<tspan x="6131" y="2790">0.5</tspan>

<tspan x="6131" y="2834">WS/GR</tspan>
</text>
<path class="white" d="M 5425,2570 l 27,0 0,27 -27,0 0,-27 z"></path>
<path class="black" d="M 5438,2570 l 2,0 0,11 -2,0 0,-11 z"></path>
<path class="stroke4" d="M 5438,2570 l 2,0 0,11 -2,0 0,-11"></path>
<path class="stroke6" d="M 5452,2584 l 0,3 -1,1 0,2 -6,6 -2,0 -1,1 -6,0 -1,-1 -2,0 -6,-6 0,-2 -1,-1 0,-3"></path>
<text class="t2"><tspan x="5354" y="2629">20</tspan>
</text>
<path class="white" d="M 5453,3006 l -28,0 0,-27 28,0 0,27 z"></path>
<path class="black" d="M 5440,3006 l -2,0 0,-11 2,0 0,11 z"></path>
<path class="stroke4" d="M 5440,3006 l -2,0 0,-11 2,0 0,11"></path>
<path class="stroke6" d="M 5426,2993 l 0,-3 1,-1 0,-2 1,-1 0,-1 4,-4 1,0 1,-1 1,0 1,-1 6,0 1,1 1,0 1,1 1,0 4,4 0,1 1,1 0,2 1,1 0,3"></path>
<text class="t2"><tspan x="5378" y="2970">4</tspan>
</text>
<path class="stroke4" d="M 5452,2584 l 30,0 m 15,0 l 30,0 m 15,0 l 30,0 m 15,0 l 30,0 m 15,0 l 30,0 m 15,0 l 30,0 m 15,0 l 30,0"></path>
<path class="white" d="M 5752,2570 l 27,0 0,27 -27,0 0,-27 z"></path>
<path class="black" d="M 5765,2570 l 2,0 0,11 -2,0 0,-11 z"></path>
<path class="stroke4" d="M 5765,2570 l 2,0 0,11 -2,0 0,-11"></path>
<path class="stroke6" d="M 5779,2584 l 0,3 -1,1 0,2 -6,6 -2,0 -1,1 -6,0 -1,-1 -2,0 -6,-6 0,-2 -1,-1 0,-3"></path>
<text class="t2"><tspan x="5682" y="2629">23</tspan>
</text>
<path class="stroke4" d="M 5452,2993 l 30,0 m 15,0 l 30,0 m 15,0 l 30,0 m 15,0 l 30,0 m 15,0 l 30,0 m 15,0 l 30,0 m 15,0 l 30,0"></path>
<path class="white" d="M 5780,3006 l -28,0 0,-27 28,0 0,27 z"></path>
<path class="black" d="M 5767,3006 l -2,0 0,-11 2,0 0,11 z"></path>
<path class="stroke4" d="M 5767,3006 l -2,0 0,-11 2,0 0,11"></path>
<path class="stroke6" d="M 5753,2993 l 0,-3 1,-1 0,-2 1,-1 0,-1 4,-4 1,0 1,-1 1,0 1,-1 6,0 1,1 1,0 1,1 1,0 4,4 0,1 1,1 0,2 1,1 0,3"></path>
<text class="t2"><tspan x="5705" y="2970">3</tspan>
</text>
<path class="stroke4" d="M 5779,2584 l 30,0 m 15,0 l 30,0 m 15,0 l 30,0 m 15,0 l 30,0 m 15,0 l 30,0 m 15,0 l 30,0 m 15,0 l 30,0"></path>
<path class="white" d="M 6079,2570 l 28,0 0,27 -28,0 0,-27 z"></path>
<path class="black" d="M 6092,2570 l 2,0 0,11 -2,0 0,-11 z"></path>
<path class="stroke4" d="M 6092,2570 l 2,0 0,11 -2,0 0,-11"></path>
<path class="stroke6" d="M 6106,2584 l 0,3 -1,1 0,2 -6,6 -2,0 -1,1 -6,0 -1,-1 -2,0 -6,-6 0,-2 -1,-1 0,-3"></path>
<text class="t2"><tspan x="6009" y="2629">26</tspan>
</text>
<path class="stroke4" d="M 5779,2993 l 30,0 m 15,0 l 30,0 m 15,0 l 30,0 m 15,0 l 30,0 m 15,0 l 30,0 m 15,0 l 30,0 m 15,0 l 30,0"></path>
<path class="white" d="M 6107,3006 l -27,0 0,-27 27,0 0,27 z"></path>
<path class="black" d="M 6094,3006 l -2,0 0,-11 2,0 0,11 z"></path>
<path class="stroke4" d="M 6094,3006 l -2,0 0,-11 2,0 0,11"></path>
<path class="stroke6" d="M 6080,2993 l 0,-3 1,-1 0,-2 1,-1 0,-1 4,-4 1,0 1,-1 1,0 1,-1 6,0 1,1 1,0 1,1 1,0 4,4 0,1 1,1 0,2 1,1 0,3"></path>
<text class="t2"><tspan x="6132" y="2970"><a xmlns:xlink="http://www.w3.org/1999/xlink" xlink:type="simple" xlink:show="replace" xlink:actuate="onRequest" xlink:href="javascript:locateTree('X62102');">X62102</a>
</tspan>

<tspan x="6032" y="2970">2</tspan>
</text>
<path class="stroke8" d="M 5330,3115 l 15,0 m 18,0 l 31,0 m 18,0 l 31,0 m 18,0 l 31,0 m 18,0 l 30,0 m 19,0 l 30,0 m 19,0 l 30,0 m 19,0 l 30,0 m 18,0 l 31,0 m 18,0 l 31,0 m 18,0 l 31,0 m 18,0 l 31,0 m 18,0 l 31,0 m 18,0 l 31,0 m 18,0 l 30,0 m 19,0 l 30,0 m 19,0 l 30,0 m 19,0 l 30,0 m 18,0 l 31,0 m 18,0 l 31,0 m 18,0 l 19,0 0,13 m 0,16 l 0,28 m 0,16 l 0,27 m 0,16 l 0,28 m 0,16 l 0,27 m 0,16 l 0,15 -15,0 m -18,0 l -31,0 m -18,0 l -31,0 m -18,0 l -31,0 m -18,0 l -30,0 m -19,0 l -30,0 m -19,0 l -30,0 m -19,0 l -30,0"></path>
<path class="stroke8" d="M 5936,3333 l -31,0 m -18,0 l -31,0 m -18,0 l -31,0 m -18,0 l -31,0 m -18,0 l -31,0 m -18,0 l -31,0 m -18,0 l -30,0 m -19,0 l -30,0 m -19,0 l -30,0 m -19,0 l -30,0 m -18,0 l -31,0 m -18,0 l -31,0 m -18,0 l -19,0 0,-13 m 0,-16 l 0,-28 m 0,-16 l 0,-27 m 0,-16 l 0,-28 m 0,-16 l 0,-27 m 0,-16 l 0,-15"></path>
<text class="t2"><tspan x="6786" y="2736">A_LSH2</tspan>

<tspan x="7113" y="2736">M_LSH2</tspan>

<tspan x="7440" y="2736">T_LHH2</tspan>

<tspan x="7113" y="2790">0.5</tspan>

<tspan x="6786" y="2790">0.5</tspan>

<tspan x="7440" y="2790">0.5</tspan>

<tspan x="7440" y="2834">WS/GR</tspan>

<tspan x="7113" y="2834">SW/GN</tspan>

<tspan x="6786" y="2834">GE</tspan>
</text>
<path class="white" d="M 6734,2570 l 27,0 0,27 -27,0 0,-27 z"></path>
<path class="black" d="M 6747,2570 l 1,0 0,11 -1,0 0,-11 z"></path>
<path class="stroke4" d="M 6747,2570 l 1,0 0,11 -1,0 0,-11"></path>
<path class="stroke6" d="M 6761,2584 l 0,3 -1,1 0,1 -1,1 0,1 -4,4 -1,0 -1,1 -1,0 -1,1 -7,0 -1,-1 -1,0 -1,-1 -1,0 -4,-4 0,-1 -1,-1 0,-1 -1,-1 0,-3"></path>
<text class="t2"><tspan x="6663" y="2629">19</tspan>
</text>
<path class="white" d="M 6761,3006 l -27,0 0,-27 27,0 0,27 z"></path>
<path class="black" d="M 6748,3006 l -1,0 0,-11 1,0 0,11 z"></path>
<path class="stroke4" d="M 6748,3006 l -1,0 0,-11 1,0 0,11"></path>
<path class="stroke6" d="M 6734,2993 l 0,-3 1,-1 0,-2 1,-1 0,-1 4,-4 1,0 1,-1 1,0 1,-1 7,0 1,1 1,0 1,1 1,0 4,4 0,1 1,1 0,2 1,1 0,3"></path>
<text class="t2"><tspan x="6686" y="2970">4</tspan>
</text>
<path class="stroke4" d="M 6761,2584 l 30,0 m 14,0 l 31,0 m 14,0 l 31,0 m 14,0 l 31,0 m 14,0 l 30,0 m 15,0 l 30,0 m 14,0 l 31,0"></path>
<path class="white" d="M 7061,2570 l 27,0 0,27 -27,0 0,-27 z"></path>
<path class="black" d="M 7074,2570 l 1,0 0,11 -1,0 0,-11 z"></path>
<path class="stroke4" d="M 7074,2570 l 1,0 0,11 -1,0 0,-11"></path>
<path class="stroke6" d="M 7088,2584 l 0,3 -1,1 0,1 -1,1 0,1 -4,4 -1,0 -1,1 -1,0 -1,1 -7,0 -1,-1 -1,0 -1,-1 -1,0 -4,-4 0,-1 -1,-1 0,-1 -1,-1 0,-3"></path>
<text class="t2"><tspan x="6990" y="2629">24</tspan>
</text>
<path class="stroke4" d="M 6761,2993 l 30,0 m 14,0 l 31,0 m 14,0 l 31,0 m 14,0 l 31,0 m 14,0 l 30,0 m 15,0 l 30,0 m 14,0 l 31,0"></path>
<path class="white" d="M 7088,3006 l -27,0 0,-27 27,0 0,27 z"></path>
<path class="black" d="M 7076,3006 l -2,0 0,-11 2,0 0,11 z"></path>
<path class="stroke4" d="M 7076,3006 l -2,0 0,-11 2,0 0,11"></path>
<path class="stroke6" d="M 7061,2993 l 0,-3 1,-1 0,-2 1,-1 0,-1 4,-4 1,0 1,-1 1,0 1,-1 7,0 1,1 1,0 1,1 1,0 4,4 0,1 1,1 0,2 1,1 0,3"></path>
<text class="t2"><tspan x="7013" y="2970">3</tspan>
</text>
<path class="stroke4" d="M 7088,2584 l 30,0 m 15,0 l 30,0 m 15,0 l 30,0 m 15,0 l 30,0 m 15,0 l 30,0 m 15,0 l 30,0 m 15,0 l 30,0"></path>
<path class="white" d="M 7388,2570 l 27,0 0,27 -27,0 0,-27 z"></path>
<path class="black" d="M 7401,2570 l 2,0 0,11 -2,0 0,-11 z"></path>
<path class="stroke4" d="M 7401,2570 l 2,0 0,11 -2,0 0,-11"></path>
<path class="stroke6" d="M 7415,2584 l 0,3 -1,1 0,2 -6,6 -2,0 -1,1 -6,0 -1,-1 -2,0 -6,-6 0,-2 -1,-1 0,-3"></path>
<text class="t2"><tspan x="7440" y="2629"><a xmlns:xlink="http://www.w3.org/1999/xlink" xlink:type="simple" xlink:show="replace" xlink:actuate="onRequest" xlink:href="javascript:locateTree('X60002');">X60002</a>
</tspan>

<tspan x="7317" y="2629">25</tspan>
</text>
<path class="stroke4" d="M 7088,2993 l 30,0 m 15,0 l 30,0 m 15,0 l 30,0 m 15,0 l 30,0 m 15,0 l 30,0 m 15,0 l 30,0 m 15,0 l 30,0"></path>
<path class="white" d="M 7416,3006 l -28,0 0,-27 28,0 0,27 z"></path>
<path class="black" d="M 7403,3006 l -2,0 0,-11 2,0 0,11 z"></path>
<path class="stroke4" d="M 7403,3006 l -2,0 0,-11 2,0 0,11"></path>
<path class="stroke6" d="M 7389,2993 l 0,-3 1,-1 0,-2 1,-1 0,-1 4,-4 1,0 1,-1 1,0 1,-1 6,0 1,1 1,0 1,1 1,0 4,4 0,1 1,1 0,2 1,1 0,3"></path>
<text class="t2"><tspan x="7440" y="2970"><a xmlns:xlink="http://www.w3.org/1999/xlink" xlink:type="simple" xlink:show="replace" xlink:actuate="onRequest" xlink:href="javascript:locateTree('X62202');">X62202</a>
</tspan>

<tspan x="7341" y="2970">2</tspan>
</text>
<path class="stroke8" d="M 6638,3115 l 15,0 m 18,0 l 31,0 m 18,0 l 31,0 m 18,0 l 31,0 m 18,0 l 31,0 m 18,0 l 31,0 m 18,0 l 31,0 m 18,0 l 31,0 m 18,0 l 31,0 m 18,0 l 31,0 m 18,0 l 31,0 m 18,0 l 31,0 m 18,0 l 31,0 m 18,0 l 31,0 m 18,0 l 31,0 m 18,0 l 31,0 m 18,0 l 31,0 m 18,0 l 31,0 m 18,0 l 31,0 m 18,0 l 31,0 m 18,0 l 18,0 0,13 m 0,16 l 0,28 m 0,16 l 0,27 m 0,16 l 0,28 m 0,16 l 0,27 m 0,16 l 0,15 -15,0 m -18,0 l -31,0 m -18,0 l -31,0 m -18,0 l -31,0 m -18,0 l -31,0 m -18,0 l -31,0 m -18,0 l -31,0 m -18,0 l -31,0"></path>
<path class="stroke8" d="M 7244,3333 l -31,0 m -18,0 l -31,0 m -18,0 l -31,0 m -18,0 l -31,0 m -18,0 l -31,0 m -18,0 l -31,0 m -18,0 l -31,0 m -18,0 l -31,0 m -18,0 l -31,0 m -18,0 l -31,0 m -18,0 l -31,0 m -18,0 l -31,0 m -18,0 l -18,0 0,-13 m 0,-16 l 0,-28 m 0,-16 l 0,-27 m 0,-16 l 0,-28 m 0,-16 l 0,-27 m 0,-16 l 0,-15"></path>
<path class="white" d="M 1308,2352 l -27,0 0,-27 27,0 0,27 z"></path>
<path class="black" d="M 1296,2352 l -2,0 0,-12 2,0 0,12 z"></path>
<path class="stroke4" d="M 1296,2352 l -2,0 0,-12 2,0 0,12"></path>
<path class="stroke6" d="M 1281,2338 l 0,-3 1,-1 0,-1 1,-1 0,-1 4,-4 1,0 1,-1 1,0 1,-1 7,0 1,1 1,0 1,1 1,0 4,4 0,1 1,1 0,1 1,1 0,3"></path>
<text class="t2"><tspan x="1233" y="2316">2</tspan>
</text>
<path style="fill:none;stroke:#000000;stroke-width:15" d="M 1785,1807 l -163,0"></path>
<path class="stroke4" d="M 1785,1825 l 40,-18 -40,-19 0,37 m 0,-26 l 24,0 m -24,4 l 32,0 m -32,4 l 40,0 m -40,3 l 32,0 m -32,4 l 24,0 m -24,3 l 16,0 m -16,4 l 7,0 m -7,-25 l 16,0 m -16,-4 l 9,0 m -9,-4 l 2,0"></path>
<path class="white" d="M 1618,1790 l -1,1 -2,0 -2,2 -1,0 -5,5 0,1 -1,1 0,2 -1,1 0,7 1,1 0,2 1,1 0,1 5,5 1,0 2,2 2,0 1,1 8,0 1,-1 2,0 2,-2 1,0 5,-5 0,-1 1,-1 0,-2 1,-1 0,-7 -1,-1 0,-2 -1,-1 0,-1 -5,-5 -1,0 -2,-2 -2,0 -1,-1 -8,0 z"></path>
<path class="stroke4" d="M 1622,1799 l -2,0 -1,1 -1,0 -2,2 0,1 -1,1 0,5 1,1 0,1 2,2 1,0 1,1 4,0 1,-1 1,0 2,-2 0,-1 1,-1 0,-5 -1,-1 0,-1 -2,-2 -1,0 -1,-1 -1,0 m -6,3 l 10,0 m -11,2 l 12,0 m -13,2 l 14,0 m -14,1 l 14,0 m -13,2 l 12,0 m -11,2 l 10,0 m -8,2 l 6,0 m -6,-13 l 6,0"></path>
<text class="t2"><tspan x="2205" y="2081">15WUP</tspan>

<tspan x="2205" y="2136">0.5</tspan>

<tspan x="2205" y="2180">GE/GN</tspan>
</text>
<path class="white" d="M 2181,2352 l -27,0 0,-27 27,0 0,27 z"></path>
<path class="black" d="M 2168,2352 l -2,0 0,-12 2,0 0,12 z"></path>
<path class="stroke4" d="M 2168,2352 l -2,0 0,-12 2,0 0,12"></path>
<path class="stroke6" d="M 2154,2338 l 0,-3 1,-1 0,-2 6,-6 2,0 1,-1 6,0 1,1 2,0 6,6 0,2 1,1 0,3"></path>
<text class="t2"><tspan x="2106" y="2316">1</tspan>
</text>
<path class="stroke8" d="M 1404,3115 l 15,0 m 18,0 l 30,0 m 18,0 l 30,0 m 18,0 l 30,0 m 18,0 l 30,0 m 18,0 l 30,0 m 18,0 l 30,0 m 18,0 l 30,0 m 18,0 l 30,0 m 18,0 l 30,0 m 18,0 l 30,0 m 18,0 l 30,0 m 18,0 l 30,0 m 18,0 l 30,0 m 18,0 l 30,0 m 18,0 l 30,0 m 18,0 l 30,0 m 18,0 l 30,0 m 18,0 l 30,0 m 18,0 l 30,0 m 18,0 l 30,0 m 18,0 l 30,0 m 18,0 l 30,0 m 18,0 l 30,0 m 18,0 l 30,0 m 18,0 l 30,0 m 18,0 l 30,0 m 18,0 l 30,0 m 18,0 l 30,0 m 18,0 l 30,0 m 18,0 l 30,0 m 18,0 l 30,0 m 18,0 l 30,0"></path>
<path class="stroke8" d="M 2973,3115 l 30,0 m 18,0 l 19,0 0,13 m 0,16 l 0,28 m 0,16 l 0,27 m 0,16 l 0,28 m 0,16 l 0,27 m 0,16 l 0,15 -15,0 m -18,0 l -30,0 m -18,0 l -30,0 m -18,0 l -30,0 m -18,0 l -30,0 m -18,0 l -30,0 m -18,0 l -30,0 m -18,0 l -30,0 m -18,0 l -30,0 m -18,0 l -30,0 m -18,0 l -30,0 m -18,0 l -30,0 m -18,0 l -30,0 m -18,0 l -30,0 m -18,0 l -30,0 m -18,0 l -30,0 m -18,0 l -30,0 m -18,0 l -30,0 m -18,0 l -30,0 m -18,0 l -30,0 m -18,0 l -30,0 m -18,0 l -30,0 m -18,0 l -30,0 m -18,0 l -30,0 m -18,0 l -30,0 m -18,0 l -30,0 m -18,0 l -30,0"></path>
<path class="stroke8" d="M 1759,3333 l -30,0 m -18,0 l -30,0 m -18,0 l -30,0 m -18,0 l -30,0 m -18,0 l -30,0 m -18,0 l -30,0 m -18,0 l -30,0 m -18,0 l -19,0 0,-13 m 0,-16 l 0,-28 m 0,-16 l 0,-27 m 0,-16 l 0,-28 m 0,-16 l 0,-27 m 0,-16 l 0,-15 m 1963,0 l 15,0 m 18,0 l 30,0 m 18,0 l 30,0 m 18,0 l 30,0 m 18,0 l 30,0 m 18,0 l 30,0 m 18,0 l 30,0 m 18,0 l 30,0 m 18,0 l 30,0 m 18,0 l 30,0 m 18,0 l 30,0 m 18,0 l 30,0 m 18,0 l 30,0 m 18,0 l 30,0 m 18,0 l 30,0 m 18,0 l 30,0 m 18,0 l 30,0 m 18,0 l 30,0 m 18,0 l 30,0 m 18,0 l 30,0"></path>
<path class="stroke8" d="M 4312,3115 l 30,0 m 18,0 l 30,0 m 18,0 l 30,0 m 18,0 l 30,0 m 18,0 l 30,0 m 18,0 l 30,0 m 18,0 l 30,0 m 18,0 l 30,0 m 18,0 l 30,0 m 18,0 l 30,0 m 18,0 l 30,0 m 18,0 l 30,0 m 18,0 l 30,0 m 18,0 l 30,0 m 18,0 l 19,0 0,13 m 0,16 l 0,28 m 0,16 l 0,27 m 0,16 l 0,28 m 0,16 l 0,27 m 0,16 l 0,15 -15,0 m -18,0 l -30,0 m -18,0 l -30,0 m -18,0 l -30,0 m -18,0 l -30,0 m -18,0 l -30,0 m -18,0 l -30,0 m -18,0 l -30,0 m -18,0 l -30,0 m -18,0 l -30,0 m -18,0 l -30,0 m -18,0 l -30,0 m -18,0 l -30,0 m -18,0 l -30,0"></path>
<path class="stroke8" d="M 4346,3333 l -30,0 m -18,0 l -30,0 m -18,0 l -30,0 m -18,0 l -30,0 m -18,0 l -30,0 m -18,0 l -30,0 m -18,0 l -30,0 m -18,0 l -30,0 m -18,0 l -30,0 m -18,0 l -30,0 m -18,0 l -30,0 m -18,0 l -30,0 m -18,0 l -30,0 m -18,0 l -30,0 m -18,0 l -30,0 m -18,0 l -30,0 m -18,0 l -30,0 m -18,0 l -30,0 m -18,0 l -30,0 m -18,0 l -30,0 m -18,0 l -19,0 0,-13 m 0,-16 l 0,-28 m 0,-16 l 0,-27 m 0,-16 l 0,-28 m 0,-16 l 0,-27 m 0,-16 l 0,-15"></path>
<text class="t2"><tspan x="2533" y="2084">S_DMTLV</tspan>

<tspan x="2860" y="2084">S_DMTLP</tspan>

<tspan x="3187" y="2084">S_DMTLH</tspan>

<tspan x="2860" y="2138">0.75</tspan>

<tspan x="2533" y="2138">0.75</tspan>

<tspan x="3187" y="2138">0.75</tspan>

<tspan x="3187" y="2182">WS/SW</tspan>

<tspan x="2860" y="2182">WS/VI</tspan>

<tspan x="2533" y="2182">WS/BR</tspan>
</text>
<path class="white" d="M 2508,2352 l -27,0 0,-27 27,0 0,27 z"></path>
<path class="black" d="M 2495,2352 l -2,0 0,-12 2,0 0,12 z"></path>
<path class="stroke4" d="M 2495,2352 l -2,0 0,-12 2,0 0,12"></path>
<path class="stroke6" d="M 2481,2338 l 0,-3 1,-1 0,-2 6,-6 2,0 1,-1 6,0 1,1 2,0 6,6 0,2 1,1 0,3"></path>
<text class="t2"><tspan x="2410" y="2316">22</tspan>
</text>
<path class="stroke4" d="M 2507,2338 l 30,0 m 15,0 l 30,0 m 15,0 l 30,0 m 15,0 l 30,0 m 15,0 l 30,0 m 15,0 l 30,0 m 15,0 l 30,0"></path>
<path class="white" d="M 2835,2352 l -27,0 0,-27 27,0 0,27 z"></path>
<path class="black" d="M 2822,2352 l -1,0 0,-12 1,0 0,12 z"></path>
<path class="stroke4" d="M 2822,2352 l -1,0 0,-12 1,0 0,12"></path>
<path class="stroke6" d="M 2808,2338 l 0,-3 1,-1 0,-1 1,-1 0,-1 4,-4 1,0 1,-1 1,0 1,-1 7,0 1,1 1,0 1,1 1,0 4,4 0,1 1,1 0,1 1,1 0,3"></path>
<text class="t2"><tspan x="2737" y="2316">16</tspan>
</text>
<path class="stroke4" d="M 2835,2338 l 30,0 m 14,0 l 31,0 m 14,0 l 31,0 m 14,0 l 31,0 m 14,0 l 30,0 m 15,0 l 30,0 m 14,0 l 31,0"></path>
<path class="white" d="M 3162,2352 l -27,0 0,-27 27,0 0,27 z"></path>
<path class="black" d="M 3150,2352 l -2,0 0,-12 2,0 0,12 z"></path>
<path class="stroke4" d="M 3150,2352 l -2,0 0,-12 2,0 0,12"></path>
<path class="stroke6" d="M 3135,2338 l 0,-3 1,-1 0,-1 1,-1 0,-1 4,-4 1,0 1,-1 1,0 1,-1 7,0 1,1 1,0 1,1 1,0 4,4 0,1 1,1 0,1 1,1 0,3"></path>
<text class="t2"><tspan x="3187" y="2316"><a xmlns:xlink="http://www.w3.org/1999/xlink" xlink:type="simple" xlink:show="replace" xlink:actuate="onRequest" xlink:href="javascript:locateTree('X60002');">X60002</a>
</tspan>

<tspan x="3064" y="2316">17</tspan>
</text>
<path class="white" d="M 2153,1916 l 28,0 0,27 -28,0 0,-27 z"></path>
<path class="black" d="M 2166,1916 l 2,0 0,11 -2,0 0,-11 z"></path>
<path class="stroke4" d="M 2166,1916 l 2,0 0,11 -2,0 0,-11"></path>
<path class="stroke6" d="M 2180,1929 l 0,3 -1,1 0,2 -6,6 -2,0 -1,1 -6,0 -1,-1 -2,0 -6,-6 0,-2 -1,-1 0,-3"></path>
<text class="t2"><tspan x="2205" y="1975"><a xmlns:xlink="http://www.w3.org/1999/xlink" xlink:type="simple" xlink:show="replace" xlink:actuate="onRequest" xlink:href="javascript:locateTree('X60551');">X60551</a>
</tspan>

<tspan x="2106" y="1975">7</tspan>
</text>
<text class="t3"><tspan x="7658" y="2361">.</tspan>
</text>
<text class="t2"><tspan x="7658" y="2397"><a xmlns:xlink="http://www.w3.org/1999/xlink" xlink:type="simple" xlink:show="replace" xlink:actuate="onRequest" xlink:href="javascript:locateTree('A6000');">A6000</a>
</tspan>
</text>
<text class="t2"><tspan x="7658" y="2466">DME control unit</tspan>
</text>
<path class="stroke8" d="M 313,1698 l 14,0 m 18,0 l 29,0 m 17,0 l 29,0 m 18,0 l 29,0 m 17,0 l 30,0 m 17,0 l 29,0 m 18,0 l 29,0 m 17,0 l 16,0 0,13 m 0,16 l 0,28 m 0,16 l 0,27 m 0,16 l 0,28 m 0,16 l 0,27 m 0,16 l 0,15 -14,0 m -18,0 l -29,0 m -17,0 l -29,0 m -18,0 l -29,0 m -17,0 l -30,0 m -17,0 l -29,0 m -18,0 l -29,0 m -17,0 l -16,0 0,-13 m 0,-16 l 0,-28 m 0,-16 l 0,-27 m 0,-16 l 0,-28 m 0,-16 l 0,-27 m 0,-16 l 0,-15 m -109,-873 l 14,0 m 18,0 l 29,0 m 17,0 l 29,0 m 18,0 l 29,0 m 17,0 l 30,0 m 17,0 l 29,0 m 18,0 l 29,0 m 17,0 l 29,0"></path>
<path class="stroke8" d="M 562,825 l 29,0 m 17,0 l 30,0 m 17,0 l 29,0 m 18,0 l 29,0 m 17,0 l 29,0 m 18,0 l 29,0 m 17,0 l 17,0 0,15 m 0,18 l 0,30 m 0,18 l 0,30 m 0,18 l 0,31 m 0,18 l 0,30 m 0,18 l 0,30 m 0,18 l 0,30 m 0,19 l 0,30 m 0,18 l 0,30 m 0,18 l 0,17 -14,0 m -18,0 l -29,0 m -17,0 l -29,0 m -18,0 l -29,0 m -17,0 l -30,0 m -17,0 l -29,0 m -18,0 l -29,0 m -17,0 l -29,0 m -18,0 l -29,0 m -17,0 l -30,0 m -17,0 l -29,0 m -18,0 l -29,0 m -17,0 l -29,0 m -18,0 l -29,0 m -17,0 l -17,0 0,-15 m 0,-18 l 0,-30 m 0,-18 l 0,-30 m 0,-18 l 0,-31"></path>
<path class="stroke8" d="M 204,1083 l 0,-30 m 0,-18 l 0,-30 m 0,-18 l 0,-30 m 0,-19 l 0,-30 m 0,-18 l 0,-30 m 0,-18 l 0,-17 m 873,0 l 14,0 m 18,0 l 29,0 m 17,0 l 29,0 m 18,0 l 29,0 m 17,0 l 30,0 m 17,0 l 29,0 m 18,0 l 29,0 m 17,0 l 29,0 m 18,0 l 29,0 m 17,0 l 30,0 m 17,0 l 29,0 m 18,0 l 29,0 m 17,0 l 29,0 m 18,0 l 29,0 m 17,0 l 17,0 0,15 m 0,18 l 0,30 m 0,18 l 0,30 m 0,18 l 0,31 m 0,18 l 0,30 m 0,18 l 0,30 m 0,18 l 0,30 m 0,19 l 0,30 m 0,18 l 0,30 m 0,18 l 0,17 -14,0 m -18,0 l -29,0 m -17,0 l -29,0 m -18,0 l -29,0"></path>
<path class="stroke8" d="M 1560,1261 l -30,0 m -17,0 l -29,0 m -18,0 l -29,0 m -17,0 l -29,0 m -18,0 l -29,0 m -17,0 l -30,0 m -17,0 l -29,0 m -18,0 l -29,0 m -17,0 l -29,0 m -18,0 l -29,0 m -17,0 l -17,0 0,-15 m 0,-18 l 0,-30 m 0,-18 l 0,-30 m 0,-18 l 0,-31 m 0,-18 l 0,-30 m 0,-18 l 0,-30 m 0,-18 l 0,-30 m 0,-19 l 0,-30 m 0,-18 l 0,-30 m 0,-18 l 0,-17"></path>
<path class="stroke4" d="M 435,2338 l 29,0 m 13,0 l 30,0 m 13,0 l 30,0 m 13,0 l 30,0 m 13,0 l 29,0 m 14,0 l 29,0 m 14,0 l 29,0 m 14,0 l 29,0 m 14,0 l 29,0 m 14,0 l 29,0 m 14,0 l 29,0 m 13,0 l 30,0 m 13,0 l 30,0 m 13,0 l 30,0 m 13,0 l 29,0 m 14,0 l 29,0 m 14,0 l 29,0 m 14,0 l 29,0 m 14,0 l 29,0 m 14,0 l 29,0 m 29,0 l 30,0 m 15,0 l 30,0 m 15,0 l 30,0 m 15,0 l 30,0 m 15,0 l 30,0 m 15,0 l 30,0 m 15,0 l 30,0 m 572,0 l 30,0 m 15,0 l 30,0 m 15,0 l 30,0 m 15,0 l 30,0 m 15,0 l 30,0 m 15,0 l 30,0"></path>
<path class="stroke4" d="M 2450,2338 l 30,0 m 355,246 l 29,0 m 13,0 l 29,0 m 14,0 l 29,0 m 14,0 l 29,0 m 13,0 l 29,0 m 14,0 l 29,0 m 14,0 l 29,0 m 13,0 l 30,0 m 13,0 l 29,0 m 14,0 l 29,0 m 14,0 l 29,0 m 13,0 l 29,0 m 14,0 l 29,0 m 14,0 l 29,0 m 13,0 l 29,0 m 1337,0 l 29,0 m 13,0 l 29,0 m 14,0 l 29,0 m 14,0 l 29,0 m 13,0 l 29,0 m 14,0 l 29,0 m 14,0 l 29,0 m 13,0 l 30,0 m 13,0 l 29,0 m 14,0 l 29,0 m 14,0 l 29,0 m 13,0 l 29,0 m 14,0 l 29,0 m 14,0 l 29,0 m 13,0 l 29,0 m 682,0 l 29,0 m 13,0 l 29,0"></path>
<path class="stroke4" d="M 6191,2584 l 29,0 m 14,0 l 29,0 m 13,0 l 29,0 m 14,0 l 29,0 m 14,0 l 29,0 m 13,0 l 30,0 m 13,0 l 29,0 m 14,0 l 29,0 m 14,0 l 29,0 m 13,0 l 29,0 m 14,0 l 29,0 m 14,0 l 29,0 m 13,0 l 29,0"></path>
<text class="t2"><tspan x="460" y="2738">31</tspan>

<tspan x="788" y="2738">31</tspan>

<tspan x="1115" y="2738">31</tspan>

<tspan x="788" y="2793">2.5</tspan>

<tspan x="460" y="2793">2.5</tspan>

<tspan x="1115" y="2793">2.5</tspan>

<tspan x="1115" y="2836">BR</tspan>

<tspan x="788" y="2836">BR</tspan>

<tspan x="460" y="2836">BR</tspan>

<tspan x="3078" y="3147"><a xmlns:xlink="http://www.w3.org/1999/xlink" xlink:type="simple" xlink:show="replace" xlink:actuate="onRequest" xlink:href="javascript:locateTree('B62101');">B62101</a>
</tspan>

<tspan x="5041" y="3147"><a xmlns:xlink="http://www.w3.org/1999/xlink" xlink:type="simple" xlink:show="replace" xlink:actuate="onRequest" xlink:href="javascript:locateTree('B62201');">B62201</a>
</tspan>

<tspan x="6349" y="3147"><a xmlns:xlink="http://www.w3.org/1999/xlink" xlink:type="simple" xlink:show="replace" xlink:actuate="onRequest" xlink:href="javascript:locateTree('B62102');">B62102</a>
</tspan>

<tspan x="7658" y="3147"><a xmlns:xlink="http://www.w3.org/1999/xlink" xlink:type="simple" xlink:show="replace" xlink:actuate="onRequest" xlink:href="javascript:locateTree('B62202');">B62202</a>
</tspan>
</text>
<path class="stroke8" d="M 436,3333 l -27,0"></path>
<path class="white" d="M 429,3324 l 6,-1 0,-8 -1,-1 0,-1 -2,-2 0,-1 -1,-1 -1,0 -2,-2 -2,0 -1,-1 -6,0 -1,1 -2,0 -2,2 -1,0 -1,1 0,1 -2,2 0,1 -1,1 0,8 6,1 0,-2 1,-1 0,-1 2,-2 1,0 1,-1 4,0 1,1 1,0 2,2 0,1 1,1 0,2 z"></path>
<path class="stroke4" d="M 422,3317 l -2,0 -1,1 -1,0 -2,2 0,1 -1,1 0,4 1,1 0,1 2,2 1,0 1,1 4,0 1,-1 1,0 2,-2 0,-1 1,-1 0,-4 -1,-1 0,-1 -2,-2 -1,0 -1,-1 -1,0 m -6,2 l 10,0 m -11,2 l 12,0 m -12,2 l 13,0 m -13,2 l 13,0 m -13,2 l 12,0 m -11,1 l 10,0 m -7,2 l 4,0 m -4,-12 l 5,0"></path>
<text class="t2"><tspan x="460" y="3297"><a xmlns:xlink="http://www.w3.org/1999/xlink" xlink:type="simple" xlink:show="replace" xlink:actuate="onRequest" xlink:href="javascript:locateTree('X6454');">X6454</a>
</tspan>
</text>
<path class="stroke8" d="M 763,3333 l -27,0"></path>
<path class="white" d="M 756,3324 l 6,-1 0,-8 -1,-1 0,-1 -2,-2 0,-1 -1,-1 -1,0 -2,-2 -2,0 -1,-1 -6,0 -1,1 -2,0 -2,2 -1,0 -1,1 0,1 -2,2 0,1 -1,1 0,8 6,1 0,-2 1,-1 0,-1 2,-2 1,0 1,-1 4,0 1,1 1,0 2,2 0,1 1,1 0,2 z"></path>
<path class="stroke4" d="M 749,3317 l -2,0 -1,1 -1,0 -2,2 0,1 -1,1 0,4 1,1 0,1 2,2 1,0 1,1 4,0 1,-1 1,0 2,-2 0,-1 1,-1 0,-4 -1,-1 0,-1 -2,-2 -1,0 -1,-1 -1,0 m -6,2 l 10,0 m -11,2 l 13,0 m -13,2 l 13,0 m -13,2 l 13,0 m -13,2 l 12,0 m -11,1 l 10,0 m -7,2 l 4,0 m -4,-12 l 5,0"></path>
<text class="t2"><tspan x="788" y="3297"><a xmlns:xlink="http://www.w3.org/1999/xlink" xlink:type="simple" xlink:show="replace" xlink:actuate="onRequest" xlink:href="javascript:locateTree('X6454');">X6454</a>
</tspan>
</text>
<path class="stroke8" d="M 1090,3333 l -27,0"></path>
<path class="white" d="M 1083,3324 l 6,-1 0,-8 -1,-1 0,-1 -2,-2 0,-1 -1,-1 -1,0 -2,-2 -2,0 -1,-1 -6,0 -1,1 -2,0 -2,2 -1,0 -1,1 0,1 -2,2 0,1 -1,1 0,8 6,1 0,-2 1,-1 0,-1 2,-2 1,0 1,-1 4,0 1,1 1,0 2,2 0,1 1,1 0,2 z"></path>
<path class="stroke4" d="M 1076,3317 l -1,0 -1,1 -1,0 -2,2 0,1 -1,1 0,4 1,1 0,1 2,2 1,0 1,1 3,0 1,-1 1,0 2,-2 0,-1 1,-1 0,-4 -1,-1 0,-1 -2,-2 -1,0 -1,-1 -1,0 m -6,2 l 11,0 m -12,2 l 13,0 m -13,2 l 13,0 m -13,2 l 13,0 m -13,2 l 13,0 m -11,1 l 9,0 m -7,2 l 5,0 m -5,-12 l 5,0"></path>
<text class="t2"><tspan x="1115" y="3297"><a xmlns:xlink="http://www.w3.org/1999/xlink" xlink:type="simple" xlink:show="replace" xlink:actuate="onRequest" xlink:href="javascript:locateTree('X6454');">X6454</a>
</tspan>
</text>
<path class="stroke4" d="M 449,3333 l 273,0"></path>
<path class="white" d="M 1291,1790 l -1,1 -2,0 -1,1 -1,0 -6,6 0,1 -1,1 0,2 -1,1 0,7 1,1 0,2 1,1 0,1 6,6 1,0 1,1 2,0 1,1 7,0 1,-1 2,0 1,-1 1,0 6,-6 0,-1 1,-1 0,-2 1,-1 0,-7 -1,-1 0,-2 -1,-1 0,-1 -6,-6 -1,0 -1,-1 -2,0 -1,-1 -7,0 z"></path>
<path class="stroke4" d="M 1294,1799 l -2,0 -2,2 -1,0 0,1 -2,2 0,5 1,1 0,1 2,2 1,0 1,1 5,0 1,-1 1,0 2,-2 0,-1 1,-1 0,-5 -2,-2 0,-1 -1,0 -2,-2 -2,0 m -5,3 l 10,0 m -11,2 l 12,0 m -13,2 l 13,0 m -14,1 l 15,0 m -14,2 l 13,0 m -11,2 l 10,0 m -8,2 l 6,0 m -7,-13 l 7,0"></path>
<text class="t2"><tspan x="1660" y="2081">U_HR&lt;2</tspan>

<tspan x="1660" y="2136">1.0</tspan>

<tspan x="1660" y="2180">OR</tspan>
</text>
<path style="fill:none;stroke:#000000;stroke-width:15" d="M 3476,1070 l 0,1255"></path>
<text class="t2"><tspan x="3514" y="2081">P_ZSZ1</tspan>

<tspan x="3514" y="2136">1.0</tspan>

<tspan x="3514" y="2180">WS</tspan>
</text>
<path class="white" d="M 3490,2352 l -28,0 0,-27 28,0 0,27 z"></path>
<path class="black" d="M 3477,2352 l -2,0 0,-12 2,0 0,12 z"></path>
<path class="stroke4" d="M 3477,2352 l -2,0 0,-12 2,0 0,12"></path>
<path class="stroke6" d="M 3463,2338 l 0,-3 1,-1 0,-2 6,-6 2,0 1,-1 6,0 1,1 2,0 6,6 0,2 1,1 0,3"></path>
<text class="t2"><tspan x="3415" y="2316">1</tspan>
</text>
<path style="fill:none;stroke:#000000;stroke-width:15" d="M 4021,1070 l 0,1255"></path>
<path class="white" d="M 4035,2352 l -27,0 0,-27 27,0 0,27 z"></path>
<path class="black" d="M 4022,2352 l -2,0 0,-12 2,0 0,12 z"></path>
<path class="stroke4" d="M 4022,2352 l -2,0 0,-12 2,0 0,12"></path>
<path class="stroke6" d="M 4008,2338 l 0,-3 1,-1 0,-2 6,-6 2,0 1,-1 6,0 1,1 2,0 6,6 0,2 1,1 0,3"></path>
<text class="t2"><tspan x="3960" y="2316">2</tspan>
</text>
<path style="fill:none;stroke:#000000;stroke-width:15" d="M 4566,1070 l 0,1255"></path>
<path class="white" d="M 4580,2352 l -27,0 0,-27 27,0 0,27 z"></path>
<path class="black" d="M 4567,2352 l -1,0 0,-12 1,0 0,12 z"></path>
<path class="stroke4" d="M 4567,2352 l -1,0 0,-12 1,0 0,12"></path>
<path class="stroke6" d="M 4553,2338 l 0,-3 1,-1 0,-2 6,-6 2,0 1,-1 6,0 1,1 2,0 6,6 0,2 1,1 0,3"></path>
<text class="t2"><tspan x="4505" y="2316">3</tspan>
</text>
<path style="fill:none;stroke:#000000;stroke-width:15" d="M 5112,1071 l 0,1254"></path>
<path class="white" d="M 5125,2352 l -27,0 0,-27 27,0 0,27 z"></path>
<path class="black" d="M 5113,2352 l -2,0 0,-12 2,0 0,12 z"></path>
<path class="stroke4" d="M 5113,2352 l -2,0 0,-12 2,0 0,12"></path>
<path class="stroke6" d="M 5098,2338 l 0,-3 1,-1 0,-1 1,-1 0,-1 4,-4 1,0 1,-1 1,0 1,-1 7,0 1,1 1,0 1,1 1,0 4,4 0,1 1,1 0,1 1,1 0,3"></path>
<text class="t2"><tspan x="5050" y="2316">4</tspan>
</text>
<path style="fill:none;stroke:#000000;stroke-width:15" d="M 5657,1071 l 0,1254"></path>
<path class="white" d="M 5671,2352 l -28,0 0,-27 28,0 0,27 z"></path>
<path class="black" d="M 5658,2352 l -2,0 0,-12 2,0 0,12 z"></path>
<path class="stroke4" d="M 5658,2352 l -2,0 0,-12 2,0 0,12"></path>
<path class="stroke6" d="M 5644,2338 l 0,-3 1,-1 0,-2 6,-6 2,0 1,-1 6,0 1,1 2,0 6,6 0,2 1,1 0,3"></path>
<text class="t2"><tspan x="5596" y="2316">5</tspan>
</text>
<path class="stroke4" d="M 3489,2338 l 30,0 m 14,0 l 30,0 m 14,0 l 30,0 m 14,0 l 31,0 m 14,0 l 30,0 m 14,0 l 30,0 m 14,0 l 31,0 m 14,0 l 30,0 m 14,0 l 30,0 m 14,0 l 30,0 m 15,0 l 30,0 m 14,0 l 30,0 m 28,0 l 30,0 m 14,0 l 30,0 m 14,0 l 30,0 m 14,0 l 31,0 m 14,0 l 30,0 m 14,0 l 30,0 m 14,0 l 31,0 m 14,0 l 30,0 m 14,0 l 30,0 m 14,0 l 30,0 m 15,0 l 30,0 m 14,0 l 30,0 m 28,0 l 30,0 m 14,0 l 30,0 m 14,0 l 30,0 m 14,0 l 31,0 m 14,0 l 30,0 m 14,0 l 30,0 m 14,0 l 31,0 m 14,0 l 30,0 m 14,0 l 30,0"></path>
<path class="stroke4" d="M 4977,2338 l 30,0 m 15,0 l 30,0 m 14,0 l 30,0 m 29,0 l 30,0 m 14,0 l 30,0 m 14,0 l 30,0 m 14,0 l 31,0 m 14,0 l 30,0 m 14,0 l 30,0 m 14,0 l 31,0 m 14,0 l 30,0 m 14,0 l 30,0 m 14,0 l 30,0 m 15,0 l 30,0 m 14,0 l 30,0"></path>
<path class="white" d="M 2480,1916 l 28,0 0,27 -28,0 0,-27 z"></path>
<path class="black" d="M 2493,1916 l 2,0 0,11 -2,0 0,-11 z"></path>
<path class="stroke4" d="M 2493,1916 l 2,0 0,11 -2,0 0,-11"></path>
<path class="stroke6" d="M 2507,1929 l 0,3 -1,1 0,2 -6,6 -2,0 -1,1 -6,0 -1,-1 -2,0 -6,-6 0,-2 -1,-1 0,-3"></path>
<text class="t2"><tspan x="2433" y="1975">4</tspan>
</text>
<path class="stroke4" d="M 2507,1929 l 30,0 m 15,0 l 30,0 m 15,0 l 30,0 m 15,0 l 30,0 m 15,0 l 30,0 m 15,0 l 30,0 m 15,0 l 30,0"></path>
<path class="white" d="M 2808,1916 l 27,0 0,27 -27,0 0,-27 z"></path>
<path class="black" d="M 2820,1916 l 2,0 0,11 -2,0 0,-11 z"></path>
<path class="stroke4" d="M 2820,1916 l 2,0 0,11 -2,0 0,-11"></path>
<path class="stroke6" d="M 2835,1929 l 0,3 -1,1 0,1 -1,1 0,1 -4,4 -1,0 -1,1 -1,0 -1,1 -7,0 -1,-1 -1,0 -1,-1 -1,0 -4,-4 0,-1 -1,-1 0,-1 -1,-1 0,-3"></path>
<text class="t2"><tspan x="2760" y="1975">3</tspan>
</text>
<path class="stroke4" d="M 2835,1929 l 30,0 m 14,0 l 31,0 m 14,0 l 31,0 m 14,0 l 31,0 m 14,0 l 30,0 m 15,0 l 30,0 m 14,0 l 31,0"></path>
<path class="white" d="M 3135,1916 l 27,0 0,27 -27,0 0,-27 z"></path>
<path class="black" d="M 3148,1916 l 1,0 0,11 -1,0 0,-11 z"></path>
<path class="stroke4" d="M 3148,1916 l 1,0 0,11 -1,0 0,-11"></path>
<path class="stroke6" d="M 3162,1929 l 0,3 -1,1 0,1 -1,1 0,1 -4,4 -1,0 -1,1 -1,0 -1,1 -7,0 -1,-1 -1,0 -1,-1 -1,0 -4,-4 0,-1 -1,-1 0,-1 -1,-1 0,-3"></path>
<text class="t2"><tspan x="3187" y="1975"><a xmlns:xlink="http://www.w3.org/1999/xlink" xlink:type="simple" xlink:show="replace" xlink:actuate="onRequest" xlink:href="javascript:locateTree('X6041');">X6041</a>
</tspan>

<tspan x="3087" y="1975">2</tspan>
</text>
<path class="white" d="M 3462,1043 l 27,0 0,27 -27,0 0,-27 z"></path>
<path class="black" d="M 3475,1043 l 2,0 0,12 -2,0 0,-12 z"></path>
<path class="stroke4" d="M 3475,1043 l 2,0 0,12 -2,0 0,-12"></path>
<path class="stroke6" d="M 3489,1057 l 0,3 -1,1 0,2 -6,6 -2,0 -1,1 -6,0 -1,-1 -2,0 -6,-6 0,-2 -1,-1 0,-3"></path>
<text class="t2"><tspan x="3514" y="1102"><a xmlns:xlink="http://www.w3.org/1999/xlink" xlink:type="simple" xlink:show="replace" xlink:actuate="onRequest" xlink:href="javascript:locateTree('X6151');">X6151</a>
</tspan>

<tspan x="3414" y="1102">1</tspan>
</text>
<path class="white" d="M 4007,1043 l 28,0 0,27 -28,0 0,-27 z"></path>
<path class="black" d="M 4020,1043 l 2,0 0,12 -2,0 0,-12 z"></path>
<path class="stroke4" d="M 4020,1043 l 2,0 0,12 -2,0 0,-12"></path>
<path class="stroke6" d="M 4034,1057 l 0,3 -1,1 0,2 -6,6 -2,0 -1,1 -6,0 -1,-1 -2,0 -6,-6 0,-2 -1,-1 0,-3"></path>
<text class="t2"><tspan x="4059" y="1102"><a xmlns:xlink="http://www.w3.org/1999/xlink" xlink:type="simple" xlink:show="replace" xlink:actuate="onRequest" xlink:href="javascript:locateTree('X6152');">X6152</a>
</tspan>

<tspan x="3960" y="1102">1</tspan>
</text>
<path class="white" d="M 4553,1043 l 27,0 0,27 -27,0 0,-27 z"></path>
<path class="black" d="M 4565,1043 l 2,0 0,12 -2,0 0,-12 z"></path>
<path class="stroke4" d="M 4565,1043 l 2,0 0,12 -2,0 0,-12"></path>
<path class="stroke6" d="M 4579,1057 l 0,3 -1,1 0,2 -6,6 -2,0 -1,1 -6,0 -1,-1 -2,0 -6,-6 0,-2 -1,-1 0,-3"></path>
<text class="t2"><tspan x="4605" y="1102"><a xmlns:xlink="http://www.w3.org/1999/xlink" xlink:type="simple" xlink:show="replace" xlink:actuate="onRequest" xlink:href="javascript:locateTree('X6153');">X6153</a>
</tspan>

<tspan x="4505" y="1102">1</tspan>
</text>
<path class="white" d="M 5643,1043 l 27,0 0,27 -27,0 0,-27 z"></path>
<path class="black" d="M 5656,1043 l 2,0 0,12 -2,0 0,-12 z"></path>
<path class="stroke4" d="M 5656,1043 l 2,0 0,12 -2,0 0,-12"></path>
<path class="stroke6" d="M 5670,1057 l 0,3 -1,1 0,2 -6,6 -2,0 -1,1 -6,0 -1,-1 -2,0 -6,-6 0,-2 -1,-1 0,-3"></path>
<text class="t2"><tspan x="5695" y="1102"><a xmlns:xlink="http://www.w3.org/1999/xlink" xlink:type="simple" xlink:show="replace" xlink:actuate="onRequest" xlink:href="javascript:locateTree('X6155');">X6155</a>
</tspan>

<tspan x="5596" y="1102">1</tspan>
</text>
<path class="white" d="M 5098,1043 l 27,0 0,27 -27,0 0,-27 z"></path>
<path class="black" d="M 5111,1043 l 1,0 0,12 -1,0 0,-12 z"></path>
<path class="stroke4" d="M 5111,1043 l 1,0 0,12 -1,0 0,-12"></path>
<path class="stroke6" d="M 5125,1057 l 0,3 -1,1 0,1 -1,1 0,1 -4,4 -1,0 -1,1 -1,0 -1,1 -7,0 -1,-1 -1,0 -1,-1 -1,0 -4,-4 0,-1 -1,-1 0,-1 -1,-1 0,-3"></path>
<text class="t2"><tspan x="5150" y="1102"><a xmlns:xlink="http://www.w3.org/1999/xlink" xlink:type="simple" xlink:show="replace" xlink:actuate="onRequest" xlink:href="javascript:locateTree('X6154');">X6154</a>
</tspan>

<tspan x="5050" y="1102">1</tspan>
</text>
<path class="stroke8" d="M 3367,825 l 14,0 m 18,0 l 29,0 m 17,0 l 29,0 m 18,0 l 29,0 m 17,0 l 30,0 m 17,0 l 29,0 m 18,0 l 29,0 m 17,0 l 16,0 0,13 m 0,16 l 0,28 m 0,16 l 0,27 m 0,16 l 0,28 m 0,16 l 0,27 m 0,16 l 0,15 -14,0 m -18,0 l -29,0 m -17,0 l -29,0 m -18,0 l -29,0 m -17,0 l -30,0 m -17,0 l -29,0 m -18,0 l -29,0 m -17,0 l -16,0 0,-13 m 0,-16 l 0,-28 m 0,-16 l 0,-27 m 0,-16 l 0,-28 m 0,-16 l 0,-27 m 0,-16 l 0,-15 m 545,0 l 14,0 m 18,0 l 29,0 m 17,0 l 29,0 m 18,0 l 29,0 m 17,0 l 30,0 m 17,0 l 29,0 m 18,0 l 29,0 m 17,0 l 16,0 0,13"></path>
<path class="stroke8" d="M 4239,854 l 0,28 m 0,16 l 0,27 m 0,16 l 0,28 m 0,16 l 0,27 m 0,16 l 0,15 -14,0 m -18,0 l -29,0 m -17,0 l -29,0 m -18,0 l -29,0 m -17,0 l -30,0 m -17,0 l -29,0 m -18,0 l -29,0 m -17,0 l -16,0 0,-13 m 0,-16 l 0,-28 m 0,-16 l 0,-27 m 0,-16 l 0,-28 m 0,-16 l 0,-27 m 0,-16 l 0,-15 m 545,0 l 14,0 m 18,0 l 29,0 m 17,0 l 29,0 m 18,0 l 29,0 m 17,0 l 30,0 m 17,0 l 29,0 m 18,0 l 29,0 m 17,0 l 16,0 0,13 m 0,16 l 0,28 m 0,16 l 0,27 m 0,16 l 0,28 m 0,16 l 0,27 m 0,16 l 0,15 -14,0 m -18,0 l -29,0 m -17,0 l -29,0 m -18,0 l -29,0"></path>
<path class="stroke8" d="M 4613,1043 l -30,0 m -17,0 l -29,0 m -18,0 l -29,0 m -17,0 l -16,0 0,-13 m 0,-16 l 0,-28 m 0,-16 l 0,-27 m 0,-16 l 0,-28 m 0,-16 l 0,-27 m 0,-16 l 0,-15 m 546,0 l 14,0 m 18,0 l 29,0 m 17,0 l 29,0 m 18,0 l 29,0 m 17,0 l 30,0 m 17,0 l 29,0 m 18,0 l 29,0 m 17,0 l 16,0 0,13 m 0,16 l 0,28 m 0,16 l 0,27 m 0,16 l 0,28 m 0,16 l 0,27 m 0,16 l 0,15 -14,0 m -18,0 l -29,0 m -17,0 l -29,0 m -18,0 l -29,0 m -17,0 l -30,0 m -17,0 l -29,0 m -18,0 l -29,0 m -17,0 l -16,0 0,-13 m 0,-16 l 0,-28 m 0,-16 l 0,-27 m 0,-16 l 0,-28 m 0,-16 l 0,-27"></path>
<path class="stroke8" d="M 5003,840 l 0,-15 m 545,0 l 14,0 m 18,0 l 29,0 m 17,0 l 29,0 m 18,0 l 29,0 m 17,0 l 30,0 m 17,0 l 29,0 m 18,0 l 29,0 m 17,0 l 16,0 0,13 m 0,16 l 0,28 m 0,16 l 0,27 m 0,16 l 0,28 m 0,16 l 0,27 m 0,16 l 0,15 -14,0 m -18,0 l -29,0 m -17,0 l -29,0 m -18,0 l -29,0 m -17,0 l -30,0 m -17,0 l -29,0 m -18,0 l -29,0 m -17,0 l -16,0 0,-13 m 0,-16 l 0,-28 m 0,-16 l 0,-27 m 0,-16 l 0,-28 m 0,-16 l 0,-27 m 0,-16 l 0,-15"></path>
<text class="t2"><tspan x="3732" y="857"><a xmlns:xlink="http://www.w3.org/1999/xlink" xlink:type="simple" xlink:show="replace" xlink:actuate="onRequest" xlink:href="javascript:locateTree('T6151');">T6151</a>
</tspan>

<tspan x="4277" y="857"><a xmlns:xlink="http://www.w3.org/1999/xlink" xlink:type="simple" xlink:show="replace" xlink:actuate="onRequest" xlink:href="javascript:locateTree('T6152');">T6152</a>
</tspan>

<tspan x="4823" y="857"><a xmlns:xlink="http://www.w3.org/1999/xlink" xlink:type="simple" xlink:show="replace" xlink:actuate="onRequest" xlink:href="javascript:locateTree('T6153');">T6153</a>
</tspan>

<tspan x="5368" y="857"><a xmlns:xlink="http://www.w3.org/1999/xlink" xlink:type="simple" xlink:show="replace" xlink:actuate="onRequest" xlink:href="javascript:locateTree('T6154');">T6154</a>
</tspan>

<tspan x="5913" y="857"><a xmlns:xlink="http://www.w3.org/1999/xlink" xlink:type="simple" xlink:show="replace" xlink:actuate="onRequest" xlink:href="javascript:locateTree('T6155');">T6155</a>
</tspan>

<tspan x="4605" y="2081">P_ZSZ3</tspan>

<tspan x="5150" y="2081">P_ZSZ4</tspan>

<tspan x="5695" y="2081">P_ZSZ5</tspan>

<tspan x="4059" y="2081">P_ZSZ2</tspan>

<tspan x="5695" y="2136">1.0</tspan>

<tspan x="5150" y="2136">1.0</tspan>

<tspan x="4059" y="2136">1.0</tspan>

<tspan x="4605" y="2136">1.0</tspan>

<tspan x="5695" y="2180">WS/BL</tspan>

<tspan x="5150" y="2180">WS</tspan>

<tspan x="4605" y="2180">WS/GR</tspan>

<tspan x="4059" y="2180">WS/BL</tspan>
</text>
<path style="fill:none;stroke:#000000;stroke-width:15" d="M 6202,1071 l 0,1254"></path>
<path class="white" d="M 6216,2352 l -27,0 0,-27 27,0 0,27 z"></path>
<path class="black" d="M 6203,2352 l -2,0 0,-12 2,0 0,12 z"></path>
<path class="stroke4" d="M 6203,2352 l -2,0 0,-12 2,0 0,12"></path>
<path class="stroke6" d="M 6189,2338 l 0,-3 1,-1 0,-2 6,-6 2,0 1,-1 6,0 1,1 2,0 6,6 0,2 1,1 0,3"></path>
<text class="t2"><tspan x="6241" y="2316"><a xmlns:xlink="http://www.w3.org/1999/xlink" xlink:type="simple" xlink:show="replace" xlink:actuate="onRequest" xlink:href="javascript:locateTree('X60004');">X60004</a>
</tspan>

<tspan x="6141" y="2316">6</tspan>
</text>
<path class="stroke4" d="M 5670,2338 l 30,0 m 14,0 l 30,0 m 14,0 l 30,0 m 14,0 l 31,0 m 14,0 l 30,0 m 14,0 l 30,0 m 14,0 l 31,0 m 14,0 l 30,0 m 14,0 l 30,0 m 14,0 l 30,0 m 15,0 l 30,0 m 14,0 l 30,0"></path>
<path class="white" d="M 6188,1043 l 28,0 0,27 -28,0 0,-27 z"></path>
<path class="black" d="M 6201,1043 l 2,0 0,12 -2,0 0,-12 z"></path>
<path class="stroke4" d="M 6201,1043 l 2,0 0,12 -2,0 0,-12"></path>
<path class="stroke6" d="M 6215,1057 l 0,3 -1,1 0,2 -6,6 -2,0 -1,1 -6,0 -1,-1 -2,0 -6,-6 0,-2 -1,-1 0,-3"></path>
<text class="t2"><tspan x="6240" y="1102"><a xmlns:xlink="http://www.w3.org/1999/xlink" xlink:type="simple" xlink:show="replace" xlink:actuate="onRequest" xlink:href="javascript:locateTree('X6156');">X6156</a>
</tspan>

<tspan x="6141" y="1102">1</tspan>
</text>
<path class="stroke8" d="M 6093,825 l 14,0 m 18,0 l 29,0 m 17,0 l 29,0 m 18,0 l 29,0 m 17,0 l 30,0 m 17,0 l 29,0 m 18,0 l 29,0 m 17,0 l 16,0 0,13 m 0,16 l 0,28 m 0,16 l 0,27 m 0,16 l 0,28 m 0,16 l 0,27 m 0,16 l 0,15 -14,0 m -18,0 l -29,0 m -17,0 l -29,0 m -18,0 l -29,0 m -17,0 l -30,0 m -17,0 l -29,0 m -18,0 l -29,0 m -17,0 l -16,0 0,-13 m 0,-16 l 0,-28 m 0,-16 l 0,-27 m 0,-16 l 0,-28 m 0,-16 l 0,-27 m 0,-16 l 0,-15"></path>
<text class="t2"><tspan x="6459" y="857"><a xmlns:xlink="http://www.w3.org/1999/xlink" xlink:type="simple" xlink:show="replace" xlink:actuate="onRequest" xlink:href="javascript:locateTree('T6156');">T6156</a>
</tspan>

<tspan x="6240" y="2081">P_ZSZ6</tspan>

<tspan x="6240" y="2136">1.0</tspan>

<tspan x="6240" y="2180">WS/GR</tspan>
</text>
<path class="stroke8" d="M 313,2352 l 7307,0 0,218 -7307,0 0,-218"></path>
</g>
</svg>
</g></svg>