<svg data-v-f35fd5a0="" xmlns="http://www.w3.org/2000/svg" xmlns:xlink="http://www.w3.org/1999/xlink" xmlns:ev="http://www.w3.org/2001/xml-events" style="overflow: hidden; width: 100%; min-height: 100vh;"><g id="viewport-20201011235246720" class="svg-pan-zoom_viewport" transform="matrix(0.6330563909824083,0,0,0.6330563909824083,132.54634574491632,324.6603277211947)" style="transform: matrix(0.633056, 0, 0, 0.633056, 132.546, 324.66);"><!--?xml version="1.0" encoding="UTF-8"?--> 
<!--?xml-stylesheet href="../../styles/svg.css" type="text/css"?--> 
<svg xmlns="http://www.w3.org/2000/svg" id="svgid" xml:space="preserve" viewBox="37 607 5109 2468" preserveAspectRatio="xMinYMin meet" zoomAndPan="magnify" version="1.0" width="100%" height="100%" contentscripttype="text/ecmascript" contentstyletype="text/css" xmlns:xlink="http://www.w3.org/1999/xlink">
<title>Schaltplan Viewer - Copyright BMW AG 2006</title>
<style xml:space="preserve" type="text/css">path {fill-rule:evenodd; stroke-linecap:round; stroke-linejoin:round}
rect {stroke-linejoin:miter}
text.t1 {font-family:'Courier SWA',monospace;font-size:31;fill:#000000}
path.white {fill:#FFFFFF;stroke:none}
path.black {fill:#000000;stroke:none}
path.stroke3 {fill:none;stroke:#000000;stroke-width:3}
path.stroke4 {fill:none;stroke:#000000;stroke-width:4}
path.stroke5 {fill:none;stroke:#000000;stroke-width:5}
path.stroke6 {fill:none;stroke:#000000;stroke-width:6}
path.stroke7 {fill:none;stroke:#000000;stroke-width:7 }
path.stroke8 {fill:none;stroke:#000000;stroke-width:8 }
path.stroke9 {fill:none;stroke:#000000;stroke-width:9 }
path.stroke10 {fill:none;stroke:#000000;stroke-width:10 }
path.stroke11 {fill:none;stroke:#000000;stroke-width:11}
path.stroke14 {fill:none;stroke:#000000;stroke-width:14}</style>
<desc>customer: BMW
date: 13.07.2006
time: 11:09:59
language: British engl
project: E65
version: 1.0</desc>
<g id="gid">
<text class="t1"></text>
<path style="fill:#DFDFDF;stroke:none" d="M 422,934 l 327,0 0,218 -327,0 0,-218 z"></path>
<path class="stroke8" d="M 422,934 l 14,0 m 18,0 l 29,0 m 17,0 l 29,0 m 18,0 l 29,0 m 17,0 l 30,0 m 17,0 l 29,0 m 18,0 l 29,0 m 17,0 l 16,0 0,13 m 0,16 l 0,28 m 0,16 l 0,27 m 0,16 l 0,28 m 0,16 l 0,27 m 0,16 l 0,15 -14,0 m -18,0 l -29,0 m -17,0 l -29,0 m -18,0 l -29,0 m -17,0 l -30,0 m -17,0 l -29,0 m -18,0 l -29,0 m -17,0 l -16,0 0,-13 m 0,-16 l 0,-28 m 0,-16 l 0,-27 m 0,-16 l 0,-28 m 0,-16 l 0,-27 m 0,-16 l 0,-15"></path>
<path style="fill:#DFDFDF;stroke:none" d="M 313,1916 l 654,0 0,218 -654,0 0,-218 z"></path>
<path class="stroke8" d="M 313,1916 l 654,0 0,218 -654,0 0,-218"></path>
<path style="fill:#DFDFDF;stroke:none" d="M 313,825 l 654,0 0,436 -654,0 0,-436 z"></path>
<path class="stroke8" d="M 313,825 l 14,0 m 18,0 l 29,0 m 17,0 l 29,0 m 18,0 l 29,0 m 17,0 l 30,0 m 17,0 l 29,0 m 18,0 l 29,0 m 17,0 l 29,0 m 18,0 l 29,0 m 17,0 l 30,0 m 17,0 l 29,0 m 18,0 l 29,0 m 17,0 l 29,0 m 18,0 l 29,0 m 17,0 l 17,0 0,15 m 0,18 l 0,30 m 0,18 l 0,30 m 0,18 l 0,31 m 0,18 l 0,30 m 0,18 l 0,30 m 0,18 l 0,30 m 0,19 l 0,30 m 0,18 l 0,30 m 0,18 l 0,17 -14,0 m -18,0 l -29,0 m -17,0 l -29,0 m -18,0 l -29,0 m -17,0 l -30,0 m -17,0 l -29,0 m -18,0 l -29,0 m -17,0 l -29,0 m -18,0 l -29,0 m -17,0 l -30,0"></path>
<path class="stroke8" d="M 516,1261 l -29,0 m -18,0 l -29,0 m -17,0 l -29,0 m -18,0 l -29,0 m -17,0 l -17,0 0,-15 m 0,-18 l 0,-30 m 0,-18 l 0,-30 m 0,-18 l 0,-31 m 0,-18 l 0,-30 m 0,-18 l 0,-30 m 0,-18 l 0,-30 m 0,-19 l 0,-30 m 0,-18 l 0,-30 m 0,-18 l 0,-17"></path>
<path style="fill:#DFDFDF;stroke:none" d="M 1840,1916 l 654,0 0,218 -654,0 0,-218 z"></path>
<path class="stroke8" d="M 1840,1916 l 654,0 0,218 -654,0 0,-218"></path>
<path style="fill:#DFDFDF;stroke:none" d="M 3367,1916 l 327,0 0,218 -327,0 0,-218 z"></path>
<path class="stroke8" d="M 3367,1916 l 327,0 0,218 -327,0 0,-218"></path>
<path style="fill:#DFDFDF;stroke:none" d="M 4566,1916 l 327,0 0,218 -327,0 0,-218 z"></path>
<path class="stroke8" d="M 4566,1916 l 327,0 0,218 -327,0 0,-218"></path>
<path style="fill:#DFDFDF;stroke:none" d="M 204,2679 l 4689,0 0,327 -4689,0 0,-327 z"></path>
<path class="stroke8" d="M 204,2679 l 15,0 m 17,0 l 30,0 m 18,0 l 30,0 m 18,0 l 30,0 m 18,0 l 30,0 m 18,0 l 30,0 m 17,0 l 30,0 m 18,0 l 30,0 m 18,0 l 30,0 m 18,0 l 30,0 m 18,0 l 30,0 m 17,0 l 30,0 m 18,0 l 30,0 m 18,0 l 30,0 m 18,0 l 30,0 m 18,0 l 30,0 m 17,0 l 30,0 m 18,0 l 30,0 m 18,0 l 30,0 m 18,0 l 30,0 m 18,0 l 30,0 m 17,0 l 30,0 m 18,0 l 30,0 m 18,0 l 30,0 m 18,0 l 30,0 m 18,0 l 30,0 m 17,0 l 30,0 m 18,0 l 30,0 m 18,0 l 30,0 m 18,0 l 30,0 m 18,0 l 30,0 m 17,0 l 30,0 m 18,0 l 30,0"></path>
<path class="stroke8" d="M 1766,2679 l 30,0 m 18,0 l 30,0 m 18,0 l 30,0 m 17,0 l 30,0 m 18,0 l 30,0 m 18,0 l 30,0 m 18,0 l 30,0 m 18,0 l 30,0 m 17,0 l 30,0 m 18,0 l 30,0 m 18,0 l 30,0 m 18,0 l 30,0 m 18,0 l 30,0 m 17,0 l 30,0 m 18,0 l 30,0 m 18,0 l 30,0 m 18,0 l 30,0 m 18,0 l 30,0 m 17,0 l 30,0 m 18,0 l 30,0 m 18,0 l 30,0 m 18,0 l 30,0 m 18,0 l 30,0 m 17,0 l 30,0 m 18,0 l 30,0 m 18,0 l 30,0 m 18,0 l 30,0 m 18,0 l 30,0 m 17,0 l 30,0 m 18,0 l 30,0 m 18,0 l 30,0 m 18,0 l 30,0 m 18,0 l 30,0"></path>
<path class="stroke8" d="M 3343,2679 l 30,0 m 18,0 l 30,0 m 18,0 l 30,0 m 18,0 l 30,0 m 18,0 l 30,0 m 17,0 l 30,0 m 18,0 l 30,0 m 18,0 l 30,0 m 18,0 l 30,0 m 18,0 l 30,0 m 17,0 l 30,0 m 18,0 l 30,0 m 18,0 l 30,0 m 18,0 l 30,0 m 18,0 l 30,0 m 17,0 l 30,0 m 18,0 l 30,0 m 18,0 l 30,0 m 18,0 l 30,0 m 18,0 l 30,0 m 17,0 l 30,0 m 18,0 l 30,0 m 18,0 l 30,0 m 18,0 l 30,0 m 18,0 l 30,0 m 17,0 l 30,0 m 18,0 l 30,0 m 18,0 l 30,0 m 18,0 l 30,0 m 18,0 l 30,0 m 17,0 l 30,0 m 18,0 l 30,0 m 18,0 l 20,0 0,14"></path>
<path class="stroke8" d="M 4893,2711 l 0,29 m 0,17 l 0,29 m 0,18 l 0,29 m 0,17 l 0,30 m 0,17 l 0,29 m 0,18 l 0,29 m 0,17 l 0,16 -15,0 m -17,0 l -30,0 m -18,0 l -30,0 m -18,0 l -30,0 m -18,0 l -30,0 m -18,0 l -30,0 m -17,0 l -30,0 m -18,0 l -30,0 m -18,0 l -30,0 m -18,0 l -30,0 m -18,0 l -30,0 m -17,0 l -30,0 m -18,0 l -30,0 m -18,0 l -30,0 m -18,0 l -30,0 m -18,0 l -30,0 m -17,0 l -30,0 m -18,0 l -30,0 m -18,0 l -30,0 m -18,0 l -30,0 m -18,0 l -30,0 m -17,0 l -30,0 m -18,0 l -30,0 m -18,0 l -30,0 m -18,0 l -30,0 m -18,0 l -30,0 m -17,0 l -30,0"></path>
<path class="stroke8" d="M 3618,3006 l -30,0 m -18,0 l -30,0 m -18,0 l -30,0 m -18,0 l -30,0 m -17,0 l -30,0 m -18,0 l -30,0 m -18,0 l -30,0 m -18,0 l -30,0 m -18,0 l -30,0 m -17,0 l -30,0 m -18,0 l -30,0 m -18,0 l -30,0 m -18,0 l -30,0 m -18,0 l -30,0 m -17,0 l -30,0 m -18,0 l -30,0 m -18,0 l -30,0 m -18,0 l -30,0 m -18,0 l -30,0 m -17,0 l -30,0 m -18,0 l -30,0 m -18,0 l -30,0 m -18,0 l -30,0 m -18,0 l -30,0 m -17,0 l -30,0 m -18,0 l -30,0 m -18,0 l -30,0 m -18,0 l -30,0 m -18,0 l -30,0 m -17,0 l -30,0 m -18,0 l -30,0 m -18,0 l -30,0 m -18,0 l -30,0"></path>
<path class="stroke8" d="M 2040,3006 l -30,0 m -17,0 l -30,0 m -18,0 l -30,0 m -18,0 l -30,0 m -18,0 l -30,0 m -18,0 l -30,0 m -17,0 l -30,0 m -18,0 l -30,0 m -18,0 l -30,0 m -18,0 l -30,0 m -18,0 l -30,0 m -17,0 l -30,0 m -18,0 l -30,0 m -18,0 l -30,0 m -18,0 l -30,0 m -18,0 l -30,0 m -17,0 l -30,0 m -18,0 l -30,0 m -18,0 l -30,0 m -18,0 l -30,0 m -18,0 l -30,0 m -17,0 l -30,0 m -18,0 l -30,0 m -18,0 l -30,0 m -18,0 l -30,0 m -18,0 l -30,0 m -17,0 l -30,0 m -18,0 l -30,0 m -18,0 l -30,0 m -18,0 l -30,0 m -18,0 l -30,0 m -17,0 l -30,0 m -18,0 l -30,0"></path>
<path class="stroke8" d="M 463,3006 l -30,0 m -18,0 l -30,0 m -18,0 l -30,0 m -17,0 l -30,0 m -18,0 l -30,0 m -18,0 l -20,0 0,-14 m 0,-18 l 0,-29 m 0,-17 l 0,-29 m 0,-18 l 0,-29 m 0,-17 l 0,-30 m 0,-17 l 0,-29 m 0,-18 l 0,-29 m 0,-17 l 0,-16"></path>
<path style="fill:none;stroke:#000000;stroke-width:15" d="M 3476,2161 l 0,491 m 1199,-491 l 0,491 m -1199,-1173 l 0,409 m 1199,-409 l 0,409"></path>
<path class="stroke4" d="M 531,1479 l 4144,0 m -2126,1333 l -4,0 -1,1 -3,0 -1,1 -2,0 -1,1 -1,0 -1,1 -1,0 -2,2 -1,0 -6,6 0,1 -2,2 0,1 -1,1 0,1 -1,1 0,2 -1,1 0,3 -1,1 0,10 1,1 0,2 1,1 0,2 1,1 0,1 1,1 0,1 2,2 0,1 6,6 1,0 2,2 1,0 1,1 1,0 1,1 2,0 1,1 2,0 1,1 11,0 1,-1 2,0 1,-1 2,0 1,-1 1,0 1,-1 1,0 2,-2 1,0 6,-6 0,-1 2,-2 0,-1 1,-1 0,-1 1,-1 0,-2 1,-1 0,-2 1,-1 0,-10 -1,-1 0,-3 -1,-1 0,-2 -1,-1 0,-1 -1,-1 0,-1 -2,-2 0,-1 -6,-6 -1,0 -2,-2 -1,0 -1,-1 -1,0 -1,-1 -2,0 -1,-1 -3,0 -1,-1 -4,0 m -40,68 l 78,0 0,-75 -78,0 0,75 m 39,-32 l 0,25 m -21,-25 l  41,0 m -45,-21 l 12,21 m 38,-21 l -12,21 m -27,-2 l -8,-7 7,-4 2,11"></path>
<text class="t3"><tspan x="1006" y="834">.</tspan>
</text>
<text class="t2"><tspan x="1006" y="870"><a xmlns:xlink="http://www.w3.org/1999/xlink" xlink:type="simple" xlink:show="replace" xlink:actuate="onRequest" xlink:href="javascript:locateTree('A8680');">A8680</a>
</tspan>
</text>
<text class="t2"><tspan x="1006" y="939">Fuse carrier, en-</tspan>

<tspan x="1006" y="983">gine electronics</tspan>
</text>
<path style="fill:none;stroke:#000000;stroke-width:15" d="M 531,1289 l 0,627"></path>
<text class="t2"><tspan x="569" y="1566">U_HR&lt;2</tspan>

<tspan x="569" y="1620">0.5</tspan>

<tspan x="569" y="1664">OR</tspan>
</text>
<path class="white" d="M 517,1261 l 28,0 0,28 -28,0 0,-28 z"></path>
<path class="black" d="M 530,1261 l 2,0 0,12 -2,0 0,-12 z"></path>
<path class="stroke4" d="M 530,1261 l 2,0 0,12 -2,0 0,-12"></path>
<path class="stroke6" d="M 544,1275 l 0,3 -1,1 0,2 -6,6 -2,0 -1,1 -6,0 -1,-1 -2,0 -6,-6 0,-2 -1,-1 0,-3"></path>
<text class="t2"><tspan x="569" y="1321"><a xmlns:xlink="http://www.w3.org/1999/xlink" xlink:type="simple" xlink:show="replace" xlink:actuate="onRequest" xlink:href="javascript:locateTree('X8680');">X8680</a>
</tspan>

<tspan x="470" y="1321">4</tspan>
</text>
<path class="stroke8" d="M 422,934 l 14,0 m 18,0 l 29,0 m 17,0 l 29,0 m 18,0 l 29,0 m 17,0 l 30,0 m 17,0 l 29,0 m 18,0 l 29,0 m 17,0 l 16,0 0,13 m 0,16 l 0,28 m 0,16 l 0,27 m 0,16 l 0,28 m 0,16 l 0,27 m 0,16 l 0,15 -14,0 m -18,0 l -29,0 m -17,0 l -29,0 m -18,0 l -29,0 m -17,0 l -30,0 m -17,0 l -29,0 m -18,0 l -29,0 m -17,0 l -16,0 0,-13 m 0,-16 l 0,-28 m 0,-16 l 0,-27 m 0,-16 l 0,-28 m 0,-16 l 0,-27 m 0,-16 l 0,-15"></path>
<path class="stroke4" d="M 548,1012 l -34,0 0,96 34,0 0,-96 m -17,140 l 0,-140 m -7,-15 l 15,0 m -17,3 l 18,0 m -18,2 l 19,0 m -20,3 l 20,0 m -19,2 l 18,0 m -16,3 l 15,0 m -12,-15 l 9,0 m 1,17 l 4,-4 0,-2 1,-1 0,-3 -1,-1 0,-2 -4,-4 -1,0 -1,-1 -6,0 -1,1 -1,0 -1,1 -1,0 -2,2 0,1 -1,1 0,1 -1,1 0,5 1,1 0,1 1,1 3,2"></path>
<text class="t2"><tspan x="788" y="966"><a xmlns:xlink="http://www.w3.org/1999/xlink" xlink:type="simple" xlink:show="replace" xlink:actuate="onRequest" xlink:href="javascript:locateTree('F02');">F02</a>
</tspan>

<tspan x="512" y="980">87</tspan>

<tspan x="597" y="1089">30A</tspan>
</text>
<path class="stroke4" d="M 531,1152 l 0,111"></path>
<path class="white" d="M 545,1807 l -27,0 0,-28 27,0 0,28 z"></path>
<path class="black" d="M 532,1806 l -2,0 0,-11 2,0 0,11 z"></path>
<path class="stroke4" d="M 532,1806 l -2,0 0,-11 2,0 0,11"></path>
<path class="stroke6" d="M 518,1793 l 0,-3 1,-1 0,-2 6,-6 2,0 1,-1 6,0 1,1 2,0 6,6 0,2 1,1 0,3"></path>
<text class="t2"><tspan x="570" y="1771"><a xmlns:xlink="http://www.w3.org/1999/xlink" xlink:type="simple" xlink:show="replace" xlink:actuate="onRequest" xlink:href="javascript:locateTree('X6214');">X6214</a>
</tspan>

<tspan x="470" y="1771">3</tspan>
</text>
<path class="white" d="M 527,1463 l -1,1 -2,0 -2,2 -1,0 -5,5 0,1 -1,1 0,2 -1,1 0,7 1,1 0,2 1,1 0,1 5,5 1,0 2,2 2,0 1,1 8,0 1,-1 2,0 2,-2 1,0 5,-5 0,-1 1,-1 0,-2 1,-1 0,-7 -1,-1 0,-2 -1,-1 0,-1 -5,-5 -1,0 -2,-2 -2,0 -1,-1 -8,0 z"></path>
<path class="stroke4" d="M 531,1472 l -2,0 -1,1 -1,0 -2,2 0,1 -1,1 0,5 1,1 0,1 2,2 1,0 1,1 4,0 1,-1 1,0 2,-2 0,-1 1,-1 0,-5 -1,-1 0,-1 -2,-2 -1,0 -1,-1 -1,0 m -6,3 l 10,0 m -11,2 l 13,0 m -14,1 l 14,0 m -14,2 l 14,0 m -13,2 l 13,0 m -12,2 l 11,0 m -9,2 l 7,0 m -7,-13 l 7,0"></path>
<path style="fill:none;stroke:#000000;stroke-width:15" d="M 749,2134 l 0,518 m -327,-518 l 0,518"></path>
<text class="t3"><tspan x="1006" y="1925">.</tspan>
</text>
<text class="t2"><tspan x="1006" y="1961"><a xmlns:xlink="http://www.w3.org/1999/xlink" xlink:type="simple" xlink:show="replace" xlink:actuate="onRequest" xlink:href="javascript:locateTree('B6214a');">B6214a</a>
</tspan>

<tspan x="460" y="2438">M_NWGE</tspan>

<tspan x="788" y="2438">P_NWGE1</tspan>

<tspan x="788" y="2493">0.5</tspan>

<tspan x="460" y="2493">0.5</tspan>

<tspan x="460" y="2537">SW/BL</tspan>

<tspan x="788" y="2537">GE</tspan>
</text>
<text class="t2"><tspan x="1006" y="2030">Intake camshaft</tspan>

<tspan x="1006" y="2074">sensor</tspan>
</text>
<path class="stroke4" d="M 435,2256 l 30,0 m 15,0 l 30,0 m 15,0 l 30,0 m 15,0 l 30,0 m 15,0 l 30,0 m 15,0 l 30,0 m 15,0 l 30,0 m -300,409 l 30,0 m 15,0 l 30,0 m 15,0 l 30,0 m 15,0 l 30,0 m 15,0 l 30,0 m 15,0 l 30,0 m 15,0 l 30,0 m 145,276 l 2,0 1,-1 1,0 1,-1 0,-1 1,-1 0,-3 -1,-1 0,-1 -1,-1 -1,0 -1,-1 -4,0 -1,1 -1,0 -1,1 0,1 -1,1 0,3 1,1 0,1 1,1 1,0 1,1 1,0 m 7,-5 l -12,0 m 1,-3 l 10,0 m -10,5 l 9,0"></path>
<text class="t2"><tspan x="802" y="2951">31</tspan>
</text>
<path class="stroke4" d="M 869,2944 l 22,0 m -142,-265 l 0,59 m -10,0 l 21,0 0,85 -21,0 0,-85 m 6,140 l 0,5 1,1 0,3 1,1 0,2 1,1 0,1 1,1 0,1 2,2 0,1 6,6 1,0 2,2 1,0 1,1 1,0 1,1 2,0 1,1 3,0 1,1 10,0 1,-1 2,0 1,-1 2,0 1,-1 1,0 1,-1 1,0 2,-2 1,0 6,-6 0,-1 2,-2 0,-1 1,-1 0,-1 1,-1 0,-2 1,-1 0,-2 1,-1 0,-11 -1,-1 0,-2 -1,-1 0,-2 -1,-1 0,-1 -1,-1 0,-1 -2,-2 0,-1 -6,-6 -1,0 -2,-2 -1,0 -1,-1 -1,0 -1,-1 -2,0 -1,-1 -2,0 -1,-1 -10,0 -1,1 -3,0 -1,1 -2,0 -1,1 -1,0 -1,1 -1,0 -2,2 -1,0 -6,6 0,1 -2,2 0,1 -1,1 0,1 -1,1 0,2 -1,1 0,3 -1,1 0,3 m 4,-54 l  0,40 m 6,22 l 41,0 m -45,-22 l 12,22 m 37,-21 l -2,11 -7,-4 9,-7 m -23,21 l 0,60 m 11,-60 l 13,-22 79,0 0,67 m -131,-213 l 2,0 1,-1 1,0 1,-1 0,-1 1,-1 0,-3 -1,-1 0,-1 -1,-1 -1,0 -1,-1 -3,0 -1,1 -1,0 -1,1 0,1 -1,1 0,3 1,1 0,1 1,1 1,0 1,1 m 50,-5 l 23,0 -23,10 0,-21 23,11 m -23,-4 l 15,0 m -15,-4 l 8,0 m -8,11 l 14,0 m -14,4 l 6,0 m -60,-7 l 64,0 m -63,-3 l 9,0 m -9,5 l 9,0"></path>
<path class="stroke8" d="M 313,1916 l 654,0 0,218 -654,0 0,-218"></path>
<path class="white" d="M 436,2679 l -27,0 0,-27 27,0 0,27 z"></path>
<path class="black" d="M 423,2679 l -2,0 0,-11 2,0 0,11 z"></path>
<path class="stroke4" d="M 423,2679 l -2,0 0,-11 2,0 0,11"></path>
<path class="stroke6" d="M 409,2665 l 0,-3 1,-1 0,-2 6,-6 2,0 1,-1 6,0 1,1 2,0 6,6 0,2 1,1 0,3"></path>
<text class="t2"><tspan x="338" y="2643">24</tspan>
</text>
<path class="white" d="M 763,2679 l -27,0 0,-27 27,0 0,27 z"></path>
<path class="black" d="M 750,2679 l -1,0 0,-11 1,0 0,11 z"></path>
<path class="stroke4" d="M 750,2679 l -1,0 0,-11 1,0 0,11"></path>
<path class="stroke6" d="M 736,2665 l 0,-3 1,-1 0,-2 6,-6 2,0 1,-1 6,0 1,1 2,0 6,6 0,2 1,1 0,3"></path>
<text class="t2"><tspan x="668" y="2643">11</tspan>
</text>
<path class="stroke4" d="M 586,1997 l 109,0 0,55 -109,0 0,-55 m 38,39 l 33,-22 m -33,0 l 33,22 m 38,-11 l 20,0 m -75,-44 l 0,16 m 0,55 l 0,16 m -75,-43 l 21,0"></path>
<path class="white" d="M 408,2243 l 28,0 0,27 -28,0 0,-27 z"></path>
<path class="black" d="M 421,2243 l 2,0 0,11 -2,0 0,-11 z"></path>
<path class="stroke4" d="M 421,2243 l 2,0 0,11 -2,0 0,-11"></path>
<path class="stroke6" d="M 435,2256 l 0,3 -1,1 0,2 -1,1 0,1 -4,4 -1,0 -1,1 -1,0 -1,1 -6,0 -1,-1 -1,0 -1,-1 -1,0 -4,-4 0,-1 -1,-1 0,-2 -1,-1 0,-3"></path>
<text class="t2"><tspan x="361" y="2302">2</tspan>
</text>
<path class="white" d="M 736,2243 l 27,0 0,27 -27,0 0,-27 z"></path>
<path class="black" d="M 748,2243 l 2,0 0,11 -2,0 0,-11 z"></path>
<path class="stroke4" d="M 748,2243 l 2,0 0,11 -2,0 0,-11"></path>
<path class="stroke6" d="M 762,2256 l 0,3 -1,1 0,2 -1,1 0,1 -4,4 -1,0 -1,1 -1,0 -1,1 -6,0 -1,-1 -1,0 -1,-1 -1,0 -4,-4 0,-1 -1,-1 0,-2 -1,-1 0,-3"></path>
<text class="t2"><tspan x="788" y="2302"><a xmlns:xlink="http://www.w3.org/1999/xlink" xlink:type="simple" xlink:show="replace" xlink:actuate="onRequest" xlink:href="javascript:locateTree('X6214');">X6214</a>
</tspan>

<tspan x="688" y="2302">1</tspan>
</text>
<path class="stroke4" d="M 422,2866 l 2,0 1,-1 1,0 1,-1 0,-1 1,-1 0,-3 -1,-1 0,-1 -1,-1 -1,0 -1,-1 -3,0 -1,1 -1,0 -1,1 0,1 -1,1 0,3 1,1 0,1 1,1 1,0 1,1 m 7,-5 l -11,0 m 1,-3 l 9,0 m -9,6 l 9,0"></path>
<text class="t2"><tspan x="344" y="2876">31</tspan>
</text>
<path class="stroke4" d="M 422,2679 l 0,65 m -11,85 l 22,0 0,-85 -22,0 0,85 m 11,-109 l 2,0 1,-1 1,0 1,-1 0,-1 1,-1 0,-3 -1,-1 0,-1 -1,-1 -1,0 -1,-1 -3,0 -1,1 -1,0 -1,1 0,1 -1,1 0,3 1,1 0,1 1,1 1,0 1,1 m -10,149 l 22,0 m 37,-154 l 24,0 -24,10 0,-21 24,11 m -24,-4 l 16,0 m -16,-4 l 9,0 m -9,11 l 14,0 m -14,4 l 7,0 m -55,107 l 0,26 m -5,-140 l 64,0 m -63,-3 l 9,0 m -9,5 l 9,0"></path>
<path class="stroke8" d="M 313,825 l 14,0 m 18,0 l 29,0 m 17,0 l 29,0 m 18,0 l 29,0 m 17,0 l 30,0 m 17,0 l 29,0 m 18,0 l 29,0 m 17,0 l 29,0 m 18,0 l 29,0 m 17,0 l 30,0 m 17,0 l 29,0 m 18,0 l 29,0 m 17,0 l 29,0 m 18,0 l 29,0 m 17,0 l 17,0 0,15 m 0,18 l 0,30 m 0,18 l 0,30 m 0,18 l 0,31 m 0,18 l 0,30 m 0,18 l 0,30 m 0,18 l 0,30 m 0,19 l 0,30 m 0,18 l 0,30 m 0,18 l 0,17 -14,0 m -18,0 l -29,0 m -17,0 l -29,0 m -18,0 l -29,0 m -17,0 l -30,0 m -17,0 l -29,0 m -18,0 l -29,0 m -17,0 l -29,0 m -18,0 l -29,0 m -17,0 l -30,0"></path>
<path class="stroke8" d="M 516,1261 l -29,0 m -18,0 l -29,0 m -17,0 l -29,0 m -18,0 l -29,0 m -17,0 l -17,0 0,-15 m 0,-18 l 0,-30 m 0,-18 l 0,-30 m 0,-18 l 0,-31 m 0,-18 l 0,-30 m 0,-18 l 0,-30 m 0,-18 l 0,-30 m 0,-19 l 0,-30 m 0,-18 l 0,-30 m 0,-18 l 0,-17"></path>
<path style="fill:none;stroke:#000000;stroke-width:15" d="M 2058,1479 l 0,437"></path>
<path class="white" d="M 2072,1807 l -27,0 0,-28 27,0 0,28 z"></path>
<path class="black" d="M 2059,1806 l -2,0 0,-11 2,0 0,11 z"></path>
<path class="stroke4" d="M 2059,1806 l -2,0 0,-11 2,0 0,11"></path>
<path class="stroke6" d="M 2045,1793 l 0,-3 1,-1 0,-2 6,-6 2,0 1,-1 6,0 1,1 2,0 6,6 0,2 1,1 0,3"></path>
<text class="t2"><tspan x="2096" y="1771"><a xmlns:xlink="http://www.w3.org/1999/xlink" xlink:type="simple" xlink:show="replace" xlink:actuate="onRequest" xlink:href="javascript:locateTree('X6224');">X6224</a>
</tspan>

<tspan x="1997" y="1771">3</tspan>
</text>
<path class="white" d="M 2054,1463 l -1,1 -2,0 -2,2 -1,0 -5,5 0,1 -1,1 0,2 -1,1 0,7 1,1 0,2 1,1 0,1 5,5 1,0 2,2 2,0 1,1 8,0 1,-1 2,0 2,-2 1,0 5,-5 0,-1 1,-1 0,-2 1,-1 0,-7 -1,-1 0,-2 -1,-1 0,-1 -5,-5 -1,0 -2,-2 -2,0 -1,-1 -8,0 z"></path>
<path class="stroke4" d="M 2058,1472 l -2,0 -1,1 -1,0 -2,2 0,1 -1,1 0,5 1,1 0,1 2,2 1,0 1,1 4,0 1,-1 1,0 2,-2 0,-1 1,-1 0,-5 -1,-1 0,-1 -2,-2 -1,0 -1,-1 -1,0 m -6,3 l 10,0 m -11,2 l 12,0 m -13,1 l 14,0 m -14,2 l 14,0 m -13,2 l 12,0 m -11,2 l 10,0 m -8,2 l 6,0 m -6,-13 l 6,0"></path>
<path style="fill:none;stroke:#000000;stroke-width:15" d="M 2276,2134 l 0,518 m -327,-518 l 0,518"></path>
<text class="t3"><tspan x="2533" y="1925">.</tspan>
</text>
<text class="t2"><tspan x="2533" y="1961"><a xmlns:xlink="http://www.w3.org/1999/xlink" xlink:type="simple" xlink:show="replace" xlink:actuate="onRequest" xlink:href="javascript:locateTree('B6224a');">B6224a</a>
</tspan>

<tspan x="1987" y="2438">M_NWGA</tspan>

<tspan x="2314" y="2438">P_NWGA</tspan>

<tspan x="2314" y="2493">0.5</tspan>

<tspan x="1987" y="2493">0.5</tspan>

<tspan x="1987" y="2537">SW/WS</tspan>

<tspan x="2314" y="2537">GE/BL</tspan>
</text>
<text class="t2"><tspan x="2533" y="2030">Exhaust camshaft</tspan>

<tspan x="2533" y="2074">sensor</tspan>
</text>
<path class="stroke4" d="M 1962,2256 l 30,0 m 14,0 l 31,0 m 14,0 l 31,0 m 14,0 l 31,0 m 14,0 l 30,0 m 15,0 l 30,0 m 14,0 l 31,0 m -299,409 l 30,0 m 14,0 l 31,0 m 14,0 l 31,0 m 14,0 l 31,0 m 14,0 l 30,0 m 15,0 l 30,0 m 14,0 l 31,0 m 145,276 l 2,0 1,-1 1,0 1,-1 0,-1 1,-1 0,-3 -1,-1 0,-1 -1,-1 -1,0 -1,-1 -3,0 -1,1 -1,0 -1,1 0,1 -1,1 0,3 1,1 0,1 1,1 1,0 1,1 m 7,-5 l -11,0 m 1,-3 l 9,0 m -9,5 l 9,0"></path>
<text class="t2"><tspan x="2329" y="2951">31</tspan>
</text>
<path class="stroke4" d="M 2396,2944 l 22,0 m -142,-265 l 0,59 m -11,0 l 22,0 0,85 -22,0 0,-85 m 7,140 l 0,5 1,1 0,3 1,1 0,2 1,1 0,1 1,1 0,1 2,2 0,1 6,6 1,0 2,2 1,0 1,1 1,0 1,1 2,0 1,1 3,0 1,1 10,0 1,-1 2,0 1,-1 2,0 1,-1 1,0 1,-1 1,0 2,-2 1,0 6,-6 0,-1 2,-2 0,-1 1,-1 0,-1 1,-1 0,-2 1,-1 0,-2 1,-1 0,-11 -1,-1 0,-2 -1,-1 0,-2 -1,-1 0,-1 -1,-1 0,-1 -2,-2 0,-1 -6,-6 -1,0 -2,-2 -1,0 -1,-1 -1,0 -1,-1 -2,0 -1,-1 -2,0 -1,-1 -10,0 -1,1 -3,0 -1,1 -2,0 -1,1 -1,0 -1,1 -1,0 -2,2 -1,0 -6,6 0,1 -2,2 0,1 -1,1 0,1 -1,1 0,2 -1,1 0,3 -1,1 0,3 m 4,-54 l  0,40 m 6,22 l 41,0 m -45,-22 l 12,22 m 37,-21 l -2,11 -7,-4 8,-7 m -23,21 l 0,60 m 12,-60 l 13,-22 79,0 0,67 m -131,-213 l 2,0 1,-1 1,0 1,-1 0,-1 1,-1 0,-3 -1,-1 0,-1 -1,-1 -1,0 -1,-1 -3,0 -1,1 -1,0 -1,1 0,1 -1,1 0,3 1,1 0,1 1,1 1,0 1,1 m 49,-5 l 24,0 -24,10 0,-21 24,11 m -24,-4 l 16,0 m -16,-4 l 9,0 m -9,11 l 14,0 m -14,4 l 7,0 m -60,-7 l 64,0 m -63,-3 l 9,0 m -9,5 l 9,0"></path>
<path class="stroke8" d="M 1840,1916 l 654,0 0,218 -654,0 0,-218"></path>
<path class="white" d="M 1963,2679 l -28,0 0,-27 28,0 0,27 z"></path>
<path class="black" d="M 1950,2679 l -2,0 0,-11 2,0 0,11 z"></path>
<path class="stroke4" d="M 1950,2679 l -2,0 0,-11 2,0 0,11"></path>
<path class="stroke6" d="M 1936,2665 l 0,-3 1,-1 0,-2 6,-6 2,0 1,-1 6,0 1,1 2,0 6,6 0,2 1,1 0,3"></path>
<text class="t2"><tspan x="1865" y="2643">25</tspan>
</text>
<path class="white" d="M 2290,2679 l -27,0 0,-27 27,0 0,27 z"></path>
<path class="black" d="M 2277,2679 l -2,0 0,-11 2,0 0,11 z"></path>
<path class="stroke4" d="M 2277,2679 l -2,0 0,-11 2,0 0,11"></path>
<path class="stroke6" d="M 2263,2665 l 0,-3 1,-1 0,-2 6,-6 2,0 1,-1 6,0 1,1 2,0 6,6 0,2 1,1 0,3"></path>
<text class="t2"><tspan x="2192" y="2643">12</tspan>
</text>
<path class="stroke4" d="M 2112,1997 l 109,0 0,55 -109,0 0,-55 m 39,39 l 33,-22 m -33,0 l 33,22 m 38,-11 l 20,0 m -75,-44 l 0,16 m 0,55 l 0,16 m -75,-43 l 20,0"></path>
<path class="white" d="M 1935,2243 l 27,0 0,27 -27,0 0,-27 z"></path>
<path class="black" d="M 1948,2243 l 2,0 0,11 -2,0 0,-11 z"></path>
<path class="stroke4" d="M 1948,2243 l 2,0 0,11 -2,0 0,-11"></path>
<path class="stroke6" d="M 1962,2256 l 0,3 -1,1 0,2 -1,1 0,1 -4,4 -1,0 -1,1 -1,0 -1,1 -6,0 -1,-1 -1,0 -1,-1 -1,0 -4,-4 0,-1 -1,-1 0,-2 -1,-1 0,-3"></path>
<text class="t2"><tspan x="1888" y="2302">2</tspan>
</text>
<path class="white" d="M 2262,2243 l 28,0 0,27 -28,0 0,-27 z"></path>
<path class="black" d="M 2275,2243 l 2,0 0,11 -2,0 0,-11 z"></path>
<path class="stroke4" d="M 2275,2243 l 2,0 0,11 -2,0 0,-11"></path>
<path class="stroke6" d="M 2289,2256 l 0,3 -1,1 0,2 -1,1 0,1 -4,4 -1,0 -1,1 -1,0 -1,1 -6,0 -1,-1 -1,0 -1,-1 -1,0 -4,-4 0,-1 -1,-1 0,-2 -1,-1 0,-3"></path>
<text class="t2"><tspan x="2314" y="2302"><a xmlns:xlink="http://www.w3.org/1999/xlink" xlink:type="simple" xlink:show="replace" xlink:actuate="onRequest" xlink:href="javascript:locateTree('X6224');">X6224</a>
</tspan>

<tspan x="2215" y="2302">1</tspan>
</text>
<path class="stroke4" d="M 1949,2866 l 2,0 1,-1 1,0 1,-1 0,-1 1,-1 0,-3 -1,-1 0,-1 -1,-1 -1,0 -1,-1 -4,0 -1,1 -1,0 -1,1 0,1 -1,1 0,3 1,1 0,1 1,1 1,0 1,1 1,0 m 7,-5 l -12,0 m 1,-3 l 10,0 m -10,6 l 9,0"></path>
<text class="t2"><tspan x="1871" y="2876">31</tspan>
</text>
<path class="stroke4" d="M 1949,2679 l 0,65 m -11,85 l 22,0 0,-85 -22,0 0,85 m 11,-109 l 2,0 1,-1 1,0 1,-1 0,-1 1,-1 0,-3 -1,-1 0,-1 -1,-1 -1,0 -1,-1 -4,0 -1,1 -1,0 -1,1 0,1 -1,1 0,3 1,1 0,1 1,1 1,0 1,1 1,0 m -10,149 l 22,0 m 37,-154 l 23,0 -23,10 0,-21 23,11 m -23,-4 l 16,0 m -16,-4 l 8,0 m -8,11 l 14,0 m -14,4 l 6,0 m -54,107 l 0,26 m -6,-140 l 65,0 m -64,-3 l 10,0 m -10,5 l 9,0"></path>
<path class="white" d="M 3490,1916 l -28,0 0,-28 28,0 0,28 z"></path>
<path class="black" d="M 3477,1915 l -2,0 0,-11 2,0 0,11 z"></path>
<path class="stroke4" d="M 3477,1915 l -2,0 0,-11 2,0 0,11"></path>
<path class="stroke6" d="M 3463,1902 l 0,-3 1,-1 0,-2 6,-6 2,0 1,-1 6,0 1,1 2,0 6,6 0,2 1,1 0,3"></path>
<text class="t2"><tspan x="3514" y="1880"><a xmlns:xlink="http://www.w3.org/1999/xlink" xlink:type="simple" xlink:show="replace" xlink:actuate="onRequest" xlink:href="javascript:locateTree('X6275');">X6275</a>
</tspan>

<tspan x="3415" y="1880">1</tspan>
</text>
<path class="white" d="M 3472,1463 l -1,1 -2,0 -2,2 -1,0 -5,5 0,1 -1,1 0,2 -1,1 0,7 1,1 0,2 1,1 0,1 5,5 1,0 2,2 2,0 1,1 8,0 1,-1 2,0 2,-2 1,0 5,-5 0,-1 1,-1 0,-2 1,-1 0,-7 -1,-1 0,-2 -1,-1 0,-1 -5,-5 -1,0 -2,-2 -2,0 -1,-1 -8,0 z"></path>
<path class="stroke4" d="M 3476,1472 l -2,0 -1,1 -1,0 -2,2 0,1 -1,1 0,5 1,1 0,1 2,2 1,0 1,1 4,0 1,-1 1,0 2,-2 0,-1 1,-1 0,-5 -1,-1 0,-1 -2,-2 -1,0 -1,-1 -1,0 m -6,3 l 10,0 m -11,2 l 12,0 m -13,1 l 13,0 m -13,2 l 14,0 m -13,2 l 12,0 m -11,2 l 10,0 m -8,2 l 6,0 m -6,-13 l 6,0"></path>
<text class="t3"><tspan x="3732" y="1925">.</tspan>
</text>
<text class="t2"><tspan x="3732" y="1961"><a xmlns:xlink="http://www.w3.org/1999/xlink" xlink:type="simple" xlink:show="replace" xlink:actuate="onRequest" xlink:href="javascript:locateTree('Y6275');">Y6275</a>
</tspan>

<tspan x="3514" y="2438">T_NWE</tspan>

<tspan x="3514" y="2493">0.5</tspan>

<tspan x="3514" y="2537">WS/BL</tspan>
</text>
<text class="t2"><tspan x="3732" y="2030">VANOS solenoid</tspan>

<tspan x="3732" y="2074">valve, intake</tspan>
</text>
<path class="stroke4" d="M 3606,2941 l 2,0 1,-1 1,0 1,-1 0,-1 1,-1 0,-3 -1,-1 0,-1 -1,-1 -1,0 -1,-1 -3,0 -1,1 -1,0 -1,1 0,1 -1,1 0,3 1,1 0,1 1,1 1,0 1,1 m 7,-5 l -11,0 m 1,-3 l 9,0 m -9,5 l 9,0"></path>
<text class="t2"><tspan x="3528" y="2951">31</tspan>
</text>
<path class="stroke4" d="M 3595,2944 l 22,0 m -141,-265 l 0,59 m -11,0 l 21,0 0,85 -21,0 0,-85 m 7,140 l 0,5 1,1 0,3 1,1 0,2 1,1 0,1 1,1 0,1 1,1 0,1 8,8 1,0 1,1 1,0 1,1 1,0 1,1 1,0 1,1 3,0 1,1 10,0 1,-1 3,0 1,-1 1,0 1,-1 1,0 1,-1 1,0 1,-1 1,0 8,-8 0,-1 1,-1 0,-1 1,-1 0,-1 1,-1 0,-1 1,-1 0,-3 1,-1 0,-11 -1,-1 0,-3 -1,-1 0,-1 -1,-1 0,-1 -1,-1 0,-1 -1,-1 0,-1 -8,-8 -1,0 -1,-1 -1,0 -1,-1 -1,0 -1,-1 -1,0 -1,-1 -3,0 -1,-1 -10,0 -1,1 -3,0 -1,1 -1,0 -1,1 -1,0 -1,1 -1,0 -1,1 -1,0 -8,8 0,1 -1,1 0,1 -1,1 0,1 -1,1 0,2 -1,1 0,3 -1,1 0,3 m 4,-54 l  0,40 m 5,22 l 41,0 m -45,-22 l 13,22 m 36,-21 l -2,11 -6,-4 8,-7 m -23,21 l 0,60 m 12,-60 l 12,-22 79,0 0,67 m -131,-213 l 2,0 1,-1 1,0 1,-1 0,-1 1,-1 0,-3 -1,-1 0,-1 -1,-1 -1,0 -1,-1 -3,0 -1,1 -1,0 -1,1 0,1 -1,1 0,3 1,1 0,1 1,1 1,0 1,1 m 50,-5 l 23,0 -23,10 0,-21 23,11 m -23,-4 l 15,0 m -15,-4 l 8,0 m -8,11 l 14,0 m -14,4 l 6,0 m -60,-7 l 65,0 m -64,-3 l 9,0 m -9,5 l 9,0"></path>
<path class="white" d="M 3490,2679 l -28,0 0,-27 28,0 0,27 z"></path>
<path class="black" d="M 3477,2679 l -2,0 0,-11 2,0 0,11 z"></path>
<path class="stroke4" d="M 3477,2679 l -2,0 0,-11 2,0 0,11"></path>
<path class="stroke6" d="M 3463,2665 l 0,-3 1,-1 0,-2 6,-6 2,0 1,-1 6,0 1,1 2,0 6,6 0,2 1,1 0,3"></path>
<text class="t2"><tspan x="3415" y="2643">5</tspan>
</text>
<path class="white" d="M 4689,1916 l -27,0 0,-28 27,0 0,28 z"></path>
<path class="black" d="M 4676,1915 l -1,0 0,-11 1,0 0,11 z"></path>
<path class="stroke4" d="M 4676,1915 l -1,0 0,-11 1,0 0,11"></path>
<path class="stroke6" d="M 4662,1902 l 0,-3 1,-1 0,-1 1,-1 0,-1 4,-4 1,0 1,-1 1,0 1,-1 7,0 1,1 1,0 1,1 1,0 4,4 0,1 1,1 0,1 1,1 0,3"></path>
<text class="t2"><tspan x="4714" y="1880"><a xmlns:xlink="http://www.w3.org/1999/xlink" xlink:type="simple" xlink:show="replace" xlink:actuate="onRequest" xlink:href="javascript:locateTree('X6276');">X6276</a>
</tspan>

<tspan x="4614" y="1880">1</tspan>
</text>
<text class="t3"><tspan x="4932" y="1925">.</tspan>
</text>
<text class="t2"><tspan x="4932" y="1961"><a xmlns:xlink="http://www.w3.org/1999/xlink" xlink:type="simple" xlink:show="replace" xlink:actuate="onRequest" xlink:href="javascript:locateTree('Y6276');">Y6276</a>
</tspan>

<tspan x="4714" y="2438">T_NWA</tspan>

<tspan x="4714" y="2493">0.5</tspan>

<tspan x="4714" y="2537">WS/RT</tspan>
</text>
<text class="t2"><tspan x="4932" y="2030">VANOS solenoid</tspan>

<tspan x="4932" y="2074">valve, exhaust</tspan>
</text>
<path class="stroke4" d="M 4806,2941 l 2,0 1,-1 1,0 1,-1 0,-1 1,-1 0,-3 -1,-1 0,-1 -1,-1 -1,0 -1,-1 -4,0 -1,1 -1,0 -1,1 0,1 -1,1 0,3 1,1 0,1 1,1 1,0 1,1 1,0 m 7,-5 l -12,0 m 1,-3 l 10,0 m -10,5 l 9,0"></path>
<text class="t2"><tspan x="4728" y="2951">31</tspan>
</text>
<path class="stroke4" d="M 4795,2944 l 22,0 m -142,-265 l 0,59 m -10,0 l 21,0 0,85 -21,0 0,-85 m 6,140 l 0,5 1,1 0,3 1,1 0,2 1,1 0,1 1,1 0,1 2,2 0,1 6,6 1,0 2,2 1,0 1,1 1,0 1,1 2,0 1,1 3,0 1,1 10,0 1,-1 2,0 1,-1 2,0 1,-1 1,0 1,-1 1,0 2,-2 1,0 6,-6 0,-1 2,-2 0,-1 1,-1 0,-1 1,-1 0,-2 1,-1 0,-2 1,-1 0,-11 -1,-1 0,-2 -1,-1 0,-2 -1,-1 0,-1 -1,-1 0,-1 -2,-2 0,-1 -6,-6 -1,0 -2,-2 -1,0 -1,-1 -1,0 -1,-1 -2,0 -1,-1 -2,0 -1,-1 -10,0 -1,1 -3,0 -1,1 -2,0 -1,1 -1,0 -1,1 -1,0 -2,2 -1,0 -6,6 0,1 -2,2 0,1 -1,1 0,1 -1,1 0,2 -1,1 0,3 -1,1 0,3 m 4,-54 l  0,40 m 6,22 l 41,0 m -45,-22 l 12,22 m 37,-21 l -2,11 -7,-4 9,-7 m -23,21 l 0,60 m 12,-60 l 12,-22 79,0 0,67 m -131,-213 l 2,0 1,-1 1,0 1,-1 0,-1 1,-1 0,-3 -1,-1 0,-1 -1,-1 -1,0 -1,-1 -3,0 -1,1 -1,0 -1,1 0,1 -1,1 0,3 1,1 0,1 1,1 1,0 1,1 m 50,-5 l 23,0 -23,10 0,-21 23,11 m -23,-4 l 15,0 m -15,-4 l 8,0 m -8,11 l 14,0 m -14,4 l 6,0 m -60,-7 l 64,0 m -63,-3 l 9,0 m -9,5 l 9,0"></path>
<path class="white" d="M 4689,2679 l -27,0 0,-27 27,0 0,27 z"></path>
<path class="black" d="M 4676,2679 l -1,0 0,-11 1,0 0,11 z"></path>
<path class="stroke4" d="M 4676,2679 l -1,0 0,-11 1,0 0,11"></path>
<path class="stroke6" d="M 4662,2665 l 0,-3 1,-1 0,-1 1,-1 0,-1 4,-4 1,0 1,-1 1,0 1,-1 7,0 1,1 1,0 1,1 1,0 4,4 0,1 1,1 0,1 1,1 0,3"></path>
<text class="t2"><tspan x="4714" y="2643"><a xmlns:xlink="http://www.w3.org/1999/xlink" xlink:type="simple" xlink:show="replace" xlink:actuate="onRequest" xlink:href="javascript:locateTree('X60007');">X60007</a>
</tspan>

<tspan x="4591" y="2643">18</tspan>
</text>
<path style="fill:none;stroke:#000000;stroke-width:15" d="M 4839,1479 l -164,0"></path>
<path class="stroke4" d="M 4839,1497 l 40,-18 -40,-19 0,37 m 0,-25 l 24,0 m -24,4 l 31,0 m -31,3 l 40,0 m -40,4 l 31,0 m -31,4 l 23,0 m -23,3 l 15,0 m -15,4 l 7,0 m -7,-26 l 16,0 m -16,-3 l 9,0 m -9,-4 l 2,0"></path>
<path class="white" d="M 4672,1463 l -1,1 -2,0 -1,1 -1,0 -6,6 0,1 -1,1 0,2 -1,1 0,7 1,1 0,2 1,1 0,1 6,6 1,0 1,1 2,0 1,1 7,0 1,-1 2,0 1,-1 1,0 6,-6 0,-1 1,-1 0,-2 1,-1 0,-7 -1,-1 0,-2 -1,-1 0,-1 -6,-6 -1,0 -1,-1 -2,0 -1,-1 -7,0 z"></path>
<path class="stroke4" d="M 4675,1472 l -2,0 -2,2 -1,0 0,1 -2,2 0,5 1,1 0,1 2,2 1,0 1,1 5,0 1,-1 1,0 2,-2 0,-1 1,-1 0,-5 -2,-2 0,-1 -1,0 -2,-2 -2,0 m -6,3 l 10,0 m -11,2 l 13,0 m -13,1 l 13,0 m -14,2 l 15,0 m -14,2 l 13,0 m -12,2 l 11,0 m -9,2 l 7,0 m -7,-13 l 7,0"></path>
<path class="white" d="M 3462,2134 l 27,0 0,27 -27,0 0,-27 z"></path>
<path class="black" d="M 3475,2134 l 2,0 0,11 -2,0 0,-11 z"></path>
<path class="stroke4" d="M 3475,2134 l 2,0 0,11 -2,0 0,-11"></path>
<path class="stroke6" d="M 3489,2147 l 0,3 -1,1 0,2 -6,6 -2,0 -1,1 -6,0 -1,-1 -2,0 -6,-6 0,-2 -1,-1 0,-3"></path>
<text class="t2"><tspan x="3514" y="2193"><a xmlns:xlink="http://www.w3.org/1999/xlink" xlink:type="simple" xlink:show="replace" xlink:actuate="onRequest" xlink:href="javascript:locateTree('X6275');">X6275</a>
</tspan>

<tspan x="3414" y="2193">2</tspan>
</text>
<path class="white" d="M 4662,2134 l 27,0 0,27 -27,0 0,-27 z"></path>
<path class="black" d="M 4674,2134 l 2,0 0,11 -2,0 0,-11 z"></path>
<path class="stroke4" d="M 4674,2134 l 2,0 0,11 -2,0 0,-11"></path>
<path class="stroke6" d="M 4689,2147 l 0,3 -1,1 0,1 -1,1 0,1 -4,4 -1,0 -1,1 -1,0 -1,1 -7,0 -1,-1 -1,0 -1,-1 -1,0 -4,-4 0,-1 -1,-1 0,-1 -1,-1 0,-3"></path>
<text class="t2"><tspan x="4714" y="2193"><a xmlns:xlink="http://www.w3.org/1999/xlink" xlink:type="simple" xlink:show="replace" xlink:actuate="onRequest" xlink:href="javascript:locateTree('X6276');">X6276</a>
</tspan>

<tspan x="4614" y="2193">2</tspan>
</text>
<path class="stroke8" d="M 3367,1916 l 327,0 0,218 -327,0 0,-218 m 1199,0 l 327,0 0,218 -327,0 0,-218"></path>
<path class="stroke4" d="M 762,2665 l 30,0 m 14,0 l 30,0 m 14,0 l 30,0 m 14,0 l 30,0 m 14,0 l 30,0 m 14,0 l 30,0 m 14,0 l 30,0 m 14,0 l 30,0 m 14,0 l 30,0 m 14,0 l 30,0 m 14,0 l 30,0 m 14,0 l 30,0 m 14,0 l 30,0 m 14,0 l 30,0 m 14,0 l 30,0 m 14,0 l 30,0 m 14,0 l 30,0 m 14,0 l 30,0 m 14,0 l 30,0 m 14,0 l 30,0 m 14,0 l 30,0 m 14,0 l 30,0 m 14,0 l 30,0 m 14,0 l 30,0 m 14,0 l 30,0 m 14,0 l 30,0 m 14,0 l 30,0 m 353,0 l 30,0 m 14,0 l 30,0 m 14,0 l 30,0 m 14,0 l 30,0 m 14,0 l 30,0 m 14,0 l 30,0"></path>
<path class="stroke4" d="M 2553,2665 l 30,0 m 14,0 l 30,0 m 14,0 l 30,0 m 14,0 l 30,0 m 14,0 l 30,0 m 14,0 l 30,0 m 14,0 l 30,0 m 14,0 l 30,0 m 14,0 l 30,0 m 14,0 l 30,0 m 14,0 l 30,0 m 14,0 l 30,0 m 14,0 l 30,0 m 14,0 l 30,0 m 14,0 l 30,0 m 14,0 l 30,0 m 14,0 l 30,0 m 14,0 l 30,0 m 14,0 l 30,0 m 14,0 l 30,0 m 14,0 l 30,0 m 26,0 l 29,0 m 14,0 l 30,0 m 14,0 l 30,0 m 14,0 l 30,0 m 14,0 l 30,0 m 14,0 l 29,0 m 14,0 l 30,0 m 14,0 l 30,0 m 14,0 l 30,0 m 14,0 l 30,0 m 14,0 l 29,0 m 14,0 l 30,0"></path>
<path class="stroke4" d="M 4014,2665 l 30,0 m 14,0 l 30,0 m 14,0 l 30,0 m 14,0 l 29,0 m 14,0 l 30,0 m 14,0 l 30,0 m 14,0 l 30,0 m 14,0 l 30,0 m 14,0 l 29,0 m 14,0 l 30,0 m 14,0 l 30,0 m 14,0 l 30,0 m 14,0 l 30,0 m 14,0 l 29,0 m 14,0 l 30,0"></path>
<text class="t2"><tspan x="2096" y="1566">U_HR&lt;2</tspan>

<tspan x="3514" y="1566">U_HR&lt;2</tspan>

<tspan x="4714" y="1566">U_HR&lt;2</tspan>

<tspan x="3514" y="1620">0.5</tspan>

<tspan x="2096" y="1620">0.5</tspan>

<tspan x="4714" y="1620">0.5</tspan>

<tspan x="4714" y="1664">OR</tspan>

<tspan x="3514" y="1664">OR</tspan>

<tspan x="2096" y="1664">OR</tspan>
</text>
<path class="stroke4" d="M 3568,2056 l -36,-62 m 0,61 l 36,-61 m -34,0 l 33,0 m -33,62 l 33,0 m -54,-33 l 36,0 m -37,-14 l -64,0 0,30 64,0 0,-30 m -55,0 l 20,29 m 28,-29 l -20,29 m -9,-122 l 0,93 m 0,30 l 0,95 m 1256,-79 l 35,-61 -33,0 m 0,62 l 33,0 -35,-62 m -19,29 l 36,0 m -37,-14 l -64,0 0,30 64,0 0,-30 m -55,0 l 20,29 m 27,-29 l -20,29 m -9,-122 l 0,93 m 0,30 l 0,95"></path>
<path class="stroke8" d="M 204,2679 l 15,0 m 17,0 l 30,0 m 18,0 l 30,0 m 18,0 l 30,0 m 18,0 l 30,0 m 18,0 l 30,0 m 17,0 l 30,0 m 18,0 l 30,0 m 18,0 l 30,0 m 18,0 l 30,0 m 18,0 l 30,0 m 17,0 l 30,0 m 18,0 l 30,0 m 18,0 l 30,0 m 18,0 l 30,0 m 18,0 l 30,0 m 17,0 l 30,0 m 18,0 l 30,0 m 18,0 l 30,0 m 18,0 l 30,0 m 18,0 l 30,0 m 17,0 l 30,0 m 18,0 l 30,0 m 18,0 l 30,0 m 18,0 l 30,0 m 18,0 l 30,0 m 17,0 l 30,0 m 18,0 l 30,0 m 18,0 l 30,0 m 18,0 l 30,0 m 18,0 l 30,0 m 17,0 l 30,0 m 18,0 l 30,0"></path>
<path class="stroke8" d="M 1766,2679 l 30,0 m 18,0 l 30,0 m 18,0 l 30,0 m 17,0 l 30,0 m 18,0 l 30,0 m 18,0 l 30,0 m 18,0 l 30,0 m 18,0 l 30,0 m 17,0 l 30,0 m 18,0 l 30,0 m 18,0 l 30,0 m 18,0 l 30,0 m 18,0 l 30,0 m 17,0 l 30,0 m 18,0 l 30,0 m 18,0 l 30,0 m 18,0 l 30,0 m 18,0 l 30,0 m 17,0 l 30,0 m 18,0 l 30,0 m 18,0 l 30,0 m 18,0 l 30,0 m 18,0 l 30,0 m 17,0 l 30,0 m 18,0 l 30,0 m 18,0 l 30,0 m 18,0 l 30,0 m 18,0 l 30,0 m 17,0 l 30,0 m 18,0 l 30,0 m 18,0 l 30,0 m 18,0 l 30,0 m 18,0 l 30,0"></path>
<path class="stroke8" d="M 3343,2679 l 30,0 m 18,0 l 30,0 m 18,0 l 30,0 m 18,0 l 30,0 m 18,0 l 30,0 m 17,0 l 30,0 m 18,0 l 30,0 m 18,0 l 30,0 m 18,0 l 30,0 m 18,0 l 30,0 m 17,0 l 30,0 m 18,0 l 30,0 m 18,0 l 30,0 m 18,0 l 30,0 m 18,0 l 30,0 m 17,0 l 30,0 m 18,0 l 30,0 m 18,0 l 30,0 m 18,0 l 30,0 m 18,0 l 30,0 m 17,0 l 30,0 m 18,0 l 30,0 m 18,0 l 30,0 m 18,0 l 30,0 m 18,0 l 30,0 m 17,0 l 30,0 m 18,0 l 30,0 m 18,0 l 30,0 m 18,0 l 30,0 m 18,0 l 30,0 m 17,0 l 30,0 m 18,0 l 30,0 m 18,0 l 20,0 0,14"></path>
<path class="stroke8" d="M 4893,2711 l 0,29 m 0,17 l 0,29 m 0,18 l 0,29 m 0,17 l 0,30 m 0,17 l 0,29 m 0,18 l 0,29 m 0,17 l 0,16 -15,0 m -17,0 l -30,0 m -18,0 l -30,0 m -18,0 l -30,0 m -18,0 l -30,0 m -18,0 l -30,0 m -17,0 l -30,0 m -18,0 l -30,0 m -18,0 l -30,0 m -18,0 l -30,0 m -18,0 l -30,0 m -17,0 l -30,0 m -18,0 l -30,0 m -18,0 l -30,0 m -18,0 l -30,0 m -18,0 l -30,0 m -17,0 l -30,0 m -18,0 l -30,0 m -18,0 l -30,0 m -18,0 l -30,0 m -18,0 l -30,0 m -17,0 l -30,0 m -18,0 l -30,0 m -18,0 l -30,0 m -18,0 l -30,0 m -18,0 l -30,0 m -17,0 l -30,0"></path>
<path class="stroke8" d="M 3618,3006 l -30,0 m -18,0 l -30,0 m -18,0 l -30,0 m -18,0 l -30,0 m -17,0 l -30,0 m -18,0 l -30,0 m -18,0 l -30,0 m -18,0 l -30,0 m -18,0 l -30,0 m -17,0 l -30,0 m -18,0 l -30,0 m -18,0 l -30,0 m -18,0 l -30,0 m -18,0 l -30,0 m -17,0 l -30,0 m -18,0 l -30,0 m -18,0 l -30,0 m -18,0 l -30,0 m -18,0 l -30,0 m -17,0 l -30,0 m -18,0 l -30,0 m -18,0 l -30,0 m -18,0 l -30,0 m -18,0 l -30,0 m -17,0 l -30,0 m -18,0 l -30,0 m -18,0 l -30,0 m -18,0 l -30,0 m -18,0 l -30,0 m -17,0 l -30,0 m -18,0 l -30,0 m -18,0 l -30,0 m -18,0 l -30,0"></path>
<path class="stroke8" d="M 2040,3006 l -30,0 m -17,0 l -30,0 m -18,0 l -30,0 m -18,0 l -30,0 m -18,0 l -30,0 m -18,0 l -30,0 m -17,0 l -30,0 m -18,0 l -30,0 m -18,0 l -30,0 m -18,0 l -30,0 m -18,0 l -30,0 m -17,0 l -30,0 m -18,0 l -30,0 m -18,0 l -30,0 m -18,0 l -30,0 m -18,0 l -30,0 m -17,0 l -30,0 m -18,0 l -30,0 m -18,0 l -30,0 m -18,0 l -30,0 m -18,0 l -30,0 m -17,0 l -30,0 m -18,0 l -30,0 m -18,0 l -30,0 m -18,0 l -30,0 m -18,0 l -30,0 m -17,0 l -30,0 m -18,0 l -30,0 m -18,0 l -30,0 m -18,0 l -30,0 m -18,0 l -30,0 m -17,0 l -30,0 m -18,0 l -30,0"></path>
<path class="stroke8" d="M 463,3006 l -30,0 m -18,0 l -30,0 m -18,0 l -30,0 m -17,0 l -30,0 m -18,0 l -30,0 m -18,0 l -20,0 0,-14 m 0,-18 l 0,-29 m 0,-17 l 0,-29 m 0,-18 l 0,-29 m 0,-17 l 0,-30 m 0,-17 l 0,-29 m 0,-18 l 0,-29 m 0,-17 l 0,-16"></path>
<text class="t3"><tspan x="4932" y="2688">.</tspan>
</text>
<text class="t2"><tspan x="4932" y="2724"><a xmlns:xlink="http://www.w3.org/1999/xlink" xlink:type="simple" xlink:show="replace" xlink:actuate="onRequest" xlink:href="javascript:locateTree('A6000');">A6000</a>
</tspan>
</text>
<text class="t2"><tspan x="4932" y="2793">DME control unit</tspan>
</text>
</g>
</svg>
</g></svg>