<svg data-v-f35fd5a0="" xmlns="http://www.w3.org/2000/svg" xmlns:xlink="http://www.w3.org/1999/xlink" xmlns:ev="http://www.w3.org/2001/xml-events" style="overflow: hidden; width: 100%; min-height: 100vh;"><g id="viewport-20201011152530356" class="svg-pan-zoom_viewport" transform="matrix(0.8407288771845948,0,0,0.8407288771845948,135.54487771897942,50.3451557217215)" style="transform: matrix(0.840729, 0, 0, 0.840729, 135.545, 50.3452);"><!--?xml version="1.0" encoding="UTF-8"?--> 
<!--?xml-stylesheet href="../../styles/svg.css" type="text/css"?--> 
<svg xmlns="http://www.w3.org/2000/svg" id="svgid" xml:space="preserve" viewBox="37 607 10671 2141" preserveAspectRatio="xMinYMin meet" zoomAndPan="magnify" version="1.0" width="100%" height="100%" contentscripttype="text/ecmascript" contentstyletype="text/css" xmlns:xlink="http://www.w3.org/1999/xlink">
<title>Schaltplan Viewer - Copyright BMW AG 2006</title>
<style xml:space="preserve" type="text/css">path {fill-rule:evenodd; stroke-linecap:round; stroke-linejoin:round}
rect {stroke-linejoin:miter}
text.t1 {font-family:'Courier SWA',monospace;font-size:31;fill:#000000}
path.white {fill:#FFFFFF;stroke:none}
path.black {fill:#000000;stroke:none}
path.stroke3 {fill:none;stroke:#000000;stroke-width:3}
path.stroke4 {fill:none;stroke:#000000;stroke-width:4}
path.stroke5 {fill:none;stroke:#000000;stroke-width:5}
path.stroke6 {fill:none;stroke:#000000;stroke-width:6}
path.stroke7 {fill:none;stroke:#000000;stroke-width:7 }
path.stroke8 {fill:none;stroke:#000000;stroke-width:8 }
path.stroke9 {fill:none;stroke:#000000;stroke-width:9 }
path.stroke10 {fill:none;stroke:#000000;stroke-width:10 }
path.stroke11 {fill:none;stroke:#000000;stroke-width:11}
path.stroke14 {fill:none;stroke:#000000;stroke-width:14}</style>
<desc>customer: BMW
date: 10.08.2006
time: 13:13:19
language: British engl
project: E65
version: 1.0</desc>
<g id="gid">
<text class="t1"></text>
<path style="fill:#DFDFDF;stroke:none" d="M 204,825 l 327,0 0,218 -327,0 0,-218 z"></path>
<path class="stroke8" d="M 204,825 l 14,0 m 18,0 l 29,0 m 17,0 l 29,0 m 18,0 l 29,0 m 17,0 l 30,0 m 17,0 l 29,0 m 18,0 l 29,0 m 17,0 l 16,0 0,13 m 0,16 l 0,28 m 0,16 l 0,27 m 0,16 l 0,28 m 0,16 l 0,27 m 0,16 l 0,15 -14,0 m -18,0 l -29,0 m -17,0 l -29,0 m -18,0 l -29,0 m -17,0 l -30,0 m -17,0 l -29,0 m -18,0 l -29,0 m -17,0 l -16,0 0,-13 m 0,-16 l 0,-28 m 0,-16 l 0,-27 m 0,-16 l 0,-28 m 0,-16 l 0,-27 m 0,-16 l 0,-15"></path>
<path style="fill:#DFDFDF;stroke:none" d="M 204,2461 l 1963,0 0,218 -1963,0 0,-218 z"></path>
<path class="stroke8" d="M 204,2461 l 15,0 m 17,0 l 30,0 m 18,0 l 30,0 m 18,0 l 30,0 m 18,0 l 30,0 m 18,0 l 30,0 m 17,0 l 30,0 m 18,0 l 30,0 m 18,0 l 30,0 m 18,0 l 30,0 m 18,0 l 30,0 m 17,0 l 30,0 m 18,0 l 30,0 m 18,0 l 30,0 m 18,0 l 30,0 m 18,0 l 30,0 m 17,0 l 30,0 m 18,0 l 30,0 m 18,0 l 30,0 m 18,0 l 30,0 m 18,0 l 30,0 m 17,0 l 30,0 m 18,0 l 30,0 m 18,0 l 30,0 m 18,0 l 30,0 m 18,0 l 30,0 m 17,0 l 30,0 m 18,0 l 30,0 m 18,0 l 30,0 m 18,0 l 30,0 m 18,0 l 30,0 m 17,0 l 30,0 m 18,0 l 30,0"></path>
<path class="stroke8" d="M 1766,2461 l 30,0 m 18,0 l 30,0 m 18,0 l 30,0 m 17,0 l 30,0 m 18,0 l 30,0 m 18,0 l 30,0 m 18,0 l 30,0 m 18,0 l 30,0 m 17,0 l 19,0 0,13 m 0,16 l 0,28 m 0,16 l 0,27 m 0,16 l 0,28 m 0,16 l 0,27 m 0,16 l 0,15 -15,0 m -17,0 l -30,0 m -18,0 l -30,0 m -18,0 l -30,0 m -18,0 l -30,0 m -18,0 l -30,0 m -17,0 l -30,0 m -18,0 l -30,0 m -18,0 l -30,0 m -18,0 l -30,0 m -18,0 l -30,0 m -17,0 l -30,0 m -18,0 l -30,0 m -18,0 l -30,0 m -18,0 l -30,0 m -18,0 l -30,0 m -17,0 l -30,0 m -18,0 l -30,0 m -18,0 l -30,0 m -18,0 l -30,0"></path>
<path class="stroke8" d="M 1226,2679 l -30,0 m -17,0 l -30,0 m -18,0 l -30,0 m -18,0 l -30,0 m -18,0 l -30,0 m -18,0 l -30,0 m -17,0 l -30,0 m -18,0 l -30,0 m -18,0 l -30,0 m -18,0 l -30,0 m -18,0 l -30,0 m -17,0 l -30,0 m -18,0 l -30,0 m -18,0 l -30,0 m -18,0 l -30,0 m -18,0 l -30,0 m -17,0 l -30,0 m -18,0 l -30,0 m -18,0 l -30,0 m -18,0 l -30,0 m -18,0 l -30,0 m -17,0 l -19,0 0,-13 m 0,-16 l 0,-28 m 0,-16 l 0,-27 m 0,-16 l 0,-28 m 0,-16 l 0,-27 m 0,-16 l 0,-15"></path>
<path style="fill:#DFDFDF;stroke:none" d="M 749,825 l 328,0 0,218 -328,0 0,-218 z"></path>
<path class="stroke8" d="M 749,825 l 14,0 m 18,0 l 29,0 m 17,0 l 30,0 m 17,0 l 29,0 m 18,0 l 29,0 m 17,0 l 30,0 m 17,0 l 29,0 m 18,0 l 16,0 0,13 m 0,16 l 0,28 m 0,16 l 0,27 m 0,16 l 0,28 m 0,16 l 0,27 m 0,16 l 0,15 -14,0 m -18,0 l -29,0 m -17,0 l -30,0 m -17,0 l -29,0 m -18,0 l -29,0 m -17,0 l -30,0 m -17,0 l -29,0 m -18,0 l -16,0 0,-13 m 0,-16 l 0,-28 m 0,-16 l 0,-27 m 0,-16 l 0,-28 m 0,-16 l 0,-27 m 0,-16 l 0,-15"></path>
<path style="fill:#DFDFDF;stroke:none" d="M 2494,825 l 327,0 0,218 -327,0 0,-218 z"></path>
<path class="stroke8" d="M 2494,825 l 14,0 m 18,0 l 29,0 m 17,0 l 29,0 m 18,0 l 29,0 m 17,0 l 30,0 m 17,0 l 29,0 m 18,0 l 29,0 m 17,0 l 16,0 0,13 m 0,16 l 0,28 m 0,16 l 0,27 m 0,16 l 0,28 m 0,16 l 0,27 m 0,16 l 0,15 -14,0 m -18,0 l -29,0 m -17,0 l -29,0 m -18,0 l -29,0 m -17,0 l -30,0 m -17,0 l -29,0 m -18,0 l -29,0 m -17,0 l -16,0 0,-13 m 0,-16 l 0,-28 m 0,-16 l 0,-27 m 0,-16 l 0,-28 m 0,-16 l 0,-27 m 0,-16 l 0,-15"></path>
<path style="fill:#DFDFDF;stroke:none" d="M 3040,825 l 654,0 0,218 -654,0 0,-218 z"></path>
<path class="stroke8" d="M 3040,825 l 14,0 m 18,0 l 29,0 m 17,0 l 29,0 m 18,0 l 29,0 m 17,0 l 30,0 m 17,0 l 29,0 m 18,0 l 29,0 m 17,0 l 29,0 m 18,0 l 29,0 m 17,0 l 30,0 m 17,0 l 29,0 m 18,0 l 29,0 m 17,0 l 29,0 m 18,0 l 29,0 m 17,0 l 17,0 0,13 m 0,16 l 0,28 m 0,16 l 0,27 m 0,16 l 0,28 m 0,16 l 0,27 m 0,16 l 0,15 -14,0 m -18,0 l -29,0 m -17,0 l -29,0 m -18,0 l -29,0 m -17,0 l -30,0 m -17,0 l -29,0 m -18,0 l -29,0 m -17,0 l -29,0 m -18,0 l -29,0 m -17,0 l -30,0 m -17,0 l -29,0 m -18,0 l -29,0 m -17,0 l -29,0 m -18,0 l -29,0"></path>
<path class="stroke8" d="M 3057,1043 l -17,0 0,-13 m 0,-16 l 0,-28 m 0,-16 l 0,-27 m 0,-16 l 0,-28 m 0,-16 l 0,-27 m 0,-16 l 0,-15"></path>
<path style="fill:#DFDFDF;stroke:none" d="M 4021,825 l 982,0 0,218 -982,0 0,-218 z"></path>
<path class="stroke8" d="M 4021,825 l 15,0 m 18,0 l 31,0 m 18,0 l 31,0 m 18,0 l 31,0 m 18,0 l 31,0 m 18,0 l 31,0 m 18,0 l 31,0 m 18,0 l 31,0 m 18,0 l 31,0 m 18,0 l 31,0 m 18,0 l 31,0 m 18,0 l 31,0 m 18,0 l 31,0 m 18,0 l 31,0 m 18,0 l 31,0 m 18,0 l 31,0 m 18,0 l 31,0 m 18,0 l 31,0 m 18,0 l 31,0 m 18,0 l 31,0 m 18,0 l 18,0 0,13 m 0,16 l 0,28 m 0,16 l 0,27 m 0,16 l 0,28 m 0,16 l 0,27 m 0,16 l 0,15 -15,0 m -18,0 l -31,0 m -18,0 l -31,0 m -18,0 l -31,0 m -18,0 l -31,0 m -18,0 l -31,0 m -18,0 l -31,0 m -18,0 l -31,0"></path>
<path class="stroke8" d="M 4627,1043 l -31,0 m -18,0 l -31,0 m -18,0 l -31,0 m -18,0 l -31,0 m -18,0 l -31,0 m -18,0 l -31,0 m -18,0 l -31,0 m -18,0 l -31,0 m -18,0 l -31,0 m -18,0 l -31,0 m -18,0 l -31,0 m -18,0 l -31,0 m -18,0 l -18,0 0,-13 m 0,-16 l 0,-28 m 0,-16 l 0,-27 m 0,-16 l 0,-28 m 0,-16 l 0,-27 m 0,-16 l 0,-15"></path>
<path style="fill:#DFDFDF;stroke:none" d="M 3912,2461 l 1309,0 0,218 -1309,0 0,-218 z"></path>
<path class="stroke8" d="M 3912,2461 l 15,0 m 18,0 l 30,0 m 18,0 l 31,0 m 18,0 l 30,0 m 18,0 l 30,0 m 18,0 l 31,0 m 18,0 l 30,0 m 18,0 l 31,0 m 18,0 l 30,0 m 18,0 l 30,0 m 18,0 l 31,0 m 18,0 l 30,0 m 18,0 l 31,0 m 18,0 l 30,0 m 18,0 l 30,0 m 18,0 l 31,0 m 18,0 l 30,0 m 18,0 l 31,0 m 18,0 l 30,0 m 18,0 l 30,0 m 18,0 l 31,0 m 18,0 l 30,0 m 18,0 l 31,0 m 18,0 l 30,0 m 18,0 l 30,0 m 18,0 l 31,0 m 18,0 l 30,0 m 18,0 l 18,0 0,13 m 0,16 l 0,28 m 0,16 l 0,27 m 0,16 l 0,28 m 0,16 l 0,27 m 0,16 l 0,15 -15,0"></path>
<path class="stroke8" d="M 5188,2679 l -30,0 m -18,0 l -31,0 m -18,0 l -30,0 m -18,0 l -30,0 m -18,0 l -31,0 m -18,0 l -30,0 m -18,0 l -31,0 m -18,0 l -30,0 m -18,0 l -30,0 m -18,0 l -31,0 m -18,0 l -30,0 m -18,0 l -31,0 m -18,0 l -30,0 m -18,0 l -30,0 m -18,0 l -31,0 m -18,0 l -30,0 m -18,0 l -31,0 m -18,0 l -30,0 m -18,0 l -30,0 m -18,0 l -31,0 m -18,0 l -30,0 m -18,0 l -31,0 m -18,0 l -30,0 m -18,0 l -30,0 m -18,0 l -31,0 m -18,0 l -30,0 m -18,0 l -18,0 0,-13 m 0,-16 l 0,-28 m 0,-16 l 0,-27 m 0,-16 l 0,-28 m 0,-16 l 0,-27 m 0,-16 l 0,-15"></path>
<path style="fill:#DFDFDF;stroke:none" d="M 2385,2461 l 1309,0 0,218 -1309,0 0,-218 z"></path>
<path class="stroke8" d="M 2385,2461 l 15,0 m 18,0 l 30,0 m 18,0 l 31,0 m 18,0 l 30,0 m 18,0 l 30,0 m 18,0 l 31,0 m 18,0 l 30,0 m 18,0 l 31,0 m 18,0 l 30,0 m 18,0 l 30,0 m 18,0 l 31,0 m 18,0 l 30,0 m 18,0 l 31,0 m 18,0 l 30,0 m 18,0 l 30,0 m 18,0 l 31,0 m 18,0 l 30,0 m 18,0 l 31,0 m 18,0 l 30,0 m 18,0 l 30,0 m 18,0 l 31,0 m 18,0 l 30,0 m 18,0 l 31,0 m 18,0 l 30,0 m 18,0 l 30,0 m 18,0 l 31,0 m 18,0 l 30,0 m 18,0 l 18,0 0,13 m 0,16 l 0,28 m 0,16 l 0,27 m 0,16 l 0,28 m 0,16 l 0,27 m 0,16 l 0,15 -15,0"></path>
<path class="stroke8" d="M 3661,2679 l -30,0 m -18,0 l -31,0 m -18,0 l -30,0 m -18,0 l -30,0 m -18,0 l -31,0 m -18,0 l -30,0 m -18,0 l -31,0 m -18,0 l -30,0 m -18,0 l -30,0 m -18,0 l -31,0 m -18,0 l -30,0 m -18,0 l -31,0 m -18,0 l -30,0 m -18,0 l -30,0 m -18,0 l -31,0 m -18,0 l -30,0 m -18,0 l -31,0 m -18,0 l -30,0 m -18,0 l -30,0 m -18,0 l -31,0 m -18,0 l -30,0 m -18,0 l -31,0 m -18,0 l -30,0 m -18,0 l -30,0 m -18,0 l -31,0 m -18,0 l -30,0 m -18,0 l -18,0 0,-13 m 0,-16 l 0,-28 m 0,-16 l 0,-27 m 0,-16 l 0,-28 m 0,-16 l 0,-27 m 0,-16 l 0,-15"></path>
<path style="fill:#DFDFDF;stroke:none" d="M 1295,825 l 981,0 0,218 -981,0 0,-218 z"></path>
<path class="stroke8" d="M 1295,825 l 15,0 m 18,0 l 31,0 m 18,0 l 31,0 m 18,0 l 31,0 m 18,0 l 30,0 m 19,0 l 30,0 m 19,0 l 30,0 m 19,0 l 30,0 m 18,0 l 31,0 m 18,0 l 31,0 m 18,0 l 31,0 m 18,0 l 31,0 m 18,0 l 31,0 m 18,0 l 31,0 m 18,0 l 30,0 m 19,0 l 30,0 m 19,0 l 30,0 m 19,0 l 30,0 m 18,0 l 31,0 m 18,0 l 31,0 m 18,0 l 19,0 0,13 m 0,16 l 0,28 m 0,16 l 0,27 m 0,16 l 0,28 m 0,16 l 0,27 m 0,16 l 0,15 -15,0 m -18,0 l -31,0 m -18,0 l -31,0 m -18,0 l -31,0 m -18,0 l -30,0 m -19,0 l -30,0 m -19,0 l -30,0 m -19,0 l -30,0"></path>
<path class="stroke8" d="M 1901,1043 l -31,0 m -18,0 l -31,0 m -18,0 l -31,0 m -18,0 l -31,0 m -18,0 l -31,0 m -18,0 l -31,0 m -18,0 l -30,0 m -19,0 l -30,0 m -19,0 l -30,0 m -19,0 l -30,0 m -18,0 l -31,0 m -18,0 l -31,0 m -18,0 l -19,0 0,-13 m 0,-16 l 0,-28 m 0,-16 l 0,-27 m 0,-16 l 0,-28 m 0,-16 l 0,-27 m 0,-16 l 0,-15"></path>
<path style="fill:#DFDFDF;stroke:none" d="M 5439,2461 l 654,0 0,218 -654,0 0,-218 z"></path>
<path class="stroke8" d="M 5439,2461 l 14,0 m 18,0 l 29,0 m 17,0 l 29,0 m 18,0 l 29,0 m 17,0 l 30,0 m 17,0 l 29,0 m 18,0 l 29,0 m 17,0 l 29,0 m 18,0 l 29,0 m 17,0 l 30,0 m 17,0 l 29,0 m 18,0 l 29,0 m 17,0 l 29,0 m 18,0 l 29,0 m 17,0 l 17,0 0,13 m 0,16 l 0,28 m 0,16 l 0,27 m 0,16 l 0,28 m 0,16 l 0,27 m 0,16 l 0,15 -14,0 m -18,0 l -29,0 m -17,0 l -29,0 m -18,0 l -29,0 m -17,0 l -30,0 m -17,0 l -29,0 m -18,0 l -29,0 m -17,0 l -29,0 m -18,0 l -29,0 m -17,0 l -30,0 m -17,0 l -29,0 m -18,0 l -29,0 m -17,0 l -29,0 m -18,0 l -29,0"></path>
<path class="stroke8" d="M 5456,2679 l -17,0 0,-13 m 0,-16 l 0,-28 m 0,-16 l 0,-27 m 0,-16 l 0,-28 m 0,-16 l 0,-27 m 0,-16 l 0,-15"></path>
<path style="fill:#DFDFDF;stroke:none" d="M 6311,2461 l 655,0 0,218 -655,0 0,-218 z"></path>
<path class="stroke8" d="M 6311,2461 l 14,0 m 18,0 l 29,0 m 17,0 l 30,0 m 17,0 l 29,0 m 18,0 l 29,0 m 17,0 l 30,0 m 17,0 l 29,0 m 18,0 l 29,0 m 18,0 l 29,0 m 17,0 l 29,0 m 18,0 l 29,0 m 18,0 l 29,0 m 17,0 l 30,0 m 17,0 l 29,0 m 18,0 l 16,0 0,13 m 0,16 l 0,28 m 0,16 l 0,27 m 0,16 l 0,28 m 0,16 l 0,27 m 0,16 l 0,15 -14,0 m -18,0 l -29,0 m -17,0 l -30,0 m -17,0 l -29,0 m -18,0 l -29,0 m -17,0 l -30,0 m -17,0 l -29,0 m -18,0 l -29,0 m -18,0 l -29,0 m -17,0 l -29,0 m -18,0 l -29,0 m -18,0 l -29,0 m -17,0 l -30,0 m -17,0 l -29,0"></path>
<path class="stroke8" d="M 6327,2679 l -16,0 0,-13 m 0,-16 l 0,-28 m 0,-16 l 0,-27 m 0,-16 l 0,-28 m 0,-16 l 0,-27 m 0,-16 l 0,-15"></path>
<path style="fill:#DFDFDF;stroke:none" d="M 7184,2461 l 654,0 0,218 -654,0 0,-218 z"></path>
<path class="stroke8" d="M 7184,2461 l 14,0 m 18,0 l 29,0 m 17,0 l 29,0 m 18,0 l 29,0 m 17,0 l 30,0 m 17,0 l 29,0 m 18,0 l 29,0 m 17,0 l 29,0 m 18,0 l 29,0 m 17,0 l 30,0 m 17,0 l 29,0 m 18,0 l 29,0 m 17,0 l 29,0 m 18,0 l 29,0 m 17,0 l 17,0 0,13 m 0,16 l 0,28 m 0,16 l 0,27 m 0,16 l 0,28 m 0,16 l 0,27 m 0,16 l 0,15 -14,0 m -18,0 l -29,0 m -17,0 l -29,0 m -18,0 l -29,0 m -17,0 l -30,0 m -17,0 l -29,0 m -18,0 l -29,0 m -17,0 l -29,0 m -18,0 l -29,0 m -17,0 l -30,0 m -17,0 l -29,0 m -18,0 l -29,0 m -17,0 l -29,0 m -18,0 l -29,0"></path>
<path class="stroke8" d="M 7201,2679 l -17,0 0,-13 m 0,-16 l 0,-28 m 0,-16 l 0,-27 m 0,-16 l 0,-28 m 0,-16 l 0,-27 m 0,-16 l 0,-15"></path>
<path style="fill:#DFDFDF;stroke:none" d="M 8056,2461 l 654,0 0,218 -654,0 0,-218 z"></path>
<path class="stroke8" d="M 8056,2461 l 14,0 m 18,0 l 29,0 m 17,0 l 29,0 m 18,0 l 29,0 m 17,0 l 30,0 m 17,0 l 29,0 m 18,0 l 29,0 m 17,0 l 29,0 m 18,0 l 29,0 m 17,0 l 30,0 m 17,0 l 29,0 m 18,0 l 29,0 m 17,0 l 29,0 m 18,0 l 29,0 m 17,0 l 17,0 0,13 m 0,16 l 0,28 m 0,16 l 0,27 m 0,16 l 0,28 m 0,16 l 0,27 m 0,16 l 0,15 -14,0 m -18,0 l -29,0 m -17,0 l -29,0 m -18,0 l -29,0 m -17,0 l -30,0 m -17,0 l -29,0 m -18,0 l -29,0 m -17,0 l -29,0 m -18,0 l -29,0 m -17,0 l -30,0 m -17,0 l -29,0 m -18,0 l -29,0 m -17,0 l -29,0 m -18,0 l -29,0"></path>
<path class="stroke8" d="M 8073,2679 l -17,0 0,-13 m 0,-16 l 0,-28 m 0,-16 l 0,-27 m 0,-16 l 0,-28 m 0,-16 l 0,-27 m 0,-16 l 0,-15"></path>
<path style="fill:#DFDFDF;stroke:none" d="M 8929,2461 l 654,0 0,218 -654,0 0,-218 z"></path>
<path class="stroke8" d="M 8929,2461 l 14,0 m 18,0 l 29,0 m 17,0 l 29,0 m 18,0 l 29,0 m 17,0 l 30,0 m 17,0 l 29,0 m 18,0 l 29,0 m 17,0 l 29,0 m 18,0 l 29,0 m 17,0 l 30,0 m 17,0 l 29,0 m 18,0 l 29,0 m 17,0 l 29,0 m 18,0 l 29,0 m 17,0 l 17,0 0,13 m 0,16 l 0,28 m 0,16 l 0,27 m 0,16 l 0,28 m 0,16 l 0,27 m 0,16 l 0,15 -14,0 m -18,0 l -29,0 m -17,0 l -29,0 m -18,0 l -29,0 m -17,0 l -30,0 m -17,0 l -29,0 m -18,0 l -29,0 m -17,0 l -29,0 m -18,0 l -29,0 m -17,0 l -30,0 m -17,0 l -29,0 m -18,0 l -29,0 m -17,0 l -29,0 m -18,0 l -29,0"></path>
<path class="stroke8" d="M 8946,2679 l -17,0 0,-13 m 0,-16 l 0,-28 m 0,-16 l 0,-27 m 0,-16 l 0,-28 m 0,-16 l 0,-27 m 0,-16 l 0,-15"></path>
<path style="fill:#DFDFDF;stroke:none" d="M 9801,2461 l 654,0 0,218 -654,0 0,-218 z"></path>
<path class="stroke8" d="M 9801,2461 l 14,0 m 18,0 l 29,0 m 17,0 l 29,0 m 18,0 l 29,0 m 17,0 l 30,0 m 17,0 l 29,0 m 18,0 l 29,0 m 17,0 l 29,0 m 18,0 l 29,0 m 17,0 l 30,0 m 17,0 l 29,0 m 18,0 l 29,0 m 17,0 l 29,0 m 18,0 l 29,0 m 17,0 l 17,0 0,13 m 0,16 l 0,28 m 0,16 l 0,27 m 0,16 l 0,28 m 0,16 l 0,27 m 0,16 l 0,15 -14,0 m -18,0 l -29,0 m -17,0 l -29,0 m -18,0 l -29,0 m -17,0 l -30,0 m -17,0 l -29,0 m -18,0 l -29,0 m -17,0 l -29,0 m -18,0 l -29,0 m -17,0 l -30,0 m -17,0 l -29,0 m -18,0 l -29,0 m -17,0 l -29,0 m -18,0 l -29,0"></path>
<path class="stroke8" d="M 9818,2679 l -17,0 0,-13 m 0,-16 l 0,-28 m 0,-16 l 0,-27 m 0,-16 l 0,-28 m 0,-16 l 0,-27 m 0,-16 l 0,-15"></path>
<path style="fill:#DFDFDF;stroke:none" d="M 204,1698 l 10251,0 0,218 -10251,0 0,-218 z"></path>
<path class="stroke8" d="M 204,1698 l 10251,0 0,218 -10251,0 0,-218"></path>
<path style="fill:none;stroke:#000000;stroke-width:15" d="M 4457,1070 l 0,600 m 327,-600 l 0,600 m -654,-600 l 0,600 m -327,-409 l 0,409 m -654,-627 l 0,627 m 327,-627 l 0,627"></path>
<path class="stroke4" d="M 5330,1776 l -4,0 -1,1 -3,0 -1,1 -2,0 -1,1 -1,0 -1,1 -1,0 -2,2 -1,0 -6,6 0,1 -2,2 0,1 -1,1 0,1 -1,1 0,2 -1,1 0,3 -1,1 0,10 1,1 0,2 1,1 0,2 1,1 0,1 1,1 0,1 2,2 0,1 6,6 1,0 2,2 1,0 1,1 1,0 1,1 2,0 1,1 2,0 1,1 11,0 1,-1 2,0 1,-1 2,0 1,-1 1,0 1,-1 1,0 2,-2 1,0 6,-6 0,-1 2,-2 0,-1 1,-1 0,-1 1,-1 0,-2 1,-1 0,-2 1,-1 0,-10 -1,-1 0,-3 -1,-1 0,-2 -1,-1 0,-1 -1,-1 0,-1 -2,-2 0,-1 -6,-6 -1,0 -2,-2 -1,0 -1,-1 -1,0 -1,-1 -2,0 -1,-1 -3,0 -1,-1 -4,0 m -41,69 l 79,0 0,-76 -79,0 0,76 m 40,-33 l 0,25 m -21,-25 l 41,0 m -45,-21 l  12,21 m 38,-21 l -12,21 m -27,-2 l -8,-7 6,-4 3,11"></path>
<text class="t3"><tspan x="10494" y="1707">.</tspan>
</text>
<text class="t2"><tspan x="10494" y="1743"><a xmlns:xlink="http://www.w3.org/1999/xlink" xlink:type="simple" xlink:show="replace" xlink:actuate="onRequest" xlink:href="javascript:locateTree('A6000');">A6000</a>
</tspan>
</text>
<text class="t2"><tspan x="10494" y="1812">DME control unit</tspan>
</text>
<path style="fill:none;stroke:#000000;stroke-width:15" d="M 313,1943 l 0,491"></path>
<text class="t2"><tspan x="351" y="2081">U_DKG</tspan>

<tspan x="351" y="2136">0.5</tspan>

<tspan x="351" y="2180">BL</tspan>
</text>
<path style="fill:none;stroke:#000000;stroke-width:15" d="M 640,1943 l 0,491"></path>
<text class="t2"><tspan x="679" y="2081">T_MDK1</tspan>

<tspan x="679" y="2136">0.5</tspan>

<tspan x="679" y="2180">WS/GN</tspan>
</text>
<path style="fill:none;stroke:#000000;stroke-width:15" d="M 967,1943 l 0,491"></path>
<text class="t2"><tspan x="1006" y="2081">T_MDK2</tspan>

<tspan x="1006" y="2136">0.5</tspan>

<tspan x="1006" y="2180">WS/GE</tspan>
</text>
<path style="fill:none;stroke:#000000;stroke-width:15" d="M 1295,1943 l 0,491"></path>
<text class="t2"><tspan x="1333" y="2081">A_DKG2</tspan>

<tspan x="1333" y="2136">0.5</tspan>

<tspan x="1333" y="2180">GE</tspan>
</text>
<path style="fill:none;stroke:#000000;stroke-width:15" d="M 1622,1943 l 0,491"></path>
<text class="t2"><tspan x="1660" y="2081">A_DKG1</tspan>

<tspan x="1660" y="2136">0.5</tspan>

<tspan x="1660" y="2180">GE/BL</tspan>
</text>
<path style="fill:none;stroke:#000000;stroke-width:15" d="M 1949,1943 l 0,491"></path>
<text class="t2"><tspan x="1987" y="2081">M_DKG</tspan>

<tspan x="1987" y="2136">0.5</tspan>

<tspan x="1987" y="2180">SW/VI</tspan>
</text>
<path class="white" d="M 299,1916 l 28,0 0,27 -28,0 0,-27 z"></path>
<path class="black" d="M 312,1916 l 2,0 0,11 -2,0 0,-11 z"></path>
<path class="stroke4" d="M 312,1916 l 2,0 0,11 -2,0 0,-11"></path>
<path class="stroke6" d="M 326,1929 l 0,3 -1,1 0,2 -6,6 -2,0 -1,1 -6,0 -1,-1 -2,0 -6,-6 0,-2 -1,-1 0,-3"></path>
<text class="t2"><tspan x="229" y="1975">14</tspan>
</text>
<path class="white" d="M 327,2461 l -27,0 0,-27 27,0 0,27 z"></path>
<path class="black" d="M 314,2461 l -2,0 0,-11 2,0 0,11 z"></path>
<path class="stroke4" d="M 314,2461 l -2,0 0,-11 2,0 0,11"></path>
<path class="stroke6" d="M 300,2447 l 0,-3 1,-1 0,-2 6,-6 2,0 1,-1 6,0 1,1 2,0 6,6 0,2 1,1 0,3"></path>
<text class="t2"><tspan x="252" y="2425">2</tspan>
</text>
<path class="stroke4" d="M 326,1929 l 30,0 m 15,0 l 30,0 m 15,0 l 30,0 m 15,0 l 30,0 m 15,0 l 30,0 m 15,0 l 30,0 m 15,0 l 30,0"></path>
<path class="white" d="M 627,1916 l 27,0 0,27 -27,0 0,-27 z"></path>
<path class="black" d="M 639,1916 l 2,0 0,11 -2,0 0,-11 z"></path>
<path class="stroke4" d="M 639,1916 l 2,0 0,11 -2,0 0,-11"></path>
<path class="stroke6" d="M 653,1929 l 0,3 -1,1 0,2 -6,6 -2,0 -1,1 -6,0 -1,-1 -2,0 -6,-6 0,-2 -1,-1 0,-3"></path>
<text class="t2"><tspan x="556" y="1975">15</tspan>
</text>
<path class="stroke4" d="M 326,2447 l 30,0 m 15,0 l 30,0 m 15,0 l 30,0 m 15,0 l 30,0 m 15,0 l 30,0 m 15,0 l 30,0 m 15,0 l 30,0"></path>
<path class="white" d="M 654,2461 l -27,0 0,-27 27,0 0,27 z"></path>
<path class="black" d="M 641,2461 l -1,0 0,-11 1,0 0,11 z"></path>
<path class="stroke4" d="M 641,2461 l -1,0 0,-11 1,0 0,11"></path>
<path class="stroke6" d="M 627,2447 l 0,-3 1,-1 0,-2 6,-6 2,0 1,-1 6,0 1,1 2,0 6,6 0,2 1,1 0,3"></path>
<text class="t2"><tspan x="579" y="2425">3</tspan>
</text>
<path class="stroke4" d="M 653,1929 l 30,0 m 15,0 l 30,0 m 15,0 l 30,0 m 15,0 l 30,0 m 15,0 l 30,0 m 15,0 l 30,0 m 15,0 l 30,0"></path>
<path class="white" d="M 954,1916 l 27,0 0,27 -27,0 0,-27 z"></path>
<path class="black" d="M 967,1916 l 1,0 0,11 -1,0 0,-11 z"></path>
<path class="stroke4" d="M 967,1916 l 1,0 0,11 -1,0 0,-11"></path>
<path class="stroke6" d="M 981,1929 l 0,3 -1,1 0,1 -1,1 0,1 -4,4 -1,0 -1,1 -1,0 -1,1 -7,0 -1,-1 -1,0 -1,-1 -1,0 -4,-4 0,-1 -1,-1 0,-1 -1,-1 0,-3"></path>
<text class="t2"><tspan x="883" y="1975">16</tspan>
</text>
<path class="stroke4" d="M 653,2447 l 30,0 m 15,0 l 30,0 m 15,0 l 30,0 m 15,0 l 30,0 m 15,0 l 30,0 m 15,0 l 30,0 m 15,0 l 30,0"></path>
<path class="white" d="M 981,2461 l -27,0 0,-27 27,0 0,27 z"></path>
<path class="black" d="M 968,2461 l -1,0 0,-11 1,0 0,11 z"></path>
<path class="stroke4" d="M 968,2461 l -1,0 0,-11 1,0 0,11"></path>
<path class="stroke6" d="M 954,2447 l 0,-3 1,-1 0,-1 1,-1 0,-1 4,-4 1,0 1,-1 1,0 1,-1 7,0 1,1 1,0 1,1 1,0 4,4 0,1 1,1 0,1 1,1 0,3"></path>
<text class="t2"><tspan x="906" y="2425">5</tspan>
</text>
<path class="stroke4" d="M 981,1929 l 30,0 m 14,0 l 31,0 m 14,0 l 31,0 m 14,0 l 31,0 m 14,0 l 30,0 m 15,0 l 30,0 m 14,0 l 31,0"></path>
<path class="white" d="M 1281,1916 l 27,0 0,27 -27,0 0,-27 z"></path>
<path class="black" d="M 1294,1916 l 1,0 0,11 -1,0 0,-11 z"></path>
<path class="stroke4" d="M 1294,1916 l 1,0 0,11 -1,0 0,-11"></path>
<path class="stroke6" d="M 1308,1929 l 0,3 -1,1 0,1 -1,1 0,1 -4,4 -1,0 -1,1 -1,0 -1,1 -7,0 -1,-1 -1,0 -1,-1 -1,0 -4,-4 0,-1 -1,-1 0,-1 -1,-1 0,-3"></path>
<text class="t2"><tspan x="1210" y="1975">36</tspan>
</text>
<path class="stroke4" d="M 981,2447 l 30,0 m 14,0 l 31,0 m 14,0 l 31,0 m 14,0 l 31,0 m 14,0 l 30,0 m 15,0 l 30,0 m 14,0 l 31,0"></path>
<path class="white" d="M 1308,2461 l -27,0 0,-27 27,0 0,27 z"></path>
<path class="black" d="M 1296,2461 l -2,0 0,-11 2,0 0,11 z"></path>
<path class="stroke4" d="M 1296,2461 l -2,0 0,-11 2,0 0,11"></path>
<path class="stroke6" d="M 1281,2447 l 0,-3 1,-1 0,-1 1,-1 0,-1 4,-4 1,0 1,-1 1,0 1,-1 7,0 1,1 1,0 1,1 1,0 4,4 0,1 1,1 0,1 1,1 0,3"></path>
<text class="t2"><tspan x="1233" y="2425">4</tspan>
</text>
<path class="stroke4" d="M 1308,1929 l 30,0 m 15,0 l 30,0 m 15,0 l 30,0 m 15,0 l 30,0 m 15,0 l 30,0 m 15,0 l 30,0 m 15,0 l 30,0"></path>
<path class="white" d="M 1608,1916 l 27,0 0,27 -27,0 0,-27 z"></path>
<path class="black" d="M 1621,1916 l 2,0 0,11 -2,0 0,-11 z"></path>
<path class="stroke4" d="M 1621,1916 l 2,0 0,11 -2,0 0,-11"></path>
<path class="stroke6" d="M 1635,1929 l 0,3 -1,1 0,2 -6,6 -2,0 -1,1 -6,0 -1,-1 -2,0 -6,-6 0,-2 -1,-1 0,-3"></path>
<text class="t2"><tspan x="1537" y="1975">37</tspan>
</text>
<path class="stroke4" d="M 1308,2447 l 30,0 m 15,0 l 30,0 m 15,0 l 30,0 m 15,0 l 30,0 m 15,0 l 30,0 m 15,0 l 30,0 m 15,0 l 30,0"></path>
<path class="white" d="M 1636,2461 l -28,0 0,-27 28,0 0,27 z"></path>
<path class="black" d="M 1623,2461 l -2,0 0,-11 2,0 0,11 z"></path>
<path class="stroke4" d="M 1623,2461 l -2,0 0,-11 2,0 0,11"></path>
<path class="stroke6" d="M 1609,2447 l 0,-3 1,-1 0,-2 6,-6 2,0 1,-1 6,0 1,1 2,0 6,6 0,2 1,1 0,3"></path>
<text class="t2"><tspan x="1561" y="2425">1</tspan>
</text>
<path class="stroke4" d="M 1635,1929 l 30,0 m 15,0 l 30,0 m 15,0 l 30,0 m 15,0 l 30,0 m 15,0 l 30,0 m 15,0 l 30,0 m 15,0 l 30,0"></path>
<path class="white" d="M 1935,1916 l 27,0 0,27 -27,0 0,-27 z"></path>
<path class="black" d="M 1948,1916 l 2,0 0,11 -2,0 0,-11 z"></path>
<path class="stroke4" d="M 1948,1916 l 2,0 0,11 -2,0 0,-11"></path>
<path class="stroke6" d="M 1962,1929 l 0,3 -1,1 0,2 -6,6 -2,0 -1,1 -6,0 -1,-1 -2,0 -6,-6 0,-2 -1,-1 0,-3"></path>
<text class="t2"><tspan x="1865" y="1975">38</tspan>
</text>
<path class="stroke4" d="M 1635,2447 l 30,0 m 15,0 l 30,0 m 15,0 l 30,0 m 15,0 l 30,0 m 15,0 l 30,0 m 15,0 l 30,0 m 15,0 l 30,0"></path>
<path class="white" d="M 1963,2461 l -28,0 0,-27 28,0 0,27 z"></path>
<path class="black" d="M 1950,2461 l -2,0 0,-11 2,0 0,11 z"></path>
<path class="stroke4" d="M 1950,2461 l -2,0 0,-11 2,0 0,11"></path>
<path class="stroke6" d="M 1936,2447 l 0,-3 1,-1 0,-2 6,-6 2,0 1,-1 6,0 1,1 2,0 6,6 0,2 1,1 0,3"></path>
<text class="t2"><tspan x="1987" y="2425"><a xmlns:xlink="http://www.w3.org/1999/xlink" xlink:type="simple" xlink:show="replace" xlink:actuate="onRequest" xlink:href="javascript:locateTree('X6390');">X6390</a>
</tspan>

<tspan x="1888" y="2425">6</tspan>
</text>
<path style="fill:none;stroke:#000000;stroke-width:15" d="M 313,1070 l 0,600"></path>
<text class="t2"><tspan x="351" y="1427">T_MSV</tspan>

<tspan x="351" y="1482">0.5</tspan>

<tspan x="351" y="1525">WS</tspan>
</text>
<path class="white" d="M 299,1043 l 28,0 0,27 -28,0 0,-27 z"></path>
<path class="black" d="M 312,1043 l 2,0 0,12 -2,0 0,-12 z"></path>
<path class="stroke4" d="M 312,1043 l 2,0 0,12 -2,0 0,-12"></path>
<path class="stroke6" d="M 326,1057 l 0,3 -1,1 0,2 -6,6 -2,0 -1,1 -6,0 -1,-1 -2,0 -6,-6 0,-2 -1,-1 0,-3"></path>
<text class="t2"><tspan x="351" y="1102"><a xmlns:xlink="http://www.w3.org/1999/xlink" xlink:type="simple" xlink:show="replace" xlink:actuate="onRequest" xlink:href="javascript:locateTree('X6538');">X6538</a>
</tspan>

<tspan x="252" y="1102">2</tspan>
</text>
<path class="white" d="M 327,1698 l -27,0 0,-28 27,0 0,28 z"></path>
<path class="black" d="M 314,1697 l -2,0 0,-11 2,0 0,11 z"></path>
<path class="stroke4" d="M 314,1697 l -2,0 0,-11 2,0 0,11"></path>
<path class="stroke6" d="M 300,1684 l 0,-3 1,-1 0,-2 6,-6 2,0 1,-1 6,0 1,1 2,0 6,6 0,2 1,1 0,3"></path>
<text class="t2"><tspan x="569" y="857"><a xmlns:xlink="http://www.w3.org/1999/xlink" xlink:type="simple" xlink:show="replace" xlink:actuate="onRequest" xlink:href="javascript:locateTree('Y2381');">Y2381</a>
</tspan>

<tspan x="252" y="1662">3</tspan>
</text>
<path class="stroke8" d="M 204,825 l 14,0 m 18,0 l 29,0 m 17,0 l 29,0 m 18,0 l 29,0 m 17,0 l 30,0 m 17,0 l 29,0 m 18,0 l 29,0 m 17,0 l 16,0 0,13 m 0,16 l 0,28 m 0,16 l 0,27 m 0,16 l 0,28 m 0,16 l 0,27 m 0,16 l 0,15 -14,0 m -18,0 l -29,0 m -17,0 l -29,0 m -18,0 l -29,0 m -17,0 l -30,0 m -17,0 l -29,0 m -18,0 l -29,0 m -17,0 l -16,0 0,-13 m 0,-16 l 0,-28 m 0,-16 l 0,-27 m 0,-16 l 0,-28 m 0,-16 l 0,-27 m 0,-16 l 0,-15 m 0,1636 l 15,0 m 17,0 l 30,0 m 18,0 l 30,0 m 18,0 l 30,0 m 18,0 l 30,0 m 18,0 l 30,0 m 17,0 l 30,0 m 18,0 l 30,0"></path>
<path class="stroke8" d="M 571,2461 l 30,0 m 18,0 l 30,0 m 18,0 l 30,0 m 17,0 l 30,0 m 18,0 l 30,0 m 18,0 l 30,0 m 18,0 l 30,0 m 18,0 l 30,0 m 17,0 l 30,0 m 18,0 l 30,0 m 18,0 l 30,0 m 18,0 l 30,0 m 18,0 l 30,0 m 17,0 l 30,0 m 18,0 l 30,0 m 18,0 l 30,0 m 18,0 l 30,0 m 18,0 l 30,0 m 17,0 l 30,0 m 18,0 l 30,0 m 18,0 l 30,0 m 18,0 l 30,0 m 18,0 l 30,0 m 17,0 l 30,0 m 18,0 l 30,0 m 18,0 l 30,0 m 18,0 l 30,0 m 18,0 l 30,0 m 17,0 l 30,0 m 18,0 l 30,0 m 18,0 l 30,0 m 18,0 l 30,0 m 18,0 l 30,0"></path>
<path class="stroke8" d="M 2148,2461 l 19,0 0,13 m 0,16 l 0,28 m 0,16 l 0,27 m 0,16 l 0,28 m 0,16 l 0,27 m 0,16 l 0,15 -15,0 m -17,0 l -30,0 m -18,0 l -30,0 m -18,0 l -30,0 m -18,0 l -30,0 m -18,0 l -30,0 m -17,0 l -30,0 m -18,0 l -30,0 m -18,0 l -30,0 m -18,0 l -30,0 m -18,0 l -30,0 m -17,0 l -30,0 m -18,0 l -30,0 m -18,0 l -30,0 m -18,0 l -30,0 m -18,0 l -30,0 m -17,0 l -30,0 m -18,0 l -30,0 m -18,0 l -30,0 m -18,0 l -30,0 m -18,0 l -30,0 m -17,0 l -30,0 m -18,0 l -30,0 m -18,0 l -30,0 m -18,0 l -30,0 m -18,0 l -30,0 m -17,0 l -30,0 m -18,0 l -30,0"></path>
<path class="stroke8" d="M 844,2679 l -30,0 m -18,0 l -30,0 m -18,0 l -30,0 m -17,0 l -30,0 m -18,0 l -30,0 m -18,0 l -30,0 m -18,0 l -30,0 m -18,0 l -30,0 m -17,0 l -30,0 m -18,0 l -30,0 m -18,0 l -30,0 m -18,0 l -30,0 m -18,0 l -30,0 m -17,0 l -19,0 0,-13 m 0,-16 l 0,-28 m 0,-16 l 0,-27 m 0,-16 l 0,-28 m 0,-16 l 0,-27 m 0,-16 l 0,-15"></path>
<path style="fill:none;stroke:#000000;stroke-width:15" d="M 858,1070 l 0,600"></path>
<text class="t2"><tspan x="897" y="1427">S_HR</tspan>

<tspan x="897" y="1482">0.5</tspan>

<tspan x="897" y="1525">WS/GR</tspan>
</text>
<path class="white" d="M 845,1043 l 27,0 0,27 -27,0 0,-27 z"></path>
<path class="black" d="M 857,1043 l 2,0 0,12 -2,0 0,-12 z"></path>
<path class="stroke4" d="M 857,1043 l 2,0 0,12 -2,0 0,-12"></path>
<path class="stroke6" d="M 872,1057 l 0,3 -1,1 0,1 -1,1 0,1 -4,4 -1,0 -1,1 -1,0 -1,1 -7,0 -1,-1 -1,0 -1,-1 -1,0 -4,-4 0,-1 -1,-1 0,-1 -1,-1 0,-3"></path>
<text class="t2"><tspan x="897" y="1102"><a xmlns:xlink="http://www.w3.org/1999/xlink" xlink:type="simple" xlink:show="replace" xlink:actuate="onRequest" xlink:href="javascript:locateTree('X6300');">X6300</a>
</tspan>

<tspan x="797" y="1102">4</tspan>
</text>
<path class="white" d="M 872,1698 l -27,0 0,-28 27,0 0,28 z"></path>
<path class="black" d="M 859,1697 l -1,0 0,-11 1,0 0,11 z"></path>
<path class="stroke4" d="M 859,1697 l -1,0 0,-11 1,0 0,11"></path>
<path class="stroke6" d="M 845,1684 l 0,-3 1,-1 0,-1 1,-1 0,-1 4,-4 1,0 1,-1 1,0 1,-1 7,0 1,1 1,0 1,1 1,0 4,4 0,1 1,1 0,1 1,1 0,3"></path>
<text class="t2"><tspan x="1115" y="857"><a xmlns:xlink="http://www.w3.org/1999/xlink" xlink:type="simple" xlink:show="replace" xlink:actuate="onRequest" xlink:href="javascript:locateTree('K6300');">K6300</a>
</tspan>

<tspan x="774" y="1662">13</tspan>
</text>
<path class="stroke8" d="M 749,825 l 14,0 m 18,0 l 29,0 m 17,0 l 30,0 m 17,0 l 29,0 m 18,0 l 29,0 m 17,0 l 30,0 m 17,0 l 29,0 m 18,0 l 16,0 0,13 m 0,16 l 0,28 m 0,16 l 0,27 m 0,16 l 0,28 m 0,16 l 0,27 m 0,16 l 0,15 -14,0 m -18,0 l -29,0 m -17,0 l -30,0 m -17,0 l -29,0 m -18,0 l -29,0 m -17,0 l -30,0 m -17,0 l -29,0 m -18,0 l -16,0 0,-13 m 0,-16 l 0,-28 m 0,-16 l 0,-27 m 0,-16 l 0,-28 m 0,-16 l 0,-27 m 0,-16 l 0,-15"></path>
<path class="white" d="M 845,1261 l 27,0 0,28 -27,0 0,-28 z"></path>
<path class="black" d="M 857,1262 l 2,0 0,11 -2,0 0,-11 z"></path>
<path class="stroke4" d="M 857,1262 l 2,0 0,11 -2,0 0,-11"></path>
<path class="stroke6" d="M 872,1275 l 0,3 -1,1 0,1 -1,1 0,1 -4,4 -1,0 -1,1 -1,0 -1,1 -7,0 -1,-1 -1,0 -1,-1 -1,0 -4,-4 0,-1 -1,-1 0,-1 -1,-1 0,-3"></path>
<text class="t2"><tspan x="897" y="1321"><a xmlns:xlink="http://www.w3.org/1999/xlink" xlink:type="simple" xlink:show="replace" xlink:actuate="onRequest" xlink:href="javascript:locateTree('X60551');">X60551</a>
</tspan>

<tspan x="797" y="1321">4</tspan>
</text>
<path class="stroke4" d="M 326,1684 l 30,0 m 14,0 l 30,0 m 14,0 l 30,0 m 14,0 l 31,0 m 14,0 l 30,0 m 14,0 l 30,0 m 14,0 l 31,0 m 14,0 l 30,0 m 14,0 l 30,0 m 14,0 l 30,0 m 15,0 l 30,0 m 14,0 l 30,0 m 29,0 l 30,0 m 14,0 l 30,0 m 14,0 l 30,0 m 14,0 l 31,0 m 14,0 l 30,0 m 14,0 l 30,0 m 14,0 l 31,0 m 14,0 l 30,0 m 14,0 l 30,0 m 14,0 l 30,0 m 15,0 l 30,0 m 14,0 l 30,0"></path>
<text class="t2"><tspan x="2314" y="857"><a xmlns:xlink="http://www.w3.org/1999/xlink" xlink:type="simple" xlink:show="replace" xlink:actuate="onRequest" xlink:href="javascript:locateTree('B6125a');">B6125a</a>
</tspan>
</text>
<path class="stroke4" d="M 2071,1684 l 30,0 m 14,0 l 30,0 m 14,0 l 30,0 m 14,0 l 31,0 m 14,0 l 30,0 m 14,0 l 30,0 m 14,0 l 31,0 m 14,0 l 30,0 m 14,0 l 30,0 m 14,0 l 30,0 m 15,0 l 30,0 m 14,0 l 30,0"></path>
<path style="fill:none;stroke:#000000;stroke-width:15" d="M 2603,1070 l 0,600"></path>
<text class="t2"><tspan x="2642" y="1427">T_TEV</tspan>

<tspan x="2642" y="1482">0.5</tspan>

<tspan x="2642" y="1525">WS/BL</tspan>
</text>
<path class="white" d="M 2590,1043 l 27,0 0,27 -27,0 0,-27 z"></path>
<path class="black" d="M 2602,1043 l 2,0 0,12 -2,0 0,-12 z"></path>
<path class="stroke4" d="M 2602,1043 l 2,0 0,12 -2,0 0,-12"></path>
<path class="stroke6" d="M 2616,1057 l 0,3 -1,1 0,2 -6,6 -2,0 -1,1 -6,0 -1,-1 -2,0 -6,-6 0,-2 -1,-1 0,-3"></path>
<text class="t2"><tspan x="2642" y="1102"><a xmlns:xlink="http://www.w3.org/1999/xlink" xlink:type="simple" xlink:show="replace" xlink:actuate="onRequest" xlink:href="javascript:locateTree('X6120');">X6120</a>
</tspan>

<tspan x="2542" y="1102">2</tspan>
</text>
<path class="white" d="M 2617,1698 l -27,0 0,-28 27,0 0,28 z"></path>
<path class="black" d="M 2604,1697 l -1,0 0,-11 1,0 0,11 z"></path>
<path class="stroke4" d="M 2604,1697 l -1,0 0,-11 1,0 0,11"></path>
<path class="stroke6" d="M 2590,1684 l 0,-3 1,-1 0,-2 6,-6 2,0 1,-1 6,0 1,1 2,0 6,6 0,2 1,1 0,3"></path>
<text class="t2"><tspan x="2860" y="857"><a xmlns:xlink="http://www.w3.org/1999/xlink" xlink:type="simple" xlink:show="replace" xlink:actuate="onRequest" xlink:href="javascript:locateTree('Y6120');">Y6120</a>
</tspan>

<tspan x="2519" y="1662">23</tspan>
</text>
<path class="stroke8" d="M 2494,825 l 14,0 m 18,0 l 29,0 m 17,0 l 29,0 m 18,0 l 29,0 m 17,0 l 30,0 m 17,0 l 29,0 m 18,0 l 29,0 m 17,0 l 16,0 0,13 m 0,16 l 0,28 m 0,16 l 0,27 m 0,16 l 0,28 m 0,16 l 0,27 m 0,16 l 0,15 -14,0 m -18,0 l -29,0 m -17,0 l -29,0 m -18,0 l -29,0 m -17,0 l -30,0 m -17,0 l -29,0 m -18,0 l -29,0 m -17,0 l -16,0 0,-13 m 0,-16 l 0,-28 m 0,-16 l 0,-27 m 0,-16 l 0,-28 m 0,-16 l 0,-27 m 0,-16 l 0,-15"></path>
<path class="stroke4" d="M 2616,1684 l 30,0 m 14,0 l 30,0 m 14,0 l 30,0 m 14,0 l 31,0 m 14,0 l 30,0 m 14,0 l 30,0 m 14,0 l 31,0 m 14,0 l 30,0 m 14,0 l 30,0 m 14,0 l 30,0 m 15,0 l 30,0 m 14,0 l 30,0"></path>
<text class="t2"><tspan x="3187" y="1427">P_KWG</tspan>

<tspan x="3514" y="1427">M_KWG</tspan>

<tspan x="3514" y="1482">0.5</tspan>

<tspan x="3187" y="1482">0.5</tspan>

<tspan x="3187" y="1525">GE</tspan>

<tspan x="3514" y="1525">SW/BL</tspan>
</text>
<path class="white" d="M 3135,1261 l 27,0 0,28 -27,0 0,-28 z"></path>
<path class="black" d="M 3148,1262 l 1,0 0,11 -1,0 0,-11 z"></path>
<path class="stroke4" d="M 3148,1262 l 1,0 0,11 -1,0 0,-11"></path>
<path class="stroke6" d="M 3162,1275 l 0,3 -1,1 0,1 -1,1 0,1 -4,4 -1,0 -1,1 -1,0 -1,1 -7,0 -1,-1 -1,0 -1,-1 -1,0 -4,-4 0,-1 -1,-1 0,-1 -1,-1 0,-3"></path>
<text class="t2"><tspan x="3087" y="1321">3</tspan>
</text>
<path class="white" d="M 3162,1698 l -27,0 0,-28 27,0 0,28 z"></path>
<path class="black" d="M 3150,1697 l -2,0 0,-11 2,0 0,11 z"></path>
<path class="stroke4" d="M 3150,1697 l -2,0 0,-11 2,0 0,11"></path>
<path class="stroke6" d="M 3135,1684 l 0,-3 1,-1 0,-1 1,-1 0,-1 4,-4 1,0 1,-1 1,0 1,-1 7,0 1,1 1,0 1,1 1,0 4,4 0,1 1,1 0,1 1,1 0,3"></path>
<text class="t2"><tspan x="3064" y="1662">29</tspan>
</text>
<path class="stroke4" d="M 3162,1275 l 30,0 m 15,0 l 30,0 m 15,0 l 30,0 m 15,0 l 30,0 m 15,0 l 30,0 m 15,0 l 30,0 m 15,0 l 30,0"></path>
<path class="white" d="M 3462,1261 l 27,0 0,28 -27,0 0,-28 z"></path>
<path class="black" d="M 3475,1262 l 2,0 0,11 -2,0 0,-11 z"></path>
<path class="stroke4" d="M 3475,1262 l 2,0 0,11 -2,0 0,-11"></path>
<path class="stroke6" d="M 3489,1275 l 0,3 -1,1 0,2 -6,6 -2,0 -1,1 -6,0 -1,-1 -2,0 -6,-6 0,-2 -1,-1 0,-3"></path>
<text class="t2"><tspan x="3514" y="1321"><a xmlns:xlink="http://www.w3.org/1999/xlink" xlink:type="simple" xlink:show="replace" xlink:actuate="onRequest" xlink:href="javascript:locateTree('X6203');">X6203</a>
</tspan>

<tspan x="3414" y="1321">2</tspan>
</text>
<path class="stroke4" d="M 3162,1684 l 30,0 m 15,0 l 30,0 m 15,0 l 30,0 m 15,0 l 30,0 m 15,0 l 30,0 m 15,0 l 30,0 m 15,0 l 30,0"></path>
<path class="white" d="M 3490,1698 l -28,0 0,-28 28,0 0,28 z"></path>
<path class="black" d="M 3477,1697 l -2,0 0,-11 2,0 0,11 z"></path>
<path class="stroke4" d="M 3477,1697 l -2,0 0,-11 2,0 0,11"></path>
<path class="stroke6" d="M 3463,1684 l 0,-3 1,-1 0,-2 6,-6 2,0 1,-1 6,0 1,1 2,0 6,6 0,2 1,1 0,3"></path>
<text class="t2"><tspan x="3392" y="1662">30</tspan>
</text>
<path class="stroke4" d="M 3489,1684 l 30,0 m 15,0 l 30,0 m 15,0 l 30,0 m 15,0 l 30,0 m 15,0 l 30,0 m 15,0 l 30,0 m 15,0 l 30,0"></path>
<text class="t2"><tspan x="3732" y="857"><a xmlns:xlink="http://www.w3.org/1999/xlink" xlink:type="simple" xlink:show="replace" xlink:actuate="onRequest" xlink:href="javascript:locateTree('B6203');">B6203</a>
</tspan>
</text>
<path class="stroke8" d="M 3040,825 l 14,0 m 18,0 l 29,0 m 17,0 l 29,0 m 18,0 l 29,0 m 17,0 l 30,0 m 17,0 l 29,0 m 18,0 l 29,0 m 17,0 l 29,0 m 18,0 l 29,0 m 17,0 l 30,0 m 17,0 l 29,0 m 18,0 l 29,0 m 17,0 l 29,0 m 18,0 l 29,0 m 17,0 l 17,0 0,13 m 0,16 l 0,28 m 0,16 l 0,27 m 0,16 l 0,28 m 0,16 l 0,27 m 0,16 l 0,15 -14,0 m -18,0 l -29,0 m -17,0 l -29,0 m -18,0 l -29,0 m -17,0 l -30,0 m -17,0 l -29,0 m -18,0 l -29,0 m -17,0 l -29,0 m -18,0 l -29,0 m -17,0 l -30,0 m -17,0 l -29,0 m -18,0 l -29,0 m -17,0 l -29,0 m -18,0 l -29,0"></path>
<path class="stroke8" d="M 3057,1043 l -17,0 0,-13 m 0,-16 l 0,-28 m 0,-16 l 0,-27 m 0,-16 l 0,-28 m 0,-16 l 0,-27 m 0,-16 l 0,-15"></path>
<text class="t2"><tspan x="3841" y="1427">D_BSD</tspan>

<tspan x="3841" y="1482">0.5</tspan>

<tspan x="3841" y="1525">VI</tspan>
</text>
<path class="white" d="M 3817,1698 l -28,0 0,-28 28,0 0,28 z"></path>
<path class="black" d="M 3804,1697 l -2,0 0,-11 2,0 0,11 z"></path>
<path class="stroke4" d="M 3804,1697 l -2,0 0,-11 2,0 0,11"></path>
<path class="stroke6" d="M 3790,1684 l 0,-3 1,-1 0,-2 6,-6 2,0 1,-1 6,0 1,1 2,0 6,6 0,2 1,1 0,3"></path>
<text class="t2"><tspan x="3719" y="1662">35</tspan>
</text>
<path style="fill:none;stroke:#000000;stroke-width:15" d="M 3966,1261 l -163,0"></path>
<path class="stroke4" d="M 3967,1279 l 40,-18 -40,-19 0,37 m 0,-25 l 23,0 m -23,4 l 31,0 m -31,3 l 40,0 m -40,4 l 31,0 m -31,3 l 23,0 m -23,4 l 15,0 m -15,4 l 6,0 m -6,-26 l 16,0 m -16,-3 l 8,0 m -8,-4 l 1,0"></path>
<path class="white" d="M 3799,1245 l -1,1 -2,0 -2,2 -1,0 -5,5 0,1 -1,1 0,2 -1,1 0,7 1,1 0,2 1,1 0,1 5,5 1,0 2,2 2,0 1,1 8,0 1,-1 2,0 2,-2 1,0 5,-5 0,-1 1,-1 0,-2 1,-1 0,-7 -1,-1 0,-2 -1,-1 0,-1 -5,-5 -1,0 -2,-2 -2,0 -1,-1 -8,0 z"></path>
<path class="stroke4" d="M 3803,1254 l -2,0 -1,1 -1,0 -2,2 0,1 -1,1 0,4 1,1 0,1 2,2 1,0 1,1 4,0 1,-1 1,0 2,-2 0,-1 1,-1 0,-4 -1,-1 0,-1 -2,-2 -1,0 -1,-1 -1,0 m -6,3 l 10,0 m -11,2 l 12,0 m -13,1 l 14,0 m -14,2 l 14,0 m -13,2 l 12,0 m -11,2 l 10,0 m -8,2 l 6,0 m -6,-13 l 6,0"></path>
<text class="t2"><tspan x="3841" y="1225"><a xmlns:xlink="http://www.w3.org/1999/xlink" xlink:type="simple" xlink:show="replace" xlink:actuate="onRequest" xlink:href="javascript:locateTree('X6038');">X6038</a>
</tspan>

<tspan x="4496" y="1427">M_PNDK</tspan>

<tspan x="4823" y="1427">A_PNDK</tspan>

<tspan x="4823" y="1482">0.5</tspan>

<tspan x="4496" y="1482">0.5</tspan>

<tspan x="4496" y="1525">SW/RT</tspan>

<tspan x="4823" y="1525">GE</tspan>
</text>
<path class="white" d="M 4444,1043 l 27,0 0,27 -27,0 0,-27 z"></path>
<path class="black" d="M 4456,1043 l 2,0 0,12 -2,0 0,-12 z"></path>
<path class="stroke4" d="M 4456,1043 l 2,0 0,12 -2,0 0,-12"></path>
<path class="stroke6" d="M 4470,1057 l 0,3 -1,1 0,2 -6,6 -2,0 -1,1 -6,0 -1,-1 -2,0 -6,-6 0,-2 -1,-1 0,-3"></path>
<text class="t2"><tspan x="4396" y="1102">4</tspan>
</text>
<path class="white" d="M 4471,1698 l -27,0 0,-28 27,0 0,28 z"></path>
<path class="black" d="M 4458,1697 l -2,0 0,-11 2,0 0,11 z"></path>
<path class="stroke4" d="M 4458,1697 l -2,0 0,-11 2,0 0,11"></path>
<path class="stroke6" d="M 4444,1684 l 0,-3 1,-1 0,-2 6,-6 2,0 1,-1 6,0 1,1 2,0 6,6 0,2 1,1 0,3"></path>
<text class="t2"><tspan x="4373" y="1662">32</tspan>
</text>
<path class="stroke4" d="M 4470,1057 l 30,0 m 15,0 l 30,0 m 15,0 l 30,0 m 15,0 l 30,0 m 15,0 l 30,0 m 15,0 l 30,0 m 15,0 l 30,0"></path>
<path class="white" d="M 4771,1043 l 27,0 0,27 -27,0 0,-27 z"></path>
<path class="black" d="M 4784,1043 l 1,0 0,12 -1,0 0,-12 z"></path>
<path class="stroke4" d="M 4784,1043 l 1,0 0,12 -1,0 0,-12"></path>
<path class="stroke6" d="M 4798,1057 l 0,3 -1,1 0,1 -1,1 0,1 -4,4 -1,0 -1,1 -1,0 -1,1 -7,0 -1,-1 -1,0 -1,-1 -1,0 -4,-4 0,-1 -1,-1 0,-1 -1,-1 0,-3"></path>
<text class="t2"><tspan x="4823" y="1102"><a xmlns:xlink="http://www.w3.org/1999/xlink" xlink:type="simple" xlink:show="replace" xlink:actuate="onRequest" xlink:href="javascript:locateTree('X6584');">X6584</a>
</tspan>

<tspan x="4723" y="1102">1</tspan>
</text>
<path class="stroke4" d="M 4470,1684 l 30,0 m 15,0 l 30,0 m 15,0 l 30,0 m 15,0 l 30,0 m 15,0 l 30,0 m 15,0 l 30,0 m 15,0 l 30,0"></path>
<path class="white" d="M 4798,1698 l -27,0 0,-28 27,0 0,28 z"></path>
<path class="black" d="M 4785,1697 l -1,0 0,-11 1,0 0,11 z"></path>
<path class="stroke4" d="M 4785,1697 l -1,0 0,-11 1,0 0,11"></path>
<path class="stroke6" d="M 4771,1684 l 0,-3 1,-1 0,-1 1,-1 0,-1 4,-4 1,0 1,-1 1,0 1,-1 7,0 1,1 1,0 1,1 1,0 4,4 0,1 1,1 0,1 1,1 0,3"></path>
<text class="t2"><tspan x="5041" y="857"><a xmlns:xlink="http://www.w3.org/1999/xlink" xlink:type="simple" xlink:show="replace" xlink:actuate="onRequest" xlink:href="javascript:locateTree('B6239');">B6239</a>
</tspan>

<tspan x="4168" y="1427">U_PNDK</tspan>

<tspan x="4168" y="1482">0.5</tspan>

<tspan x="4168" y="1525">BL/GE</tspan>

<tspan x="4823" y="1662"><a xmlns:xlink="http://www.w3.org/1999/xlink" xlink:type="simple" xlink:show="replace" xlink:actuate="onRequest" xlink:href="javascript:locateTree('X60005');">X60005</a>
</tspan>

<tspan x="4700" y="1662">33</tspan>
</text>
<path class="white" d="M 4116,1043 l 28,0 0,27 -28,0 0,-27 z"></path>
<path class="black" d="M 4129,1043 l 2,0 0,12 -2,0 0,-12 z"></path>
<path class="stroke4" d="M 4129,1043 l 2,0 0,12 -2,0 0,-12"></path>
<path class="stroke6" d="M 4143,1057 l 0,3 -1,1 0,2 -6,6 -2,0 -1,1 -6,0 -1,-1 -2,0 -6,-6 0,-2 -1,-1 0,-3"></path>
<text class="t2"><tspan x="4069" y="1102">2</tspan>
</text>
<path class="white" d="M 4144,1698 l -27,0 0,-28 27,0 0,28 z"></path>
<path class="black" d="M 4131,1697 l -2,0 0,-11 2,0 0,11 z"></path>
<path class="stroke4" d="M 4131,1697 l -2,0 0,-11 2,0 0,11"></path>
<path class="stroke6" d="M 4117,1684 l 0,-3 1,-1 0,-2 6,-6 2,0 1,-1 6,0 1,1 2,0 6,6 0,2 1,1 0,3"></path>
<text class="t2"><tspan x="4046" y="1662">31</tspan>
</text>
<path class="stroke4" d="M 4143,1057 l 30,0 m 15,0 l 30,0 m 15,0 l 30,0 m 15,0 l 30,0 m 15,0 l 30,0 m 15,0 l 30,0 m 15,0 l 30,0 m -300,627 l 30,0 m 15,0 l 30,0 m 15,0 l 30,0 m 15,0 l 30,0 m 15,0 l 30,0 m 15,0 l 30,0 m 15,0 l 30,0"></path>
<path class="stroke8" d="M 4021,825 l 15,0 m 18,0 l 31,0 m 18,0 l 31,0 m 18,0 l 31,0 m 18,0 l 31,0 m 18,0 l 31,0 m 18,0 l 31,0 m 18,0 l 31,0 m 18,0 l 31,0 m 18,0 l 31,0 m 18,0 l 31,0 m 18,0 l 31,0 m 18,0 l 31,0 m 18,0 l 31,0 m 18,0 l 31,0 m 18,0 l 31,0 m 18,0 l 31,0 m 18,0 l 31,0 m 18,0 l 31,0 m 18,0 l 31,0 m 18,0 l 18,0 0,13 m 0,16 l 0,28 m 0,16 l 0,27 m 0,16 l 0,28 m 0,16 l 0,27 m 0,16 l 0,15 -15,0 m -18,0 l -31,0 m -18,0 l -31,0 m -18,0 l -31,0 m -18,0 l -31,0 m -18,0 l -31,0 m -18,0 l -31,0 m -18,0 l -31,0"></path>
<path class="stroke8" d="M 4627,1043 l -31,0 m -18,0 l -31,0 m -18,0 l -31,0 m -18,0 l -31,0 m -18,0 l -31,0 m -18,0 l -31,0 m -18,0 l -31,0 m -18,0 l -31,0 m -18,0 l -31,0 m -18,0 l -31,0 m -18,0 l -31,0 m -18,0 l -31,0 m -18,0 l -18,0 0,-13 m 0,-16 l 0,-28 m 0,-16 l 0,-27 m 0,-16 l 0,-28 m 0,-16 l 0,-27 m 0,-16 l 0,-15"></path>
<path style="fill:none;stroke:#000000;stroke-width:15" d="M 2494,1943 l 0,382"></path>
<text class="t2"><tspan x="2533" y="2081">A_KS1B</tspan>

<tspan x="2533" y="2136">0.5</tspan>

<tspan x="2533" y="2180">SW/VI</tspan>
</text>
<path style="fill:none;stroke:#000000;stroke-width:15" d="M 2821,1943 l 0,382"></path>
<text class="t2"><tspan x="2860" y="2081">A_KS2B</tspan>

<tspan x="2860" y="2136">0.5</tspan>

<tspan x="2860" y="2180">SW/GE</tspan>
</text>
<path style="fill:none;stroke:#000000;stroke-width:15" d="M 3149,1943 l 0,382"></path>
<text class="t2"><tspan x="3187" y="2081">A_KS1A</tspan>

<tspan x="3187" y="2136">0.5</tspan>

<tspan x="3187" y="2180">GE</tspan>
</text>
<path style="fill:none;stroke:#000000;stroke-width:15" d="M 3476,1943 l 0,382"></path>
<text class="t2"><tspan x="3514" y="2081">A_KS2A</tspan>

<tspan x="3514" y="2136">0.5</tspan>

<tspan x="3514" y="2180">GE</tspan>
</text>
<path class="white" d="M 2480,1916 l 28,0 0,27 -28,0 0,-27 z"></path>
<path class="black" d="M 2493,1916 l 2,0 0,11 -2,0 0,-11 z"></path>
<path class="stroke4" d="M 2493,1916 l 2,0 0,11 -2,0 0,-11"></path>
<path class="stroke6" d="M 2507,1929 l 0,3 -1,1 0,2 -6,6 -2,0 -1,1 -6,0 -1,-1 -2,0 -6,-6 0,-2 -1,-1 0,-3"></path>
<text class="t2"><tspan x="2410" y="1975">19</tspan>
</text>
<path class="white" d="M 2508,2352 l -27,0 0,-27 27,0 0,27 z"></path>
<path class="black" d="M 2495,2352 l -2,0 0,-11 2,0 0,11 z"></path>
<path class="stroke4" d="M 2495,2352 l -2,0 0,-11 2,0 0,11"></path>
<path class="stroke6" d="M 2481,2338 l 0,-3 1,-1 0,-2 6,-6 2,0 1,-1 6,0 1,1 2,0 6,6 0,2 1,1 0,3"></path>
<text class="t2"><tspan x="2433" y="2316">2</tspan>
</text>
<path class="stroke4" d="M 2507,1929 l 30,0 m 15,0 l 30,0 m 15,0 l 30,0 m 15,0 l 30,0 m 15,0 l 30,0 m 15,0 l 30,0 m 15,0 l 30,0"></path>
<path class="white" d="M 2808,1916 l 27,0 0,27 -27,0 0,-27 z"></path>
<path class="black" d="M 2821,1916 l 1,0 0,11 -1,0 0,-11 z"></path>
<path class="stroke4" d="M 2821,1916 l 1,0 0,11 -1,0 0,-11"></path>
<path class="stroke6" d="M 2835,1929 l 0,3 -1,1 0,1 -1,1 0,1 -4,4 -1,0 -1,1 -1,0 -1,1 -7,0 -1,-1 -1,0 -1,-1 -1,0 -4,-4 0,-1 -1,-1 0,-1 -1,-1 0,-3"></path>
<text class="t2"><tspan x="2737" y="1975">20</tspan>
</text>
<path class="stroke4" d="M 2507,2338 l 30,0 m 15,0 l 30,0 m 15,0 l 30,0 m 15,0 l 30,0 m 15,0 l 30,0 m 15,0 l 30,0 m 15,0 l 30,0"></path>
<path class="white" d="M 2835,2352 l -27,0 0,-27 27,0 0,27 z"></path>
<path class="black" d="M 2822,2352 l -1,0 0,-11 1,0 0,11 z"></path>
<path class="stroke4" d="M 2822,2352 l -1,0 0,-11 1,0 0,11"></path>
<path class="stroke6" d="M 2808,2338 l 0,-3 1,-1 0,-1 1,-1 0,-1 4,-4 1,0 1,-1 1,0 1,-1 7,0 1,1 1,0 1,1 1,0 4,4 0,1 1,1 0,1 1,1 0,3"></path>
<text class="t2"><tspan x="2760" y="2316">4</tspan>
</text>
<path class="stroke4" d="M 2835,1929 l 30,0 m 14,0 l 31,0 m 14,0 l 31,0 m 14,0 l 31,0 m 14,0 l 30,0 m 15,0 l 30,0 m 14,0 l 31,0"></path>
<path class="white" d="M 3135,1916 l 27,0 0,27 -27,0 0,-27 z"></path>
<path class="black" d="M 3148,1916 l 1,0 0,11 -1,0 0,-11 z"></path>
<path class="stroke4" d="M 3148,1916 l 1,0 0,11 -1,0 0,-11"></path>
<path class="stroke6" d="M 3162,1929 l 0,3 -1,1 0,1 -1,1 0,1 -4,4 -1,0 -1,1 -1,0 -1,1 -7,0 -1,-1 -1,0 -1,-1 -1,0 -4,-4 0,-1 -1,-1 0,-1 -1,-1 0,-3"></path>
<text class="t2"><tspan x="3064" y="1975">41</tspan>
</text>
<path class="stroke4" d="M 2835,2338 l 30,0 m 14,0 l 31,0 m 14,0 l 31,0 m 14,0 l 31,0 m 14,0 l 30,0 m 15,0 l 30,0 m 14,0 l 31,0"></path>
<path class="white" d="M 3162,2352 l -27,0 0,-27 27,0 0,27 z"></path>
<path class="black" d="M 3150,2352 l -2,0 0,-11 2,0 0,11 z"></path>
<path class="stroke4" d="M 3150,2352 l -2,0 0,-11 2,0 0,11"></path>
<path class="stroke6" d="M 3135,2338 l 0,-3 1,-1 0,-1 1,-1 0,-1 4,-4 1,0 1,-1 1,0 1,-1 7,0 1,1 1,0 1,1 1,0 4,4 0,1 1,1 0,1 1,1 0,3"></path>
<text class="t2"><tspan x="3087" y="2316">1</tspan>
</text>
<path class="stroke4" d="M 3162,1929 l 30,0 m 15,0 l 30,0 m 15,0 l 30,0 m 15,0 l 30,0 m 15,0 l 30,0 m 15,0 l 30,0 m 15,0 l 30,0"></path>
<path class="white" d="M 3462,1916 l 27,0 0,27 -27,0 0,-27 z"></path>
<path class="black" d="M 3475,1916 l 2,0 0,11 -2,0 0,-11 z"></path>
<path class="stroke4" d="M 3475,1916 l 2,0 0,11 -2,0 0,-11"></path>
<path class="stroke6" d="M 3489,1929 l 0,3 -1,1 0,2 -6,6 -2,0 -1,1 -6,0 -1,-1 -2,0 -6,-6 0,-2 -1,-1 0,-3"></path>
<text class="t2"><tspan x="3391" y="1975">42</tspan>
</text>
<path class="stroke4" d="M 3162,2338 l 30,0 m 15,0 l 30,0 m 15,0 l 30,0 m 15,0 l 30,0 m 15,0 l 30,0 m 15,0 l 30,0 m 15,0 l 30,0"></path>
<path class="white" d="M 3490,2352 l -28,0 0,-27 28,0 0,27 z"></path>
<path class="black" d="M 3477,2352 l -2,0 0,-11 2,0 0,11 z"></path>
<path class="stroke4" d="M 3477,2352 l -2,0 0,-11 2,0 0,11"></path>
<path class="stroke6" d="M 3463,2338 l 0,-3 1,-1 0,-2 6,-6 2,0 1,-1 6,0 1,1 2,0 6,6 0,2 1,1 0,3"></path>
<text class="t2"><tspan x="3514" y="2316"><a xmlns:xlink="http://www.w3.org/1999/xlink" xlink:type="simple" xlink:show="replace" xlink:actuate="onRequest" xlink:href="javascript:locateTree('X62400');">X62400</a>
</tspan>

<tspan x="3415" y="2316">3</tspan>
</text>
<path style="fill:none;stroke:#000000;stroke-width:15" d="M 4021,1943 l 0,491"></path>
<text class="t2"><tspan x="4059" y="2081">M_PVDK</tspan>

<tspan x="4059" y="2136">0.5</tspan>

<tspan x="4059" y="2180">SW/GE</tspan>
</text>
<path style="fill:none;stroke:#000000;stroke-width:15" d="M 4348,1943 l 0,491"></path>
<text class="t2"><tspan x="4386" y="2081">A_PVDK</tspan>

<tspan x="4386" y="2136">0.5</tspan>

<tspan x="4386" y="2180">GE</tspan>
</text>
<path style="fill:none;stroke:#000000;stroke-width:15" d="M 4675,1943 l 0,491"></path>
<text class="t2"><tspan x="4714" y="2081">U_PVDK</tspan>

<tspan x="4714" y="2136">0.5</tspan>

<tspan x="4714" y="2180">BL/GE</tspan>
</text>
<path style="fill:none;stroke:#000000;stroke-width:15" d="M 5003,1943 l 0,491"></path>
<text class="t2"><tspan x="5041" y="2081">A_TVDK</tspan>

<tspan x="5041" y="2136">0.5</tspan>

<tspan x="5041" y="2180">GE/RT</tspan>
</text>
<path class="white" d="M 4007,1916 l 28,0 0,27 -28,0 0,-27 z"></path>
<path class="black" d="M 4020,1916 l 2,0 0,11 -2,0 0,-11 z"></path>
<path class="stroke4" d="M 4020,1916 l 2,0 0,11 -2,0 0,-11"></path>
<path class="stroke6" d="M 4034,1929 l 0,3 -1,1 0,2 -6,6 -2,0 -1,1 -6,0 -1,-1 -2,0 -6,-6 0,-2 -1,-1 0,-3"></path>
<text class="t2"><tspan x="3960" y="1975">9</tspan>
</text>
<path class="white" d="M 4035,2461 l -27,0 0,-27 27,0 0,27 z"></path>
<path class="black" d="M 4022,2461 l -2,0 0,-11 2,0 0,11 z"></path>
<path class="stroke4" d="M 4022,2461 l -2,0 0,-11 2,0 0,11"></path>
<path class="stroke6" d="M 4008,2447 l 0,-3 1,-1 0,-2 6,-6 2,0 1,-1 6,0 1,1 2,0 6,6 0,2 1,1 0,3"></path>
<text class="t2"><tspan x="3960" y="2425">4</tspan>
</text>
<path class="stroke4" d="M 4034,1929 l 30,0 m 15,0 l 30,0 m 15,0 l 30,0 m 15,0 l 30,0 m 15,0 l 30,0 m 15,0 l 30,0 m 15,0 l 30,0"></path>
<path class="white" d="M 4334,1916 l 28,0 0,27 -28,0 0,-27 z"></path>
<path class="black" d="M 4347,1916 l 2,0 0,11 -2,0 0,-11 z"></path>
<path class="stroke4" d="M 4347,1916 l 2,0 0,11 -2,0 0,-11"></path>
<path class="stroke6" d="M 4361,1929 l 0,3 -1,1 0,2 -6,6 -2,0 -1,1 -6,0 -1,-1 -2,0 -6,-6 0,-2 -1,-1 0,-3"></path>
<text class="t2"><tspan x="4264" y="1975">10</tspan>
</text>
<path class="stroke4" d="M 4034,2447 l 30,0 m 15,0 l 30,0 m 15,0 l 30,0 m 15,0 l 30,0 m 15,0 l 30,0 m 15,0 l 30,0 m 15,0 l 30,0"></path>
<path class="white" d="M 4362,2461 l -27,0 0,-27 27,0 0,27 z"></path>
<path class="black" d="M 4349,2461 l -2,0 0,-11 2,0 0,11 z"></path>
<path class="stroke4" d="M 4349,2461 l -2,0 0,-11 2,0 0,11"></path>
<path class="stroke6" d="M 4335,2447 l 0,-3 1,-1 0,-2 6,-6 2,0 1,-1 6,0 1,1 2,0 6,6 0,2 1,1 0,3"></path>
<text class="t2"><tspan x="4287" y="2425">1</tspan>
</text>
<path class="stroke4" d="M 4361,1929 l 30,0 m 15,0 l 30,0 m 15,0 l 30,0 m 15,0 l 30,0 m 15,0 l 30,0 m 15,0 l 30,0 m 15,0 l 30,0"></path>
<path class="white" d="M 4662,1916 l 27,0 0,27 -27,0 0,-27 z"></path>
<path class="black" d="M 4674,1916 l 2,0 0,11 -2,0 0,-11 z"></path>
<path class="stroke4" d="M 4674,1916 l 2,0 0,11 -2,0 0,-11"></path>
<path class="stroke6" d="M 4689,1929 l 0,3 -1,1 0,1 -1,1 0,1 -4,4 -1,0 -1,1 -1,0 -1,1 -7,0 -1,-1 -1,0 -1,-1 -1,0 -4,-4 0,-1 -1,-1 0,-1 -1,-1 0,-3"></path>
<text class="t2"><tspan x="4594" y="1975">11</tspan>
</text>
<path class="stroke4" d="M 4361,2447 l 30,0 m 15,0 l 30,0 m 15,0 l 30,0 m 15,0 l 30,0 m 15,0 l 30,0 m 15,0 l 30,0 m 15,0 l 30,0"></path>
<path class="white" d="M 4689,2461 l -27,0 0,-27 27,0 0,27 z"></path>
<path class="black" d="M 4676,2461 l -1,0 0,-11 1,0 0,11 z"></path>
<path class="stroke4" d="M 4676,2461 l -1,0 0,-11 1,0 0,11"></path>
<path class="stroke6" d="M 4662,2447 l 0,-3 1,-1 0,-1 1,-1 0,-1 4,-4 1,0 1,-1 1,0 1,-1 7,0 1,1 1,0 1,1 1,0 4,4 0,1 1,1 0,1 1,1 0,3"></path>
<text class="t2"><tspan x="4614" y="2425">2</tspan>
</text>
<path class="stroke4" d="M 4689,1929 l 30,0 m 14,0 l 31,0 m 14,0 l 31,0 m 14,0 l 31,0 m 14,0 l 30,0 m 15,0 l 30,0 m 14,0 l 31,0"></path>
<path class="white" d="M 4989,1916 l 27,0 0,27 -27,0 0,-27 z"></path>
<path class="black" d="M 5002,1916 l 1,0 0,11 -1,0 0,-11 z"></path>
<path class="stroke4" d="M 5002,1916 l 1,0 0,11 -1,0 0,-11"></path>
<path class="stroke6" d="M 5016,1929 l 0,3 -1,1 0,1 -1,1 0,1 -4,4 -1,0 -1,1 -1,0 -1,1 -7,0 -1,-1 -1,0 -1,-1 -1,0 -4,-4 0,-1 -1,-1 0,-1 -1,-1 0,-3"></path>
<text class="t2"><tspan x="5041" y="1975"><a xmlns:xlink="http://www.w3.org/1999/xlink" xlink:type="simple" xlink:show="replace" xlink:actuate="onRequest" xlink:href="javascript:locateTree('X60005');">X60005</a>
</tspan>

<tspan x="4918" y="1975">17</tspan>
</text>
<path class="stroke4" d="M 4689,2447 l 30,0 m 14,0 l 31,0 m 14,0 l 31,0 m 14,0 l 31,0 m 14,0 l 30,0 m 15,0 l 30,0 m 14,0 l 31,0"></path>
<path class="white" d="M 5016,2461 l -27,0 0,-27 27,0 0,27 z"></path>
<path class="black" d="M 5003,2461 l -1,0 0,-11 1,0 0,11 z"></path>
<path class="stroke4" d="M 5003,2461 l -1,0 0,-11 1,0 0,11"></path>
<path class="stroke6" d="M 4989,2447 l 0,-3 1,-1 0,-1 1,-1 0,-1 4,-4 1,0 1,-1 1,0 1,-1 7,0 1,1 1,0 1,1 1,0 4,4 0,1 1,1 0,1 1,1 0,3"></path>
<text class="t2"><tspan x="5041" y="2425"><a xmlns:xlink="http://www.w3.org/1999/xlink" xlink:type="simple" xlink:show="replace" xlink:actuate="onRequest" xlink:href="javascript:locateTree('X6583');">X6583</a>
</tspan>

<tspan x="4941" y="2425">3</tspan>
</text>
<path class="stroke8" d="M 3912,2461 l 15,0 m 18,0 l 30,0 m 18,0 l 31,0 m 18,0 l 30,0 m 18,0 l 30,0 m 18,0 l 31,0 m 18,0 l 30,0 m 18,0 l 31,0 m 18,0 l 30,0 m 18,0 l 30,0 m 18,0 l 31,0 m 18,0 l 30,0 m 18,0 l 31,0 m 18,0 l 30,0 m 18,0 l 30,0 m 18,0 l 31,0 m 18,0 l 30,0 m 18,0 l 31,0 m 18,0 l 30,0 m 18,0 l 30,0 m 18,0 l 31,0 m 18,0 l 30,0 m 18,0 l 31,0 m 18,0 l 30,0 m 18,0 l 30,0 m 18,0 l 31,0 m 18,0 l 30,0 m 18,0 l 18,0 0,13 m 0,16 l 0,28 m 0,16 l 0,27 m 0,16 l 0,28 m 0,16 l 0,27 m 0,16 l 0,15 -15,0"></path>
<path class="stroke8" d="M 5188,2679 l -30,0 m -18,0 l -31,0 m -18,0 l -30,0 m -18,0 l -30,0 m -18,0 l -31,0 m -18,0 l -30,0 m -18,0 l -31,0 m -18,0 l -30,0 m -18,0 l -30,0 m -18,0 l -31,0 m -18,0 l -30,0 m -18,0 l -31,0 m -18,0 l -30,0 m -18,0 l -30,0 m -18,0 l -31,0 m -18,0 l -30,0 m -18,0 l -31,0 m -18,0 l -30,0 m -18,0 l -30,0 m -18,0 l -31,0 m -18,0 l -30,0 m -18,0 l -31,0 m -18,0 l -30,0 m -18,0 l -30,0 m -18,0 l -31,0 m -18,0 l -30,0 m -18,0 l -18,0 0,-13 m 0,-16 l 0,-28 m 0,-16 l 0,-27 m 0,-16 l 0,-28 m 0,-16 l 0,-27 m 0,-16 l 0,-15"></path>
<text class="t2"><tspan x="2205" y="2493"><a xmlns:xlink="http://www.w3.org/1999/xlink" xlink:type="simple" xlink:show="replace" xlink:actuate="onRequest" xlink:href="javascript:locateTree('Y63900');">Y63900</a>
</tspan>

<tspan x="3732" y="2493"><a xmlns:xlink="http://www.w3.org/1999/xlink" xlink:type="simple" xlink:show="replace" xlink:actuate="onRequest" xlink:href="javascript:locateTree('B62400');">B62400</a>
</tspan>

<tspan x="5259" y="2493"><a xmlns:xlink="http://www.w3.org/1999/xlink" xlink:type="simple" xlink:show="replace" xlink:actuate="onRequest" xlink:href="javascript:locateTree('B6583');">B6583</a>
</tspan>
</text>
<path class="stroke4" d="M 3489,1929 l 30,0 m 14,0 l 30,0 m 14,0 l 30,0 m 14,0 l 31,0 m 14,0 l 30,0 m 14,0 l 30,0 m 14,0 l 31,0 m 14,0 l 30,0 m 14,0 l 30,0 m 14,0 l 30,0 m 15,0 l 30,0 m 14,0 l 30,0 m -190,-245 l 30,0 m 15,0 l 30,0 m 15,0 l 30,0 m 15,0 l 30,0 m 15,0 l 30,0 m 15,0 l 30,0 m 15,0 l 30,0 m -2154,245 l 30,0 m 14,0 l 30,0 m 14,0 l 30,0 m 14,0 l 31,0 m 14,0 l 30,0 m 14,0 l 30,0 m 14,0 l 31,0 m 14,0 l 30,0 m 14,0 l 30,0 m 14,0 l 30,0 m 15,0 l 30,0 m 14,0 l 30,0"></path>
<path style="fill:none;stroke:#000000;stroke-width:15" d="M 2494,2352 l 0,109 m 327,-109 l 0,109 m 328,-109 l 0,109 m 327,-109 l 0,109"></path>
<path class="stroke8" d="M 2385,2461 l 15,0 m 18,0 l 30,0 m 18,0 l 31,0 m 18,0 l 30,0 m 18,0 l 30,0 m 18,0 l 31,0 m 18,0 l 30,0 m 18,0 l 31,0 m 18,0 l 30,0 m 18,0 l 30,0 m 18,0 l 31,0 m 18,0 l 30,0 m 18,0 l 31,0 m 18,0 l 30,0 m 18,0 l 30,0 m 18,0 l 31,0 m 18,0 l 30,0 m 18,0 l 31,0 m 18,0 l 30,0 m 18,0 l 30,0 m 18,0 l 31,0 m 18,0 l 30,0 m 18,0 l 31,0 m 18,0 l 30,0 m 18,0 l 30,0 m 18,0 l 31,0 m 18,0 l 30,0 m 18,0 l 18,0 0,13 m 0,16 l 0,28 m 0,16 l 0,27 m 0,16 l 0,28 m 0,16 l 0,27 m 0,16 l 0,15 -15,0"></path>
<path class="stroke8" d="M 3661,2679 l -30,0 m -18,0 l -31,0 m -18,0 l -30,0 m -18,0 l -30,0 m -18,0 l -31,0 m -18,0 l -30,0 m -18,0 l -31,0 m -18,0 l -30,0 m -18,0 l -30,0 m -18,0 l -31,0 m -18,0 l -30,0 m -18,0 l -31,0 m -18,0 l -30,0 m -18,0 l -30,0 m -18,0 l -31,0 m -18,0 l -30,0 m -18,0 l -31,0 m -18,0 l -30,0 m -18,0 l -30,0 m -18,0 l -31,0 m -18,0 l -30,0 m -18,0 l -31,0 m -18,0 l -30,0 m -18,0 l -30,0 m -18,0 l -31,0 m -18,0 l -30,0 m -18,0 l -18,0 0,-13 m 0,-16 l 0,-28 m 0,-16 l 0,-27 m 0,-16 l 0,-28 m 0,-16 l 0,-27 m 0,-16 l 0,-15"></path>
<path style="fill:none;stroke:#000000;stroke-width:15" d="M 1404,1070 l 0,600"></path>
<text class="t2"><tspan x="1442" y="1427">M_KDS</tspan>

<tspan x="1442" y="1482">0.5</tspan>

<tspan x="1442" y="1525">SW/RT</tspan>
</text>
<path style="fill:none;stroke:#000000;stroke-width:15" d="M 1731,1070 l 0,600"></path>
<text class="t2"><tspan x="1769" y="1427">U_KDS</tspan>

<tspan x="1769" y="1482">0.5</tspan>

<tspan x="1769" y="1525">BL/GE</tspan>
</text>
<path style="fill:none;stroke:#000000;stroke-width:15" d="M 2058,1070 l 0,600"></path>
<text class="t2"><tspan x="2096" y="1427">A_KDS</tspan>

<tspan x="2096" y="1482">0.5</tspan>

<tspan x="2096" y="1525">GE/RT</tspan>
</text>
<path class="white" d="M 1390,1043 l 27,0 0,27 -27,0 0,-27 z"></path>
<path class="black" d="M 1403,1043 l 1,0 0,12 -1,0 0,-12 z"></path>
<path class="stroke4" d="M 1403,1043 l 1,0 0,12 -1,0 0,-12"></path>
<path class="stroke6" d="M 1417,1057 l 0,3 -1,1 0,2 -6,6 -2,0 -1,1 -6,0 -1,-1 -2,0 -6,-6 0,-2 -1,-1 0,-3"></path>
<text class="t2"><tspan x="1342" y="1102">1</tspan>
</text>
<path class="white" d="M 1417,1698 l -27,0 0,-28 27,0 0,28 z"></path>
<path class="black" d="M 1405,1697 l -2,0 0,-11 2,0 0,11 z"></path>
<path class="stroke4" d="M 1405,1697 l -2,0 0,-11 2,0 0,11"></path>
<path class="stroke6" d="M 1391,1684 l 0,-3 1,-1 0,-2 6,-6 2,0 1,-1 6,0 1,1 2,0 6,6 0,2 1,1 0,3"></path>
<text class="t2"><tspan x="1343" y="1662">7</tspan>
</text>
<path class="stroke4" d="M 1417,1057 l 30,0 m 15,0 l 30,0 m 15,0 l 30,0 m 15,0 l 30,0 m 15,0 l 30,0 m 15,0 l 30,0 m 15,0 l 30,0"></path>
<path class="white" d="M 1717,1043 l 27,0 0,27 -27,0 0,-27 z"></path>
<path class="black" d="M 1730,1043 l 2,0 0,12 -2,0 0,-12 z"></path>
<path class="stroke4" d="M 1730,1043 l 2,0 0,12 -2,0 0,-12"></path>
<path class="stroke6" d="M 1744,1057 l 0,3 -1,1 0,2 -6,6 -2,0 -1,1 -6,0 -1,-1 -2,0 -6,-6 0,-2 -1,-1 0,-3"></path>
<text class="t2"><tspan x="1670" y="1102">3</tspan>
</text>
<path class="stroke4" d="M 1417,1684 l 30,0 m 15,0 l 30,0 m 15,0 l 30,0 m 15,0 l 30,0 m 15,0 l 30,0 m 15,0 l 30,0 m 15,0 l 30,0"></path>
<path class="white" d="M 1745,1698 l -28,0 0,-28 28,0 0,28 z"></path>
<path class="black" d="M 1732,1697 l -2,0 0,-11 2,0 0,11 z"></path>
<path class="stroke4" d="M 1732,1697 l -2,0 0,-11 2,0 0,11"></path>
<path class="stroke6" d="M 1718,1684 l 0,-3 1,-1 0,-2 6,-6 2,0 1,-1 6,0 1,1 2,0 6,6 0,2 1,1 0,3"></path>
<text class="t2"><tspan x="1670" y="1662">8</tspan>
</text>
<path class="stroke4" d="M 1744,1057 l 30,0 m 15,0 l 30,0 m 15,0 l 30,0 m 15,0 l 30,0 m 15,0 l 30,0 m 15,0 l 30,0 m 15,0 l 30,0"></path>
<path class="white" d="M 2044,1043 l 28,0 0,27 -28,0 0,-27 z"></path>
<path class="black" d="M 2057,1043 l 2,0 0,12 -2,0 0,-12 z"></path>
<path class="stroke4" d="M 2057,1043 l 2,0 0,12 -2,0 0,-12"></path>
<path class="stroke6" d="M 2071,1057 l 0,3 -1,1 0,2 -6,6 -2,0 -1,1 -6,0 -1,-1 -2,0 -6,-6 0,-2 -1,-1 0,-3"></path>
<text class="t2"><tspan x="2096" y="1102"><a xmlns:xlink="http://www.w3.org/1999/xlink" xlink:type="simple" xlink:show="replace" xlink:actuate="onRequest" xlink:href="javascript:locateTree('X60558');">X60558</a>
</tspan>

<tspan x="1997" y="1102">2</tspan>
</text>
<path class="stroke4" d="M 1744,1684 l 30,0 m 15,0 l 30,0 m 15,0 l 30,0 m 15,0 l 30,0 m 15,0 l 30,0 m 15,0 l 30,0 m 15,0 l 30,0"></path>
<path class="white" d="M 2072,1698 l -27,0 0,-28 27,0 0,28 z"></path>
<path class="black" d="M 2059,1697 l -2,0 0,-11 2,0 0,11 z"></path>
<path class="stroke4" d="M 2059,1697 l -2,0 0,-11 2,0 0,11"></path>
<path class="stroke6" d="M 2045,1684 l 0,-3 1,-1 0,-2 6,-6 2,0 1,-1 6,0 1,1 2,0 6,6 0,2 1,1 0,3"></path>
<text class="t2"><tspan x="1974" y="1662">34</tspan>
</text>
<path class="stroke8" d="M 1295,825 l 15,0 m 18,0 l 31,0 m 18,0 l 31,0 m 18,0 l 31,0 m 18,0 l 30,0 m 19,0 l 30,0 m 19,0 l 30,0 m 19,0 l 30,0 m 18,0 l 31,0 m 18,0 l 31,0 m 18,0 l 31,0 m 18,0 l 31,0 m 18,0 l 31,0 m 18,0 l 31,0 m 18,0 l 30,0 m 19,0 l 30,0 m 19,0 l 30,0 m 19,0 l 30,0 m 18,0 l 31,0 m 18,0 l 31,0 m 18,0 l 19,0 0,13 m 0,16 l 0,28 m 0,16 l 0,27 m 0,16 l 0,28 m 0,16 l 0,27 m 0,16 l 0,15 -15,0 m -18,0 l -31,0 m -18,0 l -31,0 m -18,0 l -31,0 m -18,0 l -30,0 m -19,0 l -30,0 m -19,0 l -30,0 m -19,0 l -30,0"></path>
<path class="stroke8" d="M 1901,1043 l -31,0 m -18,0 l -31,0 m -18,0 l -31,0 m -18,0 l -31,0 m -18,0 l -31,0 m -18,0 l -31,0 m -18,0 l -30,0 m -19,0 l -30,0 m -19,0 l -30,0 m -19,0 l -30,0 m -18,0 l -31,0 m -18,0 l -31,0 m -18,0 l -19,0 0,-13 m 0,-16 l 0,-28 m 0,-16 l 0,-27 m 0,-16 l 0,-28 m 0,-16 l 0,-27 m 0,-16 l 0,-15"></path>
<path style="fill:none;stroke:#000000;stroke-width:15" d="M 5548,1943 l 0,491"></path>
<text class="t2"><tspan x="5586" y="2081">P_EVZ1P</tspan>

<tspan x="5586" y="2136">0.75</tspan>

<tspan x="5586" y="2180">WS</tspan>
</text>
<path style="fill:none;stroke:#000000;stroke-width:15" d="M 5875,1943 l 0,491"></path>
<text class="t2"><tspan x="5913" y="2081">P_EVZ1M</tspan>

<tspan x="5913" y="2136">0.75</tspan>

<tspan x="5913" y="2180">OR</tspan>
</text>
<path class="white" d="M 5562,2461 l -28,0 0,-27 28,0 0,27 z"></path>
<path class="black" d="M 5549,2461 l -2,0 0,-11 2,0 0,11 z"></path>
<path class="stroke4" d="M 5549,2461 l -2,0 0,-11 2,0 0,11"></path>
<path class="stroke6" d="M 5535,2447 l 0,-3 1,-1 0,-2 6,-6 2,0 1,-1 6,0 1,1 2,0 6,6 0,2 1,1 0,3"></path>
<text class="t2"><tspan x="5487" y="2425">1</tspan>
</text>
<path class="stroke4" d="M 5561,1929 l 30,0 m 15,0 l 30,0 m 15,0 l 30,0 m 15,0 l 30,0 m 15,0 l 30,0 m 15,0 l 30,0 m 15,0 l 30,0 m -300,518 l 30,0 m 15,0 l 30,0 m 15,0 l 30,0 m 15,0 l 30,0 m 15,0 l 30,0 m 15,0 l 30,0 m 15,0 l 30,0"></path>
<path class="white" d="M 5889,2461 l -27,0 0,-27 27,0 0,27 z"></path>
<path class="black" d="M 5876,2461 l -2,0 0,-11 2,0 0,11 z"></path>
<path class="stroke4" d="M 5876,2461 l -2,0 0,-11 2,0 0,11"></path>
<path class="stroke6" d="M 5862,2447 l 0,-3 1,-1 0,-2 6,-6 2,0 1,-1 6,0 1,1 2,0 6,6 0,2 1,1 0,3"></path>
<text class="t2"><tspan x="5913" y="2425"><a xmlns:xlink="http://www.w3.org/1999/xlink" xlink:type="simple" xlink:show="replace" xlink:actuate="onRequest" xlink:href="javascript:locateTree('X6101');">X6101</a>
</tspan>

<tspan x="5814" y="2425">2</tspan>
</text>
<path class="stroke8" d="M 5439,2461 l 14,0 m 18,0 l 29,0 m 17,0 l 29,0 m 18,0 l 29,0 m 17,0 l 30,0 m 17,0 l 29,0 m 18,0 l 29,0 m 17,0 l 29,0 m 18,0 l 29,0 m 17,0 l 30,0 m 17,0 l 29,0 m 18,0 l 29,0 m 17,0 l 29,0 m 18,0 l 29,0 m 17,0 l 17,0 0,13 m 0,16 l 0,28 m 0,16 l 0,27 m 0,16 l 0,28 m 0,16 l 0,27 m 0,16 l 0,15 -14,0 m -18,0 l -29,0 m -17,0 l -29,0 m -18,0 l -29,0 m -17,0 l -30,0 m -17,0 l -29,0 m -18,0 l -29,0 m -17,0 l -29,0 m -18,0 l -29,0 m -17,0 l -30,0 m -17,0 l -29,0 m -18,0 l -29,0 m -17,0 l -29,0 m -18,0 l -29,0"></path>
<path class="stroke8" d="M 5456,2679 l -17,0 0,-13 m 0,-16 l 0,-28 m 0,-16 l 0,-27 m 0,-16 l 0,-28 m 0,-16 l 0,-27 m 0,-16 l 0,-15"></path>
<text class="t2"><tspan x="6131" y="2493"><a xmlns:xlink="http://www.w3.org/1999/xlink" xlink:type="simple" xlink:show="replace" xlink:actuate="onRequest" xlink:href="javascript:locateTree('Y6101');">Y6101</a>
</tspan>
</text>
<path class="stroke4" d="M 5888,1929 l 30,0 m 14,0 l 30,0 m 14,0 l 30,0 m 14,0 l 31,0 m 14,0 l 30,0 m 14,0 l 30,0 m 14,0 l 31,0 m 14,0 l 30,0 m 14,0 l 30,0 m 14,0 l 30,0 m 15,0 l 30,0 m 14,0 l 30,0"></path>
<path style="fill:none;stroke:#000000;stroke-width:15" d="M 6420,1943 l 0,491"></path>
<text class="t2"><tspan x="6459" y="2081">P_EVZ2P</tspan>

<tspan x="6459" y="2136">0.75</tspan>

<tspan x="6459" y="2180">WS</tspan>
</text>
<path style="fill:none;stroke:#000000;stroke-width:15" d="M 6747,1943 l 0,491"></path>
<text class="t2"><tspan x="6786" y="2136">0.75</tspan>

<tspan x="6786" y="2180">RT</tspan>
</text>
<path class="white" d="M 6434,2461 l -27,0 0,-27 27,0 0,27 z"></path>
<path class="black" d="M 6421,2461 l -1,0 0,-11 1,0 0,11 z"></path>
<path class="stroke4" d="M 6421,2461 l -1,0 0,-11 1,0 0,11"></path>
<path class="stroke6" d="M 6407,2447 l 0,-3 1,-1 0,-2 6,-6 2,0 1,-1 6,0 1,1 2,0 6,6 0,2 1,1 0,3"></path>
<text class="t2"><tspan x="6359" y="2425">1</tspan>
</text>
<path class="stroke4" d="M 6433,1929 l 30,0 m 15,0 l 30,0 m 15,0 l 30,0 m 15,0 l 30,0 m 15,0 l 30,0 m 15,0 l 30,0 m 15,0 l 30,0 m -300,518 l 30,0 m 15,0 l 30,0 m 15,0 l 30,0 m 15,0 l 30,0 m 15,0 l 30,0 m 15,0 l 30,0 m 15,0 l 30,0"></path>
<path class="white" d="M 6761,2461 l -27,0 0,-27 27,0 0,27 z"></path>
<path class="black" d="M 6748,2461 l -1,0 0,-11 1,0 0,11 z"></path>
<path class="stroke4" d="M 6748,2461 l -1,0 0,-11 1,0 0,11"></path>
<path class="stroke6" d="M 6734,2447 l 0,-3 1,-1 0,-1 1,-1 0,-1 4,-4 1,0 1,-1 1,0 1,-1 7,0 1,1 1,0 1,1 1,0 4,4 0,1 1,1 0,1 1,1 0,3"></path>
<text class="t2"><tspan x="6786" y="2425"><a xmlns:xlink="http://www.w3.org/1999/xlink" xlink:type="simple" xlink:show="replace" xlink:actuate="onRequest" xlink:href="javascript:locateTree('X6102');">X6102</a>
</tspan>

<tspan x="6686" y="2425">2</tspan>
</text>
<path class="stroke8" d="M 6311,2461 l 14,0 m 18,0 l 29,0 m 17,0 l 30,0 m 17,0 l 29,0 m 18,0 l 29,0 m 17,0 l 30,0 m 17,0 l 29,0 m 18,0 l 29,0 m 18,0 l 29,0 m 17,0 l 29,0 m 18,0 l 29,0 m 18,0 l 29,0 m 17,0 l 30,0 m 17,0 l 29,0 m 18,0 l 16,0 0,13 m 0,16 l 0,28 m 0,16 l 0,27 m 0,16 l 0,28 m 0,16 l 0,27 m 0,16 l 0,15 -14,0 m -18,0 l -29,0 m -17,0 l -30,0 m -17,0 l -29,0 m -18,0 l -29,0 m -17,0 l -30,0 m -17,0 l -29,0 m -18,0 l -29,0 m -18,0 l -29,0 m -17,0 l -29,0 m -18,0 l -29,0 m -18,0 l -29,0 m -17,0 l -30,0 m -17,0 l -29,0"></path>
<path class="stroke8" d="M 6327,2679 l -16,0 0,-13 m 0,-16 l 0,-28 m 0,-16 l 0,-27 m 0,-16 l 0,-28 m 0,-16 l 0,-27 m 0,-16 l 0,-15"></path>
<text class="t2"><tspan x="7004" y="2493"><a xmlns:xlink="http://www.w3.org/1999/xlink" xlink:type="simple" xlink:show="replace" xlink:actuate="onRequest" xlink:href="javascript:locateTree('Y6102');">Y6102</a>
</tspan>
</text>
<path class="stroke4" d="M 6761,1929 l 30,0 m 14,0 l 30,0 m 14,0 l 30,0 m 14,0 l 31,0 m 14,0 l 30,0 m 14,0 l 30,0 m 14,0 l 31,0 m 14,0 l 30,0 m 14,0 l 30,0 m 14,0 l 30,0 m 15,0 l 30,0 m 14,0 l 30,0"></path>
<path style="fill:none;stroke:#000000;stroke-width:15" d="M 7293,1943 l 0,491"></path>
<text class="t2"><tspan x="7331" y="2081">P_EVZ3P</tspan>

<tspan x="7331" y="2136">0.75</tspan>

<tspan x="7331" y="2180">WS</tspan>
</text>
<path style="fill:none;stroke:#000000;stroke-width:15" d="M 7620,1943 l 0,491"></path>
<text class="t2"><tspan x="7658" y="2136">0.75</tspan>

<tspan x="7658" y="2180">BR</tspan>
</text>
<path class="white" d="M 7307,2461 l -28,0 0,-27 28,0 0,27 z"></path>
<path class="black" d="M 7294,2461 l -2,0 0,-11 2,0 0,11 z"></path>
<path class="stroke4" d="M 7294,2461 l -2,0 0,-11 2,0 0,11"></path>
<path class="stroke6" d="M 7280,2447 l 0,-3 1,-1 0,-2 6,-6 2,0 1,-1 6,0 1,1 2,0 6,6 0,2 1,1 0,3"></path>
<text class="t2"><tspan x="7232" y="2425">1</tspan>
</text>
<path class="stroke4" d="M 7306,1929 l 30,0 m 15,0 l 30,0 m 15,0 l 30,0 m 15,0 l 30,0 m 15,0 l 30,0 m 15,0 l 30,0 m 15,0 l 30,0 m -300,518 l 30,0 m 15,0 l 30,0 m 15,0 l 30,0 m 15,0 l 30,0 m 15,0 l 30,0 m 15,0 l 30,0 m 15,0 l 30,0"></path>
<path class="white" d="M 7634,2461 l -28,0 0,-27 28,0 0,27 z"></path>
<path class="black" d="M 7621,2461 l -2,0 0,-11 2,0 0,11 z"></path>
<path class="stroke4" d="M 7621,2461 l -2,0 0,-11 2,0 0,11"></path>
<path class="stroke6" d="M 7607,2447 l 0,-3 1,-1 0,-2 6,-6 2,0 1,-1 6,0 1,1 2,0 6,6 0,2 1,1 0,3"></path>
<text class="t2"><tspan x="7658" y="2425"><a xmlns:xlink="http://www.w3.org/1999/xlink" xlink:type="simple" xlink:show="replace" xlink:actuate="onRequest" xlink:href="javascript:locateTree('X6103');">X6103</a>
</tspan>

<tspan x="7559" y="2425">2</tspan>
</text>
<path class="stroke8" d="M 7184,2461 l 14,0 m 18,0 l 29,0 m 17,0 l 29,0 m 18,0 l 29,0 m 17,0 l 30,0 m 17,0 l 29,0 m 18,0 l 29,0 m 17,0 l 29,0 m 18,0 l 29,0 m 17,0 l 30,0 m 17,0 l 29,0 m 18,0 l 29,0 m 17,0 l 29,0 m 18,0 l 29,0 m 17,0 l 17,0 0,13 m 0,16 l 0,28 m 0,16 l 0,27 m 0,16 l 0,28 m 0,16 l 0,27 m 0,16 l 0,15 -14,0 m -18,0 l -29,0 m -17,0 l -29,0 m -18,0 l -29,0 m -17,0 l -30,0 m -17,0 l -29,0 m -18,0 l -29,0 m -17,0 l -29,0 m -18,0 l -29,0 m -17,0 l -30,0 m -17,0 l -29,0 m -18,0 l -29,0 m -17,0 l -29,0 m -18,0 l -29,0"></path>
<path class="stroke8" d="M 7201,2679 l -17,0 0,-13 m 0,-16 l 0,-28 m 0,-16 l 0,-27 m 0,-16 l 0,-28 m 0,-16 l 0,-27 m 0,-16 l 0,-15"></path>
<text class="t2"><tspan x="7876" y="2493"><a xmlns:xlink="http://www.w3.org/1999/xlink" xlink:type="simple" xlink:show="replace" xlink:actuate="onRequest" xlink:href="javascript:locateTree('Y6103');">Y6103</a>
</tspan>
</text>
<path class="stroke4" d="M 7633,1929 l 30,0 m 14,0 l 30,0 m 14,0 l 30,0 m 14,0 l 31,0 m 14,0 l 30,0 m 14,0 l 30,0 m 14,0 l 31,0 m 14,0 l 30,0 m 14,0 l 30,0 m 14,0 l 30,0 m 15,0 l 30,0 m 14,0 l 30,0"></path>
<path style="fill:none;stroke:#000000;stroke-width:15" d="M 8165,1943 l 0,491"></path>
<text class="t2"><tspan x="8203" y="2081">P_EVZ4P</tspan>

<tspan x="8203" y="2136">0.75</tspan>

<tspan x="8203" y="2180">WS</tspan>
</text>
<path style="fill:none;stroke:#000000;stroke-width:15" d="M 8492,1943 l 0,491"></path>
<text class="t2"><tspan x="8531" y="2136">0.75</tspan>

<tspan x="8531" y="2180">OR</tspan>
</text>
<path class="white" d="M 8179,2461 l -27,0 0,-27 27,0 0,27 z"></path>
<path class="black" d="M 8166,2461 l -2,0 0,-11 2,0 0,11 z"></path>
<path class="stroke4" d="M 8166,2461 l -2,0 0,-11 2,0 0,11"></path>
<path class="stroke6" d="M 8152,2447 l 0,-3 1,-1 0,-2 6,-6 2,0 1,-1 6,0 1,1 2,0 6,6 0,2 1,1 0,3"></path>
<text class="t2"><tspan x="8104" y="2425">1</tspan>
</text>
<path class="stroke4" d="M 8178,1929 l 30,0 m 15,0 l 30,0 m 15,0 l 30,0 m 15,0 l 30,0 m 15,0 l 30,0 m 15,0 l 30,0 m 15,0 l 30,0 m -300,518 l 30,0 m 15,0 l 30,0 m 15,0 l 30,0 m 15,0 l 30,0 m 15,0 l 30,0 m 15,0 l 30,0 m 15,0 l 30,0"></path>
<path class="white" d="M 8506,2461 l -27,0 0,-27 27,0 0,27 z"></path>
<path class="black" d="M 8493,2461 l -1,0 0,-11 1,0 0,11 z"></path>
<path class="stroke4" d="M 8493,2461 l -1,0 0,-11 1,0 0,11"></path>
<path class="stroke6" d="M 8479,2447 l 0,-3 1,-1 0,-1 1,-1 0,-1 4,-4 1,0 1,-1 1,0 1,-1 7,0 1,1 1,0 1,1 1,0 4,4 0,1 1,1 0,1 1,1 0,3"></path>
<text class="t2"><tspan x="8531" y="2425"><a xmlns:xlink="http://www.w3.org/1999/xlink" xlink:type="simple" xlink:show="replace" xlink:actuate="onRequest" xlink:href="javascript:locateTree('X6104');">X6104</a>
</tspan>

<tspan x="8431" y="2425">2</tspan>
</text>
<path class="stroke8" d="M 8056,2461 l 14,0 m 18,0 l 29,0 m 17,0 l 29,0 m 18,0 l 29,0 m 17,0 l 30,0 m 17,0 l 29,0 m 18,0 l 29,0 m 17,0 l 29,0 m 18,0 l 29,0 m 17,0 l 30,0 m 17,0 l 29,0 m 18,0 l 29,0 m 17,0 l 29,0 m 18,0 l 29,0 m 17,0 l 17,0 0,13 m 0,16 l 0,28 m 0,16 l 0,27 m 0,16 l 0,28 m 0,16 l 0,27 m 0,16 l 0,15 -14,0 m -18,0 l -29,0 m -17,0 l -29,0 m -18,0 l -29,0 m -17,0 l -30,0 m -17,0 l -29,0 m -18,0 l -29,0 m -17,0 l -29,0 m -18,0 l -29,0 m -17,0 l -30,0 m -17,0 l -29,0 m -18,0 l -29,0 m -17,0 l -29,0 m -18,0 l -29,0"></path>
<path class="stroke8" d="M 8073,2679 l -17,0 0,-13 m 0,-16 l 0,-28 m 0,-16 l 0,-27 m 0,-16 l 0,-28 m 0,-16 l 0,-27 m 0,-16 l 0,-15"></path>
<text class="t2"><tspan x="8749" y="2493"><a xmlns:xlink="http://www.w3.org/1999/xlink" xlink:type="simple" xlink:show="replace" xlink:actuate="onRequest" xlink:href="javascript:locateTree('Y6104');">Y6104</a>
</tspan>
</text>
<path class="stroke4" d="M 8506,1929 l 30,0 m 14,0 l 30,0 m 14,0 l 30,0 m 14,0 l 31,0 m 14,0 l 30,0 m 14,0 l 30,0 m 14,0 l 31,0 m 14,0 l 30,0 m 14,0 l 30,0 m 14,0 l 30,0 m 15,0 l 30,0 m 14,0 l 30,0"></path>
<path style="fill:none;stroke:#000000;stroke-width:15" d="M 9038,1943 l 0,491"></path>
<text class="t2"><tspan x="9076" y="2081">P_EVZ5P</tspan>

<tspan x="9076" y="2136">0.75</tspan>

<tspan x="9076" y="2180">WS</tspan>
</text>
<path style="fill:none;stroke:#000000;stroke-width:15" d="M 9365,1943 l 0,491"></path>
<text class="t2"><tspan x="9403" y="2081">P_EVZ5M</tspan>

<tspan x="9403" y="2136">0.75</tspan>

<tspan x="9403" y="2180">RT</tspan>
</text>
<path class="white" d="M 9051,2461 l -27,0 0,-27 27,0 0,27 z"></path>
<path class="black" d="M 9039,2461 l -2,0 0,-11 2,0 0,11 z"></path>
<path class="stroke4" d="M 9039,2461 l -2,0 0,-11 2,0 0,11"></path>
<path class="stroke6" d="M 9025,2447 l 0,-3 1,-1 0,-2 6,-6 2,0 1,-1 6,0 1,1 2,0 6,6 0,2 1,1 0,3"></path>
<text class="t2"><tspan x="8976" y="2425">1</tspan>
</text>
<path class="stroke4" d="M 9051,1929 l 30,0 m 15,0 l 30,0 m 15,0 l 30,0 m 15,0 l 30,0 m 15,0 l 30,0 m 15,0 l 30,0 m 15,0 l 30,0 m -300,518 l 30,0 m 15,0 l 30,0 m 15,0 l 30,0 m 15,0 l 30,0 m 15,0 l 30,0 m 15,0 l 30,0 m 15,0 l 30,0"></path>
<path class="white" d="M 9379,2461 l -28,0 0,-27 28,0 0,27 z"></path>
<path class="black" d="M 9366,2461 l -2,0 0,-11 2,0 0,11 z"></path>
<path class="stroke4" d="M 9366,2461 l -2,0 0,-11 2,0 0,11"></path>
<path class="stroke6" d="M 9352,2447 l 0,-3 1,-1 0,-2 6,-6 2,0 1,-1 6,0 1,1 2,0 6,6 0,2 1,1 0,3"></path>
<text class="t2"><tspan x="9403" y="2425"><a xmlns:xlink="http://www.w3.org/1999/xlink" xlink:type="simple" xlink:show="replace" xlink:actuate="onRequest" xlink:href="javascript:locateTree('X6105');">X6105</a>
</tspan>

<tspan x="9304" y="2425">2</tspan>
</text>
<path class="stroke8" d="M 8929,2461 l 14,0 m 18,0 l 29,0 m 17,0 l 29,0 m 18,0 l 29,0 m 17,0 l 30,0 m 17,0 l 29,0 m 18,0 l 29,0 m 17,0 l 29,0 m 18,0 l 29,0 m 17,0 l 30,0 m 17,0 l 29,0 m 18,0 l 29,0 m 17,0 l 29,0 m 18,0 l 29,0 m 17,0 l 17,0 0,13 m 0,16 l 0,28 m 0,16 l 0,27 m 0,16 l 0,28 m 0,16 l 0,27 m 0,16 l 0,15 -14,0 m -18,0 l -29,0 m -17,0 l -29,0 m -18,0 l -29,0 m -17,0 l -30,0 m -17,0 l -29,0 m -18,0 l -29,0 m -17,0 l -29,0 m -18,0 l -29,0 m -17,0 l -30,0 m -17,0 l -29,0 m -18,0 l -29,0 m -17,0 l -29,0 m -18,0 l -29,0"></path>
<path class="stroke8" d="M 8946,2679 l -17,0 0,-13 m 0,-16 l 0,-28 m 0,-16 l 0,-27 m 0,-16 l 0,-28 m 0,-16 l 0,-27 m 0,-16 l 0,-15"></path>
<text class="t2"><tspan x="9621" y="2493"><a xmlns:xlink="http://www.w3.org/1999/xlink" xlink:type="simple" xlink:show="replace" xlink:actuate="onRequest" xlink:href="javascript:locateTree('Y6105');">Y6105</a>
</tspan>
</text>
<path class="stroke4" d="M 9378,1929 l 30,0 m 14,0 l 30,0 m 14,0 l 30,0 m 14,0 l 31,0 m 14,0 l 30,0 m 14,0 l 30,0 m 14,0 l 31,0 m 14,0 l 30,0 m 14,0 l 30,0 m 14,0 l 30,0 m 15,0 l 30,0 m 14,0 l 30,0"></path>
<path style="fill:none;stroke:#000000;stroke-width:15" d="M 9910,1943 l 0,491"></path>
<text class="t2"><tspan x="9948" y="2081">P_EVZ6P</tspan>

<tspan x="9948" y="2136">0.75</tspan>

<tspan x="9948" y="2180">WS</tspan>
</text>
<path style="fill:none;stroke:#000000;stroke-width:15" d="M 10237,1943 l 0,491"></path>
<text class="t2"><tspan x="10276" y="2081">P_EVZ6M</tspan>

<tspan x="10276" y="2136">0.75</tspan>

<tspan x="10276" y="2180">BR</tspan>
</text>
<path class="white" d="M 9924,2461 l -27,0 0,-27 27,0 0,27 z"></path>
<path class="black" d="M 9911,2461 l -2,0 0,-11 2,0 0,11 z"></path>
<path class="stroke4" d="M 9911,2461 l -2,0 0,-11 2,0 0,11"></path>
<path class="stroke6" d="M 9897,2447 l 0,-3 1,-1 0,-2 6,-6 2,0 1,-1 6,0 1,1 2,0 6,6 0,2 1,1 0,3"></path>
<text class="t2"><tspan x="9849" y="2425">1</tspan>
</text>
<path class="stroke4" d="M 9923,1929 l 30,0 m 15,0 l 30,0 m 15,0 l 30,0 m 15,0 l 30,0 m 15,0 l 30,0 m 15,0 l 30,0 m 15,0 l 30,0 m -300,518 l 30,0 m 15,0 l 30,0 m 15,0 l 30,0 m 15,0 l 30,0 m 15,0 l 30,0 m 15,0 l 30,0 m 15,0 l 30,0"></path>
<path class="white" d="M 10251,2461 l -27,0 0,-27 27,0 0,27 z"></path>
<path class="black" d="M 10238,2461 l -1,0 0,-11 1,0 0,11 z"></path>
<path class="stroke4" d="M 10238,2461 l -1,0 0,-11 1,0 0,11"></path>
<path class="stroke6" d="M 10224,2447 l 0,-3 1,-1 0,-2 6,-6 2,0 1,-1 6,0 1,1 2,0 6,6 0,2 1,1 0,3"></path>
<text class="t2"><tspan x="10276" y="2425"><a xmlns:xlink="http://www.w3.org/1999/xlink" xlink:type="simple" xlink:show="replace" xlink:actuate="onRequest" xlink:href="javascript:locateTree('X6106');">X6106</a>
</tspan>

<tspan x="10176" y="2425">2</tspan>
</text>
<path class="stroke8" d="M 9801,2461 l 14,0 m 18,0 l 29,0 m 17,0 l 29,0 m 18,0 l 29,0 m 17,0 l 30,0 m 17,0 l 29,0 m 18,0 l 29,0 m 17,0 l 29,0 m 18,0 l 29,0 m 17,0 l 30,0 m 17,0 l 29,0 m 18,0 l 29,0 m 17,0 l 29,0 m 18,0 l 29,0 m 17,0 l 17,0 0,13 m 0,16 l 0,28 m 0,16 l 0,27 m 0,16 l 0,28 m 0,16 l 0,27 m 0,16 l 0,15 -14,0 m -18,0 l -29,0 m -17,0 l -29,0 m -18,0 l -29,0 m -17,0 l -30,0 m -17,0 l -29,0 m -18,0 l -29,0 m -17,0 l -29,0 m -18,0 l -29,0 m -17,0 l -30,0 m -17,0 l -29,0 m -18,0 l -29,0 m -17,0 l -29,0 m -18,0 l -29,0"></path>
<path class="stroke8" d="M 9818,2679 l -17,0 0,-13 m 0,-16 l 0,-28 m 0,-16 l 0,-27 m 0,-16 l 0,-28 m 0,-16 l 0,-27 m 0,-16 l 0,-15"></path>
<text class="t2"><tspan x="6786" y="2081">P_EVZ2M</tspan>

<tspan x="7658" y="2081">P_EVZ3M</tspan>

<tspan x="8531" y="2081">P_EVZ4M</tspan>

<tspan x="10494" y="2493"><a xmlns:xlink="http://www.w3.org/1999/xlink" xlink:type="simple" xlink:show="replace" xlink:actuate="onRequest" xlink:href="javascript:locateTree('Y6106');">Y6106</a>
</tspan>
</text>
<path class="white" d="M 5534,1916 l 27,0 0,27 -27,0 0,-27 z"></path>
<path class="black" d="M 5547,1916 l 2,0 0,11 -2,0 0,-11 z"></path>
<path class="stroke4" d="M 5547,1916 l 2,0 0,11 -2,0 0,-11"></path>
<path class="stroke6" d="M 5561,1929 l 0,3 -1,1 0,2 -6,6 -2,0 -1,1 -6,0 -1,-1 -2,0 -6,-6 0,-2 -1,-1 0,-3"></path>
<text class="t2"><tspan x="5487" y="1975">1</tspan>
</text>
<path class="white" d="M 10224,1916 l 27,0 0,27 -27,0 0,-27 z"></path>
<path class="black" d="M 10236,1916 l 2,0 0,11 -2,0 0,-11 z"></path>
<path class="stroke4" d="M 10236,1916 l 2,0 0,11 -2,0 0,-11"></path>
<path class="stroke6" d="M 10250,1929 l 0,3 -1,1 0,2 -6,6 -2,0 -1,1 -6,0 -1,-1 -2,0 -6,-6 0,-2 -1,-1 0,-3"></path>
<text class="t2"><tspan x="10276" y="1975"><a xmlns:xlink="http://www.w3.org/1999/xlink" xlink:type="simple" xlink:show="replace" xlink:actuate="onRequest" xlink:href="javascript:locateTree('X60006');">X60006</a>
</tspan>

<tspan x="10153" y="1975">12</tspan>
</text>
<path class="white" d="M 5861,1916 l 28,0 0,27 -28,0 0,-27 z"></path>
<path class="black" d="M 5874,1916 l 2,0 0,11 -2,0 0,-11 z"></path>
<path class="stroke4" d="M 5874,1916 l 2,0 0,11 -2,0 0,-11"></path>
<path class="stroke6" d="M 5888,1929 l 0,3 -1,1 0,2 -6,6 -2,0 -1,1 -6,0 -1,-1 -2,0 -6,-6 0,-2 -1,-1 0,-3"></path>
<text class="t2"><tspan x="5814" y="1975">7</tspan>
</text>
<path class="white" d="M 6407,1916 l 27,0 0,27 -27,0 0,-27 z"></path>
<path class="black" d="M 6419,1916 l 2,0 0,11 -2,0 0,-11 z"></path>
<path class="stroke4" d="M 6419,1916 l 2,0 0,11 -2,0 0,-11"></path>
<path class="stroke6" d="M 6433,1929 l 0,3 -1,1 0,2 -6,6 -2,0 -1,1 -6,0 -1,-1 -2,0 -6,-6 0,-2 -1,-1 0,-3"></path>
<text class="t2"><tspan x="6359" y="1975">2</tspan>
</text>
<path class="white" d="M 6734,1916 l 27,0 0,27 -27,0 0,-27 z"></path>
<path class="black" d="M 6747,1916 l 1,0 0,11 -1,0 0,-11 z"></path>
<path class="stroke4" d="M 6747,1916 l 1,0 0,11 -1,0 0,-11"></path>
<path class="stroke6" d="M 6761,1929 l 0,3 -1,1 0,1 -1,1 0,1 -4,4 -1,0 -1,1 -1,0 -1,1 -7,0 -1,-1 -1,0 -1,-1 -1,0 -4,-4 0,-1 -1,-1 0,-1 -1,-1 0,-3"></path>
<text class="t2"><tspan x="6686" y="1975">8</tspan>
</text>
<path class="white" d="M 7279,1916 l 27,0 0,27 -27,0 0,-27 z"></path>
<path class="black" d="M 7292,1916 l 2,0 0,11 -2,0 0,-11 z"></path>
<path class="stroke4" d="M 7292,1916 l 2,0 0,11 -2,0 0,-11"></path>
<path class="stroke6" d="M 7306,1929 l 0,3 -1,1 0,2 -6,6 -2,0 -1,1 -6,0 -1,-1 -2,0 -6,-6 0,-2 -1,-1 0,-3"></path>
<text class="t2"><tspan x="7231" y="1975">3</tspan>
</text>
<path class="white" d="M 7606,1916 l 27,0 0,27 -27,0 0,-27 z"></path>
<path class="black" d="M 7619,1916 l 2,0 0,11 -2,0 0,-11 z"></path>
<path class="stroke4" d="M 7619,1916 l 2,0 0,11 -2,0 0,-11"></path>
<path class="stroke6" d="M 7633,1929 l 0,3 -1,1 0,2 -6,6 -2,0 -1,1 -6,0 -1,-1 -2,0 -6,-6 0,-2 -1,-1 0,-3"></path>
<text class="t2"><tspan x="7559" y="1975">9</tspan>
</text>
<path class="white" d="M 8151,1916 l 28,0 0,27 -28,0 0,-27 z"></path>
<path class="black" d="M 8164,1916 l 2,0 0,11 -2,0 0,-11 z"></path>
<path class="stroke4" d="M 8164,1916 l 2,0 0,11 -2,0 0,-11"></path>
<path class="stroke6" d="M 8178,1929 l 0,3 -1,1 0,2 -6,6 -2,0 -1,1 -6,0 -1,-1 -2,0 -6,-6 0,-2 -1,-1 0,-3"></path>
<text class="t2"><tspan x="8104" y="1975">4</tspan>
</text>
<path class="white" d="M 8479,1916 l 27,0 0,27 -27,0 0,-27 z"></path>
<path class="black" d="M 8491,1916 l 2,0 0,11 -2,0 0,-11 z"></path>
<path class="stroke4" d="M 8491,1916 l 2,0 0,11 -2,0 0,-11"></path>
<path class="stroke6" d="M 8506,1929 l 0,3 -1,1 0,1 -1,1 0,1 -4,4 -1,0 -1,1 -1,0 -1,1 -7,0 -1,-1 -1,0 -1,-1 -1,0 -4,-4 0,-1 -1,-1 0,-1 -1,-1 0,-3"></path>
<text class="t2"><tspan x="8408" y="1975">10</tspan>
</text>
<path class="white" d="M 9024,1916 l 27,0 0,27 -27,0 0,-27 z"></path>
<path class="black" d="M 9037,1916 l 1,0 0,11 -1,0 0,-11 z"></path>
<path class="stroke4" d="M 9037,1916 l 1,0 0,11 -1,0 0,-11"></path>
<path class="stroke6" d="M 9051,1929 l 0,3 -1,1 0,2 -6,6 -2,0 -1,1 -6,0 -1,-1 -2,0 -6,-6 0,-2 -1,-1 0,-3"></path>
<text class="t2"><tspan x="8976" y="1975">5</tspan>
</text>
<path class="white" d="M 9351,1916 l 27,0 0,27 -27,0 0,-27 z"></path>
<path class="black" d="M 9364,1916 l 2,0 0,11 -2,0 0,-11 z"></path>
<path class="stroke4" d="M 9364,1916 l 2,0 0,11 -2,0 0,-11"></path>
<path class="stroke6" d="M 9378,1929 l 0,3 -1,1 0,2 -6,6 -2,0 -1,1 -6,0 -1,-1 -2,0 -6,-6 0,-2 -1,-1 0,-3"></path>
<text class="t2"><tspan x="9284" y="1975">11</tspan>
</text>
<path class="white" d="M 9896,1916 l 28,0 0,27 -28,0 0,-27 z"></path>
<path class="black" d="M 9909,1916 l 2,0 0,11 -2,0 0,-11 z"></path>
<path class="stroke4" d="M 9909,1916 l 2,0 0,11 -2,0 0,-11"></path>
<path class="stroke6" d="M 9923,1929 l 0,3 -1,1 0,2 -6,6 -2,0 -1,1 -6,0 -1,-1 -2,0 -6,-6 0,-2 -1,-1 0,-3"></path>
<text class="t2"><tspan x="9849" y="1975">6</tspan>
</text>
<path class="stroke8" d="M 204,1698 l 10251,0 0,218 -10251,0 0,-218"></path>
</g>
</svg>
</g></svg>