<svg data-v-f35fd5a0="" xmlns="http://www.w3.org/2000/svg" xmlns:xlink="http://www.w3.org/1999/xlink" xmlns:ev="http://www.w3.org/2001/xml-events" style="overflow: hidden; width: 100%; min-height: 100vh;"><g id="viewport-20201011215142767" class="svg-pan-zoom_viewport" transform="matrix(0.9143905128456262,0,0,0.9143905128456262,54.29473837229423,345.0394693865048)" style="transform: matrix(0.914391, 0, 0, 0.914391, 54.2947, 345.039);"><!--?xml version="1.0" encoding="UTF-8"?--> 
<!--?xml-stylesheet href="../../styles/svg.css" type="text/css"?--> 
<svg xmlns="http://www.w3.org/2000/svg" id="svgid" xml:space="preserve" viewBox="37  607 8110 2634" preserveAspectRatio="xMinYMin meet" zoomAndPan="magnify" version="1.0" width="100%" height="100%" contentscripttype="text/ecmascript" contentstyletype="text/css" xmlns:xlink="http://www.w3.org/1999/xlink">
<title>Schaltplan Viewer - Copyright BMW AG 2007</title>
<style xml:space="preserve" type="text/css">path {fill-rule:evenodd; stroke-linecap:round; stroke-linejoin:round}
rect {stroke-linejoin:miter}
text.t1 {font-family:'Courier SWA',monospace;font-size:31;fill:#000000}
path.white {fill:#FFFFFF;stroke:none}
path.black {fill:#000000;stroke:none}
path.stroke3 {fill:none;stroke:#000000;stroke-width:3}
path.stroke4 {fill:none;stroke:#000000;stroke-width:4}
path.stroke5 {fill:none;stroke:#000000;stroke-width:5}
path.stroke6 {fill:none;stroke:#000000;stroke-width:6}
path.stroke7 {fill:none;stroke:#000000;stroke-width:7 }
path.stroke8 {fill:none;stroke:#000000;stroke-width:8 }
path.stroke9 {fill:none;stroke:#000000;stroke-width:9 }
path.stroke10 {fill:none;stroke:#000000;stroke-width:10 }
path.stroke11 {fill:none;stroke:#000000;stroke-width:11}
path.stroke14 {fill:none;stroke:#000000;stroke-width:14}</style>
<desc>customer: BMW
date: 11.05.2007
time: 08:33:01
language: British engl
project: E65
version: 1.0</desc>
<g id="gid">
<text class="t1"></text>
<path style="fill:#DFDFDF;stroke:none" d="M 5984,1588 l 1091,0 0,328 -1091,0 0,-328 z"></path>
<path class="stroke8" d="M 5984,1588 l 1091,0 0,328 -1091,0 0,-328"></path>
<path style="fill:#DFDFDF;stroke:none" d="M 204,1588 l 2508,0 0,328 -2508,0 0,-328 z"></path>
<path class="stroke8" d="M 204,1588 l 2508,0 0,328 -2508,0 0,-328"></path>
<path style="fill:#DFDFDF;stroke:none" d="M 204,2570 l 6434,0 0,327 -6434,0 0,-327 z"></path>
<path class="stroke8" d="M 204,2570 l 15,0 m 18,0 l 30,0 m 18,0 l 30,0 m 18,0 l 30,0 m 18,0 l 30,0 m 18,0 l 30,0 m 18,0 l 30,0 m 18,0 l 30,0 m 18,0 l 30,0 m 18,0 l 30,0 m 18,0 l 30,0 m 18,0 l 30,0 m 18,0 l 30,0 m 18,0 l 30,0 m 18,0 l 30,0 m 18,0 l 30,0 m 18,0 l 30,0 m 18,0 l 30,0 m 18,0 l 30,0 m 18,0 l 30,0 m 18,0 l 30,0 m 18,0 l 30,0 m 18,0 l 30,0 m 18,0 l 30,0 m 18,0 l 30,0 m 18,0 l 30,0 m 18,0 l 30,0 m 18,0 l 30,0 m 18,0 l 30,0 m 18,0 l 30,0 m 18,0 l 30,0 m 18,0 l 30,0 m 18,0 l 30,0"></path>
<path class="stroke8" d="M 1773,2570 l 30,0 m 18,0 l 30,0 m 18,0 l 30,0 m 18,0 l 30,0 m 18,0 l 30,0 m 18,0 l 30,0 m 18,0 l 30,0 m 18,0 l 30,0 m 18,0 l 30,0 m 18,0 l 30,0 m 18,0 l 30,0 m 18,0 l 30,0 m 18,0 l 30,0 m 18,0 l 30,0 m 18,0 l 30,0 m 18,0 l 30,0 m 18,0 l 30,0 m 18,0 l 30,0 m 18,0 l 30,0 m 18,0 l 30,0 m 18,0 l 30,0 m 18,0 l 30,0 m 18,0 l 30,0 m 18,0 l 30,0 m 18,0 l 30,0 m 18,0 l 30,0 m 18,0 l 30,0 m 18,0 l 30,0 m 18,0 l 30,0 m 18,0 l 30,0 m 18,0 l 30,0 m 18,0 l 30,0 m 18,0 l 30,0"></path>
<path class="stroke8" d="M 3357,2570 l 30,0 m 18,0 l 30,0 m 18,0 l 30,0 m 18,0 l 30,0 m 18,0 l 30,0 m 18,0 l 30,0 m 18,0 l 30,0 m 18,0 l 30,0 m 18,0 l 30,0 m 18,0 l 30,0 m 18,0 l 30,0 m 18,0 l 30,0 m 18,0 l 30,0 m 18,0 l 30,0 m 18,0 l 30,0 m 18,0 l 30,0 m 18,0 l 30,0 m 18,0 l 30,0 m 18,0 l 30,0 m 18,0 l 30,0 m 18,0 l 30,0 m 18,0 l 30,0 m 18,0 l 30,0 m 18,0 l 30,0 m 18,0 l 30,0 m 18,0 l 30,0 m 18,0 l 30,0 m 18,0 l 30,0 m 18,0 l 30,0 m 18,0 l 30,0 m 18,0 l 30,0 m 18,0 l 30,0 m 18,0 l 30,0"></path>
<path class="stroke8" d="M 4941,2570 l 30,0 m 18,0 l 30,0 m 18,0 l 30,0 m 18,0 l 30,0 m 18,0 l 30,0 m 18,0 l 30,0 m 18,0 l 30,0 m 18,0 l 30,0 m 18,0 l 30,0 m 18,0 l 30,0 m 18,0 l 30,0 m 18,0 l 30,0 m 18,0 l 30,0 m 18,0 l 30,0 m 18,0 l 30,0 m 18,0 l 30,0 m 18,0 l 30,0 m 18,0 l 30,0 m 18,0 l 30,0 m 18,0 l 30,0 m 18,0 l 30,0 m 18,0 l 30,0 m 18,0 l 30,0 m 18,0 l 30,0 m 18,0 l 30,0 m 18,0 l 30,0 m 18,0 l 30,0 m 18,0 l 30,0 m 18,0 l 30,0 m 18,0 l 30,0 m 18,0 l 30,0 m 18,0 l 30,0 m 18,0 l 30,0"></path>
<path class="stroke8" d="M 6525,2570 l 30,0 m 18,0 l 30,0 m 18,0 l 17,0 0,14 m 0,18 l 0,29 m 0,17 l 0,29 m 0,18 l 0,29 m 0,17 l 0,30 m 0,17 l 0,29 m 0,18 l 0,29 m 0,17 l 0,16 -15,0 m -18,0 l -30,0 m -18,0 l -30,0 m -18,0 l -30,0 m -18,0 l -30,0 m -18,0 l -30,0 m -18,0 l -30,0 m -18,0 l -30,0 m -18,0 l -30,0 m -18,0 l -30,0 m -18,0 l -30,0 m -18,0 l -30,0 m -18,0 l -30,0 m -18,0 l -30,0 m -18,0 l -30,0 m -18,0 l -30,0 m -18,0 l -30,0 m -18,0 l -30,0 m -18,0 l -30,0 m -18,0 l -30,0 m -18,0 l -30,0 m -18,0 l -30,0 m -18,0 l -30,0 m -18,0 l -30,0"></path>
<path class="stroke8" d="M 5501,2897 l -30,0 m -18,0 l -30,0 m -18,0 l -30,0 m -18,0 l -30,0 m -18,0 l -30,0 m -18,0 l -30,0 m -18,0 l -30,0 m -18,0 l -30,0 m -18,0 l -30,0 m -18,0 l -30,0 m -18,0 l -30,0 m -18,0 l -30,0 m -18,0 l -30,0 m -18,0 l -30,0 m -18,0 l -30,0 m -18,0 l -30,0 m -18,0 l -30,0 m -18,0 l -30,0 m -18,0 l -30,0 m -18,0 l -30,0 m -18,0 l -30,0 m -18,0 l -30,0 m -18,0 l -30,0 m -18,0 l -30,0 m -18,0 l -30,0 m -18,0 l -30,0 m -18,0 l -30,0 m -18,0 l -30,0 m -18,0 l -30,0 m -18,0 l -30,0 m -18,0 l -30,0 m -18,0 l -30,0 m -18,0 l -30,0"></path>
<path class="stroke8" d="M 3917,2897 l -30,0 m -18,0 l -30,0 m -18,0 l -30,0 m -18,0 l -30,0 m -18,0 l -30,0 m -18,0 l -30,0 m -18,0 l -30,0 m -18,0 l -30,0 m -18,0 l -30,0 m -18,0 l -30,0 m -18,0 l -30,0 m -18,0 l -30,0 m -18,0 l -30,0 m -18,0 l -30,0 m -18,0 l -30,0 m -18,0 l -30,0 m -18,0 l -30,0 m -18,0 l -30,0 m -18,0 l -30,0 m -18,0 l -30,0 m -18,0 l -30,0 m -18,0 l -30,0 m -18,0 l -30,0 m -18,0 l -30,0 m -18,0 l -30,0 m -18,0 l -30,0 m -18,0 l -30,0 m -18,0 l -30,0 m -18,0 l -30,0 m -18,0 l -30,0 m -18,0 l -30,0 m -18,0 l -30,0 m -18,0 l -30,0"></path>
<path class="stroke8" d="M 2333,2897 l -30,0 m -18,0 l -30,0 m -18,0 l -30,0 m -18,0 l -30,0 m -18,0 l -30,0 m -18,0 l -30,0 m -18,0 l -30,0 m -18,0 l -30,0 m -18,0 l -30,0 m -18,0 l -30,0 m -18,0 l -30,0 m -18,0 l -30,0 m -18,0 l -30,0 m -18,0 l -30,0 m -18,0 l -30,0 m -18,0 l -30,0 m -18,0 l -30,0 m -18,0 l -30,0 m -18,0 l -30,0 m -18,0 l -30,0 m -18,0 l -30,0 m -18,0 l -30,0 m -18,0 l -30,0 m -18,0 l -30,0 m -18,0 l -30,0 m -18,0 l -30,0 m -18,0 l -30,0 m -18,0 l -30,0 m -18,0 l -30,0 m -18,0 l -30,0 m -18,0 l -30,0 m -18,0 l -30,0 m -18,0 l -30,0"></path>
<path class="stroke8" d="M 749,2897 l -30,0 m -18,0 l -30,0 m -18,0 l -30,0 m -18,0 l -30,0 m -18,0 l -30,0 m -18,0 l -30,0 m -18,0 l -30,0 m -18,0 l -30,0 m -18,0 l -30,0 m -18,0 l -30,0 m -18,0 l -30,0 m -18,0 l -17,0 0,-14 m 0,-18 l 0,-29 m 0,-17 l 0,-29 m 0,-18 l 0,-29 m 0,-17 l 0,-30 m 0,-17 l 0,-29 m 0,-18 l 0,-29 m 0,-17 l 0,-16"></path>
<path style="fill:#DFDFDF;stroke:none" d="M 3585,1588 l 1418,0 0,328 -1418,0 0,-328 z"></path>
<path class="stroke8" d="M 3585,1588 l 1418,0 0,328 -1418,0 0,-328"></path>
<path style="fill:#DFDFDF;stroke:none" d="M 3585,825 l 3490,0 0,327 -3490,0 0,-327 z"></path>
<path class="stroke8" d="M 3585,825 l 14,0 m 18,0 l 30,0 m 18,0 l 30,0 m 18,0 l 30,0 m 17,0 l 30,0 m 18,0 l 30,0 m 18,0 l 30,0 m 18,0 l 29,0 m 18,0 l 30,0 m 18,0 l 30,0 m 18,0 l 29,0 m 18,0 l 30,0 m 18,0 l 30,0 m 18,0 l 30,0 m 17,0 l 30,0 m 18,0 l 30,0 m 18,0 l 30,0 m 18,0 l 29,0 m 18,0 l 30,0 m 18,0 l 30,0 m 18,0 l 29,0 m 18,0 l 30,0 m 18,0 l 30,0 m 18,0 l 30,0 m 17,0 l 30,0 m 18,0 l 30,0 m 18,0 l 30,0 m 18,0 l 29,0 m 18,0 l 30,0 m 18,0 l 30,0 m 18,0 l 29,0 m 18,0 l 30,0 m 18,0 l 30,0"></path>
<path class="stroke8" d="M 5144,825 l 30,0 m 17,0 l 30,0 m 18,0 l 30,0 m 18,0 l 30,0 m 18,0 l 29,0 m 18,0 l 30,0 m 18,0 l 30,0 m 18,0 l 29,0 m 18,0 l 30,0 m 18,0 l 30,0 m 18,0 l 30,0 m 17,0 l 30,0 m 18,0 l 30,0 m 18,0 l 30,0 m 18,0 l 29,0 m 18,0 l 30,0 m 18,0 l 30,0 m 18,0 l 29,0 m 18,0 l 30,0 m 18,0 l 30,0 m 18,0 l 30,0 m 17,0 l 30,0 m 18,0 l 30,0 m 18,0 l 30,0 m 18,0 l 29,0 m 18,0 l 30,0 m 18,0 l 30,0 m 18,0 l 29,0 m 18,0 l 30,0 m 18,0 l 30,0 m 18,0 l 30,0 m 17,0 l 30,0 m 18,0 l 30,0"></path>
<path class="stroke8" d="M 6718,825 l 30,0 m 18,0 l 29,0 m 18,0 l 30,0 m 18,0 l 30,0 m 18,0 l 29,0 m 18,0 l 30,0 m 18,0 l 30,0 m 18,0 l 23,0 0,14 m 0,18 l 0,29 m 0,17 l 0,29 m 0,18 l 0,29 m 0,17 l 0,30 m 0,17 l 0,29 m 0,18 l 0,29 m 0,17 l 0,16 -14,0 m -18,0 l -30,0 m -18,0 l -30,0 m -18,0 l -30,0 m -17,0 l -30,0 m -18,0 l -30,0 m -18,0 l -30,0 m -18,0 l -29,0 m -18,0 l -30,0 m -18,0 l -30,0 m -18,0 l -29,0 m -18,0 l -30,0 m -18,0 l -30,0 m -18,0 l -30,0 m -17,0 l -30,0 m -18,0 l -30,0 m -18,0 l -30,0 m -18,0 l -29,0 m -18,0 l -30,0"></path>
<path class="stroke8" d="M 6184,1152 l -30,0 m -18,0 l -29,0 m -18,0 l -30,0 m -18,0 l -30,0 m -18,0 l -30,0 m -17,0 l -30,0 m -18,0 l -30,0 m -18,0 l -30,0 m -18,0 l -29,0 m -18,0 l -30,0 m -18,0 l -30,0 m -18,0 l -29,0 m -18,0 l -30,0 m -18,0 l -30,0 m -18,0 l -30,0 m -17,0 l -30,0 m -18,0 l -30,0 m -18,0 l -30,0 m -18,0 l -29,0 m -18,0 l -30,0 m -18,0 l -30,0 m -18,0 l -29,0 m -18,0 l -30,0 m -18,0 l -30,0 m -18,0 l -30,0 m -17,0 l -30,0 m -18,0 l -30,0 m -18,0 l -30,0 m -18,0 l -29,0 m -18,0 l -30,0 m -18,0 l -30,0 m -18,0 l -29,0 m -18,0 l -30,0"></path>
<path class="stroke8" d="M 4610,1152 l -30,0 m -18,0 l -30,0 m -17,0 l -30,0 m -18,0 l -30,0 m -18,0 l -30,0 m -18,0 l -29,0 m -18,0 l -30,0 m -18,0 l -30,0 m -18,0 l -29,0 m -18,0 l -30,0 m -18,0 l -30,0 m -18,0 l -30,0 m -17,0 l -30,0 m -18,0 l -30,0 m -18,0 l -30,0 m -18,0 l -29,0 m -18,0 l -30,0 m -18,0 l -30,0 m -18,0 l -29,0 m -18,0 l -30,0 m -18,0 l -30,0 m -18,0 l -23,0 0,-14 m 0,-18 l 0,-29 m 0,-17 l 0,-29 m 0,-18 l 0,-29 m 0,-17 l 0,-30 m 0,-17 l 0,-29 m 0,-18 l 0,-29 m 0,-17 l 0,-16"></path>
<path style="fill:none;stroke:#000000;stroke-width:15" d="M 4348,1943 l 0,600 m -4035,-600 l 0,600 m 436,-600 l 0,600 m 437,-600 l 0,600 m 436,-600 l 0,600 m 436,-600 l 0,600 m 436,-600 l 0,600 m 1418,-600 l 0,600 m -218,-1364 l 0,382"></path>
<path class="stroke4" d="M 3421,2703 l -4,0 -1,1 -3,0 -1,1 -2,0 -1,1 -1,0 -1,1 -1,0 -2,2 -1,0 -6,6 0,1 -2,2 0,1 -1,1 0,1 -1,1 0,2 -1,1 0,3 -1,1 0,10 1,1 0,2 1,1 0,2 1,1 0,1 1,1 0,1 2,2 0,1 6,6 1,0 2,2 1,0 1,1 1,0 1,1 2,0 1,1 2,0 1,1 11,0 1,-1 2,0 1,-1 2,0 1,-1 1,0 1,-1 1,0 2,-2 1,0 6,-6 0,-1 2,-2 0,-1 1,-1 0,-1 1,-1 0,-2 1,-1 0,-2 1,-1 0,-10 -1,-1 0,-3 -1,-1 0,-2 -1,-1 0,-1 -1,-1 0,-1 -2,-2 0,-1 -6,-6 -1,0 -2,-2 -1,0 -1,-1 -1,0 -1,-1 -2,0 -1,-1 -3,0 -1,-1 -4,0 m -40,68 l 78,0 0,-75 -78,0 0,75 m 39,-32 l 0,24 m -20,-24 l 41,0 m -45,-21 l  12,21 m 37,-21 l -12,21 m -26,-2 l -8,-7 6,-4 2,11"></path>
<text class="t3"><tspan x="6677" y="2579">.</tspan>
</text>
<text class="t2"><tspan x="6677" y="2615"><a xmlns:xlink="http://www.w3.org/1999/xlink" xlink:type="simple" xlink:show="replace" xlink:actuate="onRequest" xlink:href="javascript:locateTree('A6000');">A6000</a>
</tspan>
</text>
<text class="t2"><tspan x="6677" y="2684">DME control unit</tspan>
</text>
<path class="white" d="M 3898,1916 l 27,0 0,27 -27,0 0,-27 z"></path>
<path class="black" d="M 3911,1916 l 2,0 0,11 -2,0 0,-11 z"></path>
<path class="stroke4" d="M 3911,1916 l 2,0 0,11 -2,0 0,-11"></path>
<path class="stroke6" d="M 3925,1929 l 0,3 -1,1 0,2 -6,6 -2,0 -1,1 -6,0 -1,-1 -2,0 -6,-6 0,-2 -1,-1 0,-3"></path>
<text class="t2"><tspan x="3851" y="1975">4</tspan>
</text>
<text class="t3"><tspan x="5041" y="1597">.</tspan>
</text>
<text class="t2"><tspan x="3732" y="1321">R&lt;BLS</tspan>

<tspan x="3732" y="1386">0.5</tspan>

<tspan x="3732" y="1430">VI/WS</tspan>

<tspan x="5041" y="1633"><a xmlns:xlink="http://www.w3.org/1999/xlink" xlink:type="simple" xlink:show="replace" xlink:actuate="onRequest" xlink:href="javascript:locateTree('S29');">S29</a>
</tspan>
</text>
<text class="t2"><tspan x="5041" y="1702">Brake light switch</tspan>
</text>
<path class="white" d="M 3708,1588 l -28,0 0,-27 28,0 0,27 z"></path>
<path class="black" d="M 3695,1588 l -2,0 0,-11 2,0 0,11 z"></path>
<path class="stroke4" d="M 3695,1588 l -2,0 0,-11 2,0 0,11"></path>
<path class="stroke6" d="M 3681,1575 l 0,-3 1,-1 0,-2 6,-6 2,0 1,-1 6,0 1,1 2,0 6,6 0,2 1,1 0,3"></path>
<text class="t2"><tspan x="3732" y="1553"><a xmlns:xlink="http://www.w3.org/1999/xlink" xlink:type="simple" xlink:show="replace" xlink:actuate="onRequest" xlink:href="javascript:locateTree('X78');">X78</a>
</tspan>

<tspan x="3633" y="1553">1</tspan>
</text>
<path class="white" d="M 3926,2570 l -28,0 0,-27 28,0 0,27 z"></path>
<path class="black" d="M 3913,2570 l -2,0 0,-11 2,0 0,11 z"></path>
<path class="stroke4" d="M 3913,2570 l -2,0 0,-11 2,0 0,11"></path>
<path class="stroke6" d="M 3899,2556 l 0,-3 1,-1 0,-2 6,-6 2,0 1,-1 6,0 1,1 2,0 6,6 0,2 1,1 0,3"></path>
<text class="t2"><tspan x="3950" y="2084">S_BLS</tspan>

<tspan x="3950" y="2149">0.35</tspan>

<tspan x="3950" y="2193">BL/RT</tspan>

<tspan x="3851" y="2534">4</tspan>
</text>
<path style="fill:none;stroke:#000000;stroke-width:15" d="M 4076,2352 l -164,0"></path>
<path class="stroke4" d="M 4076,2370 l 40,-18 -40,-19 0,37 m 0,-25 l 23,0 m -23,3 l 31,0 m -31,4 l 40,0 m -40,3 l 31,0 m -31,4 l 23,0 m -23,4 l 15,0 m -15,3 l 6,0 m -6,-25 l 16,0 m -16,-4 l 8,0 m -8,-3 l 1,0"></path>
<path class="white" d="M 3908,2335 l -1,1 -1,0 -1,1 -1,0 -1,1 -1,0 -4,4 0,1 -1,1 0,1 -1,1 0,1 -1,1 0,8 1,1 0,1 1,1 0,1 1,1 0,1 4,4 1,0 1,1 1,0 1,1 1,0 1,1 8,0 1,-1 1,0 1,-1 1,0 1,-1 1,0 4,-4 0,-1 1,-1 0,-1 1,-1 0,-1 1,-1 0,-8 -1,-1 0,-1 -1,-1 0,-1 -1,-1 0,-1 -4,-4 -1,0 -1,-1 -1,0 -1,-1 -1,0 -1,-1 -8,0 z"></path>
<path class="stroke4" d="M 3912,2345 l -2,0 -1,1 -1,0 -2,2 0,1 -1,1 0,4 1,1 0,1 2,2 1,0 1,1 4,0 1,-1 1,0 2,-2 0,-1 1,-1 0,-4 -1,-1 0,-1 -2,-2 -1,0 -1,-1 -1,0 m -6,2 l 10,0 m -11,2 l 12,0 m -13,2 l 14,0 m -14,2 l 14,0 m -13,2 l 12,0 m -11,1 l 10,0 m -8,2 l 6,0 m -6,-13 l 6,0"></path>
<text class="t2"><tspan x="3950" y="2316"><a xmlns:xlink="http://www.w3.org/1999/xlink" xlink:type="simple" xlink:show="replace" xlink:actuate="onRequest" xlink:href="javascript:locateTree('X181');">X181</a>
</tspan>
</text>
<path class="stroke4" d="M 4042,2832 l 2,0 1,-1 1,0 1,-1 0,-1 1,-1 0,-3 -1,-1 0,-1 -1,-1 -1,0 -1,-1 -3,0 -1,1 -1,0 -1,1 0,1 -1,1 0,3 1,1 0,1 1,1 1,0 1,1 m 7,-5 l -11,0 m 1,-3 l 9,0 m -9,5 l 9,0"></path>
<text class="t2"><tspan x="3965" y="2842">31</tspan>
</text>
<path class="stroke4" d="M 4032,2835 l 22,0 m -142,-265 l 0,59 m -11,0 l 22,0 0,85 -22,0 0,-85 m 7,140 l 0,5 1,1 0,3 1,1 0,2 1,1 0,1 1,1 0,1 2,2 0,1 6,6 1,0 2,2 1,0 1,1 1,0 1,1 2,0 1,1 3,0 1,1 10,0 1,-1 2,0 1,-1 2,0 1,-1 1,0 1,-1 1,0 2,-2 1,0 6,-6 0,-1 2,-2 0,-1 1,-1 0,-1 1,-1 0,-2 1,-1 0,-2 1,-1 0,-11 -1,-1 0,-2 -1,-1 0,-2 -1,-1 0,-1 -1,-1 0,-1 -2,-2 0,-1 -6,-6 -1,0 -2,-2 -1,0 -1,-1 -1,0 -1,-1 -2,0 -1,-1 -2,0 -1,-1 -10,0 -1,1 -3,0 -1,1 -2,0 -1,1 -1,0 -1,1 -1,0 -2,2 -1,0 -6,6 0,1 -2,2 0,1 -1,1 0,1 -1,1 0,2 -1,1 0,3 -1,1 0,3 m 4,-54 l  0,40 m 6,22 l 41,0 m -45,-22 l 12,22 m 36,-21 l -1,11 -7,-4 8,-7 m -23,21 l 0,60 m 12,-60 l 12,-22 80,0 0,67 m -131,-213 l 2,0 1,-1 1,0 1,-1 0,-1 1,-1 0,-3 -1,-1 0,-1 -1,-1 -1,0 -1,-1 -4,0 -1,1 -1,0 -1,1 0,1 -1,1 0,3 1,1 0,1 1,1 1,0 1,1 1,0 m 49,-5 l 23,0 -23,10 0,-21 23,11 m -23,-4 l 16,0 m -16,-4 l 8,0 m -8,11 l 14,0 m -14,4 l 6,0 m -60,-7 l 65,0 m -64,-3 l 10,0 m -10,5 l 9,0 m 103,-954 l -11,0 m 1,-3 l 9,0 m -9,6 l 9,0 m -5,23 l 0,-21 2,0 1,-1 1,0 1,-1 0,-1 1,-1 0,-3 -1,-1 0,-1 -1,-1 -1,0 -1,-1 -3,0 -1,1 -1,0 -1,1 0,1 -1,1 0,3 1,1 0,1 1,1 1,0 1,1 m -10,21 l 22,0 0,85 -22,0 0,-85 m -25,-26 l 73,0"></path>
<text class="t2"><tspan x="4004" y="1635">R</tspan>
</text>
<path class="stroke4" d="M 3912,1815 l 0,101 m 107,-87 l 0,-4 -1,-1 0,-3 -1,-1 0,-2 -1,-1 0,-1 -1,-1 0,-1 -2,-2 0,-1 -6,-6 -1,0 -2,-2 -1,0 -1,-1 -1,0 -1,-1 -2,0 -1,-1 -3,0 -1,-1 -10,0 -1,1 -2,0 -1,1 -2,0 -1,1 -1,0 -1,1 -1,0 -2,2 -1,0 -6,6 0,1 -2,2 0,1 -1,1 0,1 -1,1 0,2 -1,1 0,2 -1,1 0,11 1,1 0,2 1,1 0,2 1,1 0,1 1,1 0,1 2,2 0,1 6,6 1,0 2,2 1,0 1,1 1,0 1,1 2,0 1,1 2,0 1,1 10,0 1,-1 3,0 1,-1 2,0 1,-1 1,0 1,-1 1,0 2,-2 1,0 6,-6 0,-1 2,-2 0,-1 1,-1 0,-1 1,-1 0,-2 1,-1 0,-3 1,-1 0,-4 m -10,5 l -41,0 m 45,-73 l 0,52 -12,21 m -38,-21 l 13,21 m -12,-20 l  2,10 7,-3 -9,-7 m 49,-28 l 2,0 1,-1 1,0 1,-1 0,-1 1,-1 0,-3 -1,-1 0,-1 -1,-1 -1,0 -1,-1 -3,0 -1,1 -1,0 -1,1 0,1 -1,1 0,3 1,1 0,1 1,1 1,0 1,1 m 1,-5 l 57,0 m -8,0 l 23,0 -23,11 0,-22 23,11 m -23,-3 l 15,0 m -15,-4 l 8,0 m -8,11 l 14,0 m -14,3 l 6,0 m -49,-7 l -11,0 m 1,-3 l 9,0 m -9,6 l 9,0 m -30,50 l 0,61 m -24,-81 l -52,0 m -88,35 l 2,0 1,-1 1,0 1,-1 0,-1 1,-1 0,-3 -1,-1 0,-1 -1,-1 -1,0 -1,-1 -3,0 -1,1 -1,0 -1,1 0,1 -1,1 0,3 1,1 0,1 1,1 1,0 1,1 m 7,-5 l -11,0 m 1,-3 l 9,0 m -9,6 l 9,0"></path>
<text class="t2"><tspan x="3746" y="1860">31</tspan>
</text>
<path class="stroke4" d="M 3813,1853 l 23,0 m -142,-265 l 0,60 m -11,0 l 22,0 0,85 -22,0 0,-85 m 7,140 l 0,5 1,1 0,3 1,1 0,2 1,1 0,1 1,1 0,1 2,2 0,1 6,6 1,0 2,2 1,0 1,1 1,0 1,1 2,0 1,1 3,0 1,1 10,0 1,-1 2,0 1,-1 2,0 1,-1 1,0 1,-1 1,0 2,-2 1,0 6,-6 0,-1 2,-2 0,-1 1,-1 0,-1 1,-1 0,-2 1,-1 0,-2 1,-1 0,-11 -1,-1 0,-2 -1,-1 0,-2 -1,-1 0,-1 -1,-1 0,-1 -2,-2 0,-1 -6,-6 -1,0 -2,-2 -1,0 -1,-1 -1,0 -1,-1 -2,0 -1,-1 -2,0 -1,-1 -10,0 -1,1 -3,0 -1,1 -2,0 -1,1 -1,0 -1,1 -1,0 -2,2 -1,0 -6,6 0,1 -2,2 0,1 -1,1 0,1 -1,1 0,2 -1,1 0,3 -1,1 0,3 m 4,-54 l  0,40 m 6,21 l 41,0 m -46,-21 l 13,21 m 36,-20 l -2,10 -6,-3 8,-7 m -23,20 l 0,61 m 12,-61 l 12,-21 80,0 0,66 m -132,-213 l 2,0 1,-1 1,0 1,-1 0,-1 1,-1 0,-3 -1,-1 0,-1 -1,-1 -1,0 -1,-1 -3,0 -1,1 -1,0 -1,1 0,1 -1,1 0,3 1,1 0,1 1,1 1,0 1,1 m 50,-5 l 23,0 -23,11 0,-22 23,11 m -23,-4 l 16,0 m -16,-3 l 8,0 m -8,11 l 14,0 m -14,3 l 6,0 m -60,-7 l 65,0 m -64,-3 l 9,0 m -9,6 l 9,0 m 493,101 l 109,0 0,54 -109,0 0,-54 m 38,39 l 34,-22 m -33,0 l 33,22 m 37,-12 l 21,0 m -75,-44 l 0,17 m 0,54 l 0,17 m -75,-44 l 20,0"></path>
<path class="white" d="M 4334,1916 l 28,0 0,27 -28,0 0,-27 z"></path>
<path class="black" d="M 4347,1916 l 2,0 0,11 -2,0 0,-11 z"></path>
<path class="stroke4" d="M 4347,1916 l 2,0 0,11 -2,0 0,-11"></path>
<path class="stroke6" d="M 4361,1929 l 0,3 -1,1 0,2 -6,6 -2,0 -1,1 -6,0 -1,-1 -2,0 -6,-6 0,-2 -1,-1 0,-3"></path>
<text class="t2"><tspan x="4287" y="1975">3</tspan>
</text>
<path class="white" d="M 4362,2570 l -27,0 0,-27 27,0 0,27 z"></path>
<path class="black" d="M 4349,2570 l -2,0 0,-11 2,0 0,11 z"></path>
<path class="stroke4" d="M 4349,2570 l -2,0 0,-11 2,0 0,11"></path>
<path class="stroke6" d="M 4335,2556 l 0,-3 1,-1 0,-2 6,-6 2,0 1,-1 6,0 1,1 2,0 6,6 0,2 1,1 0,3"></path>
<text class="t2"><tspan x="4386" y="2084">S_BLTS</tspan>

<tspan x="4386" y="2149">0.35</tspan>

<tspan x="4386" y="2193">BR/GR</tspan>

<tspan x="4264" y="2534">16</tspan>
</text>
<path class="stroke4" d="M 4478,2832 l 2,0 1,-1 1,0 1,-1 0,-1 1,-1 0,-3 -1,-1 0,-1 -1,-1 -1,0 -1,-1 -3,0 -1,1 -1,0 -1,1 0,1 -1,1 0,3 1,1 0,1 1,1 1,0 1,1 m 7,-5 l -11,0 m 1,-3 l 9,0 m -9,5 l 9,0"></path>
<text class="t2"><tspan x="4401" y="2842">31</tspan>
</text>
<path class="stroke4" d="M 4468,2835 l 22,0 m -142,-265 l 0,59 m -11,0 l 22,0 0,85 -22,0 0,-85 m 7,140 l 0,5 1,1 0,3 1,1 0,2 1,1 0,1 1,1 0,1 2,2 0,1 6,6 1,0 2,2 1,0 1,1 1,0 1,1 2,0 1,1 3,0 1,1 10,0 1,-1 2,0 1,-1 2,0 1,-1 1,0 1,-1 1,0 2,-2 1,0 6,-6 0,-1 2,-2 0,-1 1,-1 0,-1 1,-1 0,-2 1,-1 0,-2 1,-1 0,-11 -1,-1 0,-2 -1,-1 0,-2 -1,-1 0,-1 -1,-1 0,-1 -2,-2 0,-1 -6,-6 -1,0 -2,-2 -1,0 -1,-1 -1,0 -1,-1 -2,0 -1,-1 -2,0 -1,-1 -10,0 -1,1 -3,0 -1,1 -2,0 -1,1 -1,0 -1,1 -1,0 -2,2 -1,0 -6,6 0,1 -2,2 0,1 -1,1 0,1 -1,1 0,2 -1,1 0,3 -1,1 0,3 m 4,-54 l  0,40 m 6,22 l 41,0 m -45,-22 l 12,22 m 37,-21 l -2,11 -7,-4 9,-7 m -24,21 l 0,60 m 12,-60 l 13,-22 79,0 0,67 m -131,-213 l 2,0 1,-1 1,0 1,-1 0,-1 1,-1 0,-3 -1,-1 0,-1 -1,-1 -1,0 -1,-1 -3,0 -1,1 -1,0 -1,1 0,1 -1,1 0,3 1,1 0,1 1,1 1,0 1,1 m 49,-5 l 24,0 -24,10 0,-21 24,11 m -24,-4 l 16,0 m -16,-4 l 9,0 m -9,11 l 14,0 m -14,4 l 7,0 m -60,-7 l 64,0 m -63,-3 l 9,0 m -9,5 l 9,0 m 102,-954 l -11,0 m 1,-3 l 9,0 m -9,6 l 9,0 m -5,23 l 0,-21 2,0 1,-1 1,0 1,-1 0,-1 1,-1 0,-3 -1,-1 0,-1 -1,-1 -1,0 -1,-1 -3,0 -1,1 -1,0 -1,1 0,1 -1,1 0,3 1,1 0,1 1,1 1,0 1,1 m -9,21 l 21,0 0,85 -21,0 0,-85 m -26,-26 l 74,0"></path>
<text class="t2"><tspan x="4440" y="1635">R</tspan>
</text>
<path class="stroke4" d="M 4348,1815 l 0,101 m 107,-87 l 0,-4 -1,-1 0,-3 -1,-1 0,-2 -1,-1 0,-1 -1,-1 0,-1 -2,-2 0,-1 -6,-6 -1,0 -2,-2 -1,0 -1,-1 -1,0 -1,-1 -2,0 -1,-1 -3,0 -1,-1 -10,0 -1,1 -2,0 -1,1 -2,0 -1,1 -1,0 -1,1 -1,0 -2,2 -1,0 -6,6 0,1 -2,2 0,1 -1,1 0,1 -1,1 0,2 -1,1 0,2 -1,1 0,11 1,1 0,2 1,1 0,2 1,1 0,1 1,1 0,1 2,2 0,1 6,6 1,0 2,2 1,0 1,1 1,0 1,1 2,0 1,1 2,0 1,1 10,0 1,-1 3,0 1,-1 2,0 1,-1 1,0 1,-1 1,0 2,-2 1,0 6,-6 0,-1 2,-2 0,-1 1,-1 0,-1 1,-1 0,-2 1,-1 0,-3 1,-1 0,-4 m -10,5 l -41,0 m 45,-73 l 0,52 -12,21 m -37,-21 l 12,21 m -11,-20 l  1,10 7,-3 -8,-7 m 48,-28 l 2,0 1,-1 1,0 1,-1 0,-1 1,-1 0,-3 -1,-1 0,-1 -1,-1 -1,0 -1,-1 -3,0 -1,1 -1,0 -1,1 0,1 -1,1 0,3 1,1 0,1 1,1 1,0 1,1 m 1,-5 l 57,0 m -8,0 l 23,0 -23,11 0,-22 23,11 m -23,-3 l 15,0 m -15,-4 l 8,0 m -8,11 l 14,0 m -14,3 l 6,0 m -49,-7 l -11,0 m 1,-3 l 9,0 m -9,6 l 9,0 m -30,50 l 0,61 m -23,-81 l -53,0 m -13,114 l -28,0 m -14,0 l -29,0 m -13,0 l -29,0 m -13,0 l -29,0 m -13,0 l -29,0 m -14,0 l -28,0 m -14,0 l -29,0 m -13,0 l -29,0 m -13,0 l -29,0 m -13,0 l -29,0 m 407,627 l -28,0 m -14,0 l -29,0 m -13,0 l -29,0 m -13,0 l -29,0 m -13,0 l -29,0"></path>
<path class="stroke4" d="M 4123,2556 l -28,0 m -14,0 l -29,0 m -13,0 l -29,0 m -13,0 l -29,0 m -13,0 l -29,0"></path>
<text class="t3"><tspan x="7113" y="834">.</tspan>
</text>
<text class="t2"><tspan x="7113" y="870"><a xmlns:xlink="http://www.w3.org/1999/xlink" xlink:type="simple" xlink:show="replace" xlink:actuate="onRequest" xlink:href="javascript:locateTree('A149a');">A149a</a>
</tspan>
</text>
<text class="t2"><tspan x="7113" y="939">Car access system</tspan>
</text>
<path class="white" d="M 3680,1152 l 27,0 0,28 -27,0 0,-28 z"></path>
<path class="black" d="M 3693,1152 l 2,0 0,12 -2,0 0,-12 z"></path>
<path class="stroke4" d="M 3693,1152 l 2,0 0,12 -2,0 0,-12"></path>
<path class="stroke6" d="M 3707,1166 l 0,3 -1,1 0,2 -6,6 -2,0 -1,1 -6,0 -1,-1 -2,0 -6,-6 0,-2 -1,-1 0,-3"></path>
<text class="t2"><tspan x="3633" y="1212">2</tspan>
</text>
<path style="fill:none;stroke:#000000;stroke-width:15" d="M 4784,1943 l 0,491"></path>
<path class="stroke4" d="M 4883,1889 l 2,0 1,-1 1,0 1,-1 0,-1 1,-1 0,-3 -1,-1 0,-1 -1,-1 -1,0 -1,-1 -3,0 -1,1 -1,0 -1,1 0,1 -1,1 0,3 1,1 0,1 1,1 1,0 1,1 m 7,-5 l -11,0 m 1,-3 l 9,0 m -9,6 l 9,0"></path>
<text class="t2"><tspan x="4805" y="1899">31</tspan>
</text>
<path class="stroke4" d="M 4873,1845 l 21,0 0,-85 -21,0 0,85 m 9,-119 l -1,-1 -1,0 -1,-1 0,-1 -1,-1 0,-3 1,-1 0,-1 1,-1 1,0 1,-1 3,0 1,1 1,0 1,1 0,1 1,1 0,3 -1,1 0,1 -1,1 -1,0 -1,1 -2,0 0,34 m -11,132 l 23,0 m 51,-171 l -23,0 23,-10 0,21 -23,-11 m 23,4 l -15,0 m 15,3 l -8,0 m 8,-10 l -14,0 m 14,-4 l -6,0 m -57,131 l 0,33 m -4,-160 l 9,0 m -9,6 l 9,0 m -104,192 l 0,-195 159,0"></path>
<path class="stroke8" d="M 4798,2461 l -27,0"></path>
<path class="white" d="M 4791,2451 l 6,0 0,-8 -1,-1 0,-1 -2,-2 0,-1 -1,-1 -1,0 -2,-2 -2,0 -1,-1 -6,0 -1,1 -2,0 -2,2 -1,0 -1,1 0,1 -2,2 0,1 -1,1 0,8 6,0 0,-2 1,-1 0,-1 2,-2 1,0 1,-1 4,0 1,1 1,0 2,2 0,1 1,1 0,2 z"></path>
<path class="stroke4" d="M 4784,2444 l -1,0 -1,1 -1,0 -2,2 0,1 -1,1 0,4 1,1 0,1 2,2 1,0 1,1 3,0 1,-1 1,0 2,-2 0,-1 1,-1 0,-4 -1,-1 0,-1 -2,-2 -1,0 -1,-1 -1,0 m -6,3 l 11,0 m -12,2 l 13,0 m -13,1 l 13,0 m -13,2 l 13,0 m -13,2 l 12,0 m -10,2 l 9,0 m -7,2 l 5,0 m -5,-13 l 5,0"></path>
<text class="t2"><tspan x="4823" y="2084">31E</tspan>

<tspan x="4823" y="2149">0.35</tspan>

<tspan x="4823" y="2193">BR/SW</tspan>
</text>
<path style="fill:none;stroke:#000000;stroke-width:15" d="M 6857,1943 l 0,491"></path>
<path class="white" d="M 6843,1916 l 27,0 0,27 -27,0 0,-27 z"></path>
<path class="black" d="M 6856,1916 l 1,0 0,11 -1,0 0,-11 z"></path>
<path class="stroke4" d="M 6856,1916 l 1,0 0,11 -1,0 0,-11"></path>
<path class="stroke6" d="M 6870,1929 l 0,3 -1,1 0,1 -1,1 0,1 -4,4 -1,0 -1,1 -1,0 -1,1 -7,0 -1,-1 -1,0 -1,-1 -1,0 -4,-4 0,-1 -1,-1 0,-1 -1,-1 0,-3"></path>
<text class="t2"><tspan x="6895" y="1975"><a xmlns:xlink="http://www.w3.org/1999/xlink" xlink:type="simple" xlink:show="replace" xlink:actuate="onRequest" xlink:href="javascript:locateTree('X13635');">X13635</a>
</tspan>

<tspan x="6795" y="1975">1</tspan>
</text>
<path class="stroke8" d="M 6870,2461 l -27,0"></path>
<path class="white" d="M 6863,2451 l 6,0 0,-8 -1,-1 0,-1 -2,-2 0,-1 -1,-1 -1,0 -2,-2 -2,0 -1,-1 -6,0 -1,1 -2,0 -2,2 -1,0 -1,1 0,1 -2,2 0,1 -1,1 0,8 6,0 0,-2 1,-1 0,-1 2,-2 1,0 1,-1 4,0 1,1 1,0 2,2 0,1 1,1 0,2 z"></path>
<path class="stroke4" d="M 6856,2444 l -1,0 -1,1 -1,0 -2,2 0,1 -1,1 0,4 1,1 0,1 2,2 1,0 1,1 3,0 1,-1 1,0 2,-2 0,-1 1,-1 0,-4 -1,-1 0,-1 -2,-2 -1,0 -1,-1 -1,0 m -6,3 l 11,0 m -12,2 l 13,0 m -13,1 l 13,0 m -13,2 l 13,0 m -13,2 l 13,0 m -11,2 l 9,0 m -7,2 l 5,0 m -5,-13 l 5,0"></path>
<text class="t2"><tspan x="6895" y="2084">31E</tspan>

<tspan x="6895" y="2149">0.35</tspan>

<tspan x="6895" y="2193">BR/SW</tspan>
</text>
<path class="stroke4" d="M 6955,1889 l 2,0 1,-1 1,0 1,-1 0,-1 1,-1 0,-3 -1,-1 0,-1 -1,-1 -1,0 -1,-1 -3,0 -1,1 -1,0 -1,1 0,1 -1,1 0,3 1,1 0,1 1,1 1,0 1,1 m 7,-5 l -11,0 m 1,-3 l 9,0 m -9,6 l 9,0"></path>
<text class="t2"><tspan x="6878" y="1899">31</tspan>
</text>
<path class="stroke4" d="M 6956,1726 l 0,34 m -11,85 l 21,0 0,-85 -21,0 0,85 m 10,-119 l 2,0 1,-1 1,0 1,-1 0,-1 1,-1 0,-3 -1,-1 0,-1 -1,-1 -1,0 -1,-1 -3,0 -1,1 -1,0 -1,1 0,1 -1,1 0,3 1,1 0,1 1,1 1,0 1,1 m -9,166 l 22,0 m 51,-171 l -23,0 23,-10 0,21 -23,-11 m 23,4 l -15,0 m 15,3 l -8,0 m 8,-10 l -14,0 m 14,-4 l -6,0 m -56,131 l 0,33 m -5,-160 l 9,0 m -9,6 l 9,0 m -103,192 l 0,-195 158,0 m -343,4 l 109,0 0,54 -109,0 0,-54 m 38,39 l 34,-22 m -33,0 l 33,21 m 37,-11 l 21,0 m -75,-44 l 0,17 m 0,54 l 0,17 m -75,-44 l 20,0"></path>
<path style="fill:none;stroke:#000000;stroke-width:15" d="M 6093,1179 l 0,382"></path>
<text class="t2"><tspan x="6132" y="1321">R&lt;KUPPL</tspan>

<tspan x="6132" y="1386">0.5</tspan>

<tspan x="6132" y="1430">VI/GE</tspan>
</text>
<path class="white" d="M 6107,1588 l -27,0 0,-27 27,0 0,27 z"></path>
<path class="black" d="M 6094,1588 l -2,0 0,-11 2,0 0,11 z"></path>
<path class="stroke4" d="M 6094,1588 l -2,0 0,-11 2,0 0,11"></path>
<path class="stroke6" d="M 6080,1575 l 0,-3 1,-1 0,-2 6,-6 2,0 1,-1 6,0 1,1 2,0 6,6 0,2 1,1 0,3"></path>
<text class="t2"><tspan x="6032" y="1553">3</tspan>
</text>
<path class="stroke4" d="M 6223,1850 l 2,0 1,-1 1,0 1,-1 0,-1 1,-1 0,-3 -1,-1 0,-1 -1,-1 -1,0 -1,-1 -3,0 -1,1 -1,0 -1,1 0,1 -1,1 0,3 1,1 0,1 1,1 1,0 1,1 m 7,-5 l -11,0 m 1,-3 l 9,0 m -9,6 l 9,0"></path>
<text class="t2"><tspan x="6146" y="1860">31</tspan>
</text>
<path class="stroke4" d="M 6213,1853 l 22,0 m -142,-265 l 0,60 m -11,0 l 22,0 0,85 -22,0 0,-85 m 7,140 l 0,5 1,1 0,3 1,1 0,2 1,1 0,1 1,1 0,1 2,2 0,1 6,6 1,0 2,2 1,0 1,1 1,0 1,1 2,0 1,1 3,0 1,1 10,0 1,-1 2,0 1,-1 2,0 1,-1 1,0 1,-1 1,0 2,-2 1,0 6,-6 0,-1 2,-2 0,-1 1,-1 0,-1 1,-1 0,-2 1,-1 0,-2 1,-1 0,-11 -1,-1 0,-2 -1,-1 0,-2 -1,-1 0,-1 -1,-1 0,-1 -2,-2 0,-1 -6,-6 -1,0 -2,-2 -1,0 -1,-1 -1,0 -1,-1 -2,0 -1,-1 -2,0 -1,-1 -10,0 -1,1 -3,0 -1,1 -2,0 -1,1 -1,0 -1,1 -1,0 -2,2 -1,0 -6,6 0,1 -2,2 0,1 -1,1 0,1 -1,1 0,2 -1,1 0,3 -1,1 0,3 m 4,-54 l  0,40 m 6,21 l 41,0 m -45,-21 l 12,21 m 37,-20 l -2,10 -7,-3 8,-7 m -23,20 l 0,61 m 12,-61 l 13,-21 79,0 0,66 m -131,-213 l 2,0 1,-1 1,0 1,-1 0,-1 1,-1 0,-3 -1,-1 0,-1 -1,-1 -1,0 -1,-1 -3,0 -1,1 -1,0 -1,1 0,1 -1,1 0,3 1,1 0,1 1,1 1,0 1,1 m 49,-5 l 24,0 -24,11 0,-22 24,11 m -24,-4 l 16,0 m -16,-3 l 9,0 m -9,11 l 14,0 m -14,3 l 7,0 m -60,-7 l 64,0 m -63,-3 l 9,0 m -9,6 l 9,0"></path>
<path class="white" d="M 6079,1152 l 28,0 0,28 -28,0 0,-28 z"></path>
<path class="black" d="M 6092,1152 l 2,0 0,12 -2,0 0,-12 z"></path>
<path class="stroke4" d="M 6092,1152 l 2,0 0,12 -2,0 0,-12"></path>
<path class="stroke6" d="M 6106,1166 l 0,3 -1,1 0,2 -6,6 -2,0 -1,1 -6,0 -1,-1 -2,0 -6,-6 0,-2 -1,-1 0,-3"></path>
<text class="t2"><tspan x="6032" y="1212">3</tspan>
</text>
<path class="stroke4" d="M 6080,1166 l -30,0 m -14,0 l -30,0 m -14,0 l -30,0 m -14,0 l -30,0 m -14,0 l -30,0 m -14,0 l -30,0 m -14,0 l -30,0 m -14,0 l -30,0 m -14,0 l -30,0 m -14,0 l -31,0 m -14,0 l -30,0 m -14,0 l -30,0 m -14,0 l -30,0 m -14,0 l -30,0 m -14,0 l -30,0 m -14,0 l -30,0 m -14,0 l -30,0 m -14,0 l -30,0 m -14,0 l -30,0 m -14,0 l -31,0 m -14,0 l -30,0 m -14,0 l -30,0 m -14,0 l -30,0 m -14,0 l -30,0 m -14,0 l -30,0 m -14,0 l -30,0 m -14,0 l -30,0 m -14,0 l -30,0 m -14,0 l -30,0 m -14,0 l -31,0 m -14,0 l -30,0 m -14,0 l -30,0 m -14,0 l -30,0"></path>
<path class="stroke4" d="M 4625,1166 l -30,0 m -14,0 l -30,0 m -14,0 l -30,0 m -14,0 l -30,0 m -14,0 l -30,0 m -14,0 l -30,0 m -14,0 l -31,0 m -14,0 l -30,0 m -14,0 l -30,0 m -14,0 l -30,0 m -14,0 l -30,0 m -14,0 l -30,0 m -14,0 l -30,0 m -14,0 l -30,0 m -14,0 l -30,0 m -14,0 l -30,0 m -14,0 l -31,0 m -14,0 l -30,0 m -14,0 l -30,0 m -14,0 l -30,0 m -14,0 l -30,0"></path>
<path style="fill:none;stroke:#000000;stroke-width:15" d="M 6420,1943 l 0,600"></path>
<path class="white" d="M 6407,1916 l 27,0 0,27 -27,0 0,-27 z"></path>
<path class="black" d="M 6419,1916 l 2,0 0,11 -2,0 0,-11 z"></path>
<path class="stroke4" d="M 6419,1916 l 2,0 0,11 -2,0 0,-11"></path>
<path class="stroke6" d="M 6433,1929 l 0,3 -1,1 0,2 -6,6 -2,0 -1,1 -6,0 -1,-1 -2,0 -6,-6 0,-2 -1,-1 0,-3"></path>
<text class="t2"><tspan x="6359" y="1975">2</tspan>
</text>
<path class="stroke4" d="M 6843,1929 l -28,0 m -14,0 l -29,0 m -13,0 l -29,0 m -13,0 l -29,0 m -13,0 l -29,0 m -14,0 l -28,0 m -14,0 l -29,0 m -13,0 l -29,0 m -13,0 l -29,0 m -13,0 l -29,0"></path>
<text class="t2"><tspan x="6459" y="2084">S_KUP</tspan>

<tspan x="6459" y="2149">0.35</tspan>

<tspan x="6459" y="2193">BL/BR</tspan>
</text>
<path class="white" d="M 6434,2570 l -27,0 0,-27 27,0 0,27 z"></path>
<path class="black" d="M 6421,2570 l -1,0 0,-11 1,0 0,11 z"></path>
<path class="stroke4" d="M 6421,2570 l -1,0 0,-11 1,0 0,11"></path>
<path class="stroke6" d="M 6407,2556 l 0,-3 1,-1 0,-2 6,-6 2,0 1,-1 6,0 1,1 2,0 6,6 0,2 1,1 0,3"></path>
<text class="t2"><tspan x="6459" y="2534"><a xmlns:xlink="http://www.w3.org/1999/xlink" xlink:type="simple" xlink:show="replace" xlink:actuate="onRequest" xlink:href="javascript:locateTree('X60001');">X60001</a>
</tspan>

<tspan x="6336" y="2534">18</tspan>
</text>
<path class="stroke4" d="M 6550,2832 l 2,0 1,-1 1,0 1,-1 0,-1 1,-1 0,-3 -1,-1 0,-1 -1,-1 -1,0 -1,-1 -3,0 -1,1 -1,0 -1,1 0,1 -1,1 0,3 1,1 0,1 1,1 1,0 1,1 m 7,-5 l -11,0 m 1,-3 l 10,0 m -10,5 l 9,0"></path>
<text class="t2"><tspan x="6473" y="2842">31</tspan>
</text>
<path class="stroke4" d="M 6540,2835 l 22,0 m -142,-265 l 0,59 m -10,0 l 21,0 0,85 -21,0 0,-85 m 6,140 l 0,5 1,1 0,3 1,1 0,2 1,1 0,1 1,1 0,1 2,2 0,1 6,6 1,0 2,2 1,0 1,1 1,0 1,1 2,0 1,1 3,0 1,1 10,0 1,-1 2,0 1,-1 2,0 1,-1 1,0 1,-1 1,0 2,-2 1,0 6,-6 0,-1 2,-2 0,-1 1,-1 0,-1 1,-1 0,-2 1,-1 0,-2 1,-1 0,-11 -1,-1 0,-2 -1,-1 0,-2 -1,-1 0,-1 -1,-1 0,-1 -2,-2 0,-1 -6,-6 -1,0 -2,-2 -1,0 -1,-1 -1,0 -1,-1 -2,0 -1,-1 -2,0 -1,-1 -10,0 -1,1 -3,0 -1,1 -2,0 -1,1 -1,0 -1,1 -1,0 -2,2 -1,0 -6,6 0,1 -2,2 0,1 -1,1 0,1 -1,1 0,2 -1,1 0,3 -1,1 0,3 m 4,-54 l  0,40 m 6,22 l 41,0 m -45,-22 l 12,22 m 37,-21 l -2,11 -7,-4 9,-7 m -23,21 l 0,60 m 11,-60 l 13,-22 79,0 0,67 m -131,-213 l 2,0 1,-1 1,0 1,-1 0,-1 1,-1 0,-3 -1,-1 0,-1 -1,-1 -1,0 -1,-1 -3,0 -1,1 -1,0 -1,1 0,1 -1,1 0,3 1,1 0,1 1,1 1,0 1,1 m 49,-5 l 24,0 -24,10 0,-21 24,11 m -24,-4 l 16,0 m -16,-4 l 9,0 m -9,11 l 15,0 m -15,4 l 7,0 m -60,-7 l 64,0 m -63,-3 l 9,0 m -9,5 l 9,0 m -18,-49 l -29,0 m -14,0 l -30,0 m -14,0 l -30,0 m -14,0 l -29,0 m -14,0 l -30,0 m -14,0 l -30,0 m -14,0 l -30,0 m -13,0 l -30,0 m -14,0 l -30,0 m -14,0 l -30,0 m -14,0 l -29,0 m -14,0 l -30,0 m -14,0 l -30,0 m -14,0 l -29,0"></path>
<path class="stroke4" d="M 5796,2556 l -30,0 m -14,0 l -30,0 m -14,0 l -30,0 m -13,0 l -30,0 m -14,0 l -30,0 m -14,0 l -30,0 m -14,0 l -29,0 m -14,0 l -30,0 m -14,0 l -30,0 m -14,0 l -29,0 m -14,0 l -30,0 m -14,0 l -30,0 m -14,0 l -30,0 m -13,0 l -30,0 m -14,0 l -30,0 m -14,0 l -30,0 m -14,0 l -29,0 m -14,0 l -30,0 m -14,0 l -30,0 m -14,0 l -29,0 m -14,0 l -30,0 m -14,0 l -30,0 m -14,0 l -30,0 m -13,0 l -30,0 m -14,0 l -30,0 m -14,0 l -30,0 m -14,0 l -29,0 m -14,0 l -30,0 m -14,0 l -30,0 m -14,0 l -29,0 m -14,0 l -30,0 m -14,0 l -30,0 m -14,0 l -30,0"></path>
<path style="fill:none;stroke:#000000;stroke-width:15" d="M 6857,1179 l 0,382"></path>
<path class="white" d="M 6870,1588 l -27,0 0,-27 27,0 0,27 z"></path>
<path class="black" d="M 6857,1588 l -1,0 0,-11 1,0 0,11 z"></path>
<path class="stroke4" d="M 6857,1588 l -1,0 0,-11 1,0 0,11"></path>
<path class="stroke6" d="M 6843,1575 l 0,-3 1,-1 0,-1 1,-1 0,-1 4,-4 1,0 1,-1 1,0 1,-1 7,0 1,1 1,0 1,1 1,0 4,4 0,1 1,1 0,1 1,1 0,3"></path>
<text class="t2"><tspan x="6895" y="1553"><a xmlns:xlink="http://www.w3.org/1999/xlink" xlink:type="simple" xlink:show="replace" xlink:actuate="onRequest" xlink:href="javascript:locateTree('X13635');">X13635</a>
</tspan>

<tspan x="6795" y="1553">4</tspan>
</text>
<path class="stroke8" d="M 5984,1588 l 1091,0 0,328 -1091,0 0,-328"></path>
<text class="t3"><tspan x="7113" y="1597">.</tspan>
</text>
<text class="t2"><tspan x="7113" y="1633"><a xmlns:xlink="http://www.w3.org/1999/xlink" xlink:type="simple" xlink:show="replace" xlink:actuate="onRequest" xlink:href="javascript:locateTree('S805a');">S805a</a>
</tspan>
</text>
<text class="t2"><tspan x="7113" y="1702">Clutch switch</tspan>

<tspan x="7113" y="1746">module</tspan>
</text>
<path class="stroke4" d="M 6521,1656 l 2,0 1,-1 1,0 1,-1 0,-1 1,-1 0,-3 -1,-1 0,-1 -1,-1 -1,0 -1,-1 -3,0 -1,1 -1,0 -1,1 0,1 -1,1 0,3 1,1 0,1 1,1 1,0 1,1 m 7,-5 l -11,0 m 1,-3 l 9,0 m -9,6 l 9,0 m -4,2 l 0,21 m -11,0 l 21,0 0,85 -21,0 0,-85 m -26,-26 l 74,0"></path>
<text class="t2"><tspan x="6512" y="1635">R</tspan>
</text>
<path class="stroke4" d="M 6420,1815 l 0,101 m 107,-87 l 0,-4 -1,-1 0,-3 -1,-1 0,-2 -1,-1 0,-1 -1,-1 0,-1 -2,-2 0,-1 -6,-6 -1,0 -2,-2 -1,0 -1,-1 -1,0 -1,-1 -2,0 -1,-1 -3,0 -1,-1 -10,0 -1,1 -2,0 -1,1 -2,0 -1,1 -1,0 -1,1 -1,0 -2,2 -1,0 -6,6 0,1 -2,2 0,1 -1,1 0,1 -1,1 0,2 -1,1 0,2 -1,1 0,11 1,1 0,2 1,1 0,2 1,1 0,1 1,1 0,1 2,2 0,1 6,6 1,0 2,2 1,0 1,1 1,0 1,1 2,0 1,1 2,0 1,1 10,0 1,-1 3,0 1,-1 2,0 1,-1 1,0 1,-1 1,0 2,-2 1,0 6,-6 0,-1 2,-2 0,-1 1,-1 0,-1 1,-1 0,-2 1,-1 0,-3 1,-1 0,-4 m -10,5 l -41,0 m 46,-73 l 0,52 -13,21 m -37,-21 l 12,21 m -11,-20 l  2,10 6,-3 -8,-7 m 48,-28 l 2,0 1,-1 1,0 1,-1 0,-1 1,-1 0,-3 -1,-1 0,-1 -1,-1 -1,0 -1,-1 -3,0 -1,1 -1,0 -1,1 0,1 -1,1 0,3 1,1 0,1 1,1 1,0 1,1 m 2,-5 l 56,0 m -8,0 l 23,0 -23,11 0,-22 23,11 m -23,-3 l 15,0 m -15,-4 l 8,0 m -8,11 l 14,0 m -14,3 l 6,0 m -49,-7 l -11,0 m 1,-3 l 9,0 m -9,6 l 9,0 m -30,50 l 0,61 m -23,-81 l -53,0"></path>
<path class="white" d="M 299,1916 l 28,0 0,27 -28,0 0,-27 z"></path>
<path class="black" d="M 312,1916 l 2,0 0,11 -2,0 0,-11 z"></path>
<path class="stroke4" d="M 312,1916 l 2,0 0,11 -2,0 0,-11"></path>
<path class="stroke6" d="M 326,1929 l 0,3 -1,1 0,2 -6,6 -2,0 -1,1 -6,0 -1,-1 -2,0 -6,-6 0,-2 -1,-1 0,-3"></path>
<text class="t2"><tspan x="252" y="1975">1</tspan>
</text>
<path class="white" d="M 327,2570 l -27,0 0,-27 27,0 0,27 z"></path>
<path class="black" d="M 314,2570 l -2,0 0,-11 2,0 0,11 z"></path>
<path class="stroke4" d="M 314,2570 l -2,0 0,-11 2,0 0,11"></path>
<path class="stroke6" d="M 300,2556 l 0,-3 1,-1 0,-2 6,-6 2,0 1,-1 6,0 1,1 2,0 6,6 0,2 1,1 0,3"></path>
<text class="t2"><tspan x="351" y="2084">M_FWG1</tspan>

<tspan x="788" y="2084">U_FWG1</tspan>

<tspan x="351" y="2149">0.35</tspan>

<tspan x="788" y="2149">0.35</tspan>

<tspan x="788" y="2193">GE</tspan>

<tspan x="351" y="2193">BR/GE</tspan>

<tspan x="229" y="2534">10</tspan>
</text>
<path class="stroke4" d="M 326,1929 l 28,0 m 14,0 l 29,0 m 13,0 l 29,0 m 13,0 l 29,0 m 13,0 l 29,0 m 14,0 l 28,0 m 14,0 l 29,0 m 13,0 l 29,0 m 13,0 l 29,0 m 13,0 l 29,0"></path>
<path class="white" d="M 736,1916 l 27,0 0,27 -27,0 0,-27 z"></path>
<path class="black" d="M 748,1916 l 2,0 0,11 -2,0 0,-11 z"></path>
<path class="stroke4" d="M 748,1916 l 2,0 0,11 -2,0 0,-11"></path>
<path class="stroke6" d="M 762,1929 l 0,3 -1,1 0,2 -6,6 -2,0 -1,1 -6,0 -1,-1 -2,0 -6,-6 0,-2 -1,-1 0,-3"></path>
<text class="t2"><tspan x="688" y="1975">5</tspan>
</text>
<path class="stroke4" d="M 326,2556 l 28,0 m 14,0 l 29,0 m 13,0 l 29,0 m 13,0 l 29,0 m 13,0 l 29,0 m 14,0 l 28,0 m 14,0 l 29,0 m 13,0 l 29,0 m 13,0 l 29,0 m 13,0 l 29,0"></path>
<path class="white" d="M 763,2570 l -27,0 0,-27 27,0 0,27 z"></path>
<path class="black" d="M 750,2570 l -1,0 0,-11 1,0 0,11 z"></path>
<path class="stroke4" d="M 750,2570 l -1,0 0,-11 1,0 0,11"></path>
<path class="stroke6" d="M 736,2556 l 0,-3 1,-1 0,-2 6,-6 2,0 1,-1 6,0 1,1 2,0 6,6 0,2 1,1 0,3"></path>
<text class="t2"><tspan x="1224" y="2084">A_FWG1</tspan>

<tspan x="1224" y="2149">0.35</tspan>

<tspan x="1224" y="2193">WS</tspan>

<tspan x="668" y="2534">11</tspan>
</text>
<path class="stroke4" d="M 762,1929 l 28,0 m 14,0 l 29,0 m 13,0 l 29,0 m 13,0 l 29,0 m 13,0 l 29,0 m 14,0 l 28,0 m 14,0 l 29,0 m 13,0 l 29,0 m 13,0 l 29,0 m 13,0 l 29,0"></path>
<path class="white" d="M 1172,1916 l 27,0 0,27 -27,0 0,-27 z"></path>
<path class="black" d="M 1185,1916 l 1,0 0,11 -1,0 0,-11 z"></path>
<path class="stroke4" d="M 1185,1916 l 1,0 0,11 -1,0 0,-11"></path>
<path class="stroke6" d="M 1199,1929 l 0,3 -1,1 0,1 -1,1 0,1 -4,4 -1,0 -1,1 -1,0 -1,1 -7,0 -1,-1 -1,0 -1,-1 -1,0 -4,-4 0,-1 -1,-1 0,-1 -1,-1 0,-3"></path>
<text class="t2"><tspan x="1124" y="1975">4</tspan>
</text>
<path class="stroke4" d="M 762,2556 l 28,0 m 14,0 l 29,0 m 13,0 l 29,0 m 13,0 l 29,0 m 13,0 l 29,0 m 14,0 l 28,0 m 14,0 l 29,0 m 13,0 l 29,0 m 13,0 l 29,0 m 13,0 l 29,0"></path>
<path class="white" d="M 1199,2570 l -27,0 0,-27 27,0 0,27 z"></path>
<path class="black" d="M 1186,2570 l -1,0 0,-11 1,0 0,11 z"></path>
<path class="stroke4" d="M 1186,2570 l -1,0 0,-11 1,0 0,11"></path>
<path class="stroke6" d="M 1172,2556 l 0,-3 1,-1 0,-1 1,-1 0,-1 4,-4 1,0 1,-1 1,0 1,-1 7,0 1,1 1,0 1,1 1,0 4,4 0,1 1,1 0,1 1,1 0,3"></path>
<text class="t2"><tspan x="1660" y="2084">M_FWG2</tspan>

<tspan x="1660" y="2149">0.35</tspan>

<tspan x="1660" y="2193">BR</tspan>

<tspan x="1101" y="2534">20</tspan>
</text>
<path class="stroke4" d="M 1199,1929 l 28,0 m 14,0 l 29,0 m 13,0 l 29,0 m 13,0 l 29,0 m 13,0 l 29,0 m 14,0 l 28,0 m 14,0 l 29,0 m 13,0 l 29,0 m 13,0 l 29,0 m 13,0 l 29,0"></path>
<path class="white" d="M 1608,1916 l 27,0 0,27 -27,0 0,-27 z"></path>
<path class="black" d="M 1621,1916 l 2,0 0,11 -2,0 0,-11 z"></path>
<path class="stroke4" d="M 1621,1916 l 2,0 0,11 -2,0 0,-11"></path>
<path class="stroke6" d="M 1635,1929 l 0,3 -1,1 0,2 -6,6 -2,0 -1,1 -6,0 -1,-1 -2,0 -6,-6 0,-2 -1,-1 0,-3"></path>
<text class="t2"><tspan x="1560" y="1975">2</tspan>
</text>
<path class="stroke4" d="M 1199,2556 l 28,0 m 14,0 l 29,0 m 13,0 l 29,0 m 13,0 l 29,0 m 13,0 l 29,0 m 14,0 l 28,0 m 14,0 l 29,0 m 13,0 l 29,0 m 13,0 l 29,0 m 13,0 l 29,0"></path>
<path class="white" d="M 1636,2570 l -28,0 0,-27 28,0 0,27 z"></path>
<path class="black" d="M 1623,2570 l -2,0 0,-11 2,0 0,11 z"></path>
<path class="stroke4" d="M 1623,2570 l -2,0 0,-11 2,0 0,11"></path>
<path class="stroke6" d="M 1609,2556 l 0,-3 1,-1 0,-2 6,-6 2,0 1,-1 6,0 1,1 2,0 6,6 0,2 1,1 0,3"></path>
<text class="t2"><tspan x="2096" y="2084">U_FWG2</tspan>

<tspan x="2096" y="2149">0.35</tspan>

<tspan x="2096" y="2193">GE/GN</tspan>

<tspan x="1538" y="2534">23</tspan>
</text>
<path class="stroke4" d="M 1635,1929 l 28,0 m 14,0 l 29,0 m 13,0 l 29,0 m 13,0 l 29,0 m 13,0 l 29,0 m 14,0 l 28,0 m 14,0 l 29,0 m 13,0 l 29,0 m 13,0 l 29,0 m 13,0 l 29,0"></path>
<path class="white" d="M 2044,1916 l 28,0 0,27 -28,0 0,-27 z"></path>
<path class="black" d="M 2057,1916 l 2,0 0,11 -2,0 0,-11 z"></path>
<path class="stroke4" d="M 2057,1916 l 2,0 0,11 -2,0 0,-11"></path>
<path class="stroke6" d="M 2071,1929 l 0,3 -1,1 0,2 -6,6 -2,0 -1,1 -6,0 -1,-1 -2,0 -6,-6 0,-2 -1,-1 0,-3"></path>
<text class="t2"><tspan x="1997" y="1975">3</tspan>
</text>
<path class="stroke4" d="M 1635,2556 l 28,0 m 14,0 l 29,0 m 13,0 l 29,0 m 13,0 l 29,0 m 13,0 l 29,0 m 14,0 l 28,0 m 14,0 l 29,0 m 13,0 l 29,0 m 13,0 l 29,0 m 13,0 l 29,0"></path>
<path class="white" d="M 2072,2570 l -27,0 0,-27 27,0 0,27 z"></path>
<path class="black" d="M 2059,2570 l -2,0 0,-11 2,0 0,11 z"></path>
<path class="stroke4" d="M 2059,2570 l -2,0 0,-11 2,0 0,11"></path>
<path class="stroke6" d="M 2045,2556 l 0,-3 1,-1 0,-2 6,-6 2,0 1,-1 6,0 1,1 2,0 6,6 0,2 1,1 0,3"></path>
<text class="t2"><tspan x="2533" y="2084">A_FWG2</tspan>

<tspan x="2533" y="2149">0.35</tspan>

<tspan x="2533" y="2193">WS/GE</tspan>

<tspan x="1974" y="2534">24</tspan>
</text>
<path class="stroke4" d="M 2071,1929 l 28,0 m 14,0 l 29,0 m 13,0 l 29,0 m 13,0 l 29,0 m 13,0 l 29,0 m 14,0 l 28,0 m 14,0 l 29,0 m 13,0 l 29,0 m 13,0 l 29,0 m 13,0 l 29,0"></path>
<path class="white" d="M 2480,1916 l 28,0 0,27 -28,0 0,-27 z"></path>
<path class="black" d="M 2493,1916 l 2,0 0,11 -2,0 0,-11 z"></path>
<path class="stroke4" d="M 2493,1916 l 2,0 0,11 -2,0 0,-11"></path>
<path class="stroke6" d="M 2507,1929 l 0,3 -1,1 0,2 -6,6 -2,0 -1,1 -6,0 -1,-1 -2,0 -6,-6 0,-2 -1,-1 0,-3"></path>
<text class="t2"><tspan x="2533" y="1975"><a xmlns:xlink="http://www.w3.org/1999/xlink" xlink:type="simple" xlink:show="replace" xlink:actuate="onRequest" xlink:href="javascript:locateTree('X11400');">X11400</a>
</tspan>

<tspan x="2433" y="1975">6</tspan>
</text>
<path class="stroke4" d="M 2071,2556 l 28,0 m 14,0 l 29,0 m 13,0 l 29,0 m 13,0 l 29,0 m 13,0 l 29,0 m 14,0 l 28,0 m 14,0 l 29,0 m 13,0 l 29,0 m 13,0 l 29,0 m 13,0 l 29,0"></path>
<path class="white" d="M 2508,2570 l -27,0 0,-27 27,0 0,27 z"></path>
<path class="black" d="M 2495,2570 l -2,0 0,-11 2,0 0,11 z"></path>
<path class="stroke4" d="M 2495,2570 l -2,0 0,-11 2,0 0,11"></path>
<path class="stroke6" d="M 2481,2556 l 0,-3 1,-1 0,-2 6,-6 2,0 1,-1 6,0 1,1 2,0 6,6 0,2 1,1 0,3"></path>
<text class="t2"><tspan x="2433" y="2534">7</tspan>
</text>
<path class="stroke8" d="M 204,1588 l 2508,0 0,328 -2508,0 0,-328 m 0,982 l 15,0 m 18,0 l 30,0 m 18,0 l 30,0 m 18,0 l 30,0 m 18,0 l 30,0 m 18,0 l 30,0 m 18,0 l 30,0 m 18,0 l 30,0 m 18,0 l 30,0 m 18,0 l 30,0 m 18,0 l 30,0 m 18,0 l 30,0 m 18,0 l 30,0 m 18,0 l 30,0 m 18,0 l 30,0 m 18,0 l 30,0 m 18,0 l 30,0 m 18,0 l 30,0 m 18,0 l 30,0 m 18,0 l 30,0 m 18,0 l 30,0 m 18,0 l 30,0 m 18,0 l 30,0 m 18,0 l 30,0 m 18,0 l 30,0 m 18,0 l 30,0 m 18,0 l 30,0 m 18,0 l 30,0 m 18,0 l 30,0 m 18,0 l 30,0 m 18,0 l 30,0 m 18,0 l 30,0"></path>
<path class="stroke8" d="M 1725,2570 l 30,0 m 18,0 l 30,0 m 18,0 l 30,0 m 18,0 l 30,0 m 18,0 l 30,0 m 18,0 l 30,0 m 18,0 l 30,0 m 18,0 l 30,0 m 18,0 l 30,0 m 18,0 l 30,0 m 18,0 l 30,0 m 18,0 l 30,0 m 18,0 l 30,0 m 18,0 l 30,0 m 18,0 l 30,0 m 18,0 l 30,0 m 18,0 l 30,0 m 18,0 l 30,0 m 18,0 l 30,0 m 18,0 l 30,0 m 18,0 l 30,0 m 18,0 l 30,0 m 18,0 l 30,0 m 18,0 l 30,0 m 18,0 l 30,0 m 18,0 l 30,0 m 18,0 l 30,0 m 18,0 l 30,0 m 18,0 l 30,0 m 18,0 l 30,0 m 18,0 l 30,0 m 18,0 l 30,0 m 18,0 l 30,0"></path>
<path class="stroke8" d="M 3309,2570 l 30,0 m 18,0 l 30,0 m 18,0 l 30,0 m 18,0 l 30,0 m 18,0 l 30,0 m 18,0 l 30,0 m 18,0 l 30,0 m 18,0 l 30,0 m 18,0 l 30,0 m 18,0 l 30,0 m 18,0 l 30,0 m 18,0 l 30,0 m 18,0 l 30,0 m 18,0 l 30,0 m 18,0 l 30,0 m 18,0 l 30,0 m 18,0 l 30,0 m 18,0 l 30,0 m 18,0 l 30,0 m 18,0 l 30,0 m 18,0 l 30,0 m 18,0 l 30,0 m 18,0 l 30,0 m 18,0 l 30,0 m 18,0 l 30,0 m 18,0 l 30,0 m 18,0 l 30,0 m 18,0 l 30,0 m 18,0 l 30,0 m 18,0 l 30,0 m 18,0 l 30,0 m 18,0 l 30,0 m 18,0 l 30,0"></path>
<path class="stroke8" d="M 4893,2570 l 30,0 m 18,0 l 30,0 m 18,0 l 30,0 m 18,0 l 30,0 m 18,0 l 30,0 m 18,0 l 30,0 m 18,0 l 30,0 m 18,0 l 30,0 m 18,0 l 30,0 m 18,0 l 30,0 m 18,0 l 30,0 m 18,0 l 30,0 m 18,0 l 30,0 m 18,0 l 30,0 m 18,0 l 30,0 m 18,0 l 30,0 m 18,0 l 30,0 m 18,0 l 30,0 m 18,0 l 30,0 m 18,0 l 30,0 m 18,0 l 30,0 m 18,0 l 30,0 m 18,0 l 30,0 m 18,0 l 30,0 m 18,0 l 30,0 m 18,0 l 30,0 m 18,0 l 30,0 m 18,0 l 30,0 m 18,0 l 30,0 m 18,0 l 30,0 m 18,0 l 30,0 m 18,0 l 30,0 m 18,0 l 30,0"></path>
<path class="stroke8" d="M 6477,2570 l 30,0 m 18,0 l 30,0 m 18,0 l 30,0 m 18,0 l 17,0 0,14 m 0,18 l 0,29 m 0,17 l 0,29 m 0,18 l 0,29 m 0,17 l 0,30 m 0,17 l 0,29 m 0,18 l 0,29 m 0,17 l 0,16 -15,0 m -18,0 l -30,0 m -18,0 l -30,0 m -18,0 l -30,0 m -18,0 l -30,0 m -18,0 l -30,0 m -18,0 l -30,0 m -18,0 l -30,0 m -18,0 l -30,0 m -18,0 l -30,0 m -18,0 l -30,0 m -18,0 l -30,0 m -18,0 l -30,0 m -18,0 l -30,0 m -18,0 l -30,0 m -18,0 l -30,0 m -18,0 l -30,0 m -18,0 l -30,0 m -18,0 l -30,0 m -18,0 l -30,0 m -18,0 l -30,0 m -18,0 l -30,0 m -18,0 l -30,0"></path>
<path class="stroke8" d="M 5549,2897 l -30,0 m -18,0 l -30,0 m -18,0 l -30,0 m -18,0 l -30,0 m -18,0 l -30,0 m -18,0 l -30,0 m -18,0 l -30,0 m -18,0 l -30,0 m -18,0 l -30,0 m -18,0 l -30,0 m -18,0 l -30,0 m -18,0 l -30,0 m -18,0 l -30,0 m -18,0 l -30,0 m -18,0 l -30,0 m -18,0 l -30,0 m -18,0 l -30,0 m -18,0 l -30,0 m -18,0 l -30,0 m -18,0 l -30,0 m -18,0 l -30,0 m -18,0 l -30,0 m -18,0 l -30,0 m -18,0 l -30,0 m -18,0 l -30,0 m -18,0 l -30,0 m -18,0 l -30,0 m -18,0 l -30,0 m -18,0 l -30,0 m -18,0 l -30,0 m -18,0 l -30,0 m -18,0 l -30,0 m -18,0 l -30,0"></path>
<path class="stroke8" d="M 3965,2897 l -30,0 m -18,0 l -30,0 m -18,0 l -30,0 m -18,0 l -30,0 m -18,0 l -30,0 m -18,0 l -30,0 m -18,0 l -30,0 m -18,0 l -30,0 m -18,0 l -30,0 m -18,0 l -30,0 m -18,0 l -30,0 m -18,0 l -30,0 m -18,0 l -30,0 m -18,0 l -30,0 m -18,0 l -30,0 m -18,0 l -30,0 m -18,0 l -30,0 m -18,0 l -30,0 m -18,0 l -30,0 m -18,0 l -30,0 m -18,0 l -30,0 m -18,0 l -30,0 m -18,0 l -30,0 m -18,0 l -30,0 m -18,0 l -30,0 m -18,0 l -30,0 m -18,0 l -30,0 m -18,0 l -30,0 m -18,0 l -30,0 m -18,0 l -30,0 m -18,0 l -30,0 m -18,0 l -30,0 m -18,0 l -30,0"></path>
<path class="stroke8" d="M 2381,2897 l -30,0 m -18,0 l -30,0 m -18,0 l -30,0 m -18,0 l -30,0 m -18,0 l -30,0 m -18,0 l -30,0 m -18,0 l -30,0 m -18,0 l -30,0 m -18,0 l -30,0 m -18,0 l -30,0 m -18,0 l -30,0 m -18,0 l -30,0 m -18,0 l -30,0 m -18,0 l -30,0 m -18,0 l -30,0 m -18,0 l -30,0 m -18,0 l -30,0 m -18,0 l -30,0 m -18,0 l -30,0 m -18,0 l -30,0 m -18,0 l -30,0 m -18,0 l -30,0 m -18,0 l -30,0 m -18,0 l -30,0 m -18,0 l -30,0 m -18,0 l -30,0 m -18,0 l -30,0 m -18,0 l -30,0 m -18,0 l -30,0 m -18,0 l -30,0 m -18,0 l -30,0 m -18,0 l -30,0 m -18,0 l -30,0"></path>
<path class="stroke8" d="M 797,2897 l -30,0 m -18,0 l -30,0 m -18,0 l -30,0 m -18,0 l -30,0 m -18,0 l -30,0 m -18,0 l -30,0 m -18,0 l -30,0 m -18,0 l -30,0 m -18,0 l -30,0 m -18,0 l -30,0 m -18,0 l -30,0 m -18,0 l -30,0 m -18,0 l -17,0 0,-14 m 0,-18 l 0,-29 m 0,-17 l 0,-29 m 0,-18 l 0,-29 m 0,-17 l 0,-30 m 0,-17 l 0,-29 m 0,-18 l 0,-29 m 0,-17 l 0,-16"></path>
<text class="t3"><tspan x="2751" y="1597">.</tspan>
</text>
<text class="t2"><tspan x="2751" y="1633"><a xmlns:xlink="http://www.w3.org/1999/xlink" xlink:type="simple" xlink:show="replace" xlink:actuate="onRequest" xlink:href="javascript:locateTree('B10');">B10</a>
</tspan>
</text>
<text class="t2"><tspan x="2751" y="1702">Accelerator pedal</tspan>

<tspan x="2751" y="1746">module</tspan>
</text>
<path class="stroke4" d="M 3899,2556 l -29,0 m -14,0 l -30,0 m -14,0 l -30,0 m -14,0 l -30,0 m -14,0 l -30,0 m -14,0 l -29,0 m -14,0 l -30,0 m -14,0 l -30,0 m -14,0 l -30,0 m -14,0 l -30,0 m -14,0 l -29,0 m -14,0 l -30,0 m -14,0 l -30,0 m -14,0 l -30,0 m -14,0 l -30,0 m -14,0 l -29,0 m -14,0 l -30,0 m -14,0 l -30,0 m -14,0 l -30,0 m -14,0 l -30,0 m -14,0 l -29,0 m -14,0 l -30,0 m -14,0 l -30,0 m -14,0 l -30,0 m -14,0 l -30,0 m -14,0 l -29,0 m -14,0 l -30,0 m -14,0 l -30,0 m -14,0 l -30,0 m -14,0 l -30,0 m -14,0 l -29,0 m -14,0 l -30,0 m -1108,-831 l 109,0 0,54 -109,0 0,-54"></path>
<path class="stroke4" d="M 1442,1764 l 33,-22 m -33,0 l 33,21 m 38,-11 l 20,0 m -75,-44 l 0,17 m 0,54 l 0,17 m -75,-44 l 21,0 m 5439,-177 l -30,0 m -14,0 l -30,0 m -14,0 l -30,0 m -14,0 l -30,0 m -14,0 l -30,0 m -14,0 l -30,0 m -14,0 l -30,0 m -14,0 l -30,0 m -14,0 l -30,0 m -14,0 l -31,0 m -14,0 l -30,0 m -14,0 l -30,0 m -14,0 l -30,0 m -14,0 l -30,0 m -14,0 l -30,0 m -14,0 l -30,0 m -14,0 l -30,0"></path>
<path class="white" d="M 4771,1916 l 27,0 0,27 -27,0 0,-27 z"></path>
<path class="black" d="M 4784,1916 l 1,0 0,11 -1,0 0,-11 z"></path>
<path class="stroke4" d="M 4784,1916 l 1,0 0,11 -1,0 0,-11"></path>
<path class="stroke6" d="M 4798,1929 l 0,3 -1,1 0,1 -1,1 0,1 -4,4 -1,0 -1,1 -1,0 -1,1 -7,0 -1,-1 -1,0 -1,-1 -1,0 -4,-4 0,-1 -1,-1 0,-1 -1,-1 0,-3"></path>
<text class="t2"><tspan x="4823" y="1975"><a xmlns:xlink="http://www.w3.org/1999/xlink" xlink:type="simple" xlink:show="replace" xlink:actuate="onRequest" xlink:href="javascript:locateTree('X78');">X78</a>
</tspan>

<tspan x="4723" y="1975">2</tspan>
</text>
<path class="stroke4" d="M 4771,1929 l -28,0 m -14,0 l -29,0 m -13,0 l -29,0 m -13,0 l -29,0 m -13,0 l -29,0 m -14,0 l -28,0 m -14,0 l -29,0 m -13,0 l -29,0 m -13,0 l -29,0 m -13,0 l -29,0"></path>
<path class="stroke8" d="M 3585,1588 l 1418,0 0,328 -1418,0 0,-328"></path>
<path class="stroke4" d="M 313,2757 l 2,0 1,-1 1,0 1,-1 0,-1 1,-1 0,-3 -1,-1 0,-1 -1,-1 -1,0 -1,-1 -3,0 -1,1 -1,0 -1,1 0,1 -1,1 0,3 1,1 0,1 1,1 1,0 1,1 m 7,-5 l -11,0 m 1,-3 l 9,0 m -9,6 l 9,0"></path>
<text class="t2"><tspan x="235" y="2767">31</tspan>
</text>
<path class="stroke4" d="M 313,2570 l 0,65 m -11,84 l 22,0 0,-84 -22,0 0,84 m 11,-108 l 2,0 1,-1 1,0 1,-1 0,-1 1,-1 0,-3 -1,-1 0,-1 -1,-1 -1,0 -1,-1 -3,0 -1,1 -1,0 -1,1 0,1 -1,1 0,3 1,1 0,1 1,1 1,0 1,1 m -10,149 l 22,0 m 37,-154 l 24,0 -24,10 0,-22 24,12 m -24,-4 l 16,0 m -16,-4 l 9,0 m -9,11 l 14,0 m -14,4 l 7,0 m -55,106 l 0,27 m -5,-140 l 64,0 m -63,-3 l 9,0 m -9,5 l 9,0 m 1303,149 l 2,0 1,-1 1,0 1,-1 0,-1 1,-1 0,-3 -1,-1 0,-1 -1,-1 -1,0 -1,-1 -3,0 -1,1 -1,0 -1,1 0,1 -1,1 0,3 1,1 0,1 1,1 1,0 1,1 m 7,-5 l -11,0 m 1,-3 l 9,0 m -9,6 l 9,0"></path>
<text class="t2"><tspan x="1544" y="2767">31</tspan>
</text>
<path class="stroke4" d="M 1622,2570 l 0,65 m -11,84 l 22,0 0,-84 -22,0 0,84 m 10,-108 l 2,0 1,-1 1,0 1,-1 0,-1 1,-1 0,-3 -1,-1 0,-1 -1,-1 -1,0 -1,-1 -3,0 -1,1 -1,0 -1,1 0,1 -1,1 0,3 1,1 0,1 1,1 1,0 1,1 m -9,149 l 22,0 m 37,-154 l 23,0 -23,10 0,-22 23,12 m -23,-4 l 15,0 m -15,-4 l 8,0 m -8,11 l 14,0 m -14,4 l 6,0 m -54,106 l 0,27 m -6,-140 l 65,0 m -64,-3 l 9,0 m -9,5 l 9,0 m 562,224 l 2,0 1,-1 1,0 1,-1 0,-1 1,-1 0,-3 -1,-1 0,-1 -1,-1 -1,0 -1,-1 -3,0 -1,1 -1,0 -1,1 0,1 -1,1 0,3 1,1 0,1 1,1 1,0 1,1 m 7,-5 l -11,0 m 1,-3 l 9,0 m -9,5 l 9,0"></path>
<text class="t2"><tspan x="2111" y="2842">31</tspan>
</text>
<path class="stroke4" d="M 2178,2835 l 22,0 m -142,-265 l 0,59 m -11,0 l 22,0 0,85 -22,0 0,-85 m 7,140 l 0,5 1,1 0,3 1,1 0,2 1,1 0,1 1,1 0,1 2,2 0,1 6,6 1,0 2,2 1,0 1,1 1,0 1,1 2,0 1,1 3,0 1,1 10,0 1,-1 2,0 1,-1 2,0 1,-1 1,0 1,-1 1,0 2,-2 1,0 6,-6 0,-1 2,-2 0,-1 1,-1 0,-1 1,-1 0,-2 1,-1 0,-2 1,-1 0,-11 -1,-1 0,-2 -1,-1 0,-2 -1,-1 0,-1 -1,-1 0,-1 -2,-2 0,-1 -6,-6 -1,0 -2,-2 -1,0 -1,-1 -1,0 -1,-1 -2,0 -1,-1 -2,0 -1,-1 -10,0 -1,1 -3,0 -1,1 -2,0 -1,1 -1,0 -1,1 -1,0 -2,2 -1,0 -6,6 0,1 -2,2 0,1 -1,1 0,1 -1,1 0,2 -1,1 0,3 -1,1 0,3 m 4,-54 l  0,40 m 6,22 l 41,0 m -45,-22 l 12,22 m 36,-21 l -1,11 -7,-4 8,-7 m -23,21 l 0,60 m 12,-60 l 12,-22 80,0 0,67 m -131,-213 l 2,0 1,-1 1,0 1,-1 0,-1 1,-1 0,-3 -1,-1 0,-1 -1,-1 -1,0 -1,-1 -4,0 -1,1 -1,0 -1,1 0,1 -1,1 0,3 1,1 0,1 1,1 1,0 1,1 1,0 m 49,-5 l 23,0 -23,10 0,-21 23,11 m -23,-4 l 16,0 m -16,-4 l 8,0 m -8,11 l 14,0 m -14,4 l 7,0 m -61,-7 l 65,0 m -64,-3 l 10,0 m -10,5 l 9,0 m 562,227 l 2,0 1,-1 1,0 1,-1 0,-1 1,-1 0,-3 -1,-1 0,-1 -1,-1 -1,0 -1,-1 -3,0 -1,1 -1,0 -1,1 0,1 -1,1 0,3 1,1 0,1 1,1 1,0 1,1 m 7,-5 l -11,0 m 1,-3 l 10,0 m -10,5 l 9,0"></path>
<text class="t2"><tspan x="2547" y="2842">31</tspan>
</text>
<path class="stroke4" d="M 2614,2835 l 22,0 m -142,-265 l 0,59 m -10,0 l 21,0 0,85 -21,0 0,-85 m 6,140 l 0,5 1,1 0,3 1,1 0,2 1,1 0,1 1,1 0,1 2,2 0,1 6,6 1,0 2,2 1,0 1,1 1,0 1,1 2,0 1,1 3,0 1,1 10,0 1,-1 2,0 1,-1 2,0 1,-1 1,0 1,-1 1,0 2,-2 1,0 6,-6 0,-1 2,-2 0,-1 1,-1 0,-1 1,-1 0,-2 1,-1 0,-2 1,-1 0,-11 -1,-1 0,-2 -1,-1 0,-2 -1,-1 0,-1 -1,-1 0,-1 -2,-2 0,-1 -6,-6 -1,0 -2,-2 -1,0 -1,-1 -1,0 -1,-1 -2,0 -1,-1 -2,0 -1,-1 -10,0 -1,1 -3,0 -1,1 -2,0 -1,1 -1,0 -1,1 -1,0 -2,2 -1,0 -6,6 0,1 -2,2 0,1 -1,1 0,1 -1,1 0,2 -1,1 0,3 -1,1 0,3 m 4,-54 l  0,40 m 6,22 l 41,0 m -45,-22 l 12,22 m 37,-21 l -2,11 -7,-4 9,-7 m -24,21 l 0,60 m 12,-60 l 13,-22 79,0 0,67 m -131,-213 l 2,0 1,-1 1,0 1,-1 0,-1 1,-1 0,-3 -1,-1 0,-1 -1,-1 -1,0 -1,-1 -3,0 -1,1 -1,0 -1,1 0,1 -1,1 0,3 1,1 0,1 1,1 1,0 1,1 m 49,-5 l 24,0 -24,10 0,-21 24,11 m -24,-4 l 16,0 m -16,-4 l 9,0 m -9,11 l 14,0 m -14,4 l 7,0 m -60,-7 l 64,0 m -63,-3 l 9,0 m -9,5 l 9,0 m -1183,227 l 2,0 1,-1 1,0 1,-1 0,-1 1,-1 0,-3 -1,-1 0,-1 -1,-1 -1,0 -1,-1 -3,0 -1,1 -1,0 -1,1 0,1 -1,1 0,3 1,1 0,1 1,1 1,0 1,1 m 7,-5 l -11,0 m 1,-3 l 9,0 m -9,5 l 9,0"></path>
<text class="t2"><tspan x="1238" y="2842">31</tspan>
</text>
<path class="stroke4" d="M 1305,2835 l 22,0 m -141,-265 l 0,59 m -11,0 l 21,0 0,85 -21,0 0,-85 m 6,140 l 0,5 1,1 0,3 1,1 0,2 1,1 0,1 1,1 0,1 2,2 0,1 6,6 1,0 2,2 1,0 1,1 1,0 1,1 2,0 1,1 3,0 1,1 10,0 1,-1 2,0 1,-1 2,0 1,-1 1,0 1,-1 1,0 2,-2 1,0 6,-6 0,-1 2,-2 0,-1 1,-1 0,-1 1,-1 0,-2 1,-1 0,-2 1,-1 0,-11 -1,-1 0,-2 -1,-1 0,-2 -1,-1 0,-1 -1,-1 0,-1 -2,-2 0,-1 -6,-6 -1,0 -2,-2 -1,0 -1,-1 -1,0 -1,-1 -2,0 -1,-1 -2,0 -1,-1 -10,0 -1,1 -3,0 -1,1 -2,0 -1,1 -1,0 -1,1 -1,0 -2,2 -1,0 -6,6 0,1 -2,2 0,1 -1,1 0,1 -1,1 0,2 -1,1 0,3 -1,1 0,3 m 5,-54 l  0,40 m 5,22 l 41,0 m -45,-22 l 12,22 m 37,-21 l -2,11 -6,-4 8,-7 m -23,21 l 0,60 m 12,-60 l 12,-22 79,0 0,67 m -131,-213 l 2,0 1,-1 1,0 1,-1 0,-1 1,-1 0,-3 -1,-1 0,-1 -1,-1 -1,0 -1,-1 -3,0 -1,1 -1,0 -1,1 0,1 -1,1 0,3 1,1 0,1 1,1 1,0 1,1 m 50,-5 l 23,0 -23,10 0,-21 23,11 m -23,-4 l 15,0 m -15,-4 l 8,0 m -8,11 l 14,0 m -14,4 l 6,0 m -60,-7 l 65,0 m -64,-3 l 9,0 m -9,5 l 9,0 m -310,227 l 2,0 1,-1 1,0 1,-1 0,-1 1,-1 0,-3 -1,-1 0,-1 -1,-1 -1,0 -1,-1 -4,0 -1,1 -1,0 -1,1 0,1 -1,1 0,3 1,1 0,1 1,1 1,0 1,1 1,0 m 7,-5 l -12,0 m 1,-3 l 10,0 m -10,5 l 9,0"></path>
<text class="t2"><tspan x="802" y="2842">31</tspan>
</text>
<path class="stroke4" d="M 869,2835 l 22,0 m -142,-265 l 0,59 m -10,0 l 21,0 0,85 -21,0 0,-85 m 6,140 l 0,5 1,1 0,3 1,1 0,2 1,1 0,1 1,1 0,1 2,2 0,1 6,6 1,0 2,2 1,0 1,1 1,0 1,1 2,0 1,1 3,0 1,1 10,0 1,-1 2,0 1,-1 2,0 1,-1 1,0 1,-1 1,0 2,-2 1,0 6,-6 0,-1 2,-2 0,-1 1,-1 0,-1 1,-1 0,-2 1,-1 0,-2 1,-1 0,-11 -1,-1 0,-2 -1,-1 0,-2 -1,-1 0,-1 -1,-1 0,-1 -2,-2 0,-1 -6,-6 -1,0 -2,-2 -1,0 -1,-1 -1,0 -1,-1 -2,0 -1,-1 -2,0 -1,-1 -10,0 -1,1 -3,0 -1,1 -2,0 -1,1 -1,0 -1,1 -1,0 -2,2 -1,0 -6,6 0,1 -2,2 0,1 -1,1 0,1 -1,1 0,2 -1,1 0,3 -1,1 0,3 m 4,-54 l  0,40 m 6,22 l 41,0 m -45,-22 l 12,22 m 37,-21 l -2,11 -7,-4 9,-7 m -23,21 l 0,60 m 11,-60 l 13,-22 79,0 0,67 m -131,-213 l 2,0 1,-1 1,0 1,-1 0,-1 1,-1 0,-3 -1,-1 0,-1 -1,-1 -1,0 -1,-1 -3,0 -1,1 -1,0 -1,1 0,1 -1,1 0,3 1,1 0,1 1,1 1,0 1,1 m 49,-5 l 24,0 -24,10 0,-21 24,11 m -24,-4 l 16,0 m -16,-4 l 9,0 m -9,11 l 15,0 m -15,4 l 7,0 m -60,-7 l 64,0 m -63,-3 l 9,0 m -9,5 l 9,0 m 3047,-1717 l -11,0 m 1,-3 l 9,0 m -9,5 l 9,0 m -5,24 l 0,-21 2,0 1,-1 1,0 1,-1 0,-1 1,-1 0,-3 -1,-1 0,-1 -1,-1 -1,0 -1,-1 -3,0 -1,1 -1,0 -1,1 0,1 -1,1 0,3 1,1 0,1 1,1 1,0 1,1 m -10,21 l 22,0 0,84 -22,0 0,-84 m -25,-26 l 73,0"></path>
<text class="t2"><tspan x="3786" y="871">R</tspan>
</text>
<path class="stroke4" d="M 3694,1051 l 0,101 m 107,-87 l 0,-4 -1,-1 0,-3 -1,-1 0,-2 -1,-1 0,-1 -1,-1 0,-1 -2,-2 0,-1 -6,-6 -1,0 -2,-2 -1,0 -1,-1 -1,0 -1,-1 -2,0 -1,-1 -3,0 -1,-1 -10,0 -1,1 -2,0 -1,1 -2,0 -1,1 -1,0 -1,1 -1,0 -2,2 -1,0 -6,6 0,1 -2,2 0,1 -1,1 0,1 -1,1 0,2 -1,1 0,2 -1,1 0,11 1,1 0,2 1,1 0,2 1,1 0,1 1,1 0,1 2,2 0,1 6,6 1,0 2,2 1,0 1,1 1,0 1,1 2,0 1,1 2,0 1,1 10,0 1,-1 3,0 1,-1 2,0 1,-1 1,0 1,-1 1,0 2,-2 1,0 6,-6 0,-1 2,-2 0,-1 1,-1 0,-1 1,-1 0,-2 1,-1 0,-3 1,-1 0,-4 m -10,6 l -41,0 m 45,-74 l 0,52 -12,22 m -38,-22 l 13,22 m -12,-21 l  2,11 7,-4 -9,-7 m 49,-27 l 2,0 1,-1 1,0 1,-1 0,-1 1,-1 0,-3 -1,-1 0,-1 -1,-1 -1,0 -1,-1 -4,0 -1,1 -1,0 -1,1 0,1 -1,1 0,3 1,1 0,1 1,1 1,0 1,1 1,0 m 1,-5 l 57,0 m -8,0 l 23,0 -23,10 0,-21 23,11 m -23,-4 l 15,0 m -15,-3 l 8,0 m -8,10 l 14,0 m -14,4 l 6,0 m -49,-7 l -12,0 m 1,-3 l 10,0 m -10,5 l 9,0 m -30,51 l 0,60 m -23,-81 l -52,0"></path>
<path style="fill:none;stroke:#000000;stroke-width:15" d="M 7020,2352 l -163,0"></path>
<path class="stroke4" d="M 7020,2370 l 40,-18 -40,-19 0,37 m 0,-25 l 24,0 m -24,3 l 31,0 m -31,4 l 40,0 m -40,3 l 31,0 m -31,4 l 24,0 m -24,4 l 15,0 m -15,3 l 7,0 m -7,-25 l 16,0 m -16,-4 l 9,0 m -9,-3 l 2,0"></path>
<path class="white" d="M 6853,2335 l -1,1 -2,0 -1,1 -1,0 -5,5 0,1 -2,2 0,2 -1,1 0,8 1,1 0,2 1,1 0,1 6,6 1,0 1,1 2,0 1,1 7,0 1,-1 2,0 1,-1 1,0 6,-6 0,-1 1,-1 0,-2 1,-1 0,-8 -1,-1 0,-2 -2,-2 0,-1 -5,-5 -1,0 -1,-1 -2,0 -1,-1 -7,0 z"></path>
<path class="stroke4" d="M 6856,2345 l -2,0 -1,1 -1,0 -2,2 0,1 -1,1 0,4 1,1 0,1 2,2 1,0 1,1 5,0 1,-1 1,0 2,-2 0,-1 1,-1 0,-4 -1,-1 0,-1 -2,-2 -1,0 -1,-1 -2,0 m -6,2 l 10,0 m -10,2 l 12,0 m -13,2 l 13,0 m -14,2 l 15,0 m -14,2 l 13,0 m -12,1 l 11,0 m -8,2 l 6,0 m -7,-13 l 7,0"></path>
<text class="t2"><tspan x="6895" y="2316"><a xmlns:xlink="http://www.w3.org/1999/xlink" xlink:type="simple" xlink:show="replace" xlink:actuate="onRequest" xlink:href="javascript:locateTree('X217');">X217</a>
</tspan>
</text>
<path class="white" d="M 6843,1152 l 27,0 0,28 -27,0 0,-28 z"></path>
<path class="black" d="M 6856,1152 l 1,0 0,12 -1,0 0,-12 z"></path>
<path class="stroke4" d="M 6856,1152 l 1,0 0,12 -1,0 0,-12"></path>
<path class="stroke6" d="M 6870,1166 l 0,3 -1,1 0,1 -1,1 0,1 -4,4 -1,0 -1,1 -1,0 -1,1 -7,0 -1,-1 -1,0 -1,-1 -1,0 -4,-4 0,-1 -1,-1 0,-1 -1,-1 0,-3"></path>
<text class="t2"><tspan x="6895" y="1212"><a xmlns:xlink="http://www.w3.org/1999/xlink" xlink:type="simple" xlink:show="replace" xlink:actuate="onRequest" xlink:href="javascript:locateTree('X13376');">X13376</a>
</tspan>

<tspan x="6772" y="1212">41</tspan>
</text>
<path class="stroke4" d="M 6843,1166 l -30,0 m -14,0 l -30,0 m -14,0 l -30,0 m -14,0 l -30,0 m -14,0 l -30,0 m -14,0 l -30,0 m -14,0 l -30,0 m -14,0 l -30,0 m -14,0 l -30,0 m -14,0 l -31,0 m -14,0 l -30,0 m -14,0 l -30,0 m -14,0 l -30,0 m -14,0 l -30,0 m -14,0 l -30,0 m -14,0 l -30,0 m -14,0 l -30,0"></path>
<path class="stroke8" d="M 3585,825 l 14,0 m 18,0 l 30,0 m 18,0 l 30,0 m 18,0 l 30,0 m 17,0 l 30,0 m 18,0 l 30,0 m 18,0 l 30,0 m 18,0 l 29,0 m 18,0 l 30,0 m 18,0 l 30,0 m 18,0 l 29,0 m 18,0 l 30,0 m 18,0 l 30,0 m 18,0 l 30,0 m 17,0 l 30,0 m 18,0 l 30,0 m 18,0 l 30,0 m 18,0 l 29,0 m 18,0 l 30,0 m 18,0 l 30,0 m 18,0 l 29,0 m 18,0 l 30,0 m 18,0 l 30,0 m 18,0 l 30,0 m 17,0 l 30,0 m 18,0 l 30,0 m 18,0 l 30,0 m 18,0 l 29,0 m 18,0 l 30,0 m 18,0 l 30,0 m 18,0 l 29,0 m 18,0 l 30,0 m 18,0 l 30,0"></path>
<path class="stroke8" d="M 5144,825 l 30,0 m 17,0 l 30,0 m 18,0 l 30,0 m 18,0 l 30,0 m 18,0 l 29,0 m 18,0 l 30,0 m 18,0 l 30,0 m 18,0 l 29,0 m 18,0 l 30,0 m 18,0 l 30,0 m 18,0 l 30,0 m 17,0 l 30,0 m 18,0 l 30,0 m 18,0 l 30,0 m 18,0 l 29,0 m 18,0 l 30,0 m 18,0 l 30,0 m 18,0 l 29,0 m 18,0 l 30,0 m 18,0 l 30,0 m 18,0 l 30,0 m 17,0 l 30,0 m 18,0 l 30,0 m 18,0 l 30,0 m 18,0 l 29,0 m 18,0 l 30,0 m 18,0 l 30,0 m 18,0 l 29,0 m 18,0 l 30,0 m 18,0 l 30,0 m 18,0 l 30,0 m 17,0 l 30,0 m 18,0 l 30,0"></path>
<path class="stroke8" d="M 6718,825 l 30,0 m 18,0 l 29,0 m 18,0 l 30,0 m 18,0 l 30,0 m 18,0 l 29,0 m 18,0 l 30,0 m 18,0 l 30,0 m 18,0 l 23,0 0,14 m 0,18 l 0,29 m 0,17 l 0,29 m 0,18 l 0,29 m 0,17 l 0,30 m 0,17 l 0,29 m 0,18 l 0,29 m 0,17 l 0,16 -14,0 m -18,0 l -30,0 m -18,0 l -30,0 m -18,0 l -30,0 m -17,0 l -30,0 m -18,0 l -30,0 m -18,0 l -30,0 m -18,0 l -29,0 m -18,0 l -30,0 m -18,0 l -30,0 m -18,0 l -29,0 m -18,0 l -30,0 m -18,0 l -30,0 m -18,0 l -30,0 m -17,0 l -30,0 m -18,0 l -30,0 m -18,0 l -30,0 m -18,0 l -29,0 m -18,0 l -30,0"></path>
<path class="stroke8" d="M 6184,1152 l -30,0 m -18,0 l -29,0 m -18,0 l -30,0 m -18,0 l -30,0 m -18,0 l -30,0 m -17,0 l -30,0 m -18,0 l -30,0 m -18,0 l -30,0 m -18,0 l -29,0 m -18,0 l -30,0 m -18,0 l -30,0 m -18,0 l -29,0 m -18,0 l -30,0 m -18,0 l -30,0 m -18,0 l -30,0 m -17,0 l -30,0 m -18,0 l -30,0 m -18,0 l -30,0 m -18,0 l -29,0 m -18,0 l -30,0 m -18,0 l -30,0 m -18,0 l -29,0 m -18,0 l -30,0 m -18,0 l -30,0 m -18,0 l -30,0 m -17,0 l -30,0 m -18,0 l -30,0 m -18,0 l -30,0 m -18,0 l -29,0 m -18,0 l -30,0 m -18,0 l -30,0 m -18,0 l -29,0 m -18,0 l -30,0"></path>
<path class="stroke8" d="M 4610,1152 l -30,0 m -18,0 l -30,0 m -17,0 l -30,0 m -18,0 l -30,0 m -18,0 l -30,0 m -18,0 l -29,0 m -18,0 l -30,0 m -18,0 l -30,0 m -18,0 l -29,0 m -18,0 l -30,0 m -18,0 l -30,0 m -18,0 l -30,0 m -17,0 l -30,0 m -18,0 l -30,0 m -18,0 l -30,0 m -18,0 l -29,0 m -18,0 l -30,0 m -18,0 l -30,0 m -18,0 l -29,0 m -18,0 l -30,0 m -18,0 l -30,0 m -18,0 l -23,0 0,-14 m 0,-18 l 0,-29 m 0,-17 l 0,-29 m 0,-18 l 0,-29 m 0,-17 l 0,-30 m 0,-17 l 0,-29 m 0,-18 l 0,-29 m 0,-17 l 0,-16"></path>
<path class="stroke4" d="M 6200,888 l -11,0 m 1,-3 l 9,0 m -9,5 l 9,0 m -5,24 l 0,-21 2,0 1,-1 1,0 1,-1 0,-1 1,-1 0,-3 -1,-1 0,-1 -1,-1 -1,0 -1,-1 -3,0 -1,1 -1,0 -1,1 0,1 -1,1 0,3 1,1 0,1 1,1 1,0 1,1 m -9,21 l 21,0 0,84 -21,0 0,-84 m -26,-26 l 74,0"></path>
<text class="t2"><tspan x="6185" y="871">R</tspan>
</text>
<path class="stroke4" d="M 6093,1051 l 0,101 m 107,-87 l 0,-4 -1,-1 0,-3 -1,-1 0,-2 -1,-1 0,-1 -1,-1 0,-1 -2,-2 0,-1 -6,-6 -1,0 -2,-2 -1,0 -1,-1 -1,0 -1,-1 -2,0 -1,-1 -3,0 -1,-1 -10,0 -1,1 -2,0 -1,1 -2,0 -1,1 -1,0 -1,1 -1,0 -2,2 -1,0 -6,6 0,1 -2,2 0,1 -1,1 0,1 -1,1 0,2 -1,1 0,2 -1,1 0,11 1,1 0,2 1,1 0,2 1,1 0,1 1,1 0,1 2,2 0,1 6,6 1,0 2,2 1,0 1,1 1,0 1,1 2,0 1,1 2,0 1,1 10,0 1,-1 3,0 1,-1 2,0 1,-1 1,0 1,-1 1,0 2,-2 1,0 6,-6 0,-1 2,-2 0,-1 1,-1 0,-1 1,-1 0,-2 1,-1 0,-3 1,-1 0,-4 m -10,6 l -41,0 m 45,-74 l 0,52 -12,22 m -37,-22 l 12,22 m -12,-21 l  2,11 7,-4 -8,-7 m 48,-27 l 2,0 1,-1 1,0 1,-1 0,-1 1,-1 0,-3 -1,-1 0,-1 -1,-1 -1,0 -1,-1 -3,0 -1,1 -1,0 -1,1 0,1 -1,1 0,3 1,1 0,1 1,1 1,0 1,1 m 1,-5 l 57,0 m -8,0 l 23,0 -23,10 0,-21 23,11 m -23,-4 l 15,0 m -15,-3 l 8,0 m -8,10 l 14,0 m -14,4 l 6,0 m -49,-7 l -11,0 m 1,-3 l 9,0 m -9,5 l 9,0 m -30,51 l 0,60 m -23,-81 l -53,0 m 864,-158 l 2,0 1,-1 1,0 1,-1 0,-1 1,-1 0,-3 -1,-1 0,-1 -1,-1 -1,0 -1,-1 -3,0 -1,1 -1,0 -1,1 0,1 -1,1 0,3 1,1 0,1 1,1 1,0 1,1 m 7,-5 l -11,0 m 1,-3 l 9,0 m -9,5 l 9,0 m -4,3 l 0,21 m -11,0 l 21,0 0,84 -21,0 0,-84 m -26,-26 l 74,0"></path>
<text class="t2"><tspan x="6936" y="870">15</tspan>
</text>
<path class="stroke4" d="M 6857,1051 l 0,101 m 107,-87 l 0,-4 -1,-1 0,-3 -1,-1 0,-2 -1,-1 0,-1 -1,-1 0,-1 -2,-2 0,-1 -6,-6 -1,0 -2,-2 -1,0 -1,-1 -1,0 -1,-1 -2,0 -1,-1 -3,0 -1,-1 -10,0 -1,1 -2,0 -1,1 -2,0 -1,1 -1,0 -1,1 -1,0 -2,2 -1,0 -6,6 0,1 -2,2 0,1 -1,1 0,1 -1,1 0,2 -1,1 0,2 -1,1 0,11 1,1 0,2 1,1 0,2 1,1 0,1 1,1 0,1 2,2 0,1 6,6 1,0 2,2 1,0 1,1 1,0 1,1 2,0 1,1 2,0 1,1 10,0 1,-1 3,0 1,-1 2,0 1,-1 1,0 1,-1 1,0 2,-2 1,0 6,-6 0,-1 2,-2 0,-1 1,-1 0,-1 1,-1 0,-2 1,-1 0,-3 1,-1 0,-4 m -10,6 l -41,0 m 45,-74 l 0,52 -13,22 m -37,-22 l 12,22 m -11,-21 l  2,11 6,-4 -8,-7 m 48,-27 l 2,0 1,-1 1,0 1,-1 0,-1 1,-1 0,-3 -1,-1 0,-1 -1,-1 -1,0 -1,-1 -3,0 -1,1 -1,0 -1,1 0,1 -1,1 0,3 1,1 0,1 1,1 1,0 1,1 m 2,-5 l 57,0 m -9,0 l 23,0 -23,10 0,-21 23,11 m -23,-4 l 16,0 m -16,-3 l 8,0 m -8,10 l 14,0 m -14,4 l 7,0 m -50,-7 l -11,0 m 1,-3 l 9,0 m -9,5 l 9,0 m -30,51 l 0,60 m -23,-81 l -52,0 m -1527,-93 l -4,0 -1,1 -3,0 -1,1 -2,0 -1,1 -1,0 -1,1 -1,0 -2,2 -1,0 -6,6 0,1 -2,2 0,1 -1,1 0,1 -1,1 0,2 -1,1 0,3 -1,1 0,10 1,1 0,2 1,1 0,2 1,1 0,1 1,1 0,1 2,2 0,1 6,6 1,0 2,2 1,0 1,1 1,0 1,1 2,0 1,1 2,0 1,1 11,0 1,-1  2,0 1,-1 2,0 1,-1 1,0 1,-1 1,0 2,-2 1,0 6,-6 0,-1 2,-2 0,-1 1,-1 0,-1 1,-1 0,-2 1,-1 0,-2 1,-1 0,-10 -1,-1 0,-3 -1,-1 0,-2 -1,-1 0,-1 -1,-1 0,-1 -2,-2 0,-1 -6,-6 -1,0 -2,-2 -1,0 -1,-1 -1,0 -1,-1 -2,0 -1,-1 -3,0 -1,-1 -4,0 m -41,69 l 79,0 0,-76 -79,0 0,76 m 40,-33 l 0,25 m -21,-25 l 41,0 m -45,-21 l 12,21 m 38,-21 l -12,21 m -27,-2 l -8,-7 6,-4 3,11"></path>
<path style="fill:none;stroke:#000000;stroke-width:15" d="M 4512,2352 l -164,0"></path>
<path class="stroke4" d="M 4512,2370 l 40,-18 -40,-19 0,37 m 0,-25 l 24,0 m -24,3 l 31,0 m -31,4 l 40,0 m -40,3 l 31,0 m -31,4 l 23,0 m -23,4 l 15,0 m -15,3 l 7,0 m -7,-25 l 16,0 m -16,-4 l 9,0 m -9,-3 l 1,0"></path>
<path class="white" d="M 4344,2335 l -1,1 -1,0 -1,1 -1,0 -1,1 -1,0 -4,4 0,1 -1,1 0,1 -1,1 0,1 -1,1 0,8 1,1 0,1 1,1 0,1 1,1 0,1 4,4 1,0 1,1 1,0 1,1 1,0 1,1 8,0 1,-1 1,0 1,-1 1,0 1,-1 1,0 4,-4 0,-1 1,-1 0,-1 1,-1 0,-1 1,-1 0,-8 -1,-1 0,-1 -1,-1 0,-1 -1,-1 0,-1 -4,-4 -1,0 -1,-1 -1,0 -1,-1 -1,0 -1,-1 -8,0 z"></path>
<path class="stroke4" d="M 4348,2345 l -2,0 -1,1 -1,0 -2,2 0,1 -1,1 0,4 1,1 0,1 2,2 1,0 1,1 4,0 1,-1 1,0 2,-2 0,-1 1,-1 0,-4 -1,-1 0,-1 -2,-2 -1,0 -1,-1 -1,0 m -6,2 l 10,0 m -11,2 l 12,0 m -13,2 l 14,0 m -14,2 l 14,0 m -13,2 l 12,0 m -11,1 l 11,0 m -9,2 l 6,0 m -6,-13 l 6,0"></path>
<text class="t2"><tspan x="4386" y="2316"><a xmlns:xlink="http://www.w3.org/1999/xlink" xlink:type="simple" xlink:show="replace" xlink:actuate="onRequest" xlink:href="javascript:locateTree('X1179');">X1179</a>
</tspan>
</text>
<path style="fill:none;stroke:#000000;stroke-width:15" d="M 4948,2352 l -164,0"></path>
<path class="stroke4" d="M 4948,2370 l 40,-18 -40,-19 0,37 m 0,-25 l 24,0 m -24,3 l 31,0 m -31,4 l 40,0 m -40,3 l 31,0 m -31,4 l 23,0 m -23,4 l 15,0 m -15,3 l 7,0 m -7,-25 l 16,0 m -16,-4 l 9,0 m -9,-3 l 2,0"></path>
<path class="white" d="M 4781,2335 l -1,1 -2,0 -1,1 -1,0 -5,5 0,1 -2,2 0,2 -1,1 0,8 1,1 0,2 1,1 0,1 6,6 1,0 1,1 2,0 1,1 7,0 1,-1 2,0 1,-1 1,0 6,-6 0,-1 1,-1 0,-2 1,-1 0,-8 -1,-1 0,-2 -2,-2 0,-1 -5,-5 -1,0 -1,-1 -2,0 -1,-1 -7,0 z"></path>
<path class="stroke4" d="M 4784,2345 l -2,0 -1,1 -1,0 -2,2 0,1 -1,1 0,4 1,1 0,1 2,2 1,0 1,1 5,0 1,-1 1,0 2,-2 0,-1 1,-1 0,-4 -1,-1 0,-1 -2,-2 -1,0 -1,-1 -2,0 m -6,2 l 10,0 m -11,2 l 13,0 m -13,2 l 13,0 m -14,2 l 15,0 m -14,2 l 13,0 m -12,1 l 11,0 m -9,2 l 7,0 m -7,-13 l 7,0"></path>
<text class="t2"><tspan x="6895" y="1321">SLOCK</tspan>

<tspan x="6895" y="1386">0.35</tspan>

<tspan x="6895" y="1430">BL/SW</tspan>

<tspan x="4823" y="2316"><a xmlns:xlink="http://www.w3.org/1999/xlink" xlink:type="simple" xlink:show="replace" xlink:actuate="onRequest" xlink:href="javascript:locateTree('X217');">X217</a>
</tspan>
</text>
</g>
</svg>
</g></svg>