<svg data-v-f35fd5a0="" xmlns="http://www.w3.org/2000/svg" xmlns:xlink="http://www.w3.org/1999/xlink" xmlns:ev="http://www.w3.org/2001/xml-events" style="overflow: hidden; width: 100%; min-height: 100vh;"><g id="viewport-20201011230518721" class="svg-pan-zoom_viewport" transform="matrix(1,0,0,1,0,0)" style="transform: matrix(1, 0, 0, 1, 0, 0);"><!--?xml version="1.0" encoding="UTF-8"?--> 
<!--?xml-stylesheet href="../../styles/svg.css" type="text/css"?--> 
<svg xmlns="http://www.w3.org/2000/svg" id="svgid" xml:space="preserve" viewBox="37 607 8678 2743" preserveAspectRatio="xMinYMin meet" zoomAndPan="magnify" version="1.0" width="100%" height="100%" contentscripttype="text/ecmascript" contentstyletype="text/css" xmlns:xlink="http://www.w3.org/1999/xlink">
<title>Schaltplan Viewer - Copyright BMW AG 2007</title>
<style xml:space="preserve" type="text/css">path {fill-rule:evenodd; stroke-linecap:round; stroke-linejoin:round}
rect {stroke-linejoin:miter}
text.t1 {font-family:'Courier SWA',monospace;font-size:31;fill:#000000}
path.white {fill:#FFFFFF;stroke:none}
path.black {fill:#000000;stroke:none}
path.stroke3 {fill:none;stroke:#000000;stroke-width:3}
path.stroke4 {fill:none;stroke:#000000;stroke-width:4}
path.stroke5 {fill:none;stroke:#000000;stroke-width:5}
path.stroke6 {fill:none;stroke:#000000;stroke-width:6}
path.stroke7 {fill:none;stroke:#000000;stroke-width:7 }
path.stroke8 {fill:none;stroke:#000000;stroke-width:8 }
path.stroke9 {fill:none;stroke:#000000;stroke-width:9 }
path.stroke10 {fill:none;stroke:#000000;stroke-width:10 }
path.stroke11 {fill:none;stroke:#000000;stroke-width:11}
path.stroke14 {fill:none;stroke:#000000;stroke-width:14}</style>
<desc>customer: BMW
date: 24.07.2007
time: 12:07:24
language: British engl
project: E65
version: 1.0</desc>
<g id="gid">
<text class="t1"></text>
<path style="fill:#DFDFDF;stroke:none" d="M 6481,1954 l 0,-23 -85,0 0,23 85,0 z"></path>
<path class="stroke4" d="M 6481,1954 l 0,-23 -85,0 0,23 85,0"></path>
<path style="fill:#DFDFDF;stroke:none" d="M 6808,1954 l 0,-23 -85,0 0,23 85,0 z"></path>
<path class="stroke4" d="M 6808,1954 l 0,-23 -85,0 0,23 85,0"></path>
<path style="fill:#DFDFDF;stroke:none" d="M 5984,1807 l 1636,0 0,436 -1636,0 0,-436 z"></path>
<path class="stroke8" d="M 5984,1807 l 1636,0 0,436 -1636,0 0,-436"></path>
<path style="fill:#DFDFDF;stroke:none" d="M 313,934 l 327,0 0,218 -327,0 0,-218 z"></path>
<path class="stroke8" d="M 313,934 l 14,0 m 18,0 l 29,0 m 17,0 l 29,0 m 18,0 l 29,0 m 17,0 l 30,0 m 17,0 l 29,0 m 18,0 l 29,0 m 17,0 l 16,0 0,13 m 0,16 l 0,28 m 0,16 l 0,27 m 0,16 l 0,28 m 0,16 l 0,27 m 0,16 l 0,15 -14,0 m -18,0 l -29,0 m -17,0 l -29,0 m -18,0 l -29,0 m -17,0 l -30,0 m -17,0 l -29,0 m -18,0 l -29,0 m -17,0 l -16,0 0,-13 m 0,-16 l 0,-28 m 0,-16 l 0,-27 m 0,-16 l 0,-28 m 0,-16 l 0,-27 m 0,-16 l 0,-15"></path>
<path style="fill:#DFDFDF;stroke:none" d="M 4457,1807 l 655,0 0,218 -655,0 0,-218 z"></path>
<path class="stroke8" d="M 4457,1807 l 655,0 0,218 -655,0 0,-218"></path>
<path style="fill:#DFDFDF;stroke:none" d="M 1513,1807 l 327,0 0,218 -327,0 0,-218 z"></path>
<path class="stroke8" d="M 1513,1807 l 327,0 0,218 -327,0 0,-218"></path>
<path style="fill:#DFDFDF;stroke:none" d="M 313,1807 l 327,0 0,218 -327,0 0,-218 z"></path>
<path class="stroke8" d="M 313,1807 l 327,0 0,218 -327,0 0,-218"></path>
<path style="fill:#DFDFDF;stroke:none" d="M 2712,1807 l 873,0 0,218 -873,0 0,-218 z"></path>
<path class="stroke8" d="M 2712,1807 l 873,0 0,218 -873,0 0,-218"></path>
<path style="fill:#DFDFDF;stroke:none" d="M 204,825 l 654,0 0,436 -654,0 0,-436 z"></path>
<path class="stroke8" d="M 204,825 l 14,0 m 18,0 l 29,0 m 17,0 l 29,0 m 18,0 l 29,0 m 17,0 l 30,0 m 17,0 l 29,0 m 18,0 l 29,0 m 17,0 l 29,0 m 18,0 l 29,0 m 17,0 l 30,0 m 17,0 l 29,0 m 18,0 l 29,0 m 17,0 l 29,0 m 18,0 l 29,0 m 17,0 l 17,0 0,15 m 0,18 l 0,30 m 0,18 l 0,30 m 0,18 l 0,31 m 0,18 l 0,30 m 0,18 l 0,30 m 0,18 l 0,30 m 0,19 l 0,30 m 0,18 l 0,30 m 0,18 l 0,17 -14,0 m -18,0 l -29,0 m -17,0 l -29,0 m -18,0 l -29,0 m -17,0 l -30,0 m -17,0 l -29,0 m -18,0 l -29,0 m -17,0 l -29,0 m -18,0 l -29,0 m -17,0 l -30,0"></path>
<path class="stroke8" d="M 407,1261 l -29,0 m -18,0 l -29,0 m -17,0 l -29,0 m -18,0 l -29,0 m -17,0 l -17,0 0,-15 m 0,-18 l 0,-30 m 0,-18 l 0,-30 m 0,-18 l 0,-31 m 0,-18 l 0,-30 m 0,-18 l 0,-30 m 0,-18 l 0,-30 m 0,-19 l 0,-30 m 0,-18 l 0,-30 m 0,-18 l 0,-17"></path>
<path style="fill:#DFDFDF;stroke:none" d="M 313,2679 l 7307,0 0,327 -7307,0 0,-327 z"></path>
<path class="stroke8" d="M 313,2679 l 15,0 m 18,0 l 30,0 m 18,0 l 30,0 m 18,0 l 30,0 m 18,0 l 30,0 m 18,0 l 30,0 m 18,0 l 30,0 m 18,0 l 30,0 m 18,0 l 30,0 m 18,0 l 30,0 m 18,0 l 30,0 m 18,0 l 30,0 m 18,0 l 30,0 m 18,0 l 30,0 m 18,0 l 30,0 m 18,0 l 30,0 m 18,0 l 30,0 m 18,0 l 30,0 m 18,0 l 30,0 m 18,0 l 30,0 m 18,0 l 30,0 m 18,0 l 30,0 m 18,0 l 30,0 m 18,0 l 30,0 m 18,0 l 30,0 m 18,0 l 30,0 m 18,0 l 30,0 m 18,0 l 30,0 m 18,0 l 30,0 m 18,0 l 30,0 m 18,0 l 30,0 m 18,0 l 30,0 m 18,0 l 30,0"></path>
<path class="stroke8" d="M 1882,2679 l 30,0 m 18,0 l 30,0 m 18,0 l 30,0 m 18,0 l 30,0 m 18,0 l 30,0 m 18,0 l 30,0 m 18,0 l 30,0 m 18,0 l 30,0 m 18,0 l 30,0 m 18,0 l 30,0 m 18,0 l 30,0 m 18,0 l 30,0 m 18,0 l 30,0 m 18,0 l 30,0 m 18,0 l 30,0 m 18,0 l 30,0 m 18,0 l 30,0 m 18,0 l 30,0 m 18,0 l 30,0 m 18,0 l 30,0 m 18,0 l 30,0 m 18,0 l 30,0 m 18,0 l 30,0 m 18,0 l 30,0 m 18,0 l 30,0 m 18,0 l 30,0 m 18,0 l 30,0 m 18,0 l 30,0 m 18,0 l 30,0 m 18,0 l 30,0 m 18,0 l 30,0 m 18,0 l 30,0 m 18,0 l 30,0"></path>
<path class="stroke8" d="M 3466,2679 l 30,0 m 18,0 l 30,0 m 18,0 l 30,0 m 18,0 l 30,0 m 18,0 l 30,0 m 18,0 l 30,0 m 18,0 l 30,0 m 18,0 l 30,0 m 18,0 l 30,0 m 18,0 l 30,0 m 18,0 l 30,0 m 18,0 l 30,0 m 18,0 l 30,0 m 18,0 l 30,0 m 18,0 l 30,0 m 18,0 l 30,0 m 18,0 l 30,0 m 18,0 l 30,0 m 18,0 l 30,0 m 18,0 l 30,0 m 18,0 l 30,0 m 18,0 l 30,0 m 18,0 l 30,0 m 18,0 l 30,0 m 18,0 l 30,0 m 18,0 l 30,0 m 18,0 l 30,0 m 18,0 l 30,0 m 18,0 l 30,0 m 18,0 l 30,0 m 18,0 l 30,0 m 18,0 l 30,0 m 18,0 l 30,0"></path>
<path class="stroke8" d="M 5050,2679 l 30,0 m 18,0 l 30,0 m 18,0 l 30,0 m 18,0 l 30,0 m 18,0 l 30,0 m 18,0 l 30,0 m 18,0 l 30,0 m 18,0 l 30,0 m 18,0 l 30,0 m 18,0 l 30,0 m 18,0 l 30,0 m 18,0 l 30,0 m 18,0 l 30,0 m 18,0 l 30,0 m 18,0 l 30,0 m 18,0 l 30,0 m 18,0 l 30,0 m 18,0 l 30,0 m 18,0 l 30,0 m 18,0 l 30,0 m 18,0 l 30,0 m 18,0 l 30,0 m 18,0 l 30,0 m 18,0 l 30,0 m 18,0 l 30,0 m 18,0 l 30,0 m 18,0 l 30,0 m 18,0 l 30,0 m 18,0 l 30,0 m 18,0 l 30,0 m 18,0 l 30,0 m 18,0 l 30,0 m 18,0 l 30,0"></path>
<path class="stroke8" d="M 6634,2679 l 30,0 m 18,0 l 30,0 m 18,0 l 30,0 m 18,0 l 30,0 m 18,0 l 30,0 m 18,0 l 30,0 m 18,0 l 30,0 m 18,0 l 30,0 m 18,0 l 30,0 m 18,0 l 30,0 m 18,0 l 30,0 m 18,0 l 30,0 m 18,0 l 30,0 m 18,0 l 30,0 m 18,0 l 30,0 m 18,0 l 30,0 m 18,0 l 30,0 m 18,0 l 30,0 m 18,0 l 30,0 m 18,0 l 30,0 m 18,0 l 26,0 0,14 m 0,18 l 0,29 m 0,17 l 0,29 m 0,18 l 0,29 m 0,17 l 0,30 m 0,17 l 0,29 m 0,18 l 0,29 m 0,17 l 0,16 -15,0 m -18,0 l -30,0 m -18,0 l -30,0 m -18,0 l -30,0 m -18,0 l -30,0 m -18,0 l -30,0"></path>
<path class="stroke8" d="M 7347,3006 l -30,0 m -18,0 l -30,0 m -18,0 l -30,0 m -18,0 l -30,0 m -18,0 l -30,0 m -18,0 l -30,0 m -18,0 l -30,0 m -18,0 l -30,0 m -18,0 l -30,0 m -18,0 l -30,0 m -18,0 l -30,0 m -18,0 l -30,0 m -18,0 l -30,0 m -18,0 l -30,0 m -18,0 l -30,0 m -18,0 l -30,0 m -18,0 l -30,0 m -18,0 l -30,0 m -18,0 l -30,0 m -18,0 l -30,0 m -18,0 l -30,0 m -18,0 l -30,0 m -18,0 l -30,0 m -18,0 l -30,0 m -18,0 l -30,0 m -18,0 l -30,0 m -18,0 l -30,0 m -18,0 l -30,0 m -18,0 l -30,0 m -18,0 l -30,0 m -18,0 l -30,0 m -18,0 l -30,0 m -18,0 l -30,0"></path>
<path class="stroke8" d="M 5763,3006 l -30,0 m -18,0 l -30,0 m -18,0 l -30,0 m -18,0 l -30,0 m -18,0 l -30,0 m -18,0 l -30,0 m -18,0 l -30,0 m -18,0 l -30,0 m -18,0 l -30,0 m -18,0 l -30,0 m -18,0 l -30,0 m -18,0 l -30,0 m -18,0 l -30,0 m -18,0 l -30,0 m -18,0 l -30,0 m -18,0 l -30,0 m -18,0 l -30,0 m -18,0 l -30,0 m -18,0 l -30,0 m -18,0 l -30,0 m -18,0 l -30,0 m -18,0 l -30,0 m -18,0 l -30,0 m -18,0 l -30,0 m -18,0 l -30,0 m -18,0 l -30,0 m -18,0 l -30,0 m -18,0 l -30,0 m -18,0 l -30,0 m -18,0 l -30,0 m -18,0 l -30,0 m -18,0 l -30,0 m -18,0 l -30,0"></path>
<path class="stroke8" d="M 4179,3006 l -30,0 m -18,0 l -30,0 m -18,0 l -30,0 m -18,0 l -30,0 m -18,0 l -30,0 m -18,0 l -30,0 m -18,0 l -30,0 m -18,0 l -30,0 m -18,0 l -30,0 m -18,0 l -30,0 m -18,0 l -30,0 m -18,0 l -30,0 m -18,0 l -30,0 m -18,0 l -30,0 m -18,0 l -30,0 m -18,0 l -30,0 m -18,0 l -30,0 m -18,0 l -30,0 m -18,0 l -30,0 m -18,0 l -30,0 m -18,0 l -30,0 m -18,0 l -30,0 m -18,0 l -30,0 m -18,0 l -30,0 m -18,0 l -30,0 m -18,0 l -30,0 m -18,0 l -30,0 m -18,0 l -30,0 m -18,0 l -30,0 m -18,0 l -30,0 m -18,0 l -30,0 m -18,0 l -30,0 m -18,0 l -30,0"></path>
<path class="stroke8" d="M 2595,3006 l -30,0 m -18,0 l -30,0 m -18,0 l -30,0 m -18,0 l -30,0 m -18,0 l -30,0 m -18,0 l -30,0 m -18,0 l -30,0 m -18,0 l -30,0 m -18,0 l -30,0 m -18,0 l -30,0 m -18,0 l -30,0 m -18,0 l -30,0 m -18,0 l -30,0 m -18,0 l -30,0 m -18,0 l -30,0 m -18,0 l -30,0 m -18,0 l -30,0 m -18,0 l -30,0 m -18,0 l -30,0 m -18,0 l -30,0 m -18,0 l -30,0 m -18,0 l -30,0 m -18,0 l -30,0 m -18,0 l -30,0 m -18,0 l -30,0 m -18,0 l -30,0 m -18,0 l -30,0 m -18,0 l -30,0 m -18,0 l -30,0 m -18,0 l -30,0 m -18,0 l -30,0 m -18,0 l -30,0 m -18,0 l -30,0"></path>
<path class="stroke8" d="M 1011,3006 l -30,0 m -18,0 l -30,0 m -18,0 l -30,0 m -18,0 l -30,0 m -18,0 l -30,0 m -18,0 l -30,0 m -18,0 l -30,0 m -18,0 l -30,0 m -18,0 l -30,0 m -18,0 l -30,0 m -18,0 l -30,0 m -18,0 l -30,0 m -18,0 l -30,0 m -18,0 l -30,0 m -18,0 l -26,0 0,-14 m 0,-18 l 0,-29 m 0,-17 l 0,-29 m 0,-18 l 0,-29 m 0,-17 l 0,-30 m 0,-17 l 0,-29 m 0,-18 l 0,-29 m 0,-17 l 0,-16"></path>
<path style="fill:#DFDFDF;stroke:none" d="M 2876,825 l 3981,0 0,327 -3981,0 0,-327 z"></path>
<path class="stroke8" d="M 2876,825 l 15,0 m 17,0 l 30,0 m 18,0 l 30,0 m 18,0 l 30,0 m 18,0 l 30,0 m 18,0 l 30,0 m 17,0 l 30,0 m 18,0 l 30,0 m 18,0 l 30,0 m 18,0 l 30,0 m 18,0 l 30,0 m 17,0 l 30,0 m 18,0 l 30,0 m 18,0 l 30,0 m 18,0 l 30,0 m 18,0 l 30,0 m 17,0 l 30,0 m 18,0 l 30,0 m 18,0 l 30,0 m 18,0 l 30,0 m 18,0 l 30,0 m 17,0 l 30,0 m 18,0 l 30,0 m 18,0 l 30,0 m 18,0 l 30,0 m 18,0 l 30,0 m 17,0 l 30,0 m 18,0 l 30,0 m 18,0 l 30,0 m 18,0 l 30,0 m 18,0 l 30,0 m 17,0 l 30,0 m 18,0 l 30,0"></path>
<path class="stroke8" d="M 4438,825 l 30,0 m 18,0 l 30,0 m 18,0 l 30,0 m 17,0 l 30,0 m 18,0 l 30,0 m 18,0 l 30,0 m 18,0 l 30,0 m 18,0 l 30,0 m 17,0 l 30,0 m 18,0 l 30,0 m 18,0 l 30,0 m 18,0 l 30,0 m 18,0 l 30,0 m 17,0 l 30,0 m 18,0 l 30,0 m 18,0 l 30,0 m 18,0 l 30,0 m 18,0 l 30,0 m 17,0 l 30,0 m 18,0 l 30,0 m 18,0 l 30,0 m 18,0 l 30,0 m 18,0 l 30,0 m 17,0 l 30,0 m 18,0 l 30,0 m 18,0 l 30,0 m 18,0 l 30,0 m 18,0 l 30,0 m 17,0 l 30,0 m 18,0 l 30,0 m 18,0 l 30,0 m 18,0 l 30,0 m 18,0 l 30,0"></path>
<path class="stroke8" d="M 6015,825 l 30,0 m 18,0 l 30,0 m 18,0 l 30,0 m 18,0 l 30,0 m 18,0 l 30,0 m 17,0 l 30,0 m 18,0 l 30,0 m 18,0 l 30,0 m 18,0 l 30,0 m 18,0 l 30,0 m 17,0 l 30,0 m 18,0 l 30,0 m 18,0 l 30,0 m 18,0 l 30,0 m 18,0 l 30,0 m 17,0 l 30,0 m 18,0 l 30,0 m 18,0 l 29,0 0,14 m 0,18 l 0,29 m 0,17 l 0,29 m 0,18 l 0,29 m 0,17 l 0,30 m 0,17 l 0,29 m 0,18 l 0,29 m 0,17 l 0,16 -15,0 m -17,0 l -30,0 m -18,0 l -30,0 m -18,0 l -30,0 m -18,0 l -30,0 m -18,0 l -30,0 m -17,0 l -30,0 m -18,0 l -30,0 m -18,0 l -30,0"></path>
<path class="stroke8" d="M 6442,1152 l -30,0 m -18,0 l -30,0 m -17,0 l -30,0 m -18,0 l -30,0 m -18,0 l -30,0 m -18,0 l -30,0 m -18,0 l -30,0 m -17,0 l -30,0 m -18,0 l -30,0 m -18,0 l -30,0 m -18,0 l -30,0 m -18,0 l -30,0 m -17,0 l -30,0 m -18,0 l -30,0 m -18,0 l -30,0 m -18,0 l -30,0 m -18,0 l -30,0 m -17,0 l -30,0 m -18,0 l -30,0 m -18,0 l -30,0 m -18,0 l -30,0 m -18,0 l -30,0 m -17,0 l -30,0 m -18,0 l -30,0 m -18,0 l -30,0 m -18,0 l -30,0 m -18,0 l -30,0 m -17,0 l -30,0 m -18,0 l -30,0 m -18,0 l -30,0 m -18,0 l -30,0 m -18,0 l -30,0 m -17,0 l -30,0"></path>
<path class="stroke8" d="M 4865,1152 l -30,0 m -18,0 l -30,0 m -18,0 l -30,0 m -18,0 l -30,0 m -17,0 l -30,0 m -18,0 l -30,0 m -18,0 l -30,0 m -18,0 l -30,0 m -18,0 l -30,0 m -17,0 l -30,0 m -18,0 l -30,0 m -18,0 l -30,0 m -18,0 l -30,0 m -18,0 l -30,0 m -17,0 l -30,0 m -18,0 l -30,0 m -18,0 l -30,0 m -18,0 l -30,0 m -18,0 l -30,0 m -17,0 l -30,0 m -18,0 l -30,0 m -18,0 l -30,0 m -18,0 l -30,0 m -18,0 l -30,0 m -17,0 l -30,0 m -18,0 l -30,0 m -18,0 l -30,0 m -18,0 l -30,0 m -18,0 l -30,0 m -17,0 l -30,0 m -18,0 l -30,0 m -18,0 l -30,0 m -18,0 l -30,0"></path>
<path class="stroke8" d="M 3287,1152 l -30,0 m -17,0 l -30,0 m -18,0 l -30,0 m -18,0 l -30,0 m -18,0 l -30,0 m -18,0 l -30,0 m -17,0 l -30,0 m -18,0 l -30,0 m -18,0 l -29,0 0,-14 m 0,-18 l 0,-29 m 0,-17 l 0,-29 m 0,-18 l 0,-29 m 0,-17 l 0,-30 m 0,-17 l 0,-29 m 0,-18 l 0,-29 m 0,-17 l 0,-16"></path>
<path class="stroke4" d="M 422,1479 l 1200,0"></path>
<path style="fill:none;stroke:#000000;stroke-width:15" d="M 6093,2270 l 0,382 m 327,-382 l 0,382 m 327,-382 l 0,382 m 328,-382 l 0,382 m 327,-382 l 0,382 m -2509,-600 l 0,600 m -327,-600 l 0,600 m 2072,-1472 l 0,599"></path>
<text class="t3"><tspan x="7658" y="1816">.</tspan>
</text>
<text class="t2"><tspan x="7658" y="1852"><a xmlns:xlink="http://www.w3.org/1999/xlink" xlink:type="simple" xlink:show="replace" xlink:actuate="onRequest" xlink:href="javascript:locateTree('Y63900');">Y63900</a>
</tspan>
</text>
<text class="t2"><tspan x="7658" y="1921">Electric throttle</tspan>

<tspan x="7658" y="1965">valve actuator</tspan>
</text>
<text class="t3"><tspan x="6895" y="834">.</tspan>
</text>
<text class="t2"><tspan x="6895" y="870"><a xmlns:xlink="http://www.w3.org/1999/xlink" xlink:type="simple" xlink:show="replace" xlink:actuate="onRequest" xlink:href="javascript:locateTree('A6000');">A6000</a>
</tspan>
</text>
<text class="t2"><tspan x="6895" y="939">DME control unit</tspan>
</text>
<path class="stroke4" d="M 6106,2665 l 30,0 m 15,0 l 30,0 m 15,0 l 30,0 m 15,0 l 30,0 m 15,0 l 30,0 m 15,0 l 30,0 m 15,0 l 30,0 m -300,-409 l 30,0 m 15,0 l 30,0 m 15,0 l 30,0 m 15,0 l 30,0 m 15,0 l 30,0 m 15,0 l 30,0 m 15,0 l 30,0"></path>
<path class="white" d="M 6079,2243 l 28,0 0,27 -28,0 0,-27 z"></path>
<path class="black" d="M 6092,2243 l 2,0 0,11 -2,0 0,-11 z"></path>
<path class="stroke4" d="M 6092,2243 l 2,0 0,11 -2,0 0,-11"></path>
<path class="stroke6" d="M 6106,2256 l 0,3 -1,1 0,2 -1,1 0,1 -4,4 -1,0 -1,1 -1,0 -1,1 -6,0 -1,-1 -1,0 -1,-1 -1,0 -4,-4 0,-1 -1,-1 0,-2 -1,-1 0,-3"></path>
<text class="t2"><tspan x="6032" y="2302">6</tspan>
</text>
<path class="white" d="M 6625,1152 l 27,0 0,27 -27,0 0,-27 z"></path>
<path class="black" d="M 6637,1152 l 2,0 0,12 -2,0 0,-12 z"></path>
<path class="stroke4" d="M 6637,1152 l 2,0 0,12 -2,0 0,-12"></path>
<path class="stroke6" d="M 6652,1166 l 0,3 -1,1 0,1 -1,1 0,1 -4,4 -1,0 -1,1 -1,0 -1,1 -7,0 -1,-1 -1,0 -1,-1 -1,0 -4,-4 0,-1 -1,-1 0,-1 -1,-1 0,-3"></path>
<text class="t2"><tspan x="6677" y="1211"><a xmlns:xlink="http://www.w3.org/1999/xlink" xlink:type="simple" xlink:show="replace" xlink:actuate="onRequest" xlink:href="javascript:locateTree('X60005');">X60005</a>
</tspan>

<tspan x="6554" y="1211">14</tspan>
</text>
<path class="stroke4" d="M 6093,1861 l 0,382 m 545,-300 l 0,-136"></path>
<path class="white" d="M 6652,1807 l -27,0 0,-28 27,0 0,28 z"></path>
<path class="black" d="M 6639,1806 l -1,0 0,-11 1,0 0,11 z"></path>
<path class="stroke4" d="M 6639,1806 l -1,0 0,-11 1,0 0,11"></path>
<path class="stroke6" d="M 6625,1793 l 0,-3 1,-1 0,-1 1,-1 0,-1 4,-4 1,0 1,-1 1,0 1,-1 7,0 1,1 1,0 1,1 1,0 4,4 0,1 1,1 0,1 1,1 0,3"></path>
<text class="t2"><tspan x="6677" y="1771"><a xmlns:xlink="http://www.w3.org/1999/xlink" xlink:type="simple" xlink:show="replace" xlink:actuate="onRequest" xlink:href="javascript:locateTree('X6390');">X6390</a>
</tspan>

<tspan x="6577" y="1771">2</tspan>
</text>
<text class="t3"><tspan x="7658" y="2688">.</tspan>
</text>
<text class="t2"><tspan x="7658" y="2724"><a xmlns:xlink="http://www.w3.org/1999/xlink" xlink:type="simple" xlink:show="replace" xlink:actuate="onRequest" xlink:href="javascript:locateTree('A6000');">A6000</a>
</tspan>
</text>
<text class="t2"><tspan x="7658" y="2793">DME control unit</tspan>
</text>
<path class="white" d="M 6434,2679 l -27,0 0,-27 27,0 0,27 z"></path>
<path class="black" d="M 6421,2679 l -1,0 0,-11 1,0 0,11 z"></path>
<path class="stroke4" d="M 6421,2679 l -1,0 0,-11 1,0 0,11"></path>
<path class="stroke6" d="M 6407,2665 l 0,-3 1,-1 0,-2 6,-6 2,0 1,-1 6,0 1,1 2,0 6,6 0,2 1,1 0,3"></path>
<text class="t2"><tspan x="6677" y="1566">U_DKG</tspan>

<tspan x="6677" y="1620">0.5</tspan>

<tspan x="6677" y="1664">BL</tspan>

<tspan x="6459" y="2438">A_DKG2</tspan>

<tspan x="6131" y="2438">M_DKG</tspan>

<tspan x="6131" y="2493">0.5</tspan>

<tspan x="6459" y="2493">0.5</tspan>

<tspan x="6131" y="2537">SW/VI</tspan>

<tspan x="6459" y="2537">GE</tspan>

<tspan x="6336" y="2643">36</tspan>
</text>
<path class="white" d="M 6107,2679 l -28,0 0,-27 28,0 0,27 z"></path>
<path class="black" d="M 6094,2679 l -2,0 0,-11 2,0 0,11 z"></path>
<path class="stroke4" d="M 6094,2679 l -2,0 0,-11 2,0 0,11"></path>
<path class="stroke6" d="M 6080,2665 l 0,-3 1,-1 0,-2 6,-6 2,0 1,-1 6,0 1,1 2,0 6,6 0,2 1,1 0,3"></path>
<text class="t2"><tspan x="6009" y="2643">38</tspan>
</text>
<path class="white" d="M 6407,2243 l 27,0 0,27 -27,0 0,-27 z"></path>
<path class="black" d="M 6419,2243 l 2,0 0,11 -2,0 0,-11 z"></path>
<path class="stroke4" d="M 6419,2243 l 2,0 0,11 -2,0 0,-11"></path>
<path class="stroke6" d="M 6433,2256 l 0,3 -1,1 0,2 -1,1 0,1 -4,4 -1,0 -1,1 -1,0 -1,1 -6,0 -1,-1 -1,0 -1,-1 -1,0 -4,-4 0,-1 -1,-1 0,-2 -1,-1 0,-3"></path>
<text class="t2"><tspan x="6359" y="2302">4</tspan>
</text>
<path class="stroke4" d="M 6433,2256 l 30,0 m 15,0 l 30,0 m 15,0 l 30,0 m 15,0 l 30,0 m 15,0 l 30,0 m 15,0 l 30,0 m 15,0 l 30,0 m -324,-177 l 23,0 0,85 -23,0 0,-85 m 11,164 l 0,-79 m 49,-268 l -22,25 6,1 3,6 14,-33 m -17,26 l 16,-24 m -20,24 l 8,-11 m -2,14 l 7,-11 m -42,57 l 33,-48 m 28,21 l 239,0 m -239,11 l 0,-23 -85,0 0,23 85,0 m -388,-11 l 303,0 m -303,5 l 2,0 1,-1 1,0 1,-1 0,-1 1,-1 0,-3 -1,-1 0,-1 -1,-1 -1,0 -1,-1 -3,0 -1,1 -1,0 -1,1 0,1 -1,1 0,3 1,1 0,1 1,1 1,0 1,1 m 7,-5 l -11,0 m 1,-3 l 9,0 m -9,6 l 9,0 m -5,-85 l 764,0 m -219,87 l 2,0 1,-1 1,0 1,-1 0,-1 1,-1 0,-3 -1,-1 0,-1 -1,-1 -1,0 -1,-1 -3,0 -1,1 -1,0 -1,1 0,1 -1,1 0,3 1,1 0,1 1,1 1,0  1,1 m 7,-5 l -11,0 m 1,-3 l 9,0 m -9,6 l 9,0"></path>
<path class="white" d="M 6761,2679 l -27,0 0,-27 27,0 0,27 z"></path>
<path class="black" d="M 6748,2679 l -1,0 0,-11 1,0 0,11 z"></path>
<path class="stroke4" d="M 6748,2679 l -1,0 0,-11 1,0 0,11"></path>
<path class="stroke6" d="M 6734,2665 l 0,-3 1,-1 0,-1 1,-1 0,-1 4,-4 1,0 1,-1 1,0 1,-1 7,0 1,1 1,0 1,1 1,0 4,4 0,1 1,1 0,1 1,1 0,3"></path>
<text class="t2"><tspan x="6663" y="2643">37</tspan>
</text>
<path class="white" d="M 6734,2243 l 27,0 0,27 -27,0 0,-27 z"></path>
<path class="black" d="M 6747,2243 l 1,0 0,11 -1,0 0,-11 z"></path>
<path class="stroke4" d="M 6747,2243 l 1,0 0,11 -1,0 0,-11"></path>
<path class="stroke6" d="M 6761,2256 l 0,3 -1,1 0,2 -1,1 0,1 -4,4 -1,0 -1,1 -1,0 -1,1 -7,0 -1,-1 -1,0 -1,-1 -1,0 -4,-4 0,-1 -1,-1 0,-2 -1,-1 0,-3"></path>
<text class="t2"><tspan x="6686" y="2302">1</tspan>
</text>
<path class="stroke4" d="M 6761,2256 l 30,0 m 14,0 l 31,0 m 14,0 l 31,0 m 14,0 l 31,0 m 14,0 l 30,0 m 15,0 l 30,0 m 14,0 l 31,0 m -324,-177 l 23,0 0,85 -23,0 0,-85 m 12,164 l 0,-79 m 49,-268 l -23,25 6,1 3,6 14,-33 m -17,26 l 16,-24 m -19,24 l 7,-11 m -2,14 l 7,-11 m -42,57 l 33,-48 m 28,32 l 0,-23 -85,0 0,23 85,0 m 0,-11 l 49,0 0,-82"></path>
<path class="white" d="M 7088,2679 l -27,0 0,-27 27,0 0,27 z"></path>
<path class="black" d="M 7076,2679 l -2,0 0,-11 2,0 0,11 z"></path>
<path class="stroke4" d="M 7076,2679 l -2,0 0,-11 2,0 0,11"></path>
<path class="stroke6" d="M 7061,2665 l 0,-3 1,-1 0,-1 1,-1 0,-1 4,-4 1,0 1,-1 1,0 1,-1 7,0 1,1 1,0 1,1 1,0 4,4 0,1 1,1 0,1 1,1 0,3"></path>
<text class="t2"><tspan x="6990" y="2643">15</tspan>
</text>
<path class="white" d="M 7061,2243 l 27,0 0,27 -27,0 0,-27 z"></path>
<path class="black" d="M 7074,2243 l 1,0 0,11 -1,0 0,-11 z"></path>
<path class="stroke4" d="M 7074,2243 l 1,0 0,11 -1,0 0,-11"></path>
<path class="stroke6" d="M 7088,2256 l 0,3 -1,1 0,2 -1,1 0,1 -4,4 -1,0 -1,1 -1,0 -1,1 -7,0 -1,-1 -1,0 -1,-1 -1,0 -4,-4 0,-1 -1,-1 0,-2 -1,-1 0,-3"></path>
<text class="t2"><tspan x="7013" y="2302">3</tspan>
</text>
<path class="stroke4" d="M 7088,2256 l 30,0 m 14,0 l 31,0 m 14,0 l 31,0 m 14,0 l 31,0 m 14,0 l 30,0 m 15,0 l 30,0 m 14,0 l 31,0"></path>
<path class="white" d="M 7416,2679 l -28,0 0,-27 28,0 0,27 z"></path>
<path class="black" d="M 7403,2679 l -2,0 0,-11 2,0 0,11 z"></path>
<path class="stroke4" d="M 7403,2679 l -2,0 0,-11 2,0 0,11"></path>
<path class="stroke6" d="M 7389,2665 l 0,-3 1,-1 0,-2 6,-6 2,0 1,-1 6,0 1,1 2,0 6,6 0,2 1,1 0,3"></path>
<text class="t2"><tspan x="7440" y="2643"><a xmlns:xlink="http://www.w3.org/1999/xlink" xlink:type="simple" xlink:show="replace" xlink:actuate="onRequest" xlink:href="javascript:locateTree('X60005');">X60005</a>
</tspan>

<tspan x="7318" y="2643">16</tspan>
</text>
<path class="white" d="M 7388,2243 l 27,0 0,27 -27,0 0,-27 z"></path>
<path class="black" d="M 7401,2243 l 2,0 0,11 -2,0 0,-11 z"></path>
<path class="stroke4" d="M 7401,2243 l 2,0 0,11 -2,0 0,-11"></path>
<path class="stroke6" d="M 7415,2256 l 0,3 -1,1 0,2 -1,1 0,1 -4,4 -1,0 -1,1 -1,0 -1,1 -6,0 -1,-1 -1,0 -1,-1 -1,0 -4,-4 0,-1 -1,-1 0,-2 -1,-1 0,-3"></path>
<text class="t2"><tspan x="7440" y="2302"><a xmlns:xlink="http://www.w3.org/1999/xlink" xlink:type="simple" xlink:show="replace" xlink:actuate="onRequest" xlink:href="javascript:locateTree('X6390');">X6390</a>
</tspan>

<tspan x="7340" y="2302">5</tspan>
</text>
<path class="stroke8" d="M 5984,1807 l 1636,0 0,436 -1636,0 0,-436"></path>
<path class="stroke4" d="M 7202,2146 l -17,0 0,-28 17,0 m 35,50 l 5,0 1,-1 4,0 1,-1 2,0 1,-1 1,0 1,-1 1,0 1,-1 1,0 2,-2 1,0 7,-7 0,-1 2,-2 0,-1 1,-1 0,-1 1,-1 0,-1 1,-1 0,-2 1,-1 0,-3 1,-1 0,-11 -1,-1 0,-3 -1,-1 0,-2 -1,-1 0,-1 -1,-1 0,-1 -1,-1 0,-1 -2,-2 0,-1 -7,-7 -1,0 -2,-2 -1,0 -1,-1 -1,0 -1,-1 -1,0 -1,-1 -2,0 -1,-1 -3,0 -1,-1 -11,0 -1,1 -4,0 -1,1 -2,0 -1,1 -1,0 -1,1 -1,0 -1,1 -1,0 -2,2 -1,0 -7,7 0,1 -2,2 0,1 -1,1 0,1 -1,1 0,1 -1,1 0,2 -1,1 0,3 -1,1 0,11 1,1 0,3 1,1 0,2 1,1 0,1 1,1 0,1 1,1 0,1 2,2 0,1 7,7 1,0 2,2 1,0  1,1 1,0 1,1 1,0 1,1 2,0 1,1 3,0 1,1 5,0 m 11,-27 l 0,-19 -10,19 -9,-19 0,19 m -1,8 l 19,0 m -58,-31 l 0,28 m 3,-28 l 0,28 m 4,-28 l 0,28 m 3,-28 l 0,28 m 73,-28 l 17,0 0,28 -17,0 m 14,0 l 0,-28 m -3,28 l 0,-28 m -4,28 l 0,-28 m -3,28 l 0,-28 m -200,125 l 0,-109 110,0 m 217,109 l 0,-109 -114,0 m -853,-109 l 30,0 m 14,0 l 30,0 m 15,0 l 30,0 m 14,0 l 30,0 m 15,0 l 30,0 m 14,0 l 30,0 m 15,0 l 30,0 m -299,640 l 30,0 m 15,0 l 30,0 m 15,0 l 30,0 m 15,0 l 30,0 m 15,0 l 30,0 m 15,0 l 30,0 m 15,0 l 30,0 m 28,0 l 30,0 m 14,0 l 31,0 m 14,0 l 31,0 m 14,0 l 31,0"></path>
<path class="stroke4" d="M 6940,2665 l 30,0 m 15,0 l 30,0 m 14,0 l 31,0 m 28,0 l 30,0 m 14,0 l 31,0 m 14,0 l 31,0 m 14,0 l 31,0 m 14,0 l 30,0 m 15,0 l 30,0 m 14,0 l 31,0"></path>
<text class="t2"><tspan x="6786" y="2438">A_DKG1</tspan>

<tspan x="7113" y="2438">T_MDK1</tspan>

<tspan x="7440" y="2438">T_MDK2</tspan>

<tspan x="7113" y="2493">0.5</tspan>

<tspan x="6786" y="2493">0.5</tspan>

<tspan x="7440" y="2493">0.5</tspan>

<tspan x="7440" y="2537">WS/GE</tspan>

<tspan x="7113" y="2537">WS/GN</tspan>

<tspan x="6786" y="2537">GE/BL</tspan>
</text>
<path class="stroke4" d="M 7238,2096 l 0,-23 m 0,-11 l 0,-23 m -1145,827 l 2,0 1,-1 1,0 1,-1 0,-1 1,-1 0,-3 -1,-1 0,-1 -1,-1 -1,0 -1,-1 -3,0 -1,1 -1,0 -1,1 0,1 -1,1 0,3 1,1 0,1 1,1 1,0 1,1 m 7,-5 l -11,0 m 1,-3 l 9,0 m -9,6 l 9,0"></path>
<text class="t2"><tspan x="6015" y="2876">31</tspan>
</text>
<path class="stroke4" d="M 6093,2679 l 0,65 m -11,85 l 22,0 0,-85 -22,0 0,85 m 11,-109 l 2,0 1,-1 1,0 1,-1 0,-1 1,-1 0,-3 -1,-1 0,-1 -1,-1 -1,0 -1,-1 -3,0 -1,1 -1,0 -1,1 0,1 -1,1 0,3 1,1 0,1 1,1 1,0 1,1 m -10,149 l 22,0 m 37,-154 l 24,0 -24,10 0,-21 24,11 m -24,-4 l 16,0 m -16,-4 l 9,0 m -9,11 l 14,0 m -14,4 l 7,0 m -55,107 l 0,26 m -5,-140 l 64,0 m -63,-3 l 9,0 m -9,5 l 9,0 m 322,-638 l 0,-41 m 327,41 l 0,-41 m 0,-26 l 0,-42 m -327,42 l 0,-42 m 130,971 l 2,0 1,-1 1,0 1,-1 0,-1 1,-1 0,-3 -1,-1 0,-1 -1,-1 -1,0 -1,-1 -3,0 -1,1 -1,0 -1,1 0,1 -1,1 0,3 1,1 0,1 1,1 1,0 1,1 m 7,-5 l -11,0 m 1,-3 l 10,0 m -10,5 l 9,0"></path>
<text class="t2"><tspan x="6473" y="2951">30</tspan>
</text>
<path class="stroke4" d="M 6540,2944 l 22,0 m -142,-265 l 0,59 m -10,0 l 21,0 0,85 -21,0 0,-85 m 6,140 l 0,5 1,1 0,3 1,1 0,2 1,1 0,1 1,1 0,1 2,2 0,1 6,6 1,0 2,2 1,0 1,1 1,0 1,1 2,0 1,1 3,0 1,1 10,0 1,-1 2,0 1,-1 2,0 1,-1 1,0 1,-1 1,0 2,-2 1,0 6,-6 0,-1 2,-2 0,-1 1,-1 0,-1 1,-1 0,-2 1,-1 0,-2 1,-1 0,-11 -1,-1 0,-2 -1,-1 0,-2 -1,-1 0,-1 -1,-1 0,-1 -2,-2 0,-1 -6,-6 -1,0 -2,-2 -1,0 -1,-1 -1,0 -1,-1 -2,0 -1,-1 -2,0 -1,-1 -10,0 -1,1 -3,0 -1,1 -2,0 -1,1 -1,0 -1,1 -1,0 -2,2 -1,0 -6,6 0,1 -2,2 0,1 -1,1 0,1 -1,1 0,2 -1,1 0,3 -1,1 0,3 m 4,-54 l  0,40 m 6,22 l 41,0 m -45,-22 l 12,22 m 37,-21 l -2,11 -7,-4 9,-7 m -23,21 l 0,60 m 11,-60 l 13,-22 79,0 0,67 m -131,-213 l 2,0 1,-1 1,0 1,-1 0,-1 1,-1 0,-3 -1,-1 0,-1 -1,-1 -1,0 -1,-1 -3,0 -1,1 -1,0 -1,1 0,1 -1,1 0,3 1,1 0,1 1,1 1,0 1,1 m 49,-5 l 24,0 -24,10 0,-21 24,11 m -24,-4 l 16,0 m -16,-4 l 9,0 m -9,11 l 15,0 m -15,4 l 7,0 m -60,-7 l 64,0 m -63,-3 l 9,0 m -9,5 l 9,0 m 453,227 l 2,0 1,-1 1,0 1,-1 0,-1 1,-1 0,-3 -1,-1 0,-1 -1,-1 -1,0 -1,-1 -3,0 -1,1 -1,0 -1,1 0,1 -1,1 0,3 1,1 0,1 1,1 1,0 1,1 m 7,-5 l -11,0 m 1,-3 l 9,0 m -9,5 l 9,0"></path>
<text class="t2"><tspan x="6800" y="2951">30</tspan>
</text>
<path class="stroke4" d="M 6867,2944 l 22,0 m -142,-265 l 0,59 m -10,0 l 21,0 0,85 -21,0 0,-85 m 6,140 l 0,5 1,1 0,3 1,1 0,2 1,1 0,1 1,1 0,1 2,2 0,1 6,6 1,0 2,2 1,0 1,1 1,0 1,1 2,0 1,1 3,0 1,1 10,0 1,-1 2,0 1,-1 2,0 1,-1 1,0 1,-1 1,0 2,-2 1,0 6,-6 0,-1 2,-2 0,-1 1,-1 0,-1 1,-1 0,-2 1,-1 0,-2 1,-1 0,-11 -1,-1 0,-2 -1,-1 0,-2 -1,-1 0,-1 -1,-1 0,-1 -2,-2 0,-1 -6,-6 -1,0 -2,-2 -1,0 -1,-1 -1,0 -1,-1 -2,0 -1,-1 -2,0 -1,-1 -10,0 -1,1 -3,0 -1,1 -2,0 -1,1 -1,0 -1,1 -1,0 -2,2 -1,0 -6,6 0,1 -2,2 0,1 -1,1 0,1 -1,1 0,2 -1,1 0,3 -1,1 0,3 m 4,-54 l  0,40 m 6,22 l 41,0 m -45,-22 l 12,22 m 37,-21 l -2,11 -6,-4 8,-7 m -23,21 l 0,60 m 12,-60 l 12,-22 79,0 0,67 m -131,-213 l 2,0 1,-1 1,0 1,-1 0,-1 1,-1 0,-3 -1,-1 0,-1 -1,-1 -1,0 -1,-1 -3,0 -1,1 -1,0 -1,1 0,1 -1,1 0,3 1,1 0,1 1,1 1,0 1,1 m 50,-5 l 23,0 -23,10 0,-21 23,11 m -23,-4 l 15,0 m -15,-4 l 8,0 m -8,11 l 14,0 m -14,4 l 6,0 m -60,-7 l 65,0 m -64,-3 l 9,0 m -9,5 l 9,0 m 453,227 l 2,0 1,-1 1,0 1,-1 0,-1 1,-1 0,-3 -1,-1 0,-1 -1,-1 -1,0 -1,-1 -3,0 -1,1 -1,0 -1,1 0,1 -1,1 0,3 1,1 0,1 1,1 1,0 1,1 m 7,-5 l -11,0 m 1,-3 l 9,0 m -9,5 l 9,0"></path>
<text class="t2"><tspan x="7127" y="2951">30</tspan>
</text>
<path class="stroke4" d="M 7194,2944 l 22,0 m -141,-265 l 0,59 m -11,0 l 21,0 0,85 -21,0 0,-85 m 6,140 l 0,5 1,1 0,3 1,1 0,2 1,1 0,1 1,1 0,1 2,2 0,1 6,6 1,0 2,2 1,0 1,1 1,0 1,1 2,0 1,1 3,0 1,1 10,0 1,-1 2,0 1,-1 2,0 1,-1 1,0 1,-1 1,0 2,-2 1,0 6,-6 0,-1 2,-2 0,-1 1,-1 0,-1 1,-1 0,-2 1,-1 0,-2 1,-1 0,-11 -1,-1 0,-2 -1,-1 0,-2 -1,-1 0,-1 -1,-1 0,-1 -2,-2 0,-1 -6,-6 -1,0 -2,-2 -1,0 -1,-1 -1,0 -1,-1 -2,0 -1,-1 -2,0 -1,-1 -10,0 -1,1 -3,0 -1,1 -2,0 -1,1 -1,0 -1,1 -1,0 -2,2 -1,0 -6,6 0,1 -2,2 0,1 -1,1 0,1 -1,1 0,2 -1,1 0,3 -1,1 0,3 m 5,-54 l  0,40 m 5,22 l 41,0 m -45,-22 l 13,22 m 36,-21 l -2,11 -6,-4 8,-7 m -23,21 l 0,60 m 12,-60 l 12,-22 79,0 0,67 m -131,-213 l 2,0 1,-1 1,0 1,-1 0,-1 1,-1 0,-3 -1,-1 0,-1 -1,-1 -1,0 -1,-1 -3,0 -1,1 -1,0 -1,1 0,1 -1,1 0,3 1,1 0,1 1,1 1,0 1,1 m 50,-5 l 23,0 -23,10 0,-21 23,11 m -23,-4 l 15,0 m -15,-4 l 8,0 m -8,11 l 14,0 m -14,4 l 6,0 m -60,-7 l 65,0 m -64,-3 l 9,0 m -9,5 l 9,0 m 453,227 l 2,0 1,-1 1,0 1,-1 0,-1 1,-1 0,-3 -1,-1 0,-1 -1,-1 -1,0 -1,-1 -3,0 -1,1 -1,0 -1,1 0,1 -1,1 0,3 1,1 0,1 1,1 1,0 1,1 m 7,-5 l -11,0 m 1,-3 l 9,0 m -9,5 l 9,0"></path>
<text class="t2"><tspan x="7454" y="2951">30</tspan>
</text>
<path class="stroke4" d="M 7521,2944 l 23,0 m -142,-265 l 0,59 m -11,0 l 21,0 0,85 -21,0 0,-85 m 7,140 l 0,5 1,1 0,3 1,1 0,2 1,1 0,1 1,1 0,1 2,2 0,1 6,6 1,0 2,2 1,0 1,1 1,0 1,1 2,0 1,1 3,0 1,1 10,0 1,-1 2,0 1,-1 2,0 1,-1 1,0 1,-1 1,0 2,-2 1,0 6,-6 0,-1 2,-2 0,-1 1,-1 0,-1 1,-1 0,-2 1,-1 0,-2 1,-1 0,-11 -1,-1 0,-2 -1,-1 0,-2 -1,-1 0,-1 -1,-1 0,-1 -2,-2 0,-1 -6,-6 -1,0 -2,-2 -1,0 -1,-1 -1,0 -1,-1 -2,0 -1,-1 -2,0 -1,-1 -10,0 -1,1 -3,0 -1,1 -2,0 -1,1 -1,0 -1,1 -1,0 -2,2 -1,0 -6,6 0,1 -2,2 0,1 -1,1 0,1 -1,1 0,2 -1,1 0,3 -1,1 0,3 m 4,-54 l  0,40 m 5,22 l 41,0 m -45,-22 l 13,22 m 36,-21 l -2,11 -6,-4 8,-7 m -23,21 l 0,60 m 12,-60 l 12,-22 79,0 0,67 m -131,-213 l 2,0 1,-1 1,0 1,-1 0,-1 1,-1 0,-3 -1,-1 0,-1 -1,-1 -1,0 -1,-1 -3,0 -1,1 -1,0 -1,1 0,1 -1,1 0,3 1,1 0,1 1,1 1,0 1,1 m 50,-5 l 23,0 -23,10 0,-21 23,11 m -23,-4 l 15,0 m -15,-4 l 8,0 m -8,11 l 14,0 m -14,4 l 6,0 m -60,-7 l 65,0 m -64,-3 l 9,0 m -9,5 l 9,0 m -762,-1728 l -11,0 m 1,-3 l 9,0 m -9,5 l 9,0 m -5,23 l 0,-20 2,0 1,-1 1,0 1,-1 0,-1 1,-1 0,-3 -1,-1 0,-1 -1,-1 -1,0 -1,-1 -3,0 -1,1 -1,0 -1,1 0,1 -1,1 0,3 1,1 0,1 1,1 1,0 1,1 m -9,20 l 21,0 0,85 -21,0 0,-85 m -26,-25 l 74,0 m -38,110 l 0,56"></path>
<text class="t2"><tspan x="6620" y="968">15</tspan>
</text>
<path class="stroke4" d="M 6638,1129 l 2,0 1,-1 1,0 1,-1 0,-1 1,-1 0,-3 -1,-1 0,-1 -1,-1 -1,0 -1,-1 -3,0 -1,1 -1,0 -1,1 0,1 -1,1 0,3 1,1 0,1 1,1 1,0 1,1 m 50,-6 l 23,0 -23,11 0,-22 23,11 m -23,-3 l 15,0 m -15,-4 l 8,0 m -8,11 l 14,0 m -14,4 l 6,0 m -60,-8 l 65,0 m -64,-2 l 9,0 m -9,5 l 9,0"></path>
<path style="fill:none;stroke:#000000;stroke-width:15" d="M 4730,1179 l 0,600"></path>
<path class="stroke4" d="M 4866,958 l -4,0 -1,1 -3,0 -1,1 -2,0 -1,1 -1,0 -1,1 -1,0 -2,2 -1,0 -6,6 0,1 -2,2 0,1 -1,1 0,1 -1,1 0,2 -1,1 0,3 -1,1 0,10 1,1 0,2 1,1 0,2 1,1 0,1 1,1 0,1 2,2 0,1 6,6 1,0 2,2 1,0 1,1 1,0 1,1 2,0 1,1 2,0 1,1 11,0 1,-1 2,0 1,-1 2,0 1,-1 1,0 1,-1 1,0 2,-2 1,0 6,-6 0,-1 2,-2 0,-1 1,-1 0,-1 1,-1 0,-2 1,-1 0,-2 1,-1 0,-10 -1,-1 0,-3 -1,-1 0,-2 -1,-1 0,-1 -1,-1 0,-1 -2,-2 0,-1 -6,-6 -1,0 -2,-2 -1,0 -1,-1 -1,0 -1,-1 -2,0 -1,-1 -3,0 -1,-1 -4,0 m -40,69 l 78,0 0,-76 -78,0 0,76 m 39,-33 l 0,25 m -20,-25 l 41,0 m -45,-21 l  12,21 m 37,-21 l -12,21 m -26,-2 l -8,-7 6,-4 2,11 m -1801,1820 l -5,0 -1,1 -3,0 -1,1 -1,0 -1,1 -1,0 -1,1 -1,0 -1,1 -1,0 -8,8 0,1 -1,1 0,1 -1,1 0,1 -1,1 0,1 -1,1 0,3 -1,1 0,11 1,1 0,3 1,1 0,1 1,1 0,1 1,1 0,1 1,1 0,1 8,8 1,0 1,1 1,0 1,1 1,0 1,1 1,0 1,1 3,0 1,1 10,0 1,-1 3,0 1,-1 1,0 1,-1 1,0 1,-1 1,0 1,-1 1,0 8,-8 0,-1 1,-1 0,-1 1,-1 0,-1 1,-1 0,-1 1,-1 0,-3 1,-1 0,-11 -1,-1 0,-3 -1,-1 0,-1 -1,-1 0,-1 -1,-1 0,-1 -1,-1 0,-1 -8,-8 -1,0 -1,-1 -1,0 -1,-1 -1,0 -1,-1 -1,0 -1,-1 -3,0 -1,-1 -4,0 m -41,69 l 79,0 0,-76  -79,0 0,76 m 40,-33 l 0,25 m -21,-25 l 41,0 m -45,-21 l 12,21 m 38,-21 l -13,21 m -26,-2 l -8,-7 6,-4 2,11"></path>
<path class="white" d="M 408,1261 l 28,0 0,28 -28,0 0,-28 z"></path>
<path class="black" d="M 421,1262 l 2,0 0,11 -2,0 0,-11 z"></path>
<path class="stroke4" d="M 421,1262 l 2,0 0,11 -2,0 0,-11"></path>
<path class="stroke6" d="M 435,1275 l 0,3 -1,1 0,2 -6,6 -2,0 -1,1 -6,0 -1,-1 -2,0 -6,-6 0,-2 -1,-1 0,-3"></path>
<text class="t2"><tspan x="460" y="1321"><a xmlns:xlink="http://www.w3.org/1999/xlink" xlink:type="simple" xlink:show="replace" xlink:actuate="onRequest" xlink:href="javascript:locateTree('X11005');">X11005</a>
</tspan>

<tspan x="361" y="1321">4</tspan>
</text>
<text class="t3"><tspan x="897" y="834">.</tspan>
</text>
<text class="t2"><tspan x="897" y="870"><a xmlns:xlink="http://www.w3.org/1999/xlink" xlink:type="simple" xlink:show="replace" xlink:actuate="onRequest" xlink:href="javascript:locateTree('A4010');">A4010</a>
</tspan>
</text>
<text class="t2"><tspan x="897" y="939">Junction box</tspan>
</text>
<path class="stroke4" d="M 439,1012 l -34,0 0,96 34,0 0,-96 m -17,140 l 0,-140 m -7,-15 l 15,0 m -17,3 l 18,0 m -18,2 l 19,0 m -20,3 l 20,0 m -19,2 l 18,0 m -16,3 l 15,0 m -12,-15 l 9,0 m 1,17 l 4,-4 0,-2 1,-1 0,-3 -1,-1 0,-2 -4,-4 -1,0 -1,-1 -6,0 -1,1 -1,0 -1,1 -1,0 -2,2 0,1 -1,1 0,1 -1,1 0,5 1,1 0,1 1,1 3,2"></path>
<text class="t2"><tspan x="679" y="966"><a xmlns:xlink="http://www.w3.org/1999/xlink" xlink:type="simple" xlink:show="replace" xlink:actuate="onRequest" xlink:href="javascript:locateTree('F37');">F37</a>
</tspan>

<tspan x="403" y="980">87</tspan>

<tspan x="488" y="1089">30A</tspan>
</text>
<path class="stroke4" d="M 422,1150 l 0,111"></path>
<path class="stroke8" d="M 313,934 l 14,0 m 18,0 l 29,0 m 17,0 l 29,0 m 18,0 l 29,0 m 17,0 l 30,0 m 17,0 l 29,0 m 18,0 l 29,0 m 17,0 l 16,0 0,13 m 0,16 l 0,28 m 0,16 l 0,27 m 0,16 l 0,28 m 0,16 l 0,27 m 0,16 l 0,15 -14,0 m -18,0 l -29,0 m -17,0 l -29,0 m -18,0 l -29,0 m -17,0 l -30,0 m -17,0 l -29,0 m -18,0 l -29,0 m -17,0 l -16,0 0,-13 m 0,-16 l 0,-28 m 0,-16 l 0,-27 m 0,-16 l 0,-28 m 0,-16 l 0,-27 m 0,-16 l 0,-15"></path>
<path class="stroke4" d="M 4703,1888 l 54,0 0,55 -54,0 0,-55"></path>
<path class="stroke3" d="M 4721,1916 l 12,0 1,-1 1,0 2,-2 0,-1 1,-1 0,-4 -1,-1 0,-1 -2,-2 -1,0 -1,-1 -12,0 0,27"></path>
<text class="t3"><tspan x="5150" y="1816">.</tspan>
</text>
<text class="t2"><tspan x="5150" y="1852"><a xmlns:xlink="http://www.w3.org/1999/xlink" xlink:type="simple" xlink:show="replace" xlink:actuate="onRequest" xlink:href="javascript:locateTree('B6239');">B6239</a>
</tspan>
</text>
<text class="t2"><tspan x="5150" y="1921">Intake pipe pres-</tspan>

<tspan x="5150" y="1965">sure sensor</tspan>
</text>
<path class="stroke4" d="M 4729,991 l 2,0 1,-1 1,0 1,-1 0,-1 1,-1 0,-3 -1,-1 0,-1 -1,-1 -1,0 -1,-1 -3,0 -1,1 -1,0 -1,1 0,1 -1,1 0,3 1,1 0,1 1,1 1,0 1,1 m 7,-5 l -11,0 m 1,-3 l 10,0 m -10,5 l 9,0 m -4,3 l 0,20 m -11,0 l 22,0 0,85 -22,0 0,-85 m -26,-25 l 74,0 m -37,110 l 0,56"></path>
<text class="t2"><tspan x="4711" y="968">15</tspan>
</text>
<path class="stroke4" d="M 4730,1129 l 2,0 1,-1 1,0 1,-1 0,-1 1,-1 0,-3 -1,-1 0,-1 -1,-1 -1,0 -1,-1 -3,0 -1,1 -1,0 -1,1 0,1 -1,1 0,3 1,1 0,1 1,1 1,0 1,1 m 49,-6 l 24,0 -24,11 0,-22 24,11 m -24,-3 l 16,0 m -16,-4 l 9,0 m -9,11 l 14,0 m -14,4 l 7,0 m -60,-8 l 64,0 m -63,-2 l 9,0 m -9,5 l 9,0"></path>
<text class="t2"><tspan x="4768" y="1566">U_PNDK</tspan>

<tspan x="4768" y="1620">0.5</tspan>

<tspan x="4768" y="1664">BL/GE</tspan>
</text>
<path class="white" d="M 4716,1152 l 27,0 0,27 -27,0 0,-27 z"></path>
<path class="black" d="M 4729,1152 l 2,0 0,11 -2,0 0,-11 z"></path>
<path class="stroke4" d="M 4729,1152 l 2,0 0,11 -2,0 0,-11"></path>
<path class="stroke6" d="M 4743,1166 l 0,3 -1,1 0,2 -6,6 -2,0 -1,1 -6,0 -1,-1 -2,0 -6,-6 0,-2 -1,-1 0,-3"></path>
<text class="t2"><tspan x="4646" y="1211">31</tspan>
</text>
<path class="white" d="M 4744,1807 l -28,0 0,-28 28,0 0,28 z"></path>
<path class="black" d="M 4731,1806 l -2,0 0,-11 2,0 0,11 z"></path>
<path class="stroke4" d="M 4731,1806 l -2,0 0,-11 2,0 0,11"></path>
<path class="stroke6" d="M 4717,1793 l 0,-3 1,-1 0,-2 6,-6 2,0 1,-1 6,0 1,1 2,0 6,6 0,2 1,1 0,3"></path>
<text class="t2"><tspan x="4768" y="1771"><a xmlns:xlink="http://www.w3.org/1999/xlink" xlink:type="simple" xlink:show="replace" xlink:actuate="onRequest" xlink:href="javascript:locateTree('X6584');">X6584</a>
</tspan>

<tspan x="4669" y="1771">2</tspan>
</text>
<path class="stroke4" d="M 4579,2038 l 30,0 m 15,0 l 30,0 m 15,0 l 30,0 m 15,0 l 30,0 m 15,0 l 30,0 m 15,0 l 30,0 m 15,0 l 30,0"></path>
<text class="t2"><tspan x="4605" y="2438">M_PNDK</tspan>

<tspan x="4932" y="2438">A_PNDK</tspan>

<tspan x="4932" y="2493">0.5</tspan>

<tspan x="4605" y="2493">0.5</tspan>

<tspan x="4605" y="2537">SW/RT</tspan>

<tspan x="4932" y="2537">GE</tspan>
</text>
<path class="stroke4" d="M 4579,2665 l 30,0 m 15,0 l 30,0 m 15,0 l 30,0 m 15,0 l 30,0 m 15,0 l 30,0 m 15,0 l 30,0 m 15,0 l 30,0"></path>
<path class="white" d="M 4553,2025 l 27,0 0,27 -27,0 0,-27 z"></path>
<path class="black" d="M 4565,2025 l 2,0 0,11 -2,0 0,-11 z"></path>
<path class="stroke4" d="M 4565,2025 l 2,0 0,11 -2,0 0,-11"></path>
<path class="stroke6" d="M 4579,2038 l 0,3 -1,1 0,2 -6,6 -2,0 -1,1 -6,0 -1,-1 -2,0 -6,-6 0,-2 -1,-1 0,-3"></path>
<text class="t2"><tspan x="4505" y="2084">4</tspan>
</text>
<path class="white" d="M 4880,2025 l 27,0 0,27 -27,0 0,-27 z"></path>
<path class="black" d="M 4893,2025 l 1,0 0,11 -1,0 0,-11 z"></path>
<path class="stroke4" d="M 4893,2025 l 1,0 0,11 -1,0 0,-11"></path>
<path class="stroke6" d="M 4907,2038 l 0,3 -1,1 0,1 -1,1 0,1 -4,4 -1,0 -1,1 -1,0 -1,1 -7,0 -1,-1 -1,0 -1,-1 -1,0 -4,-4 0,-1 -1,-1 0,-1 -1,-1 0,-3"></path>
<text class="t2"><tspan x="4932" y="2084"><a xmlns:xlink="http://www.w3.org/1999/xlink" xlink:type="simple" xlink:show="replace" xlink:actuate="onRequest" xlink:href="javascript:locateTree('X6584');">X6584</a>
</tspan>

<tspan x="4832" y="2084">1</tspan>
</text>
<path class="white" d="M 4580,2679 l -27,0 0,-27 27,0 0,27 z"></path>
<path class="black" d="M 4567,2679 l -1,0 0,-11 1,0 0,11 z"></path>
<path class="stroke4" d="M 4567,2679 l -1,0 0,-11 1,0 0,11"></path>
<path class="stroke6" d="M 4553,2665 l 0,-3 1,-1 0,-2 6,-6 2,0 1,-1 6,0 1,1 2,0 6,6 0,2 1,1 0,3"></path>
<text class="t2"><tspan x="4482" y="2643">32</tspan>
</text>
<path class="white" d="M 4907,2679 l -27,0 0,-27 27,0 0,27 z"></path>
<path class="black" d="M 4894,2679 l -1,0 0,-11 1,0 0,11 z"></path>
<path class="stroke4" d="M 4894,2679 l -1,0 0,-11 1,0 0,11"></path>
<path class="stroke6" d="M 4880,2665 l 0,-3 1,-1 0,-1 1,-1 0,-1 4,-4 1,0 1,-1 1,0 1,-1 7,0 1,1 1,0 1,1 1,0 4,4 0,1 1,1 0,1 1,1 0,3"></path>
<text class="t2"><tspan x="4809" y="2643">33</tspan>
</text>
<path class="stroke8" d="M 4457,1807 l 655,0 0,218 -655,0 0,-218"></path>
<path class="stroke4" d="M 4566,2866 l 2,0 1,-1 1,0 1,-1 0,-1 1,-1 0,-3 -1,-1 0,-1 -1,-1 -1,0 -1,-1 -3,0 -1,1 -1,0 -1,1 0,1 -1,1 0,3 1,1 0,1 1,1 1,0 1,1 m 7,-5 l -11,0 m 1,-3 l 9,0 m -9,6 l 9,0"></path>
<text class="t2"><tspan x="4488" y="2876">31</tspan>
</text>
<path class="stroke4" d="M 4566,2679 l 0,65 m -10,85 l 21,0 0,-85 -21,0 0,85 m 10,-109 l 2,0 1,-1 1,0 1,-1 0,-1 1,-1 0,-3 -1,-1 0,-1 -1,-1 -1,0 -1,-1 -3,0 -1,1 -1,0 -1,1 0,1 -1,1 0,3 1,1 0,1 1,1 1,0 1,1 m -10,149 l 22,0 m 37,-154 l 24,0 -24,10 0,-21 24,11 m -24,-4 l 16,0 m -16,-4 l 9,0 m -9,11 l 15,0 m -15,4 l 7,0 m -55,107 l 0,26 m -5,-140 l 64,0 m -63,-3 l 9,0 m -9,5 l 9,0 m 159,-829 l 0,-81 m -164,218 l 0,-109 137,0 m 190,109 l 0,-109 -136,0 m 267,1025 l 2,0 1,-1 1,0 1,-1 0,-1 1,-1 0,-3 -1,-1 0,-1 -1,-1 -1,0 -1,-1 -3,0 -1,1 -1,0 -1,1 0,1 -1,1 0,3 1,1 0,1 1,1 1,0 1,1 m 7,-5 l -11,0 m 1,-3 l 9,0 m -9,5 l 9,0"></path>
<text class="t2"><tspan x="4946" y="2951">31</tspan>
</text>
<path class="stroke4" d="M 5013,2944 l 22,0 m -142,-265 l 0,59 m -10,0 l 21,0 0,85 -21,0 0,-85 m 6,140 l 0,5 1,1 0,3 1,1 0,2 1,1 0,1 1,1 0,1 2,2 0,1 6,6 1,0 2,2 1,0 1,1 1,0 1,1 2,0 1,1 3,0 1,1 10,0 1,-1 2,0 1,-1 2,0 1,-1 1,0 1,-1 1,0 2,-2 1,0 6,-6 0,-1 2,-2 0,-1 1,-1 0,-1 1,-1 0,-2 1,-1 0,-2 1,-1 0,-11 -1,-1 0,-2 -1,-1 0,-2 -1,-1 0,-1 -1,-1 0,-1 -2,-2 0,-1 -6,-6 -1,0 -2,-2 -1,0 -1,-1 -1,0 -1,-1 -2,0 -1,-1 -2,0 -1,-1 -10,0 -1,1 -3,0 -1,1 -2,0 -1,1 -1,0 -1,1 -1,0 -2,2 -1,0 -6,6 0,1 -2,2 0,1 -1,1 0,1 -1,1 0,2 -1,1 0,3 -1,1 0,3 m 4,-54 l  0,40 m 6,22 l 41,0 m -45,-22 l 12,22 m 37,-21 l -2,11 -6,-4 8,-7 m -23,21 l 0,60 m 12,-60 l 12,-22 79,0 0,67 m -131,-213 l 2,0 1,-1 1,0 1,-1 0,-1 1,-1 0,-3 -1,-1 0,-1 -1,-1 -1,0 -1,-1 -3,0 -1,1 -1,0 -1,1 0,1 -1,1 0,3 1,1 0,1 1,1 1,0 1,1 m 50,-5 l 23,0 -23,10 0,-21 23,11 m -23,-4 l 15,0 m -15,-4 l 8,0 m -8,11 l 14,0 m -14,4 l 6,0 m -60,-7 l 65,0 m -64,-3 l 9,0 m -9,5 l 9,0 m -155,-1548 l 30,0 m 14,0 l 30,0 m 14,0 l 30,0 m 14,0 l 30,0 m 14,0 l 30,0 m 14,0 l 30,0 m 14,0 l 30,0 m 14,0 l 30,0 m 14,0 l 30,0 m 14,0 l 30,0 m 14,0 l 30,0 m 14,0 l 30,0 m 14,0 l 30,0 m 14,0 l 30,0"></path>
<path class="stroke4" d="M 5359,1166 l 30,0 m 14,0 l 30,0 m 14,0 l 30,0 m 14,0 l 30,0 m 14,0 l 30,0 m 14,0 l 30,0 m 14,0 l 30,0 m 14,0 l 30,0 m 14,0 l 30,0 m 14,0 l 30,0 m 14,0 l 30,0 m 14,0 l 30,0 m 14,0 l 30,0 m 14,0 l 30,0 m 14,0 l 30,0 m 14,0 l 30,0 m 14,0 l 30,0 m 14,0 l 30,0 m 14,0 l 30,0 m 14,0 l 30,0 m 14,0 l 30,0 m 14,0 l 30,0 m 14,0 l 30,0 m 14,0 l 30,0 m 14,0 l 30,0 m 14,0 l 30,0 m 14,0 l 30,0 m 14,0 l 30,0 m 14,0 l 30,0"></path>
<text class="t3"><tspan x="1878" y="1816">.</tspan>
</text>
<text class="t2"><tspan x="1878" y="1852"><a xmlns:xlink="http://www.w3.org/1999/xlink" xlink:type="simple" xlink:show="replace" xlink:actuate="onRequest" xlink:href="javascript:locateTree('Y6723');">Y6723</a>
</tspan>
</text>
<text class="t2"><tspan x="1878" y="1921">Wastegate valve 2</tspan>
</text>
<path class="white" d="M 1636,1807 l -28,0 0,-28 28,0 0,28 z"></path>
<path class="black" d="M 1623,1806 l -2,0 0,-11 2,0 0,11 z"></path>
<path class="stroke4" d="M 1623,1806 l -2,0 0,-11 2,0 0,11"></path>
<path class="stroke6" d="M 1609,1793 l 0,-3 1,-1 0,-2 6,-6 2,0 1,-1 6,0 1,1 2,0 6,6 0,2 1,1 0,3"></path>
<text class="t2"><tspan x="1660" y="1771"><a xmlns:xlink="http://www.w3.org/1999/xlink" xlink:type="simple" xlink:show="replace" xlink:actuate="onRequest" xlink:href="javascript:locateTree('X6723');">X6723</a>
</tspan>

<tspan x="1561" y="1771">1</tspan>
</text>
<path class="white" d="M 1608,2025 l 27,0 0,27 -27,0 0,-27 z"></path>
<path class="black" d="M 1621,2025 l 2,0 0,11 -2,0 0,-11 z"></path>
<path class="stroke4" d="M 1621,2025 l 2,0 0,11 -2,0 0,-11"></path>
<path class="stroke6" d="M 1635,2038 l 0,3 -1,1 0,2 -6,6 -2,0 -1,1 -6,0 -1,-1 -2,0 -6,-6 0,-2 -1,-1 0,-3"></path>
<text class="t2"><tspan x="1660" y="2084"><a xmlns:xlink="http://www.w3.org/1999/xlink" xlink:type="simple" xlink:show="replace" xlink:actuate="onRequest" xlink:href="javascript:locateTree('X6723');">X6723</a>
</tspan>

<tspan x="1560" y="2084">2</tspan>
</text>
<path class="stroke8" d="M 1513,1807 l 327,0 0,218 -327,0 0,-218"></path>
<text class="t3"><tspan x="679" y="1816">.</tspan>
</text>
<text class="t2"><tspan x="679" y="1852"><a xmlns:xlink="http://www.w3.org/1999/xlink" xlink:type="simple" xlink:show="replace" xlink:actuate="onRequest" xlink:href="javascript:locateTree('Y6039');">Y6039</a>
</tspan>
</text>
<text class="t2"><tspan x="679" y="1921">Wastegate valve</tspan>
</text>
<path class="white" d="M 436,1807 l -27,0 0,-28 27,0 0,28 z"></path>
<path class="black" d="M 423,1806 l -2,0 0,-11 2,0 0,11 z"></path>
<path class="stroke4" d="M 423,1806 l -2,0 0,-11 2,0 0,11"></path>
<path class="stroke6" d="M 409,1793 l 0,-3 1,-1 0,-2 6,-6 2,0 1,-1 6,0 1,1 2,0 6,6 0,2 1,1 0,3"></path>
<text class="t2"><tspan x="461" y="1771"><a xmlns:xlink="http://www.w3.org/1999/xlink" xlink:type="simple" xlink:show="replace" xlink:actuate="onRequest" xlink:href="javascript:locateTree('X6722');">X6722</a>
</tspan>

<tspan x="361" y="1771">1</tspan>
</text>
<path class="white" d="M 408,2025 l 28,0 0,27 -28,0 0,-27 z"></path>
<path class="black" d="M 421,2025 l 2,0 0,11 -2,0 0,-11 z"></path>
<path class="stroke4" d="M 421,2025 l 2,0 0,11 -2,0 0,-11"></path>
<path class="stroke6" d="M 435,2038 l 0,3 -1,1 0,2 -6,6 -2,0 -1,1 -6,0 -1,-1 -2,0 -6,-6 0,-2 -1,-1 0,-3"></path>
<text class="t2"><tspan x="460" y="2084"><a xmlns:xlink="http://www.w3.org/1999/xlink" xlink:type="simple" xlink:show="replace" xlink:actuate="onRequest" xlink:href="javascript:locateTree('X6722');">X6722</a>
</tspan>

<tspan x="361" y="2084">2</tspan>
</text>
<path class="stroke8" d="M 313,1807 l 327,0 0,218 -327,0 0,-218"></path>
<path style="fill:none;stroke:#000000;stroke-width:15" d="M 422,2052 l 0,600"></path>
<text class="t2"><tspan x="460" y="2436">T_WG1</tspan>

<tspan x="460" y="2490">0.5</tspan>

<tspan x="460" y="2534">WS/GR</tspan>
</text>
<path class="stroke4" d="M 436,2665 l 29,0 m 14,0 l 30,0 m 14,0 l 30,0 m 14,0 l 30,0 m 14,0 l 30,0 m 14,0 l 29,0 m 14,0 l 30,0 m 14,0 l 30,0 m 14,0 l 30,0 m 14,0 l 30,0 m 14,0 l 29,0 m 14,0 l 30,0 m 14,0 l 30,0 m 14,0 l 30,0 m 14,0 l 30,0 m 14,0 l 29,0 m 14,0 l 30,0 m 14,0 l 30,0 m 14,0 l 30,0 m 14,0 l 30,0 m 14,0 l 29,0 m 14,0 l 30,0 m 14,0 l 30,0 m 14,0 l 30,0 m 14,0 l 30,0 m 14,0 l 29,0 m 14,0 l 30,0"></path>
<path class="white" d="M 436,2679 l -27,0 0,-27 27,0 0,27 z"></path>
<path class="black" d="M 423,2679 l -2,0 0,-11 2,0 0,11 z"></path>
<path class="stroke4" d="M 423,2679 l -2,0 0,-11 2,0 0,11"></path>
<path class="stroke6" d="M 409,2665 l 0,-3 1,-1 0,-2 6,-6 2,0 1,-1 6,0 1,1 2,0 6,6 0,2 1,1 0,3"></path>
<text class="t2"><tspan x="361" y="2643">7</tspan>
</text>
<path class="stroke4" d="M 552,2941 l 2,0 1,-1 1,0 1,-1 0,-1 1,-1 0,-3 -1,-1 0,-1 -1,-1 -1,0 -1,-1 -3,0 -1,1 -1,0 -1,1 0,1 -1,1 0,3 1,1 0,1 1,1 1,0 1,1 m 7,-5 l -11,0 m 1,-3 l 9,0 m -9,5 l 9,0"></path>
<text class="t2"><tspan x="475" y="2951">31</tspan>
</text>
<path class="stroke4" d="M 542,2944 l 22,0 m -142,-265 l 0,59 m -11,0 l 22,0 0,85 -22,0 0,-85 m 7,140 l 0,5 1,1 0,3 1,1 0,2 1,1 0,1 1,1 0,1 2,2 0,1 6,6 1,0 2,2 1,0 1,1 1,0 1,1 2,0 1,1 3,0 1,1 10,0 1,-1 2,0 1,-1 2,0 1,-1 1,0 1,-1 1,0 2,-2 1,0 6,-6 0,-1 2,-2 0,-1 1,-1 0,-1 1,-1 0,-2 1,-1 0,-2 1,-1 0,-11 -1,-1 0,-2 -1,-1 0,-2 -1,-1 0,-1 -1,-1 0,-1 -2,-2 0,-1 -6,-6 -1,0 -2,-2 -1,0 -1,-1 -1,0 -1,-1 -2,0 -1,-1 -2,0 -1,-1 -10,0 -1,1 -3,0 -1,1 -2,0 -1,1 -1,0 -1,1 -1,0 -2,2 -1,0 -6,6 0,1 -2,2 0,1 -1,1 0,1 -1,1 0,2 -1,1 0,3 -1,1 0,3 m 4,-54 l  0,40 m 6,22 l 41,0 m -45,-22 l 12,22 m 37,-21 l -2,11 -7,-4 8,-7 m -23,21 l 0,60 m 12,-60 l 13,-22 79,0 0,67 m -131,-213 l 2,0 1,-1 1,0 1,-1 0,-1 1,-1 0,-3 -1,-1 0,-1 -1,-1 -1,0 -1,-1 -3,0 -1,1 -1,0 -1,1 0,1 -1,1 0,3 1,1 0,1 1,1 1,0 1,1 m 49,-5 l 24,0 -24,10 0,-21 24,11 m -24,-4 l 16,0 m -16,-4 l 9,0 m -9,11 l 14,0 m -14,4 l 7,0 m -60,-7 l 64,0 m -63,-3 l 9,0 m -9,5 l 9,0"></path>
<path class="white" d="M 1636,2679 l -28,0 0,-27 28,0 0,27 z"></path>
<path class="black" d="M 1623,2679 l -2,0 0,-11 2,0 0,11 z"></path>
<path class="stroke4" d="M 1623,2679 l -2,0 0,-11 2,0 0,11"></path>
<path class="stroke6" d="M 1609,2665 l 0,-3 1,-1 0,-2 6,-6 2,0 1,-1 6,0 1,1 2,0 6,6 0,2 1,1 0,3"></path>
<text class="t2"><tspan x="1660" y="2643"><a xmlns:xlink="http://www.w3.org/1999/xlink" xlink:type="simple" xlink:show="replace" xlink:actuate="onRequest" xlink:href="javascript:locateTree('X60007');">X60007</a>
</tspan>

<tspan x="1538" y="2643">14</tspan>
</text>
<path class="stroke4" d="M 1752,2941 l 2,0 1,-1 1,0 1,-1 0,-1 1,-1 0,-3 -1,-1 0,-1 -1,-1 -1,0 -1,-1 -3,0 -1,1 -1,0 -1,1 0,1 -1,1 0,3 1,1 0,1 1,1 1,0 1,1 m 7,-5 l -11,0 m 1,-3 l 9,0 m -9,5 l 9,0"></path>
<text class="t2"><tspan x="1674" y="2951">31</tspan>
</text>
<path class="stroke4" d="M 1741,2944 l 23,0 m -142,-265 l 0,59 m -11,0 l 21,0 0,85 -21,0 0,-85 m 7,140 l 0,5 1,1 0,3 1,1 0,2 1,1 0,1 1,1 0,1 1,1 0,1 8,8 1,0 1,1 1,0 1,1 1,0 1,1 1,0 1,1 3,0 1,1 10,0 1,-1 3,0 1,-1 1,0 1,-1 1,0 1,-1 1,0 1,-1 1,0 8,-8 0,-1 1,-1 0,-1 1,-1 0,-1 1,-1 0,-1 1,-1 0,-3 1,-1 0,-11 -1,-1 0,-3 -1,-1 0,-1 -1,-1 0,-1 -1,-1 0,-1 -1,-1 0,-1 -8,-8 -1,0 -1,-1 -1,0 -1,-1 -1,0 -1,-1 -1,0 -1,-1 -3,0 -1,-1 -10,0 -1,1 -3,0 -1,1 -1,0 -1,1 -1,0 -1,1 -1,0 -1,1 -1,0 -8,8 0,1 -1,1 0,1 -1,1 0,1 -1,1 0,2 -1,1 0,3 -1,1 0,3 m 4,-54 l  0,40 m 5,22 l 41,0 m -45,-22 l 13,22 m 36,-21 l -2,11 -6,-4 8,-7 m -23,21 l 0,60 m 12,-60 l 12,-22 79,0 0,67 m -131,-213 l 2,0 1,-1 1,0 1,-1 0,-1 1,-1 0,-3 -1,-1 0,-1 -1,-1 -1,0 -1,-1 -3,0 -1,1 -1,0 -1,1 0,1 -1,1 0,3 1,1 0,1 1,1 1,0 1,1 m 50,-5 l 23,0 -23,10 0,-21 23,11 m -23,-4 l 15,0 m -15,-4 l 8,0 m -8,11 l 14,0 m -14,4 l 6,0 m -60,-7 l 65,0 m -64,-3 l 9,0 m -9,5 l 9,0"></path>
<path style="fill:none;stroke:#000000;stroke-width:15" d="M 1622,2052 l 0,600 m -1200,-1363 l 0,490"></path>
<text class="t2"><tspan x="460" y="1566">U_HR&lt;37</tspan>

<tspan x="460" y="1621">0.5</tspan>

<tspan x="460" y="1664">OR</tspan>
</text>
<path style="fill:none;stroke:#000000;stroke-width:15" d="M 1622,1479 l 0,300"></path>
<text class="t2"><tspan x="1660" y="1566">U_HR&lt;37</tspan>

<tspan x="1660" y="1621">0.5</tspan>

<tspan x="1660" y="1664">OR</tspan>

<tspan x="1660" y="2436">T_WG2</tspan>

<tspan x="1660" y="2490">0.5</tspan>

<tspan x="1660" y="2534">WS</tspan>
</text>
<path class="white" d="M 418,1463 l -1,1 -2,0 -2,2 -1,0 -5,5 0,1 -1,1 0,2 -1,1 0,7 1,1 0,2 1,1 0,1 5,5 1,0 2,2 2,0 1,1 8,0 1,-1 2,0 2,-2 1,0 5,-5 0,-1 1,-1 0,-2 1,-1 0,-7 -1,-1 0,-2 -1,-1 0,-1 -5,-5 -1,0 -2,-2 -2,0 -1,-1 -8,0 z"></path>
<path class="stroke4" d="M 422,1472 l -2,0 -1,1 -1,0 -2,2 0,1 -1,1 0,5 1,1 0,1 2,2 1,0 1,1 4,0 1,-1 1,0 2,-2 0,-1 1,-1 0,-5 -1,-1 0,-1 -2,-2 -1,0 -1,-1 -1,0 m -6,3 l 10,0 m -11,2 l 12,0 m -13,1 l 14,0 m -14,2 l 14,0 m -13,2 l 12,0 m -11,2 l 11,0 m -9,2 l 6,0 m -6,-13 l 6,0 m 4482,1192 l 29,0 m 14,0 l 30,0 m 14,0 l 30,0 m 14,0 l 30,0 m 14,0 l 30,0 m 14,0 l 29,0 m 14,0 l 30,0 m 14,0 l 30,0 m 14,0 l 30,0 m 14,0 l 30,0 m 14,0 l 29,0 m 14,0 l 30,0 m 14,0 l 30,0 m 14,0 l 30,0 m 14,0 l 30,0 m 14,0 l 29,0 m 14,0 l 30,0 m 14,0 l 30,0 m 14,0 l 30,0 m 14,0 l 30,0 m 14,0 l 29,0 m 14,0 l 30,0 m 14,0 l 30,0 m 14,0 l 30,0"></path>
<path class="stroke4" d="M 5958,2665 l 30,0 m 14,0 l 29,0 m 14,0 l 30,0 m 349,-653 l 1,0 1,1 1,0 2,2 1,0 1,1 0,1 2,2 0,2 1,1 0,6 -1,1 0,2 -2,2 0,1 -1,1 -1,0 -2,2 -1,0 -1,1 -1,0 m -7,-26 l -1,0 -1,1 -1,0 -2,2 -1,0 -1,1 0,1 -2,2 0,2 -1,1 0,6 1,1 0,2 2,2 0,1 1,1 1,0 2,2 1,0 1,1 1,0 m 334,-26 l 1,0 1,1 1,0 2,2 1,0 1,1 0,1 2,2 0,2 1,1 0,6 -1,1 0,2 -2,2 0,1 -1,1 -1,0 -2,2 -1,0 -1,1 -1,0 m -7,-26 l -1,0 -1,1 -1,0 -2,2 -1,0 -1,1 0,1 -2,2 0,2 -1,1 0,6 1,1 0,2 2,2 0,1 1,1 1,0 2,2 1,0 1,1 1,0 m 498,-26 l 1,0 1,1 1,0 2,2 1,0  1,1 0,1 2,2 0,2 1,1 0,6 -1,1 0,2 -2,2 0,1 -1,1 -1,0 -2,2 -1,0 -1,1 -1,0 m -7,-26 l -1,0 -1,1 -1,0 -2,2 -1,0 -1,1 0,1 -2,2 0,2 -1,1 0,6 1,1 0,2 2,2 0,1 1,1 1,0 2,2 1,0 1,1 1,0 m -473,-13 l 29,0 m 14,0 l 29,0 m 14,0 l 29,0 m 14,0 l 29,0 m 14,0 l 29,0 m 14,0 l 29,0 m 14,0 l 30,0 m 13,0 l 30,0 m 13,0 l 30,0 m 13,0 l 30,0 m 14,0 l 29,0 m -6743,-79 l 35,-61 m -34,-1 l 34,0 m -34,63 l 34,0 -35,-62 m -19,29 l 36,0 m -37,-15 l -64,0 0,31 64,0 0,-31 m -45,0 l 20,30 m -12,-122 l 0,92 m 0,31 l 0,95 m 1292,-78 l -36,-62 m 0,61 l 36,-61 m -34,-1 l 33,0 m -33,63 l 33,0 m -54,-33 l 36,0"></path>
<path class="stroke4" d="M 1658,1899 l -63,0 0,31 63,0 0,-31 m -44,0 l 20,30 m -12,-122 l 0,92 m 0,31 l 0,95"></path>
<path style="fill:none;stroke:#000000;stroke-width:15" d="M 1785,1479 l -163,0"></path>
<path class="stroke4" d="M 1785,1497 l 40,-18 -40,-19 0,37 m 0,-25 l 24,0 m -24,4 l 32,0 m -32,3 l 40,0 m -40,4 l 32,0 m -32,4 l 24,0 m -24,3 l 16,0 m -16,4 l 7,0 m -7,-26 l 16,0 m -16,-3 l 9,0 m -9,-4 l 2,0"></path>
<path class="white" d="M 1618,1463 l -1,1 -2,0 -2,2 -1,0 -5,5 0,1 -1,1 0,2 -1,1 0,7 1,1 0,2 1,1 0,1 5,5 1,0 2,2 2,0 1,1 8,0 1,-1 2,0 2,-2 1,0 5,-5 0,-1 1,-1 0,-2 1,-1 0,-7 -1,-1 0,-2 -1,-1 0,-1 -5,-5 -1,0 -2,-2 -2,0 -1,-1 -8,0 z"></path>
<path class="stroke4" d="M 1622,1472 l -2,0 -1,1 -1,0 -2,2 0,1 -1,1 0,5 1,1 0,1 2,2 1,0 1,1 4,0 1,-1 1,0 2,-2 0,-1 1,-1 0,-5 -1,-1 0,-1 -2,-2 -1,0 -1,-1 -1,0 m -6,3 l 10,0 m -11,2 l 12,0 m -13,1 l 14,0 m -14,2 l 14,0 m -13,2 l 12,0 m -11,2 l 10,0 m -8,2 l 6,0 m -6,-13 l 6,0"></path>
<path style="fill:none;stroke:#000000;stroke-width:15" d="M 3149,2052 l 0,600 m -328,-600 l 0,600 m 164,-1473 l 0,600"></path>
<path class="stroke4" d="M 2958,1888 l 54,0 0,55 -54,0 0,-55"></path>
<path class="stroke3" d="M 2976,1916 l 12,0 1,-1 1,0 2,-2 0,-1 1,-1 0,-4 -1,-1 0,-1 -2,-2 -1,0 -1,-1 -12,0 0,27"></path>
<text class="t3"><tspan x="3623" y="1816">.</tspan>
</text>
<text class="t2"><tspan x="3023" y="1566">U_PVDK</tspan>

<tspan x="3023" y="1620">0.5</tspan>

<tspan x="3023" y="1664">BL/GE</tspan>

<tspan x="3623" y="1852"><a xmlns:xlink="http://www.w3.org/1999/xlink" xlink:type="simple" xlink:show="replace" xlink:actuate="onRequest" xlink:href="javascript:locateTree('B6583');">B6583</a>
</tspan>
</text>
<text class="t2"><tspan x="3623" y="1921">Intake temperature</tspan>

<tspan x="3623" y="1965">- boost pressure</tspan>

<tspan x="3623" y="2009">sensor</tspan>
</text>
<path class="white" d="M 2971,1152 l 28,0 0,27 -28,0 0,-27 z"></path>
<path class="black" d="M 2984,1152 l 2,0 0,11 -2,0 0,-11 z"></path>
<path class="stroke4" d="M 2984,1152 l 2,0 0,11 -2,0 0,-11"></path>
<path class="stroke6" d="M 2998,1166 l 0,3 -1,1 0,2 -6,6 -2,0 -1,1 -6,0 -1,-1 -2,0 -6,-6 0,-2 -1,-1 0,-3"></path>
<text class="t2"><tspan x="2904" y="1211">11</tspan>
</text>
<path class="white" d="M 2999,1807 l -27,0 0,-28 27,0 0,28 z"></path>
<path class="black" d="M 2986,1806 l -2,0 0,-11 2,0 0,11 z"></path>
<path class="stroke4" d="M 2986,1806 l -2,0 0,-11 2,0 0,11"></path>
<path class="stroke6" d="M 2972,1793 l 0,-3 1,-1 0,-2 6,-6 2,0 1,-1 6,0 1,1 2,0 6,6 0,2 1,1 0,3"></path>
<text class="t2"><tspan x="2924" y="1771">2</tspan>
</text>
<path class="stroke4" d="M 2835,2038 l 30,0 m 14,0 l 31,0 m 14,0 l 31,0 m 14,0 l 31,0 m 14,0 l 30,0 m 15,0 l 30,0 m 14,0 l 31,0"></path>
<text class="t2"><tspan x="2860" y="2438">A_PVDK</tspan>

<tspan x="3187" y="2438">M_PVDK</tspan>

<tspan x="3187" y="2493">0.5</tspan>

<tspan x="2860" y="2493">0.5</tspan>

<tspan x="2860" y="2537">GE</tspan>

<tspan x="3187" y="2537">SW/GE</tspan>
</text>
<path class="stroke4" d="M 2835,2665 l 30,0 m 14,0 l 31,0 m 14,0 l 31,0 m 14,0 l 31,0 m 14,0 l 30,0 m 15,0 l 30,0 m 14,0 l 31,0"></path>
<path class="white" d="M 2808,2025 l 27,0 0,27 -27,0 0,-27 z"></path>
<path class="black" d="M 2821,2025 l 1,0 0,11 -1,0 0,-11 z"></path>
<path class="stroke4" d="M 2821,2025 l 1,0 0,11 -1,0 0,-11"></path>
<path class="stroke6" d="M 2835,2038 l 0,3 -1,1 0,1 -1,1 0,1 -4,4 -1,0 -1,1 -1,0 -1,1 -7,0 -1,-1 -1,0 -1,-1 -1,0 -4,-4 0,-1 -1,-1 0,-1 -1,-1 0,-3"></path>
<text class="t2"><tspan x="2760" y="2084">1</tspan>
</text>
<path class="white" d="M 3135,2025 l 27,0 0,27 -27,0 0,-27 z"></path>
<path class="black" d="M 3148,2025 l 1,0 0,11 -1,0 0,-11 z"></path>
<path class="stroke4" d="M 3148,2025 l 1,0 0,11 -1,0 0,-11"></path>
<path class="stroke6" d="M 3162,2038 l 0,3 -1,1 0,1 -1,1 0,1 -4,4 -1,0 -1,1 -1,0 -1,1 -7,0 -1,-1 -1,0 -1,-1 -1,0 -4,-4 0,-1 -1,-1 0,-1 -1,-1 0,-3"></path>
<text class="t2"><tspan x="3187" y="2084"><a xmlns:xlink="http://www.w3.org/1999/xlink" xlink:type="simple" xlink:show="replace" xlink:actuate="onRequest" xlink:href="javascript:locateTree('X6583');">X6583</a>
</tspan>

<tspan x="3087" y="2084">4</tspan>
</text>
<path class="white" d="M 2835,2679 l -27,0 0,-27 27,0 0,27 z"></path>
<path class="black" d="M 2822,2679 l -1,0 0,-11 1,0 0,11 z"></path>
<path class="stroke4" d="M 2822,2679 l -1,0 0,-11 1,0 0,11"></path>
<path class="stroke6" d="M 2808,2665 l 0,-3 1,-1 0,-1 1,-1 0,-1 4,-4 1,0 1,-1 1,0 1,-1 7,0 1,1 1,0 1,1 1,0 4,4 0,1 1,1 0,1 1,1 0,3"></path>
<text class="t2"><tspan x="2737" y="2643">10</tspan>
</text>
<path class="white" d="M 3162,2679 l -27,0 0,-27 27,0 0,27 z"></path>
<path class="black" d="M 3150,2679 l -2,0 0,-11 2,0 0,11 z"></path>
<path class="stroke4" d="M 3150,2679 l -2,0 0,-11 2,0 0,11"></path>
<path class="stroke6" d="M 3135,2665 l 0,-3 1,-1 0,-1 1,-1 0,-1 4,-4 1,0 1,-1 1,0 1,-1 7,0 1,1 1,0 1,1 1,0 4,4 0,1 1,1 0,1 1,1 0,3"></path>
<text class="t2"><tspan x="3087" y="2643">9</tspan>
</text>
<path class="stroke4" d="M 2985,1888 l 0,-81 m -164,218 l 0,-109 137,0 m 191,109 l 0,-109 -137,0 m 267,1025 l 2,0 1,-1 1,0 1,-1 0,-1 1,-1 0,-3 -1,-1 0,-1 -1,-1 -1,0 -1,-1 -3,0 -1,1 -1,0 -1,1 0,1 -1,1 0,3 1,1 0,1 1,1 1,0 1,1 m 7,-5 l -11,0 m 1,-3 l 9,0 m -9,5 l 9,0"></path>
<text class="t2"><tspan x="3201" y="2951">31</tspan>
</text>
<path class="stroke4" d="M 3268,2944 l 22,0 m -141,-265 l 0,59 m -11,0 l 21,0 0,85 -21,0 0,-85 m 6,140 l 0,5 1,1 0,3 1,1 0,2 1,1 0,1 1,1 0,1 2,2 0,1 6,6 1,0 2,2 1,0 1,1 1,0 1,1 2,0 1,1 3,0 1,1 10,0 1,-1 2,0 1,-1 2,0 1,-1 1,0 1,-1 1,0 2,-2 1,0 6,-6 0,-1 2,-2 0,-1 1,-1 0,-1 1,-1 0,-2 1,-1 0,-2 1,-1 0,-11 -1,-1 0,-2 -1,-1 0,-2 -1,-1 0,-1 -1,-1 0,-1 -2,-2 0,-1 -6,-6 -1,0 -2,-2 -1,0 -1,-1 -1,0 -1,-1 -2,0 -1,-1 -2,0 -1,-1 -10,0 -1,1 -3,0 -1,1 -2,0 -1,1 -1,0 -1,1 -1,0 -2,2 -1,0 -6,6 0,1 -2,2 0,1 -1,1 0,1 -1,1 0,2 -1,1 0,3 -1,1 0,3 m 5,-54 l  0,40 m 5,22 l 41,0 m -45,-22 l 12,22 m 37,-21 l -2,11 -6,-4 8,-7 m -23,21 l 0,60 m 12,-60 l 12,-22 79,0 0,67 m -131,-213 l 2,0 1,-1 1,0 1,-1 0,-1 1,-1 0,-3 -1,-1 0,-1 -1,-1 -1,0 -1,-1 -3,0 -1,1 -1,0 -1,1 0,1 -1,1 0,3 1,1 0,1 1,1 1,0 1,1 m 50,-5 l 23,0 -23,10 0,-21 23,11 m -23,-4 l 15,0 m -15,-4 l 8,0 m -8,11 l 14,0 m -14,4 l 6,0 m -60,-7 l 65,0 m -64,-3 l 9,0 m -9,5 l 9,0"></path>
<path style="fill:none;stroke:#000000;stroke-width:15" d="M 3367,1180 l 0,599"></path>
<path class="stroke4" d="M 2998,1166 l 31,0 m 15,0 l 31,0 m 15,0 l 31,0 m 15,0 l 32,0 m 14,0 l 32,0 m 15,0 l 31,0 m 15,0 l 31,0 m 15,0 l 31,0"></path>
<text class="t2"><tspan x="3405" y="1566">A_TVDK</tspan>

<tspan x="3405" y="1620">0.5</tspan>

<tspan x="3405" y="1664">GE/RT</tspan>
</text>
<path class="stroke4" d="M 2998,1793 l 31,0 m 15,0 l 31,0 m 15,0 l 31,0 m 15,0 l 32,0 m 14,0 l 32,0 m 15,0 l 31,0 m 15,0 l 31,0 m 15,0 l 31,0"></path>
<path class="white" d="M 3353,1152 l 27,0 0,28 -27,0 0,-28 z"></path>
<path class="black" d="M 3366,1152 l 1,0 0,12 -1,0 0,-12 z"></path>
<path class="stroke4" d="M 3366,1152 l 1,0 0,12 -1,0 0,-12"></path>
<path class="stroke6" d="M 3380,1166 l 0,3 -1,1 0,2 -6,6 -2,0 -1,1 -6,0 -1,-1 -2,0 -6,-6 0,-2 -1,-1 0,-3"></path>
<text class="t2"><tspan x="3282" y="1212">17</tspan>
</text>
<path class="white" d="M 3380,1807 l -27,0 0,-28 27,0 0,28 z"></path>
<path class="black" d="M 3368,1806 l -2,0 0,-11 2,0 0,11 z"></path>
<path class="stroke4" d="M 3368,1806 l -2,0 0,-11 2,0 0,11"></path>
<path class="stroke6" d="M 3354,1793 l 0,-3 1,-1 0,-2 6,-6 2,0 1,-1 6,0 1,1 2,0 6,6 0,2 1,1 0,3"></path>
<text class="t2"><tspan x="3405" y="1771"><a xmlns:xlink="http://www.w3.org/1999/xlink" xlink:type="simple" xlink:show="replace" xlink:actuate="onRequest" xlink:href="javascript:locateTree('X6583');">X6583</a>
</tspan>

<tspan x="3306" y="1771">3</tspan>
</text>
<path class="stroke4" d="M 3320,1855 l 25,23 0,-7 6,-2 -32,-14 m 26,17 l -24,-16 m 24,19 l -11,-7 m 14,2 l -11,-7 m 57,42 l -48,-33 m 21,-28 l 0,-37 m 11,37 l -23,0 0,85 23,0 0,-85 m -11,126 l 0,-41 m 56,-55 l 0,-1 -1,-1 -1,0 -2,-2 0,1 0,-1 -1,0 -1,-1 -6,0 0,1 -2,0 0,1 -1,1 0,1 0,-1 -1,1 0,6 1,1 0,1 1,1 0,1 1,1 1,0 0,1 1,1 1,0 1,1 1,0 15,4 m -4,1 l 0,-12 -1,-2 0,-2 m -21,17 l 1,-1 1,0 0,1 m 20,-2 l 0,4 -3,6 0,1 -1,1 -1,0 0,1 -1,0 0,1 0,-1 -2,0 0,1 0,-1 -1,0 0,1 0,-1 -2,0 0,1 0,-1 -1,-1 0,1 m -8,-12 l 1,1 1,0 0,1 1,0 1,1 0,1 1,1 0,2 1,2 2,2 m -2,-3 l 0,1 1,1 0,1 m 10,-1 l -1,0 0,1 1,-2  1,-1 m 1,-24 l -2,-2 m -75,96 l 37,0"></path>
<path class="stroke8" d="M 2712,1807 l 873,0 0,218 -873,0 0,-218 m -2508,-982 l 14,0 m 18,0 l 29,0 m 17,0 l 29,0 m 18,0 l 29,0 m 17,0 l 30,0 m 17,0 l 29,0 m 18,0 l 29,0 m 17,0 l 29,0 m 18,0 l 29,0 m 17,0 l 30,0 m 17,0 l 29,0 m 18,0 l 29,0 m 17,0 l 29,0 m 18,0 l 29,0 m 17,0 l 17,0 0,15 m 0,18 l 0,30 m 0,18 l 0,30 m 0,18 l 0,31 m 0,18 l 0,30 m 0,18 l 0,30 m 0,18 l 0,30 m 0,19 l 0,30 m 0,18 l 0,30 m 0,18 l 0,17 -14,0 m -18,0 l -29,0 m -17,0 l -29,0 m -18,0 l -29,0 m -17,0 l -30,0 m -17,0 l -29,0 m -18,0 l -29,0 m -17,0 l -29,0 m -18,0 l -29,0"></path>
<path class="stroke8" d="M 454,1261 l -30,0 m -17,0 l -29,0 m -18,0 l -29,0 m -17,0 l -29,0 m -18,0 l -29,0 m -17,0 l -17,0 0,-15 m 0,-18 l 0,-30 m 0,-18 l 0,-30 m 0,-18 l 0,-31 m 0,-18 l 0,-30 m 0,-18 l 0,-30 m 0,-18 l 0,-30 m 0,-19 l 0,-30 m 0,-18 l 0,-30 m 0,-18 l 0,-17"></path>
<path class="stroke4" d="M 2952,2941 l 2,0 1,-1 1,0 1,-1 0,-1 1,-1 0,-3 -1,-1 0,-1 -1,-1 -1,0 -1,-1 -3,0 -1,1 -1,0 -1,1 0,1 -1,1 0,3 1,1 0,1 1,1 1,0 1,1 m 7,-5 l -11,0 m 0,-3 l 10,0 m -10,5 l 10,0"></path>
<text class="t2"><tspan x="2874" y="2951">31</tspan>
</text>
<path class="stroke4" d="M 2941,2944 l 22,0 m -142,-265 l 0,59 m -10,0 l 21,0 0,85 -21,0 0,-85 m 6,140 l 0,5 1,1 0,3 1,1 0,2 1,1 0,1 1,1 0,1 2,2 0,1 6,6 1,0 2,2 1,0 1,1 1,0 1,1 2,0 1,1 3,0 1,1 10,0 1,-1 2,0 1,-1 2,0 1,-1 1,0 1,-1 1,0 2,-2 1,0 6,-6 0,-1 2,-2 0,-1 1,-1 0,-1 1,-1 0,-2 1,-1 0,-2 1,-1 0,-11 -1,-1 0,-2 -1,-1 0,-2 -1,-1 0,-1 -1,-1 0,-1 -2,-2 0,-1 -6,-6 -1,0 -2,-2 -1,0 -1,-1 -1,0 -1,-1 -2,0 -1,-1 -2,0 -1,-1 -10,0 -1,1 -3,0 -1,1 -2,0 -1,1 -1,0 -1,1 -1,0 -2,2 -1,0 -6,6 0,1 -2,2 0,1 -1,1 0,1 -1,1 0,2 -1,1 0,3 -1,1 0,3 m 4,-54 l  0,40 m 6,22 l 41,0 m -45,-22 l 12,22 m 37,-21 l -2,11 -7,-4 9,-7 m -23,21 l 0,60 m 12,-60 l 12,-22 79,0 0,67 m -131,-213 l 2,0 1,-1 1,0 1,-1 0,-1 1,-1 0,-3 -1,-1 0,-1 -1,-1 -1,0 -1,-1 -3,0 -1,1 -1,0 -1,1 0,1 -1,1 0,3 1,1 0,1 1,1 1,0 1,1 m 50,-5 l 23,0 -23,10 0,-21 23,11 m -23,-4 l 15,0 m -15,-4 l 8,0 m -8,11 l 14,0 m -14,4 l 6,0 m -60,-7 l 65,0 m -64,-3 l 9,0 m -9,5 l 9,0 m 266,-1826 l -11,0 m 1,-3 l 9,0 m -9,5 l 9,0 m -5,24 l 0,-21 2,0 1,-1 1,0 1,-1 0,-1 1,-1 0,-3 -1,-1 0,-1 -1,-1 -1,0 -1,-1 -3,0 -1,1 -1,0 -1,1 0,1 -1,1 0,3 1,1 0,1 1,1 1,0 1,1 m -10,21 l 22,0 0,84 -22,0 0,-84 m -25,-26 l 74,0"></path>
<text class="t2"><tspan x="3069" y="871">30</tspan>
</text>
<path class="stroke4" d="M 2985,1051 l 0,101 m 107,-87 l 0,-4 -1,-1 0,-3 -1,-1 0,-2 -1,-1 0,-1 -1,-1 0,-1 -2,-2 0,-1 -6,-6 -1,0 -2,-2 -1,0 -1,-1 -1,0 -1,-1 -2,0 -1,-1 -3,0 -1,-1 -10,0 -1,1 -2,0 -1,1 -2,0 -1,1 -1,0 -1,1 -1,0 -2,2 -1,0 -6,6 0,1 -2,2 0,1 -1,1 0,1 -1,1 0,2 -1,1 0,2 -1,1 0,11 1,1 0,2 1,1 0,2 1,1 0,1 1,1 0,1 2,2 0,1 6,6 1,0 2,2 1,0 1,1 1,0 1,1 2,0 1,1 2,0 1,1 10,0 1,-1 3,0 1,-1 2,0 1,-1 1,0 1,-1 1,0 2,-2 1,0 6,-6 0,-1 2,-2 0,-1 1,-1 0,-1 1,-1 0,-2 1,-1 0,-3 1,-1 0,-4 m -10,6 l -41,0 m 45,-74 l 0,52 -12,22 m -38,-22 l 13,22 m -12,-21 l  2,11 7,-4 -9,-7 m 49,-27 l 2,0 1,-1 1,0 1,-1 0,-1 1,-1 0,-3 -1,-1 0,-1 -1,-1 -1,0 -1,-1 -3,0 -1,1 -1,0 -1,1 0,1 -1,1 0,3 1,1 0,1 1,1 1,0 1,1 m 1,-5 l 57,0 m -8,0 l 23,0 -23,10 0,-21 23,11 m -23,-4 l 15,0 m -15,-3 l 8,0 m -8,10 l 14,0 m -14,4 l 6,0 m -49,-7 l -11,0 m 1,-3 l 9,0 m -9,5 l 9,0 m -30,51 l 0,60 m -24,-81 l -52,0 m 482,-158 l 2,0 1,-1 1,0 1,-1 0,-1 1,-1 0,-3 -1,-1 0,-1 -1,-1 -1,0 -1,-1 -3,0 -1,1 -1,0 -1,1 0,1 -1,1 0,3 1,1 0,1 1,1 1,0 1,1 m 7,-5 l -11,0 m 1,-3 l 10,0 m -10,5 l 9,0 m -4,3 l 0,21 m -11,0 l 22,0 0,84 -22,0 0,-84 m -26,-26 l 74,0"></path>
<text class="t2"><tspan x="3450" y="871">31</tspan>
</text>
<path class="stroke4" d="M 3367,1051 l 0,101 m 107,-87 l 0,-4 -1,-1 0,-3 -1,-1 0,-2 -1,-1 0,-1 -1,-1 0,-1 -2,-2 0,-1 -6,-6 -1,0 -2,-2 -1,0 -1,-1 -1,0 -1,-1 -2,0 -1,-1 -3,0 -1,-1 -10,0 -1,1 -2,0 -1,1 -2,0 -1,1 -1,0 -1,1 -1,0 -2,2 -1,0 -6,6 0,1 -2,2 0,1 -1,1 0,1 -1,1 0,2 -1,1 0,2 -1,1 0,11 1,1 0,2 1,1 0,2 1,1 0,1 1,1 0,1 2,2 0,1 6,6 1,0 2,2 1,0 1,1 1,0 1,1 2,0 1,1 2,0 1,1 10,0 1,-1 3,0 1,-1 2,0 1,-1 1,0 1,-1 1,0 2,-2 1,0 6,-6 0,-1 2,-2 0,-1 1,-1 0,-1 1,-1 0,-2 1,-1 0,-3 1,-1 0,-4 m -10,6 l -41,0 m 45,-74 l 0,52 -12,22 m -38,-22 l 12,22 m -11,-21 l  2,11 6,-4 -8,-7 m 48,-27 l 2,0 1,-1 1,0 1,-1 0,-1 1,-1 0,-3 -1,-1 0,-1 -1,-1 -1,0 -1,-1 -3,0 -1,1 -1,0 -1,1 0,1 -1,1 0,3 1,1 0,1 1,1 1,0 1,1 m 2,-5 l 57,0 m -9,0 l 24,0 -24,10 0,-21 24,11 m -24,-4 l 16,0 m -16,-3 l 9,0 m -9,10 l 14,0 m -14,4 l 7,0 m -50,-7 l -11,0 m 1,-3 l 9,0 m -9,5 l 9,0 m -30,51 l 0,60 m -23,-81 l -52,0 m -205,1614 l 29,0 m 14,0 l 30,0 m 14,0 l 30,0 m 14,0 l 30,0 m 14,0 l 30,0 m 14,0 l 29,0 m 14,0 l 30,0 m 14,0 l 30,0 m 14,0 l 30,0 m 14,0 l 30,0 m 14,0 l 29,0 m 14,0 l 30,0 m 14,0 l 30,0 m 14,0 l 30,0 m 14,0 l 30,0"></path>
<path class="stroke4" d="M 3819,2665 l 29,0 m 14,0 l 30,0 m 14,0 l 30,0 m 14,0 l 30,0 m 14,0 l 30,0 m 14,0 l 29,0 m 14,0 l 30,0 m 14,0 l 30,0 m 14,0 l 30,0 m 14,0 l 30,0 m 14,0 l 29,0 m 14,0 l 30,0 m 14,0 l 30,0 m 14,0 l 30,0 m 14,0 l 30,0 m 14,0 l 29,0 m 14,0 l 30,0 m -1169,-1499 l 29,0 m 14,0 l 30,0 m 14,0 l 29,0 m 14,0 l 30,0 m 14,0 l 29,0 m 14,0 l 30,0 m 14,0 l 29,0 m 14,0 l 30,0 m 14,0 l 29,0 m 14,0 l 30,0 m 14,0 l 29,0 m 14,0 l 30,0 m 14,0 l 29,0 m 14,0 l 30,0 m 14,0 l 29,0 m 14,0 l 30,0"></path>
<path class="stroke4" d="M 4076,1166 l 29,0 m 14,0 l 30,0 m 14,0 l 29,0 m 14,0 l 30,0 m 14,0 l 29,0 m 14,0 l 30,0 m 14,0 l 29,0 m 14,0 l 30,0 m 14,0 l 29,0 m 14,0 l 30,0 m 14,0 l 29,0 m 14,0 l 30,0 m 14,0 l 29,0 m 14,0 l 30,0 m 14,0 l 29,0"></path>
<path class="stroke8" d="M 313,2679 l 15,0 m 18,0 l 30,0 m 18,0 l 30,0 m 18,0 l 30,0 m 18,0 l 30,0 m 18,0 l 30,0 m 18,0 l 30,0 m 18,0 l 30,0 m 18,0 l 30,0 m 18,0 l 30,0 m 18,0 l 30,0 m 18,0 l 30,0 m 18,0 l 30,0 m 18,0 l 30,0 m 18,0 l 30,0 m 18,0 l 30,0 m 18,0 l 30,0 m 18,0 l 30,0 m 18,0 l 30,0 m 18,0 l 30,0 m 18,0 l 30,0 m 18,0 l 30,0 m 18,0 l 30,0 m 18,0 l 30,0 m 18,0 l 30,0 m 18,0 l 30,0 m 18,0 l 30,0 m 18,0 l 30,0 m 18,0 l 30,0 m 18,0 l 30,0 m 18,0 l 30,0 m 18,0 l 30,0 m 18,0 l 30,0"></path>
<path class="stroke8" d="M 1882,2679 l 30,0 m 18,0 l 30,0 m 18,0 l 30,0 m 18,0 l 30,0 m 18,0 l 30,0 m 18,0 l 30,0 m 18,0 l 30,0 m 18,0 l 30,0 m 18,0 l 30,0 m 18,0 l 30,0 m 18,0 l 30,0 m 18,0 l 30,0 m 18,0 l 30,0 m 18,0 l 30,0 m 18,0 l 30,0 m 18,0 l 30,0 m 18,0 l 30,0 m 18,0 l 30,0 m 18,0 l 30,0 m 18,0 l 30,0 m 18,0 l 30,0 m 18,0 l 30,0 m 18,0 l 30,0 m 18,0 l 30,0 m 18,0 l 30,0 m 18,0 l 30,0 m 18,0 l 30,0 m 18,0 l 30,0 m 18,0 l 30,0 m 18,0 l 30,0 m 18,0 l 30,0 m 18,0 l 30,0 m 18,0 l 30,0"></path>
<path class="stroke8" d="M 3466,2679 l 30,0 m 18,0 l 30,0 m 18,0 l 30,0 m 18,0 l 30,0 m 18,0 l 30,0 m 18,0 l 30,0 m 18,0 l 30,0 m 18,0 l 30,0 m 18,0 l 30,0 m 18,0 l 30,0 m 18,0 l 30,0 m 18,0 l 30,0 m 18,0 l 30,0 m 18,0 l 30,0 m 18,0 l 30,0 m 18,0 l 30,0 m 18,0 l 30,0 m 18,0 l 30,0 m 18,0 l 30,0 m 18,0 l 30,0 m 18,0 l 30,0 m 18,0 l 30,0 m 18,0 l 30,0 m 18,0 l 30,0 m 18,0 l 30,0 m 18,0 l 30,0 m 18,0 l 30,0 m 18,0 l 30,0 m 18,0 l 30,0 m 18,0 l 30,0 m 18,0 l 30,0 m 18,0 l 30,0 m 18,0 l 30,0"></path>
<path class="stroke8" d="M 5050,2679 l 30,0 m 18,0 l 30,0 m 18,0 l 30,0 m 18,0 l 30,0 m 18,0 l 30,0 m 18,0 l 30,0 m 18,0 l 30,0 m 18,0 l 30,0 m 18,0 l 30,0 m 18,0 l 30,0 m 18,0 l 30,0 m 18,0 l 30,0 m 18,0 l 30,0 m 18,0 l 30,0 m 18,0 l 30,0 m 18,0 l 30,0 m 18,0 l 30,0 m 18,0 l 30,0 m 18,0 l 30,0 m 18,0 l 30,0 m 18,0 l 30,0 m 18,0 l 30,0 m 18,0 l 30,0 m 18,0 l 30,0 m 18,0 l 30,0 m 18,0 l 30,0 m 18,0 l 30,0 m 18,0 l 30,0 m 18,0 l 30,0 m 18,0 l 30,0 m 18,0 l 30,0 m 18,0 l 30,0 m 18,0 l 30,0"></path>
<path class="stroke8" d="M 6634,2679 l 30,0 m 18,0 l 30,0 m 18,0 l 30,0 m 18,0 l 30,0 m 18,0 l 30,0 m 18,0 l 30,0 m 18,0 l 30,0 m 18,0 l 30,0 m 18,0 l 30,0 m 18,0 l 30,0 m 18,0 l 30,0 m 18,0 l 30,0 m 18,0 l 30,0 m 18,0 l 30,0 m 18,0 l 30,0 m 18,0 l 30,0 m 18,0 l 30,0 m 18,0 l 30,0 m 18,0 l 30,0 m 18,0 l 30,0 m 18,0 l 26,0 0,14 m 0,18 l 0,29 m 0,17 l 0,29 m 0,18 l 0,29 m 0,17 l 0,30 m 0,17 l 0,29 m 0,18 l 0,29 m 0,17 l 0,16 -15,0 m -18,0 l -30,0 m -18,0 l -30,0 m -18,0 l -30,0 m -18,0 l -30,0 m -18,0 l -30,0"></path>
<path class="stroke8" d="M 7347,3006 l -30,0 m -18,0 l -30,0 m -18,0 l -30,0 m -18,0 l -30,0 m -18,0 l -30,0 m -18,0 l -30,0 m -18,0 l -30,0 m -18,0 l -30,0 m -18,0 l -30,0 m -18,0 l -30,0 m -18,0 l -30,0 m -18,0 l -30,0 m -18,0 l -30,0 m -18,0 l -30,0 m -18,0 l -30,0 m -18,0 l -30,0 m -18,0 l -30,0 m -18,0 l -30,0 m -18,0 l -30,0 m -18,0 l -30,0 m -18,0 l -30,0 m -18,0 l -30,0 m -18,0 l -30,0 m -18,0 l -30,0 m -18,0 l -30,0 m -18,0 l -30,0 m -18,0 l -30,0 m -18,0 l -30,0 m -18,0 l -30,0 m -18,0 l -30,0 m -18,0 l -30,0 m -18,0 l -30,0 m -18,0 l -30,0"></path>
<path class="stroke8" d="M 5763,3006 l -30,0 m -18,0 l -30,0 m -18,0 l -30,0 m -18,0 l -30,0 m -18,0 l -30,0 m -18,0 l -30,0 m -18,0 l -30,0 m -18,0 l -30,0 m -18,0 l -30,0 m -18,0 l -30,0 m -18,0 l -30,0 m -18,0 l -30,0 m -18,0 l -30,0 m -18,0 l -30,0 m -18,0 l -30,0 m -18,0 l -30,0 m -18,0 l -30,0 m -18,0 l -30,0 m -18,0 l -30,0 m -18,0 l -30,0 m -18,0 l -30,0 m -18,0 l -30,0 m -18,0 l -30,0 m -18,0 l -30,0 m -18,0 l -30,0 m -18,0 l -30,0 m -18,0 l -30,0 m -18,0 l -30,0 m -18,0 l -30,0 m -18,0 l -30,0 m -18,0 l -30,0 m -18,0 l -30,0 m -18,0 l -30,0"></path>
<path class="stroke8" d="M 4179,3006 l -30,0 m -18,0 l -30,0 m -18,0 l -30,0 m -18,0 l -30,0 m -18,0 l -30,0 m -18,0 l -30,0 m -18,0 l -30,0 m -18,0 l -30,0 m -18,0 l -30,0 m -18,0 l -30,0 m -18,0 l -30,0 m -18,0 l -30,0 m -18,0 l -30,0 m -18,0 l -30,0 m -18,0 l -30,0 m -18,0 l -30,0 m -18,0 l -30,0 m -18,0 l -30,0 m -18,0 l -30,0 m -18,0 l -30,0 m -18,0 l -30,0 m -18,0 l -30,0 m -18,0 l -30,0 m -18,0 l -30,0 m -18,0 l -30,0 m -18,0 l -30,0 m -18,0 l -30,0 m -18,0 l -30,0 m -18,0 l -30,0 m -18,0 l -30,0 m -18,0 l -30,0 m -18,0 l -30,0 m -18,0 l -30,0"></path>
<path class="stroke8" d="M 2595,3006 l -30,0 m -18,0 l -30,0 m -18,0 l -30,0 m -18,0 l -30,0 m -18,0 l -30,0 m -18,0 l -30,0 m -18,0 l -30,0 m -18,0 l -30,0 m -18,0 l -30,0 m -18,0 l -30,0 m -18,0 l -30,0 m -18,0 l -30,0 m -18,0 l -30,0 m -18,0 l -30,0 m -18,0 l -30,0 m -18,0 l -30,0 m -18,0 l -30,0 m -18,0 l -30,0 m -18,0 l -30,0 m -18,0 l -30,0 m -18,0 l -30,0 m -18,0 l -30,0 m -18,0 l -30,0 m -18,0 l -30,0 m -18,0 l -30,0 m -18,0 l -30,0 m -18,0 l -30,0 m -18,0 l -30,0 m -18,0 l -30,0 m -18,0 l -30,0 m -18,0 l -30,0 m -18,0 l -30,0 m -18,0 l -30,0"></path>
<path class="stroke8" d="M 1011,3006 l -30,0 m -18,0 l -30,0 m -18,0 l -30,0 m -18,0 l -30,0 m -18,0 l -30,0 m -18,0 l -30,0 m -18,0 l -30,0 m -18,0 l -30,0 m -18,0 l -30,0 m -18,0 l -30,0 m -18,0 l -30,0 m -18,0 l -30,0 m -18,0 l -30,0 m -18,0 l -30,0 m -18,0 l -26,0 0,-14 m 0,-18 l 0,-29 m 0,-17 l 0,-29 m 0,-18 l 0,-29 m 0,-17 l 0,-30 m 0,-17 l 0,-29 m 0,-18 l 0,-29 m 0,-17 l 0,-16 m 2563,-1854 l 15,0 m 17,0 l 30,0 m 18,0 l 30,0 m 18,0 l 30,0 m 18,0 l 30,0 m 18,0 l 30,0 m 17,0 l 30,0 m 18,0 l 30,0 m 18,0 l 30,0 m 18,0 l 30,0 m 18,0 l 30,0"></path>
<path class="stroke8" d="M 3386,825 l 30,0 m 18,0 l 30,0 m 18,0 l 30,0 m 18,0 l 30,0 m 18,0 l 30,0 m 17,0 l 30,0 m 18,0 l 30,0 m 18,0 l 30,0 m 18,0 l 30,0 m 18,0 l 30,0 m 17,0 l 30,0 m 18,0 l 30,0 m 18,0 l 30,0 m 18,0 l 30,0 m 18,0 l 30,0 m 17,0 l 30,0 m 18,0 l 30,0 m 18,0 l 30,0 m 18,0 l 30,0 m 18,0 l 30,0 m 17,0 l 30,0 m 18,0 l 30,0 m 18,0 l 30,0 m 18,0 l 30,0 m 18,0 l 30,0 m 17,0 l 30,0 m 18,0 l 30,0 m 18,0 l 30,0 m 18,0 l 30,0 m 18,0 l 30,0 m 17,0 l 30,0 m 18,0 l 30,0 m 18,0 l 30,0"></path>
<path class="stroke8" d="M 4964,825 l 30,0 m 18,0 l 30,0 m 17,0 l 30,0 m 18,0 l 30,0 m 18,0 l 30,0 m 18,0 l 30,0 m 18,0 l 30,0 m 17,0 l 30,0 m 18,0 l 30,0 m 18,0 l 30,0 m 18,0 l 30,0 m 18,0 l 30,0 m 17,0 l 30,0 m 18,0 l 30,0 m 18,0 l 30,0 m 18,0 l 30,0 m 18,0 l 30,0 m 17,0 l 30,0 m 18,0 l 30,0 m 18,0 l 30,0 m 18,0 l 30,0 m 18,0 l 30,0 m 17,0 l 30,0 m 18,0 l 30,0 m 18,0 l 30,0 m 18,0 l 30,0 m 18,0 l 30,0 m 17,0 l 30,0 m 18,0 l 30,0 m 18,0 l 30,0 m 18,0 l 30,0 m 18,0 l 30,0 m 17,0 l 30,0"></path>
<path class="stroke8" d="M 6541,825 l 30,0 m 18,0 l 30,0 m 18,0 l 30,0 m 18,0 l 30,0 m 17,0 l 30,0 m 18,0 l 30,0 m 18,0 l 29,0 0,14 m 0,18 l 0,29 m 0,17 l 0,29 m 0,18 l 0,29 m 0,17 l 0,30 m 0,17 l 0,29 m 0,18 l 0,29 m 0,17 l 0,16 -15,0 m -17,0 l -30,0 m -18,0 l -30,0 m -18,0 l -30,0 m -18,0 l -30,0 m -18,0 l -30,0 m -17,0 l -30,0 m -18,0 l -30,0 m -18,0 l -30,0 m -18,0 l -30,0 m -18,0 l -30,0 m -17,0 l -30,0 m -18,0 l -30,0 m -18,0 l -30,0 m -18,0 l -30,0 m -18,0 l -30,0 m -17,0 l -30,0 m -18,0 l -30,0 m -18,0 l -30,0 m -18,0 l -30,0"></path>
<path class="stroke8" d="M 5916,1152 l -30,0 m -17,0 l -30,0 m -18,0 l -30,0 m -18,0 l -30,0 m -18,0 l -30,0 m -18,0 l -30,0 m -17,0 l -30,0 m -18,0 l -30,0 m -18,0 l -30,0 m -18,0 l -30,0 m -18,0 l -30,0 m -17,0 l -30,0 m -18,0 l -30,0 m -18,0 l -30,0 m -18,0 l -30,0 m -18,0 l -30,0 m -17,0 l -30,0 m -18,0 l -30,0 m -18,0 l -30,0 m -18,0 l -30,0 m -18,0 l -30,0 m -17,0 l -30,0 m -18,0 l -30,0 m -18,0 l -30,0 m -18,0 l -30,0 m -18,0 l -30,0 m -17,0 l -30,0 m -18,0 l -30,0 m -18,0 l -30,0 m -18,0 l -30,0 m -18,0 l -30,0 m -17,0 l -30,0 m -18,0 l -30,0"></path>
<path class="stroke8" d="M 4339,1152 l -30,0 m -18,0 l -30,0 m -18,0 l -30,0 m -17,0 l -30,0 m -18,0 l -30,0 m -18,0 l -30,0 m -18,0 l -30,0 m -18,0 l -30,0 m -17,0 l -30,0 m -18,0 l -30,0 m -18,0 l -30,0 m -18,0 l -30,0 m -18,0 l -30,0 m -17,0 l -30,0 m -18,0 l -30,0 m -18,0 l -30,0 m -18,0 l -30,0 m -18,0 l -30,0 m -17,0 l -30,0 m -18,0 l -30,0 m -18,0 l -30,0 m -18,0 l -30,0 m -18,0 l -30,0 m -17,0 l -30,0 m -18,0 l -30,0 m -18,0 l -30,0 m -18,0 l -30,0 m -18,0 l -30,0 m -17,0 l -30,0 m -18,0 l -30,0 m -18,0 l -29,0 0,-14 m 0,-18 l 0,-29 m 0,-17 l 0,-29"></path>
<path class="stroke8" d="M 2876,1027 l 0,-29 m 0,-17 l 0,-30 m 0,-17 l 0,-29 m 0,-18 l 0,-29 m 0,-17 l 0,-16"></path>
</g>
</svg>
</g></svg>